<?xml version="1.0" encoding="UTF-8"?><svg id="Layer_2" xmlns="http://www.w3.org/2000/svg" xmlns:xlink="http://www.w3.org/1999/xlink" viewBox="0 0 62.5 59"><defs><style>.cls-1,.cls-2,.cls-3,.cls-4{fill:none;}.cls-2,.cls-3{stroke-miterlimit:10;}.cls-2,.cls-3,.cls-4{stroke-width:1.5px;}.cls-2,.cls-4{stroke:#00529c;}.cls-3{stroke:#00a1de;}.cls-5{clip-path:url(#clippath);}.cls-6{fill:#fff;}.cls-7{fill:#d9edf7;}.cls-8{fill:#99cceb;}.cls-4{stroke-linejoin:round;}.cls-9{clip-path:url(#clippath-1);}.cls-10{clip-path:url(#clippath-2);}</style><clipPath id="clippath"><rect class="cls-1" width="62.5" height="59"/></clipPath><clipPath id="clippath-1"><rect class="cls-1" width="62.5" height="59"/></clipPath><clipPath id="clippath-2"><rect class="cls-1" width="62.5" height="59"/></clipPath></defs><g id="Layer_1-2"><g><g class="cls-5"><path class="cls-7" d="M61.75,29.5c0,16.29-13.21,29.5-29.5,29.5S2.75,45.79,2.75,29.5,15.96,0,32.25,0s29.5,13.21,29.5,29.5"/></g><polygon class="cls-8" points=".75 10 .75 46 23.75 46 25.75 48 33.75 48 35.75 46 58.75 46 58.75 10 .75 10"/><g class="cls-9"><polygon class="cls-2" points="58.75 46 35.75 46 33.75 48 25.75 48 23.76 46 .75 46 .75 10 58.75 10 58.75 46"/><path class="cls-6" d="M31.75,44h-2V13c0-3.25,1.95-6,6-6h18V42h-18c-1.94,0-3.25,.54-4,2"/><path class="cls-2" d="M31.75,44h-2V13c0-3.25,1.95-6,6-6h18V42h-18c-1.94,0-3.25,.54-4,2Z"/><path class="cls-6" d="M27.75,44h2V13c0-3.25-1.95-6-6-6H5.75V42H23.75c1.94,0,3.25,.54,4,2"/><path class="cls-2" d="M27.75,44h2V13c0-3.25-1.95-6-6-6H5.75V42H23.75c1.94,0,3.25,.54,4,2Z"/><path class="cls-6" d="M61.5,43.94l-17.75-12.94v21.94c.01,.66,.53,.89,1.06,.38l4.96-4.81,4.8,8.47c.4,.66,1.35,.8,2.12,.32l2.01-1.26c.75-.47,1.05-1.38,.67-2.03l-4.62-8h6.04c.77-.12,1.29-1.67,.71-2.06"/><path class="cls-3" d="M61.5,43.94l-17.75-12.94v21.94c.01,.66,.53,.89,1.06,.38l4.96-4.81,4.8,8.47c.4,.66,1.35,.8,2.12,.32l2.01-1.26c.75-.47,1.05-1.38,.67-2.03l-4.62-8h6.04c.77-.12,1.29-1.67,.71-2.06Z"/></g><path class="cls-3" d="M38.02,33.74l-3.07,1.77m10.52-9.23l1.77-3.07m-9.5,7.79h-4m4.27-2.73l-3.07-1.77m5.06-.23l-1.77-3.07m4.5,2.79v-4"/><g class="cls-10"><path class="cls-6" d="M27.75,44h2V13c0-3.25-1.37-6.53-4.56-7.62L10.75,1.06V36.06l14.44,4.32c1.75,.68,2.19,1.93,2.56,3.62"/><path class="cls-4" d="M27.75,44h2V13c0-3.25-1.37-6.53-4.56-7.62L10.75,1.06V36.06l14.44,4.32c1.75,.68,2.19,1.93,2.56,3.62Z"/></g></g></g></svg>