<?xml version="1.0" encoding="UTF-8"?>
<svg width="84px" height="71px" viewBox="0 0 84 71" version="1.1" xmlns="http://www.w3.org/2000/svg" xmlns:xlink="http://www.w3.org/1999/xlink">
    <!-- Generator: Sketch 53.2 (72643) - https://sketchapp.com -->
    <title>Group 31 Copy 2</title>
    <desc>Created with Sketch.</desc>
    <g id="Page-1" stroke="none" stroke-width="1" fill="none" fill-rule="evenodd">
        <g id="Assets-Copy-2" transform="translate(-555.000000, -309.000000)" stroke="#D2D2D2" stroke-width="2">
            <g id="Group-31-Copy-2" transform="translate(556.000000, 310.000000)">
                <g id="Group-31-Copy">
                    <path d="M64.2782355,38.4679812 C64.2782355,38.4679812 62.4158846,37.2597815 59.7485982,37.5804765 C57.6337675,37.8340492 55.8239124,38.9527526 55.8814078,41.3641799 C55.928904,43.355472 57.6587655,44.7451502 60.2685566,45.699777 C62.8808474,46.6544039 64.5807113,47.2212137 64.6782035,50.0328882 C64.7756957,52.8470487 62.3358911,54.3908593 60.3335514,54.4604676 C58.3287119,54.5300758 57.4837795,54.3510832 55.0339757,53.284586" id="Stroke-1" stroke-linecap="round"></path>
                    <path d="M59.8575051,33.8947368 L59.8575051,37.5263158" id="Stroke-3"></path>
                    <path d="M59.8575051,58.1052632 L59.8575051,54.4736842" id="Stroke-5"></path>
                    <path d="M67.9622223,25.975977 C67.5768145,24.9046697 67.3082723,23.7831841 67.3629754,22.6516628 C67.6265446,17.1822252 70.5158597,13.3210029 72.6542513,8.45370515 C72.890469,7.91428814 73.3753368,7.29207688 72.8830095,6.89065026 C72.0699234,6.2207696 70.21002,6.85803435 69.3795284,7.17415781 C68.0840609,7.66590542 66.7413499,8.31320584 65.3737739,8.07234987 C64.12555,7.85407414 63.1160302,6.92828401 61.9249958,6.48671473 C60.845854,6.08528811 59.6175221,6.10786836 58.5483263,6.54441981 C57.8247543,6.84047194 57.1732908,7.31967496 56.4124212,7.49529911 C53.9681899,8.05729637 51.8720689,5.96987796 49.4527026,6.05518112 C48.751509,6.08027028 47.0880393,6.17059127 46.695172,6.88814135 C46.5211169,7.20426481 46.9885792,7.97450213 47.1253368,8.25048293 C49.9773545,14.0862224 55.8803098,21.2491786 51.5786616,27.8074859 C50.703413,29.1422294 49.5198381,30.2411348 48.2566952,31.2070676 C43.8705059,34.5589798 39.3575051,40.4398798 39.3575051,46.313253 C39.3575051,58.0725439 48.8062121,62.9473684 60.4604462,62.9473684 C72.1146804,62.9473684 81.5609009,58.0725439 81.5633874,46.313253 C81.5633874,36.563604 71.2817023,34.4536054 68.1337909,26.4325998 C68.0741149,26.2795559 68.0169254,26.1290209 67.9622223,25.975977 Z" id="Stroke-7" stroke-linecap="round" stroke-linejoin="round"></path>
                    <path d="M51.4163286,20.5789474 L67.0927992,20.5789474" id="Stroke-9" stroke-linecap="round"></path>
                    <path d="M52.622211,24.2105263 L67.0927992,24.2105263" id="Stroke-11" stroke-linecap="round"></path>
                    <path d="M51.4163286,27.8421053 L68.2986815,27.8421053" id="Stroke-13" stroke-linecap="round"></path>
                    <polyline id="Stroke-15" stroke-linecap="round" stroke-linejoin="round" points="50.2104462 6.82711092 50.2104462 0 0.769269777 0 0.769269777 69 50.2104462 69 50.2104462 61.9132841"></polyline>
                    <polyline id="Stroke-17" stroke-linecap="round" stroke-linejoin="round" points="44.1810345 21.7894737 6.79868154 21.7894737 6.79868154 7.26315789 39.1178995 7.26315789"></polyline>
                    <polyline id="Stroke-19" stroke-linecap="round" stroke-linejoin="round" points="6.79868154 61.7368421 6.79868154 27.8421053 41.7692698 27.8421053"></polyline>
                    <path d="M8.00456389,50.8421053 L32.122211,50.8421053" id="Stroke-21" stroke-linecap="round" stroke-linejoin="round"></path>
                    <path d="M8.00456389,38.7368421 L32.122211,38.7368421" id="Stroke-23" stroke-linecap="round" stroke-linejoin="round"></path>
                    <path d="M20.0633874,27.8421053 L20.0633874,61.7368421" id="Stroke-25" stroke-linecap="round" stroke-linejoin="round"></path>
                    <path d="M32.122211,27.8421053 L32.122211,61.7368421" id="Stroke-27" stroke-linecap="round" stroke-linejoin="round"></path>
                    <path d="M8.00456389,61.7368421 L39.3575051,61.7368421" id="Stroke-29" stroke-linecap="round" stroke-linejoin="round"></path>
                </g>
            </g>
        </g>
    </g>
</svg>