<?xml version="1.0" encoding="UTF-8"?>
<svg width="120px" height="102px" viewBox="0 0 120 102" version="1.1" xmlns="http://www.w3.org/2000/svg" xmlns:xlink="http://www.w3.org/1999/xlink">
    <!-- Generator: Sketch 53.2 (72643) - https://sketchapp.com -->
    <title>Group 23</title>
    <desc>Created with Sketch.</desc>
    <g id="Phase-2---Title-Setup" stroke="none" stroke-width="1" fill="none" fill-rule="evenodd">
        <g id="Group-23" transform="translate(0.869565, 0.000000)">
            <polygon id="Fill-1" fill="#D1D3D5" points="50 25 9 7.60331414 9 3"></polygon>
            <polygon id="Fill-2" fill="#D1D3D5" points="16 1 16 5.40190485 49 24"></polygon>
            <polygon id="Fill-3" fill="#DBDDDF" points="0 79.3625571 49 102 49 27.6596363 0 7"></polygon>
            <polygon id="Fill-4" fill="#DBDDDF" points="106 13 102.027854 15.2873913 102 21 105.958143 18.7328857"></polygon>
            <polygon id="Fill-5" fill="#DBDDDF" points="103 58 106 55.7206664 106 50 103 52.2593052"></polygon>
            <polygon id="Fill-6" fill="#DBDDDF" points="97 50 100 47.747107 100 42 97.0157797 44.3093974"></polygon>
            <polygon id="Fill-7" fill="#DBDDDF" points="104 35 101 37.3188278 101 43 104 40.6809959"></polygon>
            <polygon id="Fill-8" fill="#DBDDDF" points="110 0 107 2.31116257 107 8 110 5.70914516"></polygon>
            <polygon id="Fill-9" fill="#DBDDDF" points="116 54.3169174 116 60 119 57.7238023 119 52"></polygon>
            <polygon id="Fill-10" fill="#DBDDDF" points="110 77 113 74.6575678 113 69 110 71.2903546"></polygon>
            <polygon id="Fill-11" fill="#DBDDDF" points="114 20 111 22.2672922 111 28 113.984082 25.7126087"></polygon>
            <path d="M83.511829,14.2656783 L83.4890955,20.0598245 L79.2126802,22.1853861 L79.2126802,27.4823632 L75.277101,29.4149446 L75.277101,24.1253269 L79.2126802,22.1853861 L79.2278916,16.4061222 L56.1683798,27.7309477 L56.1304348,102 L92.209586,84.2396146 L92.209586,78.9498333 L96.508902,76.8280333 L96.508902,71.5312197 L100.861542,69.4056582 L100.808385,74.5914265 L105.130435,72.4660285 L105.130435,67.2284173 L100.861542,69.3315735 L100.861542,64.1458052 L96.508902,66.2527229 L96.508902,61.0187096 L92.209586,63.1701108 L92.209586,57.8917775 L96.5316356,55.7701411 L96.5316356,50.5286048 L92.209586,52.6504049 L92.1716411,47.3831925 L87.9554028,49.4678683 L87.9554028,44.2189727 L92.1335289,42.112055 L96.4557456,39.990255 L96.4557456,34.5969514 L100.77044,32.4267427 L100.77044,27.1372886 L96.4557456,29.3073336 L96.4557456,24.2291763 L92.1335289,26.3138522 L92.1335289,21.0651201 L96.4711242,18.9618004 L96.4711242,13.6908265 L92.1716411,15.7939827 L92.1716411,10 L83.511829,14.2656783 Z M83.1304348,30.2208164 L87.6701146,28 L87.6701146,33.5136094 L92.1304348,31.2614657 L92.1304348,36.7790124 L87.6701146,39 L87.6701146,33.5136094 L83.1304348,35.7383631 L83.1304348,30.2208164 Z M88.1304348,70.9948235 L92.1304348,69 L92.1304348,73.9910849 L88.1304348,76 L88.1304348,70.9948235 Z" id="Fill-12" fill="#DBDDDF"></path>
            <polygon id="Fill-13" fill="#D1D3D5" points="49 102 57 102 57 28 49 28"></polygon>
        </g>
    </g>
</svg>