<?xml version="1.0" encoding="UTF-8"?><svg id="Layer_1" xmlns="http://www.w3.org/2000/svg" xmlns:xlink="http://www.w3.org/1999/xlink" viewBox="0 0 500 350"><defs><style>.cls-1{fill:none;}.cls-2{clip-path:url(#clippath);}.cls-3{fill:#f7a3a6;}.cls-4{fill:#00539a;}.cls-5{fill:#00539b;}.cls-6{fill:#e8f2f9;}.cls-7{fill:#fff;}.cls-8{fill:#ffc425;}.cls-9{fill:#164d6e;}.cls-10{fill:#0d3447;}.cls-11{fill:#a1c5db;}.cls-12{fill:#58595b;}</style><clipPath id="clippath"><rect class="cls-1" width="500" height="349.37"/></clipPath></defs><g class="cls-2"><path class="cls-6" d="m478.82,233.99c-3.48-5.31-6.88-10.67-9.43-16.45-6.93-15.73-7.07-33.44-6.16-50.53.92-17.09,2.76-34.4-.56-51.2-3.32-16.81-12.83-33.5-28.73-40.77-19.58-8.96-38.99-4.11-59.53-5.85-28.7-2.42-51.71-22.89-75.35-38.95-14.48-9.83-32.37-18.61-49.17-13.32-17.48,5.5-26.96,24.09-42.81,33.14-33.06,18.86-76.69-1.32-112.3.74-13.99.81-29.29,5.35-36.22,17.23-12.78,21.9,3.49,45.64-14.95,66.66-15.54,17.71-41.03,27.14-40.73,53.64.04,3.28.45,6.58,1.4,9.73,1.28,4.28,3.52,8.21,5.6,12.18,6.9,13.19,12.3,27.76,10.93,42.51-1.23,13.24-7.77,25.35-13.09,37.58-5.32,12.24-10.56,26.18-5.97,38.68,5.35,14.54,13.49,20.34,13.49,20.34h457.55s34.03-46.6,25.95-75.99c-3.23-11.75-9.1-22.64-15.72-32.95-1.38-2.15-2.8-4.29-4.21-6.44h0Z"/><path class="cls-11" d="m76.82,295.11c-1.75-.08-3.3-.18-4.74-.33l.09-.94c1.42.14,2.95.25,4.68.32l-.04.94h0Zm-9.45-1c-1.64-.31-3.19-.71-4.63-1.17l.29-.9c1.4.45,2.92.84,4.52,1.14l-.18.93h0Zm-9.06-3c-1.1-.57-2.16-1.2-3.15-1.9-.31-.21-.61-.44-.91-.67l.58-.75c.28.22.58.44.87.65.95.67,1.98,1.29,3.04,1.83l-.43.84h0Zm-7.53-5.9c-1.05-1.25-1.96-2.59-2.69-3.99l.84-.44c.7,1.34,1.57,2.62,2.57,3.82l-.72.61h0Zm-4.39-8.51c-.17-.71-.29-1.44-.37-2.15-.08-.71-.12-1.44-.12-2.17,0-.16,0-.32,0-.48l.94.02c0,.15,0,.3,0,.46,0,.7.04,1.4.11,2.07.08.68.19,1.37.35,2.04l-.92.22h0Zm1.01-9.38l-.93-.19c.28-1.35.65-2.77,1.2-4.61l.9.27c-.54,1.81-.91,3.2-1.18,4.53h0Zm2.59-9.03l-.9-.28c.35-1.15.81-2.68,1.17-4.23l.07-.29.92.21c-.02.1-.04.19-.07.29-.37,1.58-.83,3.13-1.19,4.29h0Zm2.03-9.3l-.94-.1c.13-1.32.2-2.66.2-3.99,0-.22,0-.45,0-.67l.95-.02c0,.23,0,.46,0,.69,0,1.36-.07,2.74-.21,4.08h0Zm-1.09-9.41c-.2-1.53-.49-3.07-.87-4.59l.92-.23c.38,1.55.68,3.13.89,4.69l-.94.12Zm-2.22-9.05c-.52-1.45-1.13-2.9-1.81-4.31l.85-.41c.69,1.43,1.31,2.91,1.85,4.4l-.89.32h0Zm336.1-4.65l-.29-.9c1.49-.48,2.99-.98,4.48-1.48l.3.89c-1.49.5-3,1-4.49,1.48h0Zm8.96-3.02l-.31-.89c1.47-.52,2.96-1.05,4.44-1.59l.32.89c-1.48.54-2.98,1.08-4.45,1.6h0Zm-349.11-.75c-.81-1.32-1.69-2.63-2.63-3.87l.75-.57c.95,1.27,1.86,2.59,2.68,3.94l-.81.49h0Zm357.99-2.5l-.33-.88c1.45-.55,2.93-1.12,4.4-1.7l.35.88c-1.47.58-2.95,1.15-4.41,1.71h0Zm8.8-3.46l-.36-.88c1.45-.59,2.92-1.2,4.35-1.81l.37.87c-1.44.61-2.91,1.22-4.37,1.82h0Zm-372.4-1.49c-.9-.98-1.85-1.92-2.82-2.81-.17-.15-.34-.31-.51-.46l.63-.71c.17.16.35.31.52.47.99.91,1.96,1.87,2.88,2.87l-.7.64h0Zm381.11-2.19l-.38-.87c1.44-.63,2.89-1.27,4.31-1.92l.39.86c-1.42.64-2.88,1.29-4.32,1.92Zm8.61-3.9l-.4-.85.1-.04c1.5-.7,2.85-1.36,4.14-2l.42.85c-1.3.65-2.66,1.31-4.17,2.01l-.09.04h0Zm-396.68-.16c-1.26-.97-2.57-1.91-3.79-2.79l.55-.77c1.23.89,2.54,1.83,3.81,2.81l-.57.75h0Zm405.15-4.1l-.45-.83c1.43-.78,2.79-1.57,4.07-2.35l.49.81c-1.29.79-2.67,1.59-4.11,2.37h0Zm-412.76-1.48c-1.26-.94-2.34-1.78-3.3-2.59-.14-.12-.29-.24-.43-.36l.62-.71c.14.12.28.24.42.35.95.79,2.02,1.63,3.26,2.56l-.56.76h0Zm420.85-3.5l-.54-.77c1.32-.92,2.58-1.88,3.74-2.83l.6.73c-1.18.97-2.46,1.94-3.79,2.87Zm-427.96-2.84c-1.04-1.21-2-2.51-2.83-3.86l.8-.5c.81,1.31,1.73,2.57,2.75,3.74l-.72.62h0Zm435.3-3.22l-.66-.67c1.13-1.12,2.19-2.28,3.14-3.45l.73.6c-.98,1.2-2.05,2.39-3.21,3.53h0Zm-440.33-4.9c-.61-1.46-1.11-3-1.49-4.55l.92-.22c.37,1.51.85,2.99,1.44,4.41l-.87.36h0Zm446.31-2.51l-.8-.5c.83-1.32,1.57-2.7,2.19-4.1l.86.39c-.65,1.44-1.41,2.85-2.25,4.21h0Zm-448.57-6.77c-.08-.9-.12-1.8-.12-2.71,0-.69.02-1.39.07-2.08l.94.06c-.04.67-.06,1.35-.06,2.02,0,.87.04,1.76.11,2.63l-.94.08h0Zm452.48-1.93l-.91-.26c.43-1.47.75-3,.97-4.55l.93.14c-.23,1.59-.57,3.17-1,4.68h0Zm-450.95-7.4l-.92-.2c.33-1.56.78-3.11,1.34-4.59l.89.33c-.54,1.44-.98,2.95-1.3,4.46h0Zm452.32-2.05h-.95c0-.17,0-.34,0-.5,0-1.37-.07-2.78-.23-4.17l.94-.1c.15,1.43.23,2.87.23,4.27,0,.17,0,.33,0,.5h0Zm-449.07-6.63l-.82-.46c.79-1.41,1.68-2.75,2.67-3.98l.74.59c-.95,1.19-1.82,2.49-2.58,3.85h0Zm30.18-2.13c-.14,0-.29,0-.43-.01h-.12s.06-.95.06-.95h.11c.12.01.25.02.38.02,1.39,0,2.76-.41,3.67-1.1l.57.75c-1.09.82-2.63,1.29-4.24,1.29h0Zm416.97-.52c-.33-1.5-.75-3.02-1.25-4.5l.9-.3c.51,1.51.94,3.06,1.27,4.6l-.92.2h0Zm-422.23-.69c-1.43-.64-2.8-1.51-4.08-2.6l.61-.72c1.21,1.03,2.51,1.86,3.86,2.46l-.38.86h0Zm-19.14-3.88l-.62-.71c1.22-1.07,2.53-2.02,3.89-2.82l.48.82c-1.31.77-2.57,1.68-3.74,2.71h0Zm29.14-.61c-.45-1.1-1.56-2.15-3.13-2.94l.42-.84c1.78.89,3.05,2.11,3.58,3.43l-.87.35h0Zm-17.35-1.65c-.68-.93-1.29-1.92-1.81-2.95-.69.16-1.37.36-2.04.58l-.3-.89c.63-.21,1.27-.4,1.92-.56-.06-.12-.11-.24-.16-.36l.86-.38c.08.18.16.35.24.53.6-.12,1.21-.22,1.83-.29l.12.94c-.5.06-1.01.14-1.51.24.47.91,1.02,1.78,1.61,2.6l-.76.56h0Zm426.63-2.02c-.64-1.42-1.36-2.82-2.13-4.16l.82-.47c.79,1.37,1.52,2.8,2.17,4.24l-.86.39h0Zm-416.78-.74c-1.54-.38-3.08-.63-4.58-.74l.07-.94c1.55.11,3.15.37,4.74.76l-.23.92h0Zm-13.78-5.96c-.37-1.47-.65-3.06-.84-4.71l.94-.11c.18,1.61.46,3.15.82,4.58l-.92.23h0Zm425.91-1.39c-.91-1.27-1.89-2.5-2.91-3.65l.71-.63c1.04,1.17,2.04,2.43,2.98,3.73l-.77.55Zm-6.17-7.04c-.59-.59-1.2-1.18-1.8-1.77-.52-.51-1.04-1.03-1.57-1.54l.66-.67c.52.52,1.04,1.03,1.56,1.54.61.6,1.21,1.19,1.81,1.78l-.67.67h0Zm-420.87-1.04c0-.26,0-.52,0-.78,0-.85.02-1.74.06-2.64.02-.45.04-.89.07-1.33l.94.06c-.03.44-.05.87-.07,1.31-.04.89-.06,1.76-.06,2.6,0,.26,0,.51,0,.77h-.95v.02Zm414.2-5.68c-1.2-1.3-2.2-2.5-3.07-3.65l.76-.56c.84,1.13,1.83,2.3,3,3.58l-.7.64h0Zm-412.68-3.68l-.94-.13c.21-1.57.49-3.14.81-4.68l.92.2c-.32,1.52-.59,3.07-.8,4.61h0Zm407.06-4.04c-.76-1.51-1.31-3.04-1.63-4.54l.92-.19c.31,1.45.81,2.86,1.55,4.32l-.84.42h0Zm-405.12-5.12l-.91-.26c.44-1.51.95-3.03,1.51-4.51l.88.33c-.55,1.46-1.05,2.95-1.48,4.44h0Zm404.14-4.17l-.94-.08c.14-1.53.5-3.06,1.11-4.7l.89.33c-.58,1.56-.92,3.02-1.05,4.46h0Zm-400.85-4.59l-.86-.4c.66-1.42,1.38-2.85,2.15-4.24l.83.46c-.76,1.37-1.47,2.77-2.12,4.18h0Zm403.86-4.09l-.83-.45c.55-1.01,1.14-2.03,1.71-3.01.21-.37.43-.73.64-1.1l.82.47c-.21.37-.43.74-.64,1.1-.57.98-1.15,1.99-1.7,2.99h0Zm-399.33-4.11l-.79-.51c.85-1.31,1.76-2.63,2.71-3.9l.76.56c-.94,1.26-1.84,2.55-2.68,3.85h0Zm403.89-4.2l-.86-.39c.65-1.45,1.19-2.92,1.58-4.36l.91.25c-.4,1.5-.95,3.01-1.63,4.51h0Zm-398.29-3.31l-.72-.61c1.01-1.19,2.08-2.38,3.18-3.53l.68.65c-1.09,1.13-2.14,2.31-3.14,3.48h0Zm400.74-5.92l-.94-.07c.04-.57.06-1.14.06-1.71,0-.97-.06-1.95-.19-2.9l.94-.12c.13.99.2,2.01.2,3.02,0,.59-.02,1.19-.07,1.78h0Zm-394.25-.85l-.64-.69c1.14-1.06,2.34-2.12,3.56-3.14l.61.72c-1.21,1.01-2.39,2.05-3.52,3.11h0Zm7.2-6.02l-.57-.75c1.25-.94,2.55-1.87,3.86-2.76l.53.78c-1.3.88-2.59,1.8-3.82,2.73h0Zm384.9-2.29c-.5-1.43-1.16-2.84-1.96-4.18l.81-.48c.83,1.4,1.51,2.86,2.04,4.35l-.89.31h0Zm-377.12-2.98l-.49-.81c1.34-.82,2.72-1.61,4.11-2.37l.45.83c-1.37.75-2.74,1.54-4.07,2.35Zm8.25-4.51l-.41-.85c.62-.3,1.24-.6,1.86-.88.81-.37,1.63-.74,2.45-1.1l.38.87c-.81.35-1.63.72-2.43,1.09-.61.28-1.23.58-1.84.88h0Zm364.21-.45c-.99-1.15-2.1-2.25-3.3-3.27l.61-.72c1.24,1.05,2.38,2.19,3.4,3.38l-.72.62h0Zm-355.6-3.31l-.34-.88c1.44-.56,2.94-1.12,4.44-1.64l.31.89c-1.49.52-2.98,1.07-4.41,1.63h0Zm289.28-.74l-.02-.95c1.45,0,3.02-.09,4.66-.27l.1.94c-1.68.19-3.27.28-4.74.28h0Zm-4.8-.37c-1.66-.28-3.22-.72-4.64-1.32l.37-.87c1.35.57,2.84.99,4.43,1.26l-.16.93h0Zm14.25-.62l-.17-.93c1.41-.26,2.92-.58,4.6-.97l.21.92c-1.7.39-3.22.71-4.64.97h0Zm49.83-.99c-1.29-.82-2.67-1.57-4.09-2.23l.4-.86c1.46.68,2.87,1.44,4.2,2.29l-.5.8h0Zm-339.68-.39l-.28-.9c1.47-.46,3-.91,4.54-1.34l.25.91c-1.53.43-3.05.88-4.51,1.34h0Zm299.1-.72l-.23-.91c1.01-.26,2.02-.52,3.02-.78l1.55-.4.24.91-1.55.4c-1.01.26-2.02.52-3.03.78h0Zm-32.3-1.06c-.13-.11-.27-.22-.4-.33-1.08-.91-2.04-2-2.86-3.26l.79-.52c.77,1.18,1.67,2.2,2.68,3.05.13.11.25.21.38.31l-.59.74h0Zm-257.74-.77l-.23-.92c1.49-.37,3.04-.74,4.6-1.1l.21.92c-1.56.35-3.1.72-4.58,1.09h0Zm299.18-.5l-.22-.92c1.72-.41,3.24-.75,4.63-1.02l.18.93c-1.38.27-2.88.6-4.59,1.01h0Zm23-.48c-1.48-.47-3-.85-4.52-1.13l.17-.93c1.56.29,3.12.68,4.64,1.16l-.29.9Zm-312.99-1.1l-.19-.93c1.49-.3,3.06-.61,4.64-.9l.17.93c-1.58.29-3.14.6-4.63.9Zm299.21-.19l-.11-.94c1.68-.2,3.19-.3,4.62-.3h.15v.95h-.15c-1.39,0-2.87.1-4.51.3h0Zm-289.94-1.54l-.16-.93c1.49-.25,3.02-.5,4.67-.77l.15.93c-1.65.26-3.17.51-4.65.76h0Zm9.32-1.48l-.14-.93c1.56-.23,3.12-.46,4.67-.69l.13.93c-1.56.23-3.11.46-4.67.69h0Zm9.34-1.36l-.13-.93h.09c1.53-.23,3.06-.45,4.58-.67l.13.93c-1.53.22-3.05.44-4.58.66h-.09s0,.01,0,.01Zm215.26-.52c-.49-1.43-.88-3-1.13-4.66l.93-.15c.25,1.61.62,3.12,1.09,4.5l-.89.31h0Zm-205.91-.84l-.14-.93c1.68-.25,3.2-.48,4.66-.72l.15.93c-1.47.23-2.99.47-4.67.72h0Zm9.34-1.49l-.16-.93c1.58-.28,3.13-.6,4.6-.94l.21.92c-1.49.35-3.06.67-4.65.95h0Zm9.25-2.18l-.27-.9c1.54-.47,3.03-.98,4.43-1.53l.34.88c-1.42.56-2.94,1.08-4.5,1.56h0Zm39.26-1.99c-1.62-.02-3.22-.08-4.75-.19l.07-.94c1.51.11,3.08.17,4.69.19v.95s0,0,0,0Zm4.75-.08l-.04-.94c1.52-.06,3.1-.16,4.69-.3l.08.94c-1.61.14-3.2.24-4.74.3h0Zm-14.22-.62c-1.62-.24-3.19-.54-4.68-.9l.22-.92c1.46.35,3,.65,4.59.88l-.14.93h0Zm23.67-.18l-.12-.94c1.52-.19,3.09-.41,4.66-.66l.15.93c-1.59.25-3.16.48-4.69.67h0Zm-44.61-.63l-.43-.84c1.43-.73,2.79-1.52,4.03-2.35l.53.78c-1.27.85-2.66,1.66-4.13,2.41h0Zm53.97-.85l-.18-.93c1.51-.29,3.07-.6,4.62-.94l.2.92c-1.56.34-3.12.66-4.64.95Zm122.96-.57c0-.27,0-.54,0-.8v-.1c0-1.01,0-2.03,0-3.08v-.76s.95,0,.95,0v.75c0,1.04-.01,2.07-.01,3.08v.1c0,.26,0,.52,0,.78l-.95.02h0Zm-165.25-.03c-1.54-.56-3.01-1.21-4.38-1.93l.44-.83c1.32.7,2.75,1.33,4.26,1.88l-.32.89h0Zm51.54-1.41l-.22-.92c1.5-.37,3.04-.76,4.57-1.17l.25.91c-1.54.41-3.08.81-4.59,1.18h0Zm9.15-2.45l-.27-.91c1.49-.44,3.01-.89,4.51-1.37l.28.9c-1.51.48-3.03.94-4.53,1.37h0Zm-64.47-.03l-.63-.7c1.17-1.06,2.23-2.2,3.15-3.39l.75.58c-.95,1.23-2.05,2.42-3.26,3.52h0Zm-4.64-.61c-1.29-.98-2.48-2.07-3.54-3.24l.7-.63c1.02,1.13,2.17,2.18,3.41,3.13l-.57.75h0Zm78.14-2.21l-.3-.89c1.49-.5,2.99-1.03,4.45-1.55l.32.89c-1.47.53-2.97,1.05-4.47,1.56h0Zm95.53-2.71c-.01-1.74-.04-3.29-.1-4.71l.94-.03c.05,1.43.08,2.98.09,4.74h-.94s0,0,0,0Zm-86.62-.5l-.34-.88c1.49-.58,2.97-1.16,4.38-1.74l.36.87c-1.42.59-2.9,1.18-4.4,1.75h0Zm-76.58-1.55l-.84-.42c.3-.6.58-1.21.82-1.84.31-.78.55-1.61.71-2.47l.93.17c-.17.93-.43,1.82-.76,2.65-.26.65-.54,1.29-.85,1.91h0Zm-16.87-.13l-.13-.21c-.76-1.28-1.31-2.74-1.61-4.33l.93-.18c.29,1.48.79,2.84,1.5,4.02l.12.2-.81.49h0Zm102.21-1.94l-.39-.86c.82-.37,1.62-.74,2.37-1.09.62-.29,1.26-.6,1.89-.92l.42.85c-.64.32-1.28.63-1.91.93-.75.36-1.55.72-2.39,1.1h0Zm8.5-4.2l-.45-.83c1.3-.7,2.65-1.45,4.12-2.28l.47.82c-1.48.84-2.84,1.59-4.14,2.29h0Zm69-1.09c-.14-1.66-.33-3.23-.55-4.66l.93-.15c.23,1.45.42,3.04.56,4.72l-.94.08h0Zm-161.99-1.94c-.16-1.55-.53-3.05-1.1-4.44l.87-.36c.6,1.48.99,3.06,1.16,4.7l-.94.1h0Zm-18.72-.11l-.94-.1c.17-1.64.55-3.22,1.15-4.7l.88.35c-.57,1.4-.93,2.89-1.09,4.44h0Zm119.95-1.52l-.48-.81c1.21-.71,2.42-1.42,3.63-2.14l.44-.26.48.81-.44.26c-1.21.72-2.42,1.43-3.63,2.14h0Zm8.14-4.79l-.48-.81c1.52-.89,2.86-1.66,4.1-2.35l.46.82c-1.23.69-2.57,1.46-4.09,2.35h0Zm51.1-.86c-.44-1.6-.98-3.06-1.6-4.35l.85-.41c.64,1.33,1.2,2.85,1.66,4.5l-.91.25h0Zm-163.95-1.01c-1.08-1.18-2.33-2-3.69-2.44l.29-.9c1.53.48,2.9,1.39,4.1,2.69l-.7.64Zm-11.77-.12l-.69-.64c1.21-1.31,2.6-2.2,4.14-2.65l.27.91c-1.37.4-2.62,1.2-3.71,2.38h0Zm132.84-2.62l-.44-.83c1.48-.78,2.86-1.48,4.23-2.15l.41.85c-1.35.66-2.73,1.35-4.19,2.13h0Zm8.47-4.09l-.37-.87c1.49-.64,2.98-1.23,4.41-1.76l.32.89c-1.42.52-2.89,1.1-4.36,1.74h0Zm30.34-.36c-1.02-1.17-2.2-2.13-3.51-2.85l.46-.83c1.41.77,2.67,1.8,3.77,3.06l-.71.62h0Zm-21.52-2.84l-.27-.91c1.1-.32,2.21-.62,3.3-.88.44-.11.88-.2,1.31-.29l.19.93c-.42.09-.85.18-1.28.28-1.07.26-2.17.55-3.25.87h0Zm13.73-1.5c-1.41-.25-2.95-.34-4.59-.26l-.05-.94c1.72-.09,3.33,0,4.8.27l-.17.93h0Z"/><path class="cls-10" d="m412.89,318.35H74.8v16.76h338.09v-16.76Z"/><path class="cls-9" d="m57.13,322.06h373.13c4.89,0,8.86-3.96,8.86-8.86V97.35c0-4.89-3.96-8.86-8.86-8.86H57.13c-4.89,0-8.86,3.96-8.86,8.86v215.85c0,4.89,3.96,8.86,8.86,8.86Z"/><path class="cls-7" d="m63.08,302.79h361.53V104.93H63.08v197.86Z"/><path class="cls-3" d="m84.98,109.85c0,1.27,1.03,2.29,2.29,2.29s2.29-1.03,2.29-2.29-1.03-2.29-2.29-2.29-2.29,1.03-2.29,2.29Z"/><path class="cls-3" d="m79.6,112.08c1.22-.33,1.95-1.59,1.62-2.81-.33-1.22-1.59-1.95-2.81-1.62-1.22.33-1.95,1.59-1.62,2.81.33,1.22,1.59,1.95,2.81,1.62Z"/><path class="cls-3" d="m72.45,111.4c.86-.93.8-2.38-.13-3.24-.93-.86-2.38-.8-3.24.14-.86.93-.8,2.38.13,3.24.93.86,2.38.8,3.24-.14Z"/><path class="cls-11" d="m28.58,324.23h432.53c2.44,0,4.43,1.98,4.43,4.43v6.45H24.15v-6.45c0-2.44,1.98-4.43,4.43-4.43Z"/><path class="cls-9" d="m24.15,335.11h441.39v1.63c0,6.97-5.66,12.63-12.63,12.63H36.78c-6.97,0-12.63-5.66-12.63-12.63v-1.63Z"/><path class="cls-11" d="m318.79,324.23h-150.3c0,4.63,5.18,8.38,11.57,8.38h127.17c6.39,0,11.57-3.75,11.57-8.38Z"/><path class="cls-10" d="m264.4,308.95h-41.11v6.07h41.11v-6.07Z"/></g><g><rect class="cls-4" x="140.14" y="186.84" width="4.87" height="20.68"/><polygon class="cls-4" points="162.7 207.52 170.3 207.52 170.3 186.84 165.44 186.84 165.44 203.08 155.83 186.84 147.68 186.84 147.68 207.52 152.54 207.52 152.54 190.79 162.7 207.52"/><path class="cls-4" d="m226.37,190.73l3.53,6.87h-6.99l3.47-6.87Zm-18.09,4.86h-8.31v-4.86h8.47c3.52,0,3.77,4.86-.16,4.86m38.53-8.76h-8.39v17.82l-8.88-17.82h-6.08l-8.75,17.64-5.02-4.99c7.57,0,8.18-12.65-.88-12.65h-13.68v20.68h4.87v-8.03h3.4l8.06,8.06h6.66l3.1-6.23h10.28l3.22,6.2h8.58v-15.99l4.92,15.99h7.24l4.62-15.33v15.33h4.87v-20.68h-7.96l-5.05,16.78-5.11-16.78Z"/><path class="cls-4" d="m193.29,207.52v-11.92h-12.04v3.89h7.24v3.9h-5.59c-8.46,0-8.46-12.65.3-12.65h10.1v-3.89h-10.64c-14.48,0-14.3,20.68.49,20.68h10.16Z"/><path class="cls-4" d="m265.93,206.63h.18c.09,0,.15-.01.18-.04.03-.02.05-.06.05-.1,0-.03,0-.05-.02-.07-.02-.02-.04-.04-.06-.05-.03-.01-.08-.02-.15-.02h-.17v.29Zm-.15.53v-.94h.32c.11,0,.19,0,.24.03.05.02.09.04.12.09.03.04.05.09.05.14,0,.07-.03.13-.08.18-.05.05-.11.08-.19.09.03.02.06.03.08.05.04.04.09.1.14.18l.11.18h-.19l-.08-.15c-.06-.12-.12-.19-.16-.22-.03-.02-.07-.03-.12-.03h-.09v.4h-.15Zm.38-1.21c-.12,0-.24.03-.36.1-.12.06-.21.15-.27.27-.07.12-.1.24-.1.36s.03.25.1.36c.06.11.15.2.27.27.12.06.24.1.36.1s.25-.03.36-.1c.12-.07.21-.15.27-.27.06-.12.1-.24.1-.36s-.03-.25-.1-.36c-.07-.12-.16-.21-.27-.27-.12-.06-.24-.1-.36-.1m0-.14c.15,0,.29.04.43.11.14.08.25.18.33.32.08.14.12.29.12.44s-.04.3-.12.44c-.08.14-.18.25-.32.32-.14.08-.28.12-.43.12s-.29-.04-.44-.12c-.14-.08-.25-.19-.32-.32-.08-.14-.11-.28-.11-.44s.04-.3.12-.44c.08-.14.19-.25.33-.32.14-.07.28-.11.43-.11"/><g><path class="cls-5" d="m144.65,212.73c.35,0,.71.05,1.07.16.37.11.74.24,1.1.39l.09.03.75-1.62-.1-.04c-.97-.39-1.95-.6-2.91-.6s-1.79.18-2.49.53c-.71.36-1.27.87-1.64,1.54-.38.67-.57,1.45-.57,2.33,0,1.4.39,2.49,1.17,3.24.77.75,1.9,1.13,3.35,1.13,1,0,1.92-.15,2.74-.44l.06-.02v-1.68l-.13.04c-.97.29-1.8.44-2.48.44-1.59,0-2.37-.88-2.37-2.7,0-.87.21-1.55.62-2.03.41-.48,1-.72,1.75-.72Z"/><path class="cls-5" d="m153.99,211.05c-1.53,0-2.72.38-3.54,1.13-.83.75-1.25,1.85-1.25,3.26s.42,2.51,1.24,3.27c.82.76,2.01,1.14,3.54,1.14s2.71-.38,3.54-1.14c.82-.76,1.24-1.86,1.24-3.26s-.41-2.51-1.23-3.26c-.82-.75-2-1.13-3.53-1.13Zm2.38,4.4c0,1.83-.78,2.72-2.4,2.72-.8,0-1.4-.23-1.8-.68-.4-.45-.6-1.14-.6-2.04s.2-1.59.61-2.05c.4-.45,1.01-.68,1.8-.68,1.6,0,2.38.89,2.38,2.73Z"/><path class="cls-5" d="m167.65,215.23c0,.41.03,1.09.08,2.03l-4.12-6.04-.03-.04h-2.78v8.55h2.06v-4.03c0-.44-.04-1.15-.11-2.13l4.14,6.12.03.04h2.8v-8.55h-2.07v4.05Z"/><polygon class="cls-5" points="171.79 212.85 174.46 212.85 174.46 219.73 176.74 219.73 176.74 212.85 179.41 212.85 179.41 211.18 171.79 211.18 171.79 212.85"/><polygon class="cls-5" points="182.04 219.73 187.89 219.73 187.89 218.07 184.32 218.07 184.32 216.11 187.65 216.11 187.65 214.47 184.32 214.47 184.32 212.83 187.89 212.83 187.89 211.18 182.04 211.18 182.04 219.73"/><path class="cls-5" d="m197.35,215.23c0,.41.03,1.09.08,2.03l-4.12-6.04-.03-.04h-2.78v8.55h2.06v-4.03c0-.44-.04-1.16-.11-2.13l4.14,6.12.03.04h2.8v-8.55h-2.07v4.05Z"/><polygon class="cls-5" points="201.77 212.85 204.44 212.85 204.44 219.73 206.72 219.73 206.72 212.85 209.39 212.85 209.39 211.18 201.77 211.18 201.77 212.85"/><path class="cls-5" d="m220.59,212.73c.76,0,1.5.15,2.2.45l.08.04.78-1.6-.1-.04c-.95-.35-1.94-.52-2.95-.52-1.62,0-2.92.39-3.84,1.15-.93.77-1.4,1.86-1.4,3.23s.4,2.51,1.2,3.26c.8.76,1.96,1.14,3.47,1.14.58,0,1.16-.04,1.72-.11.57-.07,1.17-.2,1.8-.37l.07-.02v-4.5h-4.09v1.67h1.86v1.56c-.42.07-.83.1-1.23.1-.8,0-1.42-.23-1.83-.68-.42-.46-.63-1.13-.63-2.01s.26-1.51.78-2c.52-.49,1.23-.74,2.1-.74Z"/><path class="cls-5" d="m231.75,216.04c.54-.22.96-.51,1.27-.88.33-.4.5-.86.5-1.37,0-.87-.34-1.53-1.01-1.96-.66-.42-1.67-.64-3.02-.64h-2.96v8.55h2.28v-3.21h.96l2.32,3.17.03.04h2.57l-.13-.16c-.43-.52-1.32-1.65-2.81-3.54Zm-2.94-3.21h.53c.65,0,1.14.08,1.44.24.29.15.43.4.43.76s-.14.63-.42.8c-.3.18-.77.27-1.41.27h-.57v-2.06Z"/><path class="cls-5" d="m240.18,211.05c-1.53,0-2.72.38-3.55,1.13-.83.75-1.25,1.85-1.25,3.26s.42,2.51,1.24,3.27c.82.76,2.01,1.14,3.54,1.14s2.71-.38,3.54-1.14c.82-.76,1.24-1.86,1.24-3.26s-.41-2.51-1.23-3.26c-.82-.75-2-1.13-3.53-1.13Zm2.38,4.4c0,1.83-.78,2.72-2.4,2.72-.8,0-1.4-.23-1.8-.68-.4-.45-.6-1.14-.6-2.04s.2-1.59.61-2.05c.4-.45,1.01-.68,1.8-.68,1.6,0,2.38.89,2.38,2.73Z"/><path class="cls-5" d="m252.92,216.38c0,.62-.15,1.07-.43,1.36s-.76.43-1.41.43-1.16-.14-1.44-.42c-.28-.28-.43-.73-.43-1.35v-5.21h-2.27v5.48c0,.98.37,1.77,1.09,2.34.71.56,1.72.85,3,.85.85,0,1.59-.13,2.21-.38.63-.25,1.12-.62,1.45-1.1.34-.48.51-1.04.51-1.68v-5.5h-2.27v5.2Z"/><path class="cls-5" d="m263.9,211.85c-.63-.45-1.57-.67-2.78-.67h-3.24v8.55h2.28v-2.97h.8c1.23,0,2.2-.25,2.88-.73.68-.49,1.03-1.21,1.03-2.14s-.33-1.58-.97-2.03Zm-1.33,2.09c0,.38-.14.66-.44.86-.3.2-.76.31-1.38.31h-.59v-2.28h.85c.54,0,.95.09,1.2.28.24.18.36.46.36.84Z"/></g><rect class="cls-8" x="275.1" y="186.62" width="2.46" height="33.34"/><g><path class="cls-12" d="m286.39,189.86h2.45v10.15h4.34v2.01h-6.79v-12.16Z"/><path class="cls-12" d="m296.81,189.73v2.01h-2.35v-2.01h2.35Zm0,3.13v9.16h-2.35v-9.16h2.35Z"/><path class="cls-12" d="m305.5,201.56c0,1.18-.29,2.07-.88,2.66-.58.59-1.56.89-2.94.89-1,0-1.77-.21-2.31-.64-.54-.43-.81-1.03-.81-1.81h2.25c0,.3.12.53.36.7.11.08.23.14.37.19.13.05.27.07.42.07.48,0,.81-.15,1.01-.46.19-.31.29-.69.29-1.14v-1.21h-.03c-.24.34-.53.61-.88.82-.35.2-.71.31-1.08.31-.93,0-1.63-.35-2.1-1.06-.47-.71-.71-1.9-.71-3.57,0-.53.03-1.08.09-1.63.06-.56.19-1.06.39-1.51.2-.45.49-.81.87-1.1.38-.28.89-.43,1.52-.43.33,0,.67.09,1.02.27.35.18.64.51.87.99h.03v-1.02h2.25v8.7Zm-4.66-2.93c.03.28.09.54.17.76.09.22.2.4.36.53.15.13.36.2.61.2s.46-.07.62-.2.3-.31.39-.54c.1-.23.16-.5.2-.83.04-.32.06-.68.06-1.06,0-1.11-.09-1.9-.26-2.37-.18-.47-.5-.7-.96-.7-.26,0-.47.06-.63.17s-.28.3-.37.55c-.09.26-.15.6-.18,1.02-.03.43-.04.95-.04,1.56,0,.32.01.62.04.9Z"/><path class="cls-12" d="m309.67,189.86v3.93h.03c.45-.78,1.2-1.17,2.23-1.17.75,0,1.33.2,1.73.61.4.41.6,1.07.6,1.99v6.79h-2.35v-6.32c0-.48-.08-.81-.24-1-.16-.19-.42-.28-.77-.28-.83,0-1.24.51-1.24,1.52v6.08h-2.35v-12.16h2.35Z"/><path class="cls-12" d="m318.87,190.24v2.62h1.36v1.6h-1.36v4.96c0,.36.05.62.16.77.11.15.33.23.67.23.09,0,.18,0,.27,0,.09,0,.18-.01.26-.03v1.63c-.26,0-.51,0-.76.03s-.5.03-.77.03c-.45,0-.83-.03-1.12-.09s-.51-.19-.66-.37-.26-.43-.31-.74c-.06-.31-.09-.69-.09-1.16v-5.25h-1.19v-1.6h1.19v-2.62h2.35Z"/><path class="cls-12" d="m323.46,192.86v1.07h.03c.25-.45.57-.79.97-1,.4-.21.85-.31,1.36-.31.75,0,1.33.2,1.73.61.4.41.6,1.07.6,1.99v6.79h-2.35v-6.32c0-.48-.08-.81-.24-1-.16-.19-.42-.28-.77-.28-.83,0-1.24.51-1.24,1.52v6.08h-2.35v-9.16h2.25Z"/><path class="cls-12" d="m332.34,189.73v2.01h-2.35v-2.01h2.35Zm0,3.13v9.16h-2.35v-9.16h2.35Z"/><path class="cls-12" d="m336.41,192.86v1.07h.03c.25-.45.57-.79.97-1,.4-.21.85-.31,1.36-.31.75,0,1.33.2,1.73.61.4.41.6,1.07.6,1.99v6.79h-2.35v-6.32c0-.48-.08-.81-.24-1-.16-.19-.42-.28-.77-.28-.83,0-1.24.51-1.24,1.52v6.08h-2.35v-9.16h2.25Z"/><path class="cls-12" d="m349.71,201.56c0,1.18-.29,2.07-.88,2.66-.58.59-1.56.89-2.94.89-1,0-1.77-.21-2.31-.64-.54-.43-.81-1.03-.81-1.81h2.25c0,.3.12.53.36.7.11.08.23.14.37.19.13.05.27.07.42.07.48,0,.81-.15,1.01-.46.19-.31.29-.69.29-1.14v-1.21h-.03c-.24.34-.53.61-.88.82-.35.2-.71.31-1.08.31-.93,0-1.63-.35-2.1-1.06-.47-.71-.71-1.9-.71-3.57,0-.53.03-1.08.09-1.63.06-.56.19-1.06.39-1.51.2-.45.49-.81.87-1.1.38-.28.89-.43,1.52-.43.33,0,.67.09,1.02.27.35.18.64.51.87.99h.03v-1.02h2.25v8.7Zm-4.66-2.93c.03.28.09.54.17.76.09.22.2.4.36.53.15.13.36.2.61.2s.46-.07.62-.2c.16-.13.3-.31.39-.54.1-.23.16-.5.2-.83.04-.32.06-.68.06-1.06,0-1.11-.09-1.9-.26-2.37-.18-.47-.5-.7-.96-.7-.26,0-.47.06-.63.17s-.28.3-.37.55c-.09.26-.15.6-.18,1.02-.03.43-.04.95-.04,1.56,0,.32.01.62.04.9Z"/><path class="cls-12" d="m288.37,213.39c0,.28.02.54.07.77.04.23.13.43.26.59s.29.28.5.37c.21.09.47.14.79.14.37,0,.71-.12,1.01-.37.3-.24.45-.62.45-1.13,0-.27-.04-.51-.11-.71-.07-.2-.2-.38-.37-.54-.17-.16-.39-.3-.67-.43-.28-.13-.62-.26-1.03-.4-.55-.18-1.02-.38-1.41-.6-.4-.22-.73-.47-1-.76-.27-.29-.46-.62-.59-1-.13-.38-.19-.82-.19-1.32,0-1.2.33-2.1,1-2.69s1.59-.89,2.76-.89c.54,0,1.05.06,1.51.18s.86.31,1.19.58c.33.27.6.61.78,1.02s.28.91.28,1.49v.34h-2.35c0-.58-.1-1.02-.31-1.34-.2-.31-.55-.47-1.02-.47-.27,0-.5.04-.68.12s-.33.18-.43.31c-.11.13-.18.28-.22.45-.04.17-.06.35-.06.53,0,.37.08.69.24.95s.5.49,1.02.71l1.89.82c.47.2.85.42,1.14.64s.53.46.71.72c.18.26.3.54.37.84s.1.65.1,1.02c0,1.28-.37,2.22-1.11,2.8-.74.58-1.78.88-3.11.88s-2.38-.3-2.97-.9c-.6-.6-.89-1.46-.89-2.59v-.49h2.45v.36Z"/><path class="cls-12" d="m295.21,210.17c.12-.6.33-1.1.61-1.51.28-.4.66-.71,1.12-.92.46-.21,1.02-.31,1.69-.31.7-.01,1.29.08,1.75.28.47.2.83.5,1.11.91s.47.91.58,1.52c.11.6.17,1.31.17,2.11s-.06,1.48-.19,2.08c-.13.6-.33,1.1-.61,1.51-.28.4-.66.7-1.12.89s-1.02.29-1.69.29c-.7.01-1.29-.08-1.75-.26-.47-.19-.83-.48-1.11-.89-.27-.4-.47-.91-.58-1.52-.11-.61-.17-1.31-.17-2.1s.06-1.48.19-2.08Zm2.2,3.37c.02.4.08.74.16,1.02.09.28.21.51.38.66.17.16.4.24.68.24.48,0,.81-.25.99-.75s.27-1.32.27-2.47-.09-1.97-.27-2.47-.51-.75-.99-.75c-.28,0-.51.08-.68.24-.17.16-.3.38-.38.66-.08.28-.14.62-.16,1.02-.02.4-.03.83-.03,1.29s.01.9.03,1.29Z"/><path class="cls-12" d="m308.34,215.76c-.25.45-.57.78-.97.97s-.85.29-1.36.29c-.75,0-1.33-.2-1.73-.59-.4-.39-.6-1.05-.6-1.97v-6.8h2.35v6.32c0,.48.08.81.24,1s.41.28.77.28c.83,0,1.24-.5,1.24-1.52v-6.08h2.35v9.16h-2.25v-1.07h-.03Z"/><path class="cls-12" d="m314.61,207.67v1.23h.03c.24-.44.53-.8.87-1.06.34-.27.75-.4,1.24-.4.07,0,.14,0,.21,0,.07,0,.14.01.21.03v2.25c-.13-.01-.25-.02-.37-.03s-.24,0-.37,0c-.2,0-.41.03-.61.09-.2.06-.39.15-.56.28-.17.13-.31.3-.41.51-.1.21-.15.47-.15.78v5.5h-2.35v-9.16h2.25Z"/><path class="cls-12" d="m322.57,210.31c-.03-.22-.08-.41-.15-.59-.07-.18-.18-.32-.32-.43-.14-.11-.32-.16-.55-.16-.28,0-.52.07-.7.2-.18.13-.32.32-.41.58-.09.26-.15.58-.19.97s-.05.85-.05,1.39c0,.57.02,1.05.05,1.46.03.4.1.74.19,1s.22.45.38.57.38.18.64.18c.4,0,.69-.17.87-.51.18-.34.27-.89.27-1.63h2.25c0,1.2-.27,2.12-.81,2.75-.54.63-1.43.95-2.68.95-.59,0-1.1-.07-1.54-.21-.44-.14-.8-.4-1.09-.77-.29-.37-.51-.86-.66-1.48-.15-.62-.22-1.39-.22-2.31s.09-1.72.27-2.34c.18-.62.44-1.11.77-1.48.33-.37.72-.63,1.17-.77s.95-.22,1.5-.22c1.09,0,1.91.32,2.46.95.55.64.83,1.5.83,2.59h-2.25c0-.23-.01-.45-.04-.66Z"/><path class="cls-12" d="m328.27,213.34c0,.27.02.54.06.79.04.26.1.48.2.68.09.2.21.36.36.48s.33.18.55.18c.4,0,.69-.14.87-.43.18-.28.31-.72.37-1.29h2.11c-.05,1.07-.33,1.88-.85,2.44-.52.56-1.34.83-2.47.83-.85,0-1.52-.14-1.99-.43-.48-.28-.83-.66-1.06-1.12s-.37-.99-.42-1.57c-.05-.58-.08-1.16-.08-1.74,0-.61.04-1.2.13-1.77s.26-1.07.51-1.52c.26-.44.62-.79,1.1-1.06.48-.26,1.11-.39,1.91-.39.68,0,1.24.11,1.68.33.44.22.78.53,1.03.94.25.4.42.89.51,1.46.09.57.14,1.21.14,1.92v.53h-4.65v.73Zm2.33-3.06c-.03-.27-.09-.49-.18-.68-.09-.19-.2-.33-.36-.43-.15-.1-.35-.15-.59-.15s-.43.05-.59.16c-.15.11-.28.25-.37.43-.09.18-.16.37-.2.59-.04.22-.06.43-.06.65v.36h2.4c-.01-.35-.03-.66-.07-.93Z"/></g><g><path class="cls-12" d="m334.79,207.92v-.03c-.02-.15-.06-.23-.15-.29.13-.07.2-.2.2-.36,0-.19-.1-.42-.56-.42h-.58v1.59h.3v-.68h.21c.22,0,.26.04.28.25.03.24.04.3.08.4v.03h.32l-.02-.06c-.05-.14-.06-.27-.08-.44Zm-.26-.64c0,.17-.12.18-.25.18h-.28v-.37h.28c.14,0,.25.01.25.19Z"/><path class="cls-12" d="m334.26,206.19c-.8,0-1.44.65-1.44,1.44s.65,1.45,1.44,1.45,1.44-.65,1.44-1.45-.65-1.44-1.44-1.44Zm1.19,1.44c0,.66-.53,1.2-1.19,1.2s-1.19-.54-1.19-1.2.53-1.19,1.19-1.19,1.19.53,1.19,1.19Z"/></g></g></svg>