<svg width="500" height="350" viewBox="0 0 500 350" fill="none" xmlns="http://www.w3.org/2000/svg">
<g clip-path="url(#clip0_105_69)">
<path d="M478.821 233.993C475.339 228.684 471.94 223.326 469.394 217.547C462.467 201.82 462.323 184.11 463.237 167.016C464.152 149.923 465.996 132.621 462.677 115.813C459.359 99.0043 449.845 82.3179 433.949 75.0473C414.367 66.0897 394.957 70.9338 374.419 69.2003C345.717 66.776 322.712 46.306 299.074 30.2549C284.59 20.4206 266.704 11.649 249.909 16.9381C232.426 22.4419 222.954 41.0302 207.096 50.0741C174.035 68.9346 130.407 48.7568 94.7917 50.8136C80.7974 51.6216 65.5035 56.1669 58.5739 68.0446C45.7928 89.9493 62.0652 113.689 43.6276 134.704C28.0857 152.418 2.60109 161.847 2.90219 188.348C2.93983 191.633 3.35162 194.928 4.29918 198.082C5.58327 202.358 7.81934 206.29 9.89602 210.259C16.7991 223.448 22.1967 238.022 20.8218 252.769C19.5886 266.006 13.0509 278.114 7.73079 290.353C2.41069 302.591 -2.83412 316.537 1.76423 329.035C7.11753 343.58 15.256 349.372 15.256 349.372H472.806C472.806 349.372 506.839 302.775 498.758 273.381C495.53 261.636 489.654 250.737 483.034 240.433C481.651 238.279 480.229 236.14 478.821 233.995V233.993Z" fill="#E8F2F9"/>
<path d="M76.8241 295.113C75.0706 295.036 73.5209 294.929 72.0862 294.785L72.1792 293.847C73.5961 293.988 75.1282 294.095 76.8639 294.17L76.8218 295.113H76.8241ZM67.3728 294.117C65.7367 293.805 64.1781 293.411 62.7412 292.943L63.0334 292.045C64.4326 292.498 65.9536 292.884 67.5499 293.187L67.3728 294.115V294.117ZM58.3111 291.117C57.2108 290.552 56.1503 289.913 55.1607 289.217C54.8529 289.003 54.5496 288.777 54.253 288.547L54.833 287.8C55.1164 288.022 55.4086 288.237 55.7031 288.445C56.6573 289.116 57.6801 289.731 58.7428 290.276L58.3111 291.117V291.117ZM50.7815 285.215C49.7277 283.966 48.8222 282.622 48.0894 281.221L48.9262 280.785C49.6258 282.126 50.4915 283.41 51.501 284.606L50.7793 285.215H50.7815ZM46.3935 276.702C46.2252 275.991 46.099 275.265 46.0193 274.548C45.9396 273.842 45.8998 273.111 45.8998 272.376C45.8998 272.217 45.8998 272.057 45.9042 271.898L46.8473 271.92C46.8429 272.073 46.8429 272.223 46.8429 272.376C46.8429 273.078 46.8806 273.773 46.9558 274.444C47.0311 275.123 47.1507 275.81 47.3101 276.485L46.3913 276.702H46.3935ZM47.4075 267.324L46.482 267.133C46.761 265.781 47.1307 264.359 47.6842 262.524L48.5875 262.796C48.0429 264.603 47.6798 266 47.4053 267.324H47.4075ZM49.9934 258.291L49.0901 258.014C49.4443 256.859 49.9004 255.335 50.2635 253.781L50.3299 253.496L51.2509 253.704C51.2287 253.801 51.2066 253.898 51.1845 253.996C50.8147 255.577 50.3542 257.122 49.9956 258.291H49.9934ZM52.0191 248.99L51.0804 248.895C51.2132 247.58 51.2819 246.238 51.2819 244.908C51.2819 244.684 51.2819 244.46 51.2774 244.237L52.2228 244.221C52.2272 244.449 52.2294 244.68 52.2294 244.91C52.2294 246.271 52.1608 247.646 52.0235 248.992L52.0191 248.99ZM50.9298 239.583C50.7284 238.056 50.4361 236.512 50.0642 234.996L50.9808 234.77C51.3616 236.32 51.6604 237.898 51.8663 239.459L50.9298 239.583ZM48.7093 230.528C48.1846 229.076 47.5757 227.628 46.8983 226.22L47.7484 225.81C48.4392 227.245 49.0613 228.724 49.5948 230.207L48.7071 230.528H48.7093ZM384.814 225.883L384.524 224.984C386.009 224.504 387.517 224.006 389.003 223.506L389.304 224.4C387.816 224.903 386.304 225.401 384.814 225.883V225.883ZM393.774 222.861L393.461 221.971C394.929 221.455 396.421 220.922 397.903 220.382L398.226 221.269C396.742 221.812 395.246 222.348 393.776 222.864L393.774 222.861ZM44.6666 222.115C43.8585 220.791 42.9752 219.489 42.0409 218.25L42.7958 217.681C43.75 218.947 44.6511 220.273 45.4747 221.624L44.6688 222.115H44.6666ZM402.656 219.616L402.322 218.732C403.774 218.181 405.253 217.61 406.721 217.032L407.066 217.911C405.596 218.491 404.113 219.064 402.656 219.616V219.616ZM411.454 216.151L411.098 215.276C412.552 214.683 414.018 214.072 415.452 213.465L415.82 214.335C414.383 214.944 412.913 215.555 411.454 216.151V216.151ZM39.0499 214.659C38.151 213.682 37.2034 212.737 36.2315 211.847C36.061 211.692 35.8906 211.537 35.7179 211.384L36.3466 210.678C36.5215 210.835 36.6964 210.992 36.8713 211.15C37.8632 212.057 38.8307 213.023 39.7472 214.019L39.0521 214.659H39.0499ZM420.164 212.467L419.785 211.601C421.226 210.97 422.674 210.326 424.093 209.684L424.483 210.545C423.062 211.189 421.607 211.836 420.164 212.467ZM428.778 208.568L428.377 207.714L428.473 207.669C429.969 206.97 431.326 206.314 432.617 205.668L433.04 206.514C431.74 207.162 430.377 207.82 428.873 208.526L428.778 208.57V208.568ZM32.0937 208.413C30.8295 207.446 29.5277 206.505 28.3034 205.621L28.8547 204.855C30.0856 205.743 31.3941 206.688 32.6671 207.663L32.0937 208.413V208.413ZM437.242 204.317L436.788 203.489C438.214 202.71 439.582 201.92 440.857 201.138L441.351 201.944C440.063 202.732 438.681 203.531 437.242 204.317V204.317ZM24.4777 202.836C23.2224 201.898 22.142 201.052 21.179 200.248C21.0351 200.129 20.8911 200.007 20.7495 199.885L21.3649 199.17C21.5022 199.287 21.6417 199.407 21.7811 199.522C22.7331 200.315 23.798 201.151 25.0401 202.079L24.4755 202.836H24.4777ZM445.329 199.34L444.787 198.568C446.104 197.645 447.362 196.693 448.524 195.738L449.124 196.469C447.944 197.439 446.667 198.404 445.329 199.34ZM17.3643 196.502C16.3194 195.287 15.3652 193.987 14.5305 192.641L15.3342 192.143C16.1423 193.449 17.0677 194.709 18.0817 195.887L17.3666 196.502H17.3643ZM452.666 193.281L452.002 192.61C453.134 191.492 454.19 190.33 455.142 189.156L455.875 189.752C454.9 190.952 453.82 192.141 452.666 193.281V193.281ZM12.3321 188.381C11.721 186.916 11.2207 185.384 10.8421 183.827L11.7609 183.606C12.1262 185.114 12.611 186.597 13.2044 188.018L12.3321 188.381V188.381ZM458.646 185.871L457.845 185.37C458.671 184.047 459.41 182.667 460.039 181.268L460.9 181.656C460.251 183.092 459.494 184.511 458.646 185.869V185.871ZM10.0761 179.101C10.0008 178.206 9.96094 177.296 9.96094 176.393C9.96094 175.704 9.98308 175.005 10.0274 174.314L10.9705 174.374C10.9284 175.045 10.9063 175.724 10.9063 176.393C10.9063 177.267 10.9439 178.153 11.017 179.021L10.0761 179.101V179.101ZM462.554 177.168L461.646 176.907C462.071 175.437 462.399 173.907 462.62 172.357L463.555 172.492C463.327 174.084 462.99 175.658 462.552 177.17L462.554 177.168ZM11.6081 169.771L10.6849 169.574C11.0192 168.011 11.4686 166.466 12.0243 164.98L12.9099 165.31C12.3697 166.753 11.9336 168.255 11.6081 169.771V169.771ZM463.924 167.725L462.979 167.714C462.979 167.553 462.981 167.389 462.981 167.227C462.981 165.855 462.906 164.451 462.755 163.056L463.694 162.954C463.847 164.382 463.924 165.819 463.924 167.225C463.924 167.391 463.924 167.557 463.922 167.725H463.924ZM14.856 161.095L14.0324 160.634C14.8205 159.224 15.7172 157.884 16.6979 156.654L17.4374 157.242C16.4876 158.436 15.6198 159.731 14.856 161.097V161.095ZM45.0319 158.969C44.888 158.969 44.7441 158.965 44.6024 158.958L44.4806 158.952L44.5426 158.008L44.6555 158.015C44.7795 158.022 44.9057 158.026 45.0319 158.026C46.4178 158.026 47.7905 157.614 48.7026 156.924L49.2738 157.676C48.1868 158.5 46.6415 158.971 45.0341 158.971L45.0319 158.969ZM461.998 158.449C461.666 156.946 461.245 155.431 460.75 153.948L461.646 153.649C462.153 155.164 462.583 156.711 462.921 158.245L462 158.449H461.998ZM39.765 157.763C38.337 157.127 36.9621 156.253 35.6802 155.164L36.2913 154.444C37.5045 155.476 38.8019 156.301 40.148 156.899L39.765 157.763V157.763ZM20.6233 153.882L19.9989 153.173C21.2166 152.102 22.525 151.154 23.8888 150.355L24.367 151.17C23.0542 151.938 21.7966 152.85 20.6255 153.882H20.6233ZM49.7587 153.273C49.3115 152.168 48.1978 151.125 46.626 150.335L47.051 149.491C48.8266 150.384 50.0996 151.601 50.6332 152.919L49.7587 153.273V153.273ZM32.408 151.619C31.7306 150.689 31.1218 149.697 30.5993 148.668C29.9107 148.829 29.231 149.024 28.5624 149.25L28.2591 148.356C28.8879 148.143 29.5299 147.957 30.1786 147.798C30.1233 147.678 30.0701 147.559 30.017 147.441L30.8804 147.061C30.9579 147.238 31.0376 147.413 31.1195 147.587C31.7239 147.466 32.3328 147.366 32.946 147.293L33.0612 148.229C32.5564 148.291 32.0538 148.369 31.5557 148.464C32.0295 149.37 32.5719 150.242 33.1696 151.063L32.4058 151.619H32.408ZM459.043 149.598C458.405 148.183 457.688 146.782 456.913 145.435L457.732 144.964C458.522 146.337 459.253 147.765 459.904 149.208L459.043 149.595V149.598ZM42.2601 148.856C40.7236 148.477 39.1827 148.229 37.6816 148.121L37.7503 147.18C39.3045 147.291 40.8985 147.548 42.4859 147.939L42.2601 148.856V148.856ZM28.4761 142.898C28.1064 141.424 27.823 139.841 27.6326 138.191L28.5713 138.085C28.7551 139.693 29.0318 141.236 29.3905 142.668L28.4739 142.898H28.4761ZM454.382 141.508C453.468 140.235 452.487 139.006 451.467 137.857L452.173 137.231C453.216 138.404 454.218 139.657 455.151 140.957L454.382 141.508ZM448.216 134.472C447.623 133.881 447.021 133.29 446.417 132.699C445.896 132.187 445.372 131.674 444.851 131.158L445.515 130.487C446.036 131.003 446.556 131.514 447.076 132.023C447.683 132.619 448.285 133.21 448.881 133.803L448.214 134.472H448.216ZM27.3426 133.436C27.3381 133.175 27.3381 132.913 27.3381 132.652C27.3381 131.802 27.3581 130.914 27.3957 130.013C27.4134 129.566 27.4378 129.123 27.4643 128.68L28.4075 128.738C28.3809 129.174 28.3588 129.612 28.3388 130.051C28.3012 130.939 28.2835 131.813 28.2835 132.65C28.2835 132.907 28.2835 133.164 28.2879 133.42L27.3426 133.434V133.436ZM441.546 127.755C440.346 126.451 439.343 125.255 438.48 124.102L439.237 123.537C440.08 124.667 441.063 125.838 442.241 127.117L441.546 127.757V127.755ZM28.8635 124.08L27.927 123.954C28.1396 122.386 28.4141 120.81 28.7396 119.271L29.6628 119.468C29.3395 120.985 29.0716 122.537 28.8613 124.082L28.8635 124.08ZM435.927 120.042C435.165 118.532 434.618 117.002 434.3 115.499L435.223 115.304C435.528 116.75 436.035 118.16 436.77 119.619L435.927 120.044V120.042ZM30.8096 114.925L29.9041 114.66C30.3469 113.147 30.8539 111.631 31.4096 110.15L32.2929 110.482C31.7439 111.941 31.2457 113.435 30.8096 114.923V114.925ZM434.953 110.75L434.012 110.666C434.149 109.14 434.512 107.602 435.117 105.963L436.002 106.291C435.427 107.849 435.083 109.308 434.953 110.752V110.75ZM34.1039 106.165L33.2471 105.768C33.9069 104.345 34.6308 102.917 35.3991 101.529L36.2249 101.987C35.4677 103.355 34.7548 104.761 34.1039 106.165V106.165ZM437.964 102.073L437.133 101.624C437.683 100.61 438.271 99.5937 438.843 98.6107C439.055 98.2432 439.268 97.8779 439.48 97.5104L440.299 97.982C440.089 98.3495 439.874 98.717 439.662 99.0845C439.095 100.061 438.508 101.07 437.966 102.073H437.964ZM38.6336 97.9665L37.841 97.4528C38.6912 96.14 39.6033 94.8271 40.5553 93.5541L41.3125 94.1186C40.3738 95.3761 39.4727 96.6713 38.6359 97.9665H38.6336ZM442.52 93.7644L441.661 93.3747C442.316 91.9268 442.848 90.4568 443.24 89.0111L444.152 89.2568C443.749 90.7534 443.2 92.27 442.522 93.7644H442.52ZM44.2327 90.4501L43.5132 89.8391C44.5249 88.648 45.5943 87.4613 46.6946 86.3123L47.3765 86.9654C46.2894 88.0989 45.2334 89.2723 44.2327 90.4501V90.4501ZM444.969 84.5256L444.028 84.4548C444.07 83.8858 444.092 83.3102 444.092 82.7434C444.092 81.7715 444.028 80.7952 443.902 79.8432L444.838 79.7192C444.969 80.7132 445.035 81.7316 445.035 82.7434C445.035 83.3323 445.013 83.9323 444.969 84.5256V84.5256ZM50.7195 83.6711L50.0753 82.9803C51.2177 81.9154 52.4154 80.8594 53.6353 79.8387L54.2419 80.5627C53.0353 81.57 51.8508 82.615 50.7217 83.6688L50.7195 83.6711ZM57.9215 77.6469L57.3547 76.892C58.6056 75.9511 59.9052 75.0256 61.218 74.1356L61.7471 74.9172C60.4476 75.7961 59.1613 76.7149 57.9237 77.6447L57.9215 77.6469ZM442.826 75.3577C442.321 73.9275 441.661 72.5217 440.864 71.1756L441.677 70.6952C442.505 72.0944 443.191 73.5578 443.716 75.0456L442.826 75.3599V75.3577ZM65.7012 72.38L65.2097 71.5741C66.5492 70.7572 67.9329 69.9601 69.3188 69.2008L69.7727 70.0288C68.4 70.7793 67.0296 71.5719 65.7012 72.38ZM73.9482 67.8702L73.5342 67.0223C74.1496 66.7212 74.774 66.4245 75.3916 66.1389C76.1975 65.7647 77.0211 65.395 77.8403 65.0363L78.2188 65.902C77.4063 66.2562 76.5894 66.6237 75.7901 66.9935C75.1769 67.2769 74.5592 67.5735 73.9482 67.8702V67.8702ZM438.159 67.4185C437.171 66.2695 436.062 65.167 434.862 64.1463L435.475 63.4268C436.711 64.4784 437.855 65.6142 438.876 66.8031L438.159 67.4185V67.4185ZM82.5626 64.1065L82.2194 63.2276C83.6629 62.663 85.1595 62.1095 86.6628 61.5848L86.975 62.477C85.4828 62.9995 83.9972 63.5486 82.5648 64.1087L82.5626 64.1065ZM371.842 63.3648L371.825 62.4195C373.279 62.4195 374.842 62.3265 376.485 62.1449L376.589 63.0837C374.911 63.2696 373.315 63.3648 371.845 63.3648H371.842ZM367.042 62.9907C365.384 62.7117 363.823 62.2689 362.406 61.6756L362.772 60.8055C364.122 61.3723 365.612 61.7951 367.2 62.0608L367.042 62.9929V62.9907ZM381.289 62.3774L381.119 61.4498C382.531 61.1885 384.037 60.8741 385.721 60.4845L385.934 61.4055C384.236 61.7974 382.717 62.1162 381.291 62.3796L381.289 62.3774ZM431.116 61.3922C429.821 60.5708 428.444 59.8203 427.027 59.1628L427.425 58.306C428.88 58.9812 430.292 59.7495 431.623 60.593L431.118 61.39L431.116 61.3922ZM91.4383 60.9981L91.1571 60.0971C92.6316 59.6366 94.1592 59.1827 95.6979 58.7532L95.9525 59.6631C94.4226 60.0904 92.9039 60.5421 91.4383 61.0003V60.9981ZM390.535 60.2808L390.302 59.3665C391.312 59.1096 392.319 58.8484 393.324 58.5894L394.874 58.1886L395.109 59.103L393.559 59.5037C392.551 59.765 391.542 60.0262 390.532 60.283L390.535 60.2808ZM358.24 59.2225C358.105 59.1163 357.972 59.0056 357.839 58.8949C356.761 57.9872 355.796 56.8913 354.974 55.6382L355.765 55.1201C356.535 56.2957 357.438 57.323 358.448 58.1731C358.574 58.2794 358.7 58.3813 358.827 58.4831L358.24 59.2225V59.2225ZM100.504 58.4565L100.274 57.54C101.764 57.1658 103.314 56.7983 104.879 56.4441L105.087 57.3651C103.529 57.7171 101.988 58.0824 100.504 58.4543V58.4565ZM399.685 57.9584L399.466 57.0396C401.19 56.6256 402.707 56.2913 404.097 56.0168L404.279 56.9422C402.899 57.2145 401.398 57.5466 399.685 57.9562V57.9584ZM422.688 57.4757C421.206 57.0042 419.685 56.6234 418.167 56.3444L418.337 55.4168C419.894 55.7024 421.454 56.0943 422.973 56.5769L422.688 57.4757ZM109.697 56.3799L109.508 55.4544C111.003 55.1511 112.564 54.8478 114.151 54.5534L114.324 55.481C112.741 55.7732 111.184 56.0765 109.697 56.3799ZM408.908 56.1917L408.795 55.2552C410.473 55.0515 411.985 54.9519 413.418 54.9519H413.564L413.559 55.8972H413.418C412.023 55.8972 410.549 55.9946 408.908 56.1939V56.1917ZM118.966 54.6574L118.807 53.7253C120.299 53.4707 121.825 53.2206 123.472 52.9593L123.62 53.8914C121.975 54.1526 120.454 54.4028 118.966 54.6552V54.6574ZM128.283 53.1741L128.143 52.2398C129.702 52.0051 131.26 51.7771 132.817 51.549L132.952 52.4833C131.395 52.7091 129.839 52.9394 128.283 53.1719V53.1741ZM137.625 51.8103L137.49 50.876L137.579 50.8627C139.109 50.6435 140.636 50.4244 142.162 50.203L142.297 51.1372C140.771 51.3586 139.242 51.5778 137.712 51.797L137.623 51.8103H137.625ZM352.88 51.2922C352.386 49.8598 352.005 48.2901 351.746 46.6275L352.678 46.4813C352.929 48.0887 353.296 49.603 353.772 50.9823L352.88 51.29V51.2922ZM146.973 50.4487L146.833 49.5144C148.509 49.2643 150.032 49.0296 151.496 48.7971L151.644 49.7292C150.178 49.9616 148.651 50.1963 146.973 50.4487V50.4487ZM156.309 48.9609L156.145 48.0311C157.724 47.7521 159.273 47.4355 160.748 47.0902L160.963 48.009C159.47 48.3588 157.905 48.6776 156.309 48.9609V48.9609ZM165.556 46.7824L165.282 45.8791C166.821 45.412 168.311 44.8962 169.71 44.3471L170.055 45.226C168.632 45.7839 167.117 46.3064 165.556 46.7824V46.7824ZM204.818 44.7899C203.193 44.7744 201.597 44.7102 200.072 44.6017L200.138 43.6608C201.646 43.7693 203.222 43.8313 204.827 43.8468L204.818 44.7921V44.7899ZM209.565 44.7124L209.525 43.7693C211.046 43.7051 212.625 43.6054 214.219 43.4682L214.299 44.4091C212.691 44.5464 211.097 44.6504 209.563 44.7124H209.565ZM195.343 44.0925C193.724 43.8556 192.15 43.5545 190.665 43.1959L190.886 42.2771C192.343 42.6291 193.888 42.9235 195.48 43.1582L195.343 44.0925V44.0925ZM219.016 43.911L218.899 42.9745C220.418 42.7863 221.985 42.5627 223.562 42.3125L223.71 43.2446C222.125 43.497 220.546 43.7206 219.016 43.911V43.911ZM174.41 43.2822L173.983 42.4409C175.415 41.7125 176.77 40.9221 178.012 40.0919L178.537 40.8757C177.264 41.728 175.876 42.5361 174.41 43.2822V43.2822ZM228.379 42.4298L228.204 41.5022C229.719 41.2144 231.271 40.8978 232.82 40.5613L233.022 41.4845C231.463 41.8232 229.902 42.142 228.379 42.4298ZM351.341 41.8609C351.337 41.593 351.332 41.3251 351.332 41.0594V40.962C351.332 39.9569 351.337 38.9274 351.341 37.8802L351.346 37.1252L352.291 37.1297L352.287 37.8846C352.282 38.9296 352.278 39.9569 352.278 40.962V41.0594C352.278 41.3184 352.28 41.5797 352.287 41.8409L351.341 41.8609V41.8609ZM186.095 41.8276C184.552 41.2675 183.08 40.6188 181.718 39.8993L182.159 39.0646C183.48 39.7643 184.913 40.3952 186.416 40.9399L186.093 41.8276H186.095ZM237.636 40.4174L237.412 39.5008C238.913 39.1355 240.45 38.7414 241.979 38.3296L242.225 39.2418C240.689 39.6536 239.146 40.0499 237.638 40.4174H237.636ZM246.784 37.9643L246.518 37.0588C248.008 36.6227 249.527 36.1644 251.03 35.6906L251.313 36.5917C249.803 37.0677 248.28 37.5282 246.781 37.9665L246.784 37.9643ZM182.316 37.9378L181.681 37.2381C182.852 36.1755 183.912 35.0331 184.831 33.8442L185.577 34.422C184.623 35.6552 183.525 36.8374 182.314 37.9378H182.316ZM177.676 37.3267C176.387 36.3459 175.198 35.2545 174.138 34.0833L174.837 33.4501C175.858 34.5792 177.005 35.6308 178.247 36.5762L177.676 37.3267V37.3267ZM255.814 35.1216L255.513 34.2272C257.003 33.7246 258.502 33.2021 259.965 32.6752L260.286 33.563C258.816 34.0921 257.313 34.6168 255.816 35.1216H255.814ZM351.348 32.4073C351.335 30.6628 351.306 29.1196 351.253 27.6939L352.196 27.6607C352.247 29.0953 352.278 30.645 352.291 32.4007L351.346 32.4073H351.348ZM264.723 31.9092L264.384 31.0281C265.879 30.4524 267.351 29.8657 268.764 29.2835L269.124 30.1558C267.705 30.7425 266.224 31.3314 264.725 31.9092H264.723ZM188.139 30.3572L187.295 29.9344C187.594 29.3388 187.871 28.7211 188.116 28.099C188.424 27.3219 188.663 26.4895 188.825 25.6261L189.753 25.801C189.58 26.7264 189.323 27.6164 188.993 28.4488C188.736 29.0953 188.449 29.7373 188.139 30.3572V30.3572ZM171.271 30.2288L171.142 30.0163C170.381 28.7322 169.836 27.2776 169.528 25.688L170.456 25.5087C170.744 26.9898 171.246 28.3448 171.955 29.5336L172.079 29.7373L171.271 30.2266V30.2288ZM273.479 28.285L273.094 27.4238C273.918 27.054 274.712 26.6887 275.461 26.3345C276.083 26.0401 276.718 25.7323 277.351 25.4179L277.772 26.2637C277.132 26.5803 276.492 26.8902 275.866 27.1891C275.113 27.5455 274.312 27.913 273.481 28.285H273.479ZM281.979 24.0874L281.531 23.2549C282.831 22.5575 284.179 21.8092 285.654 20.9724L286.121 21.7937C284.64 22.635 283.285 23.3855 281.981 24.0874H281.979ZM350.98 23.0003C350.841 21.3399 350.655 19.7724 350.427 18.3444L351.359 18.1961C351.589 19.6484 351.777 21.238 351.919 22.9206L350.978 23.0003H350.98ZM188.991 21.0587C188.827 19.5067 188.457 18.0123 187.891 16.6175L188.765 16.2611C189.365 17.7378 189.757 19.3185 189.93 20.9591L188.991 21.0565V21.0587ZM170.266 20.9436L169.327 20.8484C169.493 19.2078 169.88 17.6249 170.478 16.146L171.353 16.5002C170.788 17.8972 170.423 19.3916 170.266 20.9436V20.9436ZM290.212 19.427L289.734 18.6123C290.945 17.9016 292.154 17.1887 293.363 16.4736L293.801 16.2146L294.281 17.0271L293.843 17.2861C292.634 18.0013 291.423 18.7164 290.21 19.427H290.212ZM298.351 14.6361L297.875 13.8213C299.398 12.9335 300.739 12.1631 301.977 11.4679L302.44 12.2915C301.207 12.9845 299.869 13.7527 298.351 14.6383V14.6361ZM349.455 13.7771C349.012 12.1764 348.474 10.713 347.859 9.42888L348.711 9.02152C349.351 10.3565 349.907 11.8709 350.367 13.5247L349.457 13.7771H349.455ZM185.508 12.7653C184.424 11.5853 183.182 10.7661 181.816 10.33L182.101 9.4311C183.627 9.91595 185.006 10.8237 186.204 12.1255L185.508 12.7653ZM173.735 12.6502L173.042 12.0081C174.251 10.6997 175.643 9.80747 177.18 9.35804L177.445 10.2635C176.075 10.6643 174.828 11.4679 173.737 12.6479L173.735 12.6502ZM306.573 10.0289L306.13 9.19421C307.607 8.41269 308.989 7.71087 310.355 7.0489L310.766 7.89905C309.411 8.55659 308.039 9.25177 306.573 10.0289V10.0289ZM315.039 5.94193L314.667 5.07407C316.157 4.43424 317.643 3.84312 319.078 3.31842L319.401 4.20621C317.982 4.72427 316.514 5.30875 315.039 5.94193V5.94193ZM345.379 5.58327C344.358 4.4121 343.178 3.45347 341.87 2.73172L342.326 1.90371C343.732 2.67859 344.998 3.70807 346.092 4.96116L345.379 5.58106V5.58327ZM323.855 2.73615L323.59 1.83065C324.69 1.50742 325.801 1.21296 326.891 0.951718C327.333 0.845449 327.774 0.748036 328.203 0.661692L328.392 1.58712C327.973 1.67346 327.541 1.76866 327.11 1.8705C326.036 2.12732 324.94 2.41734 323.855 2.73615V2.73615ZM337.588 1.23953C336.182 0.984927 334.641 0.89637 332.999 0.978285L332.952 0.0351479C334.668 -0.0511956 336.282 0.0417897 337.756 0.309676L337.588 1.23953V1.23953Z" fill="#A1C5DB"/>
<path d="M412.893 318.351H74.8008V335.11H412.893V318.351Z" fill="#0D3447"/>
<path d="M57.1272 322.057L430.258 322.057C435.148 322.057 439.113 318.092 439.113 313.201V97.3486C439.113 92.4577 435.148 88.4929 430.258 88.4929L57.1272 88.4929C52.2363 88.4929 48.2715 92.4577 48.2715 97.3486V313.201C48.2715 318.092 52.2363 322.057 57.1272 322.057Z" fill="#164D6E"/>
<path d="M63.0801 302.789L424.609 302.789V104.925L63.0801 104.925V302.789Z" fill="white"/>
<path d="M84.9766 109.853C84.9766 111.12 86.0038 112.147 87.2702 112.147C88.5366 112.147 89.5638 111.12 89.5638 109.853C89.5638 108.587 88.5366 107.56 87.2702 107.56C86.0038 107.56 84.9766 108.587 84.9766 109.853Z" fill="#F7A3A6"/>
<path d="M79.602 112.076C80.8256 111.748 81.5517 110.49 81.2238 109.266C80.896 108.043 79.6383 107.317 78.4147 107.645C77.1911 107.973 76.465 109.23 76.7929 110.454C77.1207 111.677 78.3784 112.403 79.602 112.076Z" fill="#F7A3A6"/>
<path d="M72.4482 111.4C73.306 110.468 73.2457 109.017 72.3135 108.159C71.3814 107.301 69.9304 107.362 69.0726 108.294C68.2149 109.226 68.2752 110.677 69.2073 111.535C70.1395 112.392 71.5905 112.332 72.4482 111.4Z" fill="#F7A3A6"/>
<path d="M28.5802 324.23H461.115C463.559 324.23 465.543 326.214 465.543 328.658V335.11H24.1523V328.658C24.1523 326.214 26.136 324.23 28.5802 324.23Z" fill="#A1C5DB"/>
<path d="M24.1523 335.11H465.543V336.742C465.543 343.711 459.884 349.37 452.914 349.37H36.7806C29.8112 349.37 24.1523 343.711 24.1523 336.742V335.11Z" fill="#164D6E"/>
<g style="mix-blend-mode:multiply">
<path d="M318.794 324.23H168.496C168.496 328.858 173.674 332.61 180.062 332.61H307.228C313.615 332.61 318.794 328.858 318.794 324.23Z" fill="#A1C5DB"/>
</g>
<path d="M264.402 308.945H223.289V315.014H264.402V308.945Z" fill="#0D3447"/>
<path d="M222.022 216.905H224.783V206.867C224.783 199.71 229.634 199.335 230.305 199.335C234.113 199.335 235.242 201.509 235.242 205.483V216.905H238.003V206.489C238.003 202.849 239.424 199.333 243.526 199.333C247.332 199.333 248.463 201.507 248.463 205.481V216.903H251.222V204.476C251.222 199.625 248.838 196.825 243.861 196.825C241.226 196.825 238.547 198.372 237.42 200.883C236.125 197.538 233.32 196.825 231.186 196.825C228.846 196.825 226.211 198.036 224.87 200.294H224.788V197.325H221.816C221.898 198.789 222.027 200.21 222.027 201.678V216.903L222.022 216.905ZM214.329 204.899C209.644 204.899 202.155 205.315 202.155 211.674C202.155 215.482 205.418 217.406 208.887 217.406C212.026 217.406 214.203 216.316 215.79 213.726H215.872C215.872 214.771 215.954 215.942 216.122 216.903H218.801C218.633 215.856 218.465 214.014 218.465 212.51V203.768C218.465 198.997 215.157 196.825 211.309 196.825C207.461 196.825 204.825 197.828 203.029 199.67L204.701 201.636C206.374 200.128 208.382 199.335 210.685 199.335C214.072 199.335 215.704 201.009 215.704 204.399V204.901H214.325L214.329 204.899ZM215.708 207.157V208.579C215.708 212.054 213.787 214.895 209.768 214.895C207.552 214.895 205.168 213.892 205.168 211.297C205.168 207.365 211.482 207.155 214.285 207.155H215.706L215.708 207.157ZM191.072 216.905H193.832V205.862C193.832 203.225 195.714 199.586 199.899 199.586C200.651 199.586 201.149 199.67 201.488 199.796L202.031 197.075C201.446 196.909 200.773 196.827 199.98 196.827C196.549 196.827 194.501 198.875 193.706 200.969H193.622V197.33H190.901C190.985 200.174 191.069 201.682 191.069 203.436V216.907L191.072 216.905ZM167.522 223.013C170.032 225.69 173.046 226.943 176.936 226.943C185.72 226.943 187.436 221.005 187.436 216.739V197.327H184.675V200.591H184.594C182.331 197.538 179.362 196.825 177.02 196.825C171.246 196.825 167.061 201.257 167.061 206.949C167.061 212.641 171.622 216.905 177.27 216.905C180.115 216.905 182.833 215.858 184.594 213.226H184.675V216.739C184.675 220.961 182.667 224.435 177.06 224.435C173.92 224.435 171.204 223.013 169.572 220.837L167.522 223.011V223.013ZM177.356 214.397C173.256 214.397 170.075 210.965 170.075 206.865C170.075 202.765 173.256 199.335 177.356 199.335C181.957 199.335 184.76 202.767 184.76 206.865C184.928 211.381 181.37 214.397 177.356 214.397M147.446 197.327C147.528 198.749 147.656 200.591 147.656 201.636V216.905H150.417V206.865C150.417 199.712 155.773 199.335 156.357 199.335C160.457 199.335 161.67 201.722 161.67 206.07V216.905H164.431V204.478C164.431 199.628 162.045 196.827 157.068 196.827C154.475 196.827 151.712 198.332 150.499 200.464H150.417C150.417 199.419 150.417 198.372 150.291 197.327H147.446V197.327ZM140.461 187.287H143.474V216.905H140.461V187.287Z" fill="#4E9EB8"/>
<path d="M332.319 185.279H329.56V216.905H332.319V206.615L342.485 216.905H346.751L335.959 206.281L345.707 197.33H341.564L332.319 206.155V185.279V185.279ZM317.096 216.905H319.854V205.862C319.854 203.225 321.736 199.586 325.921 199.586C326.673 199.586 327.178 199.67 327.51 199.796L328.053 197.075C327.468 196.909 326.799 196.827 326.005 196.827C322.573 196.827 320.523 198.875 319.726 200.969H319.644V197.33H316.928C317.007 200.175 317.094 201.682 317.094 203.436V216.908L317.096 216.905ZM309.106 204.899C304.423 204.899 296.933 205.315 296.933 211.674C296.933 215.482 300.195 217.406 303.666 217.406C306.805 217.406 308.98 216.316 310.569 213.726H310.651C310.651 214.771 310.735 215.94 310.903 216.903H313.578C313.412 215.856 313.244 214.014 313.244 212.511V203.768C313.244 198.997 309.938 196.825 306.09 196.825C302.242 196.825 299.606 197.828 297.808 199.67L299.482 201.636C301.153 200.128 303.161 199.336 305.464 199.336C308.853 199.336 310.485 201.009 310.485 204.399V204.901H309.101L309.106 204.899ZM310.489 207.157V208.579C310.489 212.055 308.565 214.895 304.547 214.895C302.331 214.895 299.947 213.892 299.947 211.297C299.947 207.366 306.263 207.155 309.066 207.155H310.487L310.489 207.157ZM275.228 228.954H277.989V213.642H278.071C279.871 216.279 283.092 217.408 285.682 217.408C291.793 217.408 296.099 213.018 296.099 207.12C296.099 201.222 291.793 196.832 285.682 196.832C283.092 196.832 279.868 197.961 278.071 200.598H277.989V197.334H275.228V228.958V228.954ZM285.684 199.336C290.245 199.336 293.09 202.725 293.09 207.115C293.09 211.506 290.245 214.895 285.684 214.895C281.124 214.895 277.863 211.508 277.863 207.115C277.863 202.723 281.168 199.336 285.684 199.336ZM269.833 192.182C268.538 190.258 266.611 189.293 264.103 189.293C261.008 189.293 257.787 190.925 257.787 194.649C257.787 202.639 272.97 198.415 272.97 209.081C272.97 214.479 267.907 217.656 263.226 217.656C259.624 217.656 256.155 216.361 253.895 213.266L256.615 211.297C257.871 213.474 260.253 214.897 263.348 214.897C266.443 214.897 269.709 212.971 269.709 209.5C269.709 201.133 254.523 205.774 254.523 194.941C254.523 189.209 259.292 186.532 264.103 186.532C267.448 186.532 270.125 187.451 272.467 190.13L269.833 192.18V192.182Z" fill="#FEBE10"/>
<path d="M347.365 197.206H347.538C347.744 197.206 347.905 197.138 347.905 196.974C347.905 196.83 347.799 196.732 347.567 196.732C347.469 196.732 347.403 196.741 347.365 196.75V197.206ZM347.356 198.105H346.989V196.518C347.133 196.491 347.336 196.469 347.598 196.469C347.897 196.469 348.032 196.518 348.147 196.586C348.233 196.653 348.302 196.779 348.302 196.934C348.302 197.109 348.169 197.244 347.974 197.301V197.319C348.129 197.379 348.215 197.494 348.264 197.707C348.313 197.948 348.339 198.045 348.379 198.105H347.983C347.934 198.045 347.905 197.899 347.857 197.715C347.83 197.543 347.733 197.465 347.527 197.465H347.354V198.105H347.356ZM346.378 197.273C346.378 197.979 346.9 198.541 347.615 198.541C348.331 198.541 348.824 197.979 348.824 197.282C348.824 196.584 348.313 196.006 347.607 196.006C346.9 196.006 346.378 196.575 346.378 197.273ZM349.232 197.273C349.232 198.172 348.525 198.88 347.607 198.88C346.688 198.88 345.973 198.174 345.973 197.273C345.973 196.372 346.697 195.688 347.607 195.688C348.516 195.688 349.232 196.394 349.232 197.273Z" fill="#FEBE10"/>
</g>
<defs>
<clipPath id="clip0_105_69">
<rect width="500" height="349.37" fill="white"/>
</clipPath>
</defs>
</svg>
