<?xml version="1.0" encoding="UTF-8"?><svg id="Layer_2" xmlns="http://www.w3.org/2000/svg" xmlns:xlink="http://www.w3.org/1999/xlink" viewBox="0 0 264.46 192"><defs><style>.cls-1{fill:none;}.cls-2{clip-path:url(#clippath);}.cls-3{fill:#f4a77a;}.cls-4{fill:#00529b;}.cls-5{fill:#004580;}.cls-6{fill:#003d80;}.cls-7{fill:#eaeaef;}.cls-8{fill:#f4e7e7;}.cls-9{fill:#fff;}.cls-10{fill:#ffe26e;}.cls-11{fill:#ffbe0f;}.cls-12{fill:#f19569;}.cls-13{fill:#9d613d;}.cls-14{fill:#9db1c3;}.cls-15{fill:#9dbcd0;}.cls-16{fill:#b47047;}.cls-17{fill:#c1d8ef;}.cls-18{fill:#afacac;}.cls-19{fill:#d0bc59;}.cls-20{fill:#d0d0d3;}.cls-21{fill:#d09b0d;}.cls-22{fill:#d5bc5e;}.cls-23{fill:#122e52;}.cls-24{fill:#4295a2;}.cls-25{fill:#3d8198;}.cls-26{fill:#6bcbe4;}.cls-27{fill:#387d86;}.cls-28{fill:#3b7d90;}.cls-29{fill:#845933;}.cls-30{fill:#754f33;}.cls-31{fill:#4fafc8;}.cls-32{fill:#4f9db7;}.cls-33{fill:#337893;}.cls-34{fill:#4da2b4;}.cls-35{clip-path:url(#clippath-1);}.cls-36{clip-path:url(#clippath-4);}.cls-37{clip-path:url(#clippath-3);}.cls-38{clip-path:url(#clippath-2);}.cls-39{clip-path:url(#clippath-7);}.cls-40{clip-path:url(#clippath-8);}.cls-41{clip-path:url(#clippath-6);}.cls-42{clip-path:url(#clippath-5);}.cls-43{clip-path:url(#clippath-9);}.cls-44{clip-path:url(#clippath-20);}.cls-45{clip-path:url(#clippath-21);}.cls-46{clip-path:url(#clippath-24);}.cls-47{clip-path:url(#clippath-23);}.cls-48{clip-path:url(#clippath-22);}.cls-49{clip-path:url(#clippath-25);}.cls-50{clip-path:url(#clippath-14);}.cls-51{clip-path:url(#clippath-13);}.cls-52{clip-path:url(#clippath-12);}.cls-53{clip-path:url(#clippath-10);}.cls-54{clip-path:url(#clippath-15);}.cls-55{clip-path:url(#clippath-17);}.cls-56{clip-path:url(#clippath-16);}.cls-57{clip-path:url(#clippath-19);}.cls-58{clip-path:url(#clippath-11);}.cls-59{clip-path:url(#clippath-18);}</style><clipPath id="clippath"><rect class="cls-1" width="264.46" height="192"/></clipPath><clipPath id="clippath-1"><rect class="cls-1" width="264.46" height="192"/></clipPath><clipPath id="clippath-2"><rect class="cls-1" width="264.46" height="192"/></clipPath><clipPath id="clippath-3"><rect class="cls-1" width="264.46" height="192"/></clipPath><clipPath id="clippath-4"><rect class="cls-1" width="264.46" height="192"/></clipPath><clipPath id="clippath-5"><rect class="cls-1" width="264.46" height="192"/></clipPath><clipPath id="clippath-6"><rect class="cls-1" width="264.46" height="192"/></clipPath><clipPath id="clippath-7"><rect class="cls-1" width="264.46" height="192"/></clipPath><clipPath id="clippath-8"><rect class="cls-1" width="264.46" height="192"/></clipPath><clipPath id="clippath-9"><rect class="cls-1" width="264.46" height="192"/></clipPath><clipPath id="clippath-10"><rect class="cls-1" width="264.46" height="192"/></clipPath><clipPath id="clippath-11"><rect class="cls-1" width="264.46" height="192"/></clipPath><clipPath id="clippath-12"><rect class="cls-1" width="264.46" height="192"/></clipPath><clipPath id="clippath-13"><rect class="cls-1" width="264.46" height="192"/></clipPath><clipPath id="clippath-14"><rect class="cls-1" width="264.46" height="192"/></clipPath><clipPath id="clippath-15"><rect class="cls-1" width="264.46" height="192"/></clipPath><clipPath id="clippath-16"><rect class="cls-1" width="264.46" height="192"/></clipPath><clipPath id="clippath-17"><rect class="cls-1" width="264.46" height="192"/></clipPath><clipPath id="clippath-18"><rect class="cls-1" width="264.46" height="192"/></clipPath><clipPath id="clippath-19"><rect class="cls-1" width="264.46" height="192"/></clipPath><clipPath id="clippath-20"><rect class="cls-1" width="264.46" height="192"/></clipPath><clipPath id="clippath-21"><rect class="cls-1" width="264.46" height="192"/></clipPath><clipPath id="clippath-22"><rect class="cls-1" width="264.46" height="192"/></clipPath><clipPath id="clippath-23"><rect class="cls-1" width="264.46" height="192"/></clipPath><clipPath id="clippath-24"><rect class="cls-1" width="264.46" height="192"/></clipPath><clipPath id="clippath-25"><rect class="cls-1" width="264.46" height="192"/></clipPath></defs><g id="Layer_2-2"><g id="Layer_1-2"><g><g class="cls-2"><g><path class="cls-17" d="M77.59,172.77c29.17,11.16,61.59,12.41,92,5.41,36.69-8.44,69.84-30.36,87.37-65.79,7.56-15.27,10.43-33.92,3.81-49.63-11.5-27.33-46.72-38.63-73.06-32.27-13.05,3.17-25.22,10.23-38.56,11.57-19.45,1.96-37.83-8.42-56.93-12.59-22.26-4.88-46.22-1.02-66.06,10.64-8.12,4.77-15.71,10.98-20.49,19.3-7.85,13.67-6.93,31.26-1.12,45.95,12.88,32.64,41.93,55.53,73.04,67.43"/><path class="cls-10" d="M86.35,179.59h13.16v-23.47h-13.16c-1.51,0-2.76,1.33-2.76,2.96v17.55c0,1.63,1.24,2.96,2.76,2.96"/><path class="cls-23" d="M86.2,179.59h13.31v-5.6h-13.31c-1.45,0-2.6,1.26-2.6,2.79s1.17,2.81,2.6,2.81"/></g></g><rect class="cls-19" x="86.38" y="156.13" width="1.23" height="17.87"/><g class="cls-35"><g><path class="cls-20" d="M99.51,175.05v3.49h-13.34c-.9,0-1.63-.78-1.63-1.75s.73-1.75,1.63-1.75h13.34v.02Z"/><path class="cls-10" d="M189.14,113.92h13.16v-23.47h-13.16c-1.51,0-2.76,1.33-2.76,2.96v17.55c0,1.63,1.23,2.96,2.76,2.96"/><path class="cls-23" d="M188.99,113.92h13.31v-5.6h-13.31c-1.45,0-2.6,1.26-2.6,2.79s1.17,2.81,2.6,2.81"/></g></g><rect class="cls-19" x="189.17" y="90.45" width="1.23" height="17.87"/><g class="cls-38"><g><path class="cls-20" d="M202.3,109.38v3.49h-13.34c-.9,0-1.63-.78-1.63-1.75s.73-1.75,1.63-1.75h13.34v.02Z"/><path class="cls-32" d="M54.83,42.32l12.71,3.66,5.65-22.67-12.71-3.66c-1.46-.43-2.98,.51-3.37,2.09l-4.24,16.95c-.39,1.58,.48,3.2,1.96,3.62"/><path class="cls-23" d="M54.7,42.29l12.85,3.69,1.34-5.41-12.85-3.69c-1.4-.41-2.83,.49-3.2,1.97-.37,1.5,.46,3.03,1.84,3.42"/></g></g><polyline class="cls-25" points="60.53 19.67 56.23 36.93 57.4 37.27 61.71 20.01 61.4 19.93 60.53 19.67"/><g class="cls-37"><g><path class="cls-20" d="M68.63,41.59l-.85,3.37-12.88-3.71c-.87-.26-1.38-1.21-1.16-2.14,.24-.94,1.12-1.48,1.99-1.23l12.88,3.71h.02Z"/><path class="cls-32" d="M47.26,166.27l20.61-12.76-17.95-33.39-20.61,12.76c-1.12,.7-1.51,2.25-.87,3.45l15.61,29c.65,1.21,2.09,1.62,3.22,.92"/><path class="cls-14" d="M29.94,132.49l-.63,.39,.63-.39Z"/></g></g><polygon class="cls-25" points="30.31 132.25 29.94 132.49 29.31 132.88 29.31 132.88 45.12 162.29 46.12 161.66 30.31 132.25"/><g class="cls-36"><g><path class="cls-23" d="M47.26,166.27l20.61-12.76-2.35-4.37-20.61,12.76c-1.12,.7-1.51,2.25-.87,3.45s2.09,1.62,3.22,.92"/><path class="cls-20" d="M65.95,149.93l1.48,2.76-20.61,12.76c-.71,.44-1.62,.17-2.03-.58-.41-.77-.17-1.74,.54-2.18l20.61-12.76Z"/></g></g><polygon class="cls-24" points="51.82 165.49 49.9 165.28 49.1 167.17 47.09 163.44 49.83 161.76 51.82 165.49"/><polygon class="cls-7" points="49.86 128.66 37.24 136.49 41.73 144.86 54.37 137.03 49.86 128.66"/><g class="cls-42"><path class="cls-4" d="M128.95,111.57l23.52,6.77,9.51-38.12-23.52-6.77c-1.29-.37-2.6,.44-2.96,1.84l-8.27,33.12c-.34,1.38,.43,2.81,1.7,3.17"/></g><polygon class="cls-5" points="138.46 73.45 130.07 107.04 131.23 107.37 139.6 73.79 138.46 73.45"/><g class="cls-41"><g><path class="cls-23" d="M128.95,111.57l23.52,6.77,1.24-5-23.52-6.77c-1.29-.37-2.6,.44-2.96,1.84-.34,1.38,.43,2.81,1.7,3.17"/><path class="cls-20" d="M153.49,114.26l-.78,3.15-23.52-6.77c-.82-.24-1.29-1.12-1.07-1.99,.22-.87,1.06-1.4,1.87-1.16l23.52,6.77h-.02Z"/></g></g><polyline class="cls-7" points="155.27 92.27 139.81 87.83 139.18 90.3 154.66 94.74"/><polyline class="cls-7" points="154.08 97.07 138.6 92.61 137.98 95.08 153.47 99.54"/><polyline class="cls-7" points="143.89 86.25 152.47 88.72 152.77 87.49 144.2 85.02"/><g class="cls-39"><path class="cls-23" d="M84.41,58.99H14.23v45.71h30.09c.17,1.5,1.34,2.67,2.79,2.67h4.41c1.45,0,2.62-1.17,2.79-2.67h30.11V58.99Z"/></g><rect class="cls-10" x="14.23" y="57.16" width="70.18" height="45.71"/><g class="cls-40"><g><path class="cls-7" d="M49.32,100.58H16.24V52.74h27.57c3.05,0,5.51,2.65,5.51,5.92v41.92Z"/><path class="cls-20" d="M49.32,100.58H16.24v-5.92h27.57c3.05,0,5.51,2.65,5.51,5.92"/><path class="cls-7" d="M49.32,100.58h33.08V52.74h-27.57c-3.05,0-5.51,2.65-5.51,5.92v41.92Z"/><path class="cls-20" d="M49.32,100.58h33.08v-5.92h-27.57c-3.05,0-5.51,2.65-5.51,5.92"/><path class="cls-20" d="M47.99,100.58h1.33V58.66c0-1.46-.51-2.77-1.33-3.81v45.73Z"/></g></g><rect class="cls-20" x="16.24" y="52.74" width="1.38" height="47.84"/><rect class="cls-20" x="23.64" y="58.12" width="18.26" height="1.41"/><rect class="cls-20" x="23.64" y="62" width="18.26" height="1.41"/><rect class="cls-20" x="23.64" y="65.89" width="18.26" height="1.41"/><rect class="cls-20" x="23.64" y="69.79" width="18.26" height="1.41"/><rect class="cls-20" x="23.64" y="73.69" width="18.26" height="1.41"/><rect class="cls-20" x="23.64" y="77.57" width="18.26" height="1.41"/><rect class="cls-20" x="23.64" y="81.47" width="18.26" height="1.41"/><rect class="cls-20" x="23.64" y="85.36" width="18.26" height="1.41"/><rect class="cls-20" x="23.64" y="89.26" width="18.26" height="1.41"/><rect class="cls-20" x="56.72" y="58.12" width="18.26" height="1.41"/><rect class="cls-20" x="56.72" y="62" width="18.26" height="1.41"/><rect class="cls-20" x="56.72" y="65.89" width="18.26" height="1.41"/><rect class="cls-20" x="56.72" y="69.79" width="18.26" height="1.41"/><rect class="cls-20" x="56.72" y="73.69" width="18.26" height="1.41"/><rect class="cls-20" x="56.72" y="77.57" width="18.26" height="1.41"/><rect class="cls-20" x="56.72" y="81.47" width="18.26" height="1.41"/><rect class="cls-20" x="56.72" y="85.36" width="18.26" height="1.41"/><rect class="cls-20" x="56.72" y="89.26" width="18.26" height="1.41"/><g class="cls-43"><path class="cls-23" d="M49.32,97.8h0c-1.29,0-2.33,1.12-2.33,2.5v2.91h4.68v-2.91c0-1.38-1.04-2.5-2.33-2.5"/></g><rect class="cls-34" x="38.67" y="51.79" width="3.8" height="19.88"/><g class="cls-53"><path class="cls-29" d="M76.22,118.43v-2.03c0-4.05,2.42-6.18,2.42-9.97v-5.94c0-1.5-1.12-2.71-2.52-2.71-.75,0-1.43,.36-1.89,.92v-.48c0-1.5-1.12-2.71-2.52-2.71-.78,0-1.48,.37-1.94,.99-.24-1.23-1.26-2.14-2.47-2.14-.75,0-1.43,.36-1.89,.92v-11.08c0-1.5-1.12-2.71-2.52-2.71s-2.52,1.21-2.52,2.71v17.14l-.03,.05c-.17-.44-.34-.85-.46-1.16-1.28-3.17-4.99-5.02-7.1-2.67,2.84,3.52,3.22,4.99,3.3,9.99,0,0,2.84,5.6,4.08,7.61,1.72,1.14,2.18,1.84,2.3,3.28h13.72l.03-.02Z"/></g><rect class="cls-4" x="61.11" y="118.43" width="16.13" height="70.78"/><rect class="cls-6" x="74.2" y="124.25" width="1.24" height="14.64"/><rect class="cls-8" x="61.11" y="118.14" width="16.13" height="6.08"/><g class="cls-58"><g><path class="cls-23" d="M74.81,127.09c0,.73-.56,1.34-1.24,1.34s-1.24-.6-1.24-1.34,.56-1.34,1.24-1.34,1.24,.6,1.24,1.34"/><path class="cls-23" d="M74.81,130.85c0,.75-.56,1.34-1.24,1.34s-1.24-.6-1.24-1.34,.56-1.34,1.24-1.34,1.24,.6,1.24,1.34"/><path class="cls-23" d="M74.81,134.6c0,.73-.56,1.34-1.24,1.34s-1.24-.6-1.24-1.34,.56-1.34,1.24-1.34,1.24,.6,1.24,1.34"/><path class="cls-22" d="M60.06,100.58h0c.09,.24,.2,.51,.31,.8h0c-.05-.17-.17-.48-.31-.8"/><path class="cls-18" d="M59.94,100.29c.03,.09,.07,.19,.12,.29h0c-.03-.1-.09-.19-.12-.29"/><path class="cls-30" d="M59,98.65v8.25c0,.43,.32,.75,.7,.75s.7-.34,.7-.75v-5.43l-.03-.1h0c-.12-.27-.22-.54-.31-.78-.03-.1-.09-.2-.12-.29-.1-.26-.2-.48-.29-.65-.2-.37-.63-.97-.65-1h0"/><path class="cls-3" d="M104.65,64.06c0-.09,.05-.19,.07-.27,.03-.26,.1-.51,.17-.75,.27-.94,5.09-9.41,5.09-9.41l8.7-7.98s.17,.12,.24,.17c2.03,1.31,3.64,3.39,4.27,6.04,0,0,2.59,10.99,2.6,11.1,.56,2.47,.36,5.16-.95,7.51l-5.26,9.48v43.31l-12.85-.46v-44.91l-.17-.1c-1.57-1-2.4-2.81-2.31-4.63l.41-9.05v-.03Z"/><path class="cls-12" d="M109.39,67.99l-1.41,.41v5.63c0,.43,.31,.75,.7,.75s.7-.34,.7-.75v-6.04h.02Z"/><path class="cls-32" d="M121.61,87.41c0,1-.77,1.82-1.7,1.82h-13.7c-.94,0-1.7-.82-1.7-1.82s.77-1.82,1.7-1.82h13.7c.94,0,1.7,.82,1.7,1.82"/><path class="cls-32" d="M121.61,93.74c0,1-.77,1.82-1.7,1.82h-13.7c-.94,0-1.7-.82-1.7-1.82s.77-1.82,1.7-1.82h13.7c.94,0,1.7,.82,1.7,1.82"/><path class="cls-11" d="M98.62,71.09l36.13-10.4L119.6,0l-36.13,10.4c-2.2,.63-3.49,3.05-2.91,5.39l13.02,52.18c.58,2.35,2.84,3.74,5.04,3.11"/></g></g><path class="cls-20" d="M84.22,10.18l1.19-.34-1.19,.34Z"/><polyline class="cls-21" points="85.43 9.84 84.22 10.18 83.47 10.4 96.7 63.36 98.65 62.8 85.43 9.84"/><g class="cls-52"><g><path class="cls-23" d="M98.62,71.09l36.13-10.4-2.13-8.53-36.13,10.4c-2.2,.63-3.49,3.05-2.91,5.39s2.84,3.74,5.04,3.11"/><path class="cls-20" d="M133.03,53.76l1.34,5.38-36.13,10.4c-1.38,.39-2.81-.48-3.17-1.96-.37-1.48,.46-3.01,1.84-3.4l36.13-10.4-.02-.02Z"/></g></g><polygon class="cls-7" points="116.75 5.33 116.01 5.53 126.6 47.96 101.72 55.12 91.32 13.48 116.93 6.11 116.75 5.33 116.01 5.53 116.75 5.33 116.54 4.54 89.46 12.32 100.65 57.11 128.45 49.11 117.27 4.32 116.54 4.54 116.75 5.33"/><rect class="cls-26" x="105" y="102.13" width="16.13" height="87.07"/><path class="cls-15" d="M121.14,102.13h0v7.39h0v-7.39Zm-14.41,0h-1.74v7.35h0v-7.35h1.74Z"/><g class="cls-51"><g><path class="cls-31" d="M121.14,102.13h-16.13v7.35c.1,0,.2,.03,.31,.03,2.11,0,3.83-1.77,3.95-4h.02c.12,2.23,1.84,4,3.95,4s3.83-1.77,3.95-4h.02c.12,2.23,1.84,4,3.95,4v-7.39Z"/><path class="cls-11" d="M117.17,102.13c0,2.35-1.77,4.25-3.97,4.25s-3.97-1.91-3.97-4.25h7.93Z"/><path class="cls-11" d="M105,102.13v4.22c.1,0,.2,.03,.31,.03,2.18,0,3.97-1.91,3.97-4.25h-4.27Z"/><path class="cls-11" d="M121.14,102.13h-3.97c0,2.35,1.77,4.25,3.97,4.25v-4.25Z"/><path class="cls-3" d="M119.77,47.7l.99,.12v29.97l-6.23,.15-3-1.91c-1.57-1-2.23-2.81-2.14-4.63l.05-3.66c.46-3.1,3.32-5.89,6.02-6.28l.12-9.38c.03-2.45,1.91-4.41,4.19-4.37"/></g></g><polygon class="cls-16" points="175.17 130.44 162.37 130.9 162.37 84.96 175.17 84.96 175.17 130.44"/><g class="cls-50"><g><path class="cls-16" d="M176.87,74.95s-.03-.15-.05-.24c-.03-.22-.09-.46-.15-.68-.24-.83-4.58-8.48-4.58-8.48l-7.83-7.18s-.14,.1-.22,.15c-1.82,1.19-3.28,3.05-3.85,5.43,0,0-2.33,9.89-2.35,9.97-.51,2.23-.31,4.65,.85,6.76l4.73,8.53h0l.09,.15,.03-.15,11.45,1.33v-3.2l.15-.1c1.4-.9,2.16-2.52,2.08-4.17l-.36-8.15v.03Z"/><path class="cls-13" d="M173.54,74.42c-.39,0-.7,.34-.7,.75v9.21c0,.41,.31,.75,.7,.75s.7-.34,.7-.75v-9.21c0-.41-.31-.75-.7-.75"/></g></g><rect class="cls-10" x="160.7" y="94.93" width="16.13" height="94.26"/><g class="cls-54"><g><path class="cls-23" d="M138.32,28.74v37.41l30.02,8.63c.83,1.77,2.52,2.91,4.41,2.91s3.57-1.14,4.41-2.91l30.02-8.63V28.74l-34.43,9.9-34.43-9.9Z"/><path class="cls-32" d="M207.18,20.8l-34.43,9.9-34.43-9.9v43.87l30.99,8.92c.48,1.55,1.82,2.69,3.44,2.69s2.96-1.12,3.44-2.69l30.99-8.92V20.8Z"/><path class="cls-7" d="M172.75,71.26l-31.79-9.14V16.15l26.48,7.62c2.93,.83,5.29,4.07,5.29,7.22v40.27h.02Z"/><path class="cls-20" d="M172.75,71.26l-31.79-9.14v-5.68l26.48,7.61c2.93,.85,5.29,4.07,5.29,7.22"/><path class="cls-7" d="M172.75,71.26l31.77-9.14V16.15l-26.48,7.62c-2.93,.83-5.29,4.07-5.29,7.22v40.27Z"/><path class="cls-20" d="M172.75,71.26l31.77-9.14v-5.68l-26.48,7.61c-2.93,.85-5.29,4.07-5.29,7.22"/><path class="cls-20" d="M171.49,70.88l1.28,.36V30.97c0-1.4-.49-2.81-1.28-4.02v43.92Z"/></g></g><polygon class="cls-20" points="140.98 62.12 142.31 62.49 142.31 16.54 140.98 16.15 140.98 62.12"/><polyline class="cls-20" points="147.92 24.69 165.47 29.73 165.79 28.44 148.25 23.38"/><polyline class="cls-20" points="147.92 28.44 165.47 33.47 165.79 32.16 148.25 27.13"/><polyline class="cls-20" points="147.92 32.16 165.47 37.22 165.79 35.91 148.25 30.87"/><polyline class="cls-20" points="147.92 35.91 165.47 40.96 165.79 39.65 148.25 34.6"/><polyline class="cls-20" points="147.92 39.65 165.47 44.69 165.79 43.4 148.25 38.34"/><polyline class="cls-20" points="147.92 43.38 165.47 48.43 165.79 47.12 148.25 42.09"/><polyline class="cls-20" points="147.92 47.12 165.47 52.18 165.79 50.87 148.25 45.83"/><polyline class="cls-20" points="147.92 50.87 165.47 55.9 165.79 54.61 148.25 49.56"/><polyline class="cls-20" points="147.92 54.61 165.47 59.65 165.79 58.34 148.25 53.3"/><polyline class="cls-20" points="180.04 29.73 197.58 24.69 197.26 23.38 179.71 28.44"/><polyline class="cls-20" points="180.04 33.47 197.58 28.44 197.26 27.13 179.71 32.16"/><polyline class="cls-20" points="180.04 37.22 197.58 32.16 197.26 30.87 179.71 35.91"/><polyline class="cls-20" points="180.04 40.96 197.58 35.91 197.26 34.6 179.71 39.65"/><polyline class="cls-20" points="180.04 44.69 197.58 39.65 197.26 38.34 179.71 43.4"/><polyline class="cls-20" points="180.04 48.43 197.58 43.38 197.26 42.09 179.71 47.12"/><polyline class="cls-20" points="180.04 52.18 197.58 47.12 197.26 45.83 179.71 50.87"/><polyline class="cls-20" points="180.04 55.9 197.58 50.87 197.26 49.56 179.71 54.61"/><polyline class="cls-20" points="180.04 59.65 197.58 54.61 197.26 53.3 179.71 58.34"/><g class="cls-56"><g><path class="cls-23" d="M176.19,70.27c-.48-1.55-1.82-2.69-3.44-2.69s-2.96,1.12-3.44,2.69l3.44,.97,3.44-.97Z"/><path class="cls-16" d="M163.95,60.31h-1.58v26.99l5.6,.14,2.69-1.72c1.41-.9,2.14-2.52,2.08-4.17l-.2-3.28c-.43-2.79-2.33-4.9-4.73-5.58l-.1-8.44c-.03-2.2-1.72-3.97-3.76-3.93"/></g></g><polygon class="cls-3" points="206.58 141.86 219.81 142.32 219.81 96.37 206.58 96.37 206.58 141.86"/><g class="cls-55"><g><path class="cls-3" d="M209.24,80.22l7.23-7.78c1.74-1.85,4.02-2.71,6.3-2.72h1.62v22.43c0,2.71-2.04,4.9-4.56,4.9h-10.89l-2.33,.73v-10.84c0-2.62,1.06-4.97,2.65-6.71"/><path class="cls-12" d="M218.46,91.27h-1.45l-.95,4.54c-.09,.41,.15,.82,.53,.9h.15c.32,0,.61-.24,.68-.6l1.02-4.87,.02,.02Z"/></g></g><rect class="cls-32" x="205.12" y="102.19" width="16.13" height="87.01"/><g class="cls-59"><path class="cls-24" d="M216.13,91.27h36.1V32.78h-36.1c-1.97,0-3.57,1.72-3.57,3.85v50.82c0,2.11,1.6,3.83,3.57,3.83"/></g><rect class="cls-27" x="216.13" y="32.78" width="1.77" height="51.53"/><g class="cls-57"><g><path class="cls-23" d="M216.13,91.27h36.1v-7.68h-36.1c-1.97,0-3.57,1.72-3.57,3.85s1.6,3.83,3.57,3.83"/><path class="cls-20" d="M252.23,85.01v4.83h-36.1c-1.24,0-2.25-1.09-2.25-2.42s1-2.42,2.25-2.42h36.1Z"/></g></g><polyline class="cls-7" points="223.19 49.81 246.95 49.81 246.95 46.02 223.19 46.02"/><polyline class="cls-7" points="241.66 53.74 228.49 53.74 228.49 55.63 241.66 55.63"/><polygon class="cls-11" points="234.66 95.86 231.57 93.5 228.49 95.86 228.49 87.42 234.66 87.42 234.66 95.86"/><g class="cls-44"><path class="cls-3" d="M206.58,80.84l5.92-9.43s4.2-2.13,6.98-4.48c4.58,5.7-3.08,9.73-3.08,9.73l-1.7,4.15c2.2,1.5,3.35,4.61,2.98,7.56l-1.5,6.98-9.6-7.4v-7.11Z"/></g><rect class="cls-28" x="218.53" y="102.19" width="1.28" height="8.27"/><rect class="cls-28" x="215.55" y="102.19" width="1.28" height="8.27"/><rect class="cls-28" x="212.56" y="102.19" width="1.28" height="8.27"/><rect class="cls-28" x="209.58" y="102.19" width="1.28" height="8.27"/><rect class="cls-28" x="206.58" y="102.19" width="1.28" height="8.27"/><rect class="cls-11" x="160.7" y="102.31" width="16.13" height="5.62"/><g class="cls-45"><g><path class="cls-28" d="M14.23,192h242.41c1.16,0,2.09-1,2.09-2.23s-.94-2.25-2.09-2.25H14.23c-1.16,0-2.09,1-2.09,2.25s.94,2.23,2.09,2.23"/><path class="cls-23" d="M176.63,125.95l-7.47,29.9,22.28,13.8c.31,1.6,1.43,2.91,2.94,3.35,1.51,.43,3.08-.1,4.1-1.31h25.73l7.47-29.9h-29.51l-25.54-15.83v-.02Z"/><path class="cls-4" d="M233.27,135.43h-29.51l-25.54-15.83-8.76,35.07,23.01,14.26c.07,1.36,.92,2.57,2.21,2.94s2.59-.22,3.28-1.36h26.57l8.76-35.07-.02-.02Z"/><path class="cls-7" d="M195.68,167.87l-23.59-14.62,9.17-36.74,19.66,12.19c2.18,1.34,3.42,4.48,2.79,6.98l-8.03,32.2Z"/><path class="cls-20" d="M195.68,167.87l-23.59-14.62,1.14-4.54,19.66,12.19c2.18,1.34,3.42,4.48,2.79,6.98"/><path class="cls-7" d="M195.68,167.87h27.23l9.17-36.74h-22.7c-2.5,0-5.05,2.03-5.67,4.54l-8.03,32.2Z"/><path class="cls-20" d="M195.68,167.87h27.23l1.14-4.54h-22.7c-2.5,0-5.05,2.04-5.67,4.54"/><path class="cls-20" d="M194.72,167.27l.94,.58,8.03-32.2c.27-1.12,.17-2.35-.2-3.51l-8.76,35.13Z"/></g></g><polygon class="cls-20" points="173.08 153.86 172.09 153.25 181.26 116.51 182.25 117.12 173.08 153.86"/><polyline class="cls-20" points="185.11 124.93 198.14 133 198.65 132.03 185.64 123.96"/><polyline class="cls-20" points="184.38 127.93 197.39 135.99 197.91 135.02 184.89 126.96"/><polyline class="cls-20" points="183.63 130.9 196.65 138.97 197.17 138 184.14 129.93"/><polyline class="cls-20" points="182.88 133.9 195.9 141.97 196.42 141 183.39 132.93"/><polyline class="cls-20" points="182.13 136.89 195.15 144.96 195.68 143.99 182.66 135.92"/><polyline class="cls-20" points="181.38 139.87 194.4 147.94 194.93 146.97 181.91 138.9"/><polyline class="cls-20" points="180.63 142.87 193.65 150.93 194.18 149.96 181.16 141.9"/><polyline class="cls-20" points="179.88 145.86 192.92 153.93 193.43 152.96 180.41 144.89"/><polyline class="cls-20" points="179.13 148.84 192.17 156.93 192.68 155.96 179.66 147.87"/><rect class="cls-20" x="209.78" y="135.23" width="15.03" height="1.12"/><rect class="cls-20" x="209.04" y="138.22" width="15.04" height="1.12"/><rect class="cls-20" x="208.29" y="141.2" width="15.04" height="1.12"/><rect class="cls-20" x="207.54" y="144.2" width="15.03" height="1.12"/><rect class="cls-20" x="206.79" y="147.19" width="15.04" height="1.12"/><rect class="cls-20" x="206.04" y="150.17" width="15.03" height="1.12"/><rect class="cls-20" x="205.31" y="153.16" width="15.04" height="1.12"/><rect class="cls-20" x="204.56" y="156.16" width="15.04" height="1.12"/><rect class="cls-20" x="203.81" y="159.15" width="15.03" height="1.12"/><g class="cls-48"><path class="cls-23" d="M198.62,167.87c-.07-1.36-.92-2.57-2.21-2.94s-2.59,.22-3.28,1.36l2.55,1.57h2.94v.02Z"/></g><polygon class="cls-11" points="209.48 142.78 212.68 129.93 209.8 129.93 206.58 142.78 209.48 142.78"/><g class="cls-47"><path class="cls-32" d="M114.62,172.36h25.75v-43.26h-25.75c-1.57,0-2.83,1.36-2.83,3.03v37.18c0,1.68,1.26,3.03,2.83,3.03"/></g><polygon class="cls-25" points="114.62 129.12 114.62 129.12 114.62 166.86 116.01 166.86 116.01 129.12 114.62 129.12"/><g class="cls-46"><g><path class="cls-23" d="M114.62,172.36h25.75v-6.08h-25.75c-1.57,0-2.83,1.36-2.83,3.03s1.26,3.03,2.83,3.03"/><path class="cls-20" d="M140.38,167.41v3.83h-25.75c-.99,0-1.79-.85-1.79-1.91s.8-1.91,1.79-1.91h25.75v-.02Z"/></g></g><polygon class="cls-7" points="137.59 132.1 137.07 132.1 137.07 162.34 119.33 162.34 119.33 132.66 137.59 132.66 137.59 132.1 137.07 132.1 137.59 132.1 137.59 131.53 118.28 131.53 118.28 163.46 138.1 163.46 138.1 131.53 137.59 131.53 137.59 132.1"/><g class="cls-49"><g><path class="cls-11" d="M33.39,175.19c-.26,0-.49-.1-.7-.31l-.85-.9c-.37-.41-.37-1.07,0-1.48,.37-.41,1-.41,1.38,0l.85,.9c.37,.41,.37,1.07,0,1.48-.19,.2-.44,.31-.7,.31"/><path class="cls-11" d="M28.83,170.3c-.26,0-.49-.1-.7-.31l-.85-.9c-.37-.41-.37-1.07,0-1.48,.39-.41,1-.41,1.38,0l.85,.9c.37,.41,.37,1.07,0,1.48-.19,.2-.44,.31-.68,.31"/><path class="cls-11" d="M27.98,175.19c-.26,0-.49-.1-.7-.31-.37-.41-.37-1.07,0-1.48l.85-.9c.37-.41,1-.41,1.38,0s.37,1.07,0,1.48l-.85,.9c-.19,.2-.44,.31-.7,.31"/><path class="cls-11" d="M32.54,170.3c-.26,0-.49-.1-.7-.31-.37-.41-.37-1.07,0-1.48l.85-.9c.39-.41,1-.41,1.38,0s.37,1.07,0,1.48l-.85,.9c-.19,.2-.44,.31-.7,.31"/><path class="cls-9" d="M241.05,112.27c-.26,0-.49-.1-.7-.31l-.85-.9c-.37-.41-.37-1.07,0-1.48,.37-.41,1-.41,1.38,0l.85,.9c.37,.41,.37,1.07,0,1.48-.19,.2-.44,.31-.7,.31"/><path class="cls-9" d="M236.49,107.37c-.26,0-.49-.1-.7-.31l-.85-.9c-.37-.41-.37-1.07,0-1.48,.37-.41,1-.41,1.38,0l.85,.9c.37,.41,.37,1.07,0,1.48-.19,.2-.44,.31-.7,.31"/><path class="cls-9" d="M235.63,112.27c-.26,0-.49-.1-.7-.31-.37-.41-.37-1.07,0-1.48l.85-.9c.37-.41,1-.41,1.38,0s.37,1.07,0,1.48l-.85,.9c-.19,.2-.44,.31-.7,.31"/><path class="cls-9" d="M240.2,107.37c-.26,0-.49-.1-.7-.31-.37-.41-.37-1.07,0-1.48l.85-.9c.37-.41,1-.41,1.38,0s.37,1.07,0,1.48l-.85,.9c-.19,.2-.44,.31-.7,.31"/><path class="cls-33" d="M31.11,27.55c-.26,0-.49-.1-.7-.31l-.85-.9c-.37-.41-.37-1.07,0-1.48s1-.41,1.38,0l.85,.9c.37,.41,.37,1.07,0,1.48-.19,.2-.44,.31-.7,.31"/><path class="cls-33" d="M26.55,22.65c-.26,0-.49-.1-.7-.31l-.85-.9c-.37-.41-.37-1.07,0-1.48s1-.41,1.38,0l.85,.9c.37,.41,.37,1.07,0,1.48-.19,.2-.44,.31-.7,.31"/><path class="cls-33" d="M25.7,27.55c-.26,0-.49-.1-.7-.31-.37-.41-.37-1.07,0-1.48l.85-.9c.37-.41,1-.41,1.38,0s.37,1.07,0,1.48l-.85,.9c-.19,.2-.44,.31-.7,.31"/><path class="cls-33" d="M30.26,22.65c-.26,0-.49-.1-.7-.31-.37-.41-.37-1.07,0-1.48l.85-.9c.37-.41,1-.41,1.38,0s.37,1.07,0,1.48l-.85,.9c-.19,.2-.44,.31-.7,.31"/></g></g></g></g></g></svg>