<?xml version="1.0" encoding="UTF-8"?><svg id="Layer_2" xmlns="http://www.w3.org/2000/svg" xmlns:xlink="http://www.w3.org/1999/xlink" viewBox="0 0 294.04 197"><defs><style>.cls-1,.cls-2,.cls-3,.cls-4{fill:none;}.cls-5{clip-path:url(#clippath);}.cls-6,.cls-7,.cls-8{opacity:.1;}.cls-9{fill:#f8a17a;}.cls-10{fill:#00529c;}.cls-11{fill:#efb126;}.cls-12{fill:#e3edfa;}.cls-13{fill:#e5785c;}.cls-14{fill:#ebc945;}.cls-15,.cls-16,.cls-17{fill:#fff;}.cls-18{fill:#ffe370;}.cls-19{fill:#ffe36e;}.cls-20{fill:#ffeda3;}.cls-21{fill:#ffe9cc;}.cls-22{fill:#ffc73c;}.cls-23{fill:#ffbf14;}.cls-24{fill:#fdbe13;}.cls-25{fill:#7dbf47;}.cls-26{fill:#73b8d4;}.cls-27{fill:#00a3d5;}.cls-28{fill:#94368f;}.cls-29{fill:#d0d0d3;}.cls-30{fill:#d1e3f2;}.cls-31{fill:#e45429;}.cls-32{fill:#dfdbda;}.cls-33{fill:#d8584e;}.cls-34{fill:#174f7d;}.cls-35,.cls-8{fill:#231f20;}.cls-36{fill:#061f33;}.cls-37{fill:#0b2d4e;}.cls-38{fill:#6dc9f0;}.cls-39{fill:#6bcbe4;}.cls-40{fill:#6bcce4;}.cls-41{fill:#26a8d1;}.cls-42{fill:#381f7a;}.cls-43{fill:#347893;}.cls-44{fill:#5e9c29;}.cls-45{fill:#4f9eb8;}.cls-46{fill:#7d217a;}.cls-47{fill:#51666f;}.cls-16{opacity:.2;}.cls-16,.cls-17,.cls-7,.cls-8{isolation:isolate;}.cls-17{opacity:.3;}.cls-2{stroke:#6bcbe4;}.cls-2,.cls-3{stroke-width:5px;}.cls-2,.cls-3,.cls-4{stroke-miterlimit:10;}.cls-3{stroke:#26a8d1;}.cls-48{clip-path:url(#clippath-1);}.cls-49{clip-path:url(#clippath-2);}.cls-4{stroke:#0b2d4e;stroke-width:2px;}</style><clipPath id="clippath"><path class="cls-1" d="M179.29,144.77c1.67-6.27,2.55-12.64-1.27-16.85-1.76-1.96-4.9-3.23-7.45-4.21-5-1.86-10.09-4.31-15.38-5.19-5.59-.88-11.86-1.37-17.44-.2-3.53,.78-6.86,2.16-9.99,3.72-4.31,2.06-7.25,3.43-8.62,7.74-1.57,4.7-2.45,9.6-2.94,14.5-1.47,14.31,.49,28.61,.39,42.92,0,1.37,0,2.84,.78,4.12,1.37,2.45,5.19,2.55,7.94,2.55h27.24c3.82,0,6.66,.39,10.19,.98,3.04,.49,5.59-.78,6.96-3.14,1.37-2.25,1.47-4.9,1.57-7.45,.59-9.9,2.16-19.79,4.9-29.4,.78-2.74,2.16-6.27,3.14-10.09h0Z"/></clipPath><clipPath id="clippath-1"><path class="cls-1" d="M240.34,76.38c-1.76,0-3.53-.2-4.7-1.96-2.45-3.43-6.08-6.57-10.19-3.04-2.35,2.06-.59,6.17-2.65,8.13-1.76,1.76-4.12,1.47-5,4.41-1.37,4.31,2.94,8.04,4.31,11.76,1.18,3.14-1.47,4.31-2.65,6.76-.88,1.86-.39,3.92,.59,5.68,1.76,3.14,5.59,5.68,4.7,9.8-.78,3.43-1.47,6.47,1.57,9.02,2.06,1.76,5.88,3.43,5.59,6.66-.1,1.18-.88,2.16-1.18,3.33-.39,1.86,.88,3.63,2.16,4.8,3.14,2.84,5.88,5.49,8.13,9.11,.98,1.57,5,5,3.43,7.06,2.94-3.82,5.98-7.45,8.62-11.46,2.16-3.23,5.39-8.04,3.23-12.15-.69-1.27-1.96-2.16-2.35-3.53-.59-2.55,1.86-4.8,2.74-6.96,1.47-3.33,.39-7.25-2.16-9.8-1.18-1.18-2.45-2.55-2.65-4.21-.2-1.86,.98-3.53,1.47-5.29,.49-1.57,.78-3.23,.98-4.8,.1-1.18,.2-2.35-.1-3.43-.49-2.16-2.45-3.33-3.82-4.8-3.43-3.63-1.57-7.84-3.04-11.95-1.37-3.63-4.31-3.04-7.06-3.14h0Z"/></clipPath><clipPath id="clippath-2"><path class="cls-1" d="M262.29,102.64c1.27,.2,2.55,.29,3.72-.78,2.25-2.16,5.29-3.92,7.84-.78,1.47,1.76-.39,4.51,.78,6.27,1.08,1.57,2.74,1.67,3.04,3.92,.39,3.33-3.23,5.49-4.8,7.94-1.27,2.06,.49,3.33,.98,5.29,.39,1.47-.2,2.84-1.18,4.02-1.67,2.06-4.8,3.33-4.7,6.47,.1,2.55,.1,4.9-2.45,6.37-1.76,.98-4.8,1.67-5,4.12-.1,.88,.39,1.67,.39,2.55,0,1.37-1.08,2.45-2.25,3.23-2.65,1.67-5,3.14-7.15,5.49-.98,.98-4.31,2.94-3.43,4.7-1.57-3.14-3.33-6.27-4.61-9.5-1.08-2.65-2.84-6.57-.69-9.21,.69-.78,1.76-1.27,2.16-2.25,.78-1.76-.69-3.72-.98-5.49-.59-2.65,.69-5.29,2.94-6.76,1.08-.69,2.16-1.47,2.55-2.65,.39-1.27-.2-2.74-.39-4.02-.1-1.18-.1-2.45,0-3.63,.1-.88,.2-1.67,.59-2.45,.69-1.47,2.25-2.06,3.43-2.94,2.94-2.16,2.25-5.49,3.92-8.23,1.27-2.84,3.23-2.06,5.29-1.67h0Z"/></clipPath></defs><g id="Layer_2-2"><g id="Layer_2-2"><g id="Layer_1-2"><g><path class="cls-12" d="M186.84,183.09l-.2-.39c5.98-3.53,12.93-3.72,19.7-4.02,2.74-.1,5.59-.2,8.33-.59,12.64-1.57,22.05-9.7,24.99-21.85,2.74-11.07-.29-22.83-7.94-30.77-.39-.39-.78-.78-1.18-1.18-2.65-2.74-5.39-5.59-7.35-8.92-1.18-2.06-2.06-4.41-2.35-6.86-.29-2.25-.29-4.61,.1-7.06,.78-4.41,2.65-8.92,5.59-13.03,.78-1.08,1.57-2.25,2.35-3.33,2.55-3.43,5.19-6.96,6.86-11.07,1.96-4.9,2.45-11.07,1.27-17.54-1.86-10.48-7.84-19.99-15.87-25.38-10.48-6.96-21.56-5.39-33.22-3.82-4.9,.69-9.9,1.37-14.89,1.37-1.27,0-2.55-.1-3.82-.2-2.25-.2-4.51-.59-6.76-1.18-2.25-.59-4.41-1.47-6.47-2.45-4.31-2.16-8.04-5-11.07-8.53C136.18,6.22,124.22,.63,112.76,.63c-5,0-9.9,1.08-14.4,3.23-9.02,4.41-16.46,12.74-20.38,22.83-2.25,5.78-2.65,12.05-3.14,18.03-.39,5.68-.78,11.56-2.74,17.05-1.08,3.14-2.65,6.17-4.51,8.92-2.06,2.84-4.31,5.29-6.96,7.06-6.96,4.9-11.66,9.7-14.89,14.89-4.61,7.55-5.68,16.56-2.74,23.42,2.16,4.9,6.27,8.04,10.19,11.07,2.06,1.57,4.21,3.23,6.08,5.1,2.06,2.06,3.43,4.21,4.31,6.57,.69,1.96,1.08,4.21,1.08,6.86,0,3.14-.59,6.37-1.18,9.41-.98,5.29-1.96,10.68-.2,15.97,1.18,3.43,4.12,5.88,8.62,7.35,3.23,1.08,7.15,1.57,12.05,1.67h4.31c5.68-.1,11.46-.1,16.85,1.86l-.1,.39c-5.29-1.86-11.07-1.86-16.66-1.76h-4.31c-4.9-.1-8.92-.59-12.15-1.67-4.7-1.57-7.74-4.12-8.92-7.64-1.76-5.29-.78-10.78,.2-16.17,.59-3.04,1.18-6.27,1.18-9.41,0-2.65-.29-4.8-.98-6.76-1.86-5.1-5.98-8.23-10.19-11.46-4.02-3.04-8.23-6.27-10.39-11.27-.78-1.86-1.37-3.82-1.57-5.98-.2-1.96-.2-4.02,.1-6.17,.59-4.02,1.96-8.04,4.21-11.66,3.23-5.29,8.04-10.09,14.99-15.09,5-3.53,9.11-9.31,11.27-15.78,1.86-5.49,2.25-11.37,2.65-16.95,.39-6.08,.88-12.35,3.14-18.23,3.92-10.19,11.46-18.62,20.68-23.03,3.92-1.86,8.13-3.04,12.54-3.23,4.12-.2,8.43,.29,12.64,1.57,8.13,2.45,15.87,7.45,21.75,14.21,5.88,6.86,14.6,11.27,23.91,11.95,6.17,.49,12.54-.39,18.62-1.18,5.68-.78,11.46-1.57,17.05-1.27,3.04,.2,5.78,.59,8.33,1.37,2.94,.88,5.59,2.16,8.13,3.82,4.02,2.65,7.64,6.47,10.48,10.97,2.74,4.41,4.7,9.5,5.59,14.6,.59,3.04,.78,6.08,.59,9.02-.2,3.23-.88,6.17-1.86,8.82-1.67,4.12-4.31,7.64-6.86,11.17-.78,1.08-1.57,2.16-2.35,3.23-6.37,9.11-7.64,19.01-3.33,26.46,1.96,3.33,4.61,6.08,7.25,8.82,.39,.39,.78,.78,1.18,1.18,3.82,4.02,6.57,9.02,7.94,14.6,1.37,5.49,1.37,11.17,.1,16.66-.78,3.04-1.96,5.88-3.43,8.43s-3.43,4.8-5.59,6.66c-4.41,3.82-9.99,6.27-16.27,6.96-2.74,.29-5.59,.49-8.33,.59-6.66,.69-13.62,.88-19.5,4.41h0Z"/><path class="cls-30" d="M51.61,85.19c-5.1,7.25-9.02,17.15-6.37,26.26,2.74,9.11,11.46,14.7,15.29,23.42,2.16,4.9,2.25,10.29,2.25,15.48,.1,6.86-1.27,14.21,3.43,19.99,2.74,3.43,6.86,5.49,11.07,6.76,8.43,2.65,17.25,3.92,24.69,9.02,12.25,8.33,27.34,11.17,42.04,10.29,7.45-.49,14.8-1.86,21.85-4.02,8.23-2.55,15.58-6.96,23.91-9.41,14.4-4.12,34.1-4.21,42.53-18.81,5.68-9.8,7.64-21.95,3.23-32.63-2.06-5.1-6.08-9.02-8.43-14.01-3.14-6.86-4.02-14.8-1.86-22.15l.29-.88c2.16-6.86,6.66-12.74,8.43-19.7,3.82-14.4-4.61-29.59-15.58-38.9-4.61-3.82-9.7-7.06-15.29-8.92-15.29-5-32.34,.78-47.72-4.12-11.76-3.72-21.46-13.42-33.51-16.27-9.21-2.16-19.21,.2-27.05,5.78-7.84,5.68-13.52,14.5-16.17,24.2-2.35,9.02-2.35,18.91-6.57,27.05-3.63,6.96-10.39,10.78-15.87,15.87-1.67,1.76-3.23,3.63-4.61,5.68h0Z"/><g><path class="cls-37" d="M158.72,105.18c-1.76,1.67-3.72,2.94-6.08,3.53-4.51,1.08-8.72-.98-12.44-3.23-4.02-2.45-8.04-4.9-11.76-7.64-2.74-1.96-5.49-4.12-7.15-7.06-1.96-3.43-2.06-7.55-1.67-11.46,.29-2.65-.98-5-1.47-7.45-1.08-4.9,0-10.58,4.61-13.42,2.35-1.37,4.7-1.18,7.15-.2,1.86,.78,3.63,1.96,5.59,2.45,4.12,1.18,8.72-.49,12.74-1.27,2.94-.59,6.17-.88,9.11,.1,3.23,1.08,4.8,3.43,6.57,6.17,1.57,2.35,3.82,4.12,5.68,6.17,2.45,2.84,3.23,6.37,2.35,9.99-1.18,5.29-4.21,9.8-6.86,14.5-1.76,2.94-3.72,6.27-6.37,8.82h0Z"/><path class="cls-19" d="M125.3,155.45c5.39-8.33,8.72-18.52,4.02-27.93-.49-.98-1.08-1.96-2.06-2.35-2.16-.69-5.1,.1-6.96,1.18-6.57,3.82-10.58,11.07-14.21,17.54-3.82,6.66-7.15,13.62-10.97,20.28-1.57,2.74-3.14,5.49-3.92,8.43-.78,2.65-.78,5.68,.2,8.23,4.31,11.17,16.17-2.55,19.79-6.66,5.1-5.88,9.9-12.15,14.11-18.72h0Z"/><path class="cls-36" d="M152.25,104.99c-.59,.59-1.27,1.18-2.06,1.57-1.96,.98-4.31,.88-6.47,.29s-4.02-1.86-5.78-3.14c-4.8-3.43-10.88-7.94-13.72-13.23-1.76-3.23-3.14-7.06-1.37-10.58,1.47-3.04,4.41-5.29,7.84-5.59,.29,0,.59,0,.78,.1,.29,.1,.49,.39,.59,.69,1.18,2.06,2.16,4.21,3.72,6.08,1.67,1.96,3.63,3.53,5.88,4.8,3.53,2.16,7.45,3.72,10.78,6.17,2.45,1.76,2.45,5.78,1.86,8.62-.2,1.57-.98,3.04-2.06,4.21h0Z"/><g><path class="cls-20" d="M179.29,144.77c1.67-6.27,2.55-12.64-1.27-16.85-1.76-1.96-4.9-3.23-7.45-4.21-5-1.86-10.09-4.31-15.38-5.19-5.59-.88-11.86-1.37-17.44-.2-3.53,.78-6.86,2.16-9.99,3.72-4.31,2.06-7.25,3.43-8.62,7.74-1.57,4.7-2.45,9.6-2.94,14.5-1.47,14.31,.49,28.61,.39,42.92,0,1.37,0,2.84,.78,4.12,1.37,2.45,5.19,2.55,7.94,2.55h27.24c3.82,0,6.66,.39,10.19,.98,3.04,.49,5.59-.78,6.96-3.14,1.37-2.25,1.47-4.9,1.57-7.45,.59-9.9,2.16-19.79,4.9-29.4,.78-2.74,2.16-6.27,3.14-10.09h0Z"/><g class="cls-5"><g><path class="cls-23" d="M157.34,126.64c1.96-3.14,2.35-6.96-.2-9.99-1.18-1.37-3.14-1.57-4.9-1.57-3.43-.1-6.86,.29-10.19,1.08-3.14,.69-6.47,1.96-7.84,5-.98,2.25-.69,4.9,.69,7.06,1.18,1.86,3.23,3.33,5.49,3.82,3.63,.88,7.94,.69,11.46-.69,2.25-.88,4.21-2.65,5.49-4.7h0Z"/><path class="cls-19" d="M121.68,193.37c3.63,1.76,7.64,2.55,11.66,3.23,9.5-.39,21.95-1.18,33.22-1.67,2.45-.1,5.78,1.86,7.35,1.47,1.37-1.18,1.96-3.04,2.35-4.8,1.57-5.98,1.47-12.15,1.47-18.23,0-4.8-.1-9.6-.1-14.31,0-1.67,1.08-11.76-1.57-11.66-.29,0-.49,.2-.78,.29-1.27,.88-1.96,2.45-2.55,3.92-1.86,4.61-3.43,11.95-7.45,15.19-4.12,3.33-8.92,5-13.91,6.57-8.72,2.84-18.32,4.02-25.67,9.8-1.18,.98-2.35,2.06-3.53,3.14-.98,.98-2.45,1.96-3.04,3.33-.69,1.96,.78,2.94,2.55,3.72h0Z"/></g></g></g><path class="cls-20" d="M198.89,159.67c1.37,2.45,2.74,5,4.12,7.45,2.74,5.1,7.84,16.36-.29,19.21-4.12,1.37-6.47,0-9.11-2.94-10.19-11.27-18.91-23.91-25.87-37.43-2.55-5-9.41-18.23-1.08-21.17,2.65-.98,5.68-.69,8.13,.59,1.08,.59,2.16,1.37,3.04,2.25,5.98,5.29,10.29,12.25,14.01,19.21,2.25,4.21,4.7,8.53,7.06,12.84h0Z"/><path class="cls-19" d="M157.54,177.89c.69-.1,1.47-.2,2.16-.39,3.53-.59,6.96-1.18,10.39-1.96,6.86-1.47,13.72-2.74,20.68-3.33,.78-.1,1.47-.1,2.25-.2,3.14-.2,6.37-.29,9.21,1.18s5.1,4.9,4.41,8.23c-.49,2.35-2.35,4.12-4.31,5s-4.31,1.08-6.47,1.18c-7.06,.49-14.21,.98-21.36,1.47-3.53,.2-7.06,.49-10.58,.69-3.33,.2-6.76,.69-10.09,.69-1.37,0-3.04-.29-4.21-1.18-1.67-1.27-2.65-4.02-2.84-6.17-.1-1.08,.1-2.45,.98-3.14,.49-.39,1.08-.49,1.67-.59,2.74-.49,5.39-.98,8.13-1.47h0Z"/><g><rect class="cls-29" x="96.3" y="180.54" width="33.71" height="6.57"/><g><path class="cls-29" d="M102.08,181.13l-8.53-43.31c-.2-1.18-1.18-1.96-2.35-1.96H34.66c-.78,0-1.47,.39-1.96,.98h0l-2.65,3.04,2.35-.49,8.33,42.63c.2,1.18,1.18,1.96,2.35,1.96h56.54c1.67,.1,2.74-1.27,2.45-2.84h0Z"/><path class="cls-15" d="M40.64,187.1h56.54c1.57,0,2.65-1.37,2.35-2.94l-8.53-43.31c-.2-1.18-1.18-1.96-2.35-1.96H32.11c-1.57,0-2.65,1.37-2.35,2.94l8.53,43.31c.2,1.18,1.18,1.96,2.35,1.96h0Z"/><path class="cls-29" d="M58.37,161.92c.49,2.94,3.33,5.29,6.27,5.29s4.8-2.35,4.31-5.29-3.33-5.29-6.27-5.29-4.8,2.45-4.31,5.29Z"/></g></g><path class="cls-9" d="M149.5,188.47c-1.67,.39-3.04,1.86-4.7,2.35-1.18,.39-2.45,.2-3.63-.29-1.08-.39-2.16-.59-3.23-.98-.88-.29-1.96-.88-2.84-.69-2.35,.49-4.7,2.16-6.86,3.33-.49,.2-.98,.49-1.57,.39-.49-.1-.98-.78-.69-1.18-.59,.59-1.47,1.76-2.45,1.27-.39-.2-.69-.69-.39-1.08-.39,.39-.69,.78-1.18,.98s-1.08,.1-1.37-.29c-.1-.2-.2-.49-.2-.69,0-.78,.2-1.67,.59-2.35,1.67-3.72,5.49-6.47,8.82-8.62,.59-.39,1.18-.78,1.86-.98,.59-.2,1.18-.2,1.86-.2,4.02,0,8.13,.59,11.95,1.96,.88,.29,1.76,0,2.55-.1,.59-.1,1.27-.2,1.86-.1,.69,.2,1.18,.69,1.57,1.27,.78,1.08,1.37,2.45,1.27,3.72-.1,.98-.1,2.06-1.27,2.25-.49,.1-.98,0-1.47,.1-.29-.1-.39-.1-.49-.1h0Z"/><path class="cls-9" d="M150.19,128.7c2.45-.78,4.51-2.35,5.29-4.8,.69-2.25-.39-4.7-.59-6.96-.2-2.16-.2-4.31-.1-6.47,.1-1.96,.29-4.02,0-5.98-.2-1.08-.78-.88-1.96-1.37s-2.45-.49-3.72-.49c-2.55,0-9.21-.2-10.78,2.06-.69,.98-.78,2.35-.78,3.53,0,1.47-.29,3.33-.59,5.49-.1,.88,0,1.86-.2,2.74-.2,.98-.59,1.96-.88,2.94-1.27,3.72-.1,7.15,3.92,8.92,2.94,1.18,7.06,1.47,10.39,.39h0Z"/><path class="cls-13" d="M154.8,104.5c-.2-1.08-.78-.88-1.96-1.37s-2.45-.49-3.72-.49c-2.55,0-9.21-.2-10.78,2.06-.69,.98-.78,2.35-.78,3.53,0,1.47-.29,3.33-.59,5.49-.1,.88,0,1.86-.2,2.74-.1,.78-.39,1.57-.59,2.25,2.45,.88,5.29,1.08,7.84,.49,4.61-1.18,8.13-4.02,10.68-7.74v-.88c.2-2.06,.39-4.12,.1-6.08h0Z"/><path class="cls-9" d="M158.52,90c0-3.43-.49-6.66-1.37-9.31-3.82-11.56-18.13-14.4-26.85-6.08-9.7,9.21-5.98,31.36,4.21,39.1,2.74,2.06,6.47,2.84,9.7,1.96,9.99-2.74,14.31-15.09,14.31-25.67h0Z"/><path class="cls-13" d="M157.15,80.69c-3.82-11.56-18.13-14.4-26.85-6.08-1.08,1.08-2.06,2.25-2.74,3.63,.49,.39,1.08,.78,1.57,1.08,3.63,2.16,7.64,3.82,11.76,4.9,1.76,.49,3.63,.78,5.1,1.96,.88,.69,1.47,1.47,1.96,2.35,.59,1.08,1.08,2.35,1.47,3.53,.88,2.65,1.27,5.39,1.67,8.13,0,.29,.1,.59,.29,.78s.49,.2,.78,.2c1.57,0,2.35-1.57,3.63-2.35,.78-.49,1.47-.98,2.16-1.57,.39-2.45,.69-4.9,.59-7.25-.1-3.43-.49-6.66-1.37-9.31h0Z"/><path class="cls-37" d="M149.5,88.13c.49,1.18,.78,2.45,.98,3.72,.59,2.74,.59,5.49,.59,8.23,0,.29,0,.59,.2,.78s.49,.29,.78,.29c1.57,.2,2.55-1.27,3.92-1.86,1.37-.69,2.74-1.37,4.02-2.25,3.43-2.74,2.65-7.15,2.55-11.17-.1-2.16-.1-4.41-.78-6.47-.69-2.25-2.06-4.31-3.72-6.08-4.7-5-11.76-7.64-18.52-7.25-3.33,.2-7.15,1.67-9.6,4.12-2.06,2.06,.49,5,2.16,6.27,3.33,2.65,7.06,4.8,10.97,6.37,1.67,.69,3.53,1.27,4.8,2.55,.78,.78,1.27,1.76,1.67,2.74h0Z"/><path class="cls-9" d="M156.56,90.29c4.41-2.45,5.78,3.72,5,6.76-.29,1.27-.78,2.45-1.57,3.53-1.08,1.37-4.02,3.72-5.78,2.16-.78-.69-.88-1.86-.88-2.94-.1-2.74,.29-7.84,3.23-9.5h0Z"/><g><path class="cls-22" d="M75.13,163.1h16.76v15.68c0,4.61-3.72,8.43-8.43,8.43h0c-4.61,0-8.43-3.72-8.43-8.43l.1-15.68h0Z"/><path class="cls-22" d="M93.16,168.58c-4.02,0-7.25,3.33-7.25,7.45s3.23,7.45,7.25,7.45,7.25-3.33,7.25-7.45-3.23-7.45-7.25-7.45Zm0,12.15c-2.55,0-4.7-2.16-4.7-4.8s2.16-4.8,4.7-4.8,4.7,2.16,4.7,4.8-2.16,4.8-4.7,4.8Z"/><path class="cls-16" d="M77.68,177.99h0c-.49,0-.88-.39-.88-.88v-11.66c0-.49,.39-.88,.88-.88h0c.49,0,.88,.39,.88,.88v11.66c0,.49-.39,.88-.88,.88Z"/><path class="cls-11" d="M88.07,163.1v19.79c0,2.35-1.86,4.21-4.21,4.21h3.92c2.35,0,4.21-1.86,4.21-4.21v-19.79h-3.92Z"/></g><path class="cls-4" d="M121.09,77.94c-1.86-5.29-5.68-9.6-3.53-15.58,1.27-3.53,4.61-5.78,8.33-5.88,1.76,0,3.53,.39,5,1.27,1.86,1.08,3.04,2.74,5.1,3.33,5,1.37,10.09-2.45,14.89-3.33,4.7-.88,9.7,.69,12.05,5.19,.88,1.76,1.27,3.82,2.45,5.39,1.96,2.65,5.88,3.53,7.45,6.47,2.55,4.8-2.74,11.66-5.39,15.38"/><path class="cls-26" d="M133.63,65.89h2.25c.78-.1,1.57-.1,2.35-.2s1.57-.2,2.35-.39c.39-.1,.78-.1,1.18-.2l.59-.1,.59-.1c.2,0,.39-.1,.59-.1s.39-.1,.59-.1l.59-.1h2.94c.2,0,.39,0,.59,.1,.2,0,.39,.1,.59,.1s.39,.1,.59,.1l.29,.1c.1,0,.2,.1,.29,.1,.78,.2,1.57,.49,2.25,.88s1.37,.98,1.86,1.57c.49,.69,.88,1.37,1.08,2.16,.1,.2,.1,.39,.1,.59v.59c0,.39-.1,.78-.2,1.18-.1,.39-.2,.78-.2,1.18,0,.2-.1,.39-.1,.59v.49c0,.39,.1,.78,.2,1.08,.1,.39,.29,.69,.39,1.08s.39,.69,.49,1.08,.39,.69,.59,1.08c.2,.39,.39,.69,.49,1.08s.29,.78,.39,1.18c.1,.39,.1,.78,.1,1.18s-.1,.78-.2,1.18c.1-.39,.1-.78,.1-1.18s-.1-.78-.2-1.18c-.2-.78-.59-1.47-.98-2.06s-.78-1.27-1.18-2.06c-.2-.39-.39-.69-.49-1.08l-.29-1.18v-1.37c.1-.39,.1-.78,.2-1.18s.1-.78,.1-1.08v-.59c0-.2-.1-.39-.1-.49-.2-.69-.59-1.37-.98-1.96s-1.08-1.08-1.67-1.47c-.69-.39-1.37-.69-2.06-.78-.1,0-.2-.1-.29-.1l-.29-.1c-.2,0-.39-.1-.59-.1s-.39-.1-.59-.1-.39,0-.59-.1c-.39,0-.78-.1-1.18-.1h-2.35c-.2,0-.39,0-.59,.1-.2,0-.39,0-.59,.1l-2.35,.29-2.35,.29-.59,.1h-1.76c-.39,.2-1.18,.1-1.96,0h0Z"/><path class="cls-43" d="M288.85,197H8.01c-2.84,0-5.19-2.16-5.19-4.9h0c0-2.74,2.35-4.9,5.19-4.9H288.85c2.84,0,5.19,2.16,5.19,4.9h0c0,2.74-2.35,4.9-5.19,4.9Z"/><g><rect class="cls-41" x="10.06" y="107.24" width="2.06" height="77.12" transform="translate(-33.48 6.54) rotate(-13.4)"/><rect class="cls-41" x="14.28" y="106.46" width="2.06" height="79.18" transform="translate(-33.42 7.52) rotate(-13.4)"/><rect class="cls-41" x="-.45" y="83.54" width="53.99" height="2.06" transform="translate(-49.88 39.67) rotate(-42.14)"/><rect class="cls-41" x=".72" y="87.94" width="53.99" height="2.06" transform="translate(-52.53 41.59) rotate(-42.14)"/><rect class="cls-10" x="16.24" y="183.97" width="40.67" height="3.14"/><path class="cls-41" d="M22.51,177.7h28.02c3.53,0,6.27,2.84,6.27,6.27H16.24c0-3.43,2.84-6.27,6.27-6.27Z"/><rect class="cls-41" x="46.71" y="66.37" width="13.91" height="2.06" transform="translate(-26.51 35.86) rotate(-30)"/><path class="cls-10" d="M11.44,107.73l-2.84,3.92c-.39,.59-1.18,.78-1.86,.39l-5.98-3.04c-.78-.39-.98-1.37-.49-2.16l4.61-6.08c.59-.78,1.67-.78,2.25-.1l4.31,5.29c.39,.59,.39,1.27,0,1.76h0Z"/><circle class="cls-15" cx="1.44" cy="107.73" r=".69"/><circle class="cls-15" cx="7.52" cy="110.87" r=".69"/><circle class="cls-15" cx="10.26" cy="106.85" r=".69"/><path class="cls-10" d="M43.28,65.4l2.55,10.09c.1,.39,.59,.59,.88,.29l7.45-7.15c.29-.29,.2-.78-.2-.88l-9.99-2.84c-.39-.29-.78,.1-.69,.49h0Z"/><path class="cls-15" d="M47.4,73.83c-.2,.29-.59,.39-.88,.2s-.39-.59-.2-.88c.2-.29,.59-.39,.88-.2s.39,.59,.2,.88Z"/><path class="cls-15" d="M45.54,66.77c-.2,.29-.59,.39-.88,.2s-.39-.59-.2-.88c.2-.29,.59-.39,.88-.2s.39,.59,.2,.88Z"/><path class="cls-15" d="M52.69,68.93c-.2,.29-.59,.39-.88,.2s-.39-.59-.2-.88c.2-.29,.59-.39,.88-.2s.39,.59,.2,.88Z"/><circle class="cls-15" cx="6.05" cy="101.46" r=".69"/><path class="cls-41" d="M73.17,67.26l-13.03,2.84-4.02-18.81c-.1-.49,.2-.88,.69-.98l11.46-2.45c.49-.1,.88,.2,.98,.69l3.92,18.72h0Z"/><rect class="cls-10" x="58.67" y="60.89" width="13.42" height="3.53" transform="translate(-11.66 15.06) rotate(-12.07)"/><polygon class="cls-41" points="88.56 75.79 50.93 83.82 59.16 65.79 72.29 62.95 88.56 75.79"/><path class="cls-7" d="M65.92,64.32l6.37-1.37,16.27,12.84s-13.62,3.04-19.11,4.12"/><path class="cls-7" d="M62.59,48.94h0c3.53-.78,7.06,1.47,7.74,5l1.96,9.02-6.37,1.37-3.33-15.38h0Z"/></g><g><g><path class="cls-27" d="M32.6,175.34h0c-.2,0-.39-.1-.39-.29l-.59-2.94c0-.2,.1-.39,.29-.39h0c.2,0,.39,.1,.39,.29l.59,2.94c0,.2-.1,.39-.29,.39Z"/><path class="cls-27" d="M28.1,153.69h0c-.49,.1-1.08-.2-1.18-.78l-.78-3.53c-.1-.59,.2-1.08,.78-1.18h0c.49-.1,1.08,.2,1.18,.78l.78,3.53c.1,.59-.29,1.08-.78,1.18Z"/><path class="cls-27" d="M32.31,173.68h0c-.49,.1-1.08-.2-1.18-.78l-.78-3.53c-.1-.59,.2-1.08,.78-1.18h0c.49-.1,1.08,.2,1.18,.78l.78,3.53c.1,.49-.29,1.08-.78,1.18Z"/><path class="cls-38" d="M28.59,150.75l-2.16,.49c-.59,.1-.88,.69-.78,1.18l1.86,9.02,2.35,8.92c.1,.49,.69,.88,1.18,.78l1.27-.29c.49-.1,.88-.59,.78-1.18l-1.47-9.11-1.86-9.02c0-.59-.59-.88-1.18-.78h0Z"/><path class="cls-27" d="M31.43,161.14l-3.43,.69c-.29,.1-.69-.1-.69-.49h0c-.1-.29,.1-.59,.49-.69l3.43-.69c.29-.1,.69,.1,.69,.49h0c.1,.29-.1,.59-.49,.69Z"/><path class="cls-27" d="M33,159.67h0c-.29,.1-.49-.1-.59-.39l-1.76-8.43c0-.29,.1-.49,.39-.59h0c.29-.1,.49,.1,.59,.39l1.76,8.43c0,.29-.1,.49-.39,.59Z"/><rect class="cls-38" x="30.05" y="151.33" width=".98" height="2.55" transform="translate(-30.52 9.45) rotate(-11.78)"/></g><g><rect class="cls-22" x="24.3" y="153.68" width="21.56" height="4.51" transform="translate(-122.45 182.97) rotate(-87.06)"/><rect class="cls-17" x="24.29" y="154.73" width="21.56" height="2.45" transform="translate(-122.48 182.99) rotate(-87.06)"/><polygon class="cls-37" points="34.17 173.87 36.82 166.82 32.21 166.62 34.17 173.87"/><polygon class="cls-21" points="35.54 170.25 36.82 166.82 32.21 166.62 33.09 170.15 35.54 170.25"/><rect class="cls-37" x="34.51" y="141.86" width="2.25" height="4.51" transform="translate(-110.11 172.31) rotate(-87.06)"/><path class="cls-31" d="M35.84,140.85h0c1.27,.1,2.25,1.08,2.16,2.35l-4.51-.2c.1-1.27,1.18-2.25,2.35-2.16h0Z"/></g><g><rect class="cls-22" x="29.22" y="159.36" width="21.56" height="4.51" transform="translate(-123.5 130.19) rotate(-65.22)"/><rect class="cls-17" x="29.18" y="160.32" width="21.56" height="2.45" transform="translate(-123.46 130.11) rotate(-65.22)"/><polygon class="cls-37" points="47.5 145.26 42.4 150.85 46.52 152.81 47.5 145.26"/><polygon class="cls-21" points="44.85 148.2 42.4 150.85 46.52 152.81 47.01 149.18 44.85 148.2"/><rect class="cls-47" x="33.84" y="170.07" width="2.25" height="4.51" transform="translate(-136.14 131.85) rotate(-65.22)"/><path class="cls-33" d="M34.47,175.74l-1.76-.78c-.69-.29-.98-1.08-.69-1.76l.39-.88,4.12,1.86-.39,.88c-.2,.69-1.08,.98-1.67,.69h0Z"/></g><g><rect class="cls-34" x="27.61" y="165.25" width="13.72" height="21.95"/><rect class="cls-7" x="27.61" y="165.25" width="6.86" height="21.95"/></g></g><g><g><path class="cls-39" d="M240.34,76.38c-1.76,0-3.53-.2-4.7-1.96-2.45-3.43-6.08-6.57-10.19-3.04-2.35,2.06-.59,6.17-2.65,8.13-1.76,1.76-4.12,1.47-5,4.41-1.37,4.31,2.94,8.04,4.31,11.76,1.18,3.14-1.47,4.31-2.65,6.76-.88,1.86-.39,3.92,.59,5.68,1.76,3.14,5.59,5.68,4.7,9.8-.78,3.43-1.47,6.47,1.57,9.02,2.06,1.76,5.88,3.43,5.59,6.66-.1,1.18-.88,2.16-1.18,3.33-.39,1.86,.88,3.63,2.16,4.8,3.14,2.84,5.88,5.49,8.13,9.11,.98,1.57,5,5,3.43,7.06,2.94-3.82,5.98-7.45,8.62-11.46,2.16-3.23,5.39-8.04,3.23-12.15-.69-1.27-1.96-2.16-2.35-3.53-.59-2.55,1.86-4.8,2.74-6.96,1.47-3.33,.39-7.25-2.16-9.8-1.18-1.18-2.45-2.55-2.65-4.21-.2-1.86,.98-3.53,1.47-5.29,.49-1.57,.78-3.23,.98-4.8,.1-1.18,.2-2.35-.1-3.43-.49-2.16-2.45-3.33-3.82-4.8-3.43-3.63-1.57-7.84-3.04-11.95-1.37-3.63-4.31-3.04-7.06-3.14h0Z"/><g class="cls-48"><g><path class="cls-3" d="M244.85,162.31c1.27-14.4,.1-28.81-2.55-43.02-2.55-13.52-5.88-27.05-10.88-39.88-1.67-4.21-3.53-8.43-5.68-12.44"/><path class="cls-3" d="M214.37,86.37c7.06,2.55,13.82,5.88,19.99,10.19,1.57,1.08,2.45,1.37,3.72,2.74"/><path class="cls-3" d="M241.52,114.69c-6.76-4.41-14.5-7.35-22.44-8.72"/><path class="cls-3" d="M244.26,133.21c-6.37-5.49-14.01-9.31-22.15-11.17"/><path class="cls-3" d="M237.79,98.81c.49-7.64,2.35-15.09,5.59-22.05"/><path class="cls-3" d="M241.42,114c3.23-6.86,7.84-13.03,13.52-18.13"/><path class="cls-3" d="M244.65,133.7c.49-2.16,1.18-4.21,2.35-6.08,1.27-2.16,2.94-4.12,4.51-5.98,1.18-1.37,2.45-2.74,3.63-4.02"/></g></g></g><g><path class="cls-41" d="M262.29,102.64c1.27,.2,2.55,.29,3.72-.78,2.25-2.16,5.29-3.92,7.84-.78,1.47,1.76-.39,4.51,.78,6.27,1.08,1.57,2.74,1.67,3.04,3.92,.39,3.33-3.23,5.49-4.8,7.94-1.27,2.06,.49,3.33,.98,5.29,.39,1.47-.2,2.84-1.18,4.02-1.67,2.06-4.8,3.33-4.7,6.47,.1,2.55,.1,4.9-2.45,6.37-1.76,.98-4.8,1.67-5,4.12-.1,.88,.39,1.67,.39,2.55,0,1.37-1.08,2.45-2.25,3.23-2.65,1.67-5,3.14-7.15,5.49-.98,.98-4.31,2.94-3.43,4.7-1.57-3.14-3.33-6.27-4.61-9.5-1.08-2.65-2.84-6.57-.69-9.21,.69-.78,1.76-1.27,2.16-2.25,.78-1.76-.69-3.72-.98-5.49-.59-2.65,.69-5.29,2.94-6.76,1.08-.69,2.16-1.47,2.55-2.65,.39-1.27-.2-2.74-.39-4.02-.1-1.18-.1-2.45,0-3.63,.1-.88,.2-1.67,.59-2.45,.69-1.47,2.25-2.06,3.43-2.94,2.94-2.16,2.25-5.49,3.92-8.23,1.27-2.84,3.23-2.06,5.29-1.67h0Z"/><g class="cls-49"><g><path class="cls-2" d="M247.1,164.27c1.08-10.58,3.92-20.97,7.84-30.87,3.72-9.41,8.04-18.81,13.42-27.44,1.76-2.84,3.72-5.59,5.78-8.23"/><path class="cls-2" d="M279.73,113.42c-5.49,.88-10.88,2.35-15.87,4.61-1.27,.59-1.96,.69-3.14,1.47"/><path class="cls-2" d="M256.12,130.17c5.49-2.25,11.56-3.33,17.54-3.14"/><path class="cls-2" d="M251.61,143.3c5.39-3.14,11.46-4.8,17.64-5"/><path class="cls-2" d="M261.02,119.2c.69-5.59,.39-11.27-.98-16.76"/><path class="cls-2" d="M256.21,129.78c-1.37-5.39-3.92-10.58-7.35-14.99"/><path class="cls-2" d="M251.22,143.6c0-1.57-.29-3.23-.88-4.7-.59-1.76-1.47-3.43-2.45-5-.69-1.18-1.37-2.35-2.06-3.43"/></g></g></g><polygon class="cls-11" points="234.46 160.65 261.02 160.65 256.31 187.2 239.16 187.2 234.46 160.65"/><rect class="cls-22" x="231.23" y="153.2" width="33.02" height="7.45"/><polygon class="cls-8" points="260.43 164.17 235.15 164.17 234.46 160.65 261.02 160.65 260.43 164.17"/></g><g><g><path class="cls-28" d="M235.34,187.1h-41.35c-3.43,0-6.27-2.16-6.27-4.8v-1.27c0-2.65,2.74-4.8,6.27-4.8h41.25v1.47h-38.31c-1.27,0-2.35,.88-2.35,1.86v4.21c0,1.08,1.08,1.86,2.35,1.86h38.41v1.47h0Z"/><path class="cls-46" d="M240.05,187.1h-41.25c-3.43,0-6.27-2.16-6.27-4.8v-1.27c0-2.65,2.74-4.8,6.27-4.8h41.25v1.47h-41.25c-2.35,0-4.31,1.47-4.31,3.33v1.27c0,1.86,1.96,3.33,4.31,3.33h41.25v1.47Z"/><path class="cls-15" d="M238.97,185.63h-40.67c-2.16,0-4.02-1.76-4.02-4.02h0c0-2.16,1.76-4.02,4.02-4.02h40.67v8.04h0Z"/><path class="cls-32" d="M196.64,181.13c3.04-.1,6.17-.1,9.31-.2s6.17-.1,9.31-.1,6.17,0,9.31,.1c3.04,0,6.17,.1,9.31,.2-3.04,.1-6.17,.1-9.31,.2s-6.17,.1-9.31,.1-6.17,0-9.31-.1c-3.14-.1-6.27-.1-9.31-.2h0Z"/><path class="cls-32" d="M201.54,183.58c3.04-.1,6.17-.1,9.31-.2s6.17-.1,9.31-.1,6.17,0,9.31,.1c3.04,0,6.17,.1,9.31,.2-3.04,.1-6.17,.1-9.31,.2s-6.17,.1-9.31,.1-6.17,0-9.31-.1c-3.04,0-6.17-.1-9.31-.2Z"/><g class="cls-6"><path class="cls-35" d="M194.78,179.95c1.08-1.86,2.55-2.16,3.63-2.16h40.67v2.55"/></g></g><g><path class="cls-42" d="M238.09,176.23h-43.21c-2.35,0-4.31-1.96-4.31-4.31v-5.39c0-2.35,1.96-4.31,4.31-4.31h43.21v1.86h-43.21c-1.27,0-2.35,1.08-2.35,2.35v5.39c0,1.27,1.08,2.35,2.35,2.35h43.21v2.06Z"/><path class="cls-15" d="M236.91,174.27h-42.23c-1.27,0-2.35-1.08-2.35-2.35v-5.39c0-1.27,1.08-2.35,2.35-2.35h42.23v10.09h0Z"/><g class="cls-6"><path class="cls-35" d="M192.33,166.53c0-1.27,1.08-2.35,2.35-2.35h42.23v2.55"/></g><path class="cls-32" d="M198.21,168.49c3.04-.1,6.17-.2,9.31-.2s6.17-.1,9.31-.1,6.17,0,9.31,.1c3.04,0,6.17,.1,9.31,.2-3.04,.1-6.17,.2-9.31,.2s-6.17,.1-9.31,.1-6.17,0-9.31-.1c-3.14,0-6.17,0-9.31-.2h0Z"/><path class="cls-32" d="M194.87,170.74c3.04-.1,6.17-.2,9.31-.2s6.17-.1,9.31-.1,6.17,0,9.31,.1c3.04,0,6.17,.1,9.31,.2-3.04,.1-6.17,.2-9.31,.2s-6.17,.1-9.31,.1-6.17,0-9.31-.1c-3.14,0-6.27-.1-9.31-.2h0Z"/></g><g><path class="cls-25" d="M197.32,155.06h41.25c3.43,0,6.27-2.16,6.27-4.8v-1.27c0-2.65-2.74-4.8-6.27-4.8h-41.25v1.47h38.41c1.27,0,2.35,.88,2.35,1.86v4.21c0,1.08-1.08,1.86-2.35,1.86h-38.41v1.47h0Z"/><path class="cls-44" d="M192.62,155.06h41.35c3.43,0,6.27-2.16,6.27-4.8v-1.27c0-2.65-2.74-4.8-6.27-4.8h-41.25v1.47h41.25c2.35,0,4.31,1.47,4.31,3.33v1.27c0,1.86-1.96,3.33-4.31,3.33h-41.25l-.1,1.47h0Z"/><path class="cls-15" d="M193.7,153.49h40.67c2.16,0,3.92-1.76,3.92-4.02h0c0-2.16-1.76-4.02-3.92-4.02h-40.67v8.04h0Z"/><path class="cls-32" d="M236.03,148.99c-3.04-.1-6.17-.1-9.31-.2s-6.17-.1-9.31-.1-6.17,0-9.31,.1c-3.04,0-6.17,.1-9.31,.2,3.04,.1,6.17,.1,9.31,.2s6.17,.1,9.31,.1,6.17,0,9.31-.1c3.14,0,6.27-.1,9.31-.2Z"/><path class="cls-32" d="M231.13,151.44c-3.04-.1-6.17-.1-9.31-.2s-6.17-.1-9.31-.1-6.17,0-9.31,.1c-3.04,0-6.17,.1-9.31,.2,3.04,.1,6.17,.1,9.31,.2s6.17,.1,9.31,.1,6.17,0,9.31-.1c3.04,0,6.17-.1,9.31-.2Z"/><g class="cls-6"><path class="cls-35" d="M237.89,147.81c-1.08-1.86-2.55-2.16-3.63-2.16h-40.76v2.55"/></g></g><g><rect class="cls-45" x="189.09" y="155.06" width="52.33" height="7.35"/><rect class="cls-10" x="193.8" y="156.14" width="1.96" height="5.1"/><rect class="cls-10" x="203.59" y="156.14" width="1.96" height="5.1"/><rect class="cls-10" x="196.93" y="155.06" width="5.59" height="7.35"/></g><g><rect class="cls-25" x="184.29" y="125.37" width="52.33" height="7.35"/><rect class="cls-44" x="229.86" y="125.37" width="1.96" height="7.35"/><rect class="cls-44" x="225.64" y="125.37" width="3.04" height="7.35"/></g><g><rect class="cls-18" x="189.48" y="132.72" width="52.33" height="11.46"/><rect class="cls-14" x="194.19" y="134.48" width="1.96" height="7.64"/><rect class="cls-14" x="236.42" y="134.48" width="1.96" height="7.64"/><rect class="cls-14" x="232.8" y="134.48" width="1.96" height="7.64"/><circle class="cls-14" cx="201.83" cy="138.3" r="3.82"/></g><rect class="cls-27" x="225.15" y="148.99" width="2.65" height="7.94"/></g></g><g><path class="cls-24" d="M253.86,65.79c-.2-.2-.29-.39-.29-.69v-1.27c0-.59,.49-1.08,.98-1.08s.98,.49,.98,1.08v1.27c0,.59-.49,1.08-.98,1.08-.29-.1-.49-.2-.69-.39"/><path class="cls-24" d="M253.86,59.03c-.2-.2-.29-.39-.29-.69v-1.27c0-.59,.49-1.08,.98-1.08s.98,.49,.98,1.08v1.27c0,.59-.49,1.08-.98,1.08-.29-.1-.49-.2-.69-.39"/><path class="cls-24" d="M249.85,61.77c-.2-.2-.29-.39-.29-.69,0-.59,.49-1.08,.98-1.08h1.27c.59,0,.98,.49,.98,1.08s-.49,1.08-.98,1.08h-1.27c-.29-.1-.49-.2-.69-.39"/><path class="cls-24" d="M256.61,61.77c-.2-.2-.29-.39-.29-.69,0-.59,.49-1.08,.98-1.08h1.27c.59,0,.98,.49,.98,1.08s-.49,1.08-.98,1.08h-1.27c-.2-.1-.49-.2-.69-.39"/></g><g><path class="cls-40" d="M43.58,42.18c-.2,0-.49-.1-.69-.29l-.78-.78c-.39-.39-.39-.98,0-1.27,.39-.39,.98-.39,1.27,0l.78,.78c.39,.39,.39,.98,0,1.27-.1,.2-.39,.29-.59,.29"/><path class="cls-40" d="M39.27,37.87c-.2,0-.49-.1-.69-.29l-.78-.78c-.39-.39-.39-.98,0-1.27,.39-.39,.98-.39,1.27,0l.78,.78c.39,.39,.39,.98,0,1.27-.1,.2-.29,.29-.59,.29"/><path class="cls-40" d="M38.48,42.18c-.2,0-.49-.1-.69-.29-.39-.39-.39-.98,0-1.27l.78-.78c.39-.39,.98-.39,1.27,0,.39,.39,.39,.98,0,1.27l-.69,.88c-.2,.1-.49,.2-.69,.2"/><path class="cls-40" d="M42.79,37.87c-.2,0-.49-.1-.69-.29-.39-.39-.39-.98,0-1.27l.78-.78c.39-.39,.98-.39,1.27,0,.39,.39,.39,.98,0,1.27l-.78,.78c-.1,.2-.39,.29-.59,.29"/></g><g><path class="cls-43" d="M277.09,82.06c-.2,0-.39-.1-.59-.2l-.69-.69c-.29-.29-.29-.78,0-1.08s.78-.29,1.08,0l.69,.69c.29,.29,.29,.78,0,1.08-.1,.2-.29,.2-.49,.2"/><path class="cls-43" d="M273.36,78.43c-.2,0-.39-.1-.59-.2l-.69-.69c-.29-.29-.29-.78,0-1.08s.78-.29,1.08,0l.69,.69c.29,.29,.29,.78,0,1.08-.1,.1-.29,.2-.49,.2"/><path class="cls-43" d="M272.68,82.06c-.2,0-.39-.1-.59-.2-.29-.29-.29-.78,0-1.08l.69-.69c.29-.29,.78-.29,1.08,0s.29,.78,0,1.08l-.69,.69c-.1,.2-.29,.2-.49,.2"/><path class="cls-43" d="M276.4,78.43c-.2,0-.39-.1-.59-.2-.29-.29-.29-.78,0-1.08l.69-.69c.29-.29,.78-.29,1.08,0s.29,.78,0,1.08l-.69,.69c-.1,.1-.29,.2-.49,.2"/></g></g></g></g></g></svg>