<?xml version="1.0" encoding="UTF-8"?><svg id="Layer_2" xmlns="http://www.w3.org/2000/svg" xmlns:xlink="http://www.w3.org/1999/xlink" viewBox="0 0 275.46 197"><defs><style>.cls-1{fill:none;}.cls-2{clip-path:url(#clippath);}.cls-3{fill:#f4d8a2;}.cls-4{fill:#fb8b00;}.cls-5{fill:#69a038;}.cls-6{fill:#004078;}.cls-7{fill:#0086d0;}.cls-8{fill:#efa54d;}.cls-9{fill:#eaa759;}.cls-10{fill:#e7e4d8;}.cls-11{fill:#e7ece7;}.cls-12{fill:#fff;}.cls-13{fill:#f1f1f1;}.cls-14{fill:#ececec;}.cls-15{fill:#ffd040;}.cls-16{fill:#ffbe0f;}.cls-17{fill:#fbf4ea;}.cls-18{fill:#e78b2e;}.cls-19{fill:#fba000;}.cls-20{fill:#e4e7e7;}.cls-21{fill:#7dbe47;}.cls-22{fill:#73a742;}.cls-23{fill:#6baa36;}.cls-24{fill:#a05c1f;}.cls-25{fill:#b9780d;}.cls-26{fill:#c373be;}.cls-27{fill:#c1c3c1;}.cls-28{fill:#ce954f;}.cls-29{fill:#b1afa5;}.cls-30{fill:#aa63a7;}.cls-31{fill:#aaafaa;}.cls-32{fill:#cbd0cb;}.cls-33{fill:#d09045;}.cls-34{fill:#dddfda;}.cls-35{fill:#cbcbbe;}.cls-36{fill:#cbc6bc;}.cls-37{fill:#d3860f;}.cls-38{fill:#cce0f2;}.cls-39{fill:#c3c6c1;}.cls-40{fill:#da7d00;}.cls-41{fill:#afb1af;}.cls-42{fill:#c6c8c6;}.cls-43{fill:#c5de8c;}.cls-44{fill:#c8cbc6;}.cls-45{fill:#dfdfdf;}.cls-46{fill:#122e52;}.cls-47{fill:#174f7d;}.cls-48{fill:#215e73;}.cls-49{fill:#083663;}.cls-50{fill:#055993;}.cls-51{fill:#0a3d73;}.cls-52{fill:#194276;}.cls-53{fill:#95368e;}.cls-54{fill:#6ea740;}.cls-55{fill:#a2dfef;}.cls-56{fill:#6bcbe4;}.cls-57{fill:#63933b;}.cls-58{fill:#2b384f;}.cls-59{fill:#2e4d73;}.cls-60{fill:#347893;}.cls-61{fill:#598e2b;}.cls-62{fill:#5c952e;}.cls-63{fill:#4f9db7;}.cls-64{fill:#4f6e3d;}.cls-65{clip-path:url(#clippath-1);}.cls-66{clip-path:url(#clippath-4);}.cls-67{clip-path:url(#clippath-3);}.cls-68{clip-path:url(#clippath-2);}.cls-69{clip-path:url(#clippath-7);}.cls-70{clip-path:url(#clippath-8);}.cls-71{clip-path:url(#clippath-6);}.cls-72{clip-path:url(#clippath-5);}.cls-73{clip-path:url(#clippath-9);}.cls-74{clip-path:url(#clippath-14);}.cls-75{clip-path:url(#clippath-13);}.cls-76{clip-path:url(#clippath-12);}.cls-77{clip-path:url(#clippath-10);}.cls-78{clip-path:url(#clippath-15);}.cls-79{clip-path:url(#clippath-17);}.cls-80{clip-path:url(#clippath-16);}.cls-81{clip-path:url(#clippath-11);}</style><clipPath id="clippath"><rect class="cls-1" width="273.35" height="197"/></clipPath><clipPath id="clippath-1"><rect class="cls-1" width="273.35" height="197"/></clipPath><clipPath id="clippath-2"><rect class="cls-1" width="273.35" height="197"/></clipPath><clipPath id="clippath-3"><rect class="cls-1" width="273.35" height="197"/></clipPath><clipPath id="clippath-4"><rect class="cls-1" width="273.35" height="197"/></clipPath><clipPath id="clippath-5"><rect class="cls-1" width="273.35" height="197"/></clipPath><clipPath id="clippath-6"><rect class="cls-1" width="273.35" height="197"/></clipPath><clipPath id="clippath-7"><rect class="cls-1" width="273.35" height="197"/></clipPath><clipPath id="clippath-8"><rect class="cls-1" width="273.35" height="197"/></clipPath><clipPath id="clippath-9"><rect class="cls-1" width="273.35" height="197"/></clipPath><clipPath id="clippath-10"><rect class="cls-1" width="273.35" height="197"/></clipPath><clipPath id="clippath-11"><rect class="cls-1" width="273.35" height="197"/></clipPath><clipPath id="clippath-12"><rect class="cls-1" width="273.35" height="197"/></clipPath><clipPath id="clippath-13"><rect class="cls-1" width="273.35" height="197"/></clipPath><clipPath id="clippath-14"><rect class="cls-1" width="273.35" height="197"/></clipPath><clipPath id="clippath-15"><rect class="cls-1" width="273.35" height="197"/></clipPath><clipPath id="clippath-16"><rect class="cls-1" width="273.35" height="197"/></clipPath><clipPath id="clippath-17"><rect class="cls-1" width="273.35" height="197"/></clipPath></defs><g id="Layer_2-2"><g id="Layer_1-2"><g><path class="cls-38" d="M20.98,191.21c-18.85-18.23-16.11-45.35-9.14-54.44,6.77-8.81,14.81-9.47,20.44-19.88,7.66-14.18-3.47-22.14-.86-40.12,2.24-15.41,14.16-35.36,33.21-41.17,22.74-6.93,36.79,12.07,58.75,5.23,21.37-6.65,16.14-27.85,40.44-36.97,15.08-5.66,36.28-4.78,48.15,3.93,11.68,8.56,4.19,18.3,17.56,34.54,11.35,13.78,19.72,10.65,25.72,21.18,9.89,17.36-11.18,28.87-4.11,50.9,5.45,16.98,20.45,17.91,23.75,32.56,2.48,11.05-2.68,25.45-25.12,44.24H20.98Z"/><g class="cls-2"><g><g class="cls-65"><g><path class="cls-43" d="M210.67,95.13c.11,.11,.24,.19,.39,.25,.63,.25,1.33-.06,1.58-.68l5.81-14.61c.25-.63-.05-1.33-.68-1.58-.63-.25-1.33,.06-1.58,.68l-5.81,14.61c-.19,.48-.06,1,.29,1.33"/><path class="cls-43" d="M219.4,88.21c-.23,.1-.41,.29-.51,.52-.09,.23-.09,.49,0,.73s.29,.41,.52,.51c.23,.09,.49,.09,.73,0,.23-.1,.41-.29,.51-.52,.09-.23,.09-.49,0-.73-.05-.12-.13-.23-.21-.31-.26-.26-.67-.34-1.03-.19m-2.73,2.21c-.36-.83-.37-1.75-.04-2.59s.98-1.5,1.8-1.85c1.71-.74,3.71,.06,4.44,1.76,.36,.83,.37,1.75,.04,2.59s-.98,1.5-1.8,1.85c-.83,.36-1.75,.37-2.59,.04-.41-.17-.78-.4-1.09-.7-.33-.31-.58-.68-.76-1.11"/><path class="cls-43" d="M209.41,83.93c-.23-.09-.49-.09-.73,0-.48,.2-.7,.76-.49,1.25,.2,.48,.76,.7,1.25,.49,.48-.2,.7-.76,.5-1.25-.05-.12-.12-.22-.21-.31-.09-.08-.19-.15-.3-.2m-3.46,2.22c-.74-1.71,.05-3.71,1.77-4.44,.83-.36,1.75-.37,2.59-.04,.84,.33,1.5,.98,1.85,1.8,.73,1.71-.05,3.71-1.77,4.44-1.29,.55-2.73,.24-3.68-.67-.32-.3-.58-.67-.76-1.1"/><path class="cls-13" d="M266.35,111.96c-.34,0-.69-.13-.95-.39l-1.17-1.17c-.52-.52-.52-1.38,0-1.9,.52-.52,1.38-.52,1.9,0l1.17,1.17c.52,.52,.52,1.38,0,1.9-.26,.26-.61,.39-.95,.39"/><path class="cls-13" d="M260.07,105.69c-.34,0-.69-.13-.95-.39l-1.17-1.17c-.52-.52-.52-1.38,0-1.9,.52-.52,1.38-.52,1.9,0l1.17,1.17c.52,.52,.52,1.38,0,1.9-.26,.26-.61,.39-.95,.39"/><path class="cls-13" d="M258.91,111.96c-.34,0-.69-.13-.95-.39-.52-.52-.52-1.38,0-1.9l1.17-1.17c.52-.52,1.38-.52,1.9,0s.52,1.38,0,1.9l-1.17,1.17c-.26,.26-.61,.39-.95,.39"/><path class="cls-13" d="M265.18,105.69c-.34,0-.69-.13-.95-.39-.52-.52-.52-1.38,0-1.9l1.17-1.17c.52-.52,1.38-.52,1.9,0s.52,1.38,0,1.9l-1.17,1.17c-.26,.26-.61,.39-.95,.39"/><path class="cls-13" d="M32.09,44.55c-.39,0-.76-.14-1.06-.44l-1.3-1.3c-.58-.58-.58-1.54,0-2.12,.59-.58,1.54-.58,2.12,0l1.3,1.3c.58,.58,.58,1.54,0,2.12-.3,.3-.67,.44-1.06,.44"/><path class="cls-13" d="M25.08,37.54c-.39,0-.76-.14-1.06-.44l-1.3-1.3c-.59-.59-.59-1.54,0-2.12,.58-.58,1.54-.58,2.12,0l1.3,1.3c.58,.59,.58,1.54,0,2.12-.3,.3-.67,.44-1.06,.44"/><path class="cls-13" d="M23.77,44.55c-.39,0-.76-.14-1.06-.44-.58-.58-.58-1.54,0-2.12l1.3-1.3c.58-.58,1.54-.58,2.12,0,.59,.58,.59,1.54,0,2.12l-1.3,1.3c-.3,.3-.67,.44-1.06,.44"/><path class="cls-13" d="M30.78,37.54c-.39,0-.76-.14-1.06-.44-.58-.58-.58-1.54,0-2.12l1.3-1.3c.58-.58,1.54-.58,2.12,0s.58,1.54,0,2.12l-1.3,1.3c-.3,.3-.67,.44-1.06,.44"/><path class="cls-56" d="M8.67,31.62c-.37-.37-.61-.89-.61-1.45v-2.52c0-1.14,.92-2.06,2.06-2.06s2.06,.92,2.06,2.06v2.52c0,1.14-.92,2.06-2.06,2.06-.57,0-1.08-.23-1.45-.61"/><path class="cls-56" d="M8.67,18.01c-.37-.37-.61-.89-.61-1.45v-2.52c0-1.14,.92-2.06,2.06-2.06s2.06,.92,2.06,2.06v2.52c0,1.14-.92,2.06-2.06,2.06-.57,0-1.08-.23-1.45-.61"/><path class="cls-56" d="M.61,23.56c-.37-.37-.61-.89-.61-1.45,0-1.14,.92-2.06,2.06-2.06h2.52c1.14,0,2.06,.92,2.06,2.06s-.92,2.06-2.06,2.06H2.06c-.57,0-1.08-.23-1.45-.61"/><path class="cls-56" d="M14.21,23.56c-.37-.37-.61-.89-.61-1.45,0-1.14,.92-2.06,2.06-2.06h2.52c1.14,0,2.06,.92,2.06,2.06s-.92,2.06-2.06,2.06h-2.52c-.57,0-1.08-.23-1.45-.61"/></g></g><polygon class="cls-7" points="226.26 186.82 227.59 186.83 229.49 186.8 226.26 186.82"/><polygon class="cls-58" points="196.49 186.83 196.49 186.87 200.27 186.84 200.26 186.8 196.49 186.83"/><g class="cls-68"><path class="cls-60" d="M194.67,18.42c0,.91,.73,1.64,1.62,1.64s1.62-.73,1.62-1.64-.73-1.64-1.62-1.64-1.62,.73-1.62,1.64"/></g><rect class="cls-8" x="74.65" y="183.89" width="65.18" height="3"/><g class="cls-67"><g><path class="cls-15" d="M56.19,90.25c2.11-1.57,5.09-1.14,6.68,.96,1.57,2.11,1.14,5.09-.96,6.67-2.11,1.57-5.09,1.14-6.68-.96-1.57-2.1-1.14-5.09,.96-6.67M.81,114.1l11.26,15.07,11.26,15.07c1.35,1.8,3.89,2.16,5.69,.83l39.56-29.56c.94-.7,1.53-1.77,1.62-2.94l1.92-24.92c.16-2.03-1.21-3.86-3.21-4.29l-24.46-5.22c-1.15-.24-2.35,.02-3.28,.72L1.63,108.42c-1.8,1.35-2.16,3.89-.83,5.69"/><path class="cls-19" d="M55.02,88.69c-2.97,2.22-3.58,6.44-1.36,9.41,.53,.71,1.19,1.3,1.95,1.75,2.35,1.4,5.28,1.24,7.46-.39,1.44-1.07,2.37-2.64,2.63-4.42s-.2-3.55-1.27-4.99c-.53-.71-1.19-1.3-1.95-1.75-2.35-1.39-5.28-1.24-7.46,.39m-29.5,54.94c-.23-.14-.44-.33-.61-.55L2.36,112.93c-.34-.45-.48-1.01-.4-1.57,.08-.56,.37-1.05,.83-1.39l39.56-29.56c.48-.36,1.11-.5,1.7-.37l24.46,5.22c.23,.05,.44,.14,.64,.25,.7,.42,1.09,1.17,1.03,1.98l-1.92,24.92c-.05,.61-.36,1.17-.84,1.53l-39.56,29.57c-.69,.51-1.61,.56-2.35,.12"/><path class="cls-16" d="M43.37,82.99l-7.92,51.68c-.08,.52-.36,1-.79,1.31l-7.97,5.96c-.05,.04-.12,.05-.17,0l-.05-.04L3.94,111.76s-.04-.08-.03-.11c0-.05,.02-.08,.06-.11l38.74-28.95c.3-.23,.72,.03,.67,.4"/><path class="cls-4" d="M71.35,97.69l.23-3c6.37,.4,11.81-.55,13.54-2.36,.41-.42,.57-.86,.51-1.4-.05-.39-.19-.89-1.03-1.35-4.03-2.13-16.25,.58-23.06,4.2-.48,.26-1.04,.23-1.48-.04-.23-.14-.42-.33-.56-.58-.39-.73-.11-1.64,.62-2.03,6.87-3.66,20.37-7.12,25.87-4.21,1.54,.83,2.44,2.09,2.61,3.68,.15,1.42-.31,2.73-1.32,3.8-3.59,3.75-13.09,3.46-15.93,3.28h-.02"/><path class="cls-40" d="M29.63,131.26c.26,.16,.56,.26,.88,.32,1.33,.2,2.58-.71,2.79-2.04l4.76-31.18c.2-1.33-.71-2.58-2.04-2.79-1.33-.2-2.58,.71-2.79,2.04l-4.76,31.18c-.15,1.01,.33,1.98,1.17,2.47"/><path class="cls-40" d="M43.58,113.79c-.41,.3-.67,.74-.76,1.25-.08,.5,.05,1.01,.35,1.42,.3,.41,.74,.67,1.24,.76,.5,.08,1.01-.05,1.42-.35,.41-.3,.68-.74,.76-1.25,.08-.5-.05-1.01-.35-1.42-.15-.21-.35-.38-.56-.51-.64-.38-1.47-.36-2.1,.1m-4.34,5.56c-1.07-1.46-1.51-3.25-1.24-5.05s1.23-3.37,2.69-4.44c3.02-2.22,7.27-1.57,9.49,1.45,1.07,1.46,1.51,3.25,1.24,5.05s-1.23,3.37-2.69,4.44-3.25,1.51-5.04,1.24c-.88-.14-1.71-.43-2.45-.88-.77-.46-1.45-1.07-1.99-1.82"/><path class="cls-40" d="M22.11,109.94c-.5-.08-1.01,.05-1.42,.35-.85,.62-1.03,1.82-.41,2.66,.62,.85,1.82,1.03,2.66,.41,.85-.62,1.03-1.82,.41-2.66-.15-.21-.34-.38-.56-.51-.21-.12-.44-.21-.69-.25m-5.76,5.9c-2.22-3.01-1.57-7.27,1.45-9.49,1.46-1.07,3.25-1.51,5.04-1.24,1.79,.27,3.38,1.23,4.44,2.69,2.22,3.01,1.57,7.27-1.45,9.49-2.26,1.67-5.22,1.71-7.5,.36-.76-.45-1.44-1.05-1.99-1.81"/><path class="cls-12" d="M30.13,130.41c.26,.16,.56,.26,.88,.32,1.33,.2,2.58-.71,2.79-2.04l4.76-31.18c.2-1.33-.71-2.58-2.04-2.79-1.33-.2-2.58,.71-2.79,2.04l-4.76,31.18c-.15,1.01,.33,1.98,1.17,2.47"/><path class="cls-12" d="M44.07,112.95c-.41,.3-.67,.74-.76,1.25-.08,.5,.05,1.01,.35,1.42,.3,.41,.74,.67,1.25,.76,.5,.08,1.01-.05,1.42-.35,.41-.3,.67-.74,.76-1.25,.08-.5-.05-1.01-.35-1.42-.15-.21-.35-.38-.56-.51-.64-.38-1.47-.36-2.1,.1m-4.34,5.56c-1.07-1.46-1.51-3.25-1.24-5.05s1.23-3.37,2.69-4.44c3.02-2.22,7.27-1.57,9.49,1.45,1.07,1.46,1.51,3.25,1.24,5.05s-1.23,3.37-2.69,4.44-3.25,1.51-5.04,1.24c-.88-.14-1.71-.43-2.45-.88-.77-.46-1.45-1.07-1.99-1.82"/><path class="cls-12" d="M22.61,109.1c-.5-.08-1.01,.05-1.42,.35-.85,.62-1.03,1.82-.41,2.66,.62,.85,1.82,1.03,2.66,.41s1.03-1.82,.41-2.66c-.15-.21-.34-.38-.56-.51-.2-.12-.44-.21-.69-.25m-5.76,5.9c-2.22-3.01-1.57-7.27,1.45-9.49,1.46-1.07,3.25-1.51,5.05-1.24s3.37,1.23,4.44,2.69c2.22,3.01,1.57,7.27-1.45,9.49-2.26,1.67-5.22,1.71-7.5,.36-.76-.45-1.44-1.05-1.99-1.81"/></g></g><polygon class="cls-55" points="247.24 186.56 227.37 186.86 227.19 121.48 247.05 121.17 247.24 186.56"/><polygon class="cls-55" points="239.41 186.76 211.7 186.9 211.52 121.52 239.23 121.38 239.41 186.76"/><path class="cls-45" d="M230.92,121.41h-1.73v.02h1.73v-.02Zm6.27,65.37l-6.09,.03-1.94,.03,8.04,.07-.02-.13h0Z"/><polygon class="cls-63" points="230.92 121.42 229.2 121.43 229.38 186.7 219.75 186.75 227.8 186.82 231.1 186.8 237.18 186.77 230.92 121.42"/><rect class="cls-63" x="239.24" y="124.84" width="7.83" height="2.29"/><rect class="cls-63" x="239.41" y="180.14" width="7.81" height="2.29"/><g class="cls-66"><path class="cls-63" d="M243.24,178.36h0c-.94,0-1.7-.77-1.7-1.72v-45.83c0-.95,.76-1.72,1.7-1.72s1.7,.77,1.7,1.72v45.83c0,.95-.76,1.72-1.7,1.72"/></g><polygon class="cls-46" points="229.38 186.7 197.47 186.87 197.26 111.57 229.17 111.4 229.38 186.7"/><polygon class="cls-60" points="211.34 186.75 179.42 186.92 179.22 111.62 211.12 111.45 211.34 186.75"/><rect class="cls-51" x="211.22" y="111.46" width="3.68" height="75.3" transform="translate(-.42 .6) rotate(-.16)"/><rect class="cls-14" x="214.91" y="115.22" width="9.38" height="68.13" transform="translate(-.42 .61) rotate(-.16)"/><path class="cls-51" d="M188.86,121.05l.16,57.44,13.9-.11-.16-57.44-13.9,.11Zm-1.95,59.59l-.17-61.72,18.13-.14,.17,61.72-18.13,.14Z"/><g class="cls-72"><g><path class="cls-39" d="M217.89,115.22s.1,38.55,.11,38.03c.14-7.63,.54-30.4,.69-34.2,.02-.4,.1-3.83,.1-3.83h-.89Z"/><path class="cls-39" d="M220.64,115.22s.03,13.81,.04,13.3c.14-7.63,.17-6.73,.29-10.54,.06-1.89,.12-2.76,.12-2.76h-.45Z"/><path class="cls-39" d="M221.8,183.35s-.1-38.55-.11-38.03c-.14,7.63-.36,22.21-.49,26.02-.02,.4-.1,12.01-.1,12.01h.7Z"/><path class="cls-39" d="M219.04,183.35s-.49-22.87-.5-22.36c-.14,7.63-.39,22.36-.39,22.36h.89Z"/></g></g><rect class="cls-51" x="227.43" y="111.41" width="2.63" height="75.3" transform="translate(-.42 .64) rotate(-.16)"/><g class="cls-71"><g><path class="cls-45" d="M188.64,111.57h-7.24v.04l7.24-.04Zm8.82,75.25l-10.79,.05c-.2,0-.4,.02-.6,.02h-2.01l-4.64,.02h21.9v-.07l-3.86,.02v-.05Z"/><path class="cls-48" d="M193.47,111.57h-4.82l-7.24,.04c.42,4.23,1.35,7.15,1.35,7.15h-3.52l.02,6.35h7.5l-.02-6.18,7.49-.06-.76-7.3h0Zm.98,9.44l-5.59,.05v4.06h3.57l-1.07,2.88c-.94,2.91-2.15,7.8-2.15,13.67,0,7.55,3.22,15.4,3.22,15.4h-3.47v3.32c5.95,1.33,10.39,6.69,10.39,13.1,0,1.75-.33,3.41-.93,4.94l2.02-.02-5.99-57.4h0Zm-7.61,36.04h-7.5v3h6.74c.26,0,.51,0,.77,.02v-3.03h0Zm13.81,23.49l-3.32,.02c-2.25,3.64-6.17,6.11-10.67,6.31l10.79-.05,3.85-.02-.65-6.26Zm-16.59,6.35h-4.64v.02l4.64-.02Z"/><path class="cls-49" d="M194.23,118.87l-7.49,.06,.02,6.18h2.11l-.02-4.06,5.6-.05-.22-2.13Zm-5.28,38.18h-2.11v3.03c.73,.05,1.44,.14,2.12,.3v-3.32h0Zm11.47,21.35l-2.02,.02c-.3,.75-.65,1.47-1.07,2.14l3.32-.02-.22-2.13h0Z"/><path class="cls-43" d="M49.55,172.11c-.71-1.28-1.76-2.33-3.04-3.04,1.27-.71,2.32-1.77,3.04-3.04,.71,1.28,1.77,2.33,3.04,3.04-1.27,.71-2.32,1.77-3.04,3.04m7.87-3.11c0-.58-.47-1.06-1.04-1.06-3.17,0-5.75-2.6-5.75-5.81,0-.58-.47-1.06-1.04-1.06h-.07c-.58,0-1.04,.48-1.04,1.06,0,3.2-2.58,5.81-5.75,5.81-.58,0-1.04,.48-1.04,1.06v.14c0,.58,.47,1.06,1.04,1.06,3.17,0,5.75,2.6,5.75,5.81,0,.58,.47,1.06,1.04,1.06h.07c.58,0,1.04-.48,1.04-1.06,0-3.2,2.58-5.81,5.75-5.81,.58,0,1.04-.48,1.04-1.06v-.14Z"/><path class="cls-39" d="M192.44,157.05H123.1v-31.94h69.33s-3.22,6.99-3.22,16.55c0,7.55,3.22,15.4,3.22,15.4"/><path class="cls-18" d="M186.08,160.06h-50.2v26.83h50.2c7.33,0,13.27-6.01,13.27-13.42s-5.94-13.42-13.27-13.42"/><path class="cls-8" d="M125.94,173.51c0-7.4,5.93-13.4,13.26-13.4s13.26,6,13.26,13.4-5.93,13.4-13.26,13.4-13.26-6-13.26-13.4"/><path class="cls-11" d="M77.14,163.11h61.24c5.66,0,10.25,4.64,10.25,10.36s-4.59,10.36-10.25,10.36h-61.24s1.66-5.31,1.66-10.36-1.66-10.36-1.66-10.36"/></g></g><rect class="cls-8" x="73.32" y="160.06" width="66.42" height="3.06"/><rect class="cls-11" x="87.03" y="74.61" width="92.7" height="15.49"/><rect class="cls-56" x="84.14" y="71.6" width="98.47" height="3"/><rect class="cls-56" x="84.14" y="90.09" width="98.47" height="3"/><rect class="cls-60" x="93.61" y="42.74" width="98.47" height="28.82"/><rect class="cls-37" x="108.82" y="42.6" width="5.68" height="28.97"/><rect class="cls-37" x="121.59" y="42.6" width="5.68" height="28.97"/><rect class="cls-53" x="72.44" y="15.24" width="98.47" height="11.48"/><rect class="cls-26" x="81.19" y="15.24" width="3.43" height="11.48"/><rect class="cls-26" x="78.75" y="15.24" width="1.34" height="11.48"/><rect class="cls-26" x="164.94" y="15.24" width="1.34" height="11.48"/><rect class="cls-26" x="160.54" y="15.24" width="3.43" height="11.48"/><g class="cls-69"><g><path class="cls-26" d="M116.19,24.21h-24.32c-1.83,0-3.32-1.5-3.32-3.35s1.48-3.35,3.32-3.35h24.32c1.83,0,3.32,1.5,3.32,3.35s-1.48,3.35-3.32,3.35"/><path class="cls-26" d="M152.06,24.21h-24.32c-1.83,0-3.32-1.5-3.32-3.35s1.48-3.35,3.32-3.35h24.32c1.83,0,3.32,1.5,3.32,3.35s-1.48,3.35-3.32,3.35"/><path class="cls-23" d="M116.58,141.08c0,10.48-8.4,18.98-18.77,18.98s-18.77-8.49-18.77-18.98,8.4-18.98,18.77-18.98,18.77,8.49,18.77,18.98"/><path class="cls-11" d="M113.89,141.08c0,8.82-7.08,15.97-15.8,15.97s-15.8-7.15-15.8-15.97,7.08-15.97,15.8-15.97,15.8,7.15,15.8,15.97"/><path class="cls-11" d="M167.09,157.05H97.75v-31.94h69.33s-3.22,6.99-3.22,16.55c0,7.55,3.22,15.4,3.22,15.4"/></g></g><rect class="cls-23" x="97.76" y="122.11" width="72.22" height="3"/><rect class="cls-23" x="97.76" y="157.05" width="72.22" height="3"/><g class="cls-70"><g><path class="cls-6" d="M192.44,125.11s-.48,1.04-1.07,2.88h0l1.07-2.88Z"/><path class="cls-62" d="M107.95,125.11h-11.34c-5.75,.54-10.61,4.24-12.91,9.36,2.44-5.42,7.8-9.22,14.05-9.35h10.2Z"/><path class="cls-32" d="M97.75,125.12c-6.24,.13-11.6,3.93-14.05,9.35-.91,2.02-1.41,4.26-1.41,6.62,0,8.7,6.89,15.78,15.46,15.96v-.4c-7.01-1.63-12.25-7.98-12.25-15.56,0-6.3,4.82-13.09,11.91-13.09h.33v-2.88h0Z"/><path class="cls-32" d="M167.09,125.11H97.75v2.88h68.26c.59-1.83,1.07-2.88,1.07-2.88m-69.33,31.53v.4h.33c.54,0,1.08-.03,1.6-.08-.66-.07-1.31-.17-1.95-.33"/><path class="cls-31" d="M192.44,125.11h-25.34s-.48,1.04-1.07,2.88h25.34c.59-1.83,1.07-2.88,1.07-2.88"/></g></g><g class="cls-73"><g><path class="cls-60" d="M84.37,93.09v.05c-.38-.03-.76-.05-1.14-.05-4.54,0-6.13,2.14-6.13,5.37,0,1.89-.06,15.47-.06,17.71,0,1.63,.5,5.71,6.19,5.88h32.3v-28.96h-31.16Z"/><path class="cls-48" d="M130.07,107.62c0,7.94-6.06,14.38-13.93,14.38-7.29,0-7.58-4.22-7.58-9.09,0-2.04,.04-12.61,.04-14.37,0-2.21,.98-5.3,7.24-5.3,7.86,0,14.23,6.44,14.23,14.38"/><path class="cls-11" d="M182.76,118.76H116.15c-3.98,0-4.82-2.23-4.82-4.36v-13c0-2.94,.84-5.01,4.82-5.01h66.61s-1.57,5.42-1.57,11.15c0,6.31,1.57,11.22,1.57,11.22"/></g></g><rect class="cls-48" x="115.18" y="93.09" width="71.69" height="3.3"/><rect class="cls-48" x="115.18" y="118.77" width="71.69" height="3.3"/><g class="cls-77"><path class="cls-47" d="M116.15,96.39s-2.94-.23-2.98,3.36c-.04,3.63,0,10.51,0,15.63,0,1.94,1.76,3.19,2.98,3.38-1.56,0-4.77-.3-4.82-3.66-.07-4.56-.07-11.26,0-15.51,.02-1.46,.43-3.69,4.82-3.19"/></g><rect class="cls-32" x="87.03" y="74.61" width="92.7" height="3.39"/><rect class="cls-61" x="169.98" y="122.11" width="29.47" height="3"/><rect class="cls-61" x="169.98" y="157.05" width="29.47" height="3"/><polygon class="cls-34" points="94.76 130.8 163.87 130.8 189.57 130.28 163.9 129.76 94.76 130.8"/><polygon class="cls-34" points="94.76 135.58 163.87 135.58 188.24 135.06 163.9 134.54 94.76 135.58"/><g class="cls-81"><g><path class="cls-34" d="M114.5,115.87s37.07-.23,49.4-.13c10.71,.08,17.04-.49,17.04-.49,0,0-12.78-.08-17.04-.09-12.35-.02-49.4,.71-49.4,.71"/><path class="cls-34" d="M114.5,112.11s37.07-.23,49.4-.13c10.71,.08,17.04-.49,17.04-.49,0,0-12.78-.08-17.04-.09-12.35-.02-49.4,.71-49.4,.71"/><path class="cls-34" d="M114.5,108.36s37.07-.23,49.4-.13c10.71,.08,17.04-.49,17.04-.49,0,0-12.78-.08-17.04-.09-12.35-.02-49.4,.71-49.4,.71"/><path class="cls-34" d="M114.5,104.6s37.07-.23,49.4-.13c10.71,.08,17.04-.49,17.04-.49,0,0-12.78-.08-17.04-.09-12.35-.02-49.4,.71-49.4,.71"/><path class="cls-34" d="M114.5,101.12s37.07-.23,49.4-.13c10.71,.08,17.04-.49,17.04-.49,0,0-12.78-.09-17.04-.09-12.35-.02-49.4,.71-49.4,.71"/></g></g><polygon class="cls-34" points="94.76 140.36 163.87 140.36 187.25 139.85 163.9 139.32 94.76 140.36"/><polygon class="cls-34" points="94.76 145.14 163.87 145.14 187.82 144.62 163.9 144.11 94.76 145.14"/><polygon class="cls-34" points="94.76 149.93 163.87 149.93 188.81 149.41 163.9 148.88 94.76 149.93"/><polygon class="cls-34" points="94.76 154.71 163.87 154.71 190.09 154.19 163.9 153.67 94.76 154.71"/><g class="cls-76"><g><path class="cls-45" d="M182.76,96.39s-.71,2.46-1.17,5.83h.1l1.08-5.83h0Z"/><path class="cls-50" d="M114.82,96.32c-.79,0-1.42,.14-1.89,.36,.51-.23,1.17-.36,2.03-.36h-.14Zm.21,0h0Zm9.7,.07h0Zm-12.82,1.08c-.67,.84-.64,1.83-.64,1.83v2.82h.02c0-.91,.02-1.76,.03-2.54,0-.66,.1-1.47,.59-2.12"/><path class="cls-32" d="M182.76,96.39H115.87c-.73,.05-2.67,.45-2.69,3.36,0,.69,0,1.49-.02,2.38l68.42,.08c.46-3.36,1.17-5.83,1.17-5.83m-68.27,4.73s36.29-.71,49.02-.71h.39c4.26,0,17.04,.09,17.04,.09,0,0-5.51,.5-14.95,.5-.67,0-1.37,0-2.09,0-2.12-.02-4.97-.02-8.23-.02-15.74,0-41.17,.15-41.17,.15"/><path class="cls-50" d="M115.18,96.32h0c.3,0,.62,.03,.97,.07h66.62l-67.58-.07h0Z"/><path class="cls-59" d="M114.96,96.32c-.86,0-1.53,.14-2.03,.36-.45,.21-.78,.49-1.01,.79-.49,.65-.58,1.46-.59,2.11-.02,.77-.02,1.63-.03,2.54h1.86c0-.89,0-1.69,.02-2.38,.03-2.9,1.96-3.31,2.69-3.36h.27c-.35-.04-.67-.06-.97-.07h-.21Z"/><path class="cls-27" d="M163.51,100.41c-12.72,0-49.02,.71-49.02,.71,0,0,25.42-.15,41.17-.15,3.26,0,6.11,0,8.23,.02h2.09c9.44,0,14.95-.5,14.95-.5,0,0-12.78-.09-17.04-.09h-.39"/></g></g><path class="cls-48" d="M192.08,42.86h-43.12v4.63l-4.58-4.63h-2.17l-5.48,4.59,.71-4.59h-10.17v10.03l64.82-5v-5.03h0Zm-70.49,0h-7.09v11.01l7.09-.54v-10.46h0Zm-12.77,0h-15.21v12.63l15.21-1.17v-11.45Z"/><polygon class="cls-25" points="114.5 42.86 108.82 42.86 108.82 54.31 114.5 53.87 114.5 42.86"/><polygon class="cls-25" points="127.27 42.86 121.59 42.86 121.59 53.32 127.27 52.88 127.27 42.86"/><g class="cls-75"><g><path class="cls-22" d="M83.12,42.86h34.31V26.73h-34.31c-4.41,0-7.98,3.61-7.98,8.07s3.57,8.07,7.98,8.07"/><path class="cls-21" d="M104.76,34.79c0,4.46,3.57,8.07,7.98,8.07s7.98-3.61,7.98-8.07-3.57-8.07-7.98-8.07-7.98,3.61-7.98,8.07"/></g></g><rect class="cls-21" x="112.75" y="26.72" width="71.69" height="3.3"/><rect class="cls-21" x="112.75" y="39.56" width="71.69" height="3.3"/><g class="cls-74"><path class="cls-11" d="M181.96,39.56H112.9c-2.6,0-4.72-2.13-4.72-4.77s2.11-4.77,4.72-4.77h69.06s-.85,2.41-.85,4.77,.85,4.77,.85,4.77"/></g><polygon class="cls-44" points="138.63 34.4 112.36 34.45 138.72 35.16 150.87 35.11 177.34 34.4 138.63 34.4"/><g class="cls-78"><g><path class="cls-5" d="M89.26,42.22c.76,.25,1.57,.39,2.41,.39h-5.05c-4.23-.12-7.63-3.63-7.63-7.93s3.39-7.81,7.63-7.93h5.05c-.84,0-1.65,.14-2.41,.39-.98,.32-1.87,.83-2.64,1.48-1.72,1.46-2.8,3.64-2.8,6.08s1.09,4.62,2.8,6.08c.76,.65,1.67,1.16,2.64,1.48"/><path class="cls-3" d="M195.67,173.48c0,7.28-5.74,13.2-12.89,13.4-.12,.02-.26,.02-.39,.02h-2.13c.13,0,.26,0,.39-.02,7.15-.2,12.89-6.13,12.89-13.4s-5.74-13.2-12.89-13.4c-.13-.02-.26-.02-.39-.02h2.13c.13,0,.26,0,.39,.02,7.15,.2,12.89,6.12,12.89,13.4"/><path class="cls-3" d="M158.72,173.48c0,7.28-5.74,13.2-12.89,13.4-.13,.02-.26,.02-.39,.02h-2.13c.13,0,.26,0,.39-.02,7.15-.2,12.89-6.13,12.89-13.4s-5.74-13.2-12.89-13.4c-.12-.02-.26-.02-.39-.02h2.13c.13,0,.26,0,.39,.02,7.15,.2,12.89,6.12,12.89,13.4"/><path class="cls-5" d="M106.56,42.22c.76,.25,1.57,.39,2.41,.39h-5.05c-4.23-.12-7.62-3.63-7.62-7.93s3.39-7.81,7.62-7.93h5.05c-.84,0-1.65,.14-2.41,.39-.98,.32-1.87,.83-2.64,1.48-1.71,1.46-2.8,3.64-2.8,6.08s1.09,4.62,2.8,6.08c.77,.65,1.67,1.16,2.64,1.48"/><path class="cls-24" d="M138.52,163.11c-.43,0-.86-.06-1.28,0,5.07,.64,8.06,4.61,8.06,10.34s-2.99,9.76-8.06,10.39h1.28c5.82,0,10.28-4.65,10.28-10.39s-4.6-10.33-10.28-10.33"/><path class="cls-44" d="M87.57,79.76l91.55,.24s-21.56,.64-47.76,.62c-16.5-.02-43.79-.86-43.79-.86"/><path class="cls-44" d="M87.57,77.56l91.55,.24s-21.56,.64-47.76,.62c-16.5-.02-43.79-.86-43.79-.86"/><path class="cls-44" d="M87.57,75.44l91.55,.24s-21.56,.64-47.76,.62c-16.5-.02-43.79-.86-43.79-.86"/><path class="cls-44" d="M87.57,81.92l91.55,.24s-21.56,.64-47.76,.62c-16.5-.02-43.79-.86-43.79-.86"/><path class="cls-44" d="M87.57,84.08l91.55,.24s-21.56,.64-47.76,.62c-16.5-.02-43.79-.86-43.79-.86"/><path class="cls-44" d="M87.57,86.23l91.55,.24s-21.56,.64-47.76,.62c-16.5-.02-43.79-.86-43.79-.86"/><path class="cls-44" d="M87.57,88.38l91.55,.24s-21.56,.64-47.76,.62c-16.5-.02-43.79-.86-43.79-.86"/><path class="cls-45" d="M83.12,26.73h-1.02c-.62,.08-1.49,.29-2.53,.84,1.07-.54,2.27-.84,3.54-.84"/><path class="cls-30" d="M82.65,26.69c-.15,0-.33,0-.55,.04h1.02s-.17-.04-.47-.04"/><path class="cls-45" d="M78.26,28.4c-.71,.52-1.26,1.14-1.68,1.78,.47-.67,1.04-1.28,1.68-1.78"/><path class="cls-57" d="M104,26.73h-12.48c-.79,.02-1.54,.15-2.26,.39-.92,.3-1.76,.76-2.51,1.36,4.57-.78,11.85-1.32,15.79-1.58,.44-.09,.9-.14,1.36-.16h.08m-17.3,0h-3.59c-1.27,0-2.48,.3-3.54,.84-.41,.21-.83,.48-1.29,.81l-.03,.02c-.64,.5-1.21,1.11-1.68,1.78-1.41,2.13-1.43,4.51-1.43,4.61h0s.62-2.38,5.1-4.41c1.35-2.13,3.7-3.57,6.38-3.65h.08"/><path class="cls-64" d="M91.56,26.72h-4.93c-2.68,.08-5.03,1.51-6.38,3.65,1.23-.56,2.76-1.09,4.64-1.53,.55-.13,1.18-.26,1.88-.37,.73-.6,1.58-1.07,2.51-1.36,.71-.23,1.47-.37,2.26-.39h.03"/><path class="cls-64" d="M105.31,26.72h-1.39c-.47,.02-.92,.07-1.37,.16,1.68-.11,2.76-.17,2.76-.17"/><path class="cls-42" d="M79.35,181.39l21.92,.36,39.79-.36s-22.98-.25-39.65-.25c-10.14,0-22.06,.25-22.06,.25"/><path class="cls-42" d="M80.23,178.96l21.92,.36,39.79-.36s-22.98-.25-39.65-.25c-10.14,0-22.06,.25-22.06,.25"/><path class="cls-42" d="M81.31,176.61l21.92,.36,39.79-.36s-22.98-.25-39.65-.25c-10.14,0-22.06,.25-22.06,.25"/><path class="cls-42" d="M81.31,174.03l21.92,.36,39.79-.36s-22.98-.25-39.65-.25c-10.14,0-22.06,.25-22.06,.25"/><path class="cls-42" d="M80.91,171.31l21.92,.36,39.79-.36s-22.98-.25-39.65-.25c-10.14,0-22.06,.25-22.06,.25"/><path class="cls-42" d="M80.23,168.7l21.92,.36,39.79-.36s-22.98-.25-39.65-.25c-10.14,0-22.06,.25-22.06,.25"/><path class="cls-42" d="M79.8,166.34l21.92,.36,39.79-.36s-22.98-.25-39.65-.25c-10.14,0-22.06,.25-22.06,.25"/><path class="cls-17" d="M115.53,163.11h-38.49s1.23,3.57,1.46,7.23h.08c-.44-3.8-1.46-7.23-1.46-7.23h38.41Z"/><path class="cls-10" d="M136.18,163.11h-5.7c.1,1.85,.18,3.04,.18,3.04l-3.01-3.04h-8.61l-2.72,3.02c13.04,.08,25.2,.2,25.2,.2l-25.6,.23-.14,.15s0-.05-.02-.15l-14.04,.13-21.92-.36s11.91-.25,22.06-.25c4.37,0,9.17,.02,13.87,.05-.05-.61-.11-1.67-.2-3.01h-38.41s1.02,3.43,1.46,7.23c18.2,0,66.22-.21,66.22-.21,0,0-1.48-7.02-8.64-7.02m-34.02,5.94l-21.92-.36s11.91-.25,22.06-.25c16.67,0,39.65,.25,39.65,.25l-39.79,.36h0Z"/><path class="cls-9" d="M113.1,163.1c-17.51,0-36.05,.02-36.05,.02h38.49v-.02h-2.44m5.94,0l-.02,.02h8.61c-2.69,0-5.59,0-8.6-.02m11.43,0h0"/><path class="cls-36" d="M102.29,168.45c-10.14,0-22.06,.25-22.06,.25l21.92,.36,39.79-.36s-22.98-.25-39.65-.25"/><path class="cls-36" d="M101.86,166.08c-10.14,0-22.06,.25-22.06,.25l21.92,.36,14.04-.13c0-.1-.02-.25-.03-.44-4.71-.02-9.51-.05-13.87-.05m14.44,.05l-.39,.44,25.6-.23s-12.16-.14-25.2-.2"/><path class="cls-32" d="M132.31,140.37h-14.81c-.49,.42-1.33,1.35-1.73,3-.1,.43-.19,.92-.26,1.48l14.92-.23c.06-.5,.14-.95,.22-1.35,.36-1.65,1.15-2.51,1.66-2.9m-1.94,4.78h-14.9c-.15,1.27-.24,2.82-.28,4.47l14.94-.23c.03-1.57,.11-3.03,.23-4.25m-.24,4.78h-14.94c-.03,1.44-.02,2.96,0,4.47l14.94-.23c-.02-1.44-.03-2.88,0-4.25"/><path class="cls-27" d="M132.76,140.08h-14.88s-.16,.09-.39,.29h14.81c.26-.21,.45-.29,.45-.29"/><path class="cls-27" d="M130.43,144.61l-14.92,.23c-.02,.11-.02,.2-.04,.31h14.9c.02-.18,.04-.36,.06-.54"/><path class="cls-27" d="M130.13,149.4l-14.94,.23v.31h14.93c0-.18,0-.36,0-.53"/><path class="cls-33" d="M130.32,160.06h-5.7l3.01,3.05h2.84c-.05-.89-.1-1.92-.15-3.05"/><path class="cls-33" d="M121.78,160.06h-6.4c.05,1.11,.11,2.14,.16,3.04h3.5l2.74-3.04h0Z"/><path class="cls-32" d="M130.14,154.71h-14.95c.02,.79,.04,1.57,.06,2.35h14.95c-.02-.76-.05-1.55-.06-2.35"/><path class="cls-62" d="M130.2,157.05h-14.95c.03,1.04,.08,2.05,.12,3h6.4l1.35-1.5,1.48,1.5h5.7c-.04-.95-.08-1.96-.11-3"/><path class="cls-27" d="M130.13,154.17l-14.94,.23v.31h14.96v-.54"/><path class="cls-35" d="M119.02,163.11h-3.49c.08,1.34,.15,2.4,.2,3.01h.58l2.72-3.02h0Z"/><path class="cls-28" d="M115.53,163.1v.02h3.49v-.02h-3.49"/><path class="cls-35" d="M130.47,163.11h-2.82l3.01,3.04s-.08-1.19-.18-3.04"/><path class="cls-35" d="M115.91,166.56h-.15c0,.1,.02,.15,.02,.15l.14-.15Z"/><path class="cls-29" d="M115.73,166.13c.02,.19,.02,.34,.03,.44h.15l.39-.44h-.58"/><path class="cls-60" d="M115.97,140.07s-1.53,.87-2.11,3.28c-1.36,5.68,0,23.36,0,23.36l7.36-8.17,7.52,7.6s-1.21-17.3,0-22.89c.55-2.54,2.11-3.19,2.11-3.19h-14.88Z"/><path class="cls-48" d="M82.18,98.14h0c1.08,0,1.95,.89,1.95,1.98v15.74c0,1.09-.88,1.98-1.95,1.98s-1.95-.89-1.95-1.98v-15.74c0-1.09,.88-1.98,1.95-1.98"/><path class="cls-48" d="M103.37,98.14h0c1.08,0,1.95,.89,1.95,1.98v15.74c0,1.09-.88,1.98-1.95,1.98s-1.95-.89-1.95-1.98v-15.74c0-1.09,.88-1.98,1.95-1.98"/><path class="cls-44" d="M180.46,31.85H113.42s24.89,.45,34.19,.67c9.29,.23,32.85-.67,32.85-.67"/><path class="cls-44" d="M180.46,37H113.42s24.89,.45,34.19,.67c9.29,.23,32.85-.67,32.85-.67"/></g></g><polygon class="cls-32" points="148.97 35.11 145.91 35.13 138.72 35.16 138.7 35.16 138.63 35.16 138.35 37 148.97 37 148.97 35.11"/><polygon class="cls-41" points="138.7 35.16 138.72 35.16 145.91 35.13 138.7 35.16"/><path class="cls-52" d="M148.97,42.86h-4.58l4.58,4.63v-4.63Zm-6.76,0h-4.77l-.71,4.59,5.48-4.59Z"/><polygon class="cls-54" points="148.97 39.56 137.95 39.56 137.44 42.86 142.21 42.86 143.4 41.86 144.38 42.86 148.97 42.86 148.97 39.56"/><g class="cls-80"><g><path class="cls-32" d="M138.27,37.47l-.33,2.09h11.01v-1.86c-.48,0-.93-.02-1.35-.02-2.34-.06-5.66-.13-9.33-.2"/><path class="cls-41" d="M148.97,37h-10.62l-.08,.48c3.67,.08,6.99,.14,9.33,.2,.42,0,.88,.02,1.35,.02v-.7h0Z"/></g></g><polygon class="cls-60" points="138.63 35.16 138.63 47.45 145.3 41.86 150.87 47.49 150.87 35.11 138.63 35.16"/><g class="cls-79"><g><path class="cls-60" d="M257.78,195.95H12.84c-2.68,0-4.85-2.2-4.85-4.9s2.17-4.9,4.85-4.9h244.94c2.68,0,4.85,2.2,4.85,4.9s-2.17,4.9-4.85,4.9"/><path class="cls-20" d="M231.15,39.59c-.73-1.28-1.79-2.34-3.08-3.06,1.29-.71,2.35-1.78,3.08-3.06,.73,1.28,1.79,2.34,3.08,3.06-1.29,.71-2.35,1.78-3.08,3.06m7.99-3.13c0-.58-.48-1.06-1.06-1.06-3.22,0-5.83-2.62-5.83-5.83,0-.58-.48-1.06-1.06-1.06h-.07c-.58,0-1.06,.48-1.06,1.06,0,3.22-2.62,5.83-5.83,5.83-.58,0-1.06,.48-1.06,1.06v.14c0,.58,.48,1.06,1.06,1.06,3.22,0,5.83,2.62,5.83,5.83,0,.58,.48,1.06,1.06,1.06h.07c.58,0,1.06-.48,1.06-1.06,0-3.22,2.62-5.83,5.83-5.83,.58,0,1.06-.48,1.06-1.06v-.14Z"/><path class="cls-16" d="M246.68,22.1c-.92,0-1.68,.75-1.68,1.68s.75,1.68,1.68,1.68,1.68-.75,1.68-1.68-.75-1.68-1.68-1.68"/></g></g></g></g></g></g></g></svg>