<?xml version="1.0" encoding="UTF-8"?>
<svg width="81px" height="83px" viewBox="0 0 81 83" version="1.1" xmlns="http://www.w3.org/2000/svg" xmlns:xlink="http://www.w3.org/1999/xlink">
    <!-- Generator: Sketch 53.2 (72643) - https://sketchapp.com -->
    <title>Group</title>
    <desc>Created with Sketch.</desc>
    <g id="Phase-2---Title-Setup" stroke="none" stroke-width="1" fill="none" fill-rule="evenodd" stroke-linecap="round" stroke-linejoin="round">
        <g id="12.-Add-a-Book---Files-Ready" transform="translate(-394.000000, -991.000000)" stroke="#C8CACC" stroke-width="2">
            <g id="Group" transform="translate(395.000000, 992.000000)">
                <path d="M67,42.5006078 C67,56.582652 55.3587824,68 40.9993803,68 C26.6399781,68 15,56.582652 15,42.5006078 C15,28.417348 26.6399781,17 40.9993803,17 C55.3587824,17 67,28.417348 67,42.5006078 Z" id="Stroke-1"></path>
                <path d="M34.3543421,18 C34.3543421,18 38.6907958,24.2077375 37.295298,27.2994056 C35.8985608,30.3910736 33.0728636,29.8164187 32.0603221,30.3910736 C31.04902,30.9669486 24.8485976,31.5306229 26.7547039,33.407097 C28.6608101,35.2835712 31.9735683,35.4592619 34.1548082,37.6053724 C36.3360481,39.752703 35.4065425,42.7589658 37.571671,42.7589658 C39.7380388,42.7589658 41.2587101,38.6668369 43.3370847,40.7129014 C45.41422,42.7589658 42.1795403,47.9113392 39.5632918,50.4881359 C36.9458038,53.0637125 39.2646106,54.6510291 38.0847581,55.8125397 C36.9049056,56.9740504 35.1970939,58.0452755 35.1970939,60.2780113 C35.1970939,62.5107471 29.9670754,64.744703 29.2680872,60.9649131 C28.5715776,57.1863433 30.4033234,51.6045038 28.7463247,49.9720445 C27.0880866,48.3408053 24.03559,44.2535567 25.2563408,40.4993884 C26.4783309,36.7464401 18,30.7461152 18,30.7461152" id="Stroke-3"></path>
                <path d="M66,36.3868628 C66,36.3868628 59.2263873,36.5911777 57.0690008,35.3169955 C54.9104036,34.0415751 50.2505939,36.7112901 51.1028948,41.591321 C51.9551956,46.4738284 55.6355857,43.7186727 58.4999946,46.6471865 C61.3631928,49.5757003 56.9999935,52.7828254 58.4999946,54.3170447 C59.9999956,55.8525023 60.934621,57.3966278 59.5145231,61" id="Stroke-5"></path>
                <path d="M50.826586,19 C50.826586,19 44.9390781,23.8597913 46.1689685,26.3619207 C47.398859,28.8616818 48.9331036,28.0197443 50.826586,26.9836045 C52.718821,25.9462807 52.9944861,24.7786992 55.1249657,25.9462807 C57.2541979,27.1138621 61,26.6354616 61,26.6354616" id="Stroke-7"></path>
                <path d="M2,40 C3.01300493,16.9530743 25.6155242,-1.14256264 50,5.32640903" id="Stroke-9"></path>
                <path d="M60,75.2848131 C39.0794873,88.3565303 9.81700288,78.2036695 3,53" id="Stroke-11"></path>
                <path d="M61,10 C81.0692843,22.2947144 85.8069433,51.1254236 67.783187,69" id="Stroke-13"></path>
                <polyline id="Stroke-15" points="46.5097209 0 50 5.57634184 44 9"></polyline>
                <polyline id="Stroke-17" points="75 68.8225617 68 69 68.200071 62"></polyline>
                <polyline id="Stroke-19" points="0 59 3.45955693 53 10 56.7763423"></polyline>
            </g>
        </g>
    </g>
</svg>