<?xml version="1.0" encoding="UTF-8"?><svg id="Layer_2" xmlns="http://www.w3.org/2000/svg" viewBox="0 0 50 68"><defs><style>.cls-1{fill:#337893;}.cls-1,.cls-2{stroke:#a0a2a4;stroke-miterlimit:10;}.cls-2{fill:none;stroke-linecap:round;stroke-width:2px;}</style></defs><g id="Layer_1-2"><line class="cls-1" x1="21.87" y1="63.24" x2="28.13" y2="63.24"/><line class="cls-2" x1="22.42" y1="63" x2="26.92" y2="63"/><rect class="cls-2" x="1" y="1" width="48" height="66" rx="5" ry="5"/><path class="cls-2" d="M14.04,6h29.38c.55,0,1,.45,1,1V58c0,.55-.45,1-1,1H6.42c-.55,0-1-.45-1-1V7c0-.55,.45-1,1-1h3.53"/><line class="cls-2" x1="11.42" y1="12" x2="40.42" y2="12"/><line class="cls-2" x1="11.42" y1="17" x2="40.42" y2="17"/><line class="cls-2" x1="11.42" y1="22" x2="25.42" y2="22"/><line class="cls-2" x1="11.42" y1="28" x2="40.42" y2="28"/><line class="cls-2" x1="11.42" y1="32" x2="40.42" y2="32"/><line class="cls-2" x1="11.42" y1="38" x2="40.42" y2="38"/><line class="cls-2" x1="11.42" y1="43" x2="40.42" y2="43"/><line class="cls-2" x1="11.42" y1="47" x2="40.42" y2="47"/><line class="cls-2" x1="11.42" y1="52" x2="25.42" y2="52"/></g></svg>