<?xml version="1.0" encoding="UTF-8"?><svg id="_ÎÓÈ_1" xmlns="http://www.w3.org/2000/svg" viewBox="0 0 95 94.99"><defs><style>.cls-1{fill:#ffca38;}.cls-2{fill:#4e9eb8;}</style></defs><path class="cls-2" d="m94.23,34.05l-11.11-8.59v-9.63c0-4.37-3.55-7.92-7.92-7.92h-14.76l-8.1-6.25c-2.86-2.2-6.84-2.2-9.7,0l-8.09,6.25h-14.76c-4.37,0-7.92,3.55-7.92,7.92v9.63L.77,34.05c-.49.37-.77.95-.77,1.57v51.46c0,2.28.97,4.43,2.63,5.88,1.45,1.31,3.32,2.04,5.29,2.04h79.16c1.96,0,3.83-.72,5.26-2.01,1.69-1.47,2.66-3.62,2.66-5.91v-51.46c0-.61-.28-1.2-.77-1.57Zm-3.54,54.66l-31.52-24.4,31.87-24.66v47.42c0,.58-.12,1.13-.35,1.64Zm-.91-53.09l-6.66,5.15v-10.31l6.66,5.15ZM45.07,4.78c1.46-1.12,3.41-1.12,4.86,0l4.04,3.12h-12.94l4.04-3.12Zm-25.27,7.09h55.41c2.18,0,3.96,1.77,3.96,3.96v28l-29.24,22.63c-1.42,1.1-3.42,1.1-4.85,0l-29.23-22.63V15.82c0-2.18,1.77-3.96,3.96-3.96ZM4.31,88.71c-.23-.5-.36-1.06-.36-1.63v-47.43l31.87,24.66-31.52,24.4Zm7.56-47.94l-6.66-5.15,6.66-5.15v10.31Zm-3.96,50.26s-.08,0-.12,0l31.27-24.2,3.58,2.77c1.42,1.1,3.14,1.66,4.85,1.66s3.42-.55,4.85-1.66l3.58-2.77,31.27,24.2s-.08,0-.12,0H7.92Z"/><path class="cls-1" d="m47.22,53.42h.03c1.08,0,1.96-.87,1.98-1.94.02-1.09-.85-2-1.94-2.01-6.54-.11-11.78-5.53-11.66-12.09.11-6.47,5.42-11.66,11.87-11.66h.21c6.54.11,11.78,5.54,11.66,12.09-.02,1.6-.5,2.66-1.39,3.14-1.13.6-2.87.37-4.26-.23l.14-7.87c.02-.74-.39-1.43-1.05-1.78-2.96-1.58-7.43-1.29-9.8,1.92-1.51,2.05-2.14,4.89-1.6,7.25.42,1.84,1.48,3.25,3.07,4.1,2.71,1.43,5.36.59,7.15-.21,2.37,1.16,5.64,1.69,8.2.32,1.27-.68,3.41-2.43,3.49-6.56.15-8.73-6.82-15.96-15.55-16.11h-.28c-8.6,0-15.68,6.92-15.83,15.56-.15,8.73,6.83,15.95,15.56,16.11Zm2.54-12.82c-1.38.57-2.44.74-3.42.22-.56-.3-.91-.78-1.07-1.48-.28-1.22.11-2.91.93-4.02.63-.86,1.71-1.25,2.78-1.25.3,0,.61.03.9.09l-.12,6.44Z"/></svg>