<?xml version="1.0" encoding="UTF-8"?>
<svg width="74px" height="71px" viewBox="0 0 74 71" version="1.1" xmlns="http://www.w3.org/2000/svg" xmlns:xlink="http://www.w3.org/1999/xlink">
    <!-- Generator: Sketch 53.2 (72643) - https://sketchapp.com -->
    <title>Group</title>
    <desc>Created with Sketch.</desc>
    <defs>
        <polygon id="path-1" points="0 0.20003379 39.8019826 0.20003379 39.8019826 25.1333333 0 25.1333333"></polygon>
        <polygon id="path-3" points="0.3168 0.209810526 32.8648404 0.209810526 32.8648404 32.6682632 0.3168 32.6682632"></polygon>
    </defs>
    <g id="Phase-2---Title-Setup" stroke="none" stroke-width="1" fill="none" fill-rule="evenodd">
        <g id="10.-Add-a-Book" transform="translate(-609.000000, -734.000000)">
            <g id="Group" transform="translate(609.000000, 734.000000)">
                <path d="M10.8901484,36.70163 L11.0282215,37.8004912 C11.6098454,42.4312828 15.6883673,45.9234119 20.5152023,45.9234119 C25.3398912,45.9234119 29.4173399,42.4326672 30.0007524,37.8042983 L30.1373947,36.7175505 L31.2512797,36.9072122 C31.3364129,36.9214023 31.4118881,36.9283242 31.4830708,36.9283242 C32.2388958,36.9283242 32.8537861,36.3326895 32.8537861,35.6003461 L32.8537861,32.051457 C32.8537861,31.3191135 32.2388958,30.7234788 31.4830708,30.7234788 C31.4161805,30.7234788 31.3525095,30.7307469 31.2884808,30.7387072 L30.0737237,30.8951435 L30.0737237,28.3260578 C30.0737237,23.2259574 25.785946,19.0765881 20.5152023,19.0765881 C15.2437433,19.0765881 10.9548925,23.2259574 10.9548925,28.3260578 L10.9548925,30.9138328 L9.72761585,30.7411298 C9.642125,30.7290164 9.57595007,30.7234788 9.5190754,30.7234788 C8.7621773,30.7234788 8.14621391,31.3191135 8.14621391,32.051457 L8.14621391,35.6003461 C8.14621391,36.3326895 8.7621773,36.9283242 9.5190754,36.9283242 C9.59884302,36.9283242 9.67932604,36.9207101 9.7655323,36.9051356 L10.8901484,36.70163 Z M20.5152023,48 C14.9303961,48 10.1632973,44.1808083 9.05370469,38.975494 C7.33244113,38.7543374 6,37.3249526 6,35.6003461 L6,32.051457 C6,30.4095679 7.20760302,29.0355588 8.8086786,28.7164564 L8.8086786,28.3260578 C8.8086786,22.080719 14.0601063,17 20.5152023,17 C26.969583,17 32.2199376,22.080719 32.2199376,28.3260578 L32.2199376,28.721994 C33.8067051,29.0511332 35,30.4189126 35,32.051457 L35,35.6003461 C35,37.3156079 33.6829401,38.738763 31.9763423,38.9716869 C30.8685382,44.1790778 26.1003663,48 20.5152023,48 L20.5152023,48 Z" id="Fill-1" fill="#3AAB00"></path>
                <g id="Group-5" transform="translate(0.000000, 45.000000)">
                    <mask id="mask-2" fill="white">
                        <use xlink:href="#path-1"></use>
                    </mask>
                    <g id="Clip-4"></g>
                    <path d="M39.8019826,25.1333333 L-0.000104347826,25.1333333 L-0.000104347826,16.7436201 C-0.000104347826,10.7309005 4.94146087,5.83919635 11.0152,5.83919635 L14.3633739,5.83919635 L14.3633739,1.2329105 C14.3633739,0.662418265 14.8308522,0.20003379 15.4068522,0.20003379 C15.9832,0.20003379 16.4503304,0.662418265 16.4503304,1.2329105 L16.4503304,7.90494977 L11.0152,7.90494977 C6.09206957,7.90494977 2.08685217,11.8701635 2.08685217,16.7436201 L2.08685217,23.0675799 L37.7150261,23.0675799 L37.7150261,16.7436201 C37.7150261,11.8701635 33.7098087,7.90494977 28.7870261,7.90494977 L23.3512,7.90494977 L23.3512,1.2329105 C23.3512,0.662418265 23.8183304,0.20003379 24.3946783,0.20003379 C24.9710261,0.20003379 25.4381565,0.662418265 25.4381565,1.2329105 L25.4381565,5.83919635 L28.7870261,5.83919635 C34.8607652,5.83919635 39.8019826,10.7309005 39.8019826,16.7436201 L39.8019826,25.1333333 Z" id="Fill-3" fill="#3AAB00" mask="url(#mask-2)"></path>
                </g>
                <path d="M20.5005889,65 L12.1878629,52.7033238 C11.8514306,52.2060664 11.9790801,51.5282854 12.4730911,51.1893949 C12.9667414,50.8501412 13.6399666,50.9790867 13.9760383,51.4767072 L20.5005889,61.1280035 L27.0240576,51.4767072 C27.3601293,50.9794499 28.0329939,50.8508677 28.5270049,51.1893949 C29.0206552,51.5279222 29.1486654,52.2057032 28.8122331,52.7033238 L20.5005889,65 Z" id="Fill-6" fill="#3AAB00"></path>
                <path d="M11.0553586,32 C10.7160702,32 10.3721535,31.9925994 10.0196924,31.9767409 C9.43047696,31.9499577 8.97441355,31.4555258 9.00111515,30.8722864 C9.02781676,30.2890471 9.5326551,29.8404285 10.1165302,29.86404 C19.4588876,30.2851706 23.5036467,24.1884691 23.5435211,24.1267973 L24.9166956,22 L25.4845498,24.46053 C25.4959425,24.5084579 26.6843419,29.4143643 30.0765137,29.8728503 C30.6607449,29.9517902 31.0698134,30.4849873 30.9900646,31.0636453 C30.9103159,31.6423034 30.3702314,32.047223 29.7870683,31.9679306 C26.6053051,31.5376374 24.8782453,28.7645193 24.0483595,26.8290809 C22.1144512,28.8216098 17.9486449,32 11.0553586,32" id="Fill-8" fill="#3AAB00"></path>
                <path d="M32.4908183,29 L31.2695,28.8258154 C31.1866988,28.813988 31.1235271,28.808612 31.0707057,28.808612 C30.4789623,28.808612 30,28.3272746 30,27.7333982 C30,27.4183606 30.134552,27.1352209 30.3494069,26.9384568 L30.3494069,26.3728944 C30.3494069,20.1018893 35.4299053,15 41.6749744,15 C42.1364486,15 42.6022055,15.028314 43.058683,15.0842251 C43.6461435,15.1566228 44.0637188,15.6927961 43.9919815,16.2820132 C43.9198873,16.8715888 43.386319,17.2923557 42.7995723,17.2188828 C42.4287512,17.1733654 42.0500783,17.1504275 41.6749744,17.1504275 C36.6108936,17.1504275 32.4908183,21.2874917 32.4908183,26.3728944 L32.4908183,29 Z" id="Fill-10" fill="#3AAB00"></path>
                <path d="M41.2615861,45 C36.8561207,45 32.8630878,42.3917379 31.0890679,38.3548334 C30.8555428,37.8235142 31.0971205,37.2035835 31.627891,36.9703215 C32.160062,36.7367092 32.7787107,36.9783771 33.0122358,37.5089957 C34.450848,40.7830703 37.6890383,42.89854 41.2615861,42.89854 C45.8070965,42.89854 49.6502812,39.4980276 50.200308,34.9882945 L50.334401,33.8895812 L51.4239511,34.0804638 C51.5027264,34.0941233 51.5723988,34.1007779 51.6375197,34.1007779 C52.3331932,34.1007779 52.8993251,33.533734 52.8993251,32.8363995 L52.8993251,29.3651379 C52.8993251,28.6685039 52.3331932,28.10146 51.6375197,28.10146 C51.5755498,28.10146 51.5156806,28.1088151 51.4558113,28.1165204 C50.881977,28.1897213 50.3533071,27.7865912 50.278383,27.2107912 C50.2031089,26.6356916 50.6085391,26.1082252 51.1837739,26.0329229 C51.3003614,26.0178624 51.4575619,26 51.6375197,26 C53.4917154,26 55,27.5095487 55,29.3651379 L55,32.8363995 C55,34.5238718 53.7532494,35.9251954 52.1336291,36.1658126 C51.072088,41.2625535 46.5528361,45 41.2615861,45" id="Fill-12" fill="#3AAB00"></path>
                <path d="M61,66 L39.0754029,66 C38.481422,66 38,65.5408547 38,64.974359 C38,64.4078632 38.481422,63.9487179 39.0754029,63.9487179 L58.8491942,63.9487179 L58.8491942,57.9135043 C58.8491942,53.254359 54.875939,49.4642735 49.9918176,49.4642735 L44.5406004,49.4642735 L44.5406004,43.025641 C44.5406004,42.4591453 45.0220224,42 45.6160032,42 C46.2099841,42 46.6914061,42.4591453 46.6914061,43.025641 L46.6914061,47.4129915 L49.9918176,47.4129915 C56.0617499,47.4129915 61,52.1234188 61,57.9135043 L61,66 Z" id="Fill-14" fill="#3AAB00"></path>
                <path d="M25.0616811,53 C24.8226858,53 24.5822743,52.9216332 24.3839967,52.7614474 C23.9325612,52.3961962 23.8702454,51.7433701 24.2444943,51.3032043 C26.3189733,48.8645137 29.3699692,47.465995 32.615348,47.465995 L35.8755976,47.465995 L35.8755976,43.035684 C35.8755976,42.4636412 36.3507556,42 36.9377988,42 C37.5244879,42 38,42.4636412 38,43.035684 L38,49.5373631 L32.615348,49.5373631 C30.0041033,49.5373631 27.5493563,50.6628064 25.879576,52.6254276 C25.6696143,52.8722656 25.3668869,53 25.0616811,53" id="Fill-16" fill="#3AAB00"></path>
                <path d="M42.004645,39 L38.995355,39 C38.4452555,39 38,38.5523333 38,38 C38,37.4476667 38.4452555,37 38.995355,37 L42.004645,37 C42.5544127,37 43,37.4476667 43,38 C43,38.5523333 42.5544127,39 42.004645,39" id="Fill-18" fill="#3AAB00"></path>
                <path d="M21.004711,44 L17.995289,44 C17.4455577,44 17,43.5523333 17,43 C17,42.4476667 17.4455577,42 17.995289,42 L21.004711,42 C21.5544423,42 22,42.4476667 22,43 C22,43.5523333 21.5544423,44 21.004711,44" id="Fill-20" fill="#3AAB00"></path>
                <g id="Group-24" transform="translate(41.000000, 0.000000)">
                    <mask id="mask-4" fill="white">
                        <use xlink:href="#path-3"></use>
                    </mask>
                    <g id="Clip-23"></g>
                    <path d="M2.42318298,22.7609684 L6.35825745,22.7609684 L6.35825745,28.0277684 L12.3477574,22.7609684 L23.0548532,22.7609684 C27.3027255,22.7609684 30.7585979,19.7739474 30.7585979,16.1029579 L30.7585979,2.29402105 L10.1272787,2.29402105 C5.87940638,2.29402105 2.42318298,5.28104211 2.42318298,8.95237895 L2.42318298,22.7609684 Z M4.25187447,32.6682632 L4.25187447,24.8451789 L0.3168,24.8451789 L0.3168,8.95237895 C0.3168,4.1316 4.71773617,0.209810526 10.1272787,0.209810526 L32.8649809,0.209810526 L32.8649809,16.1029579 C32.8649809,20.9233895 28.4640447,24.8451789 23.0548532,24.8451789 L13.148534,24.8451789 L4.25187447,32.6682632 Z" id="Fill-22" fill="#3AAB00" mask="url(#mask-4)"></path>
                </g>
                <path d="M66.9506086,12 L49.0493914,12 C48.4697775,12 48,11.5523333 48,11 C48,10.4476667 48.4697775,10 49.0493914,10 L66.9506086,10 C67.5302225,10 68,10.4476667 68,11 C68,11.5523333 67.5302225,12 66.9506086,12" id="Fill-25" fill="#3AAB00"></path>
                <path d="M66.9506086,17 L49.0493914,17 C48.4697775,17 48,16.5523333 48,16 C48,15.4476667 48.4697775,15 49.0493914,15 L66.9506086,15 C67.5302225,15 68,15.4476667 68,16 C68,16.5523333 67.5302225,17 66.9506086,17" id="Fill-27" fill="#3AAB00"></path>
            </g>
        </g>
    </g>
</svg>