<svg xmlns="http://www.w3.org/2000/svg" width="97.25" height="71.515" viewBox="0 0 97.25 71.515">
  <g id="Group_26" data-name="Group 26" transform="translate(-4579.125 -1171.125)">
    <path id="Path_16" data-name="Path 16" d="M1287.8,708.668a21.3,21.3,0,0,0-20.965-18.084,21.794,21.794,0,0,0-7.708,1.447,24.743,24.743,0,0,0-15.273-5.241,25.14,25.14,0,0,0-24.87,23.129,18.941,18.941,0,0,0-11.12,17.2,18.665,18.665,0,0,0,18.645,18.645h19.4v8.952a1.843,1.843,0,0,0,1.843,1.843h15.576a1.89,1.89,0,0,0,1.878-1.863v-8.933h19.4a18.676,18.676,0,0,0,3.188-37.091Zm-24.433,20.3a1.843,1.843,0,0,0-1.843,1.843v22.053H1249.6V730.816a1.843,1.843,0,0,0-1.843-1.843h-6.737l14.542-17.791,14.542,17.791Zm21.245,13.1h-19.4v-9.415h8.779a1.843,1.843,0,0,0,1.427-3.01L1256.991,707.1a1.908,1.908,0,0,0-2.853,0l-18.428,22.547a1.843,1.843,0,0,0,1.427,3.01h8.78v9.415h-19.4a14.976,14.976,0,0,1-14.958-14.959,15.225,15.225,0,0,1,9.859-14.208,1.847,1.847,0,0,0,1.2-1.679,21.419,21.419,0,0,1,21.245-20.753,21.017,21.017,0,0,1,13.754,5.079,1.836,1.836,0,0,0,1.966.284,17.929,17.929,0,0,1,7.26-1.568,17.587,17.587,0,0,1,17.458,16.181,1.845,1.845,0,0,0,1.675,1.7,14.991,14.991,0,0,1-1.356,29.926Z" transform="translate(3372.132 485.21)" fill="#a0a2a4" stroke="#fff" stroke-miterlimit="10" stroke-width="1.75"/>
  </g>
</svg>
