<?xml version="1.0" encoding="UTF-8"?><svg xmlns="http://www.w3.org/2000/svg" xmlns:xlink="http://www.w3.org/1999/xlink" viewBox="0 0 68.87 64.21"><defs><style>.j{fill:none;}.k{fill:#00529b;}.l{fill:#fff;}.m{fill:#7dc048;}.n{fill:#a0c9e8;}.o{fill:#cce0f2;}.p{clip-path:url(#f);}.q{clip-path:url(#i);}.r{clip-path:url(#h);}.s{clip-path:url(#g);}</style><clipPath id="f"><rect class="j" width="68.87" height="64.21"/></clipPath><clipPath id="g"><rect class="j" width="68.87" height="64.21"/></clipPath><clipPath id="h"><rect class="j" width="68.87" height="64.21"/></clipPath><clipPath id="i"><rect class="j" width="68.87" height="64.21"/></clipPath></defs><g id="a"/><g id="b"><g id="c"><g id="d"><g id="e"><g><g class="p"><g><path class="o" d="M67.95,32.1c0,17.73-14.37,32.1-32.1,32.1S3.74,49.83,3.74,32.1,18.11,0,35.84,0s32.1,14.37,32.1,32.1"/><path class="k" d="M38.61,22.86h-5.43c-.42,0-.77-.34-.77-.77s.34-.77,.77-.77h5.43c.42,0,.77,.34,.77,.77s-.34,.77-.77,.77"/><path class="l" d="M61.81,53.29c0,1.16-1.93,2.11-3.09,2.11H12.09c-1.16,0-2.85-.94-2.85-2.11V21.48c0-1.16,.94-2.11,2.11-2.11H59.7c1.16,0,2.11,.94,2.11,2.11v31.81Z"/><path class="k" d="M11.35,20.14c-.74,0-1.34,.6-1.34,1.34v31.81c0,.58,1.19,1.34,2.08,1.34H58.71c.93,0,2.32-.8,2.32-1.34V21.48c0-.74-.6-1.34-1.34-1.34H11.35ZM58.71,56.17H12.09c-1.44,0-3.62-1.15-3.62-2.88V21.48c0-1.59,1.29-2.88,2.88-2.88H59.7c1.58,0,2.88,1.29,2.88,2.88v31.81c0,1.78-2.5,2.88-3.86,2.88"/><path class="l" d="M4.56,51.45v1.57c0,2.3,1.98,4.36,4.63,4.36H61.84c2.65,0,4.9-2.05,4.9-4.36v-1.57H4.56Z"/><path class="k" d="M5.32,52.22v.8c0,1.98,1.73,3.59,3.86,3.59H61.84c2.2,0,4.14-1.68,4.14-3.59v-.8H5.32Zm56.51,5.92H9.18c-2.98,0-5.4-2.3-5.4-5.12v-1.57c0-.42,.34-.77,.77-.77h62.19c.42,0,.77,.34,.77,.77v1.57c0,2.73-2.65,5.12-5.67,5.12"/></g></g><rect class="m" x="13.44" y="24.8" width="44.42" height="26.65"/><g class="s"><path class="k" d="M14.21,50.68H57.09V25.57H14.21v25.11Zm43.65,1.54H13.44c-.42,0-.77-.34-.77-.77V24.8c0-.42,.34-.77,.77-.77H57.86c.42,0,.77,.34,.77,.77v26.65c0,.42-.34,.77-.77,.77"/></g><g class="r"><g><path class="k" d="M68.01,58.24H.85c-.47,0-.85-.38-.85-.85s.38-.85,.85-.85H68.01c.47,0,.85,.38,.85,.85s-.38,.85-.85,.85"/><path class="k" d="M38.86,54.83h-9.38c-1.7,0-2.98-1.17-3.26-2.97l1.69-.26c.15,.97,.72,1.52,1.57,1.52h9.38c.81,0,1.42-.63,1.57-1.63l1.69,.26c-.28,1.84-1.6,3.08-3.26,3.08"/><path class="l" d="M53.22,14.99h-13.87s-2.96-.37-3.7,2.22c-1.36-2.34-3.95-2.22-3.95-2.22h-14.34v29.6h16.44c.42,1.14,1.52,1.36,2.13,1.36,.7,0,1.63-.22,2.05-1.36h15.23V14.99h0Z"/><path class="k" d="M18.5,43.44h15.31c.36,0,.68,.22,.8,.56,.26,.7,.94,.8,1.33,.8,.84,0,1.11-.43,1.25-.8,.12-.33,.44-.56,.8-.56h14.66V15.56h-13.4s-.12-.01-.28-.01c-.93,0-2.12,.28-2.5,1.62-.09,.33-.38,.57-.72,.61s-.67-.12-.84-.42c-.99-1.71-2.79-1.8-3.14-1.8h-13.27v27.89h0Zm17.44,3.06c-.46,0-1.88-.11-2.66-1.36h-15.63c-.47,0-.85-.38-.85-.85V14.7c0-.47,.38-.85,.85-.85h14.12c.42,0,2.27,.08,3.73,1.5,.76-.97,1.98-1.52,3.47-1.52,.2,0,.35,.01,.43,.02h14.11c.47,0,.85,.38,.85,.85v29.6c0,.47-.38,.85-.85,.85h-14.98c-.53,.88-1.43,1.36-2.58,1.36"/><path class="k" d="M35.97,49.73c-1.02,0-2.9-.67-4.32-1.73h-13.16c-.47,0-.85-.38-.85-.85s.38-.85,.85-.85h13.45c.2,0,.39,.07,.54,.19,1.29,1.05,3.04,1.56,3.5,1.54,.62-.02,1.54-.6,2.29-1.06,.33-.21,.65-.4,.94-.56,.12-.07,.26-.1,.41-.1h12.46c.47,0,.85,.38,.85,.85s-.38,.85-.85,.85h-12.24c-.21,.12-.43,.26-.66,.4-.96,.6-2.05,1.28-3.13,1.32h-.08"/><path class="k" d="M35.86,40.31c-.47,0-.85-.38-.85-.85V16.69c0-.47,.38-.85,.85-.85s.85,.38,.85,.85v22.77c0,.47-.38,.85-.85,.85"/></g></g><rect class="n" x="21.91" y="18.97" width="9.68" height="4.55"/><rect class="n" x="21.91" y="34.91" width="9.68" height="4.55"/><rect class="n" x="39.56" y="24.09" width="10.24" height="9.68"/><g class="q"><g><path class="m" d="M30.45,29.98h-7.97c-.42,0-.77-.34-.77-.77s.34-.77,.77-.77h7.97c.42,0,.77,.34,.77,.77s-.34,.77-.77,.77"/><path class="m" d="M30.45,26.94h-7.97c-.47,0-.85-.38-.85-.85s.38-.85,.85-.85h7.97c.47,0,.85,.38,.85,.85s-.38,.85-.85,.85"/><path class="m" d="M49.23,22.39h-9.68c-.47,0-.85-.38-.85-.85s.38-.85,.85-.85h9.68c.47,0,.85,.38,.85,.85s-.38,.85-.85,.85"/><path class="m" d="M49.23,19.54h-9.68c-.47,0-.85-.38-.85-.85s.38-.85,.85-.85h9.68c.47,0,.85,.38,.85,.85s-.38,.85-.85,.85"/><path class="m" d="M49.23,40.03h-9.11c-.47,0-.85-.38-.85-.85s.38-.85,.85-.85h9.11c.47,0,.85,.38,.85,.85s-.38,.85-.85,.85"/><path class="m" d="M49.23,37.18h-9.11c-.47,0-.85-.38-.85-.85s.38-.85,.85-.85h9.11c.47,0,.85,.38,.85,.85s-.38,.85-.85,.85"/><path class="m" d="M30.45,33.2h-7.97c-.47,0-.85-.38-.85-.85s.38-.85,.85-.85h7.97c.47,0,.85,.38,.85,.85s-.38,.85-.85,.85"/></g></g></g></g></g></g></g></svg>