<?xml version="1.0" encoding="UTF-8"?>
<svg width="96px" height="70px" viewBox="0 0 96 70" version="1.1" xmlns="http://www.w3.org/2000/svg" xmlns:xlink="http://www.w3.org/1999/xlink">
    <!-- Generator: Sketch 53.2 (72643) - https://sketchapp.com -->
    <title>Group 40</title>
    <desc>Created with Sketch.</desc>
    <g id="Page-1" stroke="none" stroke-width="1" fill="none" fill-rule="evenodd">
        <g id="Assets-Copy-3" transform="translate(-369.000000, -1168.000000)" fill="#5BAF00">
            <g id="Group-40" transform="translate(369.000000, 1168.000000)">
                <g id="Group-39">
                    <path d="M93.8181615,64.3611687 C93.8181615,64.7395296 93.5121066,65.0462866 93.1346119,65.0462866 L54.7142515,65.0462866 C53.963727,65.0462866 53.2891885,65.464355 52.9543954,66.1366168 L52.5156084,67.0153904 C52.3609574,67.3252395 52.0450795,67.520848 51.699408,67.520848 L44.300592,67.520848 C43.9547581,67.520848 43.6386367,67.3250767 43.4840668,67.0149836 L43.0461729,66.137105 C42.7126786,65.4685862 42.0309962,65.0462866 41.2852614,65.0462866 L2.86546929,65.0462866 C2.48789336,65.0462866 2.18183848,64.7394482 2.18183848,64.361006 L2.18183848,8.52885858 C2.18183848,8.150335 2.48789336,7.84357792 2.86546929,7.84357792 L4.9377937,7.84357792 L4.9377937,60.1978975 C4.9377937,61.3499859 5.86967806,62.2840897 7.01929164,62.2840897 L44.2966141,62.2840897 C45.0823715,62.2840897 45.8104087,62.6405626 46.2973363,63.2236451 C46.7206175,63.7304859 47.3405207,64.030164 47.9999594,64.030164 C48.6593981,64.030164 49.2793825,63.7304859 49.7026637,63.2236451 C50.1895913,62.6405626 50.9176285,62.2840897 51.7033859,62.2840897 L88.9807084,62.2840897 C90.1302408,62.2840897 91.0621251,61.3499859 91.0621251,60.1978975 L91.0621251,7.84357792 L93.1344495,7.84357792 C93.5120255,7.84357792 93.8181615,8.150335 93.8181615,8.52885858 L93.8181615,64.3611687 Z M7.11963218,2.89445528 L39.281779,2.89445528 C43.4874765,2.89445528 46.9090402,6.32395056 46.9090402,10.5392973 L46.9090402,60.877401 C46.8975936,60.8699152 46.8854163,60.8635685 46.8738885,60.8560826 C46.8026922,60.8104352 46.730197,60.7667407 46.6566464,60.7248362 C46.6400853,60.7153975 46.6240113,60.7051451 46.6072879,60.6959506 C46.5174198,60.6461534 46.4257657,60.5996109 46.3327315,60.5555095 C46.3081335,60.5439553 46.2829672,60.5334588 46.2581256,60.5221487 C46.1878222,60.4904152 46.1167883,60.4601463 46.0448613,60.4317489 C46.0133628,60.4192996 45.9817832,60.4071758 45.94996,60.3953774 C45.8777895,60.3686888 45.8048071,60.3438716 45.7312565,60.3206003 C45.7045478,60.3121381 45.6781637,60.3029435 45.6512926,60.2948881 C45.5521698,60.2655142 45.4520728,60.2389069 45.3507581,60.2158798 C45.3310309,60.2113232 45.3109791,60.2080685 45.2912519,60.2038374 C45.2083654,60.1860991 45.1248295,60.1704765 45.0406441,60.1571322 C45.0070349,60.1518433 44.9732633,60.1472866 44.9394918,60.1425673 C44.8644799,60.1323149 44.7889809,60.1240968 44.7130761,60.1174246 C44.6809281,60.1145767 44.6489426,60.111322 44.6167134,60.1091251 C44.510609,60.1019647 44.4040175,60.0972454 44.2966141,60.0972454 L7.11963218,60.0972454 L7.11963218,5.65673358 L7.11963218,2.89445528 Z M56.718221,2.89445528 L88.8802866,2.89445528 L88.8802866,5.65673358 L88.8802866,60.0972454 L51.7033859,60.0972454 C51.5959825,60.0972454 51.489391,60.1019647 51.3832866,60.1091251 C51.3510574,60.111322 51.3190719,60.1145767 51.2869239,60.1174246 C51.2110191,60.1240968 51.1354389,60.1323149 51.0605082,60.1425673 C51.0266555,60.1472053 50.9929651,60.1518433 50.9594371,60.1571322 C50.8750893,60.1704765 50.7916346,60.1860991 50.7087481,60.2038374 C50.6889398,60.2081499 50.6688879,60.2114046 50.6492419,60.2158798 C50.5479272,60.2389069 50.4478302,60.2655142 50.3487074,60.2948881 C50.3218363,60.3029435 50.2954522,60.3121381 50.2687435,60.3206003 C50.1951117,60.3438716 50.1222105,60.3686888 50.05004,60.3953774 C50.0182168,60.4071758 49.9866372,60.4192996 49.9550575,60.4316675 C49.8831305,60.4601463 49.8120154,60.4904966 49.7416309,60.5223114 C49.7168705,60.5335402 49.6918665,60.5439553 49.6673497,60.5555095 C49.5743155,60.5995296 49.4825802,60.6461534 49.3927933,60.6959506 C49.3760698,60.7051451 49.3598335,60.7153975 49.3432724,60.7248362 C49.2697219,60.7667407 49.1972266,60.8104352 49.1261927,60.8560826 C49.1145837,60.8635685 49.1024064,60.8699152 49.0908786,60.877401 L49.0908786,10.5392973 C49.0908786,6.32395056 52.5124424,2.89445528 56.718221,2.89445528 L56.718221,2.89445528 Z M93.1344495,5.65673358 L91.0621251,5.65673358 L91.0621251,2.79372179 C91.0621251,1.64342344 90.1283736,0.707692308 88.9807084,0.707692308 L56.718221,0.707692308 C52.9258194,0.707692308 49.6317109,2.87744938 47.9999594,6.0420107 C46.3682891,2.87744938 43.0740994,0.707692308 39.281779,0.707692308 L7.01929164,0.707692308 C5.87162642,0.707692308 4.9377937,1.64342344 4.9377937,2.79372179 L4.9377937,5.65673358 L2.86546929,5.65673358 C1.28534933,5.65673358 0,6.94519467 0,8.52885858 L0,64.3611687 C0,65.9446699 1.28534933,67.233131 2.86546929,67.233131 L41.1533412,67.233131 L41.5325407,67.9931074 C42.0601404,69.0507277 43.1206977,69.7076923 44.300592,69.7076923 L51.699408,69.7076923 C52.8792211,69.7076923 53.9397784,69.0507277 54.4672157,67.9932701 L54.8466588,67.233131 L93.1344495,67.233131 C94.7146507,67.233131 96,65.9446699 96,64.3611687 L96,8.52885858 C96,6.94519467 94.7146507,5.65673358 93.1344495,5.65673358 L93.1344495,5.65673358 Z" id="Fill-1"></path>
                    <path d="M16.0730857,14.7076923 L30.9269143,14.7076923 C31.5195949,14.7076923 32,14.2599322 32,13.7076923 C32,13.1554524 31.5195949,12.7076923 30.9269143,12.7076923 L16.0730857,12.7076923 C15.4804051,12.7076923 15,13.1554524 15,13.7076923 C15,14.2599322 15.4804051,14.7076923 16.0730857,14.7076923" id="Fill-3"></path>
                    <path d="M16.0604726,21.7076923 L37.9395274,21.7076923 C38.5252416,21.7076923 39,21.2599156 39,20.7076551 C39,20.1553946 38.5252416,19.7076923 37.9395274,19.7076923 L16.0604726,19.7076923 C15.4747584,19.7076923 15,20.1553946 15,20.7076551 C15,21.2599156 15.4747584,21.7076923 16.0604726,21.7076923" id="Fill-5"></path>
                    <path d="M16.0604726,36.7076923 L37.9395274,36.7076923 C38.5252416,36.7076923 39,36.2599322 39,35.7076923 C39,35.155378 38.5252416,34.7076923 37.9395274,34.7076923 L16.0604726,34.7076923 C15.4747584,34.7076923 15,35.155378 15,35.7076923 C15,36.2599322 15.4747584,36.7076923 16.0604726,36.7076923" id="Fill-7"></path>
                    <path d="M16.0604726,51.7076923 L37.9395274,51.7076923 C38.5252416,51.7076923 39,51.2599322 39,50.7076923 C39,50.155378 38.5252416,49.7076923 37.9395274,49.7076923 L16.0604726,49.7076923 C15.4747584,49.7076923 15,50.155378 15,50.7076923 C15,51.2599322 15.4747584,51.7076923 16.0604726,51.7076923" id="Fill-9"></path>
                    <path d="M35.104699,14.7076923 L37.895301,14.7076923 C38.5054421,14.7076923 39,14.2599322 39,13.7076923 C39,13.1554524 38.5054421,12.7076923 37.895301,12.7076923 L35.104699,12.7076923 C34.4946401,12.7076923 34,13.1554524 34,13.7076923 C34,14.2599322 34.4946401,14.7076923 35.104699,14.7076923" id="Fill-11"></path>
                    <path d="M16.148834,28.7076923 L26.851166,28.7076923 C27.4856835,28.7076923 28,28.2599322 28,27.7076923 C28,27.1554524 27.4856835,26.7076923 26.851166,26.7076923 L16.148834,26.7076923 C15.5143165,26.7076923 15,27.1554524 15,27.7076923 C15,28.2599322 15.5143165,28.7076923 16.148834,28.7076923" id="Fill-13"></path>
                    <path d="M37.8953192,26.7076923 L30.1045986,26.7076923 C29.4945498,26.7076923 29,27.1554524 29,27.7076923 C29,28.2599322 29.4945498,28.7076923 30.1045986,28.7076923 L37.8953192,28.7076923 C38.5054502,28.7076923 39,28.2599322 39,27.7076923 C39,27.1554524 38.5054502,26.7076923 37.8953192,26.7076923" id="Fill-15"></path>
                    <path d="M16.0310072,43.7076923 L20.9689928,43.7076923 C21.5384329,43.7076923 22,43.2599322 22,42.7076923 C22,42.155378 21.5384329,41.7076923 20.9689928,41.7076923 L16.0310072,41.7076923 C15.4615671,41.7076923 15,42.155378 15,42.7076923 C15,43.2599322 15.4615671,43.7076923 16.0310072,43.7076923" id="Fill-17"></path>
                    <path d="M37.8953313,41.7076923 L25.1046687,41.7076923 C24.4945443,41.7076923 24,42.155378 24,42.7076923 C24,43.2599322 24.4945443,43.7076923 25.1046687,43.7076923 L37.8953313,43.7076923 C38.5054557,43.7076923 39,43.2599322 39,42.7076923 C39,42.155378 38.5054557,41.7076923 37.8953313,41.7076923" id="Fill-19"></path>
                    <path d="M65.0730908,14.7076923 L79.9269891,14.7076923 C80.5196725,14.7076923 81,14.2599322 81,13.7076923 C81,13.1554524 80.5196725,12.7076923 79.9269891,12.7076923 L65.0730908,12.7076923 C64.4804074,12.7076923 64,13.1554524 64,13.7076923 C64,14.2599322 64.4804074,14.7076923 65.0730908,14.7076923" id="Fill-21"></path>
                    <path d="M58.0604726,21.7076923 L79.9395274,21.7076923 C80.5252416,21.7076923 81,21.2599156 81,20.7076551 C81,20.1553946 80.5252416,19.7076923 79.9395274,19.7076923 L58.0604726,19.7076923 C57.4747584,19.7076923 57,20.1553946 57,20.7076551 C57,21.2599156 57.4747584,21.7076923 58.0604726,21.7076923" id="Fill-23"></path>
                    <path d="M58.0604726,36.7076923 L79.9395274,36.7076923 C80.5252416,36.7076923 81,36.2599322 81,35.7076923 C81,35.155378 80.5252416,34.7076923 79.9395274,34.7076923 L58.0604726,34.7076923 C57.4747584,34.7076923 57,35.155378 57,35.7076923 C57,36.2599322 57.4747584,36.7076923 58.0604726,36.7076923" id="Fill-25"></path>
                    <path d="M58.0604726,51.7076923 L79.9395274,51.7076923 C80.5252416,51.7076923 81,51.2599322 81,50.7076923 C81,50.155378 80.5252416,49.7076923 79.9395274,49.7076923 L58.0604726,49.7076923 C57.4747584,49.7076923 57,50.155378 57,50.7076923 C57,51.2599322 57.4747584,51.7076923 58.0604726,51.7076923" id="Fill-27"></path>
                    <path d="M58.104699,14.7076923 L60.895301,14.7076923 C61.5054421,14.7076923 62,14.2599322 62,13.7076923 C62,13.1554524 61.5054421,12.7076923 60.895301,12.7076923 L58.104699,12.7076923 C57.4945579,12.7076923 57,13.1554524 57,13.7076923 C57,14.2599322 57.4945579,14.7076923 58.104699,14.7076923" id="Fill-29"></path>
                    <path d="M79.851166,26.7076923 L69.1487485,26.7076923 C68.5143165,26.7076923 68,27.1554524 68,27.7076923 C68,28.2599322 68.5143165,28.7076923 69.1487485,28.7076923 L79.851166,28.7076923 C80.4856835,28.7076923 81,28.2599322 81,27.7076923 C81,27.1554524 80.4856835,26.7076923 79.851166,26.7076923" id="Fill-31"></path>
                    <path d="M58.1046717,28.7076923 L65.8953283,28.7076923 C66.5053721,28.7076923 67,28.2599322 67,27.7076923 C67,27.1554524 66.5053721,26.7076923 65.8953283,26.7076923 L58.1046717,26.7076923 C57.4945457,26.7076923 57,27.1554524 57,27.7076923 C57,28.2599322 57.4945457,28.7076923 58.1046717,28.7076923" id="Fill-33"></path>
                    <path d="M79.9690041,41.7076923 L75.0310726,41.7076923 C74.4616388,41.7076923 74,42.155378 74,42.7076923 C74,43.2599322 74.4616388,43.7076923 75.0310726,43.7076923 L79.9690041,43.7076923 C80.5384379,43.7076923 81,43.2599322 81,42.7076923 C81,42.155378 80.5384379,41.7076923 79.9690041,41.7076923" id="Fill-35"></path>
                    <path d="M58.1046687,43.7076923 L70.8954135,43.7076923 C71.5055379,43.7076923 72,43.2599322 72,42.7076923 C72,42.155378 71.5055379,41.7076923 70.8954135,41.7076923 L58.1046687,41.7076923 C57.4945443,41.7076923 57,42.155378 57,42.7076923 C57,43.2599322 57.4945443,43.7076923 58.1046687,43.7076923" id="Fill-37"></path>
                </g>
            </g>
        </g>
    </g>
</svg>