<?xml version="1.0" encoding="UTF-8"?>
<svg width="60px" height="84px" viewBox="0 0 60 84" version="1.1" xmlns="http://www.w3.org/2000/svg" xmlns:xlink="http://www.w3.org/1999/xlink">
    <!-- Generator: Sketch 53.2 (72643) - https://sketchapp.com -->
    <title>Group 36</title>
    <desc>Created with Sketch.</desc>
    <defs>
        <polygon id="path-1" points="0 0.0266425558 59.6893333 0.0266425558 59.6893333 83.9240506 0 83.9240506"></polygon>
        <polygon id="path-3" points="0 84 60 84 60 0 0 0"></polygon>
    </defs>
    <g id="Page-1" stroke="none" stroke-width="1" fill="none" fill-rule="evenodd">
        <g id="Assets-Copy-2" transform="translate(-1203.000000, -1174.000000)">
            <g id="Group-36" transform="translate(1203.000000, 1174.000000)">
                <g id="Group">
                    <g id="Group-3">
                        <mask id="mask-2" fill="white">
                            <use xlink:href="#path-1"></use>
                        </mask>
                        <g id="Clip-2"></g>
                        <path d="M55.69,9.10242917 C56.426,9.10242917 57.0233333,9.70055455 57.0233333,10.434557 L57.0233333,69.9367089 C57.0233333,70.1058891 56.9833333,70.2457625 56.938,70.3736468 L53.7753333,76.6066727 L53.7753333,17.7612598 C53.7753333,15.5579204 51.982,13.7648764 49.7753333,13.7648764 L5.29666667,13.7648764 L10.3286667,9.50739602 C10.6606667,9.31556962 11.082,9.11974684 11.2593333,9.10242917 L11.4353333,9.10242917 L11.4353333,11.2391621 L22.658,11.2391621 L22.658,9.10242917 L55.69,9.10242917 Z M51.1086667,79.9276673 C51.1086667,80.1368113 51.0513333,80.3286377 50.9646667,80.5058107 L50.686,80.8921278 C50.446,81.1172574 50.13,81.2597951 49.7753333,81.2597951 L9.40466667,81.2597951 L9.40466667,16.429132 L49.7753333,16.429132 C50.5113333,16.429132 51.1086667,17.0272574 51.1086667,17.7612598 L51.1086667,79.9276673 Z M6.738,81.2597951 L3.99933333,81.2597951 C3.26466667,81.2597951 2.666,80.6630018 2.666,79.9276673 L2.666,17.7612598 C2.666,17.5467872 2.72866667,17.3509644 2.82066667,17.1724593 L3.094,16.7954671 C3.33133333,16.5716697 3.64866667,16.429132 3.99933333,16.429132 L6.738,16.429132 L6.738,81.2597951 Z M14.102,8.57490657 L19.9913333,8.57490657 L19.9913333,2.69089813 L14.102,2.69089813 L14.102,8.57490657 Z M11.4353333,0.0266425558 L11.4353333,6.4381736 L11.2446667,6.4381736 L11.2446667,7.77030139 L11.242,6.4381736 C10.2086667,6.43950573 9.01266667,7.17617239 8.67,7.40130199 L8.46866667,7.53451477 L1.002,15.1396323 L0.982,15.1689391 C0.882,15.2848342 0.774,15.3954008 0.688666667,15.521953 C0.254,16.1613743 -0.000666666667,16.9313442 -0.000666666667,17.7612598 L-0.000666666667,79.9276673 C-0.000666666667,80.7562508 0.254,81.5275527 0.688666667,82.1669741 C0.782,82.3041832 0.895333333,82.4254069 1.00466667,82.5506269 C1.73933333,83.385871 2.80333333,83.9240506 3.99933333,83.9240506 L49.7753333,83.9240506 C50.9726667,83.9240506 52.0366667,83.385871 52.77,82.5506269 L52.774,82.5546233 L52.8286667,82.478692 L53.194,81.9724834 L58.7433333,72.42912 L58.7873333,72.4637553 C58.9753333,72.2346293 59.1246667,71.9801929 59.2566667,71.7177637 L59.4393333,71.4646594 L59.3873333,71.428692 C59.5793333,70.9571187 59.69,70.4522423 59.69,69.9367089 L59.69,10.434557 C59.69,8.2312176 57.8953333,6.4381736 55.69,6.4381736 L22.658,6.4381736 L22.658,0.0266425558 L11.4353333,0.0266425558 Z" id="Fill-1" fill="#D2D2D2" mask="url(#mask-2)"></path>
                    </g>
                    <mask id="mask-4" fill="white">
                        <use xlink:href="#path-3"></use>
                    </mask>
                    <g id="Clip-5"></g>
                    <polygon id="Fill-4" fill="#D2D2D2" mask="url(#mask-4)" points="15 67 43 67 43 65 15 65"></polygon>
                    <polygon id="Fill-6" fill="#D2D2D2" mask="url(#mask-4)" points="20 73 37 73 37 71 20 71"></polygon>
                    <path d="M18.3807965,47.1804612 C20.8658072,40.0123203 26.1391068,33.0710788 31.5126085,32.4360291 C32.0430113,32.3742695 32.4224431,31.8909335 32.3596498,31.3579213 C32.2968565,30.8249092 31.8158867,30.4409256 31.2854839,30.506713 C25.0328763,31.2464855 19.6019254,38.4723582 16.8603975,45.8083241 C16.1816956,43.2560417 15.6325884,40.1882009 16.0908458,39.1517138 C16.3166344,38.6401832 16.49299,38.1810141 16.6573213,37.7500395 C17.1877242,36.352393 17.5390993,35.4300269 19.238526,33.8940926 C21.0742275,32.2346391 22.6306992,33.241589 22.6467316,33.2509872 C22.9419936,33.449692 23.3267695,33.469831 23.6393998,33.2993208 C23.9533662,33.1301532 24.1484262,32.8012162 24.1484262,32.4427421 L24.1484262,29.0043437 C25.0729571,28.2471174 27.9975208,26.0680777 32.0977885,25.1336282 C34.9769272,24.4744116 37.7264713,24.1817248 39.6009176,24.0488075 C37.2588618,26.4775707 33.3202534,30.8061128 32.4237791,33.3315432 C31.635523,35.5441478 31.2480751,36.9646185 31.0677114,37.7111041 L26.5840039,38.7838414 C26.1765156,38.8818512 25.8772455,39.2322698 25.8438448,39.6525036 C25.8117802,40.0727373 26.050929,40.4674617 26.439713,40.6272311 L29.0770308,41.7187648 C27.1838802,43.2802085 23.4924368,46.1574001 21.2265346,46.808561 C20.0160939,47.1562944 19.0848829,47.2153688 18.3807965,47.1804612 M31.5540254,42.157795 C31.8051985,41.936266 31.9254409,41.5992734 31.8706638,41.2689938 C31.8158867,40.9373717 31.5941062,40.6581109 31.2841478,40.5305639 L29.9454485,39.9760701 L32.1058046,39.4591692 C32.4839003,39.369215 32.7711462,39.060417 32.8352755,38.6764334 C32.8379476,38.6630074 33.0917927,37.2264255 34.2434482,33.9840468 C35.1719872,31.3726899 40.6670673,25.6518717 42.7045089,23.6701943 C42.9890827,23.3949613 43.0772605,22.9747275 42.9289615,22.6068552 C42.7819985,22.2403254 42.4266152,22 42.0324872,22 C41.8307471,22 37.0304011,22.0147686 31.6675877,23.2378771 C26.1618193,24.4958932 22.6707801,27.7087348 22.5251531,27.84568 C22.3287571,28.0282736 22.2165308,28.2873954 22.2165308,28.5572579 L22.2165308,31.0665772 C21.0408268,30.8638446 19.4709948,31.0679198 17.9452516,32.4494551 C15.9011299,34.2982151 15.41348,35.5763702 14.8510125,37.0559153 C14.6973693,37.4586953 14.534374,37.8869847 14.3246177,38.362265 C13.2624761,40.7655189 15.1142099,46.8461538 15.4963136,48.0410678 C15.5697951,48.2706523 15.7274464,48.4653293 15.9372026,48.5861633 L15.9599151,48.5982467 C15.3253022,50.8752962 14.9592307,53.0865582 14.9592307,55.0293003 C14.9592307,55.5649976 15.3934395,56 15.9265144,56 C16.4609253,56 16.8937982,55.5649976 16.8937982,55.0293003 C16.8937982,53.1697994 17.2224609,51.1411309 17.7876004,49.0882957 C18.0574779,49.1191755 18.3340356,49.1487127 18.6653703,49.1487127 C19.5030594,49.1487127 20.5331364,49.0278787 21.7556014,48.6774601 C25.3094339,47.6570842 31.3015162,42.3820092 31.5540254,42.157795" id="Fill-7" fill="#D2D2D2" mask="url(#mask-4)"></path>
                    <path d="M45.9498237,56.1161012 C45.3815144,54.4592775 44.3433327,53.2363532 42.8379036,52.5377237 C36.8279997,49.7496628 28.7338574,58.7466153 26.9029301,58.0260327 C26.5065574,57.8671946 26.212559,57.7367665 25.9973102,57.6282917 C26.1954966,57.5456442 26.4107454,57.4655795 26.5866194,57.3984284 C28.0237989,56.8508889 30.1946617,56.0244141 29.790414,54.0951121 C29.6657272,53.499792 29.2890418,53.0219863 28.7259825,52.7495079 C26.4947449,51.6750907 21.1253374,54.0834898 19.5332838,54.8505617 C19.062099,55.0765509 18.8665375,55.6344213 19.0962238,56.0993134 C19.32591,56.5629141 19.8929068,56.7579105 20.3654042,56.5280472 C24.0259462,54.7756624 27.4358022,53.9724323 27.9306119,54.4721912 C28.010674,54.8518531 26.5314947,55.414889 25.9014982,55.6563746 C23.9485092,56.4014932 23.258138,57.8994787 25.053628,59.2373347 C26.835993,60.5648598 28.9110439,59.9488778 30.6356593,58.9842268 C33.4233937,57.4229644 38.464678,52.520936 42.0057832,54.2152092 C43.0426525,54.7136768 43.7435235,55.531112 44.1503963,56.714004 C44.3170828,57.203432 44.8552048,57.4681622 45.353952,57.3002845 C45.8500743,57.1362809 46.1178228,56.6055292 45.9498237,56.1161012" id="Fill-8" fill="#D2D2D2" mask="url(#mask-4)"></path>
                </g>
            </g>
        </g>
    </g>
</svg>