<?xml version="1.0" encoding="UTF-8"?>
<svg width="59px" height="75px" viewBox="0 0 59 75" version="1.1" xmlns="http://www.w3.org/2000/svg" xmlns:xlink="http://www.w3.org/1999/xlink">
    <!-- Generator: Sketch 53.2 (72643) - https://sketchapp.com -->
    <title>Self-Help Icon 2</title>
    <desc>Created with Sketch.</desc>
    <defs>
        <polygon id="path-1" points="0.000402272727 0.211741071 58.7613182 0.211741071 58.7613182 75 0.000402272727 75"></polygon>
        <polygon id="path-3" points="0 75 59 75 59 0 0 0"></polygon>
    </defs>
    <g id="Page-1" stroke="none" stroke-width="1" fill="none" fill-rule="evenodd">
        <g id="Assets-Copy-3" transform="translate(-983.000000, -940.000000)">
            <g id="Self-Help-Icon-2" transform="translate(983.000000, 940.000000)">
                <g id="Self-Help-Icon">
                    <g id="Group-3">
                        <mask id="mask-2" fill="white">
                            <use xlink:href="#path-1"></use>
                        </mask>
                        <g id="Clip-2"></g>
                        <path d="M56.0799023,69.5278125 C56.0799023,70.3367411 54.0940159,72.3215625 53.2827659,72.3215625 L8.05256136,72.3309375 C7.62347045,72.2224554 6.80819773,71.5769196 5.93928864,70.7492411 L50.0605614,70.7492411 C52.278425,70.7492411 54.0832886,68.9465625 54.0832886,66.7313839 L54.0832886,5.00236607 C55.0943341,5.80861607 55.9444705,6.62825893 56.0799023,7.02334821 L56.0799023,69.5278125 Z M2.68222045,66.7313839 L2.68222045,4.22959821 C2.68222045,3.4903125 3.28294773,2.8903125 4.02312955,2.8903125 L7.48669773,2.8903125 L7.48669773,68.0706696 L4.02312955,68.0706696 C3.28294773,68.0706696 2.68222045,67.4706696 2.68222045,66.7313839 L2.68222045,66.7313839 Z M10.1685159,2.8903125 L50.0605614,2.8903125 C50.7994023,2.8903125 51.4014705,3.4903125 51.4014705,4.22959821 L51.4014705,66.7313839 C51.4014705,67.4706696 50.7994023,68.0706696 50.0605614,68.0706696 L10.1685159,68.0706696 L10.1685159,2.8903125 Z M50.6009477,0.211741071 L50.6009477,0.266651786 C50.4212659,0.242544643 50.2442659,0.211741071 50.0605614,0.211741071 L4.02312955,0.211741071 C2.81899318,0.211741071 1.74894773,0.7528125 1.01144773,1.59254464 C0.901493182,1.7184375 0.787515909,1.8403125 0.692311364,1.97691964 C0.256515909,2.62111607 0.000402272727,3.39522321 0.000402272727,4.22959821 L0.000402272727,66.7313839 C0.000402272727,67.5657589 0.256515909,68.3398661 0.692311364,68.9840625 C0.787515909,69.1206696 0.901493182,69.2425446 1.01144773,69.3684375 C1.19515227,69.5773661 1.39762955,69.7688839 1.62156136,69.9362946 C3.44787955,72.3537054 6.36569773,75.0001339 7.95199318,75.0001339 L53.2827659,75.0001339 C55.5877886,75.0001339 58.7617205,71.8300446 58.7617205,69.5278125 L58.7617205,7.02334821 C58.7617205,4.59120536 52.6860614,0.211741071 50.6009477,0.211741071 L50.6009477,0.211741071 Z" id="Fill-1" fill="#5BAF00" mask="url(#mask-2)"></path>
                    </g>
                    <mask id="mask-4" fill="white">
                        <use xlink:href="#path-3"></use>
                    </mask>
                    <g id="Clip-5"></g>
                    <polygon id="Fill-4" fill="#5BAF00" mask="url(#mask-4)" points="16 15 44 15 44 13 16 13"></polygon>
                    <polygon id="Fill-6" fill="#5BAF00" mask="url(#mask-4)" points="16 23 44 23 44 21 16 21"></polygon>
                    <path d="M26.0193232,37.6418562 C27.4245223,37.6418562 29.6904559,39.3894441 30.2949717,40.6469676 C30.5151596,41.1066506 30.9848938,41.4012176 31.4986655,41.4012176 C32.0137718,41.4012176 32.4835059,41.1066506 32.7050283,40.6469676 C33.3095441,39.3894441 35.5781467,37.6418562 36.9806768,37.6418562 C39.9285257,37.6418562 41.3310558,38.3472318 41.3310558,42.3615323 C41.3310558,48.7363313 33.4203053,54.8086377 31.5,55.2696416 C29.5796947,54.8086377 21.6689442,48.7363313 21.6689442,42.3615323 C21.6689442,38.3472318 23.0728088,37.6418562 26.0193232,37.6418562 M30.3390093,57.6671261 C30.3763745,57.6988284 30.4137397,57.7278888 30.4524394,57.7569492 C30.7433543,57.9616931 31.1076652,58.0396278 31.4572969,57.9788652 L31.5,57.9722605 L31.5427031,57.9788652 C31.618768,57.9933954 31.6975019,58 31.7735668,58 C32.0498025,58 32.3207003,57.9167815 32.5488951,57.7569492 C32.5875947,57.7278888 32.62496,57.6988284 32.6609907,57.6671261 C36.11327,56.3488399 44,49.6570181 44,42.3615323 C44,37.3393637 41.7700971,35 36.9806768,35 C35.1150849,35 32.9292196,36.305077 31.5,37.8241443 C30.0721149,36.305077 27.8849151,35 26.0193232,35 C21.2312373,35 19,37.3393637 19,42.3615323 C19,49.6570181 26.88673,56.3488399 30.3390093,57.6671261" id="Fill-7" fill="#5BAF00" mask="url(#mask-4)"></path>
                </g>
            </g>
        </g>
    </g>
</svg>