<?xml version="1.0" encoding="UTF-8"?>
<svg width="112px" height="63px" viewBox="0 0 112 63" version="1.1" xmlns="http://www.w3.org/2000/svg" xmlns:xlink="http://www.w3.org/1999/xlink">
    <!-- Generator: Sketch 53.2 (72643) - https://sketchapp.com -->
    <title>Group 35</title>
    <desc>Created with Sketch.</desc>
    <defs>
        <polygon id="path-1" points="0 0 25 0 25 28 0 28"></polygon>
        <polygon id="path-3" points="0 0.272920755 50.9999469 0.272920755 50.9999469 55.9997887 0 55.9997887"></polygon>
        <polygon id="path-5" points="0 56 113 56 113 -6 0 -6"></polygon>
    </defs>
    <g id="Page-1" stroke="none" stroke-width="1" fill="none" fill-rule="evenodd">
        <g id="Assets-Copy" transform="translate(-773.000000, -1194.000000)">
            <g id="Group-35" transform="translate(773.000000, 1194.000000)">
                <g id="Group-10" transform="translate(70.000000, 15.000000)">
                    <path d="M14.25,10.5 C14.25,11.3559615 13.4376563,12.0684615 12.375,12.20625 L11.625,12.20625 C10.5623438,12.0684615 9.75,11.3559615 9.75,10.5 C9.75,9.54567308 10.7594063,8.76923077 12,8.76923077 C13.2405938,8.76923077 14.25,9.54567308 14.25,10.5 Z M12,13 C13.6542188,13 15,11.8785577 15,10.5 C15,9.12144231 13.6542188,8 12,8 C10.3457812,8 9,9.12144231 9,10.5 C9,11.8785577 10.3457812,13 12,13" id="Fill-1" stroke="#A0A2A4" stroke-width="0.75" fill="#C8CACC"></path>
                    <path d="M13.5,7 C13.7756875,7 14,6.7756875 14,6.5 C14,6.2243125 13.7756875,6 13.5,6 C13.2243125,6 13,6.2243125 13,6.5 C13,6.7756875 13.2243125,7 13.5,7" id="Fill-3" fill="#C8CACC"></path>
                    <path d="M10.5,7 C10.7756875,7 11,6.7756875 11,6.5 C11,6.2243125 10.7756875,6 10.5,6 C10.2243125,6 10,6.2243125 10,6.5 C10,6.7756875 10.2243125,7 10.5,7" id="Fill-5" fill="#C8CACC"></path>
                    <g id="Group-9">
                        <mask id="mask-2" fill="white">
                            <use xlink:href="#path-1"></use>
                        </mask>
                        <g id="Clip-8"></g>
                        <path d="M21.2358133,15.830437 C21.0910133,16.3401957 20.58888,16.6680128 20.0674578,16.5931062 L17.8023022,16.2673475 C17.6873689,16.2512385 17.5718133,16.2916899 17.4926133,16.3768883 C17.4133244,16.4621763 17.3802578,16.580935 17.40408,16.6952191 C17.4949244,17.1315031 17.5607911,17.5778105 17.60408,18.0302035 C17.1201689,18.0591996 16.6358133,18.2270907 16.1926133,18.5106977 C15.8348356,16.5036121 14.0891467,14.9753202 11.9942133,14.9753202 C9.89936889,14.9753202 8.15359111,16.5036121 7.79581333,18.5106977 C7.35270222,18.2270907 6.86825778,18.0591996 6.38434667,18.0302035 C6.42763556,17.5778105 6.49350222,17.1315031 6.58443556,16.6952191 C6.60816889,16.580935 6.57510222,16.4621763 6.49590222,16.3768883 C6.42816889,16.3042191 6.33394667,16.2637677 6.23643556,16.2637677 C6.21972444,16.2637677 6.20292444,16.2649311 6.18612444,16.2673475 L3.92096889,16.5931062 C3.39972444,16.6681918 2.89741333,16.3401957 2.75261333,15.8303475 C2.59652444,15.2797794 2.89670222,14.7066588 3.43616889,14.5257016 L8.06532444,12.9722619 C8.10950222,12.9573163 8.14950222,12.9332424 8.18434667,12.9029934 C9.23501333,13.5352696 10.5431911,13.9013903 11.9942133,13.9013903 C13.4452356,13.9013903 14.7534133,13.5352696 15.80408,12.9029934 C15.8389244,12.9332424 15.8789244,12.9573163 15.9231022,12.9722619 L20.5523467,14.5257016 C21.0918133,14.7066588 21.3919911,15.2798689 21.2358133,15.830437 M18.3892356,18.8647366 C18.9100356,19.0791646 19.2969689,19.5476665 19.4788356,20.1840595 C19.6695022,20.8510595 19.6131467,21.6154292 19.3203467,22.3365732 C19.0274578,23.0578066 18.5358133,23.6430089 17.9357244,23.9844292 C17.36328,24.3100984 16.7611467,24.3716704 16.2401689,24.1573319 C15.1342133,23.7020751 14.7164356,22.1446977 15.30888,20.6854953 C15.7903022,19.5001451 16.7924356,18.7387288 17.7445244,18.7387288 C17.9643467,18.7387288 18.1817689,18.7793591 18.3892356,18.8647366 M11.9942133,24.2827132 C10.9035467,24.2827132 9.89999111,24.2400245 9.04994667,24.0022385 C9.71545778,23.0994214 9.86719111,21.718437 9.33768,20.4145965 C9.12025778,19.8789739 8.81128,19.4158416 8.44665778,19.0429195 C8.56399111,17.1749973 10.1098578,15.6912735 11.9942133,15.6912735 C13.87848,15.6912735 15.4244356,17.1749973 15.5417689,19.0429195 C15.1772356,19.4158416 14.8681689,19.8789739 14.6507467,20.4145965 C14.1213244,21.718437 14.2729689,23.0994214 14.93848,24.0022385 C14.0885244,24.2400245 13.0849689,24.2827132 11.9942133,24.2827132 M7.74834667,24.1573319 C7.22745778,24.3716704 6.62514667,24.3101879 6.05270222,23.9844292 C5.45261333,23.6430089 4.96096889,23.0578066 4.66808,22.3365732 C4.37528,21.6154292 4.31901333,20.8510595 4.50959111,20.1840595 C4.69145778,19.5476665 5.07839111,19.0791646 5.59928,18.8647366 C5.80683556,18.7793591 6.02399111,18.7387288 6.24399111,18.7387288 C7.19599111,18.7387288 8.19821333,19.5002346 8.67954667,20.6854953 C9.27199111,22.1446977 8.85421333,23.7020751 7.74834667,24.1573319 M6.30532444,8.53174047 C6.30532444,8.05393113 6.38745778,7.58426576 6.54950222,7.1359 C6.58336889,7.04219961 6.57688,6.93856537 6.53163556,6.84987665 C6.48639111,6.76118794 6.40648,6.69558872 6.31110222,6.66874047 C5.47039111,6.4321179 4.88310222,5.65262374 4.88310222,4.7729856 C4.88310222,3.68733191 5.76034667,2.80411401 6.83865778,2.80411401 C7.69919111,2.80411401 8.47030222,3.38403619 8.71385778,4.21418405 C8.74274667,4.31289611 8.81243556,4.3942463 8.90514667,4.43747198 C8.99776889,4.48087665 9.10452444,4.4817716 9.19803556,4.44042529 C10.0402578,4.06732412 10.9810578,3.87804397 11.9942133,3.87804397 C13.0074578,3.87804397 13.9482578,4.06732412 14.7903911,4.44042529 C14.8839022,4.4817716 14.9906578,4.48087665 15.08328,4.43747198 C15.1759911,4.3942463 15.24568,4.31289611 15.2746578,4.21418405 C15.5182133,3.38403619 16.2893244,2.80411401 17.1497689,2.80411401 C18.22808,2.80411401 19.1053244,3.68733191 19.1053244,4.7729856 C19.1053244,5.65262374 18.5181244,6.4321179 17.6774133,6.66874047 C17.5820356,6.69558872 17.5020356,6.76118794 17.4567911,6.84987665 C17.4116356,6.93856537 17.4050578,7.04219961 17.4389244,7.1359 C17.6009689,7.58426576 17.6831022,8.05393113 17.6831022,8.53174047 C17.6831022,11.1847949 15.2375022,13.185437 11.9942133,13.185437 C8.75101333,13.185437 6.30532444,11.1847949 6.30532444,8.53174047 M20.7771467,13.8464409 L16.5029244,12.4121179 C17.6818578,11.4493397 18.3942133,10.0883125 18.3942133,8.53174047 C18.3942133,8.09062374 18.3345689,7.65532412 18.2167022,7.23335914 C19.1743022,6.81175214 19.8164356,5.84700506 19.8164356,4.7729856 C19.8164356,3.29257315 18.6201689,2.0881607 17.1497689,2.0881607 C16.1082578,2.0881607 15.1628356,2.71121907 14.7311022,3.6430323 C13.8898578,3.32380661 12.9710133,3.16209066 11.9942133,3.16209066 C11.0174133,3.16209066 10.0985689,3.32380661 9.25732444,3.6430323 C8.82568,2.71121907 7.88016889,2.0881607 6.83865778,2.0881607 C5.36825778,2.0881607 4.17199111,3.29257315 4.17199111,4.7729856 C4.17199111,5.84700506 4.81421333,6.81175214 5.77172444,7.23335914 C5.65385778,7.65532412 5.59421333,8.09062374 5.59421333,8.53174047 C5.59421333,10.0883125 6.30656889,11.4493397 7.48559111,12.4121179 L3.21136889,13.8464409 C2.30959111,14.1490206 1.80790222,15.1068767 2.06896889,16.0270556 C2.31074667,16.8792191 3.14959111,17.4275498 4.02150222,17.3019 L5.79483556,17.0468416 C5.73714667,17.3916626 5.69350222,17.7414058 5.66319111,18.0943708 C5.55074667,18.121935 5.43954667,18.1571062 5.33021333,18.2021218 C4.60372444,18.5011218 4.06959111,19.1347405 3.82621333,19.9861879 C3.59154667,20.8070284 3.65679111,21.7380362 4.00994667,22.6075615 C4.36301333,23.4769973 4.96416889,24.1874019 5.70283556,24.6076665 C6.16070222,24.8682735 6.63848,25.0000089 7.10408,25.0000089 C7.41732444,25.0000089 7.72514667,24.9403163 8.01741333,24.8199467 C8.17945778,24.7532735 8.33021333,24.66897 8.47039111,24.5708844 C9.49928,24.9353047 10.7218578,24.9986665 11.9942133,24.9986665 C13.2666578,24.9986665 14.4892356,24.9353047 15.5181244,24.5708844 C15.6582133,24.66897 15.8089689,24.7532735 15.9710133,24.8199467 C16.2633689,24.9403163 16.5710133,25.0000089 16.8844356,25.0000089 C17.3498578,25.0000089 17.8278133,24.868184 18.28568,24.6076665 C19.0242578,24.1874019 19.6255022,23.4769973 19.97848,22.6075615 C20.3316356,21.7380362 20.39688,20.8070284 20.1623022,19.9861879 C19.9189244,19.1347405 19.3847911,18.5011218 18.6583022,18.2021218 C18.54888,18.1571062 18.43768,18.121935 18.3253244,18.0943708 C18.2950133,17.7414058 18.2513689,17.3916626 18.1935911,17.0468416 L19.9670133,17.3019 C20.83768,17.4271918 21.6778578,16.8792191 21.9194578,16.0269661 C22.1806133,15.1068767 21.6788356,14.1490206 20.7771467,13.8464409" id="Fill-7" stroke="#A0A2A4" stroke-width="0.75" fill="#A0A2A4" mask="url(#mask-2)"></path>
                    </g>
                </g>
                <g id="Group-25">
                    <g id="Group-2">
                        <rect id="Rectangle-4-Copy" stroke="#A0A2A4" stroke-width="2" x="14" y="10" width="32" height="16"></rect>
                        <rect id="Rectangle-2-Copy" stroke="#A0A2A4" stroke-width="2" x="65" y="8" width="34" height="40"></rect>
                        <path d="M56.3425112,57.1550807 L56.3425112,9.85704142 L56.4132004,9.59664311 L56.4032516,9.43487262 C56.3974917,9.33467928 56.3823066,9.23605147 56.3451293,8.95791059 C56.3451293,4.95696101 59.6156853,1.7001557 63.6407837,1.7001557 L105.294556,1.7001557 L105.294556,54.1858094 L63.6407837,54.1858094 C60.3304322,54.1858094 57.8306508,55.2221842 56.3425112,57.1550807 L56.3425112,57.1550807 Z M54.5936067,9.54550276 C54.5998902,9.64987082 54.618217,9.74380208 54.6396856,9.77198145 L54.6396856,57.1389036 C53.151546,55.2159221 50.6554299,54.1858094 47.3503147,54.1858094 L5.70230191,54.1858094 L5.70230191,1.7001557 L47.3503147,1.7001557 C51.3691296,1.7001557 54.6396856,4.95696101 54.6396856,8.95791059 C54.6396856,9.03462111 54.6297368,9.10820059 54.6213588,9.17864903 L54.5873232,9.4656612 L54.5936067,9.54550276 Z M107,55.882834 L107,0 L63.6407837,0 C60.0230649,0 56.9216394,2.14632915 55.4926693,5.21266275 C54.0626519,2.14632915 50.96175,0 47.3503147,0 L4,0 L4,55.882834 L47.3503147,55.882834 C50.0344118,55.882834 53.421736,56.6588105 54.2961882,60.3466559 L54.4501337,61 L54.6396856,61 L56.3425112,61 L56.5477718,61 L56.7017173,60.3466559 C57.5756459,56.6588105 60.9598284,55.882834 63.6407837,55.882834 L107,55.882834 Z" id="Fill-1-Copy" fill="#A0A2A4"></path>
                        <g id="Group-2-Copy" transform="translate(0.000000, 7.000000)">
                            <polygon id="Fill-4" fill="#A0A2A4" points="109.933922 54.2788981 61.005468 54.2788981 61.005468 56.0001057 111.646891 56.0001057 111.646891 0.272709434 109.933922 0.272709434"></polygon>
                            <mask id="mask-4" fill="white">
                                <use xlink:href="#path-3"></use>
                            </mask>
                            <g id="Clip-8"></g>
                            <polygon id="Fill-7" fill="#A0A2A4" mask="url(#mask-4)" points="1.73075937 0.272920755 -5.3125e-05 0.272920755 -5.3125e-05 55.9997887 50.9999469 55.9997887 50.9999469 54.2791094 1.73075937 54.2791094"></polygon>
                            <mask id="mask-6" fill="white">
                                <use xlink:href="#path-5"></use>
                            </mask>
                            <g id="Clip-11"></g>
                            <polygon id="Fill-10" fill="#A0A2A4" mask="url(#mask-6)" points="13 28 47 28 47 26 13 26"></polygon>
                            <polygon id="Fill-12" fill="#A0A2A4" mask="url(#mask-6)" points="13 34 47 34 47 32 13 32"></polygon>
                            <polygon id="Fill-13" fill="#A0A2A4" mask="url(#mask-6)" points="13 41 47 41 47 39 13 39"></polygon>
                        </g>
                    </g>
                </g>
            </g>
        </g>
    </g>
</svg>