<?xml version="1.0" encoding="UTF-8"?>
<svg width="70px" height="90px" viewBox="0 0 70 90" version="1.1" xmlns="http://www.w3.org/2000/svg" xmlns:xlink="http://www.w3.org/1999/xlink">
    <!-- Generator: Sketch 53.2 (72643) - https://sketchapp.com -->
    <title>Group 30</title>
    <desc>Created with Sketch.</desc>
    <g id="Page-1" stroke="none" stroke-width="1" fill="none" fill-rule="evenodd">
        <g id="Assets-Copy-3" transform="translate(-348.000000, -937.000000)" fill="#5BAF00">
            <g id="Group-30" transform="translate(348.000000, 937.000000)">
                <g id="Group-7">
                    <path d="M10,87 L68,87 L68,20 L10,20 L10,87 Z M68.8574798,90 L9.14252018,90 C8.51108736,90 8,89.4921429 8,88.8655462 L8,19.1344538 C8,18.5078571 8.51108736,18 9.14252018,18 L68.8574798,18 C69.4889126,18 70,18.5078571 70,19.1344538 L70,88.8655462 C70,89.4921429 69.4889126,90 68.8574798,90 L68.8574798,90 Z" id="Fill-1"></path>
                    <path d="M23.2685978,50.7577714 L54.7314022,50.7577714 L54.7314022,33.2422286 L23.2685978,33.2422286 L23.2685978,50.7577714 Z M55.8657011,53 L22.1342989,53 C21.5077878,53 21,52.4981145 21,51.8788857 L21,32.1211143 C21,31.5018855 21.5077878,31 22.1342989,31 L55.8657011,31 C56.4922122,31 57,31.5018855 57,32.1211143 L57,51.8788857 C57,52.4981145 56.4922122,53 55.8657011,53 L55.8657011,53 Z" id="Fill-3"></path>
                    <path d="M55.8657011,60 L22.1342989,60 C21.5077878,60 21,59.552 21,59 C21,58.4476667 21.5077878,58 22.1342989,58 L55.8657011,58 C56.4922122,58 57,58.4476667 57,59 C57,59.552 56.4922122,60 55.8657011,60" id="Fill-4"></path>
                    <path d="M55.8657011,66 L22.1342989,66 C21.5077878,66 21,65.552 21,65 C21,64.448 21.5077878,64 22.1342989,64 L55.8657011,64 C56.4922122,64 57,64.448 57,65 C57,65.552 56.4922122,66 55.8657011,66" id="Fill-5"></path>
                    <path d="M68.8659274,7 L10.7382813,7 L10.7382813,4.58814747 L67.7318548,4.58814747 L67.7318548,2.41185253 L10,2.41185253 L10,0 L68.8659274,0 C69.4923135,0 70,0.539852992 70,1.20592627 L70,5.79407373 C70,6.46014701 69.4923135,7 68.8659274,7" id="Fill-6"></path>
                    <polygon id="Fill-7" points="10 20 69 20 69 18 10 18"></polygon>
                    <path d="M11,15 C8.24276974,15 6,12.7567522 6,9.9994904 C6,7.2429081 8.24276974,5 11,5 L11,7.03838967 C9.39300612,7.03838967 8.08565072,8.36674028 8.08565072,9.9994904 C8.08565072,11.63292 9.39300612,12.9616103 11,12.9616103 L11,15 Z" id="Fill-8"></path>
                    <path d="M10,20 C4.48555097,20 0,15.5139246 0,9.9994194 C0,4.4856883 4.48555097,0 10,0 L10,2.32238586 C5.79906319,2.32238586 2.38170848,5.7664841 2.38170848,9.9994194 C2.38170848,14.2331288 5.79906319,17.6776141 10,17.6776141 L10,20 Z" id="Fill-9"></path>
                    <path d="M10,90 C4.48555097,90 0,85.5138378 0,80 L2.38170848,80 C2.38170848,84.2337914 5.79906319,87.6775692 10,87.6775692 L10,90 Z" id="Fill-10"></path>
                    <polygon id="Fill-11" points="0 80 2 80 2 8 0 8"></polygon>
                    <path d="M70,20 L67.7513673,20 L67.7513673,15.0688636 L11,15.0688636 L11,13 L68.8756836,13 C69.496681,13 70,13.4630806 70,14.0344318 L70,20 Z" id="Fill-12"></path>
                    <path d="M65,15 L62.7268867,15 L62.7268867,11.049748 L7,11.049748 L7,8.85820732 L62.7268867,8.85820732 L62.7268867,6.09577033 C62.7268867,5.49053985 63.2356853,5 63.8634434,5 C64.4912015,5 65,5.49053985 65,6.09577033 L65,15 Z" id="Fill-13"></path>
                </g>
            </g>
        </g>
    </g>
</svg>