<?xml version="1.0" encoding="UTF-8"?>
<svg width="92px" height="81px" viewBox="0 0 92 81" version="1.1" xmlns="http://www.w3.org/2000/svg" xmlns:xlink="http://www.w3.org/1999/xlink">
    <!-- Generator: Sketch 53.2 (72643) - https://sketchapp.com -->
    <title>Group 32</title>
    <desc>Created with Sketch.</desc>
    <defs>
        <polygon id="path-1" points="0.0004077042 0.363830458 91.9693333 0.363830458 91.9693333 81 0.0004077042 81"></polygon>
    </defs>
    <g id="Page-1" stroke="none" stroke-width="1" fill="none" fill-rule="evenodd">
        <g id="Assets-Copy" transform="translate(-781.000000, -950.000000)">
            <g id="Group-32" transform="translate(781.000000, 950.000000)">
                <g id="Group">
                    <g id="Group-3">
                        <mask id="mask-2" fill="white">
                            <use xlink:href="#path-1"></use>
                        </mask>
                        <g id="Clip-2"></g>
                        <path d="M37.4926286,15.6053127 L37.4926286,74.9061491 C23.096819,69.6941673 6.14545397,63.36144 2.96342222,61.6133127 L2.96342222,4.67767636 C2.96342222,4.41111273 2.9532,4.15485818 2.94005714,3.91185818 L37.4926286,15.6053127 Z M20.8961206,3.30951273 C35.3751683,3.30951273 41.1127556,9.74533091 44.1458349,14.7496582 L12.3079937,3.97518545 C15.3658984,3.54367636 18.2500254,3.30951273 20.8961206,3.30951273 L20.8961206,3.30951273 Z M44.3546603,77.37444 C43.0841841,76.92084 41.7684381,76.4480945 40.4132635,75.9606218 L40.4132635,16.5935127 L44.3546603,17.9278036 L44.3546603,77.37444 Z M47.2752952,18.0426764 L51.6080571,16.5773127 L51.6080571,75.9429491 C50.117073,76.4790218 48.6640571,77.0003673 47.2752952,77.4966764 L47.2752952,18.0426764 Z M70.7323746,3.30951273 C73.4500254,3.30951273 76.4159302,3.55104 79.5687556,4.00758545 L47.3921206,14.8969309 C50.4032952,9.87198545 56.1145968,3.30951273 70.7323746,3.30951273 L70.7323746,3.30951273 Z M89.0301524,3.91185818 C89.0170095,4.15485818 89.005327,4.41111273 89.005327,4.67767636 L89.005327,61.6133127 C85.8291365,63.3599673 68.9142794,69.67944 54.5286921,74.8870036 L54.5286921,15.5891127 L89.0301524,3.91185818 Z M0.0427873016,4.67767636 L0.0427873016,62.3290582 C0.0427873016,63.6162218 0.0544698413,64.7310764 45.1038032,80.7661309 C45.2746603,80.8677491 45.4601206,80.9472764 45.6631048,80.9767309 C45.7317397,80.98704 45.8909143,81.0002945 45.9610095,81.0002945 C45.9697714,81.0002945 45.9785333,80.9958764 45.9858349,80.9958764 C45.9945968,80.9958764 46.0033587,81.0002945 46.0121206,81.0002945 C46.0544698,81.0002945 46.2399302,80.9826218 46.2837397,80.9782036 C46.5173905,80.9575855 46.7232952,80.8677491 46.9116762,80.7499309 C91.9142794,64.7310764 91.9259619,63.6162218 91.9259619,62.3290582 L91.9259619,4.67767636 C91.9259619,4.45087636 91.9376444,4.23291273 91.949327,4.02673091 C91.9902159,3.21673091 92.041327,2.20791273 91.3286921,1.45093091 C90.8832952,0.97524 90.2597397,0.735185455 89.4770095,0.735185455 C89.3178349,0.735185455 89.161581,0.760221818 89.0111683,0.811767273 L85.0712317,2.14458545 C84.7499619,1.97669455 84.405327,1.84120364 84.0300254,1.76756727 C65.416819,-1.82588727 52.9778349,1.45093091 45.8149778,11.9676764 C38.6550413,1.45093091 26.2160571,-1.82736 7.59700952,1.76756727 C7.2772,1.82942182 6.97929524,1.94282182 6.69745397,2.07684 L2.95904127,0.811767273 C2.80862857,0.760221818 2.6523746,0.735185455 2.4932,0.735185455 C1.71193016,0.735185455 1.0883746,0.97524 0.642977778,1.44945818 C-0.0711174603,2.20644 -0.0214666667,3.17549455 0.0223428571,4.02967636 C0.0325650794,4.23438545 0.0427873016,4.45087636 0.0427873016,4.67767636 L0.0427873016,4.67767636 Z" id="Fill-1" fill="#A0A2A4" mask="url(#mask-2)"></path>
                    </g>
                    <path d="M62,36.3693751 C62,36.8613751 62.744,36.8613751 62.744,36.3693751 C62.744,35.8763751 62,35.8773751 62,36.3693751" id="Fill-4" fill="#C8CACC"></path>
                    <path d="M62.0047616,41.7641629 C63.1895408,42.2249746 64.3224211,42.2046233 64.3224211,41.3934784 C64.3224211,41.0300623 64.0214071,40.7349684 63.6507002,40.7349684 C62.6586885,40.7349684 61.7111617,40.3192203 61.0483378,39.5952953 C59.1577326,37.5238232 60.4566895,34.2123752 63.2503367,33.9100129 C65.0341783,33.7137682 66.5466625,34.8301826 67.0004077,36.3608915 L67.0122703,36.440843 C67.0211673,36.5077116 67.0419269,36.5687655 67.0701006,36.6254584 C67.1160683,36.8478691 67.1427592,37.0775481 67.1427592,37.3115882 C67.1427592,38.7521698 68.3275384,39.9281845 69.8148145,39.9281845 C71.8181146,39.9252772 72.734502,38.5588324 72.734502,37.3115882 C72.7389505,30.2932953 71.4399935,31.9257607 86.3809644,23.6965652 C86.0147059,26.5515625 84.3272481,29.1507149 81.7945786,30.6639798 L80.784773,31.2657969 C80.0240825,31.7193403 80.7269427,32.8459304 81.4846677,32.392387 L82.4915076,31.7891162 C83.2996486,31.3064995 84.0321655,30.7264874 84.6786783,30.0708846 C84.070719,33.7283048 81.7693705,36.5600435 78.6480185,38.0660401 C77.8502572,38.4512612 78.4448711,39.6330906 79.2411495,39.2493231 C79.856523,38.9513219 80.4333429,38.6068033 80.9775406,38.2273969 C80.6246276,40.0139507 79.4116747,41.5650109 77.688629,42.3398141 L75.1188888,43.4969312 C74.7526304,43.6626489 74.669592,43.9998991 74.7630102,44.2833637 C74.7674587,44.4432669 74.8356687,44.6046236 74.9958141,44.7427218 C77.1014293,46.5627099 79.7289998,46.271977 81.6166393,45.552413 C80.0774643,48.612377 77.4439625,50.1823348 74.592485,50.554473 C74.3478184,50.5820926 74.0972206,50.6053512 73.8436571,50.6257025 C68.6389322,50.9266111 62.9700823,47.402928 62.0047616,41.7641629 L62.0047616,41.7641629 Z M57.8750867,37.1531387 L58.8908236,36.497536 C58.8137166,36.926367 58.792957,37.3668274 58.8374418,37.8043805 L57.8750867,37.1531387 Z M79.684515,19.9446568 C79.761622,22.8214591 78.4908387,25.6401148 76.217664,27.5095275 L75.3131392,28.2538038 C75.2434463,28.3104967 75.194513,28.3730043 75.1544767,28.4369656 C70.9788341,31.0811815 71.3940259,32.2339376 71.3910602,37.3115882 C71.3910602,39.0472637 68.4847181,39.0501711 68.486201,37.3115882 C68.486201,36.9016547 68.4268879,36.4989896 68.3216071,36.1094075 C67.2243147,28.3628287 65.9416688,30.4633741 79.684515,19.9446568 L79.684515,19.9446568 Z M87.3433195,40.7378757 C87.2217276,40.7335147 84.3880441,40.6826364 82.0155199,41.4240054 C81.171791,41.685665 81.5691888,42.9416313 82.4232975,42.678518 C83.8230868,42.2424186 85.4571628,42.1101351 86.4387946,42.0708862 C85.9642898,43.4445992 84.6460561,46.2690696 81.3912495,48.3129221 C82.2883602,47.2488396 83.029774,45.9361804 83.5561778,44.356047 C83.7548767,43.7600445 83.0653619,43.2527155 82.5374752,43.6088633 C82.393641,43.7048052 79.2782202,45.7530187 76.6209931,44.2702808 L78.2491378,43.5376338 C80.7907043,42.3950534 82.4321945,39.8860282 82.4321945,37.1444167 C82.4321945,37.1109824 82.4262632,37.0819091 82.4232975,37.0499285 C84.7987873,34.798202 86.1867139,31.6844524 86.1867139,28.3119504 L86.1867139,28.140418 C87.218762,26.4687036 87.8000304,24.529515 87.8000304,22.5307261 C87.8000304,22.0248509 87.24397,21.7094056 86.7991217,21.9565286 C83.7148404,23.6544089 81.2474152,24.9801511 79.2708061,26.0645849 C80.698769,23.8724586 81.3141425,21.204984 80.9078477,18.5811193 C80.8722599,18.3514403 80.7135973,18.1551956 80.492656,18.0694294 C79.9899774,17.8731847 80.6201792,17.5577394 70.2819052,25.4685824 C68.7516271,26.6402361 65.9016325,28.8221867 66.3865171,31.946112 L66.6119069,33.571309 C65.6228609,32.8197644 64.3654231,32.4636166 63.102054,32.6002611 C61.7942,32.7412665 60.7221157,33.3619813 59.9777362,34.2283655 C59.9584595,34.2385411 59.9391827,34.2458094 59.9213888,34.2574388 L56.3018066,36.5891168 C55.9058917,36.8464155 55.8969947,37.416252 56.289944,37.6822726 L59.6218576,39.9369065 C59.7493808,40.1215219 59.8887666,40.3003226 60.0474291,40.4733087 C60.1971947,40.6390265 60.3692027,40.7916613 60.5515905,40.9355741 C61.0424064,47.41165 66.8536078,51.6636191 72.6203243,51.9485374 C72.7078111,51.9834253 72.8086434,52.0037766 72.924304,51.9994156 C73.1556251,51.9906936 73.3736007,51.9732497 73.5960249,51.958713 C74.1076004,51.9427227 74.6147274,51.8962054 75.117406,51.8162539 C86.0666049,50.3771259 87.9690727,41.6187965 87.9868666,41.5243083 C88.0684222,41.1245505 87.759994,40.7480513 87.3433195,40.7378757 L87.3433195,40.7378757 Z" id="Fill-6" stroke="#C8CACC" stroke-width="0.5" fill="#A0A2A4"></path>
                </g>
            </g>
        </g>
    </g>
</svg>