<?xml version="1.0" encoding="UTF-8"?>
<svg width="99px" height="84px" viewBox="0 0 99 84" version="1.1" xmlns="http://www.w3.org/2000/svg" xmlns:xlink="http://www.w3.org/1999/xlink">
    <!-- Generator: Sketch 53.2 (72643) - https://sketchapp.com -->
    <title>Group 38</title>
    <desc>Created with Sketch.</desc>
    <defs>
        <polygon id="path-1" points="0 0 99 0 99 84 0 84"></polygon>
    </defs>
    <g id="Page-1" stroke="none" stroke-width="1" fill="none" fill-rule="evenodd">
        <g id="Assets-Copy-3" transform="translate(-1395.000000, -1170.000000)">
            <g id="Group-38" transform="translate(1395.000000, 1170.000000)">
                <g id="Group-9">
                    <g id="Group-3">
                        <mask id="mask-2" fill="white">
                            <use xlink:href="#path-1"></use>
                        </mask>
                        <g id="Clip-2"></g>
                        <path d="M96.1633238,73.6622774 C96.1633238,74.3375208 95.6115903,74.8856264 94.9336246,74.8856264 L50.7353725,80.9882448 L50.7353725,77.2744059 L50.7353725,77.1063014 L50.9183381,77.092175 L50.9183381,77.0173049 L90.2672923,71.5729782 C92.3096991,71.5150598 93.9549713,69.8424903 93.9549713,67.7927451 L93.9549713,12.4934161 C93.9549713,11.9933404 93.852851,11.5172797 93.6741404,11.0793603 L95.0130516,10.894304 C95.6541404,10.9366833 96.1633238,11.4692498 96.1633238,12.117653 L96.1633238,73.6622774 Z M50.7353725,17.0195247 L50.7353725,16.4671813 L78.4142407,2.98915292 C78.4979226,3.15725745 78.5816046,3.42424701 78.5816046,3.78164573 L78.5816046,59.0823874 C78.5816046,59.5980021 78.4085673,59.9243227 78.3092837,60.0373341 L78.0936963,60.0373341 L50.7353725,73.3585591 L50.7353725,17.0195247 Z M81.4182808,59.0823874 L81.4182808,12.758993 L90.2332521,11.5384693 C90.7282521,11.5780233 91.1182951,11.9919278 91.1182951,12.4934161 L91.1182951,67.7927451 C91.1182951,68.3210736 90.6885387,68.7491045 90.1580802,68.7491045 L57.3675215,73.2752132 L78.8127937,62.8329549 C80.3006304,62.5984562 81.4182808,61.0360729 81.4182808,59.0823874 L81.4182808,59.0823874 Z M47.8986963,73.8303819 L20.5403725,60.509157 L20.3233668,60.509157 C20.2240831,60.3947329 20.0524642,60.0684123 20.0524642,59.5527975 L20.0524642,4.25346854 C20.0524642,3.89465718 20.1347278,3.62766763 20.2198281,3.46097573 L47.8986963,16.9375914 L47.8986963,73.8303819 Z M47.8986963,80.9345644 L4.26210602,74.8997528 L4.06637536,74.8856264 C3.38840974,74.8856264 2.83667622,74.3375208 2.83667622,73.6622774 L2.83667622,12.117653 C2.83667622,11.4692498 3.34727794,10.9366833 3.98836676,10.894304 L5.00815186,11.0355683 C4.81951289,11.4847889 4.71313754,11.9778013 4.71313754,12.4934161 L4.71313754,67.7927451 C4.71313754,69.8424903 6.35982808,71.5150598 8.40223496,71.5729782 L47.805086,77.0243681 L47.8986963,77.0384945 L47.8986963,80.9345644 Z M7.54981375,12.4934161 C7.54981375,11.9919278 7.94127507,11.5780233 8.43485673,11.5384693 L17.215788,12.7533424 L17.215788,59.5527975 C17.215788,61.506483 18.3320201,63.070279 19.8212751,63.3047778 L39.8907593,73.0774431 L8.70717765,68.7632309 L8.51144699,68.7491045 C7.98098854,68.7491045 7.54981375,68.3210736 7.54981375,67.7927451 L7.54981375,12.4934161 Z M98.106447,9.61444932 C97.3604011,8.67927955 96.222894,8.06619242 94.9336246,8.06619242 L90.2204871,8.71742092 C90.199212,8.71600827 90.1793553,8.7103577 90.1580802,8.7103577 L81.4182808,9.91675496 L81.4182808,3.78164573 C81.4182808,1.66126835 80.102063,0 78.4213324,0 L78.0936963,0 L49.009255,14.1617476 L48.7099857,14.1871752 L20.5403725,0.470410171 L20.2113181,0.470410171 C18.5320057,0.470410171 17.215788,2.13167852 17.215788,4.25346854 L17.215788,9.87437566 L4.26210602,8.08031885 L4.06637536,8.06619242 C2.77710602,8.06619242 1.63959885,8.67927955 0.894971347,9.61303668 C0.863767908,9.65400333 0.826891117,9.6921447 0.797106017,9.73311135 C0.302106017,10.4041168 0,11.2234499 0,12.117653 L0,73.6622774 C0,74.5550679 0.302106017,75.3715756 0.795687679,76.0425811 C0.826891117,76.0849604 0.86234957,76.1231018 0.894971347,76.1640684 C1.61974212,77.072398 2.7132808,77.6770092 3.95858166,77.7095 L47.9611032,83.7965794 L47.9611032,83.8036426 L49.1780372,83.9773977 L49.3283811,83.9872862 L49.3553295,83.9886989 L49.5283668,84 C49.5354585,84 49.5411318,83.9985874 49.5482235,83.9985874 L49.5709169,84 L49.6248138,83.9915241 C49.6858023,83.9901115 49.7496275,83.9872862 49.7964327,83.980223 L51.1013037,83.8756874 L51.1013037,83.7881035 L95.0414183,77.7095 C96.2867192,77.6770092 97.3802579,77.072398 98.106447,76.1640684 C98.1390688,76.1231018 98.1731089,76.0849604 98.202894,76.0439937 C98.697894,75.3729882 99,74.5550679 99,73.6622774 L99,12.117653 C99,11.2234499 98.697894,10.4027042 98.202894,9.7316987 C98.1731089,9.69073205 98.1390688,9.65400333 98.106447,9.61444932 L98.106447,9.61444932 Z" id="Fill-1" fill="#5BAF00" mask="url(#mask-2)"></path>
                    </g>
                </g>
            </g>
        </g>
    </g>
</svg>