<?xml version="1.0" encoding="UTF-8"?>
<svg width="57px" height="75px" viewBox="0 0 57 75" version="1.1" xmlns="http://www.w3.org/2000/svg" xmlns:xlink="http://www.w3.org/1999/xlink">
    <!-- Generator: Sketch 53.2 (72643) - https://sketchapp.com -->
    <title>Group 36</title>
    <desc>Created with Sketch.</desc>
    <defs>
        <polygon id="path-1" points="0 0.0390819672 56.7120261 0.0390819672 56.7120261 75 0 75"></polygon>
        <polygon id="path-3" points="0 75 57 75 57 0 0 0"></polygon>
    </defs>
    <g id="Page-1" stroke="none" stroke-width="1" fill="none" fill-rule="evenodd">
        <g id="Assets-Copy-3" transform="translate(-999.000000, -1171.000000)">
            <g id="Group-36" transform="translate(999.000000, 1171.000000)">
                <g id="Group">
                    <g id="Group-3">
                        <mask id="mask-2" fill="white">
                            <use xlink:href="#path-1"></use>
                        </mask>
                        <g id="Clip-2"></g>
                        <path d="M54.2337652,61.9180328 C54.2337652,62.0762623 54.1965913,62.2058361 54.1544609,62.3266885 L49.9773522,68.1562623 L49.9773522,13.1210492 C49.9773522,11.0603279 48.3107217,9.38334426 46.2599609,9.38334426 L10.0488522,9.38334426 L15.3907435,2.53088525 L52.9946348,2.53088525 C53.6773957,2.53088525 54.2337652,3.08904918 54.2337652,3.77678689 L54.2337652,61.9180328 Z M47.4990913,71.2622951 C47.4990913,71.4579016 47.4445696,71.6385574 47.3640261,71.8030164 L47.106287,72.1643279 C46.8844826,72.3748852 46.5895696,72.5081967 46.2599609,72.5081967 L8.74156957,72.5081967 L8.74156957,11.8751475 L46.2599609,11.8751475 C46.9439609,11.8751475 47.4990913,12.4333115 47.4990913,13.1210492 L47.4990913,71.2622951 Z M4.9238087,9.38334426 L9.60028696,2.90839344 C9.90883043,2.7277377 10.3028739,2.54583607 10.4652,2.53088525 L12.2408739,2.53088525 L6.89898261,9.38334426 L4.9238087,9.38334426 Z M6.2633087,72.5081967 L3.71689565,72.5081967 C3.03413478,72.5081967 2.47776522,71.9500328 2.47776522,71.2622951 L2.47776522,13.1210492 C2.47776522,12.9316721 2.52733043,12.756 2.60291739,12.5952787 L2.87676522,12.2152787 C3.09856957,12.008459 3.39100435,11.8751475 3.71689565,11.8751475 L6.2633087,11.8751475 L6.2633087,72.5081967 Z M52.9946348,0.0390819672 L10.4515696,0.0390819672 C9.49000435,0.0390819672 8.37726522,0.728065574 8.0588087,0.938622951 L7.87046087,1.06321311 L0.931330435,10.6678689 L0.912743478,10.6965246 C0.819808696,10.804918 0.720678261,10.9083279 0.641373913,11.0266885 C0.236178261,11.6247213 -0.000495652174,12.3448525 -0.000495652174,13.1210492 L-0.000495652174,71.2622951 C-0.000495652174,72.0384918 0.236178261,72.758623 0.641373913,73.3566557 C0.726873913,73.4849836 0.83343913,73.5983607 0.935047826,73.7154754 C1.61656957,74.4966557 2.60415652,75 3.71689565,75 L46.2599609,75 C47.3727,75 48.3615261,74.4966557 49.0430478,73.7154754 L49.0467652,73.7192131 L49.0975696,73.6481967 L49.4370913,73.1735082 L55.8322435,64.2491148 L55.8731348,64.2827541 C56.0490913,64.068459 56.1878739,63.8292459 56.3105478,63.5825574 L56.4790696,63.347082 L56.4319826,63.3134426 C56.6091783,62.8723934 56.7120261,62.4001967 56.7120261,61.9180328 L56.7120261,3.77678689 C56.7120261,1.71606557 55.0441565,0.0390819672 52.9946348,0.0390819672 L52.9946348,0.0390819672 Z" id="Fill-1" fill="#5BAF00" mask="url(#mask-2)"></path>
                    </g>
                    <mask id="mask-4" fill="white">
                        <use xlink:href="#path-3"></use>
                    </mask>
                    <g id="Clip-5"></g>
                    <path d="M15.5957447,30.4831857 L42.4042553,30.4831857 L42.4042553,21.5155333 L15.5957447,21.5155333 L15.5957447,30.4831857 Z M14,32 L44,32 L44,20 L14,20 L14,32 Z" id="Fill-4" fill="#5BAF00" mask="url(#mask-4)"></path>
                    <path d="M22.5302637,46.9944808 L24.9502664,46.9944808 C26.8956142,46.9944808 28.7204536,46.0631328 29.9058615,44.48378 C30.5846427,45.2245384 31.4909141,45.7111773 32.4697363,45.857296 L32.4697363,50.4937066 C32.4697363,53.324598 30.2403334,55.6281914 27.5006148,55.6281914 C24.7596666,55.6281914 22.5302637,53.324598 22.5302637,50.4937066 L22.5302637,46.9944808 Z M33.0968712,44.177566 C32.1856811,44.177566 31.3396639,43.7099861 30.8330373,42.9260274 L30.5858724,42.5423069 L29.1385435,42.5423069 L28.8950676,42.9603335 C28.0674956,44.3834028 26.5562235,45.2690093 24.9502664,45.2690093 L20.8603634,45.2690093 L20.8603634,47.6323208 C20.5701599,46.8712329 20.4201394,46.0567798 20.4201394,45.2270796 L20.4201394,44.3325789 C20.4201394,42.2792932 21.3202623,40.3772087 22.8880995,39.1167759 C24.0058751,38.219734 25.4003279,37.7242009 26.8144555,37.7242009 L27.7022817,37.7242009 C29.808717,37.7242009 31.7061074,39.0176692 32.5373685,41.0188604 L32.7537915,41.541076 L33.3046864,41.541076 C34.0080612,41.541076 34.5798606,42.1331745 34.5798606,42.8599563 L34.5798606,45.2270796 C34.5798606,46.0567798 34.4298401,46.8712329 34.1396366,47.6323208 L34.1396366,44.177566 L33.0968712,44.177566 Z M29.7447739,63.0243399 L31.7356196,64.4931507 L32.9210275,58.9838396 L35.0250034,59.4666667 C37.559366,60.0473298 39.3300997,62.3267818 39.3300997,65.0115545 L39.3300997,66.2745285 L29.8345402,66.2745285 L29.4275174,63.3521541 L29.7447739,63.0243399 Z M27.3161634,62.7143141 L26.6324635,62.0078618 L27.5006148,61.3687512 L28.3675365,62.0078618 L27.6838366,62.7143141 L28.1572619,66.2745285 L26.8427381,66.2745285 L27.3161634,62.7143141 Z M23.7095232,58.6090133 L24.1140866,58.5149891 L26.1344446,60.2557078 L24.3477251,61.574588 L23.7095232,58.6090133 Z M25.1691488,57.1770498 L25.1691488,56.9114949 C26.6668944,57.4997816 28.3318759,57.4997816 29.8308512,56.9114949 L29.8308512,57.1770498 L27.5006148,59.184594 L25.1691488,57.1770498 Z M28.8655554,60.2557078 L30.8859134,58.5149891 L31.2904768,58.6090133 L30.6522749,61.574588 L28.8655554,60.2557078 Z M22.0789725,58.9838396 L23.2643804,64.4931507 L25.2552261,63.0243399 L25.5724826,63.3521541 L25.1654598,66.2745285 L15.6699003,66.2745285 L15.6699003,65.0115545 C15.6699003,62.3267818 17.440634,60.0473298 19.9749966,59.4666667 L22.0789725,58.9838396 Z M35.3877579,57.7805837 L31.5007515,56.8898948 L31.5007515,55.9572762 C33.0722776,54.7273377 34.020358,52.88243 34.1224211,50.8545563 C35.4959694,49.3158626 36.2509906,47.3235656 36.2509906,45.2270796 L36.2509906,42.8599563 C36.2509906,41.3962279 35.2340484,40.1396069 33.8580407,39.8702402 C32.6640251,37.4789756 30.3190327,36 27.7022817,36 L26.8144555,36 C25.0301954,36 23.2717584,36.6225928 21.8637792,37.7546953 C19.8840005,39.3442128 18.7490094,41.7418305 18.7490094,44.3325789 L18.7490094,45.2270796 C18.7490094,47.3235656 19.5040306,49.3158626 20.8775789,50.8545563 C20.979642,52.88243 21.9277224,54.7286083 23.4992485,55.9572762 L23.4992485,56.8898948 L19.6122421,57.7805837 C16.3081022,58.540401 14,61.5135994 14,65.0115545 L14,68 L41,68 L41,65.0115545 C41,61.5135994 38.6918978,58.540401 35.3877579,57.7805837 L35.3877579,57.7805837 Z" id="Fill-6" fill="#5BAF00" mask="url(#mask-4)"></path>
                </g>
            </g>
        </g>
    </g>
</svg>