<svg xmlns="http://www.w3.org/2000/svg" width="93.009" height="80.687" viewBox="0 0 93.009 80.687">
  <g id="Group_56" data-name="Group 56" transform="translate(9431.335 -341.669)">
    <g id="Group_53" data-name="Group 53" transform="translate(-9545 189.697)">
      <path id="Path_68" data-name="Path 68" d="M466.585,155.419l-.076-3.1q-1.348.034-2.669.152l.27,3.092C464.928,155.488,465.753,155.439,466.585,155.419Z" transform="translate(-306.606)" fill="#c9cacd" stroke="#fff" stroke-width="0.67"/>
      <path id="Path_69" data-name="Path 69" d="M415.8,160.684l-.555-3.056q-1.3.236-2.574.553l.749,3.013Q414.591,160.9,415.8,160.684Z" transform="translate(-261.759 -4.651)" fill="#c9cacd" stroke="#fff" stroke-width="0.67"/>
      <path id="Path_70" data-name="Path 70" d="M365.468,174.894l-1.055-2.919q-1.123.4-2.216.871l1.216,2.856Q364.427,175.273,365.468,174.894Z" transform="translate(-217.526 -17.209)" fill="#c9cacd" stroke="#fff" stroke-width="0.67"/>
      <path id="Path_71" data-name="Path 71" d="M489.712,773.628l.079,3.1q1.321-.034,2.618-.15l-.276-3.092Q490.935,773.6,489.712,773.628Z" transform="translate(-329.281 -544.417)" fill="#c9cacd" stroke="#fff" stroke-width="0.67"/>
      <path id="Path_72" data-name="Path 72" d="M537.859,766.139l.561,3.053q1.248-.23,2.467-.531l-.749-3.013Q539.013,765.928,537.859,766.139Z" transform="translate(-371.479 -537.553)" fill="#c9cacd" stroke="#fff" stroke-width="0.67"/>
      <path id="Path_73" data-name="Path 73" d="M587.684,750.157l1.067,2.916c.765-.28,1.523-.582,2.268-.9l-1.234-2.849Q588.75,749.77,587.684,750.157Z" transform="translate(-415.149 -523.26)" fill="#c9cacd" stroke="#fff" stroke-width="0.67"/>
      <path id="Path_74" data-name="Path 74" d="M205.691,216.9,194.92,203.066a3.081,3.081,0,0,0-4.993.18l-4.549,6.8c-6.691-8-16.886-12.435-25.145-12.773a28.093,28.093,0,0,0-10.671,1.779c-10.457,3.86-21.711,15.05-21.711,30.5a32.009,32.009,0,0,0,4.979,17.132l-4.98,7.457L117.076,240.3l7.732.007-.482-1.914a36.323,36.323,0,0,1-1.093-8.852,36.869,36.869,0,0,1,18.97-32.017l-1.509-2.681a39.952,39.952,0,0,0-20.539,34.7,39.538,39.538,0,0,0,.754,7.689l-3.832,0a3.072,3.072,0,0,0-2.43,4.959l10.771,13.832a3.081,3.081,0,0,0,4.994-.182l4.314-6.461a32.291,32.291,0,0,0,57.761-19.833,29.727,29.727,0,0,0-5.15-16.9l5.151-7.69,10.771,13.831h-7.624l.482,1.912a35.954,35.954,0,0,1,.986,8.846,36.938,36.938,0,0,1-18.411,31.7l1.554,2.654a40.023,40.023,0,0,0,19.935-34.351,41.434,41.434,0,0,0-.658-7.685h3.736a3.072,3.072,0,0,0,2.43-4.959ZM138.5,249.076a29.029,29.029,0,0,1-7.569-19.535c0-.493.041-.975.067-1.46,4.332.508,7.628,3.209,7.628,5.49A3.419,3.419,0,0,1,138,235.85a4.842,4.842,0,0,0-.911,2.9,6.034,6.034,0,0,0,1.543,3.7,6,6,0,0,1,1.535,3.982A3.5,3.5,0,0,1,138.5,249.076Zm40.376,2.886a2.559,2.559,0,0,1-1.776-2.44c0-1.063.965-3.074,4.617-3.074a3.249,3.249,0,0,1,1.78.63A29.443,29.443,0,0,1,178.874,251.962Zm8.879-31.871a27.145,27.145,0,0,1,1.657,9.451,28.95,28.95,0,0,1-4.2,15,6.307,6.307,0,0,0-3.5-1.167c-5.645,0-7.695,3.677-7.695,6.148a5.4,5.4,0,0,0,2.189,4.409,29.109,29.109,0,0,1-35.512-2.666,6.273,6.273,0,0,0,2.544-4.832,8.969,8.969,0,0,0-2.136-5.807c-.619-.837-.942-1.3-.942-1.878a1.85,1.85,0,0,1,.424-1.238,6.366,6.366,0,0,0,1.115-3.938c0-4.1-4.757-7.867-10.378-8.539,1.907-11.2,10.647-19.907,19.305-23.1a25.792,25.792,0,0,1,8.751-1.6c.286,0,.529.006.726.014a31.921,31.921,0,0,1,14.567,4.584,15.674,15.674,0,0,0-1.989,1.532c-1.087.946-1.805,1.57-3.281,1.57a4.766,4.766,0,0,1-2.241-.91c-.329-.192-.676-.392-1.05-.591l-.071-.057c-2.225-1.728-5.81-1.481-5.81-1.481l-.062.059v-.094c-3.566,0-6.156,1.939-6.156,4.611a4.972,4.972,0,0,0,1.733,3.929c.721.723,1.345,1.349,1.345,3.755h3.078c0-3.4-1.061-4.74-2.242-5.924a1.978,1.978,0,0,1-.836-1.76c0-.8,1.236-1.462,2.807-1.531.1.017.213.031.333.041a12.539,12.539,0,0,1,4.445,1.044l-.052.1c.355.189.681.378.991.558a6.708,6.708,0,0,0,9.091-1,8.848,8.848,0,0,1,2.932-1.868,30.008,30.008,0,0,1,8.631,9.894,5.426,5.426,0,0,1-2.6,2.576c-1.555.938-3.493,2.106-3.493,5.555,0,5.666-.8,7.685-1.539,7.685-1.335,0-1.676-.614-2.029-3.647-.258-2.22-.648-5.574-4.127-5.574a6.59,6.59,0,0,0-3.051.8,6.255,6.255,0,0,1-3.105.74c-1.68,0-3.078-2.232-3.078-3.074H160.17c0,2.418,2.644,6.148,6.156,6.148a9.193,9.193,0,0,0,4.42-1.034,3.655,3.655,0,0,1,1.736-.5c.525,0,.768.258,1.07,2.855.277,2.382.741,6.367,5.086,6.367,4.058,0,4.617-5.171,4.617-10.758,0-1.714.628-2.094,2.006-2.924A10.662,10.662,0,0,0,187.753,220.091Z" transform="translate(0 -37.227)" fill="#c9cacd" stroke="#fff" stroke-width="0.67"/>
      <path id="Path_75" data-name="Path 75" d="M389.707,419.126a5.582,5.582,0,0,0-1.84,3.823c0,1.4-.182,4.647-1.867,4.647-1.123,0-2.789-3.906-2.789-9.3,0-2.636-1.657-4.012-2.865-5.016-1.178-.978-1.792-1.543-1.792-2.745,0-4.134,3.981-6.209,6.209-6.209v-3.1c-3.806,0-9.313,3.317-9.313,9.313,0,2.715,1.683,4.112,2.912,5.132,1.146.952,1.745,1.5,1.745,2.628,0,5.977,1.845,12.408,5.893,12.408,1.495,0,4.972-.755,4.972-7.752,0-.556.379-1.005,1.047-1.751a6.388,6.388,0,0,0,2.057-4.443h-3.1C390.972,417.672,390.516,418.225,389.707,419.126Z" transform="translate(-229.201 -218.287)" fill="#c9cacd" stroke="#fff" stroke-width="0.67"/>
    </g>
  </g>
</svg>
