<?xml version="1.0" encoding="UTF-8"?>
<svg width="107px" height="101px" viewBox="0 0 107 101" version="1.1" xmlns="http://www.w3.org/2000/svg" xmlns:xlink="http://www.w3.org/1999/xlink">
    <!-- Generator: Sketch 53.2 (72643) - https://sketchapp.com -->
    <title>Group 26</title>
    <desc>Created with Sketch.</desc>
    <g id="Phase-2---Title-Setup" stroke="none" stroke-width="1" fill="none" fill-rule="evenodd">
        <g id="Group-26" transform="translate(0.869565, 0.000000)">
            <polygon id="Fill-1-Copy-2" fill="#D1D3D5" points="50 24 9 6.60331414 9 2"></polygon>
            <polygon id="Fill-2-Copy" fill="#D1D3D5" points="16 0 16 4.40190485 49 23"></polygon>
            <polygon id="Fill-3-Copy" fill="#DBDDDF" points="0 78.3625571 49 101 49 26.6596363 0 6"></polygon>
            <polygon id="Fill-3-Copy-2" fill="#DBDDDF" transform="translate(81.630435, 53.500000) scale(-1, 1) translate(-81.630435, -53.500000) " points="57.1304348 78.3625571 106.130435 101 106.130435 26.6596363 57.1304348 6"></polygon>
            <polygon id="Fill-13-Copy" fill="#D1D3D5" points="49 101 57 101 57 27 49 27"></polygon>
            <polygon id="Path-8" fill="#E4E6E8" points="102.130435 8 68.1304348 96 106.130435 78.3625571 106.130435 6"></polygon>
            <polygon id="Path-8-Copy" fill="#E4E6E8" points="26.1304348 17 3.94351218e-13 78.3625571 49.1304348 100.970614 49.1304348 27"></polygon>
        </g>
    </g>
</svg>