<?xml version="1.0" encoding="UTF-8"?>
<svg width="64px" height="76px" viewBox="0 0 64 76" version="1.1" xmlns="http://www.w3.org/2000/svg" xmlns:xlink="http://www.w3.org/1999/xlink">
    <!-- Generator: Sketch 53.2 (72643) - https://sketchapp.com -->
    <title>Group 41</title>
    <desc>Created with Sketch.</desc>
    <defs>
        <polygon id="path-1" points="1.92e-05 0.0258845188 63.9999552 0.0258845188 63.9999552 76 1.92e-05 76"></polygon>
        <polygon id="path-3" points="0 76 64 76 64 0 0 0"></polygon>
    </defs>
    <g id="Page-1" stroke="none" stroke-width="1" fill="none" fill-rule="evenodd">
        <g id="Assets-Copy-3" transform="translate(-174.000000, -1358.000000)">
            <g id="Group-41" transform="translate(173.962264, 1358.000000)">
                <g id="Group-3">
                    <mask id="mask-2" fill="white">
                        <use xlink:href="#path-1"></use>
                    </mask>
                    <g id="Clip-2"></g>
                    <path d="M62.2702912,67.2092676 L14.3460032,67.2092676 C14.2565312,67.2092676 14.1838272,67.1369563 14.1838272,67.0481095 L14.1838272,7.07317054 L14.1838272,7.04868519 L62.2702912,7.04868519 L62.2702912,67.2092676 Z M56.9328832,74.2810835 L9.7605312,74.2810835 C5.4972352,74.2810835 2.0007232,70.9623321 1.7461312,66.7881831 C1.9511872,64.0346936 4.2694592,61.8561329 7.0918592,61.8561329 C10.0485952,61.8561329 12.4540992,64.2465396 12.4540992,67.1846551 L12.4610112,67.1846551 C12.5319232,68.1575187 13.3492032,68.928076 14.3460032,68.928076 L56.9328832,68.928076 L56.9328832,74.2810835 Z M1.7297472,7.07317054 C1.7297472,4.13505506 4.1351232,1.74477556 7.0918592,1.74477556 C10.0485952,1.74477556 12.4540992,4.13505506 12.4540992,7.07317054 L12.4540992,62.5772107 C11.1526592,61.0836676 9.2314432,60.1372609 7.0918592,60.1372609 C4.9524032,60.1372609 3.0311232,61.0836676 1.7297472,62.5772107 L1.7297472,7.07317054 Z M62.4741312,5.32981322 L13.9637952,5.32981322 C13.1809472,2.28440736 10.3969472,0.02584 7.0918592,0.02584 C3.1813952,0.02584 1.92e-05,3.18724921 1.92e-05,7.07317054 L1.92e-05,67.1846551 L0.0423232,67.1846551 C0.4933952,72.1199488 4.6786112,76.0000191 9.7605312,76.0000191 L57.1367232,76.0000191 C57.9780672,76.0000191 58.6626112,75.3197078 58.6626112,74.4837078 L58.6626112,68.928076 L62.4741312,68.928076 C63.3154752,68.928076 63.9999552,68.2478919 63.9999552,67.4118283 L63.9999552,6.84606092 C63.9999552,6.01006092 63.3154752,5.32981322 62.4741312,5.32981322 L62.4741312,5.32981322 Z" id="Fill-1" fill="#5BAF00" mask="url(#mask-2)"></path>
                </g>
                <g id="Group-6">
                    <mask id="mask-4" fill="white">
                        <use xlink:href="#path-3"></use>
                    </mask>
                    <g id="Clip-5"></g>
                    <path d="M19.7639282,36.3426196 L35.2360718,36.3426196 L35.2360718,22.6573804 L19.7639282,22.6573804 L19.7639282,36.3426196 Z M19.1318327,21 C18.5067206,21 18,21.4761128 18,22.0634658 L18,36.9364728 C18,37.5238872 18.5067206,38 19.1318327,38 L35.8681673,38 C36.4932794,38 37,37.5238872 37,36.9364728 L37,22.0634658 C37,21.4761128 36.4932794,21 35.8681673,21 L19.1318327,21 Z" id="Fill-4" fill="#5BAF00" mask="url(#mask-4)"></path>
                    <path d="M19.8617721,15 L57.1382917,15 C57.6142623,15 58,14.5522996 58,14.000037 C58,13.4477004 57.6142623,13 57.1382917,13 L19.8617721,13 C19.3858652,13 19,13.4477004 19,14.000037 C19,14.5522996 19.3858652,15 19.8617721,15" id="Fill-6" fill="#5BAF00" mask="url(#mask-4)"></path>
                    <path d="M19.8617721,46 L57.1382917,46 C57.6142623,46 58,45.5522996 58,44.999963 C58,44.4477004 57.6142623,44 57.1382917,44 L19.8617721,44 C19.3858652,44 19,44.4477004 19,44.999963 C19,45.5522996 19.3858652,46 19.8617721,46" id="Fill-7" fill="#5BAF00" mask="url(#mask-4)"></path>
                    <path d="M19.8617721,53 L57.1382917,53 C57.6142623,53 58,52.552283 58,52 C58,51.447643 57.6142623,51 57.1382917,51 L19.8617721,51 C19.3858652,51 19,51.447643 19,52 C19,52.552283 19.3858652,53 19.8617721,53" id="Fill-8" fill="#5BAF00" mask="url(#mask-4)"></path>
                    <path d="M19.8617721,60 L57.1382917,60 C57.6142623,60 58,59.5522256 58,58.999963 C58,58.4477004 57.6142623,58 57.1382917,58 L19.8617721,58 C19.3858652,58 19,58.4477004 19,58.999963 C19,59.5522256 19.3858652,60 19.8617721,60" id="Fill-9" fill="#5BAF00" mask="url(#mask-4)"></path>
                    <path d="M56.1735835,21 L40.8264165,21 C40.3699733,21 40,21.4477004 40,21.999963 C40,22.5522996 40.3699733,23 40.8264165,23 L56.1735835,23 C56.6300267,23 57,22.5522996 57,21.999963 C57,21.4477004 56.6300267,21 56.1735835,21" id="Fill-10" fill="#5BAF00" mask="url(#mask-4)"></path>
                    <path d="M56.2113194,28 L40.8641523,28 C40.4077092,28 40.0377358,28.4477004 40.0377358,29.000037 C40.0377358,29.5522996 40.4077092,30 40.8641523,30 L56.2113194,30 C56.6677625,30 57.0377358,29.5522996 57.0377358,29.000037 C57.0377358,28.4477004 56.6677625,28 56.2113194,28" id="Fill-11" fill="#5BAF00" mask="url(#mask-4)"></path>
                    <path d="M56.2113194,35 L40.8641523,35 C40.4077092,35 40.0377358,35.4477004 40.0377358,35.999963 C40.0377358,36.5522996 40.4077092,37 40.8641523,37 L56.2113194,37 C56.6677625,37 57.0377358,36.5522996 57.0377358,35.999963 C57.0377358,35.4477004 56.6677625,35 56.2113194,35" id="Fill-12" fill="#5BAF00" mask="url(#mask-4)"></path>
                </g>
            </g>
        </g>
    </g>
</svg>