<svg xmlns="http://www.w3.org/2000/svg" width="62.805" height="79.373" viewBox="0 0 62.805 79.373">
  <g id="Group_30" data-name="Group 30" transform="translate(-5226.098 -1280.5)">
    <g id="Group_20" data-name="Group 20" transform="translate(4194 935)">
      <path id="Path_12" data-name="Path 12" d="M167.569,469.524v-64.31a1.592,1.592,0,0,0-1.591-1.591h-35.1a1.586,1.586,0,0,0-.315.032,1.57,1.57,0,0,0-.171.052c-.042.014-.086.022-.126.039a1.5,1.5,0,0,0-.168.09c-.035.02-.072.035-.105.057a1.6,1.6,0,0,0-.179.147c-.019.017-.041.03-.059.049l-12.637,12.638c-.019.019-.032.042-.05.062a1.641,1.641,0,0,0-.147.18c-.011.017-.018.035-.029.052a1.611,1.611,0,0,0-.118.221c-.011.026-.016.055-.026.082a1.391,1.391,0,0,0-.1.529v51.672a1.589,1.589,0,0,0,1.591,1.59h47.739A1.589,1.589,0,0,0,167.569,469.524Zm-38.285-60.469v7.207h-7.206Zm35.1,58.879H119.83V419.442h11.045a1.589,1.589,0,0,0,1.591-1.59V406.8h31.92Z" transform="translate(915.951 -57.623)" fill="#c8cacc" stroke="#fff" stroke-miterlimit="10" stroke-width="1"/>
      <path id="Path_13" data-name="Path 13" d="M185,488.431V425.153a1.591,1.591,0,0,0-3.183,0v61.688H135.76a1.59,1.59,0,1,0,0,3.18h47.645A1.589,1.589,0,0,0,185,488.431Z" transform="translate(903.917 -71.042)" fill="#c8cacc" stroke="#fff" stroke-miterlimit="10" stroke-width="1"/>
      <path id="Path_14" data-name="Path 14" d="M200.8,440.867a1.589,1.589,0,0,0-1.591,1.59v61.688H153.063a1.59,1.59,0,1,0,0,3.18H200.8a1.589,1.589,0,0,0,1.591-1.59V442.457A1.589,1.589,0,0,0,200.8,440.867Z" transform="translate(892.008 -82.951)" fill="#c8cacc" stroke="#fff" stroke-miterlimit="10" stroke-width="1"/>
    </g>
  </g>
</svg>
