<svg xmlns="http://www.w3.org/2000/svg" width="73.218" height="79.111" viewBox="0 0 73.218 79.111">
  <g id="Group_45" data-name="Group 45" transform="translate(9480.25 -55.652)">
    <path id="Path_40" data-name="Path 40" d="M443.028,303.373l-.005,69.257H388.952a5.231,5.231,0,0,1-5.226-5.226l.009-67.979a5.231,5.231,0,0,1,5.226-5.226h53.428v1.278h-.1c-1.747,0-2.541,2.046-2.541,3.947s.795,3.947,2.541,3.947Zm-58.015-3.947a3.952,3.952,0,0,0,3.947,3.947h50.711a6.078,6.078,0,0,1-1.165-3.182h-49.27v-1.278h49.247a6.214,6.214,0,0,1,1.189-3.434H388.961A3.951,3.951,0,0,0,385.013,299.426Zm8.522,5.226h-4.583a5.216,5.216,0,0,1-3.938-1.806L385,367.4a3.952,3.952,0,0,0,3.947,3.947h4.583Zm48.215,0H394.813v66.7h46.932Z" transform="translate(-9863.726 -238.298)" fill="#3aab00" stroke="#3aab00" stroke-miterlimit="10" stroke-width="0.5"/>
    <rect id="Rectangle_32" data-name="Rectangle 32" width="42.562" height="61.368" rx="3.008" transform="translate(-9450.443 72.239)" fill="#fff" stroke="#a0a2a4" stroke-width="1"/>
    <path id="Path_39" data-name="Path 39" d="M445.648,306H410.12a4.252,4.252,0,0,0-4.248,4.248v54.768a4.252,4.252,0,0,0,4.248,4.248h35.528a4.252,4.252,0,0,0,4.248-4.248V310.248A4.252,4.252,0,0,0,445.648,306Zm3.278,59.016a3.282,3.282,0,0,1-3.278,3.278H410.12a3.282,3.282,0,0,1-3.278-3.278V310.248a3.282,3.282,0,0,1,3.278-3.278h35.528a3.282,3.282,0,0,1,3.278,3.278Zm-5.036-53.38H411.877a.765.765,0,0,0-.764.764v47.265a.765.765,0,0,0,.764.764H443.89a.766.766,0,0,0,.765-.764V312.4A.766.766,0,0,0,443.89,311.636Zm-.206,47.822h-31.6V312.606h31.6Zm-15.8,2.633a2.238,2.238,0,0,0-2.18,1.75h-1.948v.97H425.7a2.233,2.233,0,0,0,4.36,0h1.948v-.97h-1.948A2.239,2.239,0,0,0,427.884,362.091Zm0,3.5a1.264,1.264,0,1,1,1.264-1.264A1.265,1.265,0,0,1,427.884,365.59Zm8.217-1.749h6.016v.97H436.1Zm-22.452,0h6.018v.97h-6.018Zm25.176-44.274h-7.812V318.6h7.812Zm0,4.9h-7.812v-.97h7.812Zm0,4.9h-7.812v-.97h7.812ZM416.942,333.3h21.883v.971H416.942Zm0,4.9h21.883v.97H416.942Zm0,4.9h21.883v.971H416.942Zm0,4.9h21.883v.97H416.942Zm11.282,4.9v.97H416.942v-.97M427.7,318.6H416.457v10.771H427.7Zm-.97,9.8h-9.3v-8.83h9.3Z" transform="translate(-9857.304 -234.876)" fill="#3aab00" stroke="#3aab00" stroke-miterlimit="10" stroke-width="0.75"/>
  </g>
</svg>
