<?xml version="1.0" encoding="UTF-8"?><svg id="Layer_2" xmlns="http://www.w3.org/2000/svg" xmlns:xlink="http://www.w3.org/1999/xlink" viewBox="0 0 90.72 18.98"><defs><style>.cls-1{fill:none;}.cls-2{clip-path:url(#clippath);}.cls-3{fill:#febe10;}.cls-4{fill:#4e9eb8;}</style><clipPath id="clippath"><rect class="cls-1" width="90.72" height="18.98"/></clipPath></defs><g id="Layer_1-2"><g class="cls-2"><path class="cls-4" d="M35.44,13.74h1.2v-4.36c0-3.11,2.11-3.27,2.4-3.27,1.65,0,2.15,.94,2.15,2.67v4.96h1.2v-4.53c0-1.58,.62-3.11,2.4-3.11,1.65,0,2.15,.94,2.15,2.67v4.96h1.2v-5.4c0-2.11-1.04-3.32-3.2-3.32-1.15,0-2.31,.67-2.8,1.76-.56-1.45-1.78-1.76-2.71-1.76-1.02,0-2.16,.53-2.74,1.51h-.04v-1.29h-1.29c.04,.64,.09,1.25,.09,1.89v6.62Zm-3.34-5.22c-2.04,0-5.29,.18-5.29,2.94,0,1.65,1.42,2.49,2.93,2.49,1.36,0,2.31-.47,3-1.6h.04c0,.45,.04,.96,.11,1.38h1.16c-.07-.45-.15-1.25-.15-1.91v-3.8c0-2.07-1.44-3.02-3.11-3.02s-2.82,.44-3.6,1.24l.73,.85c.73-.65,1.6-1,2.6-1,1.47,0,2.18,.73,2.18,2.2v.22h-.6Zm.6,.98v.62c0,1.51-.84,2.74-2.58,2.74-.96,0-2-.44-2-1.56,0-1.71,2.74-1.8,3.96-1.8h.62Zm-10.71,4.24h1.2v-4.8c0-1.15,.82-2.73,2.64-2.73,.33,0,.54,.04,.69,.09l.24-1.18c-.25-.07-.55-.11-.89-.11-1.49,0-2.38,.89-2.73,1.8h-.04v-1.58h-1.18c.04,1.24,.07,1.89,.07,2.65v5.85Zm-10.23,2.65c1.09,1.16,2.4,1.71,4.09,1.71,3.82,0,4.56-2.58,4.56-4.43V5.24h-1.2v1.42h-.04c-.98-1.33-2.27-1.64-3.29-1.64-2.51,0-4.33,1.93-4.33,4.4s1.98,4.33,4.44,4.33c1.24,0,2.42-.45,3.18-1.6h.04v1.53c0,1.84-.87,3.34-3.31,3.34-1.36,0-2.55-.62-3.25-1.56l-.89,.94Zm4.27-3.74c-1.78,0-3.16-1.49-3.16-3.27s1.38-3.27,3.16-3.27c2,0,3.22,1.49,3.22,3.27,.07,1.96-1.47,3.27-3.22,3.27M3.04,5.24c.04,.62,.09,1.42,.09,1.87v6.63h1.2v-4.36c0-3.11,2.33-3.27,2.58-3.27,1.78,0,2.31,1.04,2.31,2.93v4.71h1.2v-5.4c0-2.11-1.04-3.32-3.2-3.32-1.13,0-2.33,.65-2.85,1.58h-.04c0-.45,0-.91-.06-1.36h-1.24ZM0,.87H1.31V13.74H0V.87Z"/><path class="cls-3" d="M83.37,0h-1.2V13.74h1.2v-4.47l4.42,4.47h1.85l-4.69-4.62,4.24-3.89h-1.8l-4.02,3.84V0Zm-6.62,13.74h1.2v-4.8c0-1.15,.82-2.73,2.64-2.73,.33,0,.55,.04,.69,.09l.24-1.18c-.25-.07-.54-.11-.89-.11-1.49,0-2.38,.89-2.73,1.8h-.04v-1.58h-1.18c.04,1.24,.07,1.89,.07,2.65v5.85Zm-3.47-5.22c-2.03,0-5.29,.18-5.29,2.94,0,1.65,1.42,2.49,2.93,2.49,1.36,0,2.31-.47,3-1.6h.04c0,.45,.04,.96,.11,1.38h1.16c-.07-.45-.14-1.26-.14-1.91v-3.8c0-2.07-1.44-3.02-3.11-3.02s-2.82,.44-3.6,1.24l.73,.85c.73-.65,1.6-1,2.6-1,1.47,0,2.18,.73,2.18,2.2v.22h-.6Zm.6,.98v.62c0,1.51-.84,2.74-2.58,2.74-.96,0-2-.44-2-1.56,0-1.71,2.74-1.8,3.96-1.8h.62Zm-15.32,9.47h1.2v-6.65h.04c.78,1.15,2.18,1.64,3.31,1.64,2.66,0,4.53-1.91,4.53-4.47s-1.87-4.47-4.53-4.47c-1.13,0-2.53,.49-3.31,1.64h-.04v-1.42h-1.2v13.74Zm4.54-12.87c1.98,0,3.22,1.47,3.22,3.38s-1.24,3.38-3.22,3.38-3.4-1.47-3.4-3.38,1.44-3.38,3.4-3.38m-6.89-3.11c-.56-.84-1.4-1.25-2.49-1.25-1.35,0-2.74,.71-2.74,2.33,0,3.47,6.6,1.64,6.6,6.27,0,2.35-2.2,3.73-4.23,3.73-1.56,0-3.07-.56-4.06-1.91l1.18-.85c.55,.95,1.58,1.56,2.93,1.56s2.76-.84,2.76-2.35c0-3.64-6.6-1.62-6.6-6.33,0-2.49,2.07-3.65,4.16-3.65,1.45,0,2.62,.4,3.63,1.56l-1.14,.89Z"/><path class="cls-3" d="M89.91,5.18h.08c.09,0,.16-.03,.16-.1,0-.06-.05-.11-.15-.11-.04,0-.07,0-.09,0v.2Zm0,.39h-.16v-.69c.06-.01,.15-.02,.26-.02,.13,0,.19,.02,.24,.05,.04,.03,.07,.08,.07,.15,0,.08-.06,.14-.14,.16h0c.07,.03,.11,.08,.13,.18,.02,.11,.03,.15,.05,.17h-.17s-.03-.09-.05-.17c-.01-.08-.05-.11-.14-.11h-.07v.28Zm-.43-.36c0,.31,.23,.55,.54,.55s.53-.24,.53-.55-.22-.55-.53-.55-.53,.25-.53,.55m1.24,0c0,.39-.31,.7-.71,.7s-.71-.31-.71-.7,.31-.69,.71-.69,.71,.31,.71,.69"/></g></g></svg>