<?xml version="1.0" encoding="UTF-8"?>
<svg width="83px" height="66px" viewBox="0 0 83 66" version="1.1" xmlns="http://www.w3.org/2000/svg" xmlns:xlink="http://www.w3.org/1999/xlink">
    <!-- Generator: Sketch 53.2 (72643) - https://sketchapp.com -->
    <title>Group 33</title>
    <desc>Created with Sketch.</desc>
    <g id="Page-1" stroke="none" stroke-width="1" fill="none" fill-rule="evenodd" stroke-linecap="round" stroke-linejoin="round">
        <g id="Assets-Copy-2" transform="translate(-585.000000, -1179.000000)" stroke="#D2D2D2" stroke-width="2">
            <g id="Group-33" transform="translate(586.000000, 1180.000000)">
                <g id="Group-29">
                    <path d="M79.1355932,64 C72.2338513,64 67.938819,62.465 64.1495287,61.11 C60.9842384,59.9775 58.2542384,59 53.9743029,59 C46.6423029,59 44.0028835,61.38 43.9097868,61.5 L43.9097868,64 L40.1355932,64" id="Stroke-1"></path>
                    <path d="M54.6517223,0 C43.9281093,0 40.6355932,5.13043478 40.6355932,5.13043478 C40.6355932,5.13043478 37.3430771,0 26.6194642,0 C15.8958513,0 13.0289158,5.13043478 1.13559322,5.13043478 L1.13559322,59 C13.0289158,59 15.8958513,53.8695652 26.6194642,53.8695652 C37.3430771,53.8695652 40.6355932,59 40.6355932,59 C40.6355932,59 43.9281093,53.8695652 54.6517223,53.8695652 C65.3753352,53.8695652 68.2422706,59 80.1355932,59 L80.1355932,5.13043478 C68.2422706,5.13043478 65.3753352,0 54.6517223,0 Z" id="Stroke-3"></path>
                    <path d="M71.1355932,15 C65.0230932,13.6451613 61.4630932,11 53.6355932,11 C50.5380932,11 48.0705932,11.4157706 46.1355932,11.9988053" id="Stroke-5"></path>
                    <path d="M71.1355932,23 C65.0230932,21.6451613 61.4630932,19 53.6355932,19 C50.5380932,19 48.0705932,19.4157706 46.1355932,19.9988053" id="Stroke-7"></path>
                    <path d="M71.1355932,30 C65.0230932,28.6451613 61.4630932,26 53.6355932,26 C50.5380932,26 48.0705932,26.4157706 46.1355932,26.9988053" id="Stroke-9"></path>
                    <path d="M71.1355932,38 C65.0230932,36.6451613 61.4630932,34 53.6355932,34 C50.5380932,34 48.0705932,34.4157706 46.1355932,34.9988053" id="Stroke-11"></path>
                    <path d="M71.1355932,45 C65.0230932,43.6451613 61.4630932,41 53.6355932,41 C50.5380932,41 48.0705932,41.4157706 46.1355932,41.9988053" id="Stroke-13"></path>
                    <path d="M8.13559322,15 C14.2480932,13.6451613 17.8105932,11 25.6355932,11 C28.7330932,11 31.1980932,11.4157706 33.1355932,11.9988053" id="Stroke-15"></path>
                    <path d="M8.13559322,23 C14.2480932,21.6451613 17.8105932,19 25.6355932,19 C28.7330932,19 31.1980932,19.4157706 33.1355932,19.9988053" id="Stroke-17"></path>
                    <path d="M8.13559322,30 C14.2480932,28.6451613 17.8105932,26 25.6355932,26 C28.7330932,26 31.1980932,26.4157706 33.1355932,26.9988053" id="Stroke-19"></path>
                    <path d="M8.13559322,38 C14.2480932,36.6451613 17.8105932,34 25.6355932,34 C28.7330932,34 31.1980932,34.4157706 33.1355932,34.9988053" id="Stroke-21"></path>
                    <path d="M8.13559322,45 C14.2480932,43.6451613 17.8105932,41 25.6355932,41 C28.7330932,41 31.1980932,41.4157706 33.1355932,41.9988053" id="Stroke-23"></path>
                    <path d="M0.13559322,64 C7.03733516,64 11.3323674,62.465 15.1241739,61.11 C18.2844319,59.9775 21.0169481,59 25.2968835,59 C32.6288835,59 35.2657868,61.38 35.3613997,61.5 L35.3613997,64 L39.1355932,64" id="Stroke-25"></path>
                    <path d="M39.1355932,6 L39.1355932,59" id="Stroke-27"></path>
                </g>
            </g>
        </g>
    </g>
</svg>