<svg width="240" height="217" viewBox="0 0 240 217" fill="none" xmlns="http://www.w3.org/2000/svg">
<path d="M185.61 92.0566C185.61 132.016 153.212 164.414 113.252 164.414C73.2927 164.414 40.8945 132.016 40.8945 92.0566C40.8945 52.0972 73.2927 19.6903 113.261 19.6903C153.22 19.6903 185.618 52.0884 185.618 92.0479" fill="#7880A5"/>
<path d="M185.61 92.0566C185.61 132.016 153.212 164.414 113.252 164.414C73.2927 164.414 40.8945 132.016 40.8945 92.0566C40.8945 52.0972 73.2927 19.6903 113.261 19.6903C153.22 19.6903 185.618 52.0884 185.618 92.0479" fill="#0569B1"/>
<path d="M113.21 40.2825C141.757 40.2825 164.896 63.4215 164.896 91.9689C164.896 120.516 141.757 143.655 113.21 143.655C84.6624 143.655 61.5234 120.516 61.5234 91.9689C61.5234 63.4215 84.6624 40.2825 113.21 40.2825Z" fill="#00529B"/>
<path d="M113.264 91.9675C79.0107 91.9675 51.2422 119.736 51.2422 153.99C51.2422 188.243 79.0107 216.012 113.264 216.012C147.518 216.012 175.286 188.243 175.286 153.99C175.286 119.736 147.518 91.9675 113.264 91.9675Z" fill="#CEE3F4"/>
<path d="M103.718 175.458L101.337 173.069L98.9479 170.689L96.5588 168.3H94.1784L91.7892 165.919L89.4088 163.53H87.0196H84.6392H82.2501L79.8696 165.919V168.3V170.689L77.4805 173.069V175.458V177.848L79.8696 180.228V182.617L82.2501 184.998L84.6392 187.387V196.926V199.315V204.085L87.0196 206.465V208.854L89.4088 206.465V204.085L91.7892 201.695V199.315L94.1784 196.926L96.5588 194.537H97.7577L100.138 192.156L102.527 189.767H103.718L106.107 187.387V184.998L108.487 182.617V180.228V177.848L106.107 175.458H103.718Z" fill="#7DBE47"/>
<path d="M72.7119 161.139L70.3228 158.759H67.9336L70.3228 161.139H72.7119Z" fill="#7DBE47"/>
<path d="M119.221 99.1178L116.832 96.7374H114.452H112.062H109.682H107.293L106.103 97.9276H103.713H101.333H98.9439H96.5547H94.1743L91.7852 100.317H94.1743H96.5547L98.9439 102.697H101.333L103.713 105.086V107.467V109.856V112.236L106.103 114.626H108.483V113.435L110.872 111.046H112.062H114.452L116.832 108.666H118.022L120.411 106.277V103.896L122.801 101.507V99.1178H120.411H119.221Z" fill="#7DBE47"/>
<path d="M153.81 137.285L151.421 134.904V132.515L153.81 130.135V132.515L156.19 134.904L153.81 137.285ZM146.651 120.587L144.271 122.976V120.587L146.651 118.206V120.587ZM158.579 175.45V170.68L160.96 168.291V165.911L163.349 163.522V158.752L165.738 156.363V153.974L168.127 151.585L170.516 149.204H175.102C174.595 142.483 173.011 136.068 170.525 130.117H170.516V130.082C168.757 125.864 166.535 121.873 163.927 118.189H156.199L153.819 115.808H151.429L149.04 113.419L146.651 111.03H144.271L143.08 109.84H140.691L138.302 112.22V114.609L137.112 115.8V118.18L139.501 120.56L137.112 122.95H132.342L134.723 125.339V130.108L132.342 132.489L129.953 134.878V137.258L132.342 139.648H134.723L137.112 137.258V134.878L139.501 132.489H144.271L146.651 134.878L149.04 137.258H151.429L153.819 139.648L156.199 142.028L155.009 143.218H147.85L146.66 144.408L144.279 142.019L141.89 139.639H139.51L137.121 142.019H132.351L129.962 144.408L127.573 146.798V149.187L125.184 151.567V158.726L127.573 161.115V163.495L129.962 165.885H134.732L137.121 163.495H140.7L143.089 165.885V173.043L145.478 175.424V180.193L144.288 181.383V186.153L146.669 188.542V192.122L149.058 189.732H150.248L152.637 187.343H153.827V184.954L156.208 182.574V180.185L158.597 177.804V175.415L158.579 175.45Z" fill="#7DBE47"/>
<path d="M98.9467 120.584L96.5575 118.204H89.3988L87.0183 120.584H79.8596L77.4704 118.204L79.8596 115.815L82.24 113.426L84.6292 111.036L87.0096 108.656H90.589L92.9694 111.036L94.1596 112.227L95.3498 111.036H96.54V108.656L94.1596 106.267H91.7704L89.3813 103.886H87.0008L84.6204 106.267H82.2313L79.8509 108.656L78.6519 109.846L76.2715 107.457H73.8911L71.5107 109.846H70.3204L67.9313 112.227H67.3887C63.433 116.576 60.0812 121.486 57.482 126.824L58.3921 127.734V139.663L56.0117 142.043V144.432L58.3921 146.821L60.7725 149.21V151.591L63.153 153.98V156.36L65.5421 158.741H67.9313V151.582L70.3204 149.202H71.5107L73.8911 146.813H77.4704L79.8596 144.423V142.034L82.24 139.654L84.6292 137.265V136.074L85.8194 134.884L88.2086 132.495L90.589 130.115H91.7792L94.1683 127.725H95.3585L97.7477 125.345L100.128 122.956L102.517 120.567H98.9379L98.9467 120.584Z" fill="#7DBE47"/>
<path d="M159.612 110.139C157.748 110.139 156.234 108.625 156.234 106.76C156.234 104.896 157.748 103.382 159.612 103.382C161.476 103.382 162.99 104.896 162.99 106.76C162.99 108.625 161.485 110.139 159.612 110.139ZM159.612 98.6653C155.14 98.6653 151.508 102.288 151.508 106.769C151.508 111.25 159.612 122.968 159.612 122.968C159.612 122.968 167.716 111.241 167.716 106.769C167.716 102.297 164.093 98.6653 159.612 98.6653Z" fill="#132E52"/>
<path d="M66.9594 110.2C65.0953 110.2 63.5813 108.695 63.5813 106.822C63.5813 104.949 65.0953 103.444 66.9594 103.444C68.8234 103.444 70.3375 104.958 70.3375 106.822C70.3375 108.686 68.8322 110.2 66.9594 110.2ZM66.9594 98.7271C62.4874 98.7271 58.8555 102.35 58.8555 106.831C58.8555 111.312 66.9594 123.03 66.9594 123.03C66.9594 123.03 75.0633 111.303 75.0633 106.831C75.0633 102.359 71.4402 98.7271 66.9594 98.7271Z" fill="#132E52"/>
<path d="M49.2987 89.467H43.2689C40.4159 89.467 38.0967 87.1566 38.0967 84.2949C38.0967 81.4331 40.4071 79.1227 43.2689 79.1227H69.7597C72.6127 79.1227 74.9319 76.8123 74.9319 73.9506C74.9319 71.0888 72.6215 68.7784 69.7597 68.7784H7.09012C4.23712 68.7784 1.91797 71.0888 1.91797 73.9506C1.91797 76.8123 4.22837 79.1227 7.09012 79.1227H27.7612C30.6142 79.1227 32.9246 81.4331 32.9246 84.2949C32.9246 87.1566 30.6142 89.467 27.7612 89.467H22.5891C19.7361 89.467 17.4169 91.7774 17.4169 94.6392C17.4169 97.5009 19.7273 99.8113 22.5891 99.8113H49.2987C52.1517 99.8113 54.4621 97.5009 54.4621 94.6392C54.4621 91.7774 52.1517 89.467 49.2899 89.467" fill="white"/>
<path d="M62.4341 48.1245H49.5081C46.6551 48.1245 44.3359 50.4349 44.3359 53.2967C44.3359 56.1584 46.6463 58.4688 49.5081 58.4688H62.4341C65.2871 58.4688 67.6062 56.1584 67.6062 53.2967C67.6062 50.4349 65.2871 48.1245 62.4341 48.1245Z" fill="white"/>
<path d="M201.415 127.833C201.415 130.065 199.603 131.876 197.371 131.876C195.14 131.876 193.328 130.065 193.328 127.833C193.328 125.601 195.14 123.79 197.371 123.79C199.603 123.79 201.415 125.601 201.415 127.833Z" fill="#FFEFB1"/>
<path d="M181.054 24.7761C175.348 24.7761 170.718 20.1465 170.718 14.4406C170.718 20.1465 166.089 24.7761 160.383 24.7761C166.089 24.7761 170.718 29.4056 170.718 35.1116C170.718 29.4056 175.348 24.7761 181.054 24.7761Z" fill="#FFEFB1"/>
<path d="M230.863 112.562C229.436 112.562 228.281 111.406 228.281 109.98C228.281 111.406 227.126 112.562 225.699 112.562C227.126 112.562 228.281 113.717 228.281 115.143C228.281 113.717 229.436 112.562 230.863 112.562Z" fill="#FFEFB1"/>
<path d="M38.4173 40.2843C36.9908 40.2843 35.8356 39.1291 35.8356 37.7026C35.8356 39.1291 34.6804 40.2843 33.2539 40.2843C34.6804 40.2843 35.8356 41.4395 35.8356 42.866C35.8356 41.4395 36.9908 40.2843 38.4173 40.2843Z" fill="#FFEFB1"/>
<path d="M188.804 29.9392C187.378 29.9392 186.222 28.784 186.222 27.3575C186.222 28.784 185.067 29.9392 183.641 29.9392C185.067 29.9392 186.222 31.0944 186.222 32.5209C186.222 31.0944 187.378 29.9392 188.804 29.9392Z" fill="#FFEFB1"/>
<path d="M190.094 55.7832C187.241 55.7832 184.922 53.4728 184.922 50.6111C184.922 53.4641 182.612 55.7832 179.75 55.7832C182.603 55.7832 184.922 58.1024 184.922 60.9554C184.922 58.1024 187.241 55.7832 190.094 55.7832Z" fill="#FFEFB1"/>
<path d="M43.4399 131.255C37.8127 131.255 33.2532 126.696 33.2532 121.069C33.2532 126.696 28.6936 131.255 23.0664 131.255C28.6936 131.255 33.2532 135.815 33.2532 141.442C33.2532 135.815 37.8127 131.255 43.4399 131.255Z" fill="#FFEFB1"/>
<path d="M50.5393 29.9401C53.3923 29.9401 55.7115 32.2505 55.7115 35.1122C55.7115 37.974 53.4011 40.2844 50.5393 40.2844C47.6776 40.2844 45.3672 37.974 45.3672 35.1122C45.3672 32.2505 47.6776 29.9401 50.5393 29.9401Z" fill="#FFEFB1"/>
<path d="M19.7704 110.733C19.7704 112.562 18.2826 114.05 16.4535 114.05C14.6245 114.05 13.1367 112.562 13.1367 110.733C13.1367 108.904 14.6245 107.417 16.4535 107.417C18.2826 107.417 19.7704 108.904 19.7704 110.733Z" fill="#FFEFB1"/>
<path d="M237.305 92.0747C238.793 92.0747 240 93.2824 240 94.7702C240 96.2579 238.793 97.4569 237.305 97.4569C235.817 97.4569 234.609 96.2492 234.609 94.7702C234.609 93.2912 235.817 92.0747 237.305 92.0747Z" fill="#FFEFB1"/>
<path d="M217.922 97.545H199.833C196.98 97.545 194.661 95.2346 194.661 92.3729C194.661 89.5111 196.971 87.2007 199.833 87.2007H205.005C207.858 87.2007 210.177 84.8903 210.177 82.0286C210.177 79.1668 207.858 76.8564 205.005 76.8564H157.196C154.343 76.8564 152.023 79.1668 152.023 82.0286C152.023 84.8903 154.343 87.2007 157.196 87.2007H184.334C187.187 87.2007 189.506 89.5111 189.506 92.3729C189.506 95.2346 187.196 97.545 184.334 97.545H179.162C176.309 97.545 173.99 99.8554 173.99 102.717C173.99 105.579 176.3 107.889 179.162 107.889H217.922C220.775 107.889 223.095 105.579 223.095 102.717C223.095 99.8554 220.775 97.545 217.922 97.545Z" fill="white"/>
<path d="M113.261 83.4368C110.881 83.4368 108.956 81.5115 108.956 79.1311C108.956 76.7507 110.881 74.8253 113.261 74.8253C115.642 74.8253 117.567 76.7507 117.567 79.1311C117.567 81.5115 115.642 83.4368 113.261 83.4368ZM113.261 68.7955C107.555 68.7955 102.926 73.4251 102.926 79.1311C102.926 84.8371 113.261 99.8022 113.261 99.8022C113.261 99.8022 123.597 84.8371 123.597 79.1311C123.597 73.4251 118.967 68.7955 113.261 68.7955Z" fill="#132E52"/>
<path d="M147.708 2.05541H147.69L121.199 9.63422C120.167 9.93177 119.16 10.5881 118.434 11.5245C118.154 11.8834 117.76 12.1722 117.331 12.2947H109.157C108.728 12.1722 108.334 11.8834 108.054 11.5245C107.328 10.5881 106.322 9.93177 105.298 9.63422L78.8156 2.05541H78.7981C77.8267 1.77536 77.0391 2.33546 77.0391 3.30687V47.3795C77.0391 48.3509 77.8267 49.3661 78.7981 49.6462L105.306 57.225C106.33 57.5225 107.346 58.1789 108.063 59.1153C108.343 59.4741 108.737 59.7629 109.166 59.8854H117.34C117.769 59.7629 118.162 59.4741 118.442 59.1153C119.169 58.1789 120.175 57.5225 121.208 57.225L147.716 49.6462C148.688 49.3661 149.475 48.3509 149.475 47.3795V3.30687C149.475 2.33546 148.688 1.76661 147.716 2.04666" fill="#8ECB5C"/>
<path d="M120.823 9.75916C119.93 10.0917 119.073 10.7043 118.443 11.527C118.163 11.8858 117.777 12.1746 117.34 12.2971H109.175C108.746 12.1746 108.352 11.8858 108.072 11.527C107.556 10.8618 106.908 10.3455 106.199 9.98669V57.5774C106.899 57.9275 107.556 58.4526 108.072 59.1177C108.352 59.4765 108.746 59.7653 109.175 59.8878H117.34C117.769 59.7653 118.163 59.4765 118.443 59.1177C119.081 58.2951 119.93 57.6912 120.823 57.3499V9.75916Z" fill="#70AF38"/>
<path d="M117.874 12.0413C117.708 12.1463 117.524 12.2338 117.341 12.2863H109.167C108.974 12.2338 108.799 12.1463 108.633 12.0413V59.6408C108.799 59.7458 108.974 59.8333 109.167 59.8858H117.341C117.524 59.8333 117.708 59.7458 117.874 59.6408V12.0413Z" fill="#7DBE47"/>
<path d="M126.521 33.2464L144.418 28.1355C145.188 27.9167 145.722 27.2078 145.722 26.4027V12.7591C145.722 11.7439 144.75 11.0175 143.779 11.2888L125.882 16.3997C125.112 16.6185 124.578 17.3274 124.578 18.1325V31.7761C124.578 32.7913 125.55 33.5177 126.521 33.2464Z" fill="#4F7839"/>
<path d="M126.442 42.0353C126.206 42.0353 125.996 41.8865 125.926 41.6502C125.847 41.3701 126.013 41.0726 126.293 40.9938L144.707 35.7342C144.987 35.6554 145.284 35.8217 145.363 36.1017C145.442 36.3818 145.275 36.6793 144.995 36.7581L126.582 42.0178C126.53 42.0353 126.486 42.0353 126.433 42.0353" fill="#4F7839"/>
<path d="M126.442 46.2607C126.206 46.2607 125.996 46.1119 125.926 45.8757C125.847 45.5956 126.013 45.2981 126.293 45.2193L144.707 39.9596C144.987 39.8809 145.284 40.0472 145.363 40.3272C145.442 40.6072 145.275 40.9048 144.995 40.9836L126.582 46.2432C126.53 46.2607 126.486 46.2607 126.433 46.2607" fill="#4F7839"/>
<path d="M117.873 51.668H108.641V56.035H117.873V51.668Z" fill="#00529B"/>
<path d="M117.873 49.8931H108.641V50.6282H117.873V49.8931Z" fill="#00529B"/>
<path d="M117.873 15.9705H108.641V20.3375H117.873V15.9705Z" fill="#00529B"/>
<path d="M117.873 21.3721H108.641V22.1072H117.873V21.3721Z" fill="#00529B"/>
</svg>
