<?xml version="1.0" encoding="UTF-8"?><svg id="Layer_2" xmlns="http://www.w3.org/2000/svg" viewBox="0 0 44 44"><defs><style>.cls-1{fill:#fff;}.cls-2{fill:#00539b;}</style></defs><g id="Layer_1-2"><circle class="cls-2" cx="22" cy="22" r="22"/><path class="cls-1" d="M29.54,32H15.46v-2.09l5.64-5.67c1.72-1.74,2.85-2.98,3.4-3.72,.55-.74,.96-1.46,1.23-2.17,.27-.7,.41-1.46,.41-2.27,0-1.14-.35-2.05-1.04-2.71-.69-.67-1.66-1.01-2.89-1.01-.89,0-1.73,.15-2.53,.44-.79,.29-1.67,.83-2.65,1.6l-1.29-1.66c1.97-1.64,4.12-2.46,6.45-2.46,2.01,0,3.59,.52,4.73,1.55,1.14,1.03,1.71,2.41,1.71,4.15,0,1.36-.38,2.7-1.14,4.03-.76,1.33-2.19,3.01-4.28,5.04l-4.69,4.59v.12h11.02v2.26Z"/></g></svg>