<?xml version="1.0" encoding="UTF-8"?><svg id="Layer_2" xmlns="http://www.w3.org/2000/svg" xmlns:xlink="http://www.w3.org/1999/xlink" viewBox="0 0 322.97 339"><defs><style>.cls-1,.cls-2{fill:none;}.cls-3{clip-path:url(#clippath);}.cls-4{fill:#f58f70;}.cls-5{fill:#f9ae8f;}.cls-6{fill:#00539a;}.cls-7{fill:#00539b;}.cls-8{fill:#005793;}.cls-9,.cls-10{fill:#fff;}.cls-11{fill:#ffc425;}.cls-12{fill:#dff2f7;}.cls-13{fill:#acdfea;}.cls-14{fill:#52bbd0;}.cls-15{fill:#45a0be;}.cls-16{fill:#58595b;}.cls-10{isolation:isolate;opacity:.3;}.cls-17{clip-path:url(#clippath-1);}.cls-18{clip-path:url(#clippath-2);}.cls-2{stroke:#52bbd0;stroke-dasharray:0 0 0 0 0 0 0 0 0 0 0 0;stroke-miterlimit:10;stroke-width:.75px;}</style><clipPath id="clippath"><rect class="cls-1" width="322.97" height="339"/></clipPath><clipPath id="clippath-1"><path class="cls-1" d="m216.48,225.36c-6.57,11.56-8.37,25.36-7.31,38.46.31,3.82,9.13,39.04,7.54,39.28,6.93-1.03,13.36-4.1,19.64-7.21,6.73-3.33,13.42-6.74,20.06-10.24,2.11-1.11,4.33-2.34,5.48-4.43.82-1.49,1-3.24,1.14-4.93,1.53-17.68,2.39-35.83,1.41-53.55-1.03-18.5-8.84-34.98-15.38-52.1-2.01-5.27-3.82-10.41-4.06-16.05-.39-9.07.19-18.04.48-27.09,0-.15,0-.3-.06-.43-1.05-2.15-4.86-1.21-6.64-1.03-3.13.31-5.15,1.96-7.15,4.4-2.99,3.65-5.06,8.04-6.02,12.65-.93,4.47-1.98,9.22-1.26,13.79.75,4.71.42,9.63.53,14.44.12,5.28.31,10.55.33,15.83.03,7.37,0,14.74-.31,22.1-.16,3.65-.26,5.22-2.52,8-2.1,2.58-4.24,5.22-5.9,8.12h0Z"/></clipPath><clipPath id="clippath-2"><path class="cls-1" d="m264.92,285.2c-3.1-8.03-4.94-16.55-5.37-25.15.03.61-7.32-3.78-7.98-4.73-1.96-2.83-1.83-5.87-2.3-9.21-2.09-14.77-5.44-29.47-11.05-43.33-2.86-7.07-6.29-13.96-11.17-19.87-3.49-4.22-7.67-7.89-11.84-11.53-5.99-5.24-11.71-11.02-17.99-15.93-4.94-3.87-16.54-5.9-23.08-3.32-6.55,2.58-12.48,6.71-18.2,10.68-11.94,8.31-23.74,17.1-33.61,27.61-2.68,2.85-5.22,5.84-7.55,8.98-1.51,2.03-2.83,6.4-5.78,6.01-1.02-.14-1.97-.57-2.94-.88-2.57-.82-5.32-.84-8.02-.84-1.56,0-3.15,0-4.64.48-1.13.36-2.17,1-3.08,1.78-3.59,3.11-4.73,8.38-3.89,13.06.84,4.68,3.38,8.87,6.17,12.72,4.55,6.28,9.92,12.06,15.82,17.03,12.77,10.77,24.47,21.69,35.4,34.23,7.61,8.73,16.12,16.91,26.52,22.22,9.91,5.06,20.9,8.82,27.6,18.35,1.85,2.63,3.24,5.56,4.61,8.48,1.48,3.13,3.38,10.68,6.82,10.7,2.98.01,6.29-6.24,8.33-8.04,5.79-5.11,13.48-8.75,20.07-12.78,11.73-7.15,23.86-13.65,36.3-19.46-3.75-5.35-6.83-11.17-9.18-17.27h.03Z"/></clipPath></defs><path class="cls-12" d="m280.16,174.35c.67-8.27,2.46-16.65,4.02-24.77,3.19-16.63,4.89-35.41-5.17-49.03-4.82-6.54-11.99-11.25-15.91-18.37-2.4-4.36-3.41-9.33-5.32-13.93-6.49-15.59-24.39-25.53-41.05-22.81-11.57,1.89-21.54,8.96-32.38,13.45-8.11,3.36-16.82,5.24-25.59,5.61-9.32.4-17.28-2.73-26.2-3.61-8.24-.82-16.37.25-24.8-1.17-8.81-1.48-17.72-3.69-26.72-3.08-7.71.52-16.13,3.47-19.95,11.16-4.73,9.54-1.92,19.97-3.25,30.07-1.4,10.68-9.73,17.84-16.19,26-8.93,11.26-18.4,24.76-15.09,38.75,2.53,10.71,11.96,18.32,16.86,28.18,6.59,13.26,4.37,28.97,2.57,43.67s-2.67,30.89,5.91,42.96c6.08,8.56,16.19,13.64,26.53,15.51,8.02,1.45,16.26,1.17,24.31,2.45,17.38,2.77,32.69,12.56,48.89,19.41,16.21,6.85,35.73,10.53,50.78,1.42,14.84-8.99,21.02-27.79,34.92-38.16,10.49-7.83,24.03-9.91,36.3-14.48s24.75-13.74,25.67-26.8c.96-13.67-10.89-24.49-16.05-37.18-3.27-8.03-3.78-16.58-3.07-25.25h-.02Z"/><path class="cls-2" d="m234.57,253.96c-.42-6.66,1.84-13.44,6.21-18.59,11.19-13.21,33.48-14.17,43.24-28.41,7.16-10.45,4.77-24.99-2.37-35.45-5.6-8.21-13.95-15.06-16.41-24.62-1.84-7.15-.05-14.64,1.38-21.87,1.43-7.24,2.42-15.05-.83-21.71-3.25-6.66-12.35-11.08-18.73-7.09-2.05,1.28-3.66,3.91-2.48,5.99,1.72,3.03,6.66,1.3,8.91-1.38,6.47-7.71,5.49-19.06,2.19-28.48-2.18-6.21-5.4-12.38-10.85-16.27-7.02-5.02-16.69-5.38-25.05-2.98-8.85,2.54-15.81,8.87-24.28,11.56-7.1,2.26-14.64,3.89-22.02,5.04-11.46,1.78-29.89,3.79-37.49-7.19-3.08-4.44-.15-11.97,5.62-11.75,5.21.2,7.89,6.51,5.86,10.88-3.64,7.87-14.62,10.68-22.36,11.8-17.87,2.58-36.78,3.58-53.89,10.39-15.72,6.26-31.34,18.64-32.22,36.79-.17,3.6.21,7.33,2.04,10.53s5.32,5.78,9.27,5.97c1.65.08,3.67-.57,3.91-2.05.26-1.56-1.59-2.7-3.23-3.21-12.23-3.83-23.06,4.25-23.74,14.58-1.13,17.27,21.24,23.27,28.23,36.3,3.87,7.23,2.98,16.04.43,23.8s-6.62,15-9.03,22.8-2.96,16.7,1.31,23.71c5.78,9.49,18.27,12.66,26.79,19.95,10.01,8.57,14.52,22.84,26.33,28.87,4.08,2.09,8.72,2.97,13.32,3.26,9.42.6,19.11-1.27,27.23-5.95,19.18-11.06,27.66-36.04,48.45-43.92"/><path class="cls-13" d="m148.04,30.18c-1.34-2.29-4.71-3.44-7.98.38-3.26-3.81-6.64-2.67-7.98-.38-3.3,5.64,7.98,12.28,7.98,12.28,0,0,11.27-6.64,7.98-12.28Z"/><g class="cls-3"><g><g><path class="cls-5" d="m216.48,225.36c-6.57,11.56-8.37,25.36-7.31,38.46.31,3.82,9.13,39.04,7.54,39.28,6.93-1.03,13.36-4.1,19.64-7.21,6.73-3.33,13.42-6.74,20.06-10.24,2.11-1.11,4.33-2.34,5.48-4.43.82-1.49,1-3.24,1.14-4.93,1.53-17.68,2.39-35.83,1.41-53.55-1.03-18.5-8.84-34.98-15.38-52.1-2.01-5.27-3.82-10.41-4.06-16.05-.39-9.07.19-18.04.48-27.09,0-.15,0-.3-.06-.43-1.05-2.15-4.86-1.21-6.64-1.03-3.13.31-5.15,1.96-7.15,4.4-2.99,3.65-5.06,8.04-6.02,12.65-.93,4.47-1.98,9.22-1.26,13.79.75,4.71.42,9.63.53,14.44.12,5.28.31,10.55.33,15.83.03,7.37,0,14.74-.31,22.1-.16,3.65-.26,5.22-2.52,8-2.1,2.58-4.24,5.22-5.9,8.12h0Z"/><g class="cls-17"><path class="cls-10" d="m239.48,129.95c-.7.86-1.12,1.97-1.44,3.05-1.39,4.7-1.51,9.78-.34,14.54.74,3.02,11.99.04,12.02.94-.19-5.85-.38-11.69-.57-17.54,0-.45-.03-.92-.25-1.31-1.15-2.08-6.76-1.68-8.44-.57-.37.25-.69.55-.97.89h0Z"/></g></g><path class="cls-5" d="m89.11,103.15c-6.21-10.06,1.14-20.58,13.23-17.67,8.73,2.1,15.98,8.59,22.88,13.98,7.23,5.65,12.82,14.57,7.69,21.12-9.97,12.74-27.69-1.58-35.77-8.8-2.65-2.37-5.32-4.76-7.38-7.65-.23-.33-.45-.65-.65-.98h0Z"/><g><path class="cls-5" d="m264.92,285.2c-3.1-8.03-4.94-16.55-5.37-25.15.03.61-7.32-3.78-7.98-4.73-1.96-2.83-1.83-5.87-2.3-9.21-2.09-14.77-5.44-29.47-11.05-43.33-2.86-7.07-6.29-13.96-11.17-19.87-3.49-4.22-7.67-7.89-11.84-11.53-5.99-5.24-11.71-11.02-17.99-15.93-4.94-3.87-16.54-5.9-23.08-3.32-6.55,2.58-12.48,6.71-18.2,10.68-11.94,8.31-23.74,17.1-33.61,27.61-2.68,2.85-5.22,5.84-7.55,8.98-1.51,2.03-2.83,6.4-5.78,6.01-1.02-.14-1.97-.57-2.94-.88-2.57-.82-5.32-.84-8.02-.84-1.56,0-3.15,0-4.64.48-1.13.36-2.17,1-3.08,1.78-3.59,3.11-4.73,8.38-3.89,13.06.84,4.68,3.38,8.87,6.17,12.72,4.55,6.28,9.92,12.06,15.82,17.03,12.77,10.77,24.47,21.69,35.4,34.23,7.61,8.73,16.12,16.91,26.52,22.22,9.91,5.06,20.9,8.82,27.6,18.35,1.85,2.63,3.24,5.56,4.61,8.48,1.48,3.13,3.38,10.68,6.82,10.7,2.98.01,6.29-6.24,8.33-8.04,5.79-5.11,13.48-8.75,20.07-12.78,11.73-7.15,23.86-13.65,36.3-19.46-3.75-5.35-6.83-11.17-9.18-17.27h.03Z"/><g class="cls-18"><g><path class="cls-4" d="m119.17,220.63c1.66,5.32-.93,11.51-6.15,13.67-6.02,2.5-13.8-.09-18.91-3.55-5.95-4.03-10.91-11.55-7.5-18.91,2.17-4.66,7.48-7.66,12.59-7.09,7.26.8,17.46,7.84,19.97,15.88h0Z"/><polygon class="cls-4" points="219.77 268.19 134.89 283.3 117.76 263.02 219.77 268.19"/></g></g></g><path class="cls-8" d="m217.91,27.39h-104.65c-4.29,0-7.77,3.48-7.77,7.77v225.25c0,4.29,3.48,7.77,7.77,7.77h104.65c4.29,0,7.77-3.48,7.77-7.77V35.16c0-4.29-3.48-7.77-7.77-7.77h0Z"/><rect class="cls-9" x="111.21" y="50.75" width="108.57" height="199.64"/><path class="cls-15" d="m181.48,40.38h-31.78c-.7,0-1.27-.57-1.27-1.27h0c0-.7.57-1.27,1.27-1.27h31.78c.7,0,1.27.57,1.27,1.27h0c0,.7-.57,1.27-1.27,1.27Z"/><polygon class="cls-13" points="280.02 282.11 185.02 336.4 251.34 466.21 408.96 451.16 280.02 282.11"/><path class="cls-5" d="m119.74,215.89c2.34,5.06.56,11.53-4.34,14.35-5.65,3.25-13.69,1.69-19.21-1.09-6.42-3.23-12.31-10.05-9.87-17.78,1.55-4.9,6.43-8.56,11.57-8.66,7.3-.15,18.32,5.53,21.85,13.18h0Z"/><path class="cls-5" d="m118.75,185.92c1.25,2.31,2.09,4.8,2.09,7.41,0,3.49-1.62,6.94-4.29,9.18-9.58,8.04-20.66-3.17-27.61-9.4-5.62-5.04-9.7-13.55-5.11-20.71,2.91-4.54,8.85-6.9,14.08-5.59,3.82.95,6.98,3.57,9.87,6.24,2.85,2.64,5.59,5.41,8,8.45,1.09,1.38,2.12,2.85,2.96,4.41h.01Z"/><path class="cls-5" d="m119.49,145.44c-.5,3.38-2.16,6.58-4.84,8.78-5.81,4.76-14.01,3.31-19.73-.82-3.19-2.3-5.75-5.85-5.13-9.97.58-3.9,2.36-7.57,4.68-10.74,2.01-2.73,4.91-6.39,8.63-6.44,1.31-.01,2.58.42,3.78.95,5.67,2.52,11.18,6.75,12.48,13.15.34,1.67.38,3.4.13,5.09h0Z"/><path class="cls-10" d="m99.34,219.82c.12,3.47,3.05,6.79,6,8.3,3.41,1.74,5.34-.64,7.21-3.35,1.23-1.78,2.96-4.5,3.31-6.63.3-1.82-.59-3.26-2.17-4.1-2.09-1.12-4.34-2.16-6.71-2.1-3.83.09-7.11,3.16-7.59,6.87-.04.34-.06.68-.05,1.01h0Z"/><path class="cls-10" d="m97.47,187.99c-.75,3.78,1.56,8.11,4.37,10.49,3.24,2.75,5.93.67,8.64-1.78,1.78-1.61,4.34-4.11,5.26-6.32.79-1.89.19-3.67-1.29-4.98-1.97-1.74-4.14-3.44-6.72-3.98-4.16-.88-8.48,1.6-9.95,5.49-.13.35-.24.72-.31,1.08h0Z"/><path class="cls-10" d="m99.98,147.43c.16,2.74,2.92,8.77,7.11,7.59.61-.17,1.12-.56,1.59-.95,3.97-3.32,6.88-7.68,8.31-12.43,1.43-4.76-6.39-5.34-9.47-4.02-3.51,1.5-7.05,4.81-7.49,8.47-.06.45-.07.9-.04,1.35h0Z"/><polygon class="cls-14" points="280.02 282.11 185.02 336.4 194.55 355.06 296.03 303.09 280.02 282.11"/></g></g><g><rect class="cls-6" x="123.05" y="138.37" width="2.17" height="9.2"/><polygon class="cls-6" points="133.09 147.58 136.47 147.58 136.47 138.37 134.31 138.37 134.31 145.6 130.03 138.37 126.4 138.37 126.4 147.58 128.57 147.58 128.57 140.13 133.09 147.58"/><path class="cls-6" d="m161.43,140.11l1.57,3.06h-3.11l1.54-3.06Zm-8.05,2.16h-3.7v-2.16h3.77c1.57,0,1.68,2.16-.07,2.16m17.15-3.9h-3.73v7.93l-3.95-7.93h-2.71l-3.9,7.85-2.23-2.22c3.37,0,3.64-5.63-.39-5.63h-6.09v9.21h2.17v-3.57h1.52l3.59,3.59h2.96l1.38-2.77h4.58l1.43,2.76h3.82v-7.12l2.19,7.12h3.22l2.06-6.82v6.82h2.17v-9.21h-3.55l-2.25,7.47-2.27-7.47Z"/><path class="cls-6" d="m146.71,147.58v-5.31h-5.36v1.73h3.22v1.73h-2.49c-3.77,0-3.77-5.63.13-5.63h4.49v-1.73h-4.74c-6.45,0-6.37,9.21.22,9.21h4.52Z"/><path class="cls-6" d="m179.04,147.18h.08s.07,0,.08-.02c.01-.01.02-.03.02-.05,0-.01,0-.02-.01-.03,0,0-.02-.02-.03-.02-.01,0-.03,0-.07,0h-.08v.13Zm-.07.23v-.42h.14s.09,0,.11.01c.02,0,.04.02.05.04.01.02.02.04.02.06,0,.03-.01.06-.03.08-.02.02-.05.04-.09.04.01,0,.03.01.03.02.02.02.04.04.06.08l.05.08h-.08l-.04-.07c-.03-.05-.05-.09-.07-.1-.01,0-.03-.01-.05-.01h-.04v.18h-.07Zm.17-.54c-.06,0-.11.01-.16.04-.05.03-.09.07-.12.12-.03.05-.04.11-.04.16s.01.11.04.16c.03.05.07.09.12.12.05.03.1.04.16.04s.11-.02.16-.04c.05-.03.09-.07.12-.12.03-.05.04-.11.04-.16s-.02-.11-.04-.16c-.03-.05-.07-.09-.12-.12-.05-.03-.11-.04-.16-.04m0-.06c.07,0,.13.02.19.05.06.03.11.08.15.14.03.06.05.13.05.19s-.02.13-.05.19c-.03.06-.08.11-.14.14-.06.03-.13.05-.19.05s-.13-.02-.19-.05c-.06-.03-.11-.08-.14-.14-.03-.06-.05-.13-.05-.19s.02-.13.05-.19c.03-.06.08-.11.15-.14.06-.03.13-.05.19-.05"/><g><path class="cls-7" d="m125.06,149.9c.16,0,.32.02.48.07.16.05.33.11.49.17l.04.02.34-.72-.04-.02c-.43-.18-.87-.26-1.3-.26s-.8.08-1.11.24c-.32.16-.56.39-.73.69-.17.3-.25.65-.25,1.04,0,.62.17,1.11.52,1.44.34.34.85.51,1.49.51.45,0,.86-.07,1.22-.19h.03v-.76l-.06.02c-.43.13-.8.19-1.1.19-.71,0-1.06-.39-1.06-1.2,0-.39.09-.69.28-.9.18-.21.44-.32.78-.32Z"/><path class="cls-7" d="m129.21,149.15c-.68,0-1.21.17-1.58.5-.37.33-.55.82-.55,1.45s.19,1.12.55,1.46c.37.34.9.51,1.57.51s1.21-.17,1.57-.51c.37-.34.55-.83.55-1.45s-.18-1.12-.55-1.45c-.36-.34-.89-.51-1.57-.51Zm1.06,1.96c0,.81-.35,1.21-1.07,1.21-.35,0-.62-.1-.8-.3-.18-.2-.27-.51-.27-.91s.09-.71.27-.91c.18-.2.45-.3.8-.3.71,0,1.06.4,1.06,1.21Z"/><path class="cls-7" d="m135.29,151.01c0,.18.01.49.04.9l-1.84-2.69v-.02h-1.25v3.81h.92v-1.79c0-.19-.02-.51-.05-.95l1.84,2.72v.02h1.26v-3.81h-.92v1.8Z"/><polygon class="cls-7" points="137.14 149.95 138.33 149.95 138.33 153.02 139.34 153.02 139.34 149.95 140.53 149.95 140.53 149.21 137.14 149.21 137.14 149.95"/><polygon class="cls-7" points="141.7 153.02 144.31 153.02 144.31 152.28 142.71 152.28 142.71 151.41 144.19 151.41 144.19 150.67 142.71 150.67 142.71 149.94 144.31 149.94 144.31 149.21 141.7 149.21 141.7 153.02"/><path class="cls-7" d="m148.52,151.01c0,.18.01.49.04.9l-1.84-2.69v-.02h-1.25v3.81h.92v-1.79c0-.2-.02-.51-.05-.95l1.84,2.72v.02h1.26v-3.81h-.92v1.8Z"/><polygon class="cls-7" points="150.48 149.95 151.67 149.95 151.67 153.02 152.69 153.02 152.69 149.95 153.88 149.95 153.88 149.21 150.48 149.21 150.48 149.95"/><path class="cls-7" d="m158.86,149.9c.34,0,.67.07.98.2l.04.02.35-.71-.05-.02c-.42-.15-.86-.23-1.31-.23-.72,0-1.3.17-1.71.51-.41.34-.62.83-.62,1.44s.18,1.12.54,1.45c.36.34.87.51,1.54.51.26,0,.52-.02.77-.05.25-.03.52-.09.8-.17h.03v-2.01h-1.82v.74h.83v.7c-.18.03-.37.04-.55.04-.36,0-.63-.1-.82-.3-.19-.2-.28-.51-.28-.9s.12-.67.35-.89c.23-.22.55-.33.93-.33Z"/><path class="cls-7" d="m163.83,151.37c.24-.1.43-.23.56-.39.15-.18.22-.38.22-.61,0-.39-.15-.68-.45-.87-.29-.19-.74-.28-1.34-.28h-1.32v3.81h1.01v-1.43h.43l1.03,1.41v.02h1.16l-.06-.07c-.19-.23-.59-.73-1.25-1.57Zm-1.31-1.43h.24c.29,0,.51.04.64.11.13.07.19.18.19.34s-.06.28-.19.35c-.13.08-.34.12-.63.12h-.26v-.92Z"/><path class="cls-7" d="m167.58,149.15c-.68,0-1.21.17-1.58.5-.37.33-.55.82-.55,1.45s.19,1.12.55,1.46c.37.34.9.51,1.57.51s1.21-.17,1.57-.51c.37-.34.55-.83.55-1.45s-.18-1.12-.55-1.45c-.36-.34-.89-.51-1.57-.51Zm1.06,1.96c0,.81-.35,1.21-1.07,1.21-.35,0-.62-.1-.8-.3-.18-.2-.27-.51-.27-.91s.09-.71.27-.91c.18-.2.45-.3.8-.3.71,0,1.06.4,1.06,1.21Z"/><path class="cls-7" d="m173.25,151.53c0,.27-.06.48-.19.6s-.34.19-.63.19-.52-.06-.64-.19c-.13-.12-.19-.33-.19-.6v-2.32h-1.01v2.44c0,.44.16.79.48,1.04.32.25.77.38,1.34.38.38,0,.71-.06.99-.17.28-.11.5-.28.65-.49.15-.21.22-.46.22-.75v-2.45h-1.01v2.32Z"/><path class="cls-7" d="m178.14,149.51c-.28-.2-.7-.3-1.24-.3h-1.44v3.81h1.01v-1.32h.35c.55,0,.98-.11,1.28-.33.3-.22.46-.54.46-.95s-.15-.7-.43-.9Zm-.59.93c0,.17-.06.29-.19.38-.13.09-.34.14-.62.14h-.26v-1.02h.38c.24,0,.42.04.53.12.11.08.16.2.16.37Z"/></g><rect class="cls-11" x="183.13" y="138.28" width="1.09" height="14.84"/><g><path class="cls-16" d="m188.15,139.72h1.09v4.52h1.93v.89h-3.02v-5.41Z"/><path class="cls-16" d="m192.79,139.66v.89h-1.05v-.89h1.05Zm0,1.39v4.08h-1.05v-4.08h1.05Z"/><path class="cls-16" d="m196.66,144.93c0,.53-.13.92-.39,1.18-.26.26-.7.39-1.31.39-.44,0-.79-.09-1.03-.28-.24-.19-.36-.46-.36-.81h1c0,.13.05.23.16.31.05.04.1.06.16.08.06.02.12.03.19.03.21,0,.36-.07.45-.2.09-.14.13-.31.13-.51v-.54h-.02c-.11.15-.24.27-.39.36-.15.09-.31.14-.48.14-.41,0-.73-.16-.94-.47-.21-.32-.31-.85-.31-1.59,0-.24.01-.48.04-.73.03-.25.09-.47.17-.67.09-.2.22-.36.39-.49.17-.13.4-.19.68-.19.15,0,.3.04.45.12.16.08.29.23.39.44h.02v-.45h1v3.87Zm-2.07-1.3c.01.13.04.24.08.34.04.1.09.18.16.24.07.06.16.09.27.09s.2-.03.28-.09.13-.14.17-.24c.04-.1.07-.22.09-.37.02-.14.03-.3.03-.47,0-.5-.04-.85-.12-1.05-.08-.21-.22-.31-.43-.31-.12,0-.21.03-.28.08s-.13.13-.17.25c-.04.11-.07.27-.08.45-.01.19-.02.42-.02.69,0,.14,0,.28.02.4Z"/><path class="cls-16" d="m198.52,139.72v1.75h.02c.2-.35.53-.52.99-.52.33,0,.59.09.77.27.18.18.27.48.27.89v3.02h-1.05v-2.81c0-.21-.04-.36-.11-.44-.07-.08-.18-.13-.34-.13-.37,0-.55.22-.55.67v2.71h-1.05v-5.41h1.05Z"/><path class="cls-16" d="m202.61,139.89v1.17h.61v.71h-.61v2.21c0,.16.02.28.07.34.05.07.15.1.3.1.04,0,.08,0,.12,0,.04,0,.08,0,.11-.01v.73c-.12,0-.23,0-.34.01s-.22.01-.34.01c-.2,0-.37-.01-.5-.04s-.23-.08-.3-.17-.11-.19-.14-.33c-.03-.14-.04-.31-.04-.52v-2.33h-.53v-.71h.53v-1.17h1.05Z"/><path class="cls-16" d="m204.66,141.05v.48h.02c.11-.2.26-.35.43-.44.18-.09.38-.14.61-.14.33,0,.59.09.77.27.18.18.27.48.27.89v3.02h-1.05v-2.81c0-.21-.04-.36-.11-.44-.07-.08-.18-.13-.34-.13-.37,0-.55.22-.55.67v2.71h-1.05v-4.08h1Z"/><path class="cls-16" d="m208.61,139.66v.89h-1.05v-.89h1.05Zm0,1.39v4.08h-1.05v-4.08h1.05Z"/><path class="cls-16" d="m210.42,141.05v.48h.02c.11-.2.26-.35.43-.44.18-.09.38-.14.61-.14.33,0,.59.09.77.27.18.18.27.48.27.89v3.02h-1.05v-2.81c0-.21-.04-.36-.11-.44-.07-.08-.18-.13-.34-.13-.37,0-.55.22-.55.67v2.71h-1.05v-4.08h1Z"/><path class="cls-16" d="m216.34,144.93c0,.53-.13.92-.39,1.18-.26.26-.7.39-1.31.39-.44,0-.79-.09-1.03-.28-.24-.19-.36-.46-.36-.81h1c0,.13.05.23.16.31.05.04.1.06.16.08.06.02.12.03.19.03.21,0,.36-.07.45-.2.09-.14.13-.31.13-.51v-.54h-.02c-.11.15-.24.27-.39.36-.15.09-.31.14-.48.14-.41,0-.73-.16-.94-.47-.21-.32-.31-.85-.31-1.59,0-.24.01-.48.04-.73.03-.25.09-.47.17-.67.09-.2.22-.36.39-.49.17-.13.4-.19.68-.19.15,0,.3.04.45.12.16.08.29.23.39.44h.02v-.45h1v3.87Zm-2.07-1.3c.01.13.04.24.08.34.04.1.09.18.16.24.07.06.16.09.27.09s.2-.03.28-.09c.07-.06.13-.14.17-.24.04-.1.07-.22.09-.37.02-.14.03-.3.03-.47,0-.5-.04-.85-.12-1.05-.08-.21-.22-.31-.43-.31-.12,0-.21.03-.28.08s-.13.13-.17.25c-.04.11-.07.27-.08.45-.01.19-.02.42-.02.69,0,.14,0,.28.02.4Z"/><path class="cls-16" d="m189.03,150.19c0,.13,0,.24.03.34.02.1.06.19.11.26s.13.13.22.17c.09.04.21.06.35.06.17,0,.32-.05.45-.16.13-.11.2-.28.2-.5,0-.12-.02-.23-.05-.31-.03-.09-.09-.17-.16-.24-.08-.07-.18-.14-.3-.19-.12-.06-.28-.12-.46-.18-.24-.08-.45-.17-.63-.27-.18-.1-.32-.21-.44-.34-.12-.13-.21-.28-.26-.45-.06-.17-.08-.37-.08-.59,0-.54.15-.93.45-1.2s.71-.39,1.23-.39c.24,0,.47.03.67.08s.38.14.53.26c.15.12.27.27.35.45s.13.41.13.66v.15h-1.05c0-.26-.05-.46-.14-.59-.09-.14-.24-.21-.46-.21-.12,0-.22.02-.3.05s-.15.08-.19.14c-.05.06-.08.13-.1.2-.02.08-.03.15-.03.23,0,.17.04.31.11.42s.22.22.45.31l.84.36c.21.09.38.19.51.28s.24.2.31.32c.08.11.13.24.16.38s.05.29.05.45c0,.57-.17.99-.5,1.25-.33.26-.79.39-1.38.39s-1.06-.13-1.32-.4c-.27-.27-.4-.65-.4-1.15v-.22h1.09v.16Z"/><path class="cls-16" d="m192.08,148.76c.06-.27.15-.49.27-.67.13-.18.29-.32.5-.41.2-.09.46-.14.75-.14.31,0,.57.04.78.12.21.09.37.22.49.41s.21.41.26.67c.05.27.08.58.08.94s-.03.66-.08.92c-.06.27-.15.49-.27.67-.13.18-.29.31-.5.4s-.46.13-.75.13c-.31,0-.57-.03-.78-.12-.21-.08-.37-.21-.49-.39-.12-.18-.21-.4-.26-.67-.05-.27-.08-.58-.08-.94s.03-.66.08-.93Zm.98,1.5c0,.18.03.33.07.45.04.13.09.22.17.3.08.07.18.11.3.11.21,0,.36-.11.44-.33s.12-.59.12-1.1-.04-.88-.12-1.1-.23-.33-.44-.33c-.13,0-.23.04-.3.11-.08.07-.13.17-.17.3-.04.13-.06.28-.07.45-.01.18-.02.37-.02.58s0,.4.02.58Z"/><path class="cls-16" d="m197.92,151.25c-.11.2-.26.35-.43.43s-.38.13-.61.13c-.33,0-.59-.09-.77-.26-.18-.17-.27-.47-.27-.88v-3.03h1.05v2.81c0,.21.04.36.11.44s.18.12.34.12c.37,0,.55-.22.55-.67v-2.71h1.05v4.08h-1v-.48h-.02Z"/><path class="cls-16" d="m200.71,147.65v.55h.02c.11-.2.23-.36.39-.47.15-.12.34-.18.55-.18.03,0,.06,0,.09,0,.03,0,.06,0,.09.01v1c-.06,0-.11,0-.16-.01s-.11,0-.16,0c-.09,0-.18.01-.27.04-.09.03-.17.07-.25.13-.08.06-.14.13-.18.23-.05.09-.07.21-.07.35v2.45h-1.05v-4.08h1Z"/><path class="cls-16" d="m204.26,148.82c-.01-.1-.04-.18-.07-.26-.03-.08-.08-.14-.14-.19-.06-.05-.14-.07-.24-.07-.13,0-.23.03-.31.09-.08.06-.14.14-.18.26-.04.11-.07.26-.08.43s-.02.38-.02.62c0,.25,0,.47.02.65.02.18.04.33.08.44s.1.2.17.25.17.08.28.08c.18,0,.31-.08.39-.23.08-.15.12-.39.12-.73h1c0,.54-.12.94-.36,1.22-.24.28-.64.42-1.19.42-.26,0-.49-.03-.69-.09-.19-.06-.36-.18-.49-.34-.13-.16-.23-.38-.29-.66-.07-.28-.1-.62-.1-1.03s.04-.77.12-1.04c.08-.28.19-.5.34-.66.15-.16.32-.28.52-.34s.42-.1.67-.1c.49,0,.85.14,1.1.42.24.28.37.67.37,1.15h-1c0-.1,0-.2-.02-.3Z"/><path class="cls-16" d="m206.79,150.17c0,.12,0,.24.03.35.02.11.05.22.09.3.04.09.09.16.16.21s.15.08.24.08c.18,0,.31-.06.39-.19.08-.13.14-.32.17-.58h.94c-.02.48-.15.84-.38,1.08-.23.25-.6.37-1.1.37-.38,0-.67-.06-.89-.19-.21-.13-.37-.29-.47-.5s-.16-.44-.19-.7c-.02-.26-.03-.52-.03-.77,0-.27.02-.54.06-.79s.11-.48.23-.67c.11-.2.28-.35.49-.47.21-.12.5-.17.85-.17.3,0,.55.05.75.15.19.1.35.24.46.42.11.18.19.4.23.65.04.26.06.54.06.85v.23h-2.07v.33Zm1.04-1.36c-.02-.12-.04-.22-.08-.3-.04-.08-.09-.15-.16-.19-.07-.04-.16-.06-.26-.06s-.19.02-.26.07c-.07.05-.12.11-.16.19-.04.08-.07.17-.09.26-.02.1-.03.19-.03.29v.16h1.07c0-.16-.02-.29-.03-.41Z"/></g><g><path class="cls-16" d="m209.7,147.76h0c0-.08-.03-.12-.07-.14.06-.03.09-.09.09-.16,0-.09-.04-.19-.25-.19h-.26v.71h.13v-.3h.09c.1,0,.12.02.12.11.01.11.02.13.03.18h0s.14.01.14.01v-.03c-.03-.06-.04-.12-.05-.19Zm-.11-.28c0,.08-.05.08-.11.08h-.12v-.17h.12c.06,0,.11,0,.11.08Z"/><path class="cls-16" d="m209.46,146.99c-.35,0-.64.29-.64.64s.29.65.64.65.64-.29.64-.65-.29-.64-.64-.64Zm.53.64c0,.29-.24.53-.53.53s-.53-.24-.53-.53.24-.53.53-.53.53.24.53.53Z"/></g></g></svg>