<?xml version="1.0" encoding="utf-8"?>
<!-- Generator: Adobe Illustrator 26.3.1, SVG Export Plug-In . SVG Version: 6.00 Build 0)  -->
<svg version="1.1" id="Layer_2_00000023276368240282709050000002040518676690275001_"
	 xmlns="http://www.w3.org/2000/svg" xmlns:xlink="http://www.w3.org/1999/xlink" x="0px" y="0px" viewBox="0 0 208.1 190.1"
	 style="enable-background:new 0 0 208.1 190.1;" xml:space="preserve">
<style type="text/css">
	.st0{fill:#FF7563;}
	.st1{fill:#FFC5BD;}
	.st2{fill:#9FC7E6;}
	.st3{fill:none;}
	.st4{fill:#EE6B59;}
	.st5{fill:#EEB3A9;}
	.st6{fill:#C2CDD7;}
	.st7{fill:#97B6CD;}
	.st8{fill:#0A2E4F;}
	.st9{fill:#000817;}
	.st10{fill:#CA7047;}
	.st11{fill:#FFBD0F;}
	.st12{fill:#B65C3D;}
	.st13{fill:#051C2E;}
	.st14{fill:#94573B;}
	.st15{fill:#FFFFFF;}
	.st16{fill:#337892;}
	.st17{fill:#B8D4F3;}
	.st18{fill:#F0F0F0;}
	.st19{fill:#088DDE;}
	.st20{fill:#478FA6;}
	.st21{fill:#6BCAE3;}
	.st22{fill:#4F9CB6;}
	.st23{fill:#175283;}
</style>
<g id="Layer_1-2">
	<path class="st0" d="M194.7,117.6c2.6,1.8-7,12.8-8.8,15c-1.8,2.3-10.6,22.1-9.5,27.4c1.1,5.3,0.9,16.9-1.4,17.7s-7.5-3.4-9.4-3.9
		s-12.3-2.9-22.4-3.2c-4.7-0.1-10,0.1-14.8,0.4c-7.5,0.4-13.8,0.8-14.2-0.2c-0.8-1.6,6.5-13.5,7.2-16.3s8.4-26,9.5-28.1
		c1.1-2.1,0.3-13.5,1.3-14.8s8.4,2.2,11.8,2.2s31,4.3,35.2,4.2C183.3,117.7,192.1,115.8,194.7,117.6"/>
	<polyline class="st1" points="177,166.4 171.6,171.3 165.4,163 157.8,170 151.6,161.6 143.8,168.6 137.7,160.3 130.1,167.3 
		123.9,158.9 116.2,165.9 110,157.6 102.4,164.6 95.2,155 97.5,153.3 102.8,160.4 110.4,153.4 116.6,161.8 124.2,154.8 130.4,163.1 
		138.1,156.1 144.2,164.4 151.9,157.5 158.1,165.8 165.8,158.8 172,167.2 176.8,162.8 	"/>
	<path class="st2" d="M0,175.5c0-5.8,46.6-10.6,104-10.6s104,4.7,104,10.6s-46.6,10.6-104,10.6S0,181.3,0,175.5"/>
	<path class="st3" d="M144,113.7c-2.9,0-8.6-2.4-10.9-2.4c-0.4,0-0.7,0.1-0.9,0.3c-1,1.3-0.1,12.6-1.3,14.8
		c-1.1,2.1-8.8,25.4-9.5,28.2c-0.8,2.8-8,14.6-7.2,16.2c0.5,1,6.7,0.6,14.2,0.2c4.8-0.2,10.1-0.5,14.8-0.4
		c10.1,0.2,20.5,2.7,22.4,3.2c1.9,0.5,7.1,4.7,9.4,3.9c2.3-0.8,2.5-12.4,1.4-17.7c-1.1-5.3,7.7-25.1,9.5-27.4
		c1.8-2.3,11.5-13.2,8.8-15s-11.4,0.1-15.6,0.2C175,118,147.3,113.7,144,113.7"/>
	<path class="st4" d="M190.7,116.8c-2.2,0-4.8,0.3-7.2,0.6c-0.4,1.8-0.8,3.7-1.3,5.8l3.8,5l7.7-6.9l0.3,0.4c1.1-1.9,1.6-3.5,0.7-4.1
		c-0.1-0.1-0.3-0.2-0.5-0.3c-0.4-0.2-0.9-0.3-1.5-0.4C192.1,116.9,191.4,116.8,190.7,116.8"/>
	<path class="st4" d="M181.4,126.7c-0.6,2.2-1.1,4.5-1.7,6.7l0.1-0.1l3.4,4.5c1.2-2.6,2.3-4.6,2.8-5.2c0.3-0.4,0.9-1.1,1.7-2.1
		l-2,1.8L181.4,126.7"/>
	<path class="st4" d="M179.4,137.5l-1.1,1c-0.9,3.1-1.8,5.9-2.7,7.8c-1.2,2.9-2.4,5.3-3.6,7.4l0,0.1l7.2-6.5
		c0.8-2.2,1.7-4.4,2.6-6.4L179.4,137.5L179.4,137.5z"/>
	<path class="st4" d="M177.4,152.6l-5.8,5.2l-1.3-1.7c-1.1,1.6-2.4,2.8-3.7,3.9l5.4,7.1l4.7-4.2c-0.1-1.1-0.2-2-0.4-2.9
		c-0.1-0.3-0.1-0.7-0.1-1.1C176.2,157.4,176.7,155.1,177.4,152.6L177.4,152.6z"/>
	<path class="st4" d="M122.5,159.9l-6.6,5.9l-0.1-0.1c-1,2.1-1.8,3.9-1.7,4.7l0,0c0,0,0,0,0,0l0,0v0l0,0v0l0,0v0l0,0v0l0,0v0l0,0v0
		l0,0v0l0,0v0l0,0v0h0v0c0.2,0.4,1.7,0.6,3.9,0.6c0.1,0,0.2,0,0.3,0c0.3,0,0.7,0,1.1,0c0.3,0,0.7,0,1,0c2.3-0.1,5.1-0.2,8.1-0.4
		c3.9-0.2,8.2-0.4,12.2-0.4h0.1c0.8,0,1.6,0,2.4,0c10.1,0.2,20.5,2.7,22.4,3.2c0,0,0.1,0,0.1,0c0,0,0.1,0,0.1,0
		c1.8,0.6,6.1,3.9,8.6,3.9c0.2,0,0.5,0,0.6-0.1c1.4-0.5,2-5.1,2-9.9c0-0.5,0-0.9,0-1.4l-5.3,4.8l-6.2-8.2l-7.7,6.9l-4.4-5.8
		c-0.2,0-0.3,0-0.5,0c-1.2,0-2.5-0.1-3.9-0.1l-5.1,4.6l-4.2-5.6c-1.4-0.2-2.8-0.4-4.2-0.6l-5.5,4.9l-5.1-6.8
		C123.9,160.3,123.2,160.1,122.5,159.9L122.5,159.9z"/>
	<path class="st4" d="M128.8,161.2l1.4,1.9l1.5-1.4C130.8,161.5,129.8,161.4,128.8,161.2L128.8,161.2z"/>
	<path class="st4" d="M161.7,162.5c-1.3,0.4-2.7,0.8-4.2,1.2c-0.3,0.1-0.6,0.1-0.9,0.2l1.4,1.9L161.7,162.5"/>
	<path class="st4" d="M144.2,164.4l0.9-0.8c-0.6,0-1.1-0.1-1.7-0.2L144.2,164.4z"/>
	<polyline class="st1" points="185.1,131.7 179.7,124.3 172.3,131.1 166.3,123 158.9,129.8 153,121.7 145.6,128.5 139.6,120.4 
		132.2,127.2 126.2,119.1 118.9,125.8 112,116.6 114.2,114.9 119.3,121.8 126.6,115.1 132.6,123.1 140,116.4 146,124.4 153.3,117.7 
		159.3,125.7 166.7,119 172.7,127.1 180,120.3 186,128.4 192.9,122 	"/>
	<polyline class="st1" points="181.6,140.5 179.4,137.4 172.3,144.2 166.6,136.1 159.5,142.9 153.8,134.8 146.7,141.6 141,133.5 
		133.9,140.2 128.1,132.2 121.1,138.9 115.3,130.9 108.3,137.6 101.7,128.4 103.7,126.7 108.6,133.6 115.7,126.9 121.4,134.9 
		128.5,128.2 134.2,136.2 141.3,129.5 147.1,137.5 154.1,130.8 159.9,138.8 166.9,132.1 172.7,140.1 179.8,133.4 182.9,137.7 	"/>
	<polyline class="st1" points="177.1,152.8 171.7,157.8 166,150.2 159,156.5 153.3,148.9 146.3,155.3 140.6,147.7 133.6,154.1 
		127.9,146.5 120.9,152.8 115.2,145.2 108.2,151.6 101.7,142.9 103.7,141.3 108.6,147.8 115.6,141.4 121.2,149 128.2,142.7 
		133.9,150.3 140.9,143.9 146.6,151.5 153.6,145.1 159.3,152.7 166.4,146.4 172,154 178.5,148.1 	"/>
	<path class="st5" d="M179.2,147.2l-7.2,6.5l0-0.1c-0.5,0.9-1.1,1.7-1.6,2.5l1.3,1.7l5.8-5.2C177.9,150.9,178.6,149.1,179.2,147.2
		L179.2,147.2z"/>
	<path class="st5" d="M179.7,133.4L179.7,133.4c-0.5,1.8-1,3.5-1.5,5.1l1.1-1l2.5,3.3c0.4-1,0.9-2,1.3-2.9L179.7,133.4L179.7,133.4z
		"/>
	<path class="st5" d="M193.7,121.3l-7.7,6.9l-3.8-5c-0.3,1.1-0.6,2.3-0.8,3.5l4.2,5.6l2-1.8c1.9-2.4,4.8-6,6.4-8.8L193.7,121.3
		L193.7,121.3z"/>
	<path class="st6" d="M192.7,117c0.6,0.1,1.1,0.2,1.5,0.4C193.8,117.2,193.3,117,192.7,117"/>
	<path class="st6" d="M119.1,159.3c-0.2,0.4-0.4,0.7-0.6,1.1C118.8,160,118.9,159.6,119.1,159.3L119.1,159.3"/>
	<polyline class="st7" points="114.1,170.5 114.1,170.5 114.1,170.5 	"/>
	<polyline class="st7" points="114.1,170.6 114.1,170.6 114.1,170.6 	"/>
	<path class="st7" d="M140.6,170.6c-4,0-8.3,0.2-12.2,0.4c-3,0.1-5.8,0.3-8.1,0.4c2.3-0.1,5.1-0.2,8.1-0.4
		C132.3,170.8,136.6,170.6,140.6,170.6L140.6,170.6"/>
	<path class="st7" d="M140.8,170.6c0.8,0,1.6,0,2.4,0C142.4,170.6,141.6,170.6,140.8,170.6"/>
	<polyline class="st7" points="114.1,170.6 114.1,170.6 114.1,170.6 	"/>
	<polyline class="st7" points="114.1,170.6 114.1,170.7 114.1,170.6 	"/>
	<polyline class="st7" points="114.1,170.7 114.1,170.7 114.1,170.7 	"/>
	<polyline class="st7" points="114.1,170.7 114.1,170.7 114.1,170.7 	"/>
	<path class="st7" d="M114.2,170.7c0.2,0.4,1.7,0.6,3.9,0.6C115.8,171.3,114.4,171.2,114.2,170.7"/>
	<path class="st7" d="M119.3,171.3c-0.4,0-0.7,0-1.1,0C118.6,171.3,119,171.3,119.3,171.3"/>
	<path class="st7" d="M165.6,173.8c0,0,0.1,0,0.1,0C165.7,173.8,165.6,173.8,165.6,173.8"/>
	<path class="st5" d="M119.1,159.3c-0.2,0.4-0.4,0.7-0.6,1.1c-0.9,1.8-1.9,3.7-2.7,5.4l0.1,0.1l6.6-5.9
		C121.2,159.7,120,159.5,119.1,159.3"/>
	<path class="st5" d="M166.6,160c-1.4,1.1-3,1.9-4.9,2.6l-3.6,3.2l-1.5-1.9c-1,0.1-2.1,0.2-3.3,0.2l4.4,5.8l7.7-6.9l6.2,8.2l5.3-4.8
		c0-1.2-0.1-2.5-0.2-3.6l-4.7,4.2L166.6,160"/>
	<path class="st5" d="M124.7,160.4l5.2,6.8l5.5-4.9c-1.2-0.2-2.4-0.4-3.5-0.6l-1.5,1.4l-1.4-1.9C127.3,160.9,126,160.7,124.7,160.4
		L124.7,160.4z"/>
	<path class="st5" d="M139.5,162.9l4.2,5.6l5.1-4.6c-1.2-0.1-2.5-0.2-3.8-0.3l-0.9,0.8l-0.8-1C142.1,163.3,140.8,163.1,139.5,162.9
		L139.5,162.9z"/>
	<path class="st8" d="M98.3,67.9c1.9-0.1,3.7-0.5,5.6-1c1.7-0.4,3-0.6,4.3-1.9c1.1-1,2-2.1,3.1-3.1c0.9-0.9,1.7-2,2.9-2.5
		c1.9-0.8,4.6,0,5.7-1.8c0.4-0.7,0.4-1.5,0.6-2.2c0.3-1.2,1.3-2.3,2.4-2.7c0.6-0.2,1.2-0.3,1.8-0.7c1-0.7,1.1-2.1,0.9-3.3
		c-0.2-1.2-0.6-2.4-0.3-3.6c0.5-2.2,3.1-3.5,3.3-5.7c0.1-2.1-2-3.7-2.1-5.8c-0.1-2,1.7-4,0.8-5.8c-0.7-1.5-3-1.9-3.4-3.5
		c-0.3-1.1,0.4-2.4,0.2-3.6c-0.4-2.4-4.1-2.8-4.9-5.1c-0.3-1,0-2-0.4-3c-0.9-2.7-5.3-2.4-6.3-5.1c-0.3-0.7-0.2-1.4-0.5-2.1
		c-0.6-1.5-2.4-2-3.9-2.1s-3.3,0-4.6-0.9c-0.5-0.3-0.8-0.7-1.3-1c-1.2-0.6-2.5-0.2-3.8,0.3c-1.2,0.4-2.5,0.9-3.6,0.5
		c-0.6-0.2-1-0.6-1.6-0.9c-1.8-1-4.1-0.6-5.8,0.5C86,2.5,85,3.4,84.1,4.5c-0.9,1.1-1.5,2.3-2.3,3.5c-2.3-1.6-5.6-1.2-7.5,0.7
		c-0.4,0.5-0.8,1-1.3,1.4c-0.7,0.6-1.5,1-2.3,1.4c-1.5,0.7-3.2,1.6-3.6,3.2c-0.1,0.4-0.1,0.8-0.2,1.1c-0.5,1.6-2.5,2.1-3.9,3
		c-1.8,1.1-3,3.3-2.9,5.4c0.1,0.8,0.3,1.7,0.1,2.5c-0.2,1.5-1.6,2.7-2.1,4.1c-0.5,1.3-0.3,2.9,0.5,4c0.4,0.6,1,1.1,1.3,1.8
		c1.1,2.3-1.4,5.1-0.5,7.5c0.4,1.1,1.5,1.8,1.9,2.9c0.6,1.8-0.7,4.2,0.7,5.5c0.5,0.4,1.2,0.6,1.6,1.1c1.1,1.3-0.2,4,1.4,4.7
		c0.3,0.2,0.7,0.2,1.1,0.1c0.3,0,0.7,0,1,0.1c1.4,0.5,1.2,2.6,2.3,3.7c0.8,0.9,2.1,0.8,3.3,0.8c0.3,0,0.6,0,0.8,0
		c1.3,0,2.3,0.6,3.6,1c0.5,0.2,1,0.1,1.4,0.1c0.4,0,0.7,0,1.1,0c1.1,0.2,1.4,1.3,2.4,1.7c0.9,0.3,2.2-0.1,3-0.6
		c-0.3,0.2,1.9,1.8,2.1,1.9c0.9,0.4,1.9,0.5,2.8,0.6C92.6,68.1,95.5,68.1,98.3,67.9"/>
	<path class="st9" d="M108,37.6c-1.1,8.3-4.9,16.1-10.7,18.1c-1.1,0.4-2.1,0.5-3,0.5c-1.8,0-3.5-0.5-5.4-1.3
		c-4.2-1.6-7.7-6.4-9.8-12.1c-0.4,0.1-0.8,0.2-1.2,0.2c-0.2,0-0.4,0.1-0.5,0.2c-0.2,0.2-0.1,0.6,0,1c0.5,1.3,1.2,2.7,0.9,4
		c-0.4,1.7-2.2,2.8-2.5,4.5c-0.2,1.3,0.6,2.5,0.8,3.8c0.1,1-0.2,2,0.2,3c0.3,0.7,1,1.1,1.7,1.5c0.4,0.2,0.7,0.3,1.1,0.5
		c1.8-0.7,3.5-1.3,5.1-1.9c3.1-1.2,5.7-2,8.5-2c2.1,0,4.2,0.5,6.5,1.5c1.8,0.8,3.6,1.6,5.4,2.3c0.3-0.3,0.7-0.6,1.1-0.9
		c1.1-0.9,2.5-1.6,3.5-2.6c0.4-0.4,0.8-0.9,1-1.5c0.6-1.6,0-3.4,0.6-5c0.4-1.3,1.5-2.2,1.8-3.5c0.4-2.3-2.6-1.5-1.5-6.7
		C108.7,39.6,108.2,38.5,108,37.6"/>
	<path class="st10" d="M48.6,125.8c-1.6-3.6-2.5-7.5-2.1-11.5c0.9-9.4,4.3-18.7,8.5-27.1c3-6,6.9-14.4,12.5-18.3
		c3.6-2.5,6.7,3.1,7.1,6.2c0.8,6.2-1.1,12.6-3.4,18.3c-2.1,5.1-4.4,10-6.5,15.1c-1.1,2.6-3.3,5.4-3.2,8.4c0.1,3.6,5.1,6.7,7.3,9.2
		c3.2,3.7,6.3,7.6,9.1,11.7c0.8,1.1,3.9,5.2,3.5,6.8c-0.6,1.9-4.9,1-6.6,0.8c-5.8-0.8-11.3-3.2-15.9-6.9
		C54.6,135.1,50.8,130.7,48.6,125.8"/>
	<path class="st10" d="M138.9,125.8c1.6-3.6,2.5-7.5,2.1-11.5c-0.9-9.4-4.3-18.7-8.5-27.1c-3-6-6.9-14.4-12.5-18.3
		c-3.6-2.5-6.7,3.1-7.1,6.2c-0.8,6.2,1.1,12.6,3.4,18.3c2.1,5.1,4.3,10,6.5,15.1c1.1,2.6,3.3,5.4,3.2,8.4c-0.1,3.6-5.1,6.7-7.3,9.2
		c-3.2,3.7-6.3,7.6-9.1,11.7c-0.8,1.1-3.9,5.2-3.5,6.8c0.6,1.9,4.9,1,6.6,0.8c5.8-0.8,11.3-3.2,15.9-6.9
		C132.8,135.1,136.6,130.7,138.9,125.8"/>
	<path class="st11" d="M69,112.1c0,0.1,0,0.3,0,0.4c0.1,4.8,0,9.5-0.4,14.3c-0.4,4.6-2,8.6-3.6,12.9c-0.1,0.3-0.2,0.7-0.1,1
		c0.1,0.4,0.6,0.7,0.9,0.9c7.7,4,16.4,5.3,24.8,5.9c0.7,0,1.5,0.1,2.2,0.1v0c0.1,0,0.1,0,0.2,0s0.2,0,0.2,0v0c0.7,0,1.4-0.1,2.2-0.1
		c8.5-0.6,17.1-1.8,24.8-5.9c1.8-1,0.2-4.6-0.4-6.2c-0.9-2.8-1.5-5.8-1.9-8.7c-0.7-5.8-0.6-11.8-0.5-17.6c0.2-9.3,3.5-18.6,5.8-27.6
		c0.6-2.6,1.5-5,1.8-7.7c0.4-3-1.5-5.4-4.1-6.8c-3.2-1.8-5.1-2-8.1-2.9c-4.5-1.4-9-3.3-13.3-5.2c-5.4-2.4-9.5-1.6-14.9,0.6
		c-2.7,1.1-6.2,2.2-8.8,3.4c-3.2,1.4-6.4,2.5-9.5,4c-2.5,1.2-4.8,3.4-4.6,6.3c0.2,3.9,1.4,7.8,2.4,11.6c1.7,6,3.8,11.9,4.4,18.1
		C68.7,106,68.9,109,69,112.1"/>
	<path class="st3" d="M99.4,59c-2.3-1-4.4-1.5-6.5-1.5c-2.7,0-5.4,0.8-8.5,2c-2.7,1.1-6.2,2.2-8.8,3.4c-3.2,1.4-6.4,2.5-9.5,4
		c-2.5,1.2-4.8,3.4-4.6,6.3c0.2,3.9,1.4,7.8,2.4,11.6c1.7,6,3.8,11.9,4.4,18.1c0.3,3.1,0.5,6.1,0.6,9.2c0,0.1,0,0.3,0,0.4
		c0.1,4.8,0,9.5-0.4,14.3c-0.4,4.6-2,8.6-3.6,12.9c-0.1,0.3-0.2,0.7-0.1,1c0.1,0.4,0.6,0.7,0.9,0.9c7.7,4,16.4,5.3,24.8,5.9
		c0.7,0,1.5,0.1,2.2,0.1v0c0.1,0,0.1,0,0.2,0s0.2,0,0.2,0v0c0.7,0,1.4-0.1,2.2-0.1c8.5-0.6,17.1-1.8,24.8-5.9c1.8-1,0.2-4.6-0.4-6.2
		c-0.9-2.8-1.5-5.8-1.9-8.7c-0.7-5.8-0.6-11.8-0.5-17.6c0.2-9.3,3.5-18.6,5.8-27.6c0.6-2.6,1.5-5,1.8-7.7c0.4-3-1.5-5.4-4.1-6.8
		c-3.1-1.8-5.1-2-8.1-2.9C108.2,62.8,103.8,61,99.4,59"/>
	<path class="st10" d="M86.4,68.8c1.8,0.9,4,1,6,1c2.8,0,5.6-0.3,8-1.7c1-0.6,2-1.6,2.4-2.7c0.5-1.4-0.1-1.8-0.8-2.9
		c-1.3-2.3-1.9-5.1-2.1-7.7c-0.2-3.4,0.1-6.8-0.2-10.1c0-0.2,0-0.4-0.2-0.5c-0.1-0.1-0.3-0.1-0.5-0.1c-2.1-0.1-4.3,0.1-6.4,0
		c-2.6-0.1-4.6,0.1-7,0.7c0.1,2.5,0.1,5,0.2,7.5c0,2.1,0.1,4.3-0.4,6.4c-0.3,1.3-1,2.4-1.6,3.6C82.7,64.5,84.1,67.6,86.4,68.8"/>
	<path class="st12" d="M85.5,57.9c1.3,0.9,2.8,1.7,4.4,2.1c3.2,0.9,6.8,0.3,9.4-1.7c0.4-0.3,0.7-0.5,1-0.8c-0.2-1-0.3-1.9-0.4-2.9
		c-0.2-3.4,0.1-6.8-0.2-10.1c0-0.2,0-0.4-0.2-0.5c-0.1-0.1-0.3-0.1-0.5-0.1c-2.1-0.1-4.3,0.1-6.4,0c-2.6-0.1-4.6,0.1-7,0.7
		c0.1,2.5,0.1,5,0.2,7.5C85.9,54,85.9,55.9,85.5,57.9"/>
	<path class="st11" d="M45.6,100.8c-0.1-0.3,10-22.9,12.3-26.2c2.2-3.1,4.2-4.9,7.9-7.4c0.1-0.1,3.3,7,4.5,11
		c1.1,3.9,1.6,7.9,1.4,11.9c-0.2,3.6-1,7.4-1.9,11c-0.9,3.7-2.3,6.8-3.9,10.2c0,0.1-8-3.3-9.8-4.1C52.8,105.5,45.7,101.1,45.6,100.8
		"/>
	<path class="st11" d="M68.8,86.6c-0.4,1.1-0.7,2.2-1,3.2c-0.3,1.1-0.5,2.2-0.7,3.3s-0.3,2.2-0.4,3.3c-0.1,1.1-0.2,2.2-0.1,3.4
		c0.3-1.1,0.5-2.2,0.8-3.3c0.2-1.1,0.4-2.2,0.6-3.3c0.2-1.1,0.4-2.2,0.5-3.3C68.6,88.9,68.7,87.8,68.8,86.6"/>
	<path class="st11" d="M141.1,100.8c0.1-0.3-10-22.9-12.3-26.2c-2.2-3.1-4.2-5.3-8.2-7.6c-0.1-0.1-3.1,7.2-4.2,11.2
		c-1.1,3.9-1.6,7.9-1.4,11.9c0.2,3.6,1,7.4,1.9,11c0.9,3.7,2.3,6.8,3.8,10.2c0,0.1,8-3.3,9.8-4.1C133.9,105.5,141,101.1,141.1,100.8
		"/>
	<path class="st11" d="M117.9,86.6c0.1,1.1,0.2,2.2,0.4,3.4c0.1,1.1,0.3,2.2,0.5,3.3c0.2,1.1,0.4,2.2,0.6,3.3s0.5,2.2,0.8,3.3
		c0-1.1,0-2.3-0.2-3.4c-0.1-1.1-0.2-2.2-0.4-3.3s-0.4-2.2-0.7-3.3C118.6,88.8,118.3,87.7,117.9,86.6"/>
	<path class="st10" d="M108.3,31.9c0.2,10.1-3.9,21.4-11.1,23.8c-3.1,1-5.4,0.4-8.5-0.7c-10.7-4-16.5-28.5-7.4-37.4
		c8.1-8,21.8-5.5,25.5,5.5C107.8,25.6,108.3,28.7,108.3,31.9"/>
	<path class="st10" d="M76.8,33c2.3,1.4,2.9,6.2,3,8.9c0,1,0,2.1-0.5,2.8c-1.2,1.6-3.6-0.4-4.5-1.7c-0.6-0.9-1.1-2.1-1.4-3.2
		C72.7,36.9,73.3,31,76.8,33"/>
	<path class="st13" d="M81.3,29.5c-0.1,0.4,0.1,0.6,0.4,0.8c0.9,0.6,2.6-0.3,3.4-0.5c1.7-0.5,3.6-0.8,5.2-1.5c0.8-0.3,0.7-1.2,0-1.5
		c-2.7-0.9-5.3,0-7.7,1.3c0,0-0.1,0-0.1,0.1C81.9,28.5,81.4,28.9,81.3,29.5"/>
	<path class="st13" d="M106.8,29.4c0.1,0.4-0.1,0.7-0.4,0.9c-0.8,0.6-2.6-0.2-3.4-0.5c-1.7-0.4-3.6-0.8-5.2-1.4
		c-0.8-0.3-0.7-1.2,0-1.5c2.7-1,5.3-0.1,7.8,1.2c0,0,0.1,0,0.1,0.1C106.2,28.4,106.7,28.8,106.8,29.4"/>
	<path class="st14" d="M93.8,43.2c-1-0.1-1.6,0.9-0.6,1c1.6,0.2,3.5,0.1,4.1-1.8c0.3-1,0-2-0.2-3c-0.3-1.4-0.5-2-0.8-3.4
		c-0.2-1-1.1-0.2-0.8,0.8c0.3,1.2,0.4,1.6,0.7,2.8c0.1,0.6,0.4,1.4,0.3,2C96.2,43.1,94.8,43.3,93.8,43.2"/>
	<path class="st15" d="M89.6,47.1c-0.7,0-1.1,0.5-0.7,0.7l0.1,0.1c2.5,2,6.7,2.2,9.2,0.1c0,0,1.3-1.7,0.5-1.6
		C95.6,47,92.6,47.2,89.6,47.1"/>
	<path class="st8" d="M114.8,26.4c0.7,2.4,0.7,4.9,0.7,7.4c0,1.9,0,3.8-0.4,5.6c-0.2,0.8-0.7,2.3-1.6,2.6c-0.9,0.3-2.2-0.6-2.7-1.4
		s-0.6-1.7-1.2-2.3c-0.6-0.6-1.7-0.7-2.2-1.4c-0.7-0.9-0.3-2.2-0.9-3.1c-0.8-1.2-2.8-1.2-3.2-2.5c-0.1-0.4-0.1-0.8-0.1-1.1
		c0-1.1-0.6-2.2-1.5-2.8c-0.8-0.5-1.8-0.8-2.1-1.6c-0.2-0.5-0.1-1.2-0.3-1.7c-0.3-1-1.4-1.4-2.5-1.7s-2.1-0.5-2.7-1.4
		c-0.5-0.7-0.5-1.8-1.2-2.3c-0.8-0.6-2,0-2.9,0.2c-1,0.2-2.1,0-3.1-0.5c-0.7-0.4-1.4-1.1-2.2-1.2c-0.9-0.1-1.7,0.6-2.4,1
		c-0.7,0.4-1.4,0.5-2,0.9c-0.9,0.5-1.7,1-2.7,0.4c-1.3-0.9-0.3-2,0.3-2.8c2-2.7,4.9-4.7,8.2-5.4c3.7-0.9,7.6-0.1,11.2,0.5
		c2.8,0.5,6.4,1.1,9.2,2.6c2.2,1.2,3,3.3,4.4,5.2c1.6,2.1,3.1,4.4,3.9,7C114.8,26.3,114.8,26.4,114.8,26.4"/>
	<path class="st13" d="M101,36c-1.7,0.1-1.6-2.4-1.6-2.4H98c-0.2,0-0.3-0.3-0.1-0.4c2-1,3.4-0.6,3.4-0.6C102,33.2,102.2,35.9,101,36
		"/>
	<path class="st13" d="M88.5,36.6c-1.7,0.1-1.6-2.4-1.6-2.4h-1.4c-0.2,0-0.3-0.3-0.1-0.4c2-1,3.4-0.6,3.4-0.6
		C89.5,33.9,89.7,36.5,88.5,36.6"/>
	<path class="st16" d="M35.2,154.3c-1.6-2.6-2-5.9-1.2-8.9c1.1-4.2,4.9-8.3,9.4-8.6c7.2-0.5,14.9,1.9,21.8,4.1
		c8.9,2.8,17.6,5.9,27,5.9c16.7-0.1,26.8-8.3,43.4-9.9c4.1-0.4,10.5,0.1,13.8,2.7c2.5,1.9,4.8,6.4,4.5,9.6
		c-0.8,7.7-7.2,10.9-12.2,14.1c-6.3,4.1-13,4.7-19.8,7.3c-6.6,2.5-13.5,4.7-20.4,5.6c-10,1.3-18.8,0.8-28.6-2.4
		c-11-3.7-23.6-5.7-32.9-14C38.2,158.3,36.5,156.4,35.2,154.3"/>
	<path class="st17" d="M53.9,93.3c-0.1-0.9,0.6-1.7,1.5-1.7h76c0.9,0,1.6,0.8,1.5,1.7l-5,51.8H58.8L53.9,93.3z"/>
	<path class="st18" d="M53.2,94.8c-0.1-0.9,0.6-1.7,1.6-1.7H132c0.9,0,1.6,0.8,1.6,1.7l-5,51.8H58.3L53.2,94.8z"/>
	<rect x="58.3" y="146.6" class="st17" width="70.2" height="3.1"/>
	<path class="st17" d="M88.5,119.8c0-2.7,2.2-4.9,4.9-4.9s4.9,2.2,4.9,4.9s-2.2,4.9-4.9,4.9S88.5,122.5,88.5,119.8"/>
	<path class="st10" d="M142.4,174.2c-0.4-0.9-1.1-1.6-2-2.1c-1.6-0.8-3.4-0.9-5.2-1.2c-3.7-0.6-7.4-0.9-11-1.7
		c-3.9-0.9-7.6-2.2-11.3-3.6c-3.5-1.3-6.9-3.2-10.6-4c-1.1-0.3-2.3-0.4-3.5-0.3c-3,0.3-5.7,2.9-6.2,5.9c-0.3,2.4,0.7,4.8,2.4,6.4
		c2.2,1.9,5.3,2.1,8,2.6c6.3,1.3,12.6,2.6,18.6,4.7c2.7,0.9,5.4,2,8.1,3.1c2.7,1.1,6.2,3.1,9,1.4c3-1.8,4.2-5.9,4-9.2
		C142.9,175.5,142.7,174.8,142.4,174.2"/>
	<polygon class="st15" points="132.5,170 130.6,180.2 126.8,182.7 117.6,179.9 121.5,168.3 	"/>
	<path class="st15" d="M140.1,189.9c-4.1-0.8-6.3-1.9-10.2-4.1c-0.7-0.4-2.4-1.4-3-1.9c-0.2-0.2-2.3-1.7-2.4-1.7
		c3.5-0.2,2.6-3.6,2.8-5.8c0.1-1.2,0.6-2.4,1.3-3.4c0.4-0.6,1.2-1.4,1.2-2.1c0-0.5-0.2-0.7-0.6-0.9c-0.2-0.1-1.2-0.7-1.4-0.6
		c1.6-0.5,3.2-0.6,4.9-0.8c2.7-0.3,5.3-0.1,8-0.2c2.5,0,4.9,0.3,7.3,1.4c1.5,0.7,2.9,1.4,4,2.8c1.9,2.5,2.2,5.5,1.4,8.4
		c-0.7,2.3-2,4.4-3.7,6.1c-2.3,2.2-5.6,3.5-8.8,3C140.6,189.9,140.4,189.9,140.1,189.9"/>
	<path class="st3" d="M148,169.7c-2.2-1-4.5-1.4-6.9-1.4c-0.1,0-0.2,0-0.3,0c-0.8,0-1.6,0-2.4,0c-1.9,0-3.7,0-5.6,0.2
		c-1.7,0.1-3.3,0.3-4.9,0.8c0.2-0.1,1.2,0.5,1.4,0.6c0.4,0.3,0.6,0.4,0.6,0.9c0,0.8-0.8,1.5-1.2,2.1c-0.6,1-1.2,2.2-1.3,3.4
		c-0.2,2.2,0.6,5.6-2.8,5.8c0.2,0,2.2,1.5,2.4,1.7c0.6,0.5,2.3,1.5,3,1.9c3.9,2.2,6.1,3.3,10.2,4.1c0.2,0.1,0.5,0.1,0.8,0.1
		c0.5,0.1,0.9,0.1,1.4,0.1h0c2.7,0,5.4-1.2,7.4-3.1c1.7-1.6,3.1-3.7,3.7-6.1c0.8-2.9,0.5-5.9-1.4-8.4
		C150.9,171.1,149.5,170.3,148,169.7"/>
	<path class="st19" d="M136,181.2c0.4,0,0.9-0.1,1.3-0.3c0.8-0.3,1.3-1,1.6-1.7c0.4-1,0.2-2,0.4-3c0.1-0.9-0.2-1.7-0.9-2.4
		c-0.6-0.6-1.3-0.9-2.1-1.3c-0.9-0.4-1.9-0.7-2.9-1c-0.9-0.3-1.7-0.5-2.6-0.8c-0.3-0.1-0.7-0.2-1-0.2c-0.9-0.1-1.8,0.4-2.4,1.1
		c-1.5,1.5-2,3.8-1.7,5.9c0.1,0.5,0.1,1,0.3,1.5c0.6,1.5,2,1.6,3.4,1.9C131.7,181.3,133.8,181.4,136,181.2"/>
	<path class="st15" d="M139.3,172.9c0.3-0.6-0.6-1.1-0.9-0.5c-1.5,2.8-2.3,6.7-0.9,9.6c0.3,0.6,1.1,0.1,0.9-0.5
		C137.2,178.9,138,175.3,139.3,172.9"/>
	<path class="st15" d="M135.9,171.8c0.3-0.5-0.5-1-0.9-0.5c-1.1,1.6-1.7,3.7-1.9,5.6c-0.3,2-0.1,3.9,0.7,5.7
		c0.3,0.6,1.1,0.1,0.9-0.5c-0.8-1.8-0.9-3.7-0.5-5.6C134.5,174.9,135,173.2,135.9,171.8"/>
	<path class="st15" d="M132.7,170.9c0.4-0.5-0.5-1-0.9-0.5c-1.2,1.7-1.9,3.8-2.2,5.8c-0.4,2-0.2,4,0.6,5.9c0.2,0.6,1.1,0.1,0.9-0.5
		c-0.8-1.8-0.8-3.8-0.3-5.7C131.1,174.1,131.7,172.3,132.7,170.9"/>
	<path class="st20" d="M36.9,159.7c-0.1-0.1-0.1-0.1-0.2-0.2c-3.8-4.2-5.3-10.7-2.4-15.8c1.2-2.1,3.4-3.5,5.7-4.1
		c4.1-1,9.2,0.3,13.1,1.7c12.4,4.4,24.9,8.5,37.2,12.8c10.2,3.5,21.8,7.9,21.8,7.9l-5.5,18.9c-4.3-1.1,2.9,0.6-7.9-1.7
		c-14.8-3.2-29.6-7-44.3-10.9C48.3,166.8,41.6,164.6,36.9,159.7"/>
	<polygon class="st21" points="105,157.9 99.2,180.6 107.5,182.4 112.9,161 	"/>
	<path class="st10" d="M44.2,174.2c0.4-0.9,1.1-1.6,2-2.1c1.6-0.8,3.4-0.9,5.2-1.2c3.6-0.6,7.4-0.9,11-1.7c3.9-0.9,7.6-2.2,11.3-3.6
		c3.5-1.3,6.9-3.2,10.6-4c1.1-0.3,2.3-0.4,3.5-0.3c3,0.3,5.7,2.9,6.2,5.9c0.3,2.4-0.7,4.8-2.4,6.4c-2.2,1.9-5.3,2.1-8,2.6
		c-6.3,1.3-12.5,2.6-18.6,4.7c-2.7,0.9-5.4,2-8.1,3.1c-2.7,1.1-6.2,3.1-9,1.4c-3-1.8-4.2-5.9-4-9.2
		C43.7,175.5,43.9,174.8,44.2,174.2"/>
	<polygon class="st15" points="54.1,170 56,180.2 59.9,182.7 69,179.9 65.1,168.3 	"/>
	<path class="st15" d="M46.5,189.9c4.1-0.8,6.3-1.9,10.3-4.1c0.7-0.4,2.4-1.4,3-1.9c0.2-0.2,2.3-1.7,2.4-1.7
		c-3.5-0.2-2.6-3.6-2.9-5.8c-0.1-1.2-0.6-2.4-1.3-3.4c-0.4-0.6-1.2-1.4-1.2-2.1c0-0.5,0.2-0.7,0.6-0.9c0.2-0.1,1.2-0.7,1.4-0.6
		c-1.6-0.5-3.2-0.6-4.9-0.8c-2.7-0.3-5.3-0.1-8-0.2c-2.5,0-4.9,0.3-7.3,1.4c-1.5,0.7-2.9,1.4-4,2.8c-1.9,2.5-2.2,5.5-1.4,8.4
		c0.6,2.3,2,4.4,3.7,6.1c2.3,2.2,5.6,3.5,8.8,3C46,189.9,46.2,189.9,46.5,189.9"/>
	<path class="st3" d="M45.9,168.3c-0.1,0-0.2,0-0.3,0c-2.4,0-4.7,0.4-6.9,1.4c-1.5,0.7-2.9,1.4-4,2.8c-1.9,2.5-2.2,5.5-1.4,8.4
		c0.6,2.3,2,4.4,3.7,6.1c2,1.9,4.6,3.1,7.4,3.1h0c0.5,0,0.9,0,1.4-0.1c0.2,0,0.5-0.1,0.8-0.1c4.1-0.8,6.3-1.9,10.3-4.1
		c0.7-0.4,2.4-1.4,3-1.9c0.2-0.2,2.3-1.7,2.4-1.7c-3.5-0.2-2.6-3.6-2.9-5.8c-0.1-1.2-0.6-2.4-1.3-3.4c-0.4-0.6-1.2-1.4-1.2-2.1
		c0-0.5,0.2-0.7,0.6-0.9c0.2-0.1,1.2-0.7,1.4-0.6c-1.6-0.5-3.2-0.6-4.9-0.8c-1.9-0.2-3.7-0.2-5.6-0.2
		C47.5,168.3,46.7,168.3,45.9,168.3"/>
	<path class="st19" d="M50.6,181.2c-0.4,0-0.9-0.1-1.3-0.3c-0.8-0.3-1.3-1-1.6-1.7c-0.4-1-0.2-2-0.4-3c-0.1-0.9,0.2-1.7,0.9-2.4
		c0.6-0.6,1.3-0.9,2.1-1.3c0.9-0.4,1.9-0.7,2.9-1c0.9-0.3,1.7-0.5,2.6-0.8c0.3-0.1,0.7-0.2,1-0.2c0.9-0.1,1.8,0.4,2.4,1.1
		c1.5,1.5,2,3.8,1.7,5.9c-0.1,0.5-0.1,1-0.3,1.5c-0.6,1.5-2,1.6-3.4,1.9C54.9,181.3,52.8,181.4,50.6,181.2"/>
	<path class="st15" d="M48.2,172.4c-0.3-0.6-1.2-0.1-0.9,0.5c1.3,2.4,2.1,6,0.9,8.6c-0.3,0.6,0.6,1.1,0.9,0.5
		C50.5,179.1,49.7,175.2,48.2,172.4"/>
	<path class="st15" d="M51.6,171.3c-0.4-0.5-1.2,0-0.9,0.5c0.9,1.4,1.4,3.1,1.7,4.7c0.4,1.9,0.3,3.8-0.5,5.6
		c-0.3,0.6,0.6,1.1,0.9,0.5c0.8-1.8,1-3.7,0.7-5.7C53.2,175,52.6,172.9,51.6,171.3"/>
	<path class="st15" d="M54.8,170.4c-0.4-0.5-1.2,0-0.9,0.5c1,1.4,1.6,3.2,2,4.9c0.4,1.9,0.4,3.9-0.4,5.7c-0.2,0.6,0.6,1.1,0.9,0.5
		c0.8-1.9,1-3.9,0.6-5.9C56.6,174.2,55.9,172,54.8,170.4"/>
	<path class="st22" d="M149.7,159.7c0.1-0.1,0.1-0.1,0.2-0.2c3.8-4.2,5.3-10.7,2.4-15.8c-1.2-2.1-3.4-3.5-5.7-4.1
		c-4.1-1-9.2,0.3-13.1,1.7c-12.4,4.4-24.9,8.5-37.2,12.8c-10.2,3.5-21.8,7.9-21.8,7.9l5.5,18.9c4.3-1.1-2.9,0.6,7.9-1.7
		c14.8-3.2,29.6-7,44.3-10.9C138.4,166.8,145.1,164.6,149.7,159.7"/>
	<polygon class="st21" points="81.6,157.9 87.5,180.6 79.1,182.4 73.7,161 	"/>
	<path class="st23" d="M88.9,10.6c-0.2,0-0.3,0-0.5,0c0.1,0.1,0.2,0.1,0.4,0.2c0.4,0.2,0.7,0.6,1,1c0.2,0.2,0.4,0.3,0.7,0.4
		c0.2,0.1,0.5,0.1,0.8,0.1c0.5,0,1,0,1.6,0c0.4,0,0.9,0,1.3,0c0.5,0,1,0,1.4-0.1c0.5,0,0.9-0.1,1.4-0.1c0.2,0,0.3,0,0.5,0
		c0.3,0,0.6,0,0.9,0.1c0.4,0.1,0.9,0.2,1.2,0.5c0.4,0.2,0.7,0.5,0.8,0.9s0.2,0.9,0.4,1.3c0.1,0.2,0.2,0.5,0.3,0.7s0.3,0.5,0.5,0.6
		c0.4,0.4,0.9,0.5,1.4,0.7c0.5,0.1,0.9,0.2,1.3,0.4c0.2,0.1,0.4,0.2,0.6,0.3c0.1,0.1,0.2,0.1,0.2,0.2c0,0,0.1,0.1,0.1,0.1
		c0,0,0.1,0.1,0.1,0.1c0.2,0.4,0.3,0.8,0.3,1.2c0,0.5,0,0.9-0.1,1.4s0,1,0.2,1.5c0.1,0.2,0.2,0.5,0.4,0.7s0.4,0.4,0.6,0.5
		c0.9,0.5,1.9,0.6,2.6,1.1c0.4,0.2,0.7,0.6,0.8,1c0.1,0.4,0.1,0.9,0.1,1.4c0,0.2,0,0.5,0,0.7s0.1,0.5,0.2,0.7
		c0.2,0.5,0.5,0.9,0.8,1.2c0.3,0.3,0.7,0.6,1.1,1c0.4,0.3,0.7,0.6,1,1c0.3,0.4,0.4,0.8,0.4,1.3c0,0.5-0.1,1-0.5,1.3
		c0.4-0.3,0.6-0.8,0.6-1.3c0-0.5-0.1-1-0.4-1.4c-0.5-0.8-1.3-1.4-1.9-2.1c-0.3-0.3-0.6-0.7-0.7-1.1c-0.2-0.4-0.2-0.9-0.1-1.4
		c0-0.5,0.1-1,0-1.5c-0.1-0.3-0.2-0.5-0.3-0.7c-0.2-0.2-0.4-0.4-0.6-0.5c-0.4-0.3-0.9-0.4-1.3-0.6c-0.5-0.2-0.9-0.3-1.3-0.5
		c-0.2-0.1-0.3-0.2-0.5-0.4c-0.1-0.2-0.2-0.3-0.3-0.5c-0.1-0.4-0.1-0.9-0.1-1.3c0-0.5,0.1-1,0.1-1.5c0-0.2,0-0.5-0.1-0.8
		s-0.2-0.5-0.3-0.8c0-0.1-0.1-0.1-0.1-0.2c-0.1-0.1-0.1-0.1-0.1-0.2c-0.1-0.1-0.2-0.2-0.3-0.3c-0.2-0.2-0.4-0.3-0.7-0.4
		c-0.5-0.2-0.9-0.3-1.4-0.5c-0.4-0.1-0.9-0.3-1.2-0.6c-0.2-0.1-0.3-0.3-0.4-0.5c-0.1-0.2-0.2-0.4-0.2-0.6c-0.1-0.4-0.2-0.9-0.4-1.4
		s-0.6-0.9-1.1-1.2c-0.5-0.3-0.9-0.4-1.4-0.5c-0.3,0-0.6-0.1-0.9-0.1c-0.2,0-0.4,0-0.6,0c-0.5,0-1,0.1-1.4,0.1
		c-0.5,0.1-0.9,0.1-1.4,0.1C93.4,12,92.7,12,92,12c-0.3,0-0.5,0-0.8,0c-0.2,0-0.5,0-0.7-0.1s-0.4-0.2-0.6-0.3
		C89.7,11.2,89.3,10.9,88.9,10.6C88.9,10.6,88.9,10.6,88.9,10.6"/>
	<path class="st23" d="M84.5,11.5C84.4,11.5,84.4,11.5,84.5,11.5c-0.2,0.2-0.3,0.4-0.4,0.7C84.2,11.9,84.3,11.7,84.5,11.5"/>
	<path class="st23" d="M80.2,13.1c-0.5,0-0.9,0.1-1.4,0.2c-0.5,0.2-1,0.4-1.5,0.7c-0.9,0.6-1.6,1.5-2,2.5c-0.2,0.5-0.3,1.1-0.5,1.5
		c-0.2,0.5-0.6,0.9-1,1.2c-0.4,0.3-0.8,0.6-1.3,1s-0.9,0.7-1.2,1.1c-0.4,0.4-0.6,0.9-0.8,1.5c-0.2,0.5-0.2,1.1-0.3,1.7
		c0,0.5,0,1.1-0.1,1.6c0,0.3-0.1,0.5-0.2,0.7c-0.1,0.2-0.2,0.5-0.3,0.7c-0.2,0.4-0.5,0.9-0.9,1.3c-0.3,0.4-0.7,0.9-1,1.3
		s-0.6,0.9-0.8,1.5c-0.2,0.5-0.3,1.1-0.3,1.7c0,0.1,0,0.3,0.1,0.4c0,0.1,0.1,0.3,0.1,0.4c0.1,0.3,0.2,0.5,0.2,0.8s0.1,0.5,0.1,0.7
		s-0.1,0.5-0.2,0.7c-0.2,0.5-0.5,0.9-0.8,1.3s-0.6,0.9-0.9,1.4c-0.1,0.3-0.2,0.5-0.2,0.8c-0.1,0.3,0,0.6,0,0.9l0.1,0.2l0.1,0.2
		c0,0.1,0.1,0.3,0.2,0.4c0.1,0.2,0.3,0.5,0.5,0.7c0.3,0.4,0.7,0.8,1,1.3c0.3,0.4,0.5,0.9,0.6,1.4c0.1,0.5-0.1,1-0.2,1.5
		c-0.1,0.5-0.3,1.1-0.2,1.7c0,0.3,0.1,0.6,0.3,0.8c0.1,0.3,0.3,0.5,0.6,0.7c0.4,0.4,0.9,0.6,1.3,1c0.2,0.2,0.4,0.4,0.5,0.6
		c0.1,0.2,0.2,0.5,0.2,0.7c0,0.5,0,1.1,0,1.6c0.1,0.5,0.3,1.1,0.7,1.5c0.4,0.4,0.8,0.7,1.4,0.8c-0.5-0.1-1-0.5-1.3-0.9
		c-0.3-0.4-0.6-0.9-0.6-1.4c0-0.5,0.1-1.1,0-1.6c0-0.3-0.1-0.6-0.2-0.8s-0.3-0.5-0.5-0.7c-0.4-0.4-0.9-0.7-1.2-1
		c-0.2-0.2-0.4-0.4-0.5-0.6c-0.1-0.2-0.2-0.5-0.2-0.7c0-0.5,0.1-1,0.2-1.5c0.1-0.3,0.1-0.5,0.2-0.8s0.1-0.6,0.1-0.9
		c0-0.1,0-0.2,0-0.2c0-0.1,0-0.2,0-0.2c-0.1-0.1-0.1-0.3-0.1-0.4l-0.1-0.2l-0.1-0.2c-0.1-0.1-0.1-0.2-0.2-0.4
		c-0.3-0.5-0.7-0.9-1-1.3c-0.2-0.2-0.3-0.4-0.4-0.7c0-0.1-0.1-0.2-0.1-0.3l-0.1-0.2l0-0.2c0-0.2-0.1-0.5,0-0.7
		c0-0.2,0.1-0.5,0.2-0.7c0.2-0.5,0.5-0.9,0.8-1.3c0.3-0.4,0.6-0.9,0.9-1.4c0.1-0.3,0.2-0.6,0.2-0.9c0-0.3,0-0.6-0.1-0.9
		s-0.2-0.5-0.3-0.8c-0.1-0.2-0.1-0.5-0.1-0.7c-0.1-0.5,0.1-1,0.2-1.5c0.2-0.5,0.4-0.9,0.7-1.4c0.6-0.9,1.3-1.7,1.8-2.7
		c0.1-0.2,0.2-0.5,0.3-0.8s0.2-0.5,0.2-0.8c0.1-0.6,0.1-1.1,0.1-1.6s0.1-1,0.2-1.5c0.2-0.5,0.4-0.9,0.7-1.3c0.3-0.4,0.7-0.7,1.1-1
		s0.9-0.6,1.3-1c0.4-0.4,0.8-0.8,1-1.3s0.3-1.1,0.4-1.6c0.6-2,2.7-3.5,4.8-3.5C80.4,13.1,80.4,13.1,80.2,13.1"/>
	<path class="st23" d="M111.6,15.3c0.4,0.1,0.9,0.3,1.2,0.6c0.4,0.3,0.7,0.6,0.8,1.1c0.2,0.4,0.3,0.9,0.3,1.3s0,0.9,0.1,1.4
		c0,0.2,0.1,0.5,0.1,0.7c0.1,0.2,0.2,0.5,0.3,0.7c0.2,0.4,0.5,0.8,0.8,1.2c0.6,0.7,1.4,1.3,2,2c0.3,0.3,0.6,0.7,0.8,1.1
		s0.3,0.8,0.3,1.3s-0.1,0.9-0.2,1.3s-0.2,0.9-0.2,1.5c0,0.5,0.1,1,0.3,1.5c0.2,0.5,0.4,0.9,0.7,1.3c0.3,0.4,0.5,0.8,0.8,1.2
		c0.3,0.4,0.5,0.8,0.8,1.2c0.2,0.4,0.4,0.8,0.6,1.2c0.1,0.4,0.2,0.9,0.2,1.3l0,0.2l0,0.2c0,0.1-0.1,0.2-0.1,0.3
		c-0.1,0.2-0.2,0.4-0.3,0.6c-0.2,0.4-0.5,0.7-0.8,1.1s-0.6,0.8-0.8,1.3c-0.1,0.2-0.2,0.5-0.2,0.8c0,0.2,0,0.5,0,0.8
		c0,0.5,0.1,1,0.3,1.4c0.1,0.5,0.3,0.9,0.3,1.3s0.1,0.9,0.1,1.3s-0.2,0.8-0.5,1.2c-0.3,0.3-0.7,0.6-1.1,0.8s-0.8,0.5-1.2,0.8
		c-0.2,0.2-0.4,0.3-0.5,0.5c-0.1,0.2-0.3,0.4-0.3,0.7c-0.1,0.5-0.2,0.9-0.3,1.4c0,0.2-0.1,0.5-0.2,0.7s-0.2,0.4-0.3,0.6
		c-0.1,0.2-0.3,0.3-0.5,0.5c-0.1,0.1-0.3,0.1-0.4,0.1c-0.1,0-0.2,0-0.2,0c0.1,0,0.2,0,0.3,0c0.1,0,0.3,0,0.4-0.1
		c0.2-0.1,0.4-0.2,0.6-0.4c0.2-0.2,0.3-0.4,0.4-0.6c0.1-0.2,0.1-0.5,0.2-0.7c0.1-0.5,0.2-0.9,0.3-1.3c0.1-0.2,0.2-0.4,0.3-0.6
		c0.1-0.2,0.3-0.3,0.5-0.5c0.4-0.3,0.8-0.5,1.2-0.7c0.4-0.2,0.8-0.5,1.2-0.9c0.3-0.4,0.5-0.9,0.6-1.4c0.1-0.5,0-1-0.1-1.5
		s-0.2-0.9-0.3-1.4s-0.2-0.9-0.2-1.3c0-0.2,0-0.5,0-0.7c0-0.2,0.1-0.4,0.2-0.6c0.2-0.4,0.4-0.8,0.7-1.1s0.6-0.7,0.9-1.1
		c0.1-0.2,0.3-0.4,0.3-0.7c0-0.1,0.1-0.2,0.1-0.4l0-0.2l0-0.2c0.1-0.5,0-1-0.2-1.5s-0.3-0.9-0.6-1.3c-0.2-0.4-0.5-0.8-0.8-1.2
		c-0.3-0.4-0.6-0.8-0.8-1.1c-0.2-0.4-0.5-0.8-0.7-1.2c-0.2-0.4-0.3-0.8-0.3-1.3c-0.1-0.9,0.3-1.8,0.3-2.8c0-0.5-0.1-1-0.3-1.5
		c-0.2-0.5-0.5-0.8-0.9-1.2c-0.7-0.7-1.4-1.3-2-2c-0.3-0.3-0.6-0.7-0.8-1.1c-0.1-0.2-0.2-0.4-0.3-0.6c-0.1-0.2-0.1-0.4-0.1-0.7
		c-0.1-0.4-0.1-0.9-0.1-1.4c0-0.5-0.1-1-0.4-1.4c-0.2-0.4-0.6-0.8-0.9-1.1S112.1,15.3,111.6,15.3"/>
	<path class="st8" d="M63.2,49.6l-0.6-0.1c0.1-1.1-0.6-2.1-2.3-3.2l0,0c-1.3-0.8-2.7-1.8-2.9-3.4c-0.2-1.1,0.4-2.2,0.9-3.2
		c0.1-0.1,0.1-0.2,0.1-0.3c0.7-1.3,0.8-2.3,0.4-3.1c-0.2-0.5-0.7-0.8-1.2-1.2c-0.4-0.3-0.8-0.5-1.1-0.9c-1.1-1.2-0.9-3-0.4-4.2
		c0.4-1,1.1-1.9,1.7-2.8c0.2-0.3,0.4-0.5,0.6-0.8c0.2-0.3,0.3-0.5,0.4-0.8c0-0.2,0-0.5-0.1-0.8c0,0,0-0.1,0-0.2
		c-0.5-2.4,0-4.1,1.9-5.9c1.1-1.1,2.4-2,3.8-2.9h0c0.3-0.2,0.5-0.3,0.7-0.6c0.1-0.2,0.1-0.5,0.1-0.9c0-0.1,0-0.2,0-0.2
		c0-1.6,0.8-2.9,2.4-3.8c0.6-0.3,1.1-0.5,1.7-0.7c0.5-0.2,1-0.3,1.4-0.6c0.3-0.2,0.8-0.4,1.1-0.8C71.9,8.6,72,8.3,72.1,8
		c0.1-0.2,0.2-0.4,0.3-0.7c0.5-0.9,1.6-1.5,2.8-1.6c2.5-0.2,4.7,1.1,6.7,2.2l-0.3,0.5c-1.9-1.1-4-2.3-6.3-2.1
		c-1.1,0.1-1.9,0.6-2.4,1.3c-0.1,0.2-0.2,0.4-0.3,0.6c-0.1,0.3-0.2,0.6-0.4,0.9c-0.4,0.5-0.9,0.8-1.3,0.9c-0.5,0.2-1,0.4-1.5,0.6
		c-0.5,0.2-1.1,0.4-1.6,0.6c-1.4,0.7-2.1,1.8-2.1,3.2c0,0.1,0,0.1,0,0.2c0,0.4,0,0.8-0.2,1.1s-0.5,0.6-0.9,0.8h0
		c-1.3,0.8-2.6,1.7-3.7,2.8c-1.7,1.6-2.2,3.1-1.7,5.3c0,0.1,0,0.1,0,0.2c0.1,0.3,0.2,0.6,0.1,1c-0.1,0.4-0.3,0.7-0.5,1
		c-0.2,0.3-0.4,0.5-0.6,0.8c-0.6,0.8-1.2,1.7-1.6,2.7c-0.4,1-0.6,2.6,0.3,3.7c0.3,0.3,0.6,0.6,1,0.8c0.5,0.4,1,0.8,1.4,1.3
		c0.5,0.9,0.4,2.1-0.4,3.6c-0.1,0.1-0.1,0.2-0.1,0.3c-0.5,0.9-1,1.9-0.8,2.8c0.2,1.3,1.5,2.2,2.7,3l0,0C62.6,47,63.4,48.3,63.2,49.6
		L63.2,49.6z"/>
	<path class="st8" d="M120.4,53.7l-0.3-0.5c0.8-0.5,1.8-0.8,2.7-1.2c0.8-0.3,1.5-0.6,2.2-0.9c1.5-0.8,2.8-2.3,2.6-3.9
		c-0.1-0.4-0.2-0.9-0.4-1.3c-0.3-0.8-0.7-1.7-0.3-2.6c0.3-0.7,0.9-1.1,1.4-1.4c1.6-1,3.3-2.5,3.1-4.3c-0.1-0.9-0.6-1.5-1.2-2.3
		c-0.2-0.3-0.4-0.6-0.6-0.9c-0.8-1.2-1-2.5-0.7-4.1c0.3-1.2,0.3-1.8-0.7-2.7c-0.3-0.2-0.6-0.4-0.9-0.6c-0.7-0.5-1.6-1-1.7-2
		c-0.1-0.7,0.2-1.3,0.5-1.9c0-0.1,0.1-0.2,0.1-0.2c0.6-1.3,0.9-3.2-0.1-4.5c-0.7-0.8-1.7-1.2-2.8-1.6c-0.5-0.2-0.9-0.4-1.4-0.6
		c-0.8-0.4-1.3-0.8-1.5-1.4c-0.3-0.7-0.2-1.4,0-2.1c0.1-0.6,0.2-1.1,0.1-1.6c-0.3-1.1-1-1.9-2.1-2.4c-0.6-0.3-1.2-0.5-1.9-0.6
		c-0.5-0.1-1-0.3-1.4-0.5c-0.6-0.2-1.4-0.6-1.8-1.4c-0.3-0.5-0.2-1.1-0.2-1.7c0-0.5,0-0.9-0.1-1.3c-0.4-1.3-2.2-1.6-3.5-1.5
		c-0.2,0-0.4,0.1-0.7,0.1c-1.3,0.2-2.7,0.3-3.9-0.5c-0.2-0.1-0.4-0.3-0.5-0.4c-0.2-0.2-0.5-0.4-0.8-0.5c-1-0.4-1.9,0.3-3,1
		c-0.3,0.2-0.6,0.4-0.9,0.6c-1.9,1.2-4.6,1-6.4-0.3l0.3-0.5c1.7,1.2,4.1,1.3,5.8,0.2c0.3-0.2,0.6-0.4,0.9-0.6c1.1-0.7,2.3-1.6,3.5-1
		c0.3,0.2,0.6,0.4,0.9,0.6c0.2,0.1,0.3,0.3,0.5,0.4c1,0.6,2.3,0.5,3.5,0.4c0.2,0,0.5-0.1,0.7-0.1c1.6-0.1,3.6,0.3,4.1,1.8
		c0.2,0.5,0.2,1,0.2,1.5c0,0.5,0,1,0.2,1.4c0.2,0.5,0.7,0.8,1.5,1.1c0.4,0.2,0.9,0.3,1.4,0.4c0.7,0.2,1.3,0.4,2,0.7
		c1.3,0.6,2.1,1.5,2.4,2.8c0.2,0.6,0.1,1.2-0.1,1.9c-0.1,0.6-0.2,1.2,0,1.8c0.2,0.4,0.6,0.8,1.2,1.1c0.4,0.2,0.9,0.4,1.3,0.5
		c1.1,0.4,2.2,0.8,3,1.8c1.2,1.5,0.8,3.6,0.2,5c0,0.1-0.1,0.2-0.1,0.2c-0.3,0.5-0.5,1-0.4,1.5c0.1,0.7,0.8,1.1,1.5,1.6
		c0.3,0.2,0.7,0.4,1,0.7c1.2,1.1,1.1,2,0.8,3.2c-0.3,1.4-0.1,2.6,0.6,3.6c0.2,0.3,0.4,0.6,0.6,0.8c0.6,0.7,1.2,1.5,1.3,2.5
		c0.3,2.1-1.6,3.7-3.3,4.8c-0.5,0.4-1,0.7-1.2,1.1c-0.3,0.7,0,1.4,0.3,2.1c0.2,0.5,0.4,0.9,0.5,1.4c0.3,1.9-1.2,3.6-2.8,4.5
		c-0.7,0.4-1.5,0.7-2.3,1C122.1,52.9,121.2,53.2,120.4,53.7L120.4,53.7z"/>
</g>
</svg>
