<?xml version="1.0" encoding="UTF-8"?><svg id="Layer_2" xmlns="http://www.w3.org/2000/svg" xmlns:xlink="http://www.w3.org/1999/xlink" viewBox="0 0 322.97 339"><defs><style>.cls-1,.cls-2{fill:none;}.cls-3{clip-path:url(#clippath);}.cls-4{fill:#f58f70;}.cls-5{fill:#f9ae8f;}.cls-6{fill:#005793;}.cls-7,.cls-8{fill:#fff;}.cls-9{fill:#febe10;}.cls-10{fill:#dff2f7;}.cls-11{fill:#acdfea;}.cls-12{fill:#52bbd0;}.cls-13{fill:#45a0be;}.cls-14{fill:#4e9eb8;}.cls-8{isolation:isolate;opacity:.3;}.cls-2{stroke:#52bbd0;stroke-dasharray:0 0 0 0 0 0 3 2;stroke-miterlimit:10;stroke-width:.75px;}.cls-15{clip-path:url(#clippath-1);}.cls-16{clip-path:url(#clippath-3);}.cls-17{clip-path:url(#clippath-2);}</style><clipPath id="clippath"><rect class="cls-1" width="322.97" height="339"/></clipPath><clipPath id="clippath-1"><path class="cls-1" d="M216.48,225.36c-6.57,11.56-8.37,25.36-7.31,38.46,.31,3.82,9.13,39.04,7.54,39.28,6.93-1.03,13.36-4.1,19.64-7.21,6.73-3.33,13.42-6.74,20.06-10.24,2.11-1.11,4.33-2.34,5.48-4.43,.82-1.49,1-3.24,1.14-4.93,1.53-17.68,2.39-35.83,1.41-53.55-1.03-18.5-8.84-34.98-15.38-52.1-2.01-5.27-3.82-10.41-4.06-16.05-.39-9.07,.19-18.04,.48-27.09,0-.15,0-.3-.06-.43-1.05-2.15-4.86-1.21-6.64-1.03-3.13,.31-5.15,1.96-7.15,4.4-2.99,3.65-5.06,8.04-6.02,12.65-.93,4.47-1.98,9.22-1.26,13.79,.75,4.71,.42,9.63,.53,14.44,.12,5.28,.31,10.55,.33,15.83,.03,7.37,0,14.74-.31,22.1-.16,3.65-.26,5.22-2.52,8-2.1,2.58-4.24,5.22-5.9,8.12h0Z"/></clipPath><clipPath id="clippath-2"><path class="cls-1" d="M264.92,285.2c-3.1-8.03-4.94-16.55-5.37-25.15,.03,.61-7.32-3.78-7.98-4.73-1.96-2.83-1.83-5.87-2.3-9.21-2.09-14.77-5.44-29.47-11.05-43.33-2.86-7.07-6.29-13.96-11.17-19.87-3.49-4.22-7.67-7.89-11.84-11.53-5.99-5.24-11.71-11.02-17.99-15.93-4.94-3.87-16.54-5.9-23.08-3.32-6.55,2.58-12.48,6.71-18.2,10.68-11.94,8.31-23.74,17.1-33.61,27.61-2.68,2.85-5.22,5.84-7.55,8.98-1.51,2.03-2.83,6.4-5.78,6.01-1.02-.14-1.97-.57-2.94-.88-2.57-.82-5.32-.84-8.02-.84-1.56,0-3.15,0-4.64,.48-1.13,.36-2.17,1-3.08,1.78-3.59,3.11-4.73,8.38-3.89,13.06,.84,4.68,3.38,8.87,6.17,12.72,4.55,6.28,9.92,12.06,15.82,17.03,12.77,10.77,24.47,21.69,35.4,34.23,7.61,8.73,16.12,16.91,26.52,22.22,9.91,5.06,20.9,8.82,27.6,18.35,1.85,2.63,3.24,5.56,4.61,8.48,1.48,3.13,3.38,10.68,6.82,10.7,2.98,.01,6.29-6.24,8.33-8.04,5.79-5.11,13.48-8.75,20.07-12.78,11.73-7.15,23.86-13.65,36.3-19.46-3.75-5.35-6.83-11.17-9.18-17.27h0Z"/></clipPath><clipPath id="clippath-3"><rect class="cls-1" x="122.96" y="140.78" width="93.3" height="19.52"/></clipPath></defs><g id="Layer_1-2"><path class="cls-10" d="M280.16,174.35c.67-8.27,2.46-16.65,4.02-24.77,3.19-16.63,4.89-35.41-5.17-49.03-4.82-6.54-11.99-11.25-15.91-18.37-2.4-4.36-3.41-9.33-5.32-13.93-6.49-15.59-24.39-25.53-41.05-22.81-11.57,1.89-21.54,8.96-32.38,13.45-8.11,3.36-16.82,5.24-25.59,5.61-9.32,.4-17.28-2.73-26.2-3.61-8.24-.82-16.37,.25-24.8-1.17-8.81-1.48-17.72-3.69-26.72-3.08-7.71,.52-16.13,3.47-19.95,11.16-4.73,9.54-1.92,19.97-3.25,30.07-1.4,10.68-9.73,17.84-16.19,26-8.93,11.26-18.4,24.76-15.09,38.75,2.53,10.71,11.96,18.32,16.86,28.18,6.59,13.26,4.37,28.97,2.57,43.67-1.8,14.7-2.67,30.89,5.91,42.96,6.08,8.56,16.19,13.64,26.53,15.51,8.02,1.45,16.26,1.17,24.31,2.45,17.38,2.77,32.69,12.56,48.89,19.41,16.21,6.85,35.73,10.53,50.78,1.42,14.84-8.99,21.02-27.79,34.92-38.16,10.49-7.83,24.03-9.91,36.3-14.48,12.27-4.57,24.75-13.74,25.67-26.8,.96-13.67-10.89-24.49-16.05-37.18-3.27-8.03-3.78-16.58-3.07-25.25h0Z"/><path class="cls-2" d="M234.57,253.96c-.42-6.66,1.84-13.44,6.21-18.59,11.19-13.21,33.48-14.17,43.24-28.41,7.16-10.45,4.77-24.99-2.37-35.45-5.6-8.21-13.95-15.06-16.41-24.62-1.84-7.15-.05-14.64,1.38-21.87,1.43-7.24,2.42-15.05-.83-21.71-3.25-6.66-12.35-11.08-18.73-7.09-2.05,1.28-3.66,3.91-2.48,5.99,1.72,3.03,6.66,1.3,8.91-1.38,6.47-7.71,5.49-19.06,2.19-28.48-2.18-6.21-5.4-12.38-10.85-16.27-7.02-5.02-16.69-5.38-25.05-2.98-8.85,2.54-15.81,8.87-24.28,11.56-7.1,2.26-14.64,3.89-22.02,5.04-11.46,1.78-29.89,3.79-37.49-7.19-3.08-4.44-.15-11.97,5.62-11.75,5.21,.2,7.89,6.51,5.86,10.88-3.64,7.87-14.62,10.68-22.36,11.8-17.87,2.58-36.78,3.58-53.89,10.39-15.72,6.26-31.34,18.64-32.22,36.79-.17,3.6,.21,7.33,2.04,10.53s5.32,5.78,9.27,5.97c1.65,.08,3.67-.57,3.91-2.05,.26-1.56-1.59-2.7-3.23-3.21-12.23-3.83-23.06,4.25-23.74,14.58-1.13,17.27,21.24,23.27,28.23,36.3,3.87,7.23,2.98,16.04,.43,23.8-2.55,7.76-6.62,15-9.03,22.8s-2.96,16.7,1.31,23.71c5.78,9.49,18.27,12.66,26.79,19.95,10.01,8.57,14.52,22.84,26.33,28.87,4.08,2.09,8.72,2.97,13.32,3.26,9.42,.6,19.11-1.27,27.23-5.95,19.18-11.06,27.66-36.04,48.45-43.92"/><path class="cls-11" d="M148.04,30.18c-1.34-2.29-4.71-3.44-7.98,.38-3.26-3.81-6.64-2.67-7.98-.38-3.3,5.64,7.98,12.28,7.98,12.28,0,0,11.27-6.64,7.98-12.28Z"/><g class="cls-3"><g><g><path class="cls-5" d="M216.48,225.36c-6.57,11.56-8.37,25.36-7.31,38.46,.31,3.82,9.13,39.04,7.54,39.28,6.93-1.03,13.36-4.1,19.64-7.21,6.73-3.33,13.42-6.74,20.06-10.24,2.11-1.11,4.33-2.34,5.48-4.43,.82-1.49,1-3.24,1.14-4.93,1.53-17.68,2.39-35.83,1.41-53.55-1.03-18.5-8.84-34.98-15.38-52.1-2.01-5.27-3.82-10.41-4.06-16.05-.39-9.07,.19-18.04,.48-27.09,0-.15,0-.3-.06-.43-1.05-2.15-4.86-1.21-6.64-1.03-3.13,.31-5.15,1.96-7.15,4.4-2.99,3.65-5.06,8.04-6.02,12.65-.93,4.47-1.98,9.22-1.26,13.79,.75,4.71,.42,9.63,.53,14.44,.12,5.28,.31,10.55,.33,15.83,.03,7.37,0,14.74-.31,22.1-.16,3.65-.26,5.22-2.52,8-2.1,2.58-4.24,5.22-5.9,8.12h0Z"/><g class="cls-15"><path class="cls-8" d="M239.48,129.95c-.7,.86-1.12,1.97-1.44,3.05-1.39,4.7-1.51,9.78-.34,14.54,.74,3.02,11.99,.04,12.02,.94-.19-5.85-.38-11.69-.57-17.54-.01-.45-.03-.92-.25-1.31-1.15-2.08-6.76-1.68-8.44-.57-.37,.25-.69,.55-.97,.89h0Z"/></g></g><path class="cls-5" d="M89.11,103.15c-6.21-10.06,1.14-20.58,13.23-17.67,8.73,2.1,15.98,8.59,22.88,13.98,7.23,5.65,12.82,14.57,7.69,21.12-9.97,12.74-27.69-1.58-35.77-8.8-2.65-2.37-5.32-4.76-7.38-7.65-.23-.33-.45-.65-.65-.98h0Z"/><g><path class="cls-5" d="M264.92,285.2c-3.1-8.03-4.94-16.55-5.37-25.15,.03,.61-7.32-3.78-7.98-4.73-1.96-2.83-1.83-5.87-2.3-9.21-2.09-14.77-5.44-29.47-11.05-43.33-2.86-7.07-6.29-13.96-11.17-19.87-3.49-4.22-7.67-7.89-11.84-11.53-5.99-5.24-11.71-11.02-17.99-15.93-4.94-3.87-16.54-5.9-23.08-3.32-6.55,2.58-12.48,6.71-18.2,10.68-11.94,8.31-23.74,17.1-33.61,27.61-2.68,2.85-5.22,5.84-7.55,8.98-1.51,2.03-2.83,6.4-5.78,6.01-1.02-.14-1.97-.57-2.94-.88-2.57-.82-5.32-.84-8.02-.84-1.56,0-3.15,0-4.64,.48-1.13,.36-2.17,1-3.08,1.78-3.59,3.11-4.73,8.38-3.89,13.06,.84,4.68,3.38,8.87,6.17,12.72,4.55,6.28,9.92,12.06,15.82,17.03,12.77,10.77,24.47,21.69,35.4,34.23,7.61,8.73,16.12,16.91,26.52,22.22,9.91,5.06,20.9,8.82,27.6,18.35,1.85,2.63,3.24,5.56,4.61,8.48,1.48,3.13,3.38,10.68,6.82,10.7,2.98,.01,6.29-6.24,8.33-8.04,5.79-5.11,13.48-8.75,20.07-12.78,11.73-7.15,23.86-13.65,36.3-19.46-3.75-5.35-6.83-11.17-9.18-17.27h0Z"/><g class="cls-17"><g><path class="cls-4" d="M119.17,220.63c1.66,5.32-.93,11.51-6.15,13.67-6.02,2.5-13.8-.09-18.91-3.55-5.95-4.03-10.91-11.55-7.5-18.91,2.17-4.66,7.48-7.66,12.59-7.09,7.26,.8,17.46,7.84,19.97,15.88h0Z"/><polygon class="cls-4" points="219.77 268.19 134.89 283.3 117.76 263.02 219.77 268.19"/></g></g></g><path class="cls-6" d="M217.91,27.39H113.26c-4.29,0-7.77,3.48-7.77,7.77v225.25c0,4.29,3.48,7.77,7.77,7.77h104.65c4.29,0,7.77-3.48,7.77-7.77V35.16c0-4.29-3.48-7.77-7.77-7.77h0Z"/><rect class="cls-7" x="111.21" y="50.75" width="108.57" height="199.64"/><path class="cls-13" d="M181.48,40.38h-31.78c-.7,0-1.27-.57-1.27-1.27h0c0-.7,.57-1.27,1.27-1.27h31.78c.7,0,1.27,.57,1.27,1.27h0c0,.7-.57,1.27-1.27,1.27Z"/><polygon class="cls-11" points="280.02 282.11 185.02 336.4 251.34 466.21 408.96 451.16 280.02 282.11"/><path class="cls-5" d="M119.74,215.89c2.34,5.06,.56,11.53-4.34,14.35-5.65,3.25-13.69,1.69-19.21-1.09-6.42-3.23-12.31-10.05-9.87-17.78,1.55-4.9,6.43-8.56,11.57-8.66,7.3-.15,18.32,5.53,21.85,13.18h0Z"/><path class="cls-5" d="M118.75,185.92c1.25,2.31,2.09,4.8,2.09,7.41,0,3.49-1.62,6.94-4.29,9.18-9.58,8.04-20.66-3.17-27.61-9.4-5.62-5.04-9.7-13.55-5.11-20.71,2.91-4.54,8.85-6.9,14.08-5.59,3.82,.95,6.98,3.57,9.87,6.24,2.85,2.64,5.59,5.41,8,8.45,1.09,1.38,2.12,2.85,2.96,4.41h0Z"/><path class="cls-5" d="M119.49,145.44c-.5,3.38-2.16,6.58-4.84,8.78-5.81,4.76-14.01,3.31-19.73-.82-3.19-2.3-5.75-5.85-5.13-9.97,.58-3.9,2.36-7.57,4.68-10.74,2.01-2.73,4.91-6.39,8.63-6.44,1.31-.01,2.58,.42,3.78,.95,5.67,2.52,11.18,6.75,12.48,13.15,.34,1.67,.38,3.4,.13,5.09h0Z"/><path class="cls-8" d="M99.34,219.82c.12,3.47,3.05,6.79,6,8.3,3.41,1.74,5.34-.64,7.21-3.35,1.23-1.78,2.96-4.5,3.31-6.63,.3-1.82-.59-3.26-2.17-4.1-2.09-1.12-4.34-2.16-6.71-2.1-3.83,.09-7.11,3.16-7.59,6.87-.04,.34-.06,.68-.05,1.01h0Z"/><path class="cls-8" d="M97.47,187.99c-.75,3.78,1.56,8.11,4.37,10.49,3.24,2.75,5.93,.67,8.64-1.78,1.78-1.61,4.34-4.11,5.26-6.32,.79-1.89,.19-3.67-1.29-4.98-1.97-1.74-4.14-3.44-6.72-3.98-4.16-.88-8.48,1.6-9.95,5.49-.13,.35-.24,.72-.31,1.08h0Z"/><path class="cls-8" d="M99.98,147.43c.16,2.74,2.92,8.77,7.11,7.59,.61-.17,1.12-.56,1.59-.95,3.97-3.32,6.88-7.68,8.31-12.43,1.43-4.76-6.39-5.34-9.47-4.02-3.51,1.5-7.05,4.81-7.49,8.47-.06,.45-.07,.9-.04,1.35Z"/><polygon class="cls-12" points="280.02 282.11 185.02 336.4 194.55 355.06 296.03 303.09 280.02 282.11"/></g></g><g class="cls-16"><path class="cls-14" d="M159.41,154.92h1.23v-4.49c0-3.2,2.17-3.37,2.47-3.37,1.7,0,2.21,.97,2.21,2.75v5.1h1.23v-4.65c0-1.63,.64-3.2,2.47-3.2,1.7,0,2.21,.97,2.21,2.75v5.1h1.23v-5.55c0-2.17-1.07-3.42-3.29-3.42-1.18,0-2.37,.69-2.88,1.81-.58-1.5-1.83-1.81-2.79-1.81-1.05,0-2.22,.54-2.82,1.55h-.04v-1.33h-1.33c.04,.65,.09,1.29,.09,1.94v6.8Zm-3.44-5.37c-2.09,0-5.44,.19-5.44,3.03,0,1.7,1.46,2.56,3.01,2.56,1.4,0,2.38-.49,3.09-1.64h.04c0,.47,.04,.99,.11,1.42h1.2c-.08-.47-.15-1.29-.15-1.96v-3.91c0-2.13-1.48-3.1-3.2-3.1s-2.9,.45-3.7,1.27l.75,.88c.75-.67,1.65-1.03,2.67-1.03,1.51,0,2.24,.75,2.24,2.26v.22h-.62Zm.62,1.01v.64c0,1.55-.86,2.82-2.65,2.82-.99,0-2.06-.45-2.06-1.61,0-1.76,2.82-1.85,4.07-1.85h.64Zm-11.01,4.36h1.23v-4.94c0-1.18,.84-2.8,2.71-2.8,.34,0,.56,.04,.71,.09l.24-1.22c-.26-.07-.56-.11-.92-.11-1.53,0-2.45,.92-2.8,1.85h-.04v-1.63h-1.22c.04,1.27,.08,1.94,.08,2.73v6.02Zm-10.52,2.73c1.12,1.2,2.47,1.76,4.21,1.76,3.93,0,4.69-2.65,4.69-4.56v-8.67h-1.23v1.46h-.04c-1.01-1.36-2.34-1.68-3.38-1.68-2.58,0-4.45,1.98-4.45,4.52s2.04,4.45,4.56,4.45c1.27,0,2.49-.47,3.27-1.64h.04v1.57c0,1.89-.9,3.44-3.4,3.44-1.4,0-2.62-.64-3.35-1.61l-.92,.97Zm4.39-3.85c-1.83,0-3.25-1.53-3.25-3.37s1.42-3.36,3.25-3.36c2.06,0,3.31,1.53,3.31,3.36,.08,2.02-1.51,3.37-3.31,3.37m-13.37-7.63c.04,.64,.09,1.46,.09,1.93v6.82h1.23v-4.49c0-3.2,2.39-3.36,2.65-3.36,1.83,0,2.37,1.07,2.37,3.01v4.84h1.23v-5.55c0-2.17-1.07-3.42-3.29-3.42-1.16,0-2.39,.67-2.94,1.63h-.04c0-.47,0-.93-.06-1.4h-1.27Zm-3.12-4.49h1.35v13.24h-1.35v-13.24Z"/><path class="cls-9" d="M208.7,140.78h-1.23v14.13h1.23v-4.6l4.54,4.6h1.91l-4.82-4.75,4.36-4h-1.85l-4.13,3.94v-9.33Zm-6.8,14.13h1.23v-4.94c0-1.18,.84-2.8,2.71-2.8,.34,0,.56,.04,.71,.09l.24-1.22c-.26-.07-.56-.11-.92-.11-1.53,0-2.45,.92-2.81,1.85h-.04v-1.63h-1.21c.04,1.27,.07,1.94,.07,2.73v6.02Zm-3.57-5.37c-2.09,0-5.44,.19-5.44,3.03,0,1.7,1.46,2.56,3.01,2.56,1.4,0,2.37-.49,3.09-1.64h.04c0,.47,.04,.99,.11,1.42h1.2c-.07-.47-.15-1.29-.15-1.96v-3.91c0-2.13-1.48-3.1-3.2-3.1s-2.9,.45-3.7,1.27l.75,.88c.75-.67,1.64-1.03,2.67-1.03,1.51,0,2.24,.75,2.24,2.26v.22h-.62Zm.62,1.01v.64c0,1.55-.86,2.82-2.66,2.82-.99,0-2.06-.45-2.06-1.61,0-1.76,2.82-1.85,4.08-1.85h.64Zm-15.76,9.74h1.23v-6.84h.04c.8,1.18,2.24,1.68,3.4,1.68,2.73,0,4.65-1.96,4.65-4.6s-1.92-4.6-4.65-4.6c-1.16,0-2.6,.5-3.4,1.68h-.04v-1.46h-1.23v14.13Zm4.67-13.24c2.04,0,3.31,1.51,3.31,3.48s-1.27,3.48-3.31,3.48-3.5-1.51-3.5-3.48,1.48-3.48,3.5-3.48m-7.08-3.2c-.58-.86-1.44-1.29-2.56-1.29-1.38,0-2.82,.73-2.82,2.39,0,3.57,6.79,1.68,6.79,6.45,0,2.41-2.26,3.83-4.35,3.83-1.61,0-3.16-.58-4.17-1.96l1.22-.88c.56,.97,1.63,1.61,3.01,1.61s2.84-.86,2.84-2.41c0-3.74-6.79-1.66-6.79-6.51,0-2.56,2.13-3.76,4.28-3.76,1.5,0,2.69,.41,3.74,1.61l-1.18,.92Z"/><path class="cls-9" d="M215.42,146.11h.08c.09,0,.16-.03,.16-.1,0-.06-.05-.11-.15-.11-.04,0-.07,0-.09,0v.2Zm0,.4h-.16v-.71c.06-.01,.16-.02,.27-.02,.13,0,.19,.02,.25,.05,.04,.03,.07,.09,.07,.16,0,.08-.06,.14-.15,.16h0c.07,.03,.11,.09,.13,.18,.02,.11,.03,.15,.05,.18h-.18s-.03-.09-.06-.17c-.01-.08-.06-.11-.15-.11h-.08v.29Zm-.44-.37c0,.32,.23,.57,.55,.57s.54-.25,.54-.56-.23-.57-.54-.57-.55,.25-.55,.57m1.28,0c0,.4-.32,.72-.73,.72s-.73-.32-.73-.72,.32-.71,.73-.71,.73,.32,.73,.71"/></g></g></svg>