<?xml version="1.0" encoding="UTF-8"?><svg id="Layer_2" xmlns="http://www.w3.org/2000/svg" xmlns:xlink="http://www.w3.org/1999/xlink" viewBox="0 0 73.7 56.67"><defs><style>.cls-1,.cls-2,.cls-3,.cls-4{fill:none;}.cls-2{clip-path:url(#clippath-1);}.cls-5{fill:#fff;}.cls-6{fill:#fff0b2;}.cls-7{fill:#ffbf0f;}.cls-8{fill:#6bcce5;}.cls-9{fill:#337894;}.cls-3{stroke:#337894;stroke-linecap:round;stroke-linejoin:round;stroke-width:1.75px;}.cls-4{clip-path:url(#clippath);}</style><clipPath id="clippath"><rect class="cls-1" width="73.7" height="56.67"/></clipPath><clipPath id="clippath-1"><rect class="cls-1" width="73.7" height="56.67"/></clipPath></defs><g id="Layer_1-2"><g class="cls-4"><path class="cls-6" d="m73.06,24.79c0,13.69-11.1,24.79-24.79,24.79s-24.79-11.1-24.79-24.79S34.58,0,48.27,0s24.79,11.1,24.79,24.79"/><path class="cls-8" d="m55.51,15.97v30.89s-16.81,0-16.81,0c-2.78,0-5.88,1.7-6.95,3.1h-1.03s0,0,0,0h-1.03c-1.07-1.4-4.17-3.1-6.95-3.1H5.93V15.88H.77v36.15h21.69l3.1,3.1h10.33l3.1-3.1h21.69V15.78l-5.16.19Z"/><path class="cls-5" d="m6.66,13.51v32.74h15.82c2.61,0,5.53,1.64,6.54,2.98h.97v-27.85c0-4.26-2.57-7.87-7.89-7.87H6.66Z"/><path class="cls-3" d="m6.66,13.51v32.74h15.82c2.61,0,5.53,1.64,6.54,2.98h.97v-27.85c0-4.26-2.57-7.87-7.89-7.87H6.66Z"/><path class="cls-5" d="m12.86,8.11v32.92l11.61,3.53c1.92.58,3.82,3.1,4.56,4.67h.95v-27.99c0-4.29-1.89-8.49-5.79-9.68l-11.33-3.45Z"/><path class="cls-3" d="m12.86,8.11v32.92l11.61,3.53c1.92.58,3.82,3.1,4.56,4.67h.95v-27.99c0-4.29-1.89-8.49-5.79-9.68l-11.33-3.45Z"/><path class="cls-5" d="m55.51,15.88v-3.1h-16.4c-5.66,0-8.39,3.76-8.39,8.2v28.99h1.03c1.07-1.4,4.17-3.1,6.95-3.1h16.81V15.88Z"/><path class="cls-3" d="m3.51,16.5H1.5v34.9h21.16l3.02,2.99h10.08l3.02-2.99h21.16v-21.94s0-12.96,0-12.96h-2.43m-2.61,0v-2.99h-16c-5.52,0-8.18,3.63-8.18,7.91v27.99h1.01c1.05-1.35,4.07-2.99,6.78-2.99h16.4v-29.92Z"/></g><polygon class="cls-7" points="16.65 20.48 16.65 21.77 23.11 23.55 23.11 22.26 16.65 20.48"/><polygon class="cls-7" points="16.65 24.3 16.65 25.59 26.2 28.18 26.2 26.88 16.65 24.3"/><polygon class="cls-7" points="16.65 28.09 16.65 29.38 26.2 31.96 26.2 30.67 16.65 28.09"/><polygon class="cls-7" points="16.65 31.88 16.65 33.17 23.4 34.99 23.4 33.7 16.65 31.88"/><polygon class="cls-7" points="24.91 34.11 24.91 35.4 26.2 35.75 26.2 34.46 24.91 34.11"/><g class="cls-2"><path class="cls-5" d="m63.98,50.15v4.06c0,.59-.49,1.08-1.08,1.08h-21.17c-.59,0-1.08-.49-1.08-1.08v-31.04c0-.59.49-1.08,1.08-1.08h21.17c.59,0,1.08.49,1.08,1.08v26.98Z"/><path class="cls-5" d="m64.82,50.22c-3.17,0-5.74-2.58-5.74-5.74s2.58-5.74,5.74-5.74,5.74,2.58,5.74,5.74-2.58,5.74-5.74,5.74"/><path class="cls-7" d="m46.52,40.92h-2.97v-2.25h2.97v2.25Zm.87-3.11c-.1-.09-.23-.15-.36-.15h-3.99c-.13,0-.27.05-.36.15-.1.09-.15.22-.15.36v3.25c0,.13.05.26.15.35.1.09.23.15.36.15h3.99c.14,0,.27-.05.36-.15.09-.09.15-.22.15-.35v-3.25c0-.13-.06-.26-.15-.36"/><path class="cls-7" d="m46.52,46.45h-2.97v-2.25h2.97v2.25Zm.87-3.11c-.1-.09-.23-.15-.36-.15h-3.99c-.13,0-.27.05-.36.15-.1.09-.15.22-.15.35v3.25c0,.13.05.26.15.35.1.09.23.15.36.15h3.99c.14,0,.27-.05.36-.15.09-.09.15-.22.15-.35v-3.25c0-.13-.06-.26-.15-.35"/><path class="cls-7" d="m46.52,51.98h-2.97v-2.25h2.97v2.25Zm.87-3.11c-.1-.09-.23-.15-.36-.15h-3.99c-.13,0-.27.05-.36.15-.1.09-.15.22-.15.35v3.25c0,.13.05.26.15.35.1.09.23.15.36.15h3.99c.14,0,.27-.05.36-.15.09-.09.15-.22.15-.35v-3.25c0-.13-.06-.26-.15-.35"/><path class="cls-7" d="m53.8,46.45h-2.97v-2.25h2.97v2.25Zm.87-3.11c-.1-.09-.23-.15-.36-.15h-3.99c-.13,0-.27.05-.36.15-.1.09-.15.22-.15.35v3.25c0,.13.05.26.15.35.1.09.23.15.36.15h3.99c.14,0,.27-.05.36-.15.09-.09.15-.22.15-.35v-3.25c0-.13-.05-.26-.15-.35"/><path class="cls-7" d="m53.8,51.98h-2.97v-2.25h2.97v2.25Zm.87-3.11c-.1-.09-.23-.15-.36-.15h-3.99c-.13,0-.27.05-.36.15-.1.09-.15.22-.15.35v3.25c0,.13.05.26.15.35.1.09.23.15.36.15h3.99c.14,0,.27-.05.36-.15.09-.09.15-.22.15-.35v-3.25c0-.13-.05-.26-.15-.35"/><path class="cls-7" d="m59.18,40.92h-1.06v-2.25h2.97v.17c.32-.23.66-.44,1.02-.62v-.05c0-.13-.06-.26-.15-.35-.1-.09-.23-.15-.36-.15h-3.99c-.13,0-.27.05-.36.15-.1.09-.15.22-.15.35v3.25c0,.13.05.26.15.35.1.09.23.15.36.15h1.07c.14-.35.31-.68.5-1"/><path class="cls-7" d="m53.8,40.92h-2.97v-2.25h2.97v2.25Zm.87-3.11c-.1-.09-.23-.15-.36-.15h-3.99c-.13,0-.27.05-.36.15-.1.09-.15.22-.15.36v3.25c0,.13.05.26.15.35.1.09.23.15.36.15h3.99c.14,0,.27-.05.36-.15.09-.09.15-.22.15-.35v-3.25c0-.13-.05-.26-.15-.36"/><path class="cls-9" d="m64.82,50.22c-3.17,0-5.74-2.58-5.74-5.74s2.58-5.74,5.74-5.74,5.74,2.58,5.74,5.74-2.58,5.74-5.74,5.74m0-12.6c-3.78,0-6.86,3.08-6.86,6.86s3.08,6.86,6.86,6.86,6.86-3.07,6.86-6.86-3.08-6.86-6.86-6.86"/><path class="cls-9" d="m42.68,35.1h19.28c.28,0,.51-.22.51-.5s-.23-.5-.51-.5h-19.28c-.28,0-.51.22-.51.5s.23.5.51.5"/><path class="cls-9" d="m42.89,24.8h18.85v6.08h-18.85v-6.08Zm19.36,7.08c.13,0,.27-.05.36-.15.09-.09.15-.22.15-.35v-7.08c0-.13-.05-.26-.15-.35-.1-.09-.23-.15-.36-.15h-19.87c-.13,0-.27.05-.36.15-.1.09-.15.22-.15.35v7.08c0,.13.06.26.15.35.1.09.23.15.36.15h19.87Z"/><path class="cls-9" d="m57.61,52.98h3.99c.13,0,.27-.05.36-.15.1-.09.15-.22.15-.35v-1.7c-.36-.18-.7-.38-1.02-.62v1.82h-2.97v-7.78h.08c.01-.34.05-.68.11-1h-.7c-.14,0-.27.05-.36.15-.09.09-.15.22-.15.35v8.78c0,.13.05.26.15.35.1.09.23.15.36.15"/><path class="cls-7" d="m67.24,45.25c-.37-.7-1.24-1.1-2.42-1.1-.79,0-1.4-.23-1.6-.6-.09-.18-.08-.37.04-.55.27-.4.91-.58,1.71-.49.45.05.92.21,1.46.39l.1.03c.24.08.51-.05.59-.3.08-.24-.05-.51-.29-.59l-.1-.03c-.47-.16-.95-.32-1.44-.4v-1.08c0-.26-.21-.47-.47-.47s-.47.21-.47.47v1.03c-.83.05-1.5.38-1.86.9-.31.46-.35,1.03-.09,1.51.37.7,1.25,1.1,2.45,1.1.77,0,1.37.23,1.57.61.1.18.08.38-.04.56-.26.38-.89.56-1.68.47-.45-.05-.94-.21-1.45-.38l-.11-.04c-.12-.04-.25-.03-.36.03-.11.06-.19.15-.23.27-.04.12-.03.24.03.36.06.11.15.2.27.23l.11.04c.43.14.91.3,1.4.39v1.08c0,.26.21.47.47.47s.47-.21.47-.47v-1.03c.83-.05,1.5-.37,1.86-.89.32-.46.35-1.03.09-1.52"/><path class="cls-7" d="m73.69,41.01c-.06.26-.32.43-.58.38-.26-.06-.43-.32-.38-.58.06-.26.32-.43.58-.38.26.06.43.31.38.58"/><path class="cls-7" d="m67.18,35.41c2.39.51,4.45,1.92,5.78,3.99.13.2.07.47-.13.6-.1.07-.22.08-.32.06-.11-.02-.21-.09-.28-.19-1.21-1.87-3.06-3.15-5.23-3.61-.24-.05-.39-.28-.34-.52.05-.23.28-.39.52-.34"/><path class="cls-9" d="m64.82,50.22c-.28,0-.56-.03-.83-.07v4.06c0,.59-.49,1.08-1.08,1.08h-21.17c-.59,0-1.08-.49-1.08-1.08v-31.04c0-.59.49-1.08,1.08-1.08h21.17c.59,0,1.08.49,1.08,1.08v15.63c.27-.04.55-.07.83-.07.16,0,.31.01.46.02v-15.59c0-1.31-1.07-2.38-2.38-2.38h-21.17c-1.31,0-2.38,1.07-2.38,2.38v31.04c0,1.31,1.07,2.38,2.38,2.38h17.46s.04.06.06.09h1.64s-.06-.06-.09-.09h2.1c1.31,0,2.38-1.07,2.38-2.38v-4.01c-.15.01-.31.02-.46.02"/></g><rect class="cls-8" x="42.89" y="24.8" width="18.85" height="6.08"/></g></svg>