<?xml version="1.0" encoding="utf-8"?>
<!-- Generator: Adobe Illustrator 26.1.0, SVG Export Plug-In . SVG Version: 6.00 Build 0)  -->
<svg version="1.1" id="Layer_1" xmlns="http://www.w3.org/2000/svg" xmlns:xlink="http://www.w3.org/1999/xlink" x="0px" y="0px"
	 viewBox="0 0 171 79" style="enable-background:new 0 0 171 79;" xml:space="preserve">
<style type="text/css">
	.st0{fill:#A0A2A4;}
	.st1{fill:#FFFFFF;}
</style>
<path class="st0" d="M110,33h-6.9L91.9,13.6h-0.2c0.2,3.4,0.3,5.9,0.3,7.3V33h-4.9V7.3h6.9l11.2,19.2h0.1c-0.2-3.3-0.3-5.7-0.3-7.1
	V7.3h4.9V33z"/>
<path class="st0" d="M131.3,33h-14.8V7.3h14.8v4.5H122v5.6h8.7v4.5H122v6.6h9.4V33z"/>
<path class="st0" d="M161.7,33h-6.2L152,19.5c-0.1-0.5-0.4-1.5-0.7-3c-0.3-1.5-0.5-2.5-0.5-3c-0.1,0.6-0.2,1.7-0.5,3.1
	c-0.3,1.4-0.5,2.4-0.7,3L146.2,33H140l-6.6-25.7h5.4l3.3,14c0.6,2.6,1,4.8,1.2,6.7c0.1-0.7,0.2-1.7,0.5-3.1c0.3-1.4,0.5-2.5,0.7-3.3
	l3.7-14.4h5.2l3.7,14.4c0.2,0.6,0.4,1.6,0.6,3c0.2,1.3,0.4,2.5,0.6,3.4c0.1-0.9,0.3-2.1,0.6-3.4c0.3-1.4,0.5-2.5,0.7-3.3l3.3-14h5.4
	L161.7,33z"/>
<path class="st0" d="M94.3,47c0,1.7-0.4,2.9-1.2,3.8c-0.8,0.9-2,1.3-3.5,1.3c-1.5,0-2.7-0.4-3.5-1.3c-0.8-0.9-1.2-2.2-1.2-3.8
	c0-1.7,0.4-2.9,1.2-3.8c0.8-0.9,2-1.3,3.5-1.3s2.7,0.4,3.5,1.3C93.9,44.1,94.3,45.3,94.3,47z M87,47c0,1.1,0.2,2,0.6,2.5
	c0.4,0.6,1.1,0.8,1.9,0.8c1.7,0,2.5-1.1,2.5-3.4c0-2.3-0.8-3.4-2.5-3.4c-0.8,0-1.5,0.3-1.9,0.9C87.2,45,87,45.9,87,47z"/>
<path class="st0" d="M100.4,52.1c-0.9,0-1.6-0.3-2.1-1h-0.1c0.1,0.6,0.1,1,0.1,1.1v3.1h-2.1v-11h1.7l0.3,1h0.1
	c0.5-0.8,1.2-1.1,2.2-1.1c0.9,0,1.6,0.3,2.1,1c0.5,0.7,0.8,1.7,0.8,2.9c0,0.8-0.1,1.5-0.4,2.1c-0.2,0.6-0.6,1.1-1,1.4
	C101.6,52,101,52.1,100.4,52.1z M99.8,45.9c-0.5,0-0.9,0.2-1.1,0.5c-0.2,0.3-0.4,0.8-0.4,1.6v0.2c0,0.8,0.1,1.4,0.4,1.8
	c0.2,0.4,0.6,0.5,1.2,0.5c0.9,0,1.4-0.8,1.4-2.3c0-0.8-0.1-1.3-0.3-1.7C100.7,46.1,100.3,45.9,99.8,45.9z"/>
<path class="st0" d="M109.3,52.1c-0.9,0-1.6-0.3-2.1-1h-0.1c0.1,0.6,0.1,1,0.1,1.1v3.1h-2.1v-11h1.7l0.3,1h0.1
	c0.5-0.8,1.2-1.1,2.2-1.1c0.9,0,1.6,0.3,2.1,1c0.5,0.7,0.8,1.7,0.8,2.9c0,0.8-0.1,1.5-0.4,2.1c-0.2,0.6-0.6,1.1-1,1.4
	C110.4,52,109.9,52.1,109.3,52.1z M108.7,45.9c-0.5,0-0.9,0.2-1.1,0.5c-0.2,0.3-0.4,0.8-0.4,1.6v0.2c0,0.8,0.1,1.4,0.4,1.8
	c0.2,0.4,0.6,0.5,1.2,0.5c0.9,0,1.4-0.8,1.4-2.3c0-0.8-0.1-1.3-0.3-1.7C109.5,46.1,109.2,45.9,108.7,45.9z"/>
<path class="st0" d="M115.6,48.2c0,0.8,0.1,1.3,0.4,1.7c0.3,0.4,0.7,0.6,1.2,0.6c0.6,0,1-0.2,1.2-0.6c0.2-0.4,0.4-1,0.4-1.7
	c0-0.8-0.1-1.3-0.4-1.7c-0.2-0.4-0.6-0.6-1.2-0.6c-0.6,0-1,0.2-1.2,0.6C115.7,46.8,115.6,47.4,115.6,48.2z M120.9,48.2
	c0,1.2-0.3,2.2-1,2.9s-1.6,1.1-2.7,1.1c-0.7,0-1.4-0.2-1.9-0.5c-0.6-0.3-1-0.8-1.3-1.4c-0.3-0.6-0.5-1.3-0.5-2.1
	c0-1.2,0.3-2.2,1-2.9c0.7-0.7,1.6-1,2.7-1c0.7,0,1.4,0.2,1.9,0.5c0.6,0.3,1,0.8,1.3,1.4C120.8,46.7,120.9,47.4,120.9,48.2z"/>
<path class="st0" d="M126.9,44.2c0.3,0,0.5,0,0.7,0.1l-0.2,2c-0.2,0-0.4-0.1-0.6-0.1c-0.7,0-1.2,0.2-1.6,0.5
	c-0.4,0.3-0.6,0.8-0.6,1.4V52h-2.1v-7.6h1.6l0.3,1.3h0.1c0.2-0.4,0.6-0.8,1-1C126,44.3,126.4,44.2,126.9,44.2z"/>
<path class="st0" d="M132.2,50.5c0.4,0,0.8-0.1,1.3-0.2v1.6c-0.5,0.2-1.2,0.3-1.9,0.3c-0.8,0-1.4-0.2-1.8-0.6
	c-0.4-0.4-0.6-1.1-0.6-1.9v-3.7h-1V45l1.1-0.7l0.6-1.6h1.3v1.6h2.1v1.6h-2.1v3.7c0,0.3,0.1,0.5,0.2,0.7
	C131.7,50.4,131.9,50.5,132.2,50.5z"/>
<path class="st0" d="M140.5,52l-0.3-1h-0.1c-0.2,0.4-0.5,0.6-0.9,0.8c-0.4,0.2-0.9,0.3-1.4,0.3c-0.9,0-1.6-0.2-2-0.7
	c-0.5-0.5-0.7-1.2-0.7-2.1v-5h2.1v4.5c0,0.6,0.1,1,0.3,1.2c0.2,0.3,0.5,0.4,0.9,0.4c0.6,0,1-0.2,1.3-0.6c0.3-0.4,0.4-1,0.4-1.9v-3.6
	h2.1V52H140.5z"/>
<path class="st0" d="M151.3,52h-2.1v-4.5c0-0.6-0.1-1-0.3-1.2c-0.2-0.3-0.5-0.4-0.9-0.4c-0.6,0-1,0.2-1.3,0.6
	c-0.3,0.4-0.4,1-0.4,1.9V52h-2.1v-7.6h1.6l0.3,1h0.1c0.2-0.4,0.6-0.6,1-0.8c0.4-0.2,0.9-0.3,1.4-0.3c0.9,0,1.6,0.2,2,0.7
	c0.5,0.5,0.7,1.2,0.7,2.1V52z"/>
<path class="st0" d="M153.4,42.4c0-0.7,0.4-1,1.1-1c0.8,0,1.1,0.3,1.1,1c0,0.3-0.1,0.6-0.3,0.8c-0.2,0.2-0.5,0.3-0.8,0.3
	C153.8,43.4,153.4,43.1,153.4,42.4z M155.6,52h-2.1v-7.6h2.1V52z"/>
<path class="st0" d="M161,50.5c0.4,0,0.8-0.1,1.3-0.2v1.6c-0.5,0.2-1.2,0.3-1.9,0.3c-0.8,0-1.4-0.2-1.8-0.6
	c-0.4-0.4-0.6-1.1-0.6-1.9v-3.7h-1V45l1.1-0.7l0.6-1.6h1.3v1.6h2.1v1.6h-2.1v3.7c0,0.3,0.1,0.5,0.2,0.7
	C160.5,50.4,160.7,50.5,161,50.5z"/>
<path class="st0" d="M162.7,44.4h2.3l1.4,4.3c0.1,0.4,0.2,0.8,0.3,1.3h0c0.1-0.5,0.1-0.9,0.3-1.3l1.4-4.3h2.2l-3.2,8.6
	c-0.3,0.8-0.7,1.4-1.3,1.8c-0.5,0.4-1.2,0.6-1.9,0.6c-0.4,0-0.7,0-1.1-0.1v-1.7c0.2,0.1,0.5,0.1,0.8,0.1c0.4,0,0.7-0.1,1-0.3
	c0.3-0.2,0.5-0.6,0.6-1l0.1-0.4L162.7,44.4z"/>
<path class="st0" d="M91.4,71l-0.7-2.4H87L86.3,71H84l3.5-10h2.6l3.5,10H91.4z M90.1,66.8c-0.7-2.2-1-3.4-1.1-3.7
	c-0.1-0.3-0.1-0.5-0.2-0.7c-0.2,0.6-0.6,2-1.3,4.3H90.1z"/>
<path class="st0" d="M96.6,71l-2.9-7.6h2.2l1.5,4.4c0.2,0.6,0.3,1.1,0.3,1.6h0c0-0.4,0.1-1,0.3-1.6l1.5-4.4h2.2L98.7,71H96.6z"/>
<path class="st0" d="M107.6,71l-0.4-1h-0.1c-0.4,0.4-0.7,0.7-1.1,0.9c-0.4,0.2-0.9,0.3-1.4,0.3c-0.7,0-1.3-0.2-1.7-0.6
	c-0.4-0.4-0.6-1-0.6-1.8c0-0.8,0.3-1.4,0.8-1.8c0.6-0.4,1.4-0.6,2.6-0.6l1.3,0v-0.3c0-0.8-0.4-1.2-1.2-1.2c-0.6,0-1.3,0.2-2.2,0.6
	l-0.7-1.4c0.9-0.5,1.9-0.7,2.9-0.7c1,0,1.8,0.2,2.4,0.7c0.5,0.4,0.8,1.1,0.8,2V71H107.6z M107,67.5l-0.8,0c-0.6,0-1.1,0.1-1.4,0.3
	c-0.3,0.2-0.4,0.5-0.4,0.9c0,0.6,0.3,0.9,1,0.9c0.5,0,0.9-0.1,1.2-0.4c0.3-0.3,0.4-0.6,0.4-1.1V67.5z"/>
<path class="st0" d="M111.1,61.4c0-0.7,0.4-1,1.1-1c0.8,0,1.1,0.3,1.1,1c0,0.3-0.1,0.6-0.3,0.8c-0.2,0.2-0.5,0.3-0.8,0.3
	C111.5,62.4,111.1,62.1,111.1,61.4z M113.3,71h-2.1v-7.6h2.1V71z"/>
<path class="st0" d="M117.6,71h-2.1V60.4h2.1V71z"/>
<path class="st0" d="M124.6,71l-0.4-1h-0.1c-0.4,0.4-0.7,0.7-1.1,0.9c-0.4,0.2-0.9,0.3-1.4,0.3c-0.7,0-1.3-0.2-1.7-0.6
	c-0.4-0.4-0.6-1-0.6-1.8c0-0.8,0.3-1.4,0.8-1.8c0.6-0.4,1.4-0.6,2.6-0.6l1.3,0v-0.3c0-0.8-0.4-1.2-1.2-1.2c-0.6,0-1.3,0.2-2.2,0.6
	l-0.7-1.4c0.9-0.5,1.9-0.7,2.9-0.7c1,0,1.8,0.2,2.4,0.7c0.5,0.4,0.8,1.1,0.8,2V71H124.6z M124,67.5l-0.8,0c-0.6,0-1.1,0.1-1.4,0.3
	c-0.3,0.2-0.4,0.5-0.4,0.9c0,0.6,0.3,0.9,1,0.9c0.5,0,0.9-0.1,1.2-0.4c0.3-0.3,0.4-0.6,0.4-1.1V67.5z"/>
<path class="st0" d="M132.5,63.2c0.9,0,1.6,0.4,2.1,1.1c0.5,0.7,0.8,1.7,0.8,2.9c0,1.3-0.3,2.2-0.8,2.9c-0.5,0.7-1.2,1-2.1,1
	c-0.9,0-1.6-0.3-2.1-1h-0.1l-0.3,0.8h-1.6V60.4h2.1v2.5c0,0.3,0,0.8-0.1,1.5h0.1C130.8,63.6,131.5,63.2,132.5,63.2z M131.8,64.9
	c-0.5,0-0.9,0.2-1.1,0.5c-0.2,0.3-0.4,0.8-0.4,1.6v0.2c0,0.8,0.1,1.4,0.4,1.8c0.2,0.4,0.6,0.5,1.2,0.5c0.4,0,0.8-0.2,1-0.6
	c0.3-0.4,0.4-1,0.4-1.7c0-0.8-0.1-1.3-0.4-1.7C132.6,65.1,132.2,64.9,131.8,64.9z"/>
<path class="st0" d="M139.2,71h-2.1V60.4h2.1V71z"/>
<path class="st0" d="M144.5,64.7c-0.4,0-0.8,0.1-1,0.4c-0.2,0.3-0.4,0.7-0.4,1.2h2.9c0-0.5-0.1-0.9-0.4-1.2
	C145.3,64.8,145,64.7,144.5,64.7z M144.8,71.1c-1.2,0-2.2-0.3-2.9-1c-0.7-0.7-1-1.6-1-2.9c0-1.3,0.3-2.3,1-3
	c0.6-0.7,1.5-1.1,2.7-1.1c1.1,0,1.9,0.3,2.5,0.9c0.6,0.6,0.9,1.5,0.9,2.5v1H143c0,0.6,0.2,1.1,0.5,1.4c0.3,0.3,0.8,0.5,1.4,0.5
	c0.5,0,0.9,0,1.3-0.1c0.4-0.1,0.8-0.2,1.3-0.5v1.6c-0.4,0.2-0.8,0.3-1.2,0.4C145.9,71.1,145.4,71.1,144.8,71.1z"/>
<path class="st0" d="M151.4,67.7h-1.7l-0.3-6.7h2.4L151.4,67.7z M149.3,70c0-0.4,0.1-0.7,0.3-0.9c0.2-0.2,0.5-0.3,0.9-0.3
	c0.4,0,0.7,0.1,0.9,0.3c0.2,0.2,0.3,0.5,0.3,0.9c0,0.4-0.1,0.6-0.3,0.9c-0.2,0.2-0.5,0.3-0.9,0.3c-0.4,0-0.7-0.1-0.9-0.3
	C149.4,70.7,149.3,70.4,149.3,70z"/>
<g>
	<circle class="st1" cx="39.8" cy="39.5" r="25.7"/>
	<path class="st0" d="M77.9,27.4c-0.5-1.6-2-2.7-3.7-2.7c-0.4,0-0.8,0.1-1.2,0.2c-1,0.3-1.8,1-2.3,1.9c-0.3,0.6-0.5,1.4-0.5,2
		l-4.8,1.5c-1.2-3.2-2.9-6.2-5.2-8.8c-3.6-4.2-8.4-7.1-13.7-8.4l1.1-4.8c1.7-0.1,3.3-1.4,3.7-3c0.5-2.1-0.9-4.2-2.9-4.7
		c-0.3-0.1-0.6-0.1-0.9-0.1c-1.8,0-3.4,1.3-3.8,3c-0.2,1,0,2,0.5,2.9c0.4,0.6,0.9,1.1,1.6,1.4l-1.1,4.8c-1.6-0.3-3.3-0.5-4.9-0.5
		c-5.5,0-10.8,1.6-15.3,4.8c-0.2,0.2-0.5,0.3-0.7,0.5c-0.2,0.2-0.4,0.3-0.7,0.5c-1,0.8-1.9,1.6-2.8,2.4l-3.7-3.4
		c0.8-1.6,0.6-3.5-0.8-4.7c-0.7-0.7-1.6-1.1-2.6-1.1c-1.1,0-2.1,0.5-2.9,1.3c-0.7,0.8-1.1,1.7-1.1,2.8c0.1,1.1,0.5,2,1.3,2.7
		c0.7,0.7,1.6,1.1,2.6,1.1c0.8,0,1.5-0.2,2.1-0.7l3.7,3.4c-1.2,1.4-2.2,2.8-3.1,4.5l0,0c-0.5,0.8-0.8,1.6-1.2,2.3c0,0,0,0,0,0.1
		c-1.2,2.7-1.9,5.7-2.1,8.7c-0.1,0.7-0.1,1.5-0.1,2.1c0,2.5,0.4,4.9,1,7.3l-4.8,1.6c-0.7-1.2-1.9-1.8-3.3-1.8
		c-0.4,0-0.8,0.1-1.2,0.2c-2,0.7-3.2,2.8-2.5,4.8c0.5,1.6,2,2.7,3.7,2.7c0.4,0,0.8-0.1,1.2-0.2c1.7-0.6,2.8-2.2,2.7-3.9l4.8-1.6
		c3,8.4,10.1,15,18.8,17.3L32,70.7c-1.7,0.1-3.3,1.4-3.7,3c-0.5,2.1,0.9,4.2,2.9,4.7c0.3,0.1,0.6,0.1,0.9,0.1c1.8,0,3.4-1.3,3.8-3
		s-0.5-3.5-2-4.3l1.1-4.8c1.6,0.3,3.3,0.5,4.9,0.5c7.6,0,14.4-3.1,19.4-8.1l3.7,3.4l0,0c-0.8,1.6-0.6,3.5,0.8,4.7
		c0.7,0.7,1.6,1.1,2.6,1.1c1.1,0,2.1-0.5,2.9-1.3c1.5-1.6,1.4-4.1-0.2-5.5c-0.7-0.7-1.6-1.1-2.6-1.1c-0.8,0-1.5,0.2-2.1,0.7
		l-3.7-3.5c4.1-4.8,6.5-11,6.5-17.6c0-0.6,0-1.2-0.1-1.6c-0.1-1.9-0.4-3.8-0.9-5.5l4.8-1.5c0.7,1.2,1.9,1.8,3.3,1.8
		c0.4,0,0.8-0.1,1.2-0.2c1-0.3,1.8-1,2.3-1.9C78.2,29.5,78.3,28.4,77.9,27.4z M15.3,15.4c-0.1,0.3-0.2,0.7-0.5,0.9
		c-0.2,0.3-0.5,0.5-0.9,0.6C13.7,17,13.5,17,13.3,17c-0.5,0-1-0.2-1.4-0.5c-0.4-0.4-0.6-0.9-0.6-1.4s0.2-1,0.5-1.4
		c0.4-0.4,0.9-0.6,1.5-0.6c0.5,0,1,0.2,1.4,0.5C15.2,14.1,15.4,14.8,15.3,15.4z M7.4,50.6c-0.2,0.7-0.6,1.3-1.4,1.5
		c-0.2,0.1-0.4,0.1-0.6,0.1c-0.9,0-1.6-0.6-1.8-1.4c-0.3-1.1,0.3-2.1,1.3-2.4c0.2-0.1,0.4-0.1,0.6-0.1c0.5,0,1,0.2,1.4,0.5
		c0.3,0.2,0.5,0.5,0.6,0.9C7.5,49.9,7.5,50.3,7.4,50.6z M64.5,63.3c0.1-0.3,0.2-0.7,0.5-0.9c0.2-0.3,0.5-0.5,0.9-0.6
		c0.2-0.1,0.4-0.1,0.6-0.1c0.5,0,1,0.2,1.4,0.5c0.8,0.7,0.9,1.9,0.1,2.7c-0.4,0.4-0.9,0.6-1.5,0.6c-0.5,0-1-0.2-1.4-0.5
		C64.5,64.7,64.3,64,64.5,63.3z M45.8,3.8c0.2-0.9,1-1.6,1.9-1.6c0.1,0,0.3,0,0.4,0.1c1.1,0.2,1.7,1.3,1.5,2.3
		c-0.2,0.7-0.7,1.3-1.4,1.5c-0.3,0.1-0.7,0.1-1,0.1C47,6.1,46.6,6,46.4,5.7c-0.1-0.1-0.2-0.3-0.3-0.4C45.8,4.8,45.7,4.3,45.8,3.8z
		 M18.7,51c0,0.7-0.1,1.3-0.2,1.8c-1.2-1.8-2-3.8-2.7-5.8c0,0,0,0,0-0.1c0,0,0,0,0-0.1l0,0c-0.5-1.5-0.8-2.9-1-4.5
		c0.3,0.4,0.5,0.9,0.9,1.5s0.8,1.3,1.3,1.9c0.8,1.2,2,3.1,1.9,3.8C18.8,50.1,18.8,50.5,18.7,51z M34,74.9c-0.2,1.1-1.3,1.7-2.3,1.5
		c-1.1-0.2-1.7-1.3-1.5-2.3c0.2-0.7,0.7-1.3,1.4-1.5c0.2-0.1,0.4-0.1,0.6-0.1c0.1,0,0.3,0,0.4,0.1c0.4,0.1,0.7,0.2,0.9,0.5
		C33.9,73.6,34.1,74.3,34,74.9z M34.4,64.1L34.4,64.1c-5.9-1.4-11.1-4.7-14.5-9.3c0.7-1.2,0.8-2.5,0.9-3.6c0-0.4,0.1-0.8,0.1-1.2
		c0.2-1.5-1-3.3-2.2-5.2c-0.5-0.7-0.9-1.3-1.2-1.8c-1-1.8-1.6-2.5-2.7-3.6c0-0.7,0-1.4,0.1-1.9c0.2-2.8,0.9-5.5,2-8.1c0,0,0,0,0-0.1
		c0.3-0.7,0.7-1.4,1.1-2.1l0,0c1-1.7,2.1-3.3,3.4-4.8l0,0c1-1.1,2-2,3.2-2.9c0.2-0.1,0.4-0.3,0.6-0.4c0.4,0.7,1.1,1.6,2.1,2.4
		c1.5,1.1,2.7,2.5,2.8,3.2c0,0.1,0,0.1,0,0.1c-0.7,0.8-0.7,1.9-0.7,2.9c0,1.2,0,1.6-0.4,1.7c-0.9,0.4-1.6,0.8-2.1,1.1
		c-0.6,0.4-1.2,0.7-1.9,1c-1.8,0.7-3,1.6-4.2,3.2c-0.3,0.4-0.8,0.8-1.3,1.1c-1,0.7-2.2,1.6-1.7,3.3c0.1,0.4,0.2,1,0.3,1.6
		c0.4,2,0.8,4.6,2.7,4.3c0.2,0,0.4-0.1,0.7-0.1c1.3-0.3,3.1-0.6,4.2,0.1c0.5,0.3,1,0.6,1.5,0.8c0.9,0.5,2.6,1.4,2.4,1.8
		c-0.3,1.1-0.1,1.8,0,2.6c0.1,0.6,0.2,1.2,0.1,2c0,0.3-0.1,0.6-0.1,1c-0.3,2.1-0.6,4.1,0.3,5.2c0.1,0.1,0.1,0.2,0.1,0.6
		c-0.1,0.6-0.1,1.4,0.6,2.4c0.5,0.7,1.6,1.5,3,2.2c0.4,0.2,0.8,0.5,1.3,0.8C34.6,64.1,34.5,64.1,34.4,64.1z M39.9,64.7
		c-0.7,0-1.3,0-1.9-0.1c-0.5-1-1.9-1.9-3.6-2.9c-1-0.6-2.1-1.4-2.4-1.7c-0.3-0.5-0.3-0.7-0.3-1.1c0-0.5,0.1-1.2-0.5-1.9
		c-0.4-0.5-0.1-2.6,0.1-3.8c0-0.3,0.1-0.7,0.1-1c0.1-1.1,0-1.8-0.1-2.5c-0.1-0.7-0.2-1.2,0-1.8c0.5-2-1.6-3.1-3.5-4
		c-0.5-0.3-1-0.5-1.4-0.7c-1.7-1.1-4.1-0.7-5.6-0.3c-0.1,0-0.3,0.1-0.4,0.1c-0.3-0.5-0.5-1.8-0.7-2.6c-0.1-0.7-0.2-1.3-0.4-1.8
		c-0.1-0.3,0.1-0.5,1.1-1.2c0.6-0.4,1.2-0.9,1.6-1.6c0.9-1.3,1.7-1.9,3.2-2.4c1-0.3,1.6-0.7,2.2-1.1c0.6-0.3,1.1-0.7,1.8-1
		c1.6-0.7,1.6-2.3,1.6-3.6c0-0.6,0-1.4,0.2-1.6c0.4-0.5,0.6-1,0.5-1.6c-0.3-2.1-3.2-4.3-3.6-4.6c-0.8-0.6-1.4-1.4-1.6-1.9
		c4-2.4,8.5-3.8,13.3-3.8c1.8,0,3.7,0.2,5.5,0.6c4.6,1.1,8.8,3.3,12.2,6.7c-0.4,0.7-1,1.3-1.3,1.3c-0.2,0-0.2,0-0.6-0.5
		c-0.2-0.3-0.4-0.6-0.6-0.9c-0.7-0.8-2.2-1.1-3.5-1c-1,0-2.8,0.2-3.9,1.5c-1,1.2-1.4,2.4-1.6,3.4c-0.1,0.4-0.2,0.7-0.3,1
		c-0.3,0-1-0.4-1.2-0.9c-0.3-0.7-1-1.1-1.7-1c-1.1-0.2-3,1-3.3,2c-0.3,0.9,0.4,1.6,0.8,1.9c0.1,0.1,0.3,0.3,0.4,0.4l0,0
		c-0.2,0.3-0.6,0.6-0.9,0.8c-0.5,0.4-1.1,0.8-1.1,1.6s0.7,1.3,0.9,1.4c0.4,0.3,0.6,0.6,0.6,0.8c0,0.2-0.2,0.4-0.6,0.7
		c-2,1.4-3.2,3.2-3.1,5.2v0.5c0,1.9,0,4,1.5,5.6c1,1.1,3,1.3,4.9,1.4c0.9,0.1,2.2,0.2,2.5,0.4c0.4,0.3,0.9,0.6,1.3,0.8
		c0.9,0.5,1.3,0.7,1.4,1.5c0,0.6,0,1,0,1.5c0,1.3,0,2.4,0.5,4.4c0.4,1.8,1,3.8,2.3,4.4c0.3,0.1,0.6,0.2,0.9,0.2
		c0.5,0,1.1-0.2,1.6-0.5c2.3-1.4,6.2-5.6,6.2-7.7v-0.1c0.1-1.7,0.2-3,1.5-3.8c1.6-1.1,2.7-2.1,2.8-4.1l0,0l0,0c0-0.3,0-0.6,0-0.9
		c0-0.2,0-0.5,0.4-0.9c0.3-0.3,0.7-0.5,1.1-0.7C64.3,54.2,53.3,64.7,39.9,64.7z M62.7,40.3c-0.6,0.6-0.9,1.2-1,1.8
		c-1.7-0.6-3.1-2.1-3.2-2.9c-0.2-1.4-0.2-3-0.2-3c0-0.6-0.5-1-1-1c-0.6,0-1,0.5-1,1c0,0.1,0,1.8,0.2,3.3c0.3,1.7,2.4,4,4.9,4.7
		c-0.2,0.6-0.8,1.1-1.7,1.6c-2.2,1.5-2.3,3.7-2.4,5.3v0.1c0,1-3.1,4.8-5.3,6.1c-0.4,0.2-0.7,0.3-0.8,0.2c-0.6-0.3-1.1-2.3-1.3-3
		c-0.4-1.7-0.4-2.7-0.4-4c0-0.5,0-1,0-1.6c-0.1-1.9-1.5-2.6-2.4-3.1c-0.4-0.2-0.7-0.4-1-0.6c-0.8-0.6-2-0.7-3.6-0.9
		c-1.3-0.1-3.2-0.3-3.7-0.8c-1-1.1-1-2.5-1-4.3V39c0-1.7,1.3-2.9,2.2-3.6c1.1-0.7,1.4-1.5,1.5-2c0.5-0.2,1.4-0.5,2.7-0.9
		c2.7-0.8,3.5-0.6,4,0c1,1.3,2.7,2.4,4.5,2.4c0.4,0,0.7,0,1.1-0.2c1.6-0.5,2.3-1,2.5-1.3c0.3-0.4,0.2-1.1-0.2-1.4
		c-0.4-0.3-1-0.3-1.3,0.1c-0.1,0.1-0.5,0.3-1.6,0.6c-1.2,0.3-2.7-0.6-3.5-1.6c-1.5-1.8-3.7-1.4-6-0.7c-1.4,0.4-2.2,0.7-2.8,0.9
		c-0.2-0.2-0.3-0.4-0.5-0.5l0,0c0.4-0.3,1-0.7,1.4-1.4c0.9-1.4-0.1-2.4-0.6-2.9l-0.1-0.1c0.4-0.3,1.2-0.7,1.6-0.8
		c0.5,1,1.7,1.8,2.8,1.9c0.8,0,1.4-0.3,1.7-1c0.2-0.4,0.4-0.9,0.5-1.5c0.3-0.9,0.5-1.8,1.3-2.7c0.3-0.4,1.1-0.7,1.9-0.8
		c1.3-0.1,2.3,0.2,2.5,0.3c0.2,0.2,0.3,0.4,0.4,0.6c0.4,0.7,1.1,1.7,2.6,1.4c0.9-0.2,1.6-1,2.2-1.7c2.3,2.6,4,5.6,5,8.8l0,0
		c0,0.1,0,0.1,0,0.2v0.1l0,0l0,0l0,0l0,0c0.6,1.9,1,3.9,1.1,5.9c0,0.4,0,0.8,0.1,1.1C64.3,39.2,63.4,39.6,62.7,40.3z M76,29.5
		c-0.3,0.5-0.7,0.8-1.2,1c-0.2,0.1-0.4,0.1-0.6,0.1c-0.5,0-1-0.2-1.4-0.5c-0.3-0.2-0.5-0.5-0.6-0.9c-0.1-0.3-0.1-0.7,0-1
		c0-0.2,0.1-0.3,0.2-0.5c0.3-0.5,0.7-0.8,1.2-1c0.2-0.1,0.4-0.1,0.6-0.1c0.9,0,1.6,0.6,1.8,1.4C76.3,28.5,76.2,29,76,29.5z"/>
	<path class="st0" d="M23.8,7.2c-0.2-0.5,0-1.1,0.5-1.3C25.2,5.4,26.1,5,27,4.7c0.5-0.2,1.1,0.1,1.3,0.6s-0.1,1.1-0.6,1.3
		c-0.9,0.3-1.7,0.7-2.6,1.1c-0.1,0.1-0.3,0.1-0.4,0.1C24.3,7.7,24,7.5,23.8,7.2z"/>
	<path class="st0" d="M7.9,22.8c0.2,0.1,0.3,0.1,0.5,0.1c0.4,0,0.7-0.2,0.9-0.5c0.5-0.8,1-1.6,1.5-2.4c0.3-0.5,0.2-1.1-0.3-1.4
		s-1.1-0.2-1.4,0.3c-0.6,0.8-1.1,1.6-1.6,2.5C7.3,21.9,7.4,22.5,7.9,22.8z"/>
	<path class="st0" d="M18.3,11.5c0.2,0,0.4-0.1,0.6-0.2c0.8-0.6,1.6-1.1,2.3-1.6c0.5-0.3,0.6-0.9,0.3-1.4c-0.3-0.5-0.9-0.6-1.4-0.3
		c-0.9,0.5-1.6,1.1-2.4,1.7c-0.4,0.3-0.5,1-0.2,1.4C17.7,11.4,18,11.5,18.3,11.5z"/>
	<path class="st0" d="M3.2,43.9c0.1,0.5,0.5,0.9,1,0.9h0.1c0.6-0.1,0.9-0.6,0.9-1.1C5,43.1,5,42.6,4.9,42c0-0.4,0-0.7-0.1-1.1
		c0-0.6-0.5-1-1-1c-0.6,0-1,0.5-1,1c0,0.4,0,0.8,0.1,1.2C3.1,42.8,3.1,43.3,3.2,43.9z"/>
	<path class="st0" d="M3.9,37.2L3.9,37.2c0.6,0,1-0.4,1.1-0.9c0.1-1,0.2-1.8,0.4-2.8c0.1-0.5-0.3-1.1-0.8-1.2
		c-0.5-0.1-1.1,0.3-1.2,0.8c-0.2,1-0.3,1.9-0.4,2.9C3,36.7,3.4,37.2,3.9,37.2z"/>
	<path class="st0" d="M5.2,29.8c0.1,0,0.2,0,0.3,0c0.4,0,0.8-0.3,1-0.7c0.1-0.4,0.3-0.9,0.4-1.3c0,0,0,0,0-0.1
		c0.2-0.4,0.3-0.9,0.5-1.4c0.2-0.5,0-1.1-0.6-1.3c-0.5-0.2-1.1,0-1.3,0.6c-0.2,0.5-0.4,1-0.5,1.4c0,0,0,0,0,0.1
		c-0.2,0.5-0.3,1-0.5,1.4C4.3,29.1,4.6,29.6,5.2,29.8z"/>
	<path class="st0" d="M53.6,7.2c0.9,0.4,1.7,0.8,2.5,1.3c0.1,0.1,0.3,0.1,0.5,0.1c0.4,0,0.7-0.2,0.9-0.5c0.3-0.5,0.1-1.1-0.4-1.4
		c-0.9-0.5-1.8-1-2.7-1.4c-0.5-0.2-1.1,0-1.3,0.5C52.9,6.3,53.1,6.9,53.6,7.2z"/>
	<path class="st0" d="M67.3,17.6c0.2,0.2,0.5,0.4,0.8,0.4c0.2,0,0.4-0.1,0.6-0.2c0.4-0.3,0.5-1,0.2-1.4c-0.6-0.8-1.3-1.6-1.9-2.2
		c-0.4-0.4-1-0.4-1.4,0c-0.4,0.4-0.4,1,0,1.4C66.2,16.2,66.8,16.9,67.3,17.6z"/>
	<path class="st0" d="M71.3,23.8c0.2,0.4,0.5,0.6,0.9,0.6c0.1,0,0.3,0,0.4-0.1c0.5-0.2,0.7-0.8,0.5-1.3c-0.5-0.9-1-1.7-1.5-2.6
		c-0.3-0.5-0.9-0.6-1.4-0.3c-0.5,0.3-0.6,0.9-0.3,1.4C70.4,22.1,70.8,23,71.3,23.8z"/>
	<path class="st0" d="M39.3,4.4c1,0,1.8,0,2.8,0.1c0,0,0,0,0.1,0c0.5,0,1-0.4,1-0.9c0-0.6-0.4-1-0.9-1.1c-1-0.1-1.9-0.1-3-0.1
		c-0.6,0-1,0.5-1,1S38.7,4.4,39.3,4.4z"/>
	<path class="st0" d="M31.8,5.2c0.1,0,0.1,0,0.2,0c1-0.2,1.9-0.4,2.8-0.5c0.5-0.1,0.9-0.6,0.8-1.1S35,2.8,34.5,2.9
		c-1,0.1-1.9,0.3-2.9,0.6c-0.5,0.1-0.9,0.7-0.8,1.2C31,4.9,31.4,5.2,31.8,5.2z"/>
	<path class="st0" d="M60,10.7c0.8,0.6,1.6,1.2,2.2,1.7c0.2,0.2,0.4,0.2,0.6,0.2c0.3,0,0.6-0.1,0.8-0.4c0.4-0.4,0.3-1.1-0.1-1.4
		c-0.8-0.7-1.6-1.3-2.3-1.8c-0.5-0.3-1.1-0.2-1.4,0.2C59.5,9.8,59.6,10.4,60,10.7z"/>
	<path class="st0" d="M8.5,55c-0.2-0.5-0.8-0.7-1.3-0.5c-0.5,0.3-0.7,0.9-0.5,1.4c0.5,0.9,0.9,1.7,1.5,2.6c0.2,0.3,0.5,0.5,0.9,0.5
		c0.2,0,0.4,0,0.5-0.1c0.5-0.3,0.6-0.9,0.3-1.4C9.4,56.6,8.9,55.8,8.5,55z"/>
	<path class="st0" d="M71.9,56c-0.5-0.3-1.1-0.1-1.4,0.4c-0.5,0.8-1,1.6-1.5,2.4c-0.3,0.5-0.2,1.1,0.3,1.4c0.2,0.1,0.4,0.2,0.6,0.2
		c0.3,0,0.6-0.2,0.8-0.4c0.6-0.8,1.1-1.6,1.6-2.5C72.5,56.8,72.3,56.2,71.9,56z"/>
	<path class="st0" d="M12.5,61.2c-0.3-0.4-1-0.5-1.4-0.2c-0.4,0.3-0.5,1-0.2,1.4c0.6,0.8,1.3,1.6,1.9,2.2c0.2,0.2,0.5,0.3,0.7,0.3
		c0.2,0,0.5-0.1,0.7-0.3c0.4-0.4,0.4-1,0-1.4C13.6,62.6,13.1,61.8,12.5,61.2z"/>
	<path class="st0" d="M75.9,41.6c-0.5-0.1-1,0.4-1.1,0.9c-0.1,1-0.2,1.8-0.4,2.8c-0.1,0.5,0.3,1.1,0.8,1.2c0.1,0,0.1,0,0.2,0
		c0.5,0,0.9-0.3,1-0.8c0.2-1,0.3-1.9,0.4-2.9C76.7,42.1,76.4,41.6,75.9,41.6z"/>
	<path class="st0" d="M60.9,67.4c-0.8,0.6-1.6,1.1-2.3,1.6c-0.5,0.3-0.6,0.9-0.3,1.4c0.2,0.3,0.5,0.5,0.8,0.5c0.2,0,0.4-0.1,0.5-0.2
		c0.9-0.5,1.6-1.1,2.4-1.6c0.4-0.3,0.5-1,0.2-1.4C62,67.1,61.4,67.1,60.9,67.4z"/>
	<path class="st0" d="M76.6,34.9C76.5,34.4,76,34,75.5,34c-0.5,0.1-0.9,0.6-0.9,1.1c0.1,0.6,0.1,1.1,0.2,1.6c0,0.4,0.1,0.8,0.1,1.2
		c0,0.5,0.5,1,1,1l0,0c0.6,0,1-0.5,1-1c0-0.4,0-0.8-0.1-1.2C76.7,36.1,76.6,35.5,76.6,34.9z"/>
	<path class="st0" d="M74.6,49c-0.5-0.2-1.1,0.1-1.3,0.7c-0.3,0.9-0.6,1.7-1,2.6c-0.2,0.5,0,1.1,0.6,1.3c0.1,0,0.2,0.1,0.4,0.1
		c0.4,0,0.8-0.2,0.9-0.6c0.4-0.9,0.7-1.8,1-2.8C75.4,49.7,75.1,49.2,74.6,49z"/>
	<path class="st0" d="M26.2,71.6c-0.9-0.4-1.7-0.8-2.5-1.2c-0.5-0.3-1.1-0.1-1.4,0.4c-0.3,0.5-0.1,1.1,0.4,1.4
		c0.9,0.5,1.7,0.9,2.7,1.3c0.1,0.1,0.3,0.1,0.4,0.1c0.4,0,0.8-0.2,0.9-0.6C26.9,72.4,26.7,71.8,26.2,71.6z"/>
	<path class="st0" d="M54.7,71.2c-0.9,0.4-1.7,0.8-2.6,1.1c-0.5,0.2-0.8,0.8-0.6,1.3c0.2,0.4,0.5,0.7,0.9,0.7c0.1,0,0.2,0,0.3-0.1
		c1-0.4,1.8-0.8,2.7-1.2c0.5-0.2,0.7-0.8,0.5-1.3C55.8,71.2,55.2,70.9,54.7,71.2z"/>
	<path class="st0" d="M19.8,68.1c-0.8-0.6-1.6-1.1-2.2-1.7c-0.4-0.4-1.1-0.3-1.4,0.1c-0.4,0.4-0.3,1.1,0.1,1.4
		c0.8,0.6,1.6,1.3,2.3,1.8c0.2,0.1,0.4,0.2,0.6,0.2c0.3,0,0.6-0.1,0.8-0.4C20.3,69,20.2,68.4,19.8,68.1z"/>
	<path class="st0" d="M40.5,74.5L40.5,74.5c-1,0-1.9,0-2.8-0.1c-0.6,0-1,0.4-1.1,0.9c0,0.6,0.4,1,0.9,1.1c0.8,0,1.6,0.1,2.3,0.1
		c0.2,0,0.5,0,0.7,0c0.6,0,1-0.5,1-1C41.5,74.8,41.1,74.5,40.5,74.5z"/>
	<path class="st0" d="M47.8,73.5c-0.9,0.2-1.8,0.4-2.8,0.5c-0.5,0.1-0.9,0.6-0.8,1.1c0.1,0.5,0.5,0.9,1,0.9h0.1
		c1-0.1,1.9-0.3,2.9-0.6c0.5-0.1,0.9-0.7,0.8-1.2C48.8,73.7,48.3,73.4,47.8,73.5z"/>
</g>
</svg>
