<?xml version="1.0" encoding="utf-8"?>
<!-- Generator: Adobe Illustrator 26.0.3, SVG Export Plug-In . SVG Version: 6.00 Build 0)  -->
<svg version="1.1" id="Layer_1" xmlns="http://www.w3.org/2000/svg" xmlns:xlink="http://www.w3.org/1999/xlink" x="0px" y="0px"
	 viewBox="0 0 85.5 85.8" style="enable-background:new 0 0 85.5 85.8;" xml:space="preserve">
<style type="text/css">
	.st0{fill:#FFFFFF;}
	.st1{fill:#A0A2A4;}
</style>
<desc>Created with Sketch.</desc>
<circle class="st0" cx="43.1" cy="42.8" r="26.5"/>
<path class="st1" d="M82.4,30.4c-0.5-1.7-2.1-2.8-3.8-2.8c-0.4,0-0.8,0.1-1.2,0.2c-1,0.3-1.9,1-2.4,2c-0.3,0.6-0.5,1.4-0.5,2.1
	l-4.9,1.5c-1.2-3.3-3-6.4-5.4-9.1c-3.7-4.3-8.7-7.3-14.1-8.7l1.1-5c1.8-0.1,3.4-1.4,3.8-3.1c0.5-2.2-0.9-4.3-3-4.8
	c-0.3-0.1-0.6-0.1-0.9-0.1c-1.9,0-3.5,1.3-3.9,3.1c-0.2,1,0,2.1,0.5,3c0.4,0.6,0.9,1.1,1.6,1.4l-1.1,5c-1.7-0.3-3.4-0.5-5.1-0.5
	c-5.7,0-11.1,1.7-15.8,4.9c-0.2,0.2-0.5,0.3-0.7,0.5c-0.2,0.2-0.4,0.3-0.7,0.5c-1,0.8-2,1.6-2.9,2.5l-3.8-3.5
	c0.8-1.6,0.6-3.6-0.8-4.8c-0.7-0.7-1.7-1.1-2.7-1.1c-1.1,0-2.2,0.5-3,1.3c-0.7,0.8-1.1,1.8-1.1,2.9c0.1,1.1,0.5,2.1,1.3,2.8
	c0.7,0.7,1.7,1.1,2.7,1.1c0.8,0,1.5-0.2,2.2-0.7l3.8,3.5c-1.2,1.4-2.3,2.9-3.2,4.6c0,0,0,0,0,0c-0.5,0.8-0.8,1.6-1.2,2.4
	c0,0,0,0,0,0.1c-1.2,2.8-2,5.9-2.2,9c-0.1,0.7-0.1,1.5-0.1,2.2c0,2.6,0.4,5.1,1,7.5l-4.9,1.6c-0.7-1.2-2-1.9-3.4-1.9
	c-0.4,0-0.8,0.1-1.2,0.2c-2.1,0.7-3.3,2.9-2.6,5c0.5,1.7,2.1,2.8,3.8,2.8c0.4,0,0.8-0.1,1.2-0.2c1.8-0.6,2.9-2.3,2.8-4l4.9-1.6
	c3.1,8.7,10.4,15.5,19.4,17.8L35,75c-1.8,0.1-3.4,1.4-3.8,3.1c-0.5,2.2,0.9,4.3,3,4.8c0.3,0.1,0.6,0.1,0.9,0.1
	c1.9,0,3.5-1.3,3.9-3.1s-0.5-3.6-2.1-4.4l1.1-5c1.7,0.3,3.4,0.5,5.1,0.5c7.8,0,14.9-3.2,20-8.4l3.8,3.5v0c-0.8,1.6-0.6,3.6,0.8,4.8
	c0.7,0.7,1.7,1.1,2.7,1.1c1.1,0,2.2-0.5,3-1.3c1.5-1.6,1.4-4.2-0.2-5.7c-0.7-0.7-1.7-1.1-2.7-1.1c-0.8,0-1.5,0.2-2.2,0.7L64.5,61
	c4.2-4.9,6.7-11.3,6.7-18.2c0-0.6,0-1.2-0.1-1.7c-0.1-2-0.4-3.9-0.9-5.7l4.9-1.5c0.7,1.2,2,1.9,3.4,1.9c0.4,0,0.8-0.1,1.2-0.2
	c1-0.3,1.9-1,2.4-2C82.7,32.5,82.8,31.4,82.4,30.4z M17.8,18c-0.1,0.3-0.2,0.7-0.5,0.9c-0.2,0.3-0.5,0.5-0.9,0.6
	c-0.2,0.1-0.4,0.1-0.6,0.1c-0.5,0-1-0.2-1.4-0.5c-0.4-0.4-0.6-0.9-0.6-1.4c0-0.5,0.2-1,0.5-1.4c0.4-0.4,0.9-0.6,1.5-0.6
	c0.5,0,1,0.2,1.4,0.5C17.7,16.6,17.9,17.4,17.8,18z M9.7,54.3c-0.2,0.7-0.6,1.3-1.4,1.5c-0.2,0.1-0.4,0.1-0.6,0.1
	c-0.9,0-1.7-0.6-1.9-1.4c-0.3-1.1,0.3-2.2,1.3-2.5c0.2-0.1,0.4-0.1,0.6-0.1c0.5,0,1,0.2,1.4,0.5c0.3,0.2,0.5,0.5,0.6,0.9
	C9.8,53.6,9.8,54,9.7,54.3z M68.6,67.4c0.1-0.3,0.2-0.7,0.5-0.9c0.2-0.3,0.5-0.5,0.9-0.6c0.2-0.1,0.4-0.1,0.6-0.1
	c0.5,0,1,0.2,1.4,0.5c0.8,0.7,0.9,2,0.1,2.8c-0.4,0.4-0.9,0.6-1.5,0.6c-0.5,0-1-0.2-1.4-0.5C68.6,68.8,68.4,68.1,68.6,67.4z M49.3,6
	c0.2-0.9,1-1.6,2-1.6c0.1,0,0.3,0,0.4,0.1c1.1,0.2,1.8,1.3,1.5,2.4c-0.2,0.7-0.7,1.3-1.4,1.5c-0.3,0.1-0.7,0.1-1,0.1
	c-0.3-0.1-0.7-0.2-0.9-0.5c-0.1-0.1-0.2-0.3-0.3-0.4C49.3,7.1,49.2,6.5,49.3,6z M21.3,54.7c0,0.7-0.1,1.3-0.2,1.9
	c-1.2-1.9-2.1-3.9-2.8-6c0,0,0,0,0-0.1c0,0,0,0,0-0.1c0,0,0,0,0,0c-0.5-1.5-0.8-3-1-4.6c0.3,0.4,0.5,0.9,0.9,1.5
	c0.4,0.6,0.8,1.3,1.3,2c0.8,1.2,2.1,3.2,2,3.9C21.4,53.8,21.4,54.2,21.3,54.7z M37.1,79.4c-0.2,1.1-1.3,1.8-2.4,1.5
	c-1.1-0.2-1.8-1.3-1.5-2.4c0.2-0.7,0.7-1.3,1.4-1.5c0.2-0.1,0.4-0.1,0.6-0.1c0.1,0,0.3,0,0.4,0.1c0.4,0.1,0.7,0.2,0.9,0.5
	C37,78,37.2,78.7,37.1,79.4z M37.5,68.2c0,0-0.1,0-0.1,0c-6-1.4-11.3-4.8-14.9-9.6c0.7-1.2,0.8-2.6,0.9-3.7c0-0.4,0.1-0.8,0.1-1.2
	c0.2-1.5-1-3.4-2.3-5.4c-0.5-0.7-0.9-1.3-1.2-1.9c-1-1.9-1.6-2.6-2.8-3.7c0-0.7,0-1.4,0.1-2c0.2-2.9,0.9-5.7,2.1-8.4c0,0,0,0,0-0.1
	c0.3-0.7,0.7-1.4,1.1-2.2c0,0,0,0,0,0c1-1.8,2.2-3.4,3.5-4.9c0,0,0,0,0,0c1-1.1,2.1-2.1,3.3-3c0.2-0.1,0.4-0.3,0.6-0.4
	c0.4,0.7,1.1,1.7,2.2,2.5c1.5,1.1,2.8,2.6,2.9,3.3c0,0.1,0,0.1,0,0.1c-0.7,0.8-0.7,2-0.7,3c0,1.2,0,1.7-0.4,1.8
	c-0.9,0.4-1.6,0.8-2.2,1.1c-0.6,0.4-1.2,0.7-2,1c-1.9,0.7-3.1,1.6-4.3,3.3c-0.3,0.4-0.8,0.8-1.3,1.1c-1,0.7-2.3,1.7-1.8,3.4
	c0.1,0.4,0.2,1,0.3,1.6c0.4,2.1,0.8,4.7,2.8,4.4c0.2,0,0.4-0.1,0.7-0.1c1.3-0.3,3.2-0.6,4.3,0.1c0.5,0.3,1,0.6,1.5,0.8
	c0.9,0.5,2.7,1.4,2.5,1.9c-0.3,1.1-0.1,1.9,0,2.7c0.1,0.6,0.2,1.2,0.1,2.1c0,0.3-0.1,0.6-0.1,1c-0.3,2.2-0.6,4.2,0.3,5.4
	c0.1,0.1,0.1,0.2,0.1,0.6c-0.1,0.6-0.1,1.4,0.6,2.5c0.5,0.7,1.7,1.5,3.1,2.3c0.4,0.2,0.8,0.5,1.3,0.8C37.7,68.2,37.6,68.2,37.5,68.2
	z M43.2,68.8c-0.7,0-1.3,0-2-0.1c-0.5-1-2-2-3.7-3c-1-0.6-2.2-1.4-2.5-1.8c-0.3-0.5-0.3-0.7-0.3-1.1c0-0.5,0.1-1.2-0.5-2
	c-0.4-0.5-0.1-2.7,0.1-3.9c0-0.3,0.1-0.7,0.1-1c0.1-1.1,0-1.9-0.1-2.6c-0.1-0.7-0.2-1.2,0-1.9c0.5-2.1-1.7-3.2-3.6-4.1
	c-0.5-0.3-1-0.5-1.4-0.7c-1.8-1.1-4.2-0.7-5.8-0.3c-0.1,0-0.3,0.1-0.4,0.1c-0.3-0.5-0.5-1.9-0.7-2.7c-0.1-0.7-0.2-1.3-0.4-1.9
	c-0.1-0.3,0.1-0.5,1.1-1.2c0.6-0.4,1.2-0.9,1.7-1.6c0.9-1.3,1.8-2,3.3-2.5c1-0.3,1.6-0.7,2.3-1.1c0.6-0.3,1.1-0.7,1.9-1
	c1.7-0.7,1.7-2.4,1.6-3.7c0-0.6,0-1.4,0.2-1.7c0.4-0.5,0.6-1,0.5-1.7c-0.3-2.2-3.3-4.4-3.7-4.7c-0.8-0.6-1.4-1.4-1.7-2
	c4.1-2.5,8.8-3.9,13.7-3.9c1.9,0,3.8,0.2,5.7,0.6c4.7,1.1,9.1,3.4,12.6,6.9c-0.4,0.7-1,1.3-1.3,1.3c-0.2,0-0.2,0-0.6-0.5
	c-0.2-0.3-0.4-0.6-0.6-0.9c-0.7-0.8-2.3-1.1-3.6-1c-1,0-2.9,0.2-4,1.5c-1,1.2-1.4,2.5-1.7,3.5c-0.1,0.4-0.2,0.7-0.3,1
	c-0.3,0-1-0.4-1.2-0.9c-0.3-0.7-1-1.1-1.8-1C45,27,43,28.2,42.7,29.3c-0.3,0.9,0.4,1.6,0.8,2c0.1,0.1,0.3,0.3,0.4,0.4c0,0,0,0,0,0
	c-0.2,0.3-0.6,0.6-0.9,0.8c-0.5,0.4-1.1,0.8-1.1,1.6c0,0.8,0.7,1.3,0.9,1.4c0.4,0.3,0.6,0.6,0.6,0.8c0,0.2-0.2,0.4-0.6,0.7
	c-2.1,1.4-3.3,3.3-3.2,5.4v0.5c0,2,0,4.1,1.5,5.8c1,1.1,3.1,1.3,5.1,1.4c0.9,0.1,2.3,0.2,2.6,0.4c0.4,0.3,0.9,0.6,1.3,0.8
	c0.9,0.5,1.3,0.7,1.4,1.5c0,0.6,0,1,0,1.5c0,1.3,0,2.5,0.5,4.5c0.4,1.9,1,3.9,2.4,4.5c0.3,0.1,0.6,0.2,0.9,0.2
	c0.5,0,1.1-0.2,1.7-0.5c2.4-1.4,6.4-5.8,6.4-7.9l0-0.1c0.1-1.8,0.2-3.1,1.5-3.9c1.7-1.1,2.8-2.2,2.9-4.2c0,0,0,0,0,0c0,0,0,0,0,0
	c0-0.3,0-0.6,0-0.9c0-0.2,0-0.5,0.4-0.9c0.3-0.3,0.7-0.5,1.1-0.7C68.4,58,57,68.8,43.2,68.8z M66.7,43.7c-0.6,0.6-0.9,1.2-1,1.9
	c-1.8-0.6-3.2-2.2-3.3-3c-0.2-1.4-0.2-3.1-0.2-3.1c0-0.6-0.5-1-1-1c-0.6,0-1,0.5-1,1c0,0.1,0,1.9,0.2,3.4c0.3,1.8,2.5,4.1,5.1,4.8
	c-0.2,0.6-0.8,1.1-1.8,1.7c-2.3,1.5-2.4,3.8-2.5,5.5l0,0.1c0,1-3.2,4.9-5.5,6.3c-0.4,0.2-0.7,0.3-0.8,0.2c-0.6-0.3-1.1-2.4-1.3-3.1
	c-0.4-1.8-0.4-2.8-0.4-4.1c0-0.5,0-1,0-1.6c-0.1-2-1.5-2.7-2.5-3.2c-0.4-0.2-0.7-0.4-1-0.6c-0.8-0.6-2.1-0.7-3.7-0.9
	c-1.3-0.1-3.3-0.3-3.8-0.8c-1-1.1-1-2.6-1-4.4v-0.5c0-1.8,1.3-3,2.3-3.7c1.1-0.7,1.4-1.5,1.5-2.1c0.5-0.2,1.4-0.5,2.8-0.9
	c2.8-0.8,3.6-0.6,4.1,0c1,1.3,2.8,2.5,4.6,2.5c0.4,0,0.7,0,1.1-0.2c1.7-0.5,2.4-1,2.6-1.3c0.3-0.4,0.2-1.1-0.2-1.4
	c-0.4-0.3-1-0.3-1.3,0.1c-0.1,0.1-0.5,0.3-1.6,0.6c-1.2,0.3-2.8-0.6-3.6-1.7c-1.5-1.9-3.8-1.4-6.2-0.7c-1.4,0.4-2.3,0.7-2.9,0.9
	c-0.2-0.2-0.3-0.4-0.5-0.5c0,0,0,0,0,0c0.4-0.3,1-0.7,1.4-1.4c0.9-1.4-0.1-2.5-0.6-3c0,0-0.1-0.1-0.1-0.1c0.4-0.3,1.2-0.7,1.6-0.8
	c0.5,1,1.8,1.9,2.9,2c0.8,0,1.4-0.3,1.8-1c0.2-0.4,0.4-0.9,0.5-1.5c0.3-0.9,0.5-1.9,1.3-2.8c0.3-0.4,1.1-0.7,2-0.8
	c1.3-0.1,2.4,0.2,2.6,0.3c0.2,0.2,0.3,0.4,0.4,0.6c0.4,0.7,1.1,1.8,2.7,1.4c0.9-0.2,1.7-1,2.3-1.8c2.4,2.7,4.1,5.8,5.2,9.1v0
	c0,0.1,0,0.1,0,0.2c0,0,0,0.1,0,0.1c0,0,0,0,0,0c0,0,0,0,0,0c0,0,0,0,0,0c0,0,0,0,0,0c0.6,2,1,4,1.1,6.1c0,0.4,0,0.8,0.1,1.1
	C68.4,42.5,67.4,43,66.7,43.7z M80.4,32.5c-0.3,0.5-0.7,0.8-1.2,1c-0.2,0.1-0.4,0.1-0.6,0.1c-0.5,0-1-0.2-1.4-0.5
	c-0.3-0.2-0.5-0.5-0.6-0.9c-0.1-0.3-0.1-0.7,0-1c0-0.2,0.1-0.3,0.2-0.5c0.3-0.5,0.7-0.8,1.2-1c0.2-0.1,0.4-0.1,0.6-0.1
	c0.9,0,1.7,0.6,1.9,1.4C80.7,31.5,80.6,32,80.4,32.5z"/>
<path class="st1" d="M26.6,9.5c-0.2-0.5,0-1.1,0.5-1.3C28,7.7,29,7.3,29.9,6.9C30.4,6.7,31,7,31.2,7.5c0.2,0.5-0.1,1.1-0.6,1.3
	c-0.9,0.3-1.8,0.7-2.7,1.1C27.8,10,27.6,10,27.5,10C27.1,10,26.8,9.8,26.6,9.5z"/>
<path class="st1" d="M10.2,25.6c0.2,0.1,0.3,0.1,0.5,0.1c0.4,0,0.7-0.2,0.9-0.5c0.5-0.8,1-1.7,1.5-2.5c0.3-0.5,0.2-1.1-0.3-1.4
	c-0.5-0.3-1.1-0.2-1.4,0.3c-0.6,0.8-1.1,1.7-1.6,2.6C9.6,24.7,9.7,25.3,10.2,25.6z"/>
<path class="st1" d="M20.9,14c0.2,0,0.4-0.1,0.6-0.2c0.8-0.6,1.6-1.1,2.4-1.7c0.5-0.3,0.6-0.9,0.3-1.4c-0.3-0.5-0.9-0.6-1.4-0.3
	c-0.9,0.5-1.7,1.1-2.5,1.8c-0.4,0.3-0.5,1-0.2,1.4C20.3,13.9,20.6,14,20.9,14z"/>
<path class="st1" d="M5.3,47.4c0.1,0.5,0.5,0.9,1,0.9c0,0,0.1,0,0.1,0c0.6-0.1,0.9-0.6,0.9-1.1c-0.1-0.6-0.1-1.2-0.2-1.8
	c0-0.4,0-0.7-0.1-1.1c0-0.6-0.5-1-1-1c-0.6,0-1,0.5-1,1c0,0.4,0,0.8,0.1,1.2C5.2,46.2,5.2,46.8,5.3,47.4z"/>
<path class="st1" d="M6.1,40.5C6.1,40.5,6.1,40.5,6.1,40.5c0.6,0,1-0.4,1.1-0.9c0.1-1,0.2-1.9,0.4-2.9c0.1-0.5-0.3-1.1-0.8-1.2
	c-0.5-0.1-1.1,0.3-1.2,0.8c-0.2,1-0.3,2-0.4,3C5.1,40,5.5,40.5,6.1,40.5z"/>
<path class="st1" d="M7.4,32.8c0.1,0,0.2,0,0.3,0c0.4,0,0.8-0.3,1-0.7c0.1-0.4,0.3-0.9,0.4-1.3c0,0,0,0,0-0.1
	c0.2-0.4,0.3-0.9,0.5-1.4c0.2-0.5,0-1.1-0.6-1.3c-0.5-0.2-1.1,0-1.3,0.6c-0.2,0.5-0.4,1-0.5,1.4c0,0,0,0,0,0.1
	c-0.2,0.5-0.3,1-0.5,1.4C6.5,32.1,6.8,32.6,7.4,32.8z"/>
<path class="st1" d="M57.3,9.5c0.9,0.4,1.8,0.8,2.6,1.3c0.1,0.1,0.3,0.1,0.5,0.1c0.4,0,0.7-0.2,0.9-0.5c0.3-0.5,0.1-1.1-0.4-1.4
	C60,8.5,59,8,58.1,7.6c-0.5-0.2-1.1,0-1.3,0.5C56.6,8.6,56.8,9.2,57.3,9.5z"/>
<path class="st1" d="M71.5,20.3c0.2,0.2,0.5,0.4,0.8,0.4c0.2,0,0.4-0.1,0.6-0.2c0.4-0.3,0.5-1,0.2-1.4c-0.6-0.8-1.3-1.6-2-2.3
	c-0.4-0.4-1-0.4-1.4,0c-0.4,0.4-0.4,1,0,1.4C70.3,18.8,70.9,19.5,71.5,20.3z"/>
<path class="st1" d="M75.6,26.7c0.2,0.4,0.5,0.6,0.9,0.6c0.1,0,0.3,0,0.4-0.1c0.5-0.2,0.7-0.8,0.5-1.3c-0.5-0.9-1-1.8-1.5-2.7
	c-0.3-0.5-0.9-0.6-1.4-0.3c-0.5,0.3-0.6,0.9-0.3,1.4C74.7,24.9,75.1,25.8,75.6,26.7z"/>
<path class="st1" d="M42.6,6.6c1,0,1.9,0,2.9,0.1c0,0,0,0,0.1,0c0.5,0,1-0.4,1-0.9c0-0.6-0.4-1-0.9-1.1c-1-0.1-2-0.1-3.1-0.1
	c-0.6,0-1,0.5-1,1C41.6,6.1,42,6.6,42.6,6.6z"/>
<path class="st1" d="M34.8,7.5c0.1,0,0.1,0,0.2,0C36,7.3,37,7.1,37.9,7c0.5-0.1,0.9-0.6,0.8-1.1c-0.1-0.5-0.6-0.9-1.1-0.8
	c-1,0.1-2,0.3-3,0.6c-0.5,0.1-0.9,0.7-0.8,1.2C34,7.2,34.4,7.5,34.8,7.5z"/>
<path class="st1" d="M63.9,13.1c0.8,0.6,1.6,1.2,2.3,1.8c0.2,0.2,0.4,0.2,0.6,0.2c0.3,0,0.6-0.1,0.8-0.4c0.4-0.4,0.3-1.1-0.1-1.4
	c-0.8-0.7-1.6-1.3-2.4-1.9c-0.5-0.3-1.1-0.2-1.4,0.2C63.4,12.2,63.5,12.8,63.9,13.1z"/>
<path class="st1" d="M10.8,58.8c-0.2-0.5-0.8-0.7-1.3-0.5C9,58.6,8.8,59.2,9,59.7c0.5,0.9,0.9,1.8,1.5,2.7c0.2,0.3,0.5,0.5,0.9,0.5
	c0.2,0,0.4,0,0.5-0.1c0.5-0.3,0.6-0.9,0.3-1.4C11.7,60.5,11.2,59.7,10.8,58.8z"/>
<path class="st1" d="M76.2,59.9c-0.5-0.3-1.1-0.1-1.4,0.4c-0.5,0.8-1,1.7-1.5,2.5c-0.3,0.5-0.2,1.1,0.3,1.4c0.2,0.1,0.4,0.2,0.6,0.2
	c0.3,0,0.6-0.2,0.8-0.4c0.6-0.8,1.1-1.7,1.6-2.6C76.8,60.7,76.6,60.1,76.2,59.9z"/>
<path class="st1" d="M14.9,65.2c-0.3-0.4-1-0.5-1.4-0.2c-0.4,0.3-0.5,1-0.2,1.4c0.6,0.8,1.3,1.6,2,2.3c0.2,0.2,0.5,0.3,0.7,0.3
	c0.2,0,0.5-0.1,0.7-0.3c0.4-0.4,0.4-1,0-1.4C16.1,66.7,15.5,65.9,14.9,65.2z"/>
<path class="st1" d="M80.3,45c-0.5-0.1-1,0.4-1.1,0.9c-0.1,1-0.2,1.9-0.4,2.9c-0.1,0.5,0.3,1.1,0.8,1.2c0.1,0,0.1,0,0.2,0
	c0.5,0,0.9-0.3,1-0.8c0.2-1,0.3-2,0.4-3C81.2,45.5,80.8,45,80.3,45z"/>
<path class="st1" d="M64.9,71.6c-0.8,0.6-1.6,1.1-2.4,1.7c-0.5,0.3-0.6,0.9-0.3,1.4c0.2,0.3,0.5,0.5,0.8,0.5c0.2,0,0.4-0.1,0.5-0.2
	c0.9-0.5,1.7-1.1,2.5-1.7c0.4-0.3,0.5-1,0.2-1.4C66,71.3,65.4,71.3,64.9,71.6z"/>
<path class="st1" d="M81,38.1c-0.1-0.5-0.6-0.9-1.1-0.9c-0.5,0.1-0.9,0.6-0.9,1.1c0.1,0.6,0.1,1.1,0.2,1.7c0,0.4,0.1,0.8,0.1,1.2
	c0,0.5,0.5,1,1,1c0,0,0,0,0,0c0.6,0,1-0.5,1-1c0-0.4,0-0.8-0.1-1.2C81.2,39.3,81.1,38.7,81,38.1z"/>
<path class="st1" d="M79,52.6c-0.5-0.2-1.1,0.1-1.3,0.7c-0.3,0.9-0.6,1.8-1,2.7c-0.2,0.5,0,1.1,0.6,1.3c0.1,0,0.2,0.1,0.4,0.1
	c0.4,0,0.8-0.2,0.9-0.6c0.4-0.9,0.7-1.9,1-2.9C79.8,53.4,79.5,52.8,79,52.6z"/>
<path class="st1" d="M29.1,76c-0.9-0.4-1.8-0.8-2.6-1.2c-0.5-0.3-1.1-0.1-1.4,0.4c-0.3,0.5-0.1,1.1,0.4,1.4c0.9,0.5,1.8,0.9,2.8,1.3
	c0.1,0.1,0.3,0.1,0.4,0.1c0.4,0,0.8-0.2,0.9-0.6C29.8,76.8,29.6,76.2,29.1,76z"/>
<path class="st1" d="M58.5,75.5c-0.9,0.4-1.8,0.8-2.7,1.1c-0.5,0.2-0.8,0.8-0.6,1.3c0.2,0.4,0.5,0.7,0.9,0.7c0.1,0,0.2,0,0.3-0.1
	c1-0.4,1.9-0.8,2.8-1.2c0.5-0.2,0.7-0.8,0.5-1.3C59.6,75.5,59,75.2,58.5,75.5z"/>
<path class="st1" d="M22.5,72.3c-0.8-0.6-1.6-1.1-2.3-1.8c-0.4-0.4-1.1-0.3-1.4,0.1c-0.4,0.4-0.3,1.1,0.1,1.4
	c0.8,0.6,1.6,1.3,2.4,1.9c0.2,0.1,0.4,0.2,0.6,0.2c0.3,0,0.6-0.1,0.8-0.4C23,73.3,22.9,72.7,22.5,72.3z"/>
<path class="st1" d="M43.8,78.9C43.8,78.9,43.8,78.9,43.8,78.9c-1,0-2,0-2.9-0.1c-0.6,0-1,0.4-1.1,0.9c0,0.6,0.4,1,0.9,1.1
	c0.8,0,1.6,0.1,2.4,0.1c0.2,0,0.5,0,0.7,0c0.6,0,1-0.5,1-1C44.8,79.3,44.4,78.9,43.8,78.9z"/>
<path class="st1" d="M51.3,77.9c-0.9,0.2-1.9,0.4-2.9,0.5c-0.5,0.1-0.9,0.6-0.8,1.1c0.1,0.5,0.5,0.9,1,0.9c0,0,0.1,0,0.1,0
	c1-0.1,2-0.3,3-0.6c0.5-0.1,0.9-0.7,0.8-1.2C52.4,78.1,51.9,77.8,51.3,77.9z"/>
</svg>
