<?xml version="1.0" encoding="UTF-8"?>
<svg width="117px" height="94px" viewBox="0 0 117 94" version="1.1" xmlns="http://www.w3.org/2000/svg" xmlns:xlink="http://www.w3.org/1999/xlink">
    <!-- Generator: Sketch 53.2 (72643) - https://sketchapp.com -->
    <title>Group 11</title>
    <desc>Created with Sketch.</desc>
    <g id="Phase-2---Title-Setup" stroke="none" stroke-width="1" fill="none" fill-rule="evenodd" stroke-linecap="round" stroke-linejoin="round">
        <g id="16.-Add-a-Book---Print-Paperback" transform="translate(-376.000000, -1067.000000)" stroke="#A0A2A4" stroke-width="2">
            <g id="Group-11" transform="translate(377.000000, 1068.000000)">
                <path d="M0,18.5646971 C1.94536472,18.0541451 3.89095945,17.5433667 5.96144576,17 C5.96144576,17.5397458 5.96144576,18.0177094 5.96121576,18.4954467 C5.95891573,36.2943851 5.9563857,54.0930973 5.95431567,71.8920358 C5.95385566,75.1158006 6.62822423,75.8608082 9.87425549,75.9492948 C20.5521412,76.2403276 30.3935063,79.2040639 39.2748391,85.0308293 C42.3173178,87.0270967 45.0992031,89.407636 48,91.6125598 C47.922489,91.7420083 47.845208,91.8710041 47.767697,92 C47.3442617,91.8621781 46.9173762,91.7338612 46.4980809,91.5847239 C34.6768507,87.3821747 22.5294763,86.0661907 10.0865482,87.7920195 C6.69354506,88.2627412 3.36057271,89.1537178 0,89.8518796 L0,18.5646971 Z" id="Fill-4"></path>
                <path d="M115,89.8481343 C111.128608,89.0936136 107.287693,88.0928666 103.380282,87.6302871 C91.1784807,86.185518 79.3033941,87.7196799 67.7859617,91.9195583 C67.5779266,91.9953725 67.3636574,92.053987 67,91.9202373 C68.2562918,90.8081453 69.4668668,89.6415124 70.7758024,88.5927875 C80.8279843,80.53906 92.3320249,76.2948246 105.334334,76.0196305 C108.054029,75.9623738 109.022166,75.0143573 109.022166,72.3911872 C109.022858,54.3661996 109.021935,36.3409857 109.021473,18.3157718 L109.021473,17 C111.129993,17.6300497 113.065112,18.2082741 115,18.7864986 L115,89.8481343 Z" id="Fill-6"></path>
                <path d="M54,91 C42.1864911,77.4801797 27.5664476,70.2161742 10,68.9725592 L10,0 C13.7354381,0.712337999 17.3184878,1.17038189 20.7757886,2.09433212 C34.353946,5.72386383 45.2250056,13.3109037 53.3919025,24.7026957 C53.7339301,25.1800588 53.9736881,25.8508381 53.9743653,26.4317608 C54.0041658,47.5786072 53.9996505,68.7256782 53.9998763,89.8723 L54,91 Z" id="Fill-8"></path>
                <path d="M105,0.041259315 L105,68.9251592 C87.3822863,70.2191177 72.7738739,77.4591984 61,91 L61.0002026,89.717313 C61.0002026,68.5369717 60.9963636,47.3568559 61.0221073,26.1765146 C61.0227848,25.625117 61.220153,24.9842243 61.5385618,24.5358474 C70.7127983,11.6055056 83.1569345,3.73670542 98.7135727,0.751133029 C100.628316,0.383684901 102.586868,0.243243071 104.526,0.004289074 C104.663977,-0.0126180484 104.808729,0.0248030492 105,0.041259315" id="Fill-10"></path>
            </g>
        </g>
    </g>
</svg>