<?xml version="1.0" encoding="UTF-8"?>
<svg width="140px" height="84px" viewBox="0 0 140 84" version="1.1" xmlns="http://www.w3.org/2000/svg" xmlns:xlink="http://www.w3.org/1999/xlink">
    <!-- Generator: Sketch 53.2 (72643) - https://sketchapp.com -->
    <title>Group 33</title>
    <desc>Created with Sketch.</desc>
    <g id="Page-1" stroke="none" stroke-width="1" fill="none" fill-rule="evenodd">
        <g id="Assets-Copy-3" transform="translate(-136.000000, -1168.000000)">
            <g id="Group-33" transform="translate(136.000000, 1168.000000)">
                <path d="M77.5,0.512345679 L77.5,82.5900595" id="Line-3" stroke="#5BAF00" stroke-linecap="square"></path>
                <g id="Group-8" transform="translate(0.000000, 10.000000)" fill="#5BAF00" fill-rule="nonzero">
                    <path d="M36.1185171,29.4540629 C36.311545,29.8000926 36.6955555,30 37.092605,30 C37.2584044,30 37.4285502,29.9649635 37.5868076,29.8910235 C37.6511076,29.8610257 44.0719062,26.8712029 47.2385866,25.954277 C47.8124292,25.7872969 48.1308613,25.2253063 47.9486992,24.6994069 C47.7675598,24.1733902 47.1589466,23.8804427 46.579735,24.0464854 C43.2439315,25.0134467 36.8668518,27.9832318 36.5963571,28.1091993 C36.0595861,28.3591421 35.8458492,28.961208 36.1185171,29.4540629 Z" id="Shape"></path>
                    <path d="M37.0925836,18 C37.2583834,18 37.4285295,17.9649635 37.5867871,17.8910235 C37.6510873,17.8610257 44.0718985,14.8712029 47.2385851,13.954277 C47.8124288,13.7872969 48.1308616,13.2253063 47.9486991,12.6994069 C47.7675593,12.1733902 47.158945,11.8804427 46.5797323,12.0464854 C43.2439222,13.0134467 36.86683,15.9832318 36.5963347,16.1091993 C36.0596905,16.3591421 35.8458254,16.9610908 36.1184938,17.4540629 C36.3115221,17.7999754 36.6955334,18 37.0925836,18 Z" id="Shape"></path>
                    <path d="M62.9332521,16.0003498 C62.3433782,16.0003498 61.8666292,16.47822 61.8666292,17.0669642 L61.8666292,58.6665528 C61.8666292,60.4307853 60.430882,61.8665211 58.6666354,61.8665211 C47.9999063,60.4444518 39.4665896,59.7777852 33.0666854,59.8665211 C32.7216861,59.8665211 32.7216861,59.7150709 33.0666854,59.4121704 C34.6219324,58.8681758 38.6730495,57.5999383 42.6666667,57.5999383 C51.9583985,57.5999383 58.2677612,59.657543 58.3306361,59.6787927 C58.6516354,59.7854167 59.0101347,59.7321672 59.2906342,59.5315442 C59.5690087,59.3310462 59.7332583,59.0089244 59.7332583,58.6664278 L59.7332583,11.733767 C59.7332583,11.2335219 59.386634,10.8004012 58.89801,10.6926523 C58.89801,10.6926523 58.0617616,10.5060291 56.6323894,10.2435317 C56.0552655,10.1369077 55.4975166,10.5209039 55.3907668,11.0990232 C55.284142,11.6792675 55.6670163,12.235012 56.2462651,12.3416359 C56.7913891,12.4418849 57.2478882,12.5303841 57.5998875,12.6008834 L57.5998875,57.2489418 C55.1827672,56.615323 49.8154027,55.4665844 42.6665417,55.4665844 C38.0190507,55.4665844 33.4538097,56.9929443 32.0414374,57.5103142 C30.7859399,56.9556947 26.9908223,55.4665844 22.3998313,55.4665844 C15.0525956,55.4665844 9.00035742,56.6783224 6.3998625,57.2938163 L6.3998625,12.5592588 C8.52998334,12.035514 14.8212211,10.6670275 22.3998313,10.6670275 C26.2889487,10.6670275 29.6243171,11.8776405 30.9331896,12.4248851 L30.9331896,54.39997 C30.9331896,54.7839662 31.1400642,55.1392126 31.4739385,55.3279608 C31.8078129,55.5178339 32.2195621,55.5124589 32.5491864,55.3140859 C32.6548112,55.2512115 43.2232906,48.938649 52.6035223,45.8123049 C53.0397714,45.6661813 53.3331458,45.2598104 53.3331458,44.8000649 L53.3331458,1.06712245 C53.3331458,0.717250915 53.1613962,0.389754155 52.8733967,0.190381127 C52.5875223,-0.0091169003 52.220648,-0.0549914466 51.8910237,0.0677573394 C43.3566653,3.26872568 34.7210572,8.64254753 34.6345574,8.695922 C34.1353083,9.00841891 33.9828086,9.6665374 34.295308,10.1657825 C34.6068074,10.6650275 35.2649311,10.817526 35.7651801,10.5050291 C35.844055,10.4549046 43.3566653,5.78082583 51.199775,2.62673203 L51.199775,44.0364475 C43.9186642,46.5665474 36.3165541,50.6977566 33.0664354,52.5472383 L33.0664354,11.733767 C33.0664354,11.329521 32.8381859,10.9603996 32.4765616,10.7791514 C32.2930619,10.6885273 27.9219455,8.5337986 22.3998313,8.5337986 C12.7614751,8.5337986 5.35136455,10.619153 5.03986516,10.7086521 C4.58224105,10.8387758 4.26649167,11.2580217 4.26649167,11.733767 L4.26649167,58.6666778 C4.26649167,59.0005494 4.42436636,59.3162963 4.68999084,59.5179193 C4.87774047,59.6597929 5.10386503,59.7334172 5.33323958,59.7334172 C5.43136439,59.7334172 5.5294892,59.7195423 5.62548901,59.6917926 C5.69911387,59.6715428 13.0750995,57.6000633 22.3998313,57.6000633 C26.2995736,57.6000633 29.6318171,58.8139263 30.9331896,59.3589209 C30.9331896,59.6974044 30.9331896,59.8666461 30.9331896,59.8666461 C24.3110632,59.8665628 15.7777465,60.5332294 5.33323958,61.8666461 C3.56899303,61.8666461 2.13324583,60.4309103 2.13324583,58.6666778 L2.13324583,17.0670892 C2.13324583,16.478345 1.65537177,16.0004748 1.06662292,16.0004748 C0.477874067,16.0004748 0,16.478345 0,17.0670892 L0,58.6666778 C0,61.6073987 2.39249533,64 5.33336458,64 C14.4444549,62.7619048 22.9777299,62.1428571 30.9331896,62.1428571 C31.5752793,62.1428571 32.3572882,62.1428571 33.0664354,62.1428571 C43.0221451,62.1428571 51.5555451,62.7619048 58.6666354,64 C61.6073797,64 64,61.6075237 64,58.6666778 L64,17.0670892 C63.999875,16.47822 63.5231259,16.0003498 62.9332521,16.0003498 Z" id="Shape"></path>
                    <path d="M36.1185171,23.4540629 C36.311545,23.8000926 36.6955555,24 37.092605,24 C37.2584044,24 37.4285502,23.9649635 37.5868076,23.8910235 C37.6511076,23.8610257 44.0719062,20.8712029 47.2385866,19.954277 C47.8124292,19.7872969 48.1308613,19.2253063 47.9486992,18.6994069 C47.7675598,18.1733902 47.1589466,17.8804427 46.579735,18.0464854 C43.2439315,19.0134467 36.8668518,21.9832318 36.5963571,22.1091993 C36.0595861,22.3591421 35.8458492,22.961208 36.1185171,23.4540629 Z" id="Shape"></path>
                    <path d="M36.1185171,36.4540629 C36.311545,36.8000926 36.6955555,37 37.092605,37 C37.2584044,37 37.4285502,36.9649635 37.5868076,36.8910235 C37.6511076,36.8610257 44.0719062,33.8712029 47.2385866,32.954277 C47.8124292,32.7872969 48.1308613,32.2253063 47.9486992,31.6994069 C47.7675598,31.1733902 47.1589466,30.8804427 46.579735,31.0464854 C43.2439315,32.0134467 36.8668518,34.9832318 36.5963571,35.1091993 C36.0595861,35.3591421 35.8458492,35.961208 36.1185171,36.4540629 Z" id="Shape"></path>
                    <path d="M26.1758767,20.5541783 C19.5896714,19.1028593 12.1052734,20.9518385 11.7906684,21.030948 C11.2222046,21.1741433 10.8841012,21.7229801 11.0365915,22.2578496 C11.1645833,22.7055108 11.5954309,23 12.0659009,23 C12.157645,23 12.2503891,22.9889669 12.3432582,22.9659618 C12.4147536,22.9469473 19.6206694,21.1671009 25.6896577,22.5042158 C26.2602463,22.629453 26.8373345,22.2958785 26.971701,21.7570183 C27.1059424,21.2192146 26.7497151,20.6803544 26.1758767,20.5541783 Z" id="Shape"></path>
                    <path d="M26.1758767,26.5538032 C19.5896714,25.1033181 12.1052734,26.9515244 11.7906684,27.030646 C11.2222046,27.1738632 10.8841012,27.7229017 11.0365915,28.2577357 C11.1645833,28.7054656 11.5954309,29 12.0659009,29 C12.157645,29 12.2503891,28.9889652 12.3432582,28.9659566 C12.4147536,28.9469392 19.6206694,27.1668198 25.6896577,28.5041398 C26.2602463,28.6293961 26.8373345,28.2957705 26.971701,27.7568277 C27.1059424,27.2189414 26.7497151,26.6799987 26.1758767,26.5538032 Z" id="Shape"></path>
                    <path d="M36.1185171,42.454062 C36.311545,42.8000922 36.6955555,43 37.092605,43 C37.2584044,43 37.4285502,42.9649634 37.5868076,42.8910233 C37.6511076,42.8610254 44.0719062,39.8711976 47.2385866,38.9542701 C47.8124292,38.7872897 48.1308613,38.2252982 47.9486992,37.6993978 C47.7675598,37.1734975 47.1589466,36.8804322 46.579735,37.0464752 C43.2439315,38.0134381 36.8668518,40.9832284 36.5963571,41.109196 C36.0595861,41.3591393 35.8458492,41.9612062 36.1185171,42.454062 Z" id="Shape"></path>
                    <path d="M26.1758767,32.5537542 C19.5896714,31.1038663 12.1052734,32.9502556 11.7906684,33.0304008 C11.2222046,33.173559 10.8841012,33.7223714 11.0365915,34.2569853 C11.1645833,34.7045308 11.5954309,35 12.0659009,35 C12.157645,35 12.2503891,34.988031 12.3432582,34.9649145 C12.4147536,34.945905 19.6206694,33.1665184 25.6896577,34.5032878 C26.2602463,34.6284926 26.8373345,34.2950043 26.971701,33.7562834 C27.1059424,33.2186186 26.7497151,32.6798977 26.1758767,32.5537542 Z" id="Shape"></path>
                    <path d="M26.1758767,44.5539832 C19.5896714,43.1031751 12.1052734,44.9515035 11.7906684,45.0305852 C11.2222046,45.17373 10.8841012,45.722491 11.0365915,46.2570548 C11.1645833,46.7045584 11.5954309,47 12.0659009,47 C12.157645,47 12.2503891,46.9880322 12.3432582,46.9649178 C12.4147536,46.94591 19.6206694,45.1666901 25.6896577,46.5033343 C26.2602463,46.6274714 26.8373345,46.2950703 26.971701,45.7563999 C27.1059424,45.2187854 26.7497151,44.680115 26.1758767,44.5539832 Z" id="Shape"></path>
                    <path d="M26.1758767,38.5541292 C19.5896714,37.1034077 12.1052734,38.9505698 11.7906684,39.0307027 C11.2222046,39.173839 10.8841012,39.7225672 11.0365915,40.2570992 C11.1645833,40.7045761 11.5954309,41 12.0659009,41 C12.157645,41 12.2503891,40.9880329 12.3432582,40.9649199 C12.4147536,40.9459133 19.6206694,39.1667995 25.6896577,40.503364 C26.2602463,40.6285496 26.8373345,40.2951124 26.971701,39.7564741 C27.1059424,39.2188917 26.7497151,38.6802534 26.1758767,38.5541292 Z" id="Shape"></path>
                </g>
                <g id="Group-7" transform="translate(90.000000, 11.000000)" fill="#5BAF00">
                    <path d="M7.14285714,62.1428571 L48.5714286,62.1428571 L48.5714286,14.2857143 L7.14285714,14.2857143 L7.14285714,62.1428571 Z M49.1839142,64.2857143 L6.53037156,64.2857143 C6.07934811,64.2857143 5.71428571,63.9229592 5.71428571,63.4753902 L5.71428571,13.667467 C5.71428571,13.219898 6.07934811,12.8571429 6.53037156,12.8571429 L49.1839142,12.8571429 C49.6349376,12.8571429 50,13.219898 50,13.667467 L50,63.4753902 C50,63.9229592 49.6349376,64.2857143 49.1839142,64.2857143 L49.1839142,64.2857143 Z" id="Fill-1"></path>
                    <path d="M16.620427,36.255551 L39.0938587,36.255551 L39.0938587,23.744449 L16.620427,23.744449 L16.620427,36.255551 Z M39.9040722,37.8571429 L15.8102135,37.8571429 C15.3627056,37.8571429 15,37.4986532 15,37.0563469 L15,22.9436531 C15,22.5013468 15.3627056,22.1428571 15.8102135,22.1428571 L39.9040722,22.1428571 C40.3515801,22.1428571 40.7142857,22.5013468 40.7142857,22.9436531 L40.7142857,37.0563469 C40.7142857,37.4986532 40.3515801,37.8571429 39.9040722,37.8571429 L39.9040722,37.8571429 Z" id="Fill-3"></path>
                    <path d="M39.9040722,42.8571429 L15.8102135,42.8571429 C15.3627056,42.8571429 15,42.5371429 15,42.1428571 C15,41.7483333 15.3627056,41.4285714 15.8102135,41.4285714 L39.9040722,41.4285714 C40.3515801,41.4285714 40.7142857,41.7483333 40.7142857,42.1428571 C40.7142857,42.5371429 40.3515801,42.8571429 39.9040722,42.8571429" id="Fill-4"></path>
                    <path d="M39.9040722,47.1428571 L15.8102135,47.1428571 C15.3627056,47.1428571 15,46.8228571 15,46.4285714 C15,46.0342857 15.3627056,45.7142857 15.8102135,45.7142857 L39.9040722,45.7142857 C40.3515801,45.7142857 40.7142857,46.0342857 40.7142857,46.4285714 C40.7142857,46.8228571 40.3515801,47.1428571 39.9040722,47.1428571" id="Fill-5"></path>
                    <path d="M49.1899482,5 L7.67020089,5 L7.67020089,3.27724819 L48.3798963,3.27724819 L48.3798963,1.72275181 L7.14285714,1.72275181 L7.14285714,0 L49.1899482,0 C49.6373668,0 50,0.38560928 50,0.861375904 L50,4.1386241 C50,4.61439072 49.6373668,5 49.1899482,5" id="Fill-6"></path>
                    <polygon id="Fill-7" points="7.14285714 14.2857143 49.2857143 14.2857143 49.2857143 12.8571429 7.14285714 12.8571429"></polygon>
                    <path d="M7.85714286,10.7142857 C5.88769267,10.7142857 4.28571429,9.11196583 4.28571429,7.14249314 C4.28571429,5.17350579 5.88769267,3.57142857 7.85714286,3.57142857 L7.85714286,5.02742119 C6.70929008,5.02742119 5.7754648,5.97624305 5.7754648,7.14249314 C5.7754648,8.30922857 6.70929008,9.25829309 7.85714286,9.25829309 L7.85714286,10.7142857 Z" id="Fill-8"></path>
                    <path d="M7.14285714,14.2857143 C3.20396498,14.2857143 0,11.0813747 0,7.14244243 C0,3.20406307 3.20396498,0 7.14285714,0 L7.14285714,1.65884705 C4.142188,1.65884705 1.70122034,4.11891722 1.70122034,7.14244243 C1.70122034,10.1665206 4.142188,12.6268672 7.14285714,12.6268672 L7.14285714,14.2857143 Z" id="Fill-9"></path>
                    <path d="M7.14285714,64.2857143 C3.20396498,64.2857143 0,61.0813127 0,57.1428571 L1.70122034,57.1428571 C1.70122034,60.1669938 4.142188,62.6268351 7.14285714,62.6268351 L7.14285714,64.2857143 Z" id="Fill-10"></path>
                    <polygon id="Fill-11" points="0 57.1428571 1.42857143 57.1428571 1.42857143 5.71428571 0 5.71428571"></polygon>
                    <path d="M50,14.2857143 L48.3938338,14.2857143 L48.3938338,10.763474 L7.85714286,10.763474 L7.85714286,9.28571429 L49.1969169,9.28571429 C49.6404865,9.28571429 50,9.61648617 50,10.0245941 L50,14.2857143 Z" id="Fill-12"></path>
                    <path d="M46.4285714,10.7142857 L44.8049191,10.7142857 L44.8049191,7.89267712 L5,7.89267712 L5,6.32729094 L44.8049191,6.32729094 L44.8049191,4.35412166 C44.8049191,3.92181418 45.1683466,3.57142857 45.6167453,3.57142857 C46.0651439,3.57142857 46.4285714,3.92181418 46.4285714,4.35412166 L46.4285714,10.7142857 Z" id="Fill-13"></path>
                </g>
            </g>
        </g>
    </g>
</svg>