<?xml version="1.0" encoding="UTF-8"?><svg xmlns="http://www.w3.org/2000/svg" xmlns:xlink="http://www.w3.org/1999/xlink" viewBox="0 0 51.9 51.9"><defs><style>.e{fill:none;}.f{fill:#fff;}.g{fill:#fff0b2;}.h{fill:#ffbf0f;}.i{fill:#6bcce5;}.j{fill:#337894;}.k{clip-path:url(#d);}</style><clipPath id="d"><rect class="e" width="51.9" height="51.9"/></clipPath></defs><g id="a"/><g id="b"><g id="c"><g><g class="k"><path class="g" d="M51.9,25.95c0,14.33-11.62,25.95-25.95,25.95S0,40.28,0,25.95C0,11.62,11.62,0,25.95,0s25.95,11.62,25.95,25.95"/><path class="f" d="M35.73,43.38v5.3c0,.77-.64,1.41-1.41,1.41H6.68c-.77,0-1.41-.64-1.41-1.41V8.15c0-.78,.63-1.41,1.41-1.41h27.65c.77,0,1.41,.63,1.41,1.41V43.38Z"/><path class="f" d="M36.82,43.47c-4.14,0-7.5-3.36-7.5-7.5s3.36-7.5,7.5-7.5,7.5,3.36,7.5,7.5-3.36,7.5-7.5,7.5"/><path class="h" d="M12.93,31.33h-3.87v-2.94h3.87v2.94Zm1.14-4.06c-.12-.12-.3-.19-.47-.19h-5.21c-.18,0-.35,.07-.47,.19-.12,.12-.2,.29-.2,.46v4.25c0,.17,.07,.34,.2,.46,.12,.12,.3,.19,.47,.19h5.21c.18,0,.35-.07,.47-.19,.12-.12,.2-.29,.2-.46v-4.25c0-.17-.07-.34-.2-.46"/><path class="h" d="M12.93,38.55h-3.87v-2.94h3.87v2.94Zm1.14-4.06c-.12-.12-.3-.19-.47-.19h-5.21c-.18,0-.35,.07-.47,.19-.12,.12-.2,.29-.2,.46v4.25c0,.17,.07,.34,.2,.46,.12,.12,.3,.19,.47,.19h5.21c.18,0,.35-.07,.47-.19,.12-.12,.2-.29,.2-.46v-4.25c0-.17-.07-.34-.2-.46"/><path class="h" d="M12.93,45.77h-3.87v-2.94h3.87v2.94Zm1.14-4.06c-.12-.12-.3-.19-.47-.19h-5.21c-.18,0-.35,.07-.47,.19-.12,.12-.2,.29-.2,.46v4.25c0,.17,.07,.34,.2,.46,.12,.12,.3,.19,.47,.19h5.21c.18,0,.35-.07,.47-.19,.12-.12,.2-.29,.2-.46v-4.25c0-.17-.07-.34-.2-.46"/><path class="h" d="M22.44,38.55h-3.87v-2.94h3.87v2.94Zm1.14-4.06c-.12-.12-.3-.19-.47-.19h-5.21c-.18,0-.35,.07-.47,.19-.12,.12-.2,.29-.2,.46v4.25c0,.17,.07,.34,.2,.46,.12,.12,.3,.19,.47,.19h5.21c.18,0,.35-.07,.47-.19,.12-.12,.19-.29,.19-.46v-4.25c0-.17-.07-.34-.19-.46"/><path class="h" d="M22.44,45.77h-3.87v-2.94h3.87v2.94Zm1.14-4.06c-.12-.12-.3-.19-.47-.19h-5.21c-.18,0-.35,.07-.47,.19-.12,.12-.2,.29-.2,.46v4.25c0,.17,.07,.34,.2,.46,.12,.12,.3,.19,.47,.19h5.21c.18,0,.35-.07,.47-.19,.12-.12,.19-.29,.19-.46v-4.25c0-.17-.07-.34-.19-.46"/><path class="h" d="M29.45,31.33h-1.38v-2.94h3.87v.22c.42-.31,.87-.57,1.34-.81v-.07c0-.17-.07-.34-.2-.46-.12-.12-.3-.19-.47-.19h-5.21c-.18,0-.35,.07-.47,.19-.12,.12-.2,.29-.2,.46v4.25c0,.17,.07,.34,.2,.46,.12,.12,.3,.19,.47,.19h1.4c.18-.46,.4-.89,.65-1.31"/><path class="h" d="M22.44,31.33h-3.87v-2.94h3.87v2.94Zm1.14-4.06c-.12-.12-.3-.19-.47-.19h-5.21c-.18,0-.35,.07-.47,.19-.12,.12-.2,.29-.2,.46v4.25c0,.17,.07,.34,.2,.46,.12,.12,.3,.19,.47,.19h5.21c.18,0,.35-.07,.47-.19,.12-.12,.19-.29,.19-.46v-4.25c0-.17-.07-.34-.19-.46"/><path class="j" d="M36.82,43.47c-4.14,0-7.5-3.36-7.5-7.5s3.36-7.5,7.5-7.5,7.5,3.36,7.5,7.5-3.36,7.5-7.5,7.5m0-16.45c-4.94,0-8.95,4.02-8.95,8.95s4.02,8.95,8.95,8.95,8.95-4.02,8.95-8.95-4.02-8.95-8.95-8.95"/><path class="j" d="M7.91,23.73h25.18c.37,0,.67-.29,.67-.65s-.3-.66-.67-.66H7.91c-.37,0-.67,.29-.67,.66s.3,.65,.67,.65"/><path class="j" d="M8.19,10.27h24.62v7.94H8.19v-7.94Zm25.28,9.25c.18,0,.35-.07,.47-.19,.12-.12,.19-.29,.19-.46V9.62c0-.17-.07-.34-.19-.46-.12-.12-.3-.19-.47-.19H7.52c-.18,0-.35,.07-.47,.19-.12,.12-.2,.29-.2,.46v9.25c0,.17,.07,.34,.2,.46,.12,.12,.3,.19,.47,.19h25.95Z"/><path class="j" d="M27.4,47.08h5.21c.17,0,.35-.07,.47-.19,.12-.12,.2-.29,.2-.46v-2.22c-.47-.23-.92-.5-1.34-.8v2.37h-3.87v-10.16h.1c.02-.44,.06-.88,.15-1.31h-.92c-.18,0-.35,.07-.47,.19-.12,.12-.2,.29-.2,.46v11.47c0,.17,.07,.34,.2,.46,.12,.12,.3,.19,.47,.19"/><path class="h" d="M39.98,36.98c-.49-.91-1.62-1.44-3.16-1.44-1.03,0-1.83-.3-2.09-.79-.12-.23-.1-.49,.05-.72,.35-.52,1.18-.75,2.23-.64,.59,.07,1.2,.27,1.91,.51l.13,.04c.32,.11,.66-.07,.77-.39,.11-.32-.07-.66-.39-.77l-.13-.04c-.61-.2-1.24-.41-1.88-.52v-1.41c0-.34-.27-.61-.61-.61s-.61,.27-.61,.61v1.35c-1.08,.07-1.96,.49-2.43,1.18-.41,.61-.46,1.34-.12,1.97,.48,.91,1.64,1.43,3.2,1.43,1,0,1.78,.3,2.04,.79,.13,.24,.11,.5-.05,.73-.34,.5-1.16,.73-2.19,.61-.59-.07-1.22-.28-1.89-.5l-.14-.05c-.15-.05-.32-.04-.47,.03-.15,.07-.25,.2-.31,.35-.05,.15-.04,.32,.03,.46,.07,.15,.2,.25,.35,.3l.14,.05c.56,.19,1.19,.4,1.83,.51v1.42c0,.34,.27,.61,.61,.61s.61-.27,.61-.61v-1.34c1.09-.06,1.96-.48,2.43-1.17,.41-.61,.46-1.35,.12-1.99"/><path class="h" d="M48.41,31.44c-.07,.34-.41,.57-.76,.49-.34-.07-.56-.41-.49-.76,.07-.35,.41-.57,.76-.49,.34,.07,.57,.41,.49,.76"/><path class="h" d="M39.9,24.13c3.13,.66,5.81,2.51,7.55,5.21,.17,.26,.09,.61-.17,.78-.13,.09-.28,.11-.42,.08-.14-.03-.28-.11-.36-.25-1.58-2.44-4-4.12-6.83-4.71-.31-.06-.5-.37-.44-.67,.06-.31,.37-.5,.67-.44"/><path class="j" d="M36.82,43.47c-.37,0-.73-.04-1.09-.09v5.3c0,.77-.63,1.41-1.41,1.41H6.68c-.77,0-1.41-.63-1.41-1.41V8.15c0-.77,.64-1.41,1.41-1.41h27.65c.77,0,1.41,.64,1.41,1.41V28.56c.36-.05,.72-.09,1.09-.09,.2,0,.4,.01,.6,.03V8.15c0-1.71-1.39-3.1-3.1-3.1H6.68c-1.71,0-3.1,1.39-3.1,3.1V48.68c0,1.71,1.39,3.1,3.1,3.1H29.48s.05,.08,.08,.12h2.15s-.08-.08-.11-.12h2.74c1.71,0,3.1-1.39,3.1-3.1v-5.24c-.2,.02-.4,.03-.6,.03"/></g><rect class="i" x="8.19" y="10.27" width="24.62" height="7.94"/></g></g></g></svg>