<?xml version="1.0" encoding="UTF-8"?><svg xmlns="http://www.w3.org/2000/svg" xmlns:xlink="http://www.w3.org/1999/xlink" viewBox="0 0 63.89 63.89"><defs><style>.g{fill:none;}.h{fill:#00529b;}.i{fill:#fff;}.j{fill:#7dc048;}.k{fill:#cce0f2;}.l{fill:#daecf6;}.m{clip-path:url(#f);}</style><clipPath id="f"><rect class="g" width="63.89" height="63.89"/></clipPath></defs><g id="a"/><g id="b"><g id="c"><g id="d"><g id="e"><g><g class="m"><g><path class="k" d="M63.89,31.95c0,17.64-14.31,31.95-31.95,31.95S0,49.59,0,31.95,14.31,0,31.95,0s31.95,14.31,31.95,31.95"/><path class="i" d="M43.99,53.41v6.52c0,.95-.79,1.74-1.74,1.74H8.22c-.95,0-1.74-.79-1.74-1.74V10.03c0-.96,.78-1.74,1.74-1.74H42.26c.95,0,1.74,.78,1.74,1.74V53.41h-.01Z"/><path class="i" d="M45.33,53.52c-5.1,0-9.23-4.14-9.23-9.23s4.14-9.23,9.23-9.23,9.23,4.14,9.23,9.23-4.14,9.23-9.23,9.23"/><path class="j" d="M15.92,38.57h-4.76v-3.62h4.76v3.62Zm1.4-5c-.15-.15-.37-.23-.58-.23h-6.41c-.22,0-.43,.09-.58,.23-.15,.15-.25,.36-.25,.57v5.23c0,.21,.09,.42,.25,.57,.15,.15,.37,.23,.58,.23h6.41c.22,0,.43-.09,.58-.23s.25-.36,.25-.57v-5.23c0-.21-.09-.42-.25-.57"/><path class="j" d="M15.92,47.46h-4.76v-3.62h4.76v3.62Zm1.4-5c-.15-.15-.37-.23-.58-.23h-6.41c-.22,0-.43,.09-.58,.23-.15,.15-.25,.36-.25,.57v5.23c0,.21,.09,.42,.25,.57,.15,.15,.37,.23,.58,.23h6.41c.22,0,.43-.09,.58-.23s.25-.36,.25-.57v-5.23c0-.21-.09-.42-.25-.57"/><path class="j" d="M15.92,56.35h-4.76v-3.62h4.76v3.62Zm1.4-5c-.15-.15-.37-.23-.58-.23h-6.41c-.22,0-.43,.09-.58,.23-.15,.15-.25,.36-.25,.57v5.23c0,.21,.09,.42,.25,.57,.15,.15,.37,.23,.58,.23h6.41c.22,0,.43-.09,.58-.23s.25-.36,.25-.57v-5.23c0-.21-.09-.42-.25-.57"/><path class="j" d="M27.63,47.46h-4.76v-3.62h4.76v3.62Zm1.4-5c-.15-.15-.37-.23-.58-.23h-6.41c-.22,0-.43,.09-.58,.23-.15,.15-.25,.36-.25,.57v5.23c0,.21,.09,.42,.25,.57,.15,.15,.37,.23,.58,.23h6.41c.22,0,.43-.09,.58-.23,.15-.15,.23-.36,.23-.57v-5.23c0-.21-.09-.42-.23-.57"/><path class="j" d="M27.63,56.35h-4.76v-3.62h4.76v3.62Zm1.4-5c-.15-.15-.37-.23-.58-.23h-6.41c-.22,0-.43,.09-.58,.23-.15,.15-.25,.36-.25,.57v5.23c0,.21,.09,.42,.25,.57,.15,.15,.37,.23,.58,.23h6.41c.22,0,.43-.09,.58-.23,.15-.15,.23-.36,.23-.57v-5.23c0-.21-.09-.42-.23-.57"/><path class="j" d="M36.26,38.57h-1.7v-3.62h4.76v.27c.52-.38,1.07-.7,1.65-1v-.09c0-.21-.09-.42-.25-.57-.15-.15-.37-.23-.58-.23h-6.41c-.22,0-.43,.09-.58,.23-.15,.15-.25,.36-.25,.57v5.23c0,.21,.09,.42,.25,.57,.15,.15,.37,.23,.58,.23h1.72c.22-.57,.49-1.1,.8-1.61"/><path class="j" d="M27.63,38.57h-4.76v-3.62h4.76v3.62Zm1.4-5c-.15-.15-.37-.23-.58-.23h-6.41c-.22,0-.43,.09-.58,.23-.15,.15-.25,.36-.25,.57v5.23c0,.21,.09,.42,.25,.57,.15,.15,.37,.23,.58,.23h6.41c.22,0,.43-.09,.58-.23,.15-.15,.23-.36,.23-.57v-5.23c0-.21-.09-.42-.23-.57"/><path class="h" d="M45.33,53.52c-5.1,0-9.23-4.14-9.23-9.23s4.14-9.23,9.23-9.23,9.23,4.14,9.23,9.23-4.14,9.23-9.23,9.23m0-20.25c-6.08,0-11.02,4.95-11.02,11.02s4.95,11.02,11.02,11.02,11.02-4.95,11.02-11.02-4.95-11.02-11.02-11.02"/><path class="h" d="M9.74,29.21h31c.46,0,.82-.36,.82-.8s-.37-.81-.82-.81H9.74c-.46,0-.82,.36-.82,.81s.37,.8,.82,.8"/><path class="h" d="M10.08,12.64h30.31v9.78H10.08V12.64Zm31.12,11.39c.22,0,.43-.09,.58-.23,.15-.15,.23-.36,.23-.57V11.84c0-.21-.09-.42-.23-.57s-.37-.23-.58-.23H9.26c-.22,0-.43,.09-.58,.23s-.25,.36-.25,.57v11.39c0,.21,.09,.42,.25,.57,.15,.15,.37,.23,.58,.23h31.95Z"/><path class="h" d="M33.73,57.96h6.41c.21,0,.43-.09,.58-.23,.15-.15,.25-.36,.25-.57v-2.73c-.58-.28-1.13-.62-1.65-.98v2.92h-4.76v-12.51h.12c.02-.54,.07-1.08,.18-1.61h-1.13c-.22,0-.43,.09-.58,.23-.15,.15-.25,.36-.25,.57v14.12c0,.21,.09,.42,.25,.57,.15,.15,.37,.23,.58,.23"/><path class="j" d="M49.22,45.53c-.6-1.12-1.99-1.77-3.89-1.77-1.27,0-2.25-.37-2.57-.97-.15-.28-.12-.6,.06-.89,.43-.64,1.45-.92,2.75-.79,.73,.09,1.48,.33,2.35,.63l.16,.05c.39,.14,.81-.09,.95-.48s-.09-.81-.48-.95l-.16-.05c-.75-.25-1.53-.5-2.31-.64v-1.74c0-.42-.33-.75-.75-.75s-.75,.33-.75,.75v1.66c-1.33,.09-2.41,.6-2.99,1.45-.5,.75-.57,1.65-.15,2.43,.59,1.12,2.02,1.76,3.94,1.76,1.23,0,2.19,.37,2.51,.97,.16,.3,.14,.62-.06,.9-.42,.62-1.43,.9-2.7,.75-.73-.09-1.5-.34-2.33-.62l-.17-.06c-.18-.06-.39-.05-.58,.04s-.31,.25-.38,.43c-.06,.18-.05,.39,.04,.57,.09,.18,.25,.31,.43,.37l.17,.06c.69,.23,1.47,.49,2.25,.63v1.75c0,.42,.33,.75,.75,.75s.75-.33,.75-.75v-1.65c1.34-.07,2.41-.59,2.99-1.44,.5-.75,.57-1.66,.15-2.45"/><path class="j" d="M59.6,38.71c-.09,.42-.5,.7-.94,.6-.42-.09-.69-.5-.6-.94s.5-.7,.94-.6c.42,.09,.7,.5,.6,.94"/><path class="j" d="M49.12,29.71c3.85,.81,7.15,3.09,9.29,6.41,.21,.32,.11,.75-.21,.96-.16,.11-.34,.14-.52,.1s-.34-.14-.44-.31c-1.95-3-4.92-5.07-8.41-5.8-.38-.07-.62-.46-.54-.82,.07-.38,.46-.62,.82-.54"/><path class="h" d="M45.33,53.52c-.46,0-.9-.05-1.34-.11v6.52c0,.95-.78,1.74-1.74,1.74H8.22c-.95,0-1.74-.78-1.74-1.74V10.03c0-.95,.79-1.74,1.74-1.74H42.26c.95,0,1.74,.79,1.74,1.74v25.13c.44-.06,.89-.11,1.34-.11,.25,0,.49,.01,.74,.04V10.03c0-2.11-1.71-3.82-3.82-3.82H8.22c-2.11,0-3.82,1.71-3.82,3.82V59.93c0,2.11,1.71,3.82,3.82,3.82H42.28c2.11,0,3.82-1.71,3.82-3.82v-6.45c-.25,.02-.49,.04-.74,.04"/></g></g><rect class="l" x="10.08" y="12.64" width="30.31" height="9.78"/></g></g></g></g></g></svg>