<?xml version="1.0" encoding="UTF-8"?><svg id="Layer_2" xmlns="http://www.w3.org/2000/svg" xmlns:xlink="http://www.w3.org/1999/xlink" viewBox="0 0 68.77 70"><defs><style>.cls-1{clip-path:url(#clippath);}.cls-2,.cls-3,.cls-4,.cls-5{fill:none;}.cls-2,.cls-6,.cls-7,.cls-8{stroke-width:0px;}.cls-9{clip-path:url(#clippath-1);}.cls-10{clip-path:url(#clippath-2);}.cls-3{stroke-linecap:round;}.cls-3,.cls-4{stroke-miterlimit:10;}.cls-3,.cls-4,.cls-5{stroke-width:2px;}.cls-3,.cls-5{stroke:#337894;}.cls-4{stroke:#ffbf0f;}.cls-5{stroke-linejoin:round;}.cls-6{fill:#6bcce5;}.cls-7{fill:#fff;}.cls-8{fill:#fff0b2;}</style><clipPath id="clippath"><rect class="cls-2" width="68.77" height="70"/></clipPath><clipPath id="clippath-1"><rect class="cls-2" width="68.77" height="70"/></clipPath><clipPath id="clippath-2"><rect class="cls-2" width="68.77" height="70"/></clipPath></defs><g id="Layer_1-2"><g class="cls-1"><path class="cls-8" d="m68.77,37.42c0,17.63-14.3,31.93-31.93,31.93S4.91,55.06,4.91,37.42,19.21,5.49,36.84,5.49s31.93,14.29,31.93,31.93"/><path class="cls-7" d="m42.98,1.23c-10.85,0-19.65,8.8-19.65,19.65s8.8,19.65,19.65,19.65,19.65-8.8,19.65-19.65S53.83,1.23,42.98,1.23"/><path class="cls-5" d="m62.63,20.88h-6.52c.63.69,1.3,1.6,1.3,2.61,0,2.16-1.75,3.91-3.91,3.91s-3.91-1.75-3.91-3.91c0-1.01.68-1.92,1.3-2.61h-7.91m0,0v7.91c-.69-.62-1.6-1.3-2.61-1.3-2.16,0-3.91,1.75-3.91,3.91s1.75,3.91,3.91,3.91c1.01,0,1.92-.68,2.61-1.3v3.42"/><path class="cls-6" d="m23.33,20.88h7.91c-.62-.69-1.3-1.6-1.3-2.61,0-2.16,1.75-3.91,3.91-3.91s3.91,1.75,3.91,3.91c0,1.01-.68,1.92-1.3,2.61h6.52v-6.52c.69.63,1.6,1.3,2.61,1.3,2.16,0,3.91-1.75,3.91-3.91s-1.75-3.91-3.91-3.91c-1.01,0-1.92.68-2.61,1.3V1.23c-10.85,0-19.65,8.8-19.65,19.65"/><path class="cls-5" d="m28.61,34.27c-3.27-3.51-5.27-8.22-5.27-13.4,0-10.85,8.8-19.65,19.65-19.65s19.65,8.8,19.65,19.65c0,2.76-.57,5.39-1.6,7.77m-37.7-7.77h7.91c-.62-.69-1.3-1.6-1.3-2.61,0-2.16,1.75-3.91,3.91-3.91s3.91,1.75,3.91,3.91c0,1.01-.68,1.92-1.3,2.61h6.52m0,0v-6.52c.69.63,1.6,1.3,2.61,1.3,2.16,0,3.91-1.75,3.91-3.91s-1.75-3.91-3.91-3.91c-1.01,0-1.92.68-2.61,1.3V1.23"/><path class="cls-7" d="m54.65,39.28l-7.22,3.43-.4.15c-.51-.91-1.38-1.52-2.6-1.52h-7.37c-1.69,0-4.26-2.46-6.29-2.46h-7.22c-2.97,0-5.62,2.43-7.12,3.82-2.31,2.31-6.95,6.97-6.95,6.97l11.29,11.3c1.84-1.84,4.02-3.67,5.9-3.67h14.74c2.3,0,4.59-.71,6.22-2.33l12.22-12.22,3.47-8.68c-2.12-2.12-6.95.14-8.68,5.21"/><path class="cls-3" d="m31.93,47.89h12.83c2.03,0,3.13-1.6,3.13-3.64v-.02c0-2.03-1.1-3.71-3.13-3.71h-7.37c-1.69,0-4.26-2.46-6.29-2.46h-7.22c-2.97,0-5.62,2.43-7.11,3.82-2.31,2.31-6.95,6.97-6.95,6.97l11.29,11.3c1.85-1.84,4.02-3.67,5.9-3.67h14.74c2.3,0,4.59-.71,6.22-2.33l12.22-12.22,3.47-8.68c-2.12-2.12-6.95.14-8.68,5.21l-7.22,3.43"/></g><rect class="cls-6" x="7.68" y="45.82" width="10.42" height="22.58" transform="translate(-36.6 25.84) rotate(-45)"/><g class="cls-9"><rect class="cls-5" x="7.68" y="45.82" width="10.42" height="22.58" transform="translate(-36.6 25.84) rotate(-45)"/></g><line class="cls-3" x1="10.55" y1="54.65" x2="8.09" y2="52.19"/><g class="cls-10"><path class="cls-4" d="m10.55,14.31l-2.46,2.46m-3.68,3.68l-2.46,2.46m0-8.6l2.46,2.46m3.68,3.68l2.46,2.46m-1.23,7.37h2.46m2.46,0h2.46m-3.68,1.23v2.46m0-7.37v2.46m-2.46-14.74l-2.46,2.46m-3.68,3.68l-2.46,2.46m0-8.6l2.46,2.46m3.68,3.68l2.46,2.46m-1.23,7.37h2.46m2.46,0h2.46m-3.68,1.23v2.46m0-7.37v2.46"/></g></g></svg>