<?xml version="1.0" encoding="UTF-8"?><svg id="Layer_2" xmlns="http://www.w3.org/2000/svg" viewBox="0 0 71.98 72"><defs><style>.cls-1{stroke-linecap:round;}.cls-1,.cls-2{stroke-miterlimit:10;}.cls-1,.cls-2,.cls-3{fill:none;stroke-width:2px;}.cls-1,.cls-3{stroke:#00529b;}.cls-2{stroke:#7dbe47;}.cls-3{stroke-linejoin:round;}.cls-4{fill:#cce0f2;}.cls-4,.cls-5,.cls-6{stroke-width:0px;}.cls-5{fill:#7dbe47;}.cls-6{fill:#fff;}</style></defs><g id="Layer_1-2"><path class="cls-4" d="m71.98,37.91c0,18.28-14.82,33.09-33.09,33.09S5.8,56.18,5.8,37.91,20.61,4.82,38.89,4.82s33.09,14.82,33.09,33.09"/><path class="cls-6" d="m45.25,1c-11.25,0-20.36,9.12-20.36,20.36s9.12,20.36,20.36,20.36,20.36-9.12,20.36-20.36S56.5,1,45.25,1"/><path class="cls-3" d="m65.62,21.36h-6.76c.65.72,1.35,1.66,1.35,2.7,0,2.24-1.81,4.05-4.05,4.05s-4.05-1.81-4.05-4.05c0-1.04.71-1.99,1.35-2.7h-8.2m0,0v8.2c-.72-.65-1.66-1.35-2.7-1.35-2.24,0-4.05,1.81-4.05,4.05s1.81,4.05,4.05,4.05c1.04,0,1.99-.7,2.7-1.35v3.54"/><path class="cls-5" d="m24.89,21.36h8.2c-.65-.72-1.35-1.66-1.35-2.7,0-2.24,1.81-4.05,4.05-4.05s4.05,1.81,4.05,4.05c0,1.04-.7,1.99-1.35,2.7h6.76v-6.76c.72.65,1.66,1.35,2.7,1.35,2.24,0,4.05-1.81,4.05-4.05s-1.81-4.05-4.05-4.05c-1.04,0-1.99.71-2.7,1.35V1c-11.25,0-20.36,9.12-20.36,20.36"/><path class="cls-3" d="m30.36,35.25c-3.39-3.64-5.47-8.52-5.47-13.88,0-11.25,9.12-20.36,20.36-20.36s20.36,9.12,20.36,20.36c0,2.86-.59,5.58-1.66,8.06m-39.07-8.06h8.2c-.65-.72-1.35-1.66-1.35-2.7,0-2.24,1.81-4.05,4.05-4.05s4.05,1.81,4.05,4.05c0,1.04-.7,1.99-1.35,2.7h6.76m0,0v-6.76c.72.65,1.66,1.35,2.7,1.35,2.24,0,4.05-1.81,4.05-4.05s-1.81-4.05-4.05-4.05c-1.04,0-1.99.71-2.7,1.35V1"/><path class="cls-6" d="m57.69,39.59l-7.49,3.55-.41.16c-.53-.95-1.43-1.57-2.69-1.57h-7.64c-1.75,0-4.41-2.55-6.52-2.55h-7.48c-3.08,0-5.83,2.52-7.37,3.96-2.39,2.39-7.2,7.22-7.2,7.22l11.7,11.71c1.91-1.91,4.16-3.81,6.12-3.81h15.27c2.38,0,4.76-.73,6.44-2.42l12.66-12.66,3.6-9c-2.19-2.19-7.2.15-9,5.4"/><path class="cls-1" d="m33.8,49.36h13.3c2.11,0,3.25-1.66,3.25-3.77v-.02c0-2.11-1.14-3.84-3.25-3.84h-7.64c-1.75,0-4.41-2.55-6.52-2.55h-7.48c-3.08,0-5.82,2.52-7.37,3.96-2.39,2.39-7.2,7.22-7.2,7.22l11.7,11.71c1.91-1.91,4.16-3.81,6.12-3.81h15.27c2.38,0,4.76-.73,6.44-2.42l12.66-12.66,3.6-9c-2.19-2.19-7.2.15-9,5.4l-7.49,3.55"/><rect class="cls-5" x="8.67" y="47.21" width="10.8" height="23.4" transform="translate(-37.53 27.2) rotate(-45)"/><rect class="cls-3" x="8.67" y="47.21" width="10.8" height="23.4" transform="translate(-37.53 27.2) rotate(-45)"/><line class="cls-1" x1="11.64" y1="56.36" x2="9.09" y2="53.81"/><path class="cls-2" d="m9.62,9.91l-2.55,2.55m-3.82,3.82l-2.55,2.55m0-8.91l2.55,2.55m3.82,3.82l2.55,2.55m1.27,7.64h2.55m2.55,0h2.55m-3.82,1.27v2.55m0-7.64v2.55"/></g></svg>