<?xml version="1.0" encoding="UTF-8"?>
<svg width="22px" height="22px" viewBox="0 0 22 22" version="1.1" xmlns="http://www.w3.org/2000/svg" xmlns:xlink="http://www.w3.org/1999/xlink">
    <!-- Generator: Sketch 53.2 (72643) - https://sketchapp.com -->
    <title>noun_161963_cc</title>
    <desc>Created with Sketch.</desc>
    <g id="Phase-2---Title-Setup" stroke="none" stroke-width="1" fill="none" fill-rule="evenodd">
        <g id="Platform" transform="translate(-408.000000, -590.000000)">
            <g id="noun_161963_cc" transform="translate(408.000000, 590.000000)">
                <g id="Group">
                    <g id="Group-4" fill="#3AAB00" fill-rule="nonzero">
                        <path d="M10.9956,21.9909556 C4.9324,21.9909556 0,17.0583111 0,10.9953556 C0,4.9324 4.9324,0 10.9956,0 C17.0585556,0 21.9907111,4.9324 21.9907111,10.9956 C21.9907111,17.0583111 17.0585556,21.9909556 10.9956,21.9909556 Z M10.9956,2.14524444 C6.11575556,2.14524444 2.14524444,6.11551111 2.14524444,10.9953556 C2.14524444,15.8747111 6.11551111,19.8452222 10.9956,19.8452222 C15.8749556,19.8452222 19.8454667,15.8747111 19.8454667,10.9953556 C19.8454667,6.11575556 15.8749556,2.14524444 10.9956,2.14524444 Z" id="Shape"></path>
                        <path d="M9.37591111,15.3105333 C9.1014,15.3105333 8.82664444,15.2056667 8.61715556,14.9964222 C8.19817778,14.5776889 8.19817778,13.8978889 8.61715556,13.4796444 L15.1010444,6.99477778 C15.5197778,6.5758 16.1988444,6.5758 16.6178222,6.99477778 C17.0368,7.41351111 17.0368,8.09257778 16.6178222,8.5118 L10.1341778,14.9964222 C9.92468889,15.2056667 9.65042222,15.3105333 9.37591111,15.3105333 Z" id="Shape"></path>
                        <path d="M9.37493333,15.3105333 C9.10042222,15.3105333 8.82566667,15.2056667 8.61642222,14.9964222 L5.37435556,11.7548444 C4.95513333,11.3366 4.95513333,10.6570444 5.37435556,10.2383111 C5.79333333,9.81884444 6.47191111,9.81884444 6.89113333,10.2383111 L10.1334444,13.4796444 C10.5521778,13.8978889 10.5521778,14.5772 10.1334444,14.9964222 C9.92371111,15.2056667 9.6492,15.3105333 9.37493333,15.3105333 Z" id="Shape"></path>
                    </g>
                    <g transform="translate(4.888889, 6.600000)"></g>
                </g>
            </g>
        </g>
    </g>
</svg>