<?xml version="1.0" encoding="UTF-8"?>
<svg width="72px" height="83px" viewBox="0 0 72 83" version="1.1" xmlns="http://www.w3.org/2000/svg" xmlns:xlink="http://www.w3.org/1999/xlink">
    <!-- Generator: Sketch 53.2 (72643) - https://sketchapp.com -->
    <title>Group 42</title>
    <desc>Created with Sketch.</desc>
    <g id="Page-1" stroke="none" stroke-width="1" fill="none" fill-rule="evenodd">
        <g id="Assets-Copy-3" transform="translate(-379.000000, -1352.000000)" stroke="#5BAF00" stroke-width="2">
            <g id="Group-42" transform="translate(380.000000, 1354.000000)">
                <g id="Group-15">
                    <path d="M19.0021,6.1953 L7.9181,28.5633 C7.3981,29.6123 7.3561,30.8353 7.8041,31.9173 L26.6401,77.4903 C27.4961,79.5613 29.8701,80.5483 31.9421,79.6913 L49.3051,72.5143 L66.6681,65.3393 C68.7401,64.4823 69.7261,62.1083 68.8691,60.0363 L50.0331,14.4633 C49.5861,13.3813 48.6941,12.5453 47.5851,12.1693 L23.9431,4.1533 C22.0171,3.4993 19.9051,4.3723 19.0021,6.1953 Z" id="Stroke-1"></path>
                    <path d="M31.341,16.5903 C30.337,14.1603 27.554,13.0053 25.124,14.0093 C22.695,15.0133 21.539,17.7973 22.543,20.2263 C23.548,22.6553 26.331,23.8113 28.761,22.8073 C31.191,21.8033 32.346,19.0193 31.341,16.5903 Z" id="Stroke-3"></path>
                    <path d="M33.0734,61.0381 L44.5894,33.2981" id="Stroke-5" stroke-linecap="round"></path>
                    <path d="M32.4357,41.3325 C33.3137,43.4575 32.3027,45.8905 30.1787,46.7695 C28.0547,47.6465 25.6207,46.6365 24.7427,44.5125 C23.8647,42.3875 24.8747,39.9545 26.9987,39.0755 C29.1227,38.1975 31.5577,39.2075 32.4357,41.3325 Z" id="Stroke-7"></path>
                    <path d="M52.9162,49.8262 C53.7942,51.9512 52.7842,54.3842 50.6592,55.2622 C48.5352,56.1402 46.1022,55.1302 45.2242,53.0052 C44.3462,50.8812 45.3552,48.4472 47.4802,47.5692 C49.6042,46.6912 52.0382,47.7012 52.9162,49.8262 Z" id="Stroke-9"></path>
                    <path d="M8.8371,16.792 L1.0241,25.043 C0.2821,25.825 -0.0849,26.889 0.0171,27.961 L4.2651,73.129 C4.4581,75.183 6.2791,76.69 8.3331,76.498 L19.7331,75.426" id="Stroke-11" stroke-linecap="round"></path>
                    <path d="M26.2169,16.1099 C21.2049,7.8209 8.3209,-3.8271 4.5299,1.2289 C1.7589,4.9219 8.4939,10.4379 15.1959,13.8789" id="Stroke-13" stroke-linecap="round"></path>
                </g>
            </g>
        </g>
    </g>
</svg>