<?xml version="1.0" encoding="UTF-8"?>
<svg width="82px" height="71px" viewBox="0 0 82 71" version="1.1" xmlns="http://www.w3.org/2000/svg" xmlns:xlink="http://www.w3.org/1999/xlink">
    <!-- Generator: Sketch 53.2 (72643) - https://sketchapp.com -->
    <title>Group</title>
    <desc>Created with Sketch.</desc>
    <defs>
        <polygon id="path-1" points="0 0.0443350785 81.9439719 0.0443350785 81.9439719 57.9984817 0 57.9984817"></polygon>
        <polygon id="path-3" points="0 71 82 71 82 0 0 0"></polygon>
    </defs>
    <g id="Phase-2---Title-Setup" stroke="none" stroke-width="1" fill="none" fill-rule="evenodd">
        <g id="10.-Add-a-Book" transform="translate(-394.000000, -734.000000)">
            <g id="Group" transform="translate(394.000000, 734.000000)">
                <path d="M41,53 C39.8971488,53 39,52.1027354 39,51.0000746 C39,49.8972646 39.8971488,49 41,49 C42.1028512,49 43,49.8972646 43,51.0000746 C43,52.1027354 42.1028512,53 41,53" id="Fill-1" fill="#A0A2A4"></path>
                <g id="Group-5">
                    <mask id="mask-2" fill="white">
                        <use xlink:href="#path-1"></use>
                    </mask>
                    <g id="Clip-4"></g>
                    <path d="M5.98515817,2.32182199 C3.97444335,2.32182199 2.33834068,3.91515183 2.33834068,5.87363874 L2.33834068,52.1693298 C2.33834068,54.1276649 3.97444335,55.7209948 5.98515817,55.7209948 L75.9587513,55.7209948 C77.9696221,55.7209948 79.6055688,54.1276649 79.6055688,52.1693298 L79.6055688,5.87363874 C79.6055688,3.91515183 77.9696221,2.32182199 75.9587513,2.32182199 L5.98515817,2.32182199 Z M75.9587513,57.9984817 L5.98515817,57.9984817 C2.68489202,57.9984817 -6.23574144e-05,55.383623 -6.23574144e-05,52.1693298 L-6.23574144e-05,5.87363874 C-6.23574144e-05,2.65934555 2.68489202,0.0443350785 5.98515817,0.0443350785 L75.9587513,0.0443350785 C79.2590175,0.0443350785 81.9439719,2.65934555 81.9439719,5.87363874 L81.9439719,52.1693298 C81.9439719,55.383623 79.2590175,57.9984817 75.9587513,57.9984817 L75.9587513,57.9984817 Z" id="Fill-3" fill="#A0A2A4" mask="url(#mask-2)"></path>
                </g>
                <path d="M32.4415823,68.8109364 L50.5552734,68.8109364 L48.7523786,59.1890636 L34.2446355,59.1890636 L32.4415823,68.8109364 Z M51.8912086,71 C51.8899414,70.9998436 51.8886742,70.9998436 51.888199,71 L31.1088151,71 C30.7795041,71 30.4671417,70.8553654 30.2564713,70.6054995 C30.045801,70.3556335 29.9585232,70.0260231 30.0185564,69.7064198 L32.2318624,57.895327 C32.3289608,57.3765189 32.7875252,57 33.3221211,57 L49.6748931,57 C50.2094889,57 50.6678949,57.3765189 50.7651518,57.895327 L52.9627763,69.6227663 C52.9871697,69.7131433 53,69.8077421 53,69.9054682 C53,70.5099625 52.5035783,71 51.8912086,71 L51.8912086,71 Z" id="Fill-6" fill="#A0A2A4"></path>
                <path d="M54.8950799,71 L27.1049201,71 C26.4946885,71 26,70.5522857 26,70 C26,69.4477143 26.4946885,69 27.1049201,69 L54.8950799,69 C55.5053115,69 56,69.4477143 56,70 C56,70.5522857 55.5053115,71 54.8950799,71" id="Fill-8" fill="#A0A2A4"></path>
                <path d="M80.9059185,45 L1.09408148,45 C0.489835907,45 0,44.5522857 0,44 C0,43.4477143 0.489835907,43 1.09408148,43 L80.9059185,43 C81.5101641,43 82,43.4477143 82,44 C82,44.5522857 81.5101641,45 80.9059185,45" id="Fill-10" fill="#A0A2A4"></path>
                <path d="M29.0000801,18.2440842 C28.0317578,18.2440842 27.2440842,19.0317578 27.2440842,20.0000801 C27.2440842,20.9682422 28.0317578,21.7559158 29.0000801,21.7559158 C29.9682422,21.7559158 30.7559158,20.9682422 30.7559158,20.0000801 C30.7559158,19.0317578 29.9682422,18.2440842 29.0000801,18.2440842 M29.0000801,24 C26.7943056,24 25,22.2056944 25,20.0000801 C25,17.7943056 26.7943056,16 29.0000801,16 C31.2056944,16 33,17.7943056 33,20.0000801 C33,22.2056944 31.2056944,24 29.0000801,24" id="Fill-12" fill="#A0A2A4"></path>
                <path d="M22.4597075,35.8160321 L52.7440107,35.8160321 L42.6000864,21.8907407 L35.0451426,31.1769723 C34.6798524,31.6259337 34.024502,31.7161003 33.5498293,31.3817973 L28.9398704,28.1379809 L22.4597075,35.8160321 Z M54.8982942,38 L20.101768,38 C19.6738387,38 19.284626,37.7544596 19.1036335,37.3702373 C18.9224835,36.9860149 18.9821324,36.5326856 19.2566115,36.2074303 L27.9028618,25.9630609 C28.2716144,25.5261113 28.917207,25.4437445 29.3855842,25.7732117 L33.9802768,29.0064202 L41.7908136,19.4063213 C42.0064309,19.1414371 42.3298567,18.9929273 42.6778345,19.0002592 C43.0212482,19.0093071 43.340582,19.1765366 43.5415625,19.4524966 L55.7914531,36.2687374 C56.0336683,36.6011686 56.0675061,37.0401461 55.8792738,37.4053367 C55.6907268,37.7702154 55.3120589,38 54.8982942,38 L54.8982942,38 Z" id="Fill-14" fill="#A0A2A4"></path>
                <mask id="mask-4" fill="white">
                    <use xlink:href="#path-3"></use>
                </mask>
                <g id="Clip-17"></g>
                <path d="M9.3558051,28.6895233 L12.6441949,28.6895233 L12.6441949,9.3103227 L9.3558051,9.3103227 L9.3558051,28.6895233 Z M13.8220975,31 L8.17790255,31 C7.52722918,31 7,30.4829153 7,29.8447616 L7,8.15523836 C7,7.51708469 7.52722918,7 8.17790255,7 L13.8220975,7 C14.4727708,7 15,7.51708469 15,8.15523836 L15,29.8447616 C15,30.4829153 14.4727708,31 13.8220975,31 L13.8220975,31 Z" id="Fill-16" fill="#A0A2A4" mask="url(#mask-4)"></path>
                <path d="M61.3455596,35.7228765 L72.6544404,35.7228765 L72.6544404,9.27712348 L61.3455596,9.27712348 L61.3455596,35.7228765 Z M73.8272202,38 L60.1727798,38 C59.5249362,38 59,37.490228 59,36.8614383 L59,8.13856174 C59,7.50962023 59.5249362,7 60.1727798,7 L73.8272202,7 C74.4750638,7 75,7.50962023 75,8.13856174 L75,36.8614383 C75,37.490228 74.4750638,38 73.8272202,38 L73.8272202,38 Z" id="Fill-18" fill="#A0A2A4" mask="url(#mask-4)"></path>
                <path d="M60.8230019,9 L14.1769981,9 C13.5268243,9 13,8.5524 13,8 C13,7.4476 13.5268243,7 14.1769981,7 L60.8230019,7 C61.4731757,7 62,7.4476 62,8 C62,8.5524 61.4731757,9 60.8230019,9" id="Fill-19" fill="#A0A2A4" mask="url(#mask-4)"></path>
                <path d="M21,12 C20.4476,12 20,11.4898176 20,10.8601824 L20,8.13981763 C20,7.51018237 20.4476,7 21,7 C21.5524,7 22,7.51018237 22,8.13981763 L22,10.8601824 C22,11.4898176 21.5524,12 21,12" id="Fill-20" fill="#A0A2A4" mask="url(#mask-4)"></path>
                <path d="M25,12 C24.4476,12 24,11.4898176 24,10.8601824 L24,8.13981763 C24,7.51018237 24.4476,7 25,7 C25.5524,7 26,7.51018237 26,8.13981763 L26,10.8601824 C26,11.4898176 25.5524,12 25,12" id="Fill-21" fill="#A0A2A4" mask="url(#mask-4)"></path>
                <path d="M31,12 C30.4476,12 30,11.4898176 30,10.8601824 L30,8.13981763 C30,7.51018237 30.4476,7 31,7 C31.5524,7 32,7.51018237 32,8.13981763 L32,10.8601824 C32,11.4898176 31.5524,12 31,12" id="Fill-22" fill="#A0A2A4" mask="url(#mask-4)"></path>
                <path d="M37,12 C36.4476,12 36,11.4898176 36,10.8601824 L36,8.13981763 C36,7.51018237 36.4476,7 37,7 C37.5524,7 38,7.51018237 38,8.13981763 L38,10.8601824 C38,11.4898176 37.5524,12 37,12" id="Fill-23" fill="#A0A2A4" mask="url(#mask-4)"></path>
                <path d="M42,12 C41.4476,12 41,11.4898176 41,10.8601824 L41,8.13981763 C41,7.51018237 41.4476,7 42,7 C42.5524,7 43,7.51018237 43,8.13981763 L43,10.8601824 C43,11.4898176 42.5524,12 42,12" id="Fill-24" fill="#A0A2A4" mask="url(#mask-4)"></path>
                <path d="M49,12 C48.4476,12 48,11.4898176 48,10.8601824 L48,8.13981763 C48,7.51018237 48.4476,7 49,7 C49.5524,7 50,7.51018237 50,8.13981763 L50,10.8601824 C50,11.4898176 49.5524,12 49,12" id="Fill-25" fill="#A0A2A4" mask="url(#mask-4)"></path>
                <path d="M54,12 C53.4476,12 53,11.4898176 53,10.8601824 L53,8.13981763 C53,7.51018237 53.4476,7 54,7 C54.5524,7 55,7.51018237 55,8.13981763 L55,10.8601824 C55,11.4898176 54.5524,12 54,12" id="Fill-26" fill="#A0A2A4" mask="url(#mask-4)"></path>
                <path d="M68.7944706,15 L65.2055294,15 C64.5395949,15 64,14.5524 64,14 C64,13.4476 64.5395949,13 65.2055294,13 L68.7944706,13 C69.4604051,13 70,13.4476 70,14 C70,14.5524 69.4604051,15 68.7944706,15" id="Fill-27" fill="#A0A2A4" mask="url(#mask-4)"></path>
                <path d="M68.7944706,18 L65.2055294,18 C64.5395949,18 64,17.5524 64,17 C64,16.4476 64.5395949,16 65.2055294,16 L68.7944706,16 C69.4604051,16 70,16.4476 70,17 C70,17.5524 69.4604051,18 68.7944706,18" id="Fill-28" fill="#A0A2A4" mask="url(#mask-4)"></path>
                <path d="M68.7944706,21 L65.2055294,21 C64.5395949,21 64,20.5524 64,20 C64,19.4476 64.5395949,19 65.2055294,19 L68.7944706,19 C69.4604051,19 70,19.4476 70,20 C70,20.5524 69.4604051,21 68.7944706,21" id="Fill-29" fill="#A0A2A4" mask="url(#mask-4)"></path>
                <path d="M68.7944706,25 L65.2055294,25 C64.5395949,25 64,24.5524 64,24 C64,23.4476 64.5395949,23 65.2055294,23 L68.7944706,23 C69.4604051,23 70,23.4476 70,24 C70,24.5524 69.4604051,25 68.7944706,25" id="Fill-30" fill="#A0A2A4" mask="url(#mask-4)"></path>
                <path d="M31.1610189,34 C30.9089071,34 30.6549695,33.9285284 30.4418612,33.7810819 C29.9383014,33.4331662 29.8523278,32.7935534 30.2501632,32.352957 L32.9264657,29.3867398 C33.3239692,28.9459982 34.054911,28.8707496 34.5581388,29.2189558 C35.0616986,29.5668715 35.1476722,30.2064843 34.7498368,30.6470807 L32.0735343,33.6132979 C31.8443266,33.867516 31.5042495,34 31.1610189,34" id="Fill-31" fill="#A0A2A4" mask="url(#mask-4)"></path>
            </g>
        </g>
    </g>
</svg>