<?xml version="1.0" encoding="UTF-8"?>
<svg width="142px" height="55px" viewBox="0 0 142 55" version="1.1" xmlns="http://www.w3.org/2000/svg" xmlns:xlink="http://www.w3.org/1999/xlink">
    <!-- Generator: Sketch 53.2 (72643) - https://sketchapp.com -->
    <title>Group 9</title>
    <desc>Created with Sketch.</desc>
    <g id="Phase-2---Title-Setup" stroke="none" stroke-width="1" fill="none" fill-rule="evenodd">
        <g id="10.-Add-a-Book-Copy-3" transform="translate(-828.000000, -1196.000000)">
            <g id="Group-9" transform="translate(828.000000, 1197.000000)">
                <g id="Group-Copy-6" transform="translate(0.000000, 1.000000)" fill="#3AAB00">
                    <path d="M30.5,38.5209424 C29.6728616,38.5209424 29,37.8479939 29,37.0209984 C29,36.1938909 29.6728616,35.5209424 30.5,35.5209424 C31.3271384,35.5209424 32,36.1938909 32,37.0209984 C32,37.8479939 31.3271384,38.5209424 30.5,38.5209424" id="Fill-1"></path>
                    <g id="Group-5" transform="translate(0.000000, 0.520942)">
                        <path d="M4.45237376,1.68131937 C2.9565981,1.68131937 1.73949734,2.83510995 1.73949734,4.25332461 L1.73949734,37.7777906 C1.73949734,39.1958953 2.9565981,40.3496859 4.45237376,40.3496859 L56.5059004,40.3496859 C58.001792,40.3496859 59.2187768,39.1958953 59.2187768,37.7777906 L59.2187768,4.25332461 C59.2187768,2.83510995 58.001792,1.68131937 56.5059004,1.68131937 L4.45237376,1.68131937 Z M56.5059004,41.9989005 L4.45237376,41.9989005 C1.99729772,41.9989005 -4.63878327e-05,40.1053822 -4.63878327e-05,37.7777906 L-4.63878327e-05,4.25332461 C-4.63878327e-05,1.92573298 1.99729772,0.032104712 4.45237376,0.032104712 L56.5059004,0.032104712 C58.9609764,0.032104712 60.9583205,1.92573298 60.9583205,4.25332461 L60.9583205,37.7777906 C60.9583205,40.1053822 58.9609764,41.9989005 56.5059004,41.9989005 L56.5059004,41.9989005 Z" id="Fill-3"></path>
                    </g>
                    <path d="M23.8046478,50.8009639 L37.1930282,50.8009639 L35.8604538,43.240921 L25.1373393,43.240921 L23.8046478,50.8009639 Z M38.1804585,52.5209424 C38.1795219,52.5208196 38.1785853,52.5208196 38.1782341,52.5209424 L22.819559,52.5209424 C22.5761552,52.5209424 22.3452786,52.407301 22.1895658,52.2109777 C22.0338529,52.0146544 21.9693433,51.7556748 22.0137156,51.5045579 L23.6496374,42.2244136 C23.7214058,41.8167787 24.0603447,41.5209424 24.4554808,41.5209424 L36.5423123,41.5209424 C36.9374483,41.5209424 37.2762702,41.8167787 37.3481557,42.2244136 L38.9724868,51.4388302 C38.9905167,51.5098407 39,51.5841684 39,51.6609531 C39,52.1359129 38.6330796,52.5209424 38.1804585,52.5209424 L38.1804585,52.5209424 Z" id="Fill-6"></path>
                    <path d="M19.8471054,52.5209424 C19.3792612,52.5209424 19,52.0732281 19,51.5209424 C19,50.9686567 19.3792612,50.5209424 19.8471054,50.5209424 L41.1528946,50.5209424 C41.6207388,50.5209424 42,50.9686567 42,51.5209424 C42,52.0732281 41.6207388,52.5209424 41.1528946,52.5209424 L19.8471054,52.5209424 Z" id="Fill-8"></path>
                    <path d="M0.813889879,33.5209424 C0.364390126,33.5209424 0,33.0732281 0,32.5209424 C0,31.9686567 0.364390126,31.5209424 0.813889879,31.5209424 L60.1861101,31.5209424 C60.6356099,31.5209424 61,31.9686567 61,32.5209424 C61,33.0732281 60.6356099,33.5209424 60.1861101,33.5209424 L0.813889879,33.5209424 Z" id="Fill-10"></path>
                    <path d="M22.0000601,12.2040056 C21.2738183,12.2040056 20.6830632,12.7947608 20.6830632,13.5210025 C20.6830632,14.2471241 21.2738183,14.8378792 22.0000601,14.8378792 C22.7261817,14.8378792 23.3169368,14.2471241 23.3169368,13.5210025 C23.3169368,12.7947608 22.7261817,12.2040056 22.0000601,12.2040056 M22.0000601,16.5209424 C20.3457292,16.5209424 19,15.1752132 19,13.5210025 C19,11.8666716 20.3457292,10.5209424 22.0000601,10.5209424 C23.6542708,10.5209424 25,11.8666716 25,13.5210025 C25,15.1752132 23.6542708,16.5209424 22.0000601,16.5209424" id="Fill-12"></path>
                    <path d="M17.618157,26.9117029 L40.5360081,26.9117029 L32.8595249,16.6509619 L27.1422701,23.4934483 C26.8658342,23.824262 26.3698934,23.8907006 26.0106817,23.644372 L22.5220641,21.2541915 L17.618157,26.9117029 Z M42.1662767,28.5209424 L15.8337704,28.5209424 C15.509932,28.5209424 15.2153927,28.3400179 15.0784253,28.0569067 C14.9413389,27.7737955 14.9864786,27.4397634 15.1941925,27.2001016 L21.7373008,19.6516189 C22.0163568,19.329656 22.5049134,19.2689647 22.859361,19.51173 L26.3364257,21.8940941 L32.2471022,14.820337 C32.410272,14.6251593 32.6550267,14.515731 32.9183613,14.5211334 C33.1782419,14.5278003 33.4198999,14.651022 33.5719932,14.8543609 L42.8421807,27.2452753 C43.0254787,27.4902245 43.0510857,27.8136816 42.9086396,28.0827695 C42.7659554,28.3516274 42.4793959,28.5209424 42.1662767,28.5209424 L42.1662767,28.5209424 Z" id="Fill-14"></path>
                    <path d="M7.76685382,20.7880849 L10.2331462,20.7880849 L10.2331462,6.25368443 L7.76685382,6.25368443 L7.76685382,20.7880849 Z M11.1165731,22.5209424 L6.88342691,22.5209424 C6.39542189,22.5209424 6,22.1331289 6,21.6545136 L6,5.38737118 C6,4.90875593 6.39542189,4.52094241 6.88342691,4.52094241 L11.1165731,4.52094241 C11.6045781,4.52094241 12,4.90875593 12,5.38737118 L12,21.6545136 C12,22.1331289 11.6045781,22.5209424 11.1165731,22.5209424 L11.1165731,22.5209424 Z" id="Fill-16"></path>
                    <path d="M44.7591697,25.8314637 L53.2408303,25.8314637 L53.2408303,6.21042112 L44.7591697,6.21042112 L44.7591697,25.8314637 Z M54.1204152,27.5209424 L43.8795848,27.5209424 C43.3937022,27.5209424 43,27.1427244 43,26.6762031 L43,5.36568176 C43,4.89904774 43.3937022,4.52094241 43.8795848,4.52094241 L54.1204152,4.52094241 C54.6062978,4.52094241 55,4.89904774 55,5.36568176 L55,26.6762031 C55,27.1427244 54.6062978,27.5209424 54.1204152,27.5209424 L54.1204152,27.5209424 Z" id="Fill-18"></path>
                    <path d="M10.8647333,6.52094241 C10.3870546,6.52094241 10,6.07334241 10,5.52094241 C10,4.96854241 10.3870546,4.52094241 10.8647333,4.52094241 L45.1352667,4.52094241 C45.6129454,4.52094241 46,4.96854241 46,5.52094241 C46,6.07334241 45.6129454,6.52094241 45.1352667,6.52094241 L10.8647333,6.52094241 Z" id="Fill-19"></path>
                    <path d="M16,8.52094241 C15.4476,8.52094241 15,8.11279651 15,7.60908831 L15,5.43279651 C15,4.92908831 15.4476,4.52094241 16,4.52094241 C16.5524,4.52094241 17,4.92908831 17,5.43279651 L17,7.60908831 C17,8.11279651 16.5524,8.52094241 16,8.52094241" id="Fill-20"></path>
                    <path d="M19,8.52094241 C18.4476,8.52094241 18,8.11279651 18,7.60908831 L18,5.43279651 C18,4.92908831 18.4476,4.52094241 19,4.52094241 C19.5524,4.52094241 20,4.92908831 20,5.43279651 L20,7.60908831 C20,8.11279651 19.5524,8.52094241 19,8.52094241" id="Fill-21"></path>
                    <path d="M23,8.52094241 C22.4476,8.52094241 22,8.11279651 22,7.60908831 L22,5.43279651 C22,4.92908831 22.4476,4.52094241 23,4.52094241 C23.5524,4.52094241 24,4.92908831 24,5.43279651 L24,7.60908831 C24,8.11279651 23.5524,8.52094241 23,8.52094241" id="Fill-22"></path>
                    <path d="M27,8.52094241 C26.4476,8.52094241 26,8.11279651 26,7.60908831 L26,5.43279651 C26,4.92908831 26.4476,4.52094241 27,4.52094241 C27.5524,4.52094241 28,4.92908831 28,5.43279651 L28,7.60908831 C28,8.11279651 27.5524,8.52094241 27,8.52094241" id="Fill-23"></path>
                    <path d="M31,8.52094241 C30.4476,8.52094241 30,8.11279651 30,7.60908831 L30,5.43279651 C30,4.92908831 30.4476,4.52094241 31,4.52094241 C31.5524,4.52094241 32,4.92908831 32,5.43279651 L32,7.60908831 C32,8.11279651 31.5524,8.52094241 31,8.52094241" id="Fill-24"></path>
                    <path d="M35,8.52094241 C34.4476,8.52094241 34,8.11279651 34,7.60908831 L34,5.43279651 C34,4.92908831 34.4476,4.52094241 35,4.52094241 C35.5524,4.52094241 36,4.92908831 36,5.43279651 L36,7.60908831 C36,8.11279651 35.5524,8.52094241 35,8.52094241" id="Fill-25"></path>
                    <path d="M39,8.52094241 C38.4476,8.52094241 38,8.11279651 38,7.60908831 L38,5.43279651 C38,4.92908831 38.4476,4.52094241 39,4.52094241 C39.5524,4.52094241 40,4.92908831 40,5.43279651 L40,7.60908831 C40,8.11279651 39.5524,8.52094241 39,8.52094241 C39,7.85427574 39,7.52094241 39,7.52094241" id="Fill-26"></path>
                    <path d="M50.9953922,9.52094241 L48.0046078,9.52094241 C47.4496625,9.52094241 47,9.07334241 47,8.52094241 C47,7.96854241 47.4496625,7.52094241 48.0046078,7.52094241 L50.9953922,7.52094241 C51.5503375,7.52094241 52,7.96854241 52,8.52094241 C52,9.07334241 51.5503375,9.52094241 50.9953922,9.52094241" id="Fill-27"></path>
                    <path d="M50.9953922,13.5209424 L48.0046078,13.5209424 C47.4496625,13.5209424 47,13.0733424 47,12.5209424 C47,11.9685424 47.4496625,11.5209424 48.0046078,11.5209424 L50.9953922,11.5209424 C51.5503375,11.5209424 52,11.9685424 52,12.5209424 C52,13.0733424 51.5503375,13.5209424 50.9953922,13.5209424" id="Fill-28"></path>
                    <path d="M50.9953922,17.5209424 L48.0046078,17.5209424 C47.4496625,17.5209424 47,17.0733424 47,16.5209424 C47,15.9685424 47.4496625,15.5209424 48.0046078,15.5209424 L50.9953922,15.5209424 C51.5503375,15.5209424 52,15.9685424 52,16.5209424 C52,17.0733424 51.5503375,17.5209424 50.9953922,17.5209424" id="Fill-29"></path>
                    <path d="M50.9953922,21.5209424 L48.0046078,21.5209424 C47.4496625,21.5209424 47,21.0733424 47,20.5209424 C47,19.9685424 47.4496625,19.5209424 48.0046078,19.5209424 L50.9953922,19.5209424 C51.5503375,19.5209424 52,19.9685424 52,20.5209424 C52,21.0733424 51.5503375,21.5209424 50.9953922,21.5209424" id="Fill-30"></path>
                    <path d="M25.9288151,24.5209424 C25.7271257,24.5209424 25.5239756,24.4637651 25.3534889,24.3458079 C24.9506411,24.0674754 24.8818622,23.5557851 25.2001306,23.203308 L27.3411725,20.8303342 C27.6591754,20.4777409 28.2439288,20.4175421 28.6465111,20.6961071 C29.0493589,20.9744396 29.1181378,21.4861299 28.7998694,21.838607 L26.6588275,24.2115807 C26.4754613,24.4149552 26.2033996,24.5209424 25.9288151,24.5209424" id="Fill-31"></path>
                </g>
                <g id="Group-Copy-7" transform="translate(89.000000, 0.000000)" stroke="#3AAB00" stroke-linecap="round" stroke-linejoin="round" stroke-width="2">
                    <path d="M44,28.0213357 C44,37.1332467 36.6123042,44.5209424 27.4996067,44.5209424 C18.3869092,44.5209424 11,37.1332467 11,28.0213357 C11,18.9086382 18.3869092,11.5209424 27.4996067,11.5209424 C36.6123042,11.5209424 44,18.9086382 44,28.0213357 Z" id="Stroke-1"></path>
                    <path d="M24.6932237,13.5209424 C24.6932237,13.5209424 27.5285972,17.3835347 26.6161564,19.3072392 C25.7029051,21.2309438 23.8553339,20.8733807 23.1932876,21.2309438 C22.5320515,21.589266 18.4779292,21.9399967 19.7242295,23.1075806 C20.9705297,24.2751645 23.1365639,24.3844831 24.5627592,25.7198408 C25.9889546,27.0559576 25.3812009,28.9265211 26.7968618,28.9265211 C28.2133331,28.9265211 29.2076181,26.3803076 30.5665554,27.6534144 C31.9246823,28.9265211 29.8096994,32.1324423 28.0990754,33.7357825 C26.387641,35.3383635 27.9037839,36.3260272 27.1323418,37.0487449 C26.3608998,37.7714626 25.2442537,38.4380027 25.2442537,39.8272606 C25.2442537,41.2165184 21.8246262,42.6065354 21.3675955,40.2546661 C20.9121854,37.903556 22.1098653,34.4304114 21.0264431,33.414659 C19.9422105,32.3996657 17.9463473,29.8564888 18.7445305,27.5205619 C19.543524,25.1853941 14,21.4518585 14,21.4518585" id="Stroke-3"></path>
                    <path d="M43,23.4277373 C43,23.4277373 38.4842582,23.5613278 37.0460005,22.7282087 C35.6069357,21.89428 32.5003959,23.6398628 33.0685965,26.8306523 C33.6367971,30.023061 36.0903905,28.221613 37.9999964,30.1364105 C39.9087952,32.051208 36.9999956,34.1481744 37.9999964,35.1513178 C38.9999971,36.1552708 39.6230807,37.1648913 38.6763488,39.5209424" id="Stroke-5"></path>
                    <path d="M33.217724,13.5209424 C33.217724,13.5209424 29.2927187,16.7608033 30.1126457,18.4288895 C30.9325726,20.0953969 31.9554024,19.5341052 33.217724,18.8433454 C34.479214,18.1517962 34.6629908,17.3734086 36.0833104,18.1517962 C37.5027986,18.9301838 40,18.6112501 40,18.6112501" id="Stroke-7"></path>
                    <path d="M3,26.5209424 C3.63312808,11.7965177 17.7597026,0.23541628 33,4.3683704" id="Stroke-9"></path>
                    <path d="M39,48.8468937 C26,56.5756299 7.76367187,50.640083 3,34.5209424" id="Stroke-11"></path>
                    <path d="M40,7.52094241 C53.3795228,15.439572 56.5379622,34.0085034 44.5221246,45.5209424" id="Stroke-13"></path>
                    <polyline id="Stroke-15" points="32.6731473 0.520942408 35 4.23850364 31 6.52094241"></polyline>
                    <polyline id="Stroke-17" points="49 46.3942008 44 46.5209424 44.1429079 41.5209424"></polyline>
                    <polyline id="Stroke-19" points="0 36.5209424 2.42168985 32.5209424 7 35.038504"></polyline>
                </g>
                <g id="Group-3-Copy-2" transform="translate(69.000000, 19.790576)" stroke="#3AAB00" stroke-linecap="round" stroke-width="2">
                    <path d="M6,0.724107143 L6,13.0026786" id="Line-10"></path>
                    <path d="M12,6.86339286 L0,6.86339286" id="Line-10-Copy"></path>
                </g>
            </g>
        </g>
    </g>
</svg>