<?xml version="1.0" encoding="UTF-8"?><svg id="Layer_2" xmlns="http://www.w3.org/2000/svg" viewBox="0 0 23.56 26"><defs><style>.cls-1{fill:#a0a2a4;}</style></defs><g id="Layer_1-2"><path class="cls-1" d="M7.72,22.75c.22,0,.42-.09,.57-.24,.15-.15,.24-.36,.24-.57V8.94c0-.29-.15-.56-.41-.7-.25-.15-.56-.15-.81,0-.25,.14-.41,.41-.41,.7v13c0,.22,.09,.42,.24,.57s.36,.24,.57,.24h0Z"/><path class="cls-1" d="M15.84,22.75c.22,0,.42-.09,.57-.24,.15-.15,.24-.36,.24-.57V8.94c0-.29-.15-.56-.41-.7-.25-.15-.56-.15-.81,0-.25,.14-.41,.41-.41,.7v13c0,.22,.09,.42,.24,.57,.15,.15,.36,.24,.57,.24h0Z"/><path class="cls-1" d="M11.78,22.75c.22,0,.42-.09,.57-.24,.15-.15,.24-.36,.24-.57V8.94c0-.29-.15-.56-.41-.7-.25-.15-.56-.15-.81,0-.25,.14-.41,.41-.41,.7v13c0,.22,.09,.42,.24,.57,.15,.15,.36,.24,.57,.24h0Z"/><path class="cls-1" d="M23.16,3.86h-6.5v-1.42c0-.65-.26-1.27-.71-1.72S14.87,0,14.22,0h-4.88c-.65,0-1.27,.26-1.72,.71s-.71,1.08-.71,1.72v1.42H.41c-.22,0-.41,.18-.41,.41v1.22c0,.23,.18,.41,.41,.41h1.63V22.75c0,.86,.35,1.69,.95,2.29,.61,.61,1.43,.95,2.29,.96h13c.86,0,1.69-.35,2.3-.95s.95-1.43,.95-2.3V5.89h1.63c.22,0,.4-.18,.4-.4v-1.22c0-.22-.18-.41-.4-.41h0Zm-14.63-1.42c0-.22,.09-.42,.24-.57,.15-.15,.36-.24,.57-.24h4.88c.22,0,.42,.09,.57,.24,.15,.15,.24,.36,.24,.57v1.42h-6.5v-1.42Zm11.38,20.31c0,.43-.17,.84-.48,1.15-.3,.3-.72,.48-1.15,.48H5.28c-.43,0-.84-.18-1.14-.48-.3-.3-.48-.71-.48-1.14V5.89H19.91V22.75Z"/></g></svg>