<?xml version="1.0" encoding="UTF-8"?>
<svg width="112px" height="65px" viewBox="0 0 112 65" version="1.1" xmlns="http://www.w3.org/2000/svg" xmlns:xlink="http://www.w3.org/1999/xlink">
    <!-- Generator: Sketch 53.2 (72643) - https://sketchapp.com -->
    <title>Group 18 Copy 2</title>
    <desc>Created with Sketch.</desc>
    <defs>
        <polygon id="path-1" points="0 0.10464 94.4826709 0.10464 94.4826709 56.57064 0 56.57064"></polygon>
        <polygon id="path-3" points="0.510058065 0.29646 18.5943806 0.29646 18.5943806 18 0.510058065 18"></polygon>
        <polygon id="path-5" points="0.543829032 0.29646 18.6281516 0.29646 18.6281516 18 0.543829032 18"></polygon>
        <polygon id="path-7" points="0 64.342246 112 64.342246 112 0.342245989 0 0.342245989"></polygon>
    </defs>
    <g id="Phase-2---Title-Setup" stroke="none" stroke-width="1" fill="none" fill-rule="evenodd">
        <g id="Group-18-Copy-2">
            <g id="Group-3" transform="translate(0.000000, 0.342246)">
                <mask id="mask-2" fill="white">
                    <use xlink:href="#path-1"></use>
                </mask>
                <g id="Clip-2"></g>
                <path d="M2.45051899,40.44204 C2.45051899,36.48864 5.67390506,33.27144 9.63624684,33.27144 L14.058557,33.27144 L21.744538,17.63004 C23.4767848,14.10564 27.1378924,11.82804 31.0725759,11.82804 L42.8561835,11.82804 L42.8561835,39.72264 L42.8561835,42.16764 L42.8561835,54.12564 L30.4568797,54.12564 C29.8345696,50.95944 27.1883987,42.16704 17.0137785,42.16704 C13.3244114,42.16704 10.3800127,43.29504 8.26235443,45.52044 C5.58010759,48.33924 4.9818481,52.15644 4.85979114,54.12564 L2.45051899,54.12564 L2.45051899,40.44204 Z M45.3063418,42.16764 L92.0325127,42.16764 L92.0325127,54.12564 L86.1395063,54.12564 C85.9392848,52.42344 85.2358038,49.30704 82.7838418,46.81404 C80.4238734,44.41404 77.0658038,43.19724 72.8022278,43.19724 C69.2313101,43.19724 66.3626709,44.27364 64.2750759,46.39644 C61.7696013,48.94404 61.0847595,52.32564 60.8989684,54.12564 L45.3063418,54.12564 L45.3063418,42.16764 Z M-0.000240506329,40.44204 L-0.000240506329,56.57064 L7.35263924,56.57064 L7.2865,55.28484 C7.28409494,55.23804 7.08447468,50.29704 10.050519,47.19264 C11.6865633,45.48024 14.0296962,44.61204 17.0137785,44.61204 C27.0952025,44.61204 28.1504241,55.01244 28.1907089,55.45524 L28.2911203,56.56824 L29.4112785,56.57064 L42.8561835,56.57064 L45.3063418,56.57064 L63.3058354,56.57064 L63.2823861,55.32504 C63.2817848,55.28424 63.2535253,50.91324 66.0373861,48.09624 C67.6457722,46.46844 69.9215633,45.64284 72.8022278,45.64284 C76.3713418,45.64284 79.1353608,46.60704 81.0161203,48.50844 C83.7861519,51.30684 83.7681139,55.28904 83.7681139,55.32864 L83.7518797,56.56704 L94.4826709,56.57064 L94.4826709,42.16764 L94.4826709,39.72264 L94.4826709,26.97924 L92.0325127,26.97924 L92.0325127,39.72264 L45.3063418,39.72264 L45.3063418,9.38244 L45.3063418,2.54964 L92.0325127,2.54964 L92.0325127,19.14144 L94.4826709,19.14144 L94.4826709,0.10464 L42.8561835,0.10464 L42.8561835,9.38244 L31.0725759,9.38244 C26.2101392,9.38244 21.6850127,12.19704 19.5445063,16.55424 L12.5307405,30.82644 L9.63624684,30.82644 C4.32286076,30.82644 -0.000240506329,35.13984 -0.000240506329,40.44204 L-0.000240506329,40.44204 Z" id="Fill-1" fill="#D2D2D2" mask="url(#mask-2)"></path>
            </g>
            <path d="M21.7627936,30.8615071 L24.6483678,24.4448165 C26.184238,21.0292358 29.5322818,18.8223763 33.1766596,18.8223763 L37.5986932,18.8223763 L37.5986932,30.8615071 L21.7627936,30.8615071 Z M22.4709316,23.3992057 L18,33.342246 L40,33.342246 L40,16.342246 L33.1766596,16.342246 C28.6008623,16.342246 24.3991645,19.1120799 22.4709316,23.3992057 L22.4709316,23.3992057 Z" id="Fill-4" fill="#D2D2D2"></path>
            <g id="Group-8" transform="translate(64.000000, 46.342246)">
                <mask id="mask-4" fill="white">
                    <use xlink:href="#path-3"></use>
                </mask>
                <g id="Clip-7"></g>
                <path d="M3.00825161,9.14826 C3.00825161,5.61606 5.94405806,2.74206 9.55283226,2.74206 C13.1609935,2.74206 16.0961871,5.61606 16.0961871,9.14826 C16.0961871,12.68106 13.1609935,15.55446 9.55283226,15.55446 C5.94405806,15.55446 3.00825161,12.68106 3.00825161,9.14826 M0.510058065,9.14826 C0.510058065,14.02926 4.56625161,18.00006 9.55283226,18.00006 C14.5381871,18.00006 18.5943806,14.02926 18.5943806,9.14826 C18.5943806,4.26726 14.5381871,0.29646 9.55283226,0.29646 C4.56625161,0.29646 0.510058065,4.26726 0.510058065,9.14826" id="Fill-6" fill="#D2D2D2" mask="url(#mask-4)"></path>
            </g>
            <g id="Group-11" transform="translate(8.000000, 46.342246)">
                <mask id="mask-6" fill="white">
                    <use xlink:href="#path-5"></use>
                </mask>
                <g id="Clip-10"></g>
                <path d="M3.04202258,9.14826 C3.04202258,5.61606 5.97782903,2.74206 9.58599032,2.74206 C13.1941516,2.74206 16.1299581,5.61606 16.1299581,9.14826 C16.1299581,12.68106 13.1941516,15.55446 9.58599032,15.55446 C5.97782903,15.55446 3.04202258,12.68106 3.04202258,9.14826 M0.543829032,9.14826 C0.543829032,14.02926 4.60002258,18.00006 9.58599032,18.00006 C14.5719581,18.00006 18.6281516,14.02926 18.6281516,9.14826 C18.6281516,4.26726 14.5719581,0.29646 9.58599032,0.29646 C4.60002258,0.29646 0.543829032,4.26726 0.543829032,9.14826" id="Fill-9" fill="#D2D2D2" mask="url(#mask-6)"></path>
            </g>
            <mask id="mask-8" fill="white">
                <use xlink:href="#path-7"></use>
            </mask>
            <g id="Clip-13"></g>
            <polygon id="Fill-12" fill="#D2D2D2" mask="url(#mask-8)" points="35 38.342246 41 38.342246 41 36.342246 35 36.342246"></polygon>
            <polygon id="Fill-14" fill="#D2D2D2" mask="url(#mask-8)" points="96 24.342246 112 24.342246 112 22.342246 96 22.342246"></polygon>
            <polygon id="Fill-15" fill="#D2D2D2" mask="url(#mask-8)" points="96 31.342246 106 31.342246 106 29.342246 96 29.342246"></polygon>
            <polygon id="Fill-16" fill="#D2D2D2" mask="url(#mask-8)" points="96 14.342246 102 14.342246 102 12.342246 96 12.342246"></polygon>
            <polygon id="Fill-17" fill="#D2D2D2" mask="url(#mask-8)" points="106 14.342246 108 14.342246 108 12.342246 106 12.342246"></polygon>
        </g>
    </g>
</svg>