<?xml version="1.0" encoding="UTF-8"?><svg id="Layer_2" xmlns="http://www.w3.org/2000/svg" viewBox="0 0 64 60.35"><defs><style>.cls-1{stroke:#00529c;}.cls-1,.cls-2{fill:none;stroke-miterlimit:10;stroke-width:2px;}.cls-2{stroke:#99cceb;}.cls-3{fill:#99cceb;}.cls-3,.cls-4,.cls-5{stroke-width:0px;}.cls-4{fill:#d9edf7;}.cls-5{fill:#fff;}</style></defs><g id="Layer_1-2"><line class="cls-2" x1="0" y1="24" x2="9" y2="24"/><path class="cls-4" d="m63,36c0,11.05-8.95,20-20,20s-20-8.95-20-20,8.95-20,20-20,20,8.95,20,20"/><path class="cls-5" d="m25.41,58.18c1.56,1.57,4.1,1.57,5.67,0l23.84-23.84c.76-.76,1.09-1.78,1.08-2.85v-15.91l-7.48-7.57h-15.91c-1.07,0-2.1.42-2.85,1.17L5.92,33.01c-1.57,1.57-1.57,4.1,0,5.67l19.5,19.49Z"/><path class="cls-1" d="m50,9.56l-1.48-1.56h-15.91c-1.07,0-2.1.42-2.85,1.17l-4.83,4.83m-3,3L5.92,33.01c-1.56,1.56-1.56,4.1,0,5.67l13.32,13.32m3,3l3.18,3.18c1.56,1.56,4.1,1.56,5.67,0l23.84-23.84c.76-.76,1.09-1.78,1.08-2.85v-15.91l-1.78-1.79"/><path class="cls-5" d="m46.15,21.65l-3.87-3.87c-.8-.8-.8-2.1,0-2.9l1.09-1.09c.8-.8,2.1-.8,2.9,0l3.87,3.87c.8.8.8,2.1,0,2.9l-1.09,1.08c-.8.8-2.1.8-2.9,0"/><path class="cls-1" d="m45.44,12.94h1.53c1.13,0,2.05.92,2.05,2.05v5.47c0,1.13-.92,2.05-2.05,2.05h-1.54c-1.13,0-2.05-.92-2.05-2.05v-5.47c0-1.13.92-2.05,2.05-2.05Z" transform="translate(1 37.87) rotate(-45)"/><polygon class="cls-3" points="38.62 45.46 33.5 45.65 29.71 49.08 25.67 45.95 20.56 46.14 19.48 41.14 15.44 38 17.83 33.48 16.75 28.48 21.49 26.55 23.87 22.02 28.74 23.59 33.48 21.66 36.21 25.99 41.08 27.55 40.38 32.62 43.1 36.95 39.31 40.39 38.62 45.46"/><polygon class="cls-1" points="38.62 45.46 33.5 45.65 29.71 49.08 25.67 45.95 20.56 46.14 19.48 41.14 15.44 38 17.83 33.48 16.75 28.48 21.49 26.55 23.87 22.02 28.74 23.59 33.48 21.66 36.21 25.99 41.08 27.55 40.38 32.62 43.1 36.95 39.31 40.39 38.62 45.46"/><line class="cls-1" x1="34.81" y1="28" x2="23.7" y2="42.67"/><rect class="cls-5" x="31" y="37" width="4" height="5" rx="1.41" ry="1.41"/><rect class="cls-1" x="31" y="37" width="4" height="5" rx="1.41" ry="1.41"/><rect class="cls-5" x="24" y="28" width="4" height="5" rx="1.41" ry="1.41"/><rect class="cls-1" x="24" y="28" width="4" height="5" rx="1.41" ry="1.41"/><line class="cls-1" x1="8" y1="52" x2="26" y2="52"/><line class="cls-2" x1="43" y1="1" x2="20" y2="1"/><path class="cls-1" d="m11,14h-2m6,0h-2m20,0h-16"/><line class="cls-2" x1="18" y1="1" x2="16" y2="1"/><path class="cls-1" d="m2,52H0m6,0h-2M47.99,16c1.11-2.92,3.94-5,7.25-5,4.28,0,7.76,3.47,7.76,7.76,0,2.99-1.69,5.58-4.16,6.88-1.07.56-2.3.88-3.59.88"/></g></svg>