<?xml version="1.0" encoding="UTF-8"?>
<svg width="86px" height="69px" viewBox="0 0 86 69" version="1.1" xmlns="http://www.w3.org/2000/svg" xmlns:xlink="http://www.w3.org/1999/xlink">
    <!-- Generator: Sketch 53.2 (72643) - https://sketchapp.com -->
    <title>Group</title>
    <desc>Created with Sketch.</desc>
    <g id="Phase-2---Title-Setup" stroke="none" stroke-width="1" fill="none" fill-rule="evenodd">
        <g id="21.-Add-a-Book---Upload" transform="translate(-517.000000, -327.000000)" fill="#078FE1" fill-rule="nonzero">
            <g id="Group" transform="translate(517.000000, 327.000000)">
                <path d="M84.5172414,0 L1.48275862,0 C0.664275862,0 0,0.6705 0,1.5 L0,67.5 C0,68.3295 0.664275862,69 1.48275862,69 L84.5172414,69 C85.3357241,69 86,68.3295 86,67.5 L86,1.5 C86,0.6705 85.3357241,0 84.5172414,0 Z M83.9699707,67 L1.9699707,67 L1.9699707,2 L83.9699707,2 L83.9699707,67 Z" id="Shape"></path>
                <path d="M24,33 C28.411564,33 32,29.411564 32,25.0014365 C32,20.588436 28.411564,17 24,17 C19.588436,17 16,20.588436 16,25 C16,29.411564 19.588436,33 24,33 Z M24,19.8730472 C26.8270785,19.8730472 29.1269528,22.1743581 29.1269528,25 C29.1269528,27.8256419 26.8270785,30.1269528 24,30.1269528 C21.1729215,30.1269528 18.8730472,27.8270785 18.8730472,25.0014365 C18.8730472,22.1757946 21.1729215,19.8730472 24,19.8730472 Z" id="Shape"></path>
                <path d="M10.4901385,60 C10.8386465,60 11.1901332,59.8787788 11.4731098,59.6319016 L35.768884,38.4004584 L51.1121725,53.6284974 C51.6945086,54.2065154 52.6357781,54.2065154 53.2181141,53.6284974 C53.8004501,53.0504794 53.8004501,52.1161895 53.2181141,51.5381715 L46.0588064,44.4319504 L59.732533,29.5690532 L76.5041087,44.8296149 C77.1102743,45.3810234 78.0530332,45.3396308 78.6085609,44.7379599 C79.1640886,44.136289 79.1238762,43.2005208 78.5162212,42.6491123 L60.6440155,26.3877368 C60.3521028,26.1231199 59.9633824,25.9915505 59.5716832,26.0004204 C59.1770053,26.0181601 58.8046677,26.191122 58.538074,26.4808701 L43.9513755,42.3386679 L36.8873862,35.3270584 C36.3303691,34.7756499 35.4397375,34.7475621 34.8499547,35.2620129 L9.5056778,57.4114847 C8.88759736,57.9510667 8.82802334,58.8853566 9.37163626,59.498854 C9.66652765,59.831473 10.0775884,60 10.4901385,60 Z" id="Shape"></path>
            </g>
        </g>
    </g>
</svg>