<?xml version="1.0" encoding="UTF-8"?>
<svg width="57px" height="71px" viewBox="0 0 57 71" version="1.1" xmlns="http://www.w3.org/2000/svg" xmlns:xlink="http://www.w3.org/1999/xlink">
    <!-- Generator: Sketch 53.2 (72643) - https://sketchapp.com -->
    <title>Group 4</title>
    <desc>Created with Sketch.</desc>
    <g id="Phase-2---Title-Setup" stroke="none" stroke-width="1" fill="none" fill-rule="evenodd">
        <g id="21.-Add-a-Book---Upload" transform="translate(-973.000000, -325.000000)" fill="#078FE1" fill-rule="nonzero">
            <g id="Group-4" transform="translate(973.000000, 325.000000)">
                <path d="M28.999001,53 L28.999001,53 C28.4475524,53 28,52.5256943 28,51.9412819 L28.001998,28.0587181 C28.001998,27.4743057 28.4495504,27 29.000999,27 L29.000999,27 C29.5524476,27 30,27.4743057 30,28.0587181 L29.998002,51.9412819 C29.998002,52.5256943 29.5504496,53 28.999001,53 Z" id="Shape"></path>
                <path d="M37.9605735,37.9994824 C37.6946133,37.9994824 37.4286531,37.8980235 37.2250273,37.6971765 L28.9989611,29.4997176 L20.7728949,37.6971765 C20.3677212,38.1009412 19.7090541,38.1009412 19.3038803,37.6971765 C18.8987066,37.2934118 18.8987066,36.6370353 19.3038803,36.2332706 L28.2654927,27.3028235 C28.6706665,26.8990588 29.3293335,26.8990588 29.7345073,27.3028235 L38.6961197,36.2332706 C39.1012934,36.6370353 39.1012934,37.2934118 38.6961197,37.6971765 C38.4924939,37.8980235 38.2265337,37.9994824 37.9605735,37.9994824 Z" id="Shape"></path>
                <path d="M51.6953058,71 L5.30469419,71 C2.38074675,71 0,68.6093773 0,65.6685489 L0,5.33145106 C0,2.39062265 2.38074675,0 5.30469419,0 L38.993746,0 C39.5793843,0 40.0546849,0.477698015 40.0546849,1.06629021 C40.0546849,1.65488241 39.5793843,2.13258042 38.993746,2.13258042 L5.30469419,2.13258042 C3.54990135,2.13258042 2.12187768,3.56780705 2.12187768,5.33145106 L2.12187768,65.6685489 C2.12187768,67.432193 3.54990135,68.8674196 5.30469419,68.8674196 L51.6953058,68.8674196 C53.4500986,68.8674196 54.8781223,67.432193 54.8781223,65.6685489 L54.8781223,18.56198 C54.8781223,17.9733878 55.3534229,17.4956898 55.9390612,17.4956898 C56.5246994,17.4956898 57,17.9733878 57,18.56198 L57,65.6706815 C57,68.6093773 54.6213751,71 51.6953058,71 Z" id="Shape"></path>
                <path d="M55.9427999,20 L39.0572001,20 C38.4736256,20 38,19.5264271 38,18.9429175 L38,2.05708245 C38,1.47357294 38.4736256,1 39.0572001,1 C39.6407745,1 40.1144002,1.47357294 40.1144002,2.05708245 L40.1144002,17.8837209 L55.9427999,17.8837209 C56.5263744,17.8837209 57,18.3572939 57,18.9408034 C57,19.5243129 56.5284888,20 55.9427999,20 Z" id="Shape"></path>
                <path d="M55.9421239,20 C55.6672395,20 55.3923551,19.8891627 55.1851345,19.6718347 L38.2987721,1.84441715 C37.892789,1.41628095 37.901247,0.725177844 38.3199171,0.307908044 C38.7364727,-0.111535036 39.4067679,-0.100668635 39.8148655,0.329640846 L56.7012279,18.1570584 C57.107211,18.5851946 57.098753,19.2762977 56.6800829,19.6935675 C56.4749768,19.8978558 56.2085504,20 55.9421239,20 Z" id="Shape"></path>
            </g>
        </g>
    </g>
</svg>