<svg xmlns="http://www.w3.org/2000/svg" width="36" height="81" viewBox="0 0 36 81">
  <g id="Group_34" data-name="Group 34" transform="translate(-4820 -1281)">
    <g id="Group_22" data-name="Group 22" transform="translate(4600 1161)">
      <path id="Path_1" data-name="Path 1" d="M251.5,139.8V120h-27v19.8H220v49.613A11.6,11.6,0,0,0,231.588,201h12.825A11.6,11.6,0,0,0,256,189.413V139.8Zm-25.2-18h23.4v18H226.3Zm27.9,67.613a9.8,9.8,0,0,1-9.787,9.788H231.588a9.8,9.8,0,0,1-9.788-9.788V141.6h32.4Z" transform="translate(0 0)" fill="#c8cacc"/>
      <path id="Path_2" data-name="Path 2" d="M264,155.642h5.821V144H264Zm1.94-9.7h1.94V153.7h-1.94Z" transform="translate(-34.236 -18.179)" fill="#c8cacc"/>
      <path id="Path_3" data-name="Path 3" d="M312,155.642h5.821V144H312Zm1.94-9.7h1.94V153.7h-1.94Z" transform="translate(-71.585 -18.179)" fill="#c8cacc"/>
    </g>
  </g>
</svg>
