<svg xmlns="http://www.w3.org/2000/svg" width="101.565" height="76.079" viewBox="0 0 101.565 76.079">
  <g id="Group_48" data-name="Group 48" transform="translate(9292.375 203.375)">
    <g id="Group_42" data-name="Group 42">
      <path id="Path_27" data-name="Path 27" d="M425,300.584l0,48.2H387.363a3.641,3.641,0,0,1-3.637-3.637l.006-47.311a3.641,3.641,0,0,1,3.637-3.637h37.184v.89h-.071c-1.216,0-1.769,1.424-1.769,2.747s.553,2.747,1.769,2.747Zm-40.376-2.747a2.751,2.751,0,0,0,2.747,2.747h35.293a4.23,4.23,0,0,1-.811-2.215H387.561v-.89h34.274a4.325,4.325,0,0,1,.828-2.39H387.369A2.75,2.75,0,0,0,384.622,297.837Zm5.931,3.637h-3.19a3.63,3.63,0,0,1-2.741-1.257l-.006,44.931a2.751,2.751,0,0,0,2.747,2.747h3.19Zm33.556,0H391.442V347.9h32.663Z" transform="translate(-9675.726 -497.2)" fill="#a0a2a4" stroke="#a0a2a4" stroke-miterlimit="10" stroke-width="0.75"/>
      <rect id="Rectangle_19" data-name="Rectangle 19" width="33" height="47" rx="3" transform="translate(-9280 -192)" fill="#fff"/>
      <path id="Path_29" data-name="Path 29" d="M425,300.584l0,48.2H387.363a3.641,3.641,0,0,1-3.637-3.637l.006-47.311a3.641,3.641,0,0,1,3.637-3.637h37.184v.89h-.071c-1.216,0-1.769,1.424-1.769,2.747s.553,2.747,1.769,2.747Zm-40.376-2.747a2.751,2.751,0,0,0,2.747,2.747h35.293a4.23,4.23,0,0,1-.811-2.215H387.561v-.89h34.274a4.325,4.325,0,0,1,.828-2.39H387.369A2.75,2.75,0,0,0,384.622,297.837Zm5.931,3.637h-3.19a3.63,3.63,0,0,1-2.741-1.257l-.006,44.931a2.751,2.751,0,0,0,2.747,2.747h3.19Zm33.556,0H391.442V347.9h32.663Z" transform="translate(-9664.41 -486.828)" fill="#a0a2a4" stroke="#a0a2a4" stroke-miterlimit="10" stroke-width="0.75"/>
      <rect id="Rectangle_20" data-name="Rectangle 20" width="39" height="41" rx="3" transform="translate(-9268 -176)" fill="#fff"/>
      <rect id="Rectangle_21" data-name="Rectangle 21" width="37" height="41" rx="3" transform="translate(-9268 -182)" fill="#fff"/>
      <path id="Path_30" data-name="Path 30" d="M425,300.584l0,48.2H387.363a3.641,3.641,0,0,1-3.637-3.637l.006-47.311a3.641,3.641,0,0,1,3.637-3.637h37.184v.89h-.071c-1.216,0-1.769,1.424-1.769,2.747s.553,2.747,1.769,2.747Zm-40.376-2.747a2.751,2.751,0,0,0,2.747,2.747h35.293a4.23,4.23,0,0,1-.811-2.215H387.561v-.89h34.274a4.325,4.325,0,0,1,.828-2.39H387.369A2.75,2.75,0,0,0,384.622,297.837Zm5.931,3.637h-3.19a3.63,3.63,0,0,1-2.741-1.257l-.006,44.931a2.751,2.751,0,0,0,2.747,2.747h3.19Zm33.556,0H391.442V347.9h32.663Z" transform="translate(-9653.096 -476.456)" fill="#a0a2a4" stroke="#a0a2a4" stroke-miterlimit="10" stroke-width="0.75"/>
      <rect id="Rectangle_22" data-name="Rectangle 22" width="36" height="28" rx="14" transform="translate(-9233 -158)" fill="#fff"/>
      <path id="Stroke_1" data-name="Stroke 1" d="M8.943.859A7.421,7.421,0,0,0,4.561.049C2.515.281.764,1.3.82,3.5c.046,1.817,1.72,3.084,4.244,3.955S9.236,8.845,9.33,11.41s-2.266,3.976-4.2,4.039A9.969,9.969,0,0,1,0,14.376" transform="translate(-9217.476 -153.027)" fill="none" stroke="#a0a2a4" stroke-linecap="round" stroke-miterlimit="10" stroke-width="2"/>
      <path id="Stroke_3" data-name="Stroke 3" d="M1.206,0V3.313" transform="translate(-9214.016 -156.34)" fill="none" stroke="#a0a2a4" stroke-miterlimit="10" stroke-width="2"/>
      <path id="Stroke_5" data-name="Stroke 5" d="M1.206,3.313V0" transform="translate(-9214.016 -137.566)" fill="none" stroke="#a0a2a4" stroke-miterlimit="10" stroke-width="2"/>
      <path id="Stroke_7" data-name="Stroke 7" d="M27.674,19.2a8.311,8.311,0,0,1-.58-3.2c.255-5.271,3.05-8.992,5.119-13.683.229-.52.7-1.12.221-1.506-.787-.646-2.586-.031-3.39.273-1.253.474-2.552,1.1-3.875.866-1.208-.21-2.184-1.1-3.337-1.528a4.557,4.557,0,0,0-3.267.056A14.131,14.131,0,0,1,16.5,1.39C14.135,1.932,12.107-.08,9.767,0,9.088.027,7.479.114,7.1.805c-.168.3.284,1.047.416,1.313,2.759,5.624,8.47,12.528,4.308,18.848A13.683,13.683,0,0,1,8.61,24.243C4.366,27.473,0,33.141,0,38.8,0,50.134,9.141,54.832,20.416,54.832s20.414-4.7,20.416-16.031c0-9.4-9.947-11.43-12.993-19.16C27.782,19.494,27.727,19.349,27.674,19.2Z" transform="translate(-9232.643 -183.173)" fill="none" stroke="#a0a2a4" stroke-linecap="round" stroke-linejoin="round" stroke-miterlimit="10" stroke-width="2"/>
      <path id="Stroke_9" data-name="Stroke 9" d="M0,1.206H14" transform="translate(-9219.81 -170.379)" fill="none" stroke="#a0a2a4" stroke-linecap="round" stroke-miterlimit="10" stroke-width="2"/>
      <path id="Stroke_11" data-name="Stroke 11" d="M0,1.206H14" transform="translate(-9219.81 -166.879)" fill="none" stroke="#a0a2a4" stroke-linecap="round" stroke-miterlimit="10" stroke-width="2"/>
      <path id="Stroke_13" data-name="Stroke 13" d="M0,1.206H16.333" transform="translate(-9220.976 -163.379)" fill="none" stroke="#a0a2a4" stroke-linecap="round" stroke-miterlimit="10" stroke-width="2"/>
    </g>
  </g>
</svg>
