<?xml version="1.0" encoding="UTF-8"?>
<svg width="40px" height="40px" viewBox="0 0 40 40" version="1.1" xmlns="http://www.w3.org/2000/svg" xmlns:xlink="http://www.w3.org/1999/xlink">
    <!-- Generator: Sketch 51.3 (57544) - http://www.bohemiancoding.com/sketch -->
    <title>Fill 1</title>
    <desc>Created with Sketch.</desc>
    <defs></defs>
    <g id="Page-1" stroke="none" stroke-width="1" fill="none" fill-rule="evenodd">
        <g id="IngramSpark-Log-In" transform="translate(-605.000000, -536.000000)" fill="#FFFFFF">
            <path d="M625.0008,574.4 C614.8544,574.4 606.6,566.1464 606.6,556 C606.6,553.644 607.0504,551.392 607.8608,549.3192 C609.2,551.728 610.7704,553.4296 611.8088,553.9496 C612.2248,554.1568 612.2728,554.4536 612.2416,555.5216 C612.2192,556.264 612.192,557.1872 612.6096,558.0744 C613.0256,558.9576 613.7712,559.3128 614.3704,559.5976 C615.2416,560.0128 615.8168,560.2856 615.7016,562.1504 C615.5832,564.0904 616.0296,564.7408 616.5824,565.3352 C616.8432,565.6168 616.9864,565.772 616.9352,566.6168 C616.836,568.224 616.9648,570.3368 618.14,571.2728 C618.4248,571.4992 618.8584,571.724 619.4576,571.724 C619.6984,571.724 619.9656,571.688 620.2608,571.6008 C622.0704,571.064 621.9152,569.388 621.8216,568.3864 C621.7824,567.9536 621.7408,567.5072 621.8248,567.2528 C621.9112,566.9952 622.4544,566.7368 622.9336,566.5088 C623.7248,566.132 624.7096,565.6632 624.9616,564.6224 C625.1488,563.852 625.0248,563.3944 624.9352,563.06 C624.8592,562.78 624.824,562.6512 625.0848,562.1176 C625.2912,561.696 625.6392,561.6008 626.288,561.4552 C626.904,561.3176 627.6704,561.1472 628.0968,560.3944 C628.7488,559.244 629.0264,558.304 628.948,557.5192 C628.6728,554.8096 626.8952,554.0648 625.3776,553.72 C624.5192,553.5208 623.8352,553.8424 623.284,554.0968 C622.584,554.4224 622.2624,554.5688 621.5968,554.0392 C621.4144,553.8944 621.3896,553.7528 621.3704,553.2576 C621.3448,552.592 621.3064,551.5848 620.0648,550.8728 C619.1816,550.3648 618.2776,550.3808 617.4752,550.3976 C616.596,550.4128 615.8368,550.4288 615.084,549.808 C614.9152,549.668 614.7056,549.5248 614.484,549.376 C613.5504,548.744 613.4448,548.544 613.504,548.3344 C613.6424,548.2952 614.1336,548.4176 614.4264,548.4928 C615.1992,548.6912 616.1584,548.9376 617.0224,548.4832 C618.1696,547.8792 618.2784,547.0192 618.3432,546.5064 C618.3896,546.136 618.4088,546.104 618.5352,546.0208 C618.808,545.8448 619.2,545.928 619.812,546.088 C620.3176,546.22 620.8912,546.3696 621.4712,546.2616 C623.4,545.9024 623.4,544.2464 623.4,543.1496 C623.4,542.2824 622.9864,541.568 622.5864,540.8768 C622.0824,540.004 621.612,539.1704 621.7312,537.8968 C622.356,537.784 622.9912,537.7032 623.6368,537.656 C623.6784,538.2784 623.7624,539.1016 623.928,539.4112 C624.5176,540.5136 625.3584,540.9104 626.1584,540.9104 C626.5304,540.9104 626.8928,540.8248 627.2176,540.684 C628.736,540.0272 629.156,538.964 629.2104,538.0912 C630.0872,538.2976 630.94,538.5664 631.7632,538.8928 C629.436,541.36 629.184,542.3504 630.296,543.8168 C630.908,544.6232 631.7096,544.9472 632.5192,544.9464 C633.3048,544.9464 634.0984,544.6432 634.7352,544.1824 C634.8736,544.0816 635.3048,544.1376 635.6864,544.1864 C636.472,544.2864 637.6104,544.4328 638.6008,543.62 C639.3944,544.4912 640.1056,545.4392 640.7216,546.4496 C638.9376,546.34 636.0552,546.244 634.4504,546.6208 C632.9808,546.968 631.316,547.36 631.5928,549.96 C631.7216,551.1688 632.572,551.628 633.1336,551.932 C633.3368,552.0424 633.5888,552.1792 633.6264,552.2704 C633.7064,552.464 633.7136,552.7168 633.7216,553.0096 C633.7408,553.62 633.7648,554.4568 634.5864,555.0736 C635.396,555.6816 636.2552,555.6416 636.8832,555.6112 C637.0832,555.6024 637.388,555.5888 637.448,555.6064 C637.4488,555.6072 637.5088,555.688 637.5376,555.98 C637.7008,557.6104 638.5712,558.132 639.148,558.4784 C639.4384,558.652 639.5616,558.736 639.6144,558.8608 C639.7808,559.2544 639.9864,559.7448 638.54,560.6568 C636.9888,561.6344 637.352,562.9312 637.548,563.6272 C637.592,563.7864 637.66,564.028 637.6512,564.1032 C637.6176,564.2624 637.5464,564.4192 637.4648,564.6008 C637.2312,565.1176 636.912,565.8256 637.3096,566.9912 C637.4752,567.4776 637.912,567.8888 638.6864,568.2824 C635.316,572.0352 630.4296,574.4 625.0008,574.4 M620.1152,538.2632 C620.1144,539.7752 620.7264,540.856 621.2024,541.6776 C621.536,542.2552 621.8,542.712 621.8,543.1496 C621.8,544.4496 621.6896,544.5928 621.1784,544.688 C620.9456,544.7352 620.576,544.6344 620.2176,544.54 C619.4744,544.3464 618.5496,544.104 617.6632,544.68 C616.8976,545.1776 616.812,545.8568 616.7552,546.3064 C616.704,546.7144 616.6864,546.8512 616.2776,547.0672 C615.96,547.2352 615.3576,547.08 614.8248,546.944 C614.0192,546.7352 612.6712,546.3904 612.0976,547.6416 C611.38,549.208 612.8168,550.18 613.588,550.7008 C613.764,550.8192 613.9312,550.9312 614.0656,551.0424 C615.276,552.04 616.5136,552.0184 617.5056,551.9968 C618.184,551.9848 618.7672,551.9728 619.268,552.26 C619.7416,552.532 619.7504,552.7624 619.772,553.3192 C619.792,553.8592 619.824,554.676 620.6032,555.2936 C622.0448,556.4344 623.1944,555.9016 623.956,555.5496 C624.4288,555.3304 624.7112,555.2112 625.0224,555.28 C626.4104,555.5952 627.192,556.072 627.3552,557.6808 C627.3808,557.9264 627.3288,558.504 626.7048,559.6056 C626.628,559.7408 626.2936,559.8152 625.9392,559.8944 C625.2472,560.0496 624.2008,560.2832 623.648,561.416 C623.1624,562.4088 623.244,562.9368 623.3896,563.4776 C623.4568,563.724 623.4968,563.8736 623.4072,564.2448 C623.3336,564.5464 622.7552,564.8208 622.2464,565.064 C621.4784,565.4296 620.6088,565.844 620.308,566.7472 C620.1168,567.32 620.1736,567.9376 620.2288,568.5344 C620.344,569.7688 620.2448,569.9368 619.8064,570.0664 C619.3616,570.1984 619.1968,570.0696 619.1368,570.02 C618.7816,569.7376 618.4096,568.7024 618.532,566.716 C618.6184,565.3008 618.2312,564.76 617.7544,564.2472 C617.4632,563.9328 617.212,563.6616 617.2984,562.2496 C617.48,559.3064 616.08,558.64 615.0584,558.1528 C614.5288,557.9016 614.2216,557.7416 614.0576,557.3928 C613.8032,556.852 613.8208,556.2288 613.8408,555.5688 C613.8712,554.5176 613.9096,553.2112 612.524,552.5176 C611.748,552.1304 610.04,550.2664 608.7064,547.4664 C611.0504,543.0096 615.1672,539.628 620.1152,538.2632 M626.5824,539.216 C625.928,539.5016 625.5776,539.0816 625.368,538.7088 C625.336,538.5696 625.2784,538.1696 625.2368,537.6064 C626.0432,537.6168 626.8368,537.6784 627.6152,537.7888 C627.6576,538.46 627.3472,538.8848 626.5824,539.216 M637.4568,542.4728 C637.052,542.7272 636.5792,542.6888 635.8912,542.6 C635.2136,542.5112 634.4496,542.4144 633.7968,542.8856 C633.652,542.9904 632.3544,543.884 631.5712,542.8496 C631.1448,542.2872 630.9512,542.02 633.3104,539.5912 C634.8248,540.3616 636.2192,541.332 637.4568,542.4728 M638.8232,566.4752 L638.8232,566.476 C638.6304,565.908 638.7344,565.6776 638.9232,565.2584 C639.028,565.0248 639.148,564.7608 639.2176,564.4296 C639.3096,563.984 639.192,563.5648 639.088,563.1952 C638.9064,562.5472 638.8512,562.3512 639.3928,562.0104 C640.508,561.308 641.8952,560.152 641.0888,558.2392 C640.8272,557.62 640.352,557.3352 639.9704,557.1056 C639.4976,556.8224 639.2128,556.6512 639.1296,555.82 C638.9384,553.9144 637.5,553.98 636.808,554.0136 C636.2416,554.0384 635.8728,554.0376 635.5472,553.7936 C635.3656,553.6576 635.3376,553.504 635.3216,552.9616 C635.3104,552.5888 635.2968,552.1256 635.1064,551.6632 C634.852,551.0432 634.3216,550.756 633.8944,550.5248 C633.3872,550.2504 633.22,550.1328 633.184,549.7896 C633.0632,548.66 633.2552,548.5472 634.8176,548.1792 C636.2416,547.844 639.228,547.9264 641.6224,548.1168 C642.7608,550.508 643.4,553.1808 643.4,556 C643.4,560.1248 642.036,563.9368 639.7352,567.0088 C638.9816,566.68 638.8288,566.4752 638.8232,566.4752 M625.0008,536 C613.9728,536 605,544.972 605,556 C605,567.028 613.9728,576 625.0008,576 C636.028,576 645,567.028 645,556 C645,544.972 636.028,536 625.0008,536" id="Fill-1"></path>
        </g>
    </g>
</svg>