<?xml version="1.0" encoding="UTF-8"?>
<svg width="25px" height="25px" viewBox="0 0 25 25" version="1.1" xmlns="http://www.w3.org/2000/svg" xmlns:xlink="http://www.w3.org/1999/xlink">
    <!-- Generator: Sketch 53.2 (72643) - https://sketchapp.com -->
    <title></title>
    <desc>Created with Sketch.</desc>
    <g id="Page-1" stroke="none" stroke-width="1" fill="none" fill-rule="evenodd">
        <g id="Artboard" transform="translate(-132.000000, -146.000000)" fill="#FFFFFF" fill-rule="nonzero">
            <path d="M156.5,148.875 L156.5,168.125 C156.5,168.85417 156.244794,169.473956 155.734375,169.984375 C155.223956,170.494794 154.60417,170.75 153.875,170.75 L149.226562,170.75 L149.226562,161.070312 L152.507812,161.070312 L153,157.351562 L149.226562,157.351562 L149.226562,155 C149.226562,154.416664 149.335936,153.979168 149.554688,153.6875 C149.846356,153.359373 150.338538,153.195312 151.03125,153.195312 L153,153.195312 L153,149.914062 C152.234371,149.804687 151.286464,149.75 150.15625,149.75 C148.697909,149.75 147.540369,150.178381 146.683594,151.035156 C145.826819,151.891931 145.398438,153.08593 145.398438,154.617188 L145.398438,157.351562 L142.0625,157.351562 L142.0625,161.070312 L145.398438,161.070312 L145.398438,170.75 L134.625,170.75 C133.89583,170.75 133.276044,170.494794 132.765625,169.984375 C132.255206,169.473956 132,168.85417 132,168.125 L132,148.875 C132,148.14583 132.255206,147.526044 132.765625,147.015625 C133.276044,146.505206 133.89583,146.25 134.625,146.25 L153.875,146.25 C154.60417,146.25 155.223956,146.505206 155.734375,147.015625 C156.244794,147.526044 156.5,148.14583 156.5,148.875 Z" id=""></path>
        </g>
    </g>
</svg>