<?xml version="1.0" encoding="UTF-8"?>
<svg width="160px" height="30px" viewBox="0 0 160 30" version="1.1" xmlns="http://www.w3.org/2000/svg" xmlns:xlink="http://www.w3.org/1999/xlink">
    <!-- Generator: Sketch 50.2 (55047) - http://www.bohemiancoding.com/sketch -->
    <title>Group 3</title>
    <desc>Created with Sketch.</desc>
    <defs></defs>
    <g id="Phase-2---Title-Setup" stroke="none" stroke-width="1" fill="none" fill-rule="evenodd">
        <g id="0.-Home" transform="translate(-51.000000, -15.000000)" fill="#FFFFFF">
            <g id="Group-3" transform="translate(51.000000, 15.000000)">
                <polygon id="Path" points="0.580688021 22.2580645 0.580688021 1.70322581 3.02432438 1.70322581 3.02432438 22.2580645"></polygon>
                <path d="M6.7339169,22.2580645 L6.7339169,11.8935484 C6.7339169,10.6451613 6.61755326,9.57096774 6.61755326,8.67096774 L8.77028054,8.67096774 C8.77028054,9.39677419 8.82846236,10.1516129 8.82846236,10.9064516 L8.88664417,10.9064516 C9.49755326,9.57096774 11.184826,8.32258065 13.424826,8.32258065 C17.0030078,8.32258065 18.6030078,10.5870968 18.6030078,13.8677419 L18.6030078,22.2580645 L16.3339169,22.2580645 L16.3339169,14.1 C16.3339169,11.8354839 15.344826,10.4129032 13.2211896,10.4129032 C10.2830078,10.4129032 9.00300781,12.5322581 9.00300781,15.6387097 L9.00300781,22.2580645 L6.7339169,22.2580645 Z" id="Path"></path>
                <path d="M35.4907821,8.67096774 L35.4907821,21.6483871 C35.4907821,26.5548387 32.8435094,29.2258065 28.0726003,29.2258065 C25.4253276,29.2258065 23.3016912,28.5290323 21.3816912,26.6419355 L23.0107821,24.783871 C24.4362367,26.3225806 25.9780549,27.1354839 28.0726003,27.1354839 C32.1453276,27.1354839 33.2216912,24.5225806 33.2216912,21.6483871 L33.2216912,19.9064516 L33.1635094,19.9064516 C32.0871458,21.6483871 30.1671458,22.4322581 28.3635094,22.4322581 C24.0871458,22.4322581 21.1198731,19.4709677 21.1198731,15.4645161 C21.1198731,11.0225806 24.028964,8.32258065 28.3635094,8.32258065 C30.1962367,8.32258065 32.2616912,9.19354839 33.1635094,10.9935484 L33.2216912,10.9935484 L33.2216912,8.67096774 L35.4907821,8.67096774 Z M23.5635094,15.4645161 C23.5635094,18.2225806 25.7162367,20.3419355 28.3635094,20.3419355 C31.4762367,20.3419355 33.2216912,18.0193548 33.2216912,15.4064516 C33.2216912,12.4741935 31.2435094,10.4129032 28.3635094,10.4129032 C25.5126003,10.4129032 23.5635094,12.6193548 23.5635094,15.4645161 Z" id="Combined-Shape"></path>
                <path d="M38.6767383,22.2580645 L38.6767383,11.8935484 C38.6767383,10.6451613 38.5603747,9.57096774 38.5603747,8.67096774 L40.7131019,8.67096774 C40.7131019,9.39677419 40.7712838,10.1516129 40.7712838,10.9064516 L40.8294656,10.9064516 C41.4403747,9.57096774 43.1276474,8.32258065 45.3676474,8.32258065 C45.6585565,8.32258065 45.9785565,8.3516129 46.2985565,8.46774194 L46.1531019,10.7612903 C45.7749201,10.6451613 45.3385565,10.5870968 44.9312838,10.5870968 C42.1676474,10.5870968 40.9458292,12.5322581 40.9458292,15.6387097 L40.9458292,22.2580645 L38.6767383,22.2580645 Z" id="Path"></path>
                <path d="M49.1645126,11.8935484 L47.7390581,10.4129032 C49.1354217,8.99032258 51.1717854,8.32258065 53.1499672,8.32258065 C57.1645126,8.32258065 58.8517854,10.2387097 58.8517854,14.0709677 L58.8517854,19.9064516 C58.8517854,20.6903226 58.9390581,21.5612903 59.0554217,22.2580645 L56.8736035,22.2580645 C56.728149,21.6483871 56.728149,20.8064516 56.728149,20.2258065 L56.6699672,20.2258065 C55.768149,21.6193548 54.2554217,22.6064516 52.1899672,22.6064516 C49.4263308,22.6064516 47.128149,21.2129032 47.128149,18.5709677 C47.128149,14.0709677 52.3645126,13.8096774 55.7099672,13.8096774 L56.5826945,13.8096774 L56.5826945,13.4032258 C56.5826945,11.4290323 55.3317854,10.4129032 53.208149,10.4129032 C51.7536035,10.4129032 50.2408763,10.9064516 49.1645126,11.8935484 Z M56.5826945,15.7258065 L54.3136035,15.7258065 C51.4336035,15.7258065 49.5717854,16.5096774 49.5717854,18.3387097 C49.5717854,20.0516129 50.8517854,20.6903226 52.568149,20.6903226 C55.1863308,20.6903226 56.5245126,18.8032258 56.5826945,16.5967742 L56.5826945,15.7258065 Z" id="Combined-Shape"></path>
                <path d="M62.0086506,22.2580645 L62.0086506,11.8935484 C62.0086506,10.6451613 61.892287,9.57096774 61.892287,8.67096774 L64.0450142,8.67096774 C64.0450142,9.39677419 64.1031961,10.1516129 64.1031961,10.9064516 L64.1613779,10.9064516 C64.772287,9.57096774 66.4595597,8.32258065 68.6995597,8.32258065 C71.6377415,8.32258065 72.5686506,9.97741935 73.0050142,10.9064516 C73.9941051,9.30967742 75.2450142,8.32258065 77.3104688,8.32258065 C81.2086506,8.32258065 82.4886506,10.5 82.4886506,14.0129032 L82.4886506,22.2580645 L80.2195597,22.2580645 L80.2195597,14.1290323 C80.2195597,12.2419355 79.5504688,10.4129032 76.9031961,10.4129032 C74.9831961,10.4129032 73.3831961,11.9806452 73.3831961,14.4193548 L73.3831961,22.2580645 L71.1141051,22.2580645 L71.1141051,14.5645161 C71.1141051,11.5741935 70.3577415,10.4129032 68.4959233,10.4129032 C65.5577415,10.4129032 64.2777415,12.5322581 64.2777415,15.6387097 L64.2777415,22.2580645 L62.0086506,22.2580645 Z" id="Path"></path>
                <path d="M97.9800613,3.59032258 L95.9727886,5.33225806 C95.1582431,4.02580645 93.7036977,3.44516129 92.2200613,3.44516129 C90.067334,3.44516129 87.827334,4.46129032 87.827334,6.9 C87.827334,8.78709677 88.8746068,9.62903226 92.1618795,10.6741935 C95.3618795,11.6903226 98.3291522,12.7354839 98.3291522,16.7709677 C98.3291522,20.8645161 94.8091522,22.7806452 91.0855158,22.7806452 C88.7000613,22.7806452 86.1400613,21.9967742 84.7436977,19.9354839 L86.8382431,18.2225806 C87.7109704,19.7322581 89.4564249,20.516129 91.2309704,20.516129 C93.3255158,20.516129 95.7109704,19.2967742 95.7109704,16.9451613 C95.7109704,14.4193548 93.9946068,13.983871 90.3291522,12.7645161 C87.4200613,11.8064516 85.2091522,10.5290323 85.2091522,7.10322581 C85.2091522,3.15483871 88.6127886,1.18064516 92.2200613,1.18064516 C94.5182431,1.18064516 96.467334,1.81935484 97.9800613,3.59032258 Z" id="Path"></path>
                <path d="M100.811427,28.8774194 L100.811427,8.67096774 L103.080517,8.67096774 L103.080517,10.6451613 L103.138699,10.6451613 C104.389608,9.19354839 106.04779,8.32258065 108.025972,8.32258065 C112.302336,8.32258065 115.182336,11.3419355 115.182336,15.4645161 C115.182336,19.5290323 112.185972,22.6064516 108.375063,22.6064516 C105.931427,22.6064516 103.982336,21.3870968 103.138699,19.8483871 L103.080517,19.8483871 L103.080517,28.8774194 L100.811427,28.8774194 Z M103.080517,15.4645161 C103.080517,18.3096774 104.971427,20.516129 107.909608,20.516129 C110.84779,20.516129 112.738699,18.3096774 112.738699,15.4645161 C112.738699,12.6193548 110.84779,10.4129032 107.909608,10.4129032 C104.971427,10.4129032 103.080517,12.6193548 103.080517,15.4645161 Z" id="Combined-Shape"></path>
                <path d="M118.915519,11.8935484 L117.490065,10.4129032 C118.886428,8.99032258 120.922792,8.32258065 122.900974,8.32258065 C126.915519,8.32258065 128.602792,10.2387097 128.602792,14.0709677 L128.602792,19.9064516 C128.602792,20.6903226 128.690065,21.5612903 128.806428,22.2580645 L126.62461,22.2580645 C126.479156,21.6483871 126.479156,20.8064516 126.479156,20.2258065 L126.420974,20.2258065 C125.519156,21.6193548 124.006428,22.6064516 121.940974,22.6064516 C119.177337,22.6064516 116.879156,21.2129032 116.879156,18.5709677 C116.879156,14.0709677 122.115519,13.8096774 125.460974,13.8096774 L126.333701,13.8096774 L126.333701,13.4032258 C126.333701,11.4290323 125.082792,10.4129032 122.959156,10.4129032 C121.50461,10.4129032 119.991883,10.9064516 118.915519,11.8935484 Z M126.333701,15.7258065 L124.06461,15.7258065 C121.18461,15.7258065 119.322792,16.5096774 119.322792,18.3387097 C119.322792,20.0516129 120.602792,20.6903226 122.319156,20.6903226 C124.937337,20.6903226 126.275519,18.8032258 126.333701,16.5967742 L126.333701,15.7258065 Z" id="Combined-Shape"></path>
                <path d="M131.725066,22.2580645 L131.725066,11.8935484 C131.725066,10.6451613 131.608703,9.57096774 131.608703,8.67096774 L133.76143,8.67096774 C133.76143,9.39677419 133.819612,10.1516129 133.819612,10.9064516 L133.877794,10.9064516 C134.488703,9.57096774 136.175975,8.32258065 138.415975,8.32258065 C138.706884,8.32258065 139.026884,8.3516129 139.346884,8.46774194 L139.20143,10.7612903 C138.823248,10.6451613 138.386884,10.5870968 137.979612,10.5870968 C135.215975,10.5870968 133.994157,12.5322581 133.994157,15.6387097 L133.994157,22.2580645 L131.725066,22.2580645 Z" id="Path"></path>
                <polygon id="Path" points="140.927341 22.2580645 140.927341 0.309677419 143.196432 0.309677419 143.196432 14.6516129 149.392795 8.67096774 152.621886 8.67096774 146.047341 14.8548387 153.290977 22.2580645 149.945522 22.2580645 143.196432 15.116129 143.196432 22.2580645"></polygon>
                <path d="M156.667166,10.4481 L156.978037,10.4481 C157.340629,10.4481 157.634798,10.3271211 157.634798,10.0340832 C157.634798,9.77599479 157.444612,9.60339816 157.030297,9.60339816 C156.857352,9.60339816 156.736129,9.62006637 156.667166,9.63673458 L156.667166,10.4481 Z M156.650464,12.0503989 L155.993703,12.0503989 L155.993703,9.22486849 C156.252313,9.17271312 156.615444,9.13722597 157.082558,9.13722597 C157.618096,9.13722597 157.858388,9.22486849 158.066353,9.34477207 C158.22098,9.46467564 158.341665,9.68888995 158.341665,9.96579731 C158.341665,10.2755034 158.099757,10.5169236 157.756021,10.6190836 L157.756021,10.6545708 C158.030794,10.7578061 158.187038,10.9642769 158.272702,11.3433442 C158.360522,11.7740293 158.410627,11.9466259 158.481206,12.0503989 L157.772723,12.0503989 C157.687059,11.9466259 157.634798,11.6885375 157.547517,11.3600124 C157.496873,11.0497686 157.323927,10.9126592 156.961335,10.9126592 L156.650464,10.9126592 L156.650464,12.0503989 Z M154.905387,10.5674659 C154.905387,11.8261846 155.839076,12.8252019 157.115962,12.8252019 C158.360522,12.8252019 159.274276,11.8261846 159.274276,10.5857472 C159.274276,9.32702849 158.360522,8.31080536 157.09926,8.31080536 C155.839076,8.31080536 154.905387,9.32702849 154.905387,10.5674659 Z M160,10.5674659 C160,12.1713779 158.740355,13.4284835 157.09926,13.4284835 C155.476484,13.4284835 154.181818,12.1713779 154.181818,10.5674659 C154.181818,9.0001165 155.476484,7.74193548 157.09926,7.74193548 C158.740355,7.74193548 160,9.0001165 160,10.5674659 Z" id="Fill-1"></path>
            </g>
        </g>
    </g>
</svg>