<?xml version="1.0" encoding="UTF-8"?>
<svg width="115px" height="20px" viewBox="0 0 115 20" version="1.1" xmlns="http://www.w3.org/2000/svg" xmlns:xlink="http://www.w3.org/1999/xlink">
    <!-- Generator: Sketch 50.2 (55047) - http://www.bohemiancoding.com/sketch -->
    <title>Page 1</title>
    <desc>Created with Sketch.</desc>
    <defs>
        <polygon id="path-1" points="0.181258079 0.179591837 19.0322177 0.179591837 19.0322177 19.1029885 0.181258079 19.1029885"></polygon>
        <polygon id="path-3" points="0.371410442 0.337007986 3.41691587 0.337007986 3.41691587 3.49821473 0.371410442 3.49821473"></polygon>
    </defs>
    <g id="CoreSource" stroke="none" stroke-width="1" fill="none" fill-rule="evenodd">
        <g id="Desktop-2a-Copy" transform="translate(-51.000000, -20.000000)">
            <g id="Page-1" transform="translate(51.000000, 20.000000)">
                <polygon id="Fill-1" fill="#FFFFFF" points="0 18.1818182 3.625 18.1818182 3.625 0 0 0"></polygon>
                <polygon id="Fill-2" fill="#FFFFFF" points="22.8998171 0 22.8998171 14.2782922 14.4316057 0 7.25 0 7.25 18.1818182 11.536555 18.1818182 11.536555 3.47588618 20.4867735 18.1818182 27.1875 18.1818182 27.1875 0"></polygon>
                <g id="Group-11" transform="translate(29.000000, 0.000000)">
                    <path d="M48.2059003,3.74214729 L51.3154706,10.0321562 L45.148244,10.0321562 L48.2059003,3.74214729 Z M32.2506374,8.19368234 L24.9183565,8.19368234 L24.9315231,3.74214729 L32.3871937,3.74214729 C35.4963877,3.74214729 35.7108149,8.19368234 32.2506374,8.19368234 Z M66.2241784,0.179591837 L58.824936,0.179591837 L58.824936,16.4877019 L50.9927012,0.179591837 L45.6308933,0.179591837 L37.9088816,16.320213 L33.4856627,11.7550665 C40.1611193,11.7550665 40.6983158,0.179591837 32.7069535,0.179591837 L20.6414748,0.179591837 L20.6414748,19.1031056 L24.9315231,19.1031056 L24.9315231,11.7550665 L27.9335036,11.7550665 L35.0400717,19.1304348 L40.910862,19.1304348 L43.6461252,13.4264419 L52.7111282,13.4264419 L55.5524764,19.1031056 L63.1153605,19.1031056 L63.1153605,4.46598048 L67.4569466,19.1031056 L73.840105,19.1031056 L77.913469,5.07737356 L77.913469,19.1031056 L82.2035173,19.1031056 L82.2035173,0.179591837 L75.1797106,0.179591837 L70.7301586,15.541331 L66.2241784,0.179591837 Z" id="Fill-3" fill="#FFFFFF"></path>
                    <g id="Group-7">
                        <mask id="mask-2" fill="white">
                            <use xlink:href="#path-1"></use>
                        </mask>
                        <g id="Clip-6"></g>
                        <path d="M19.0322177,19.1029885 L19.0322177,8.19395563 L8.41355814,8.19395563 L8.41355814,11.7553398 L14.7948357,11.7553398 L14.7948357,15.3198474 L9.86263443,15.3198474 C2.40508293,15.3198474 2.40508293,3.74203017 10.1308565,3.74203017 L19.0322177,3.74203017 L19.0322177,0.179474712 L9.64707869,0.179474712 C-3.12375254,0.179474712 -2.96387263,19.1029885 10.075933,19.1029885 L19.0322177,19.1029885 Z" id="Fill-5" fill="#FFFFFF" mask="url(#mask-2)"></path>
                    </g>
                    <g id="Group-10" transform="translate(82.385179, 15.616681)">
                        <mask id="mask-4" fill="white">
                            <use xlink:href="#path-3"></use>
                        </mask>
                        <g id="Clip-9"></g>
                        <path d="M1.49207458,1.83503815 L1.81333916,1.83503815 C1.96757625,1.83503815 2.07178034,1.81122272 2.12595141,1.76398225 C2.18162724,1.71674179 2.20908897,1.65466548 2.20908897,1.57502041 C2.20908897,1.52582786 2.19592239,1.47936823 2.16958922,1.43876486 C2.14250369,1.39972316 2.10488488,1.37044188 2.05861376,1.35170186 C2.00895694,1.33179059 1.92092894,1.322811 1.79189644,1.322811 L1.49207458,1.322811 L1.49207458,1.83503815 Z M1.22648583,2.78999823 L1.22648583,1.09051287 L1.79076788,1.09051287 C1.98375234,1.09051287 2.12218953,1.10847205 2.20833659,1.1416575 C2.29485984,1.17132919 2.36294987,1.22442591 2.41335907,1.3044614 C2.4656492,1.38098314 2.4908538,1.46453239 2.4908538,1.5519858 C2.4908538,1.67730967 2.44646361,1.78467436 2.36294987,1.87603194 C2.27868375,1.9689512 2.16357022,2.02126708 2.02325208,2.03180834 C2.08005647,2.05718545 2.12595141,2.08763798 2.15867977,2.12238509 C2.22714599,2.18914641 2.30990736,2.30158651 2.4028258,2.45814374 L2.60182927,2.78999823 L2.27943613,2.78999823 L2.13347517,2.52412422 C2.02212352,2.31525111 1.9314622,2.18055723 1.8592341,2.12824135 C1.81108203,2.08959006 1.73960631,2.06928838 1.64668786,2.06928838 L1.49207458,2.06928838 L1.49207458,2.78999823 L1.22648583,2.78999823 Z M1.89497196,0.598196983 C1.67979241,0.598196983 1.47213662,0.657149956 1.27087602,0.769590062 C1.06886305,0.882811003 0.90823076,1.04717657 0.796502915,1.25761136 C0.68101319,1.46882697 0.624584986,1.68902218 0.624584986,1.9185874 C0.624584986,2.14502928 0.68101319,2.36366282 0.793869599,2.57253594 C0.905597444,2.78218988 1.0609631,2.94265129 1.26335226,3.0621189 C1.46536523,3.17768234 1.67603053,3.23702573 1.89497196,3.23702573 C2.11541815,3.23702573 2.32608344,3.17768234 2.52508691,3.0621189 C2.72822845,2.94265129 2.88472267,2.78218988 2.9968267,2.57253594 C3.10667361,2.36366282 3.163478,2.14502928 3.163478,1.9185874 C3.163478,1.68902218 3.10592123,1.46882697 2.9938172,1.25761136 C2.87945604,1.04717657 2.72183325,0.882811003 2.51944409,0.769590062 C2.31555018,0.657149956 2.10902295,0.598196983 1.89497196,0.598196983 Z M1.89497196,0.337007986 C2.15040363,0.337007986 2.40094486,0.406111801 2.64320995,0.541196096 C2.88848455,0.677842059 3.07657856,0.871879326 3.21313482,1.12604082 C3.3489387,1.3778598 3.41702873,1.64412422 3.41702873,1.9185874 C3.41702873,2.19109849 3.3489387,2.45111624 3.2168967,2.70332564 C3.08146901,2.95553505 2.89337499,3.15035315 2.65336703,3.28934161 C2.41034956,3.42793966 2.15830358,3.49821473 1.89497196,3.49821473 C1.63126415,3.49821473 1.37921817,3.42793966 1.13732927,3.28934161 C0.897321307,3.15035315 0.708474917,2.95553505 0.572671038,2.70332564 C0.440629039,2.45111624 0.371410442,2.19109849 0.371410442,1.9185874 C0.371410442,1.64412422 0.440629039,1.3778598 0.575304354,1.12604082 C0.712989173,0.871879326 0.90446888,0.677842059 1.14748635,0.541196096 C1.39125619,0.406111801 1.6391641,0.337007986 1.89497196,0.337007986 Z" id="Fill-8" fill="#FFFFFF" mask="url(#mask-4)"></path>
                    </g>
                </g>
            </g>
        </g>
    </g>
</svg>