<?xml version="1.0" encoding="UTF-8"?>
<svg width="25px" height="25px" viewBox="0 0 25 25" version="1.1" xmlns="http://www.w3.org/2000/svg" xmlns:xlink="http://www.w3.org/1999/xlink">
    <!-- Generator: Sketch 53.2 (72643) - https://sketchapp.com -->
    <title></title>
    <desc>Created with Sketch.</desc>
    <g id="Page-1" stroke="none" stroke-width="1" fill="none" fill-rule="evenodd">
        <g id="Artboard" transform="translate(-231.000000, -146.000000)" fill="#FFFFFF" fill-rule="nonzero">
            <path d="M243.25,152.210938 C244.380214,152.210938 245.428381,152.493487 246.394531,153.058594 C247.360682,153.623701 248.126299,154.389318 248.691406,155.355469 C249.256513,156.321619 249.539062,157.369786 249.539062,158.5 C249.539062,159.630214 249.256513,160.678381 248.691406,161.644531 C248.126299,162.610682 247.360682,163.376299 246.394531,163.941406 C245.428381,164.506513 244.380214,164.789062 243.25,164.789062 C242.119786,164.789062 241.071619,164.506513 240.105469,163.941406 C239.139318,163.376299 238.373701,162.610682 237.808594,161.644531 C237.243487,160.678381 236.960938,159.630214 236.960938,158.5 C236.960938,157.369786 237.243487,156.321619 237.808594,155.355469 C238.373701,154.389318 239.139318,153.623701 240.105469,153.058594 C241.071619,152.493487 242.119786,152.210938 243.25,152.210938 Z M243.25,162.601562 C244.380214,162.601562 245.34635,162.200525 246.148438,161.398438 C246.950525,160.59635 247.351562,159.630214 247.351562,158.5 C247.351562,157.369786 246.950525,156.40365 246.148438,155.601562 C245.34635,154.799475 244.380214,154.398438 243.25,154.398438 C242.119786,154.398438 241.15365,154.799475 240.351562,155.601562 C239.549475,156.40365 239.148438,157.369786 239.148438,158.5 C239.148438,159.630214 239.549475,160.59635 240.351562,161.398438 C241.15365,162.200525 242.119786,162.601562 243.25,162.601562 Z M251.289062,151.9375 C251.252604,152.338544 251.097658,152.684894 250.824219,152.976562 C250.55078,153.268231 250.213544,153.414062 249.8125,153.414062 C249.411456,153.414062 249.065106,153.268231 248.773438,152.976562 C248.481769,152.684894 248.335938,152.338544 248.335938,151.9375 C248.335938,151.536456 248.481769,151.190106 248.773438,150.898438 C249.065106,150.606769 249.411456,150.460938 249.8125,150.460938 C250.213544,150.460938 250.559894,150.606769 250.851562,150.898438 C251.143231,151.190106 251.289062,151.536456 251.289062,151.9375 Z M255.445312,153.414062 C255.481771,154.434901 255.5,156.130196 255.5,158.5 C255.5,160.869804 255.472657,162.574214 255.417969,163.613281 C255.363281,164.652349 255.208335,165.554684 254.953125,166.320312 C254.624998,167.231775 254.123701,168.024736 253.449219,168.699219 C252.774736,169.373701 251.981775,169.874998 251.070312,170.203125 C250.304684,170.458335 249.402349,170.613281 248.363281,170.667969 C247.324214,170.722657 245.619804,170.75 243.25,170.75 C240.880196,170.75 239.175786,170.722657 238.136719,170.667969 C237.097651,170.613281 236.195316,170.440106 235.429688,170.148438 C234.518225,169.856769 233.725264,169.373701 233.050781,168.699219 C232.376299,168.024736 231.875002,167.231775 231.546875,166.320312 C231.291665,165.554684 231.136719,164.652349 231.082031,163.613281 C231.027343,162.574214 231,160.869804 231,158.5 C231,156.130196 231.027343,154.425786 231.082031,153.386719 C231.136719,152.347651 231.291665,151.445316 231.546875,150.679688 C231.875002,149.768225 232.376299,148.975264 233.050781,148.300781 C233.725264,147.626299 234.518225,147.125002 235.429688,146.796875 C236.195316,146.541665 237.097651,146.386719 238.136719,146.332031 C239.175786,146.277343 240.880196,146.25 243.25,146.25 C245.619804,146.25 247.324214,146.277343 248.363281,146.332031 C249.402349,146.386719 250.304684,146.541665 251.070312,146.796875 C251.981775,147.125002 252.774736,147.626299 253.449219,148.300781 C254.123701,148.975264 254.624998,149.768225 254.953125,150.679688 C255.208335,151.445316 255.372395,152.356766 255.445312,153.414062 Z M252.820312,165.71875 C253.039064,165.098955 253.184895,164.11459 253.257812,162.765625 C253.294271,161.963538 253.3125,160.833341 253.3125,159.375 L253.3125,157.625 C253.3125,156.130201 253.294271,155.000004 253.257812,154.234375 C253.184895,152.848951 253.039064,151.864586 252.820312,151.28125 C252.38281,150.151036 251.598964,149.36719 250.46875,148.929688 C249.885414,148.710936 248.901049,148.565105 247.515625,148.492188 C246.713538,148.455729 245.583341,148.4375 244.125,148.4375 L242.375,148.4375 C240.916659,148.4375 239.786462,148.455729 238.984375,148.492188 C237.63541,148.565105 236.651045,148.710936 236.03125,148.929688 C234.901036,149.36719 234.11719,150.151036 233.679688,151.28125 C233.460936,151.864586 233.315105,152.848951 233.242188,154.234375 C233.205729,155.036462 233.1875,156.166659 233.1875,157.625 L233.1875,159.375 C233.1875,160.833341 233.205729,161.963538 233.242188,162.765625 C233.315105,164.11459 233.460936,165.098955 233.679688,165.71875 C234.153648,166.848964 234.937495,167.63281 236.03125,168.070312 C236.651045,168.289064 237.63541,168.434895 238.984375,168.507812 C239.786462,168.544271 240.916659,168.5625 242.375,168.5625 L244.125,168.5625 C245.619799,168.5625 246.749996,168.544271 247.515625,168.507812 C248.901049,168.434895 249.885414,168.289064 250.46875,168.070312 C251.598964,167.596352 252.38281,166.812505 252.820312,165.71875 Z" id=""></path>
        </g>
    </g>
</svg>