<?xml version="1.0" encoding="UTF-8"?>
<svg width="43px" height="58px" viewBox="0 0 43 58" version="1.1" xmlns="http://www.w3.org/2000/svg" xmlns:xlink="http://www.w3.org/1999/xlink">
    <!-- Generator: Sketch 51.3 (57544) - http://www.bohemiancoding.com/sketch -->
    <title>Group 3</title>
    <desc>Created with Sketch.</desc>
    <defs></defs>
    <g id="Page-1" stroke="none" stroke-width="1" fill="none" fill-rule="evenodd">
        <g id="Lightning-Source-Log-In-Copy" transform="translate(-594.000000, -287.000000)" stroke="#FFFFFF" stroke-width="1.5">
            <g id="Group-3" transform="translate(595.000000, 288.000000)">
                <g id="Group-8">
                    <g id="Group-19">
                        <path d="M2.7311522,2.73189189 L28.8,2.73283517" id="Stroke-1"></path>
                        <g id="Group-18">
                            <path d="M4.55192034,44.3285917 L10,44.3285917 C9.9677979,24.5483165 9.9677979,14.1054526 10,13 C10.0483031,11.3418211 11,11 13,11 C14.3333333,11 20.1659554,11 30.4978663,11 L30.4978663,5.63726885 L4.55192034,5.63726885 L4.55192034,44.3285917 Z" id="Stroke-2"></path>
                            <path d="M30.2702703,5.63726885 L2.04836415,5.63726885 C0.921763869,5.63726885 0,4.36888336 0,2.81863442 C0,1.26838549 0.921763869,0 2.04836415,0 L30.2702703,0" id="Stroke-4"></path>
                            <path d="M30.7254623,5.63726885 C29.598862,5.63726885 28.6770982,4.36888336 28.6770982,2.81863442 C28.6770982,1.26838549 29.598862,0 30.7254623,0" id="Stroke-5"></path>
                            <path d="M4.55192034,44.3285917 L1.82076814,44.3285917 C1.82076814,44.3285917 0,44.7837838 0,42.9630156 L0,3.36130868" id="Stroke-6"></path>
                        </g>
                        <g id="Group-3" transform="translate(10.000000, 11.000000)">
                            <g id="Group-8">
                                <g id="Group-19">
                                    <path d="M2.7311522,2.73189189 L28.8,2.73283517" id="Stroke-1"></path>
                                    <g id="Group-18">
                                        <polygon id="Stroke-2" points="4.55192034 44.3285917 30.4978663 44.3285917 30.4978663 5.63726885 4.55192034 5.63726885"></polygon>
                                        <path d="M30.2702703,5.63726885 L2.04836415,5.63726885 C0.921763869,5.63726885 0,4.36888336 0,2.81863442 C0,1.26838549 0.921763869,0 2.04836415,0 L30.2702703,0" id="Stroke-4"></path>
                                        <path d="M30.7254623,5.63726885 C29.598862,5.63726885 28.6770982,4.36888336 28.6770982,2.81863442 C28.6770982,1.26838549 29.598862,0 30.7254623,0" id="Stroke-5"></path>
                                        <path d="M4.55192034,44.3285917 L1.82076814,44.3285917 C1.82076814,44.3285917 0,44.7837838 0,42.9630156 L0,3.36130868" id="Stroke-6"></path>
                                    </g>
                                </g>
                            </g>
                        </g>
                        <path d="M12,14 L38.0688478,14.0009433" id="Stroke-1"></path>
                        <g id="Group-18" transform="translate(10.000000, 11.000000)">
                            <polygon id="Stroke-2" points="4.55192034 44.3285917 30.4978663 44.3285917 30.4978663 5.63726885 4.55192034 5.63726885"></polygon>
                            <path d="M30.2702703,5.63726885 L2.04836415,5.63726885 C0.921763869,5.63726885 0,4.36888336 0,2.81863442 C0,1.26838549 0.921763869,0 2.04836415,0 L30.2702703,0" id="Stroke-4"></path>
                            <path d="M30.7254623,5.63726885 C29.598862,5.63726885 28.6770982,4.36888336 28.6770982,2.81863442 C28.6770982,1.26838549 29.598862,0 30.7254623,0" id="Stroke-5"></path>
                            <path d="M4.55192034,44.3285917 L1.82076814,44.3285917 C1.82076814,44.3285917 0,44.7837838 0,42.9630156 L0,3.36130868" id="Stroke-6"></path>
                        </g>
                    </g>
                </g>
            </g>
        </g>
    </g>
</svg>