<?xml version="1.0" encoding="UTF-8"?>
<svg width="274px" height="20px" viewBox="0 0 274 20" version="1.1" xmlns="http://www.w3.org/2000/svg" xmlns:xlink="http://www.w3.org/1999/xlink">
    <!-- Generator: Sketch 51.3 (57544) - http://www.bohemiancoding.com/sketch -->
    <title>Group</title>
    <desc>Created with Sketch.</desc>
    <defs>
        <polygon id="path-1" points="0.181258079 0.179591837 19.0322177 0.179591837 19.0322177 19.1029885 0.181258079 19.1029885"></polygon>
        <polygon id="path-3" points="0.371410442 0.337007986 3.41691587 0.337007986 3.41691587 3.49821473 0.371410442 3.49821473"></polygon>
    </defs>
    <g id="Phase-2---Title-Setup" stroke="none" stroke-width="1" fill="none" fill-rule="evenodd">
        <g id="25.-Add-a-Book---Payment" transform="translate(-51.000000, -20.000000)">
            <g id="Group" transform="translate(51.000000, 20.000000)">
                <g id="Page-1">
                    <polygon id="Fill-1" fill="#FFFFFF" points="0 18.1818182 3.625 18.1818182 3.625 0 0 0"></polygon>
                    <polygon id="Fill-2" fill="#FFFFFF" points="22.8998171 0 22.8998171 14.2782922 14.4316057 0 7.25 0 7.25 18.1818182 11.536555 18.1818182 11.536555 3.47588618 20.4867735 18.1818182 27.1875 18.1818182 27.1875 0"></polygon>
                    <g id="Group-11" transform="translate(29.000000, 0.000000)">
                        <path d="M48.2059003,3.74214729 L51.3154706,10.0321562 L45.148244,10.0321562 L48.2059003,3.74214729 Z M32.2506374,8.19368234 L24.9183565,8.19368234 L24.9315231,3.74214729 L32.3871937,3.74214729 C35.4963877,3.74214729 35.7108149,8.19368234 32.2506374,8.19368234 Z M66.2241784,0.179591837 L58.824936,0.179591837 L58.824936,16.4877019 L50.9927012,0.179591837 L45.6308933,0.179591837 L37.9088816,16.320213 L33.4856627,11.7550665 C40.1611193,11.7550665 40.6983158,0.179591837 32.7069535,0.179591837 L20.6414748,0.179591837 L20.6414748,19.1031056 L24.9315231,19.1031056 L24.9315231,11.7550665 L27.9335036,11.7550665 L35.0400717,19.1304348 L40.910862,19.1304348 L43.6461252,13.4264419 L52.7111282,13.4264419 L55.5524764,19.1031056 L63.1153605,19.1031056 L63.1153605,4.46598048 L67.4569466,19.1031056 L73.840105,19.1031056 L77.913469,5.07737356 L77.913469,19.1031056 L82.2035173,19.1031056 L82.2035173,0.179591837 L75.1797106,0.179591837 L70.7301586,15.541331 L66.2241784,0.179591837 Z" id="Fill-3" fill="#FFFFFF"></path>
                        <g id="Group-7">
                            <mask id="mask-2" fill="white">
                                <use xlink:href="#path-1"></use>
                            </mask>
                            <g id="Clip-6"></g>
                            <path d="M19.0322177,19.1029885 L19.0322177,8.19395563 L8.41355814,8.19395563 L8.41355814,11.7553398 L14.7948357,11.7553398 L14.7948357,15.3198474 L9.86263443,15.3198474 C2.40508293,15.3198474 2.40508293,3.74203017 10.1308565,3.74203017 L19.0322177,3.74203017 L19.0322177,0.179474712 L9.64707869,0.179474712 C-3.12375254,0.179474712 -2.96387263,19.1029885 10.075933,19.1029885 L19.0322177,19.1029885 Z" id="Fill-5" fill="#FFFFFF" mask="url(#mask-2)"></path>
                        </g>
                        <g id="Group-10" transform="translate(82.385179, 15.616681)">
                            <mask id="mask-4" fill="white">
                                <use xlink:href="#path-3"></use>
                            </mask>
                            <g id="Clip-9"></g>
                            <path d="M1.49207458,1.83503815 L1.81333916,1.83503815 C1.96757625,1.83503815 2.07178034,1.81122272 2.12595141,1.76398225 C2.18162724,1.71674179 2.20908897,1.65466548 2.20908897,1.57502041 C2.20908897,1.52582786 2.19592239,1.47936823 2.16958922,1.43876486 C2.14250369,1.39972316 2.10488488,1.37044188 2.05861376,1.35170186 C2.00895694,1.33179059 1.92092894,1.322811 1.79189644,1.322811 L1.49207458,1.322811 L1.49207458,1.83503815 Z M1.22648583,2.78999823 L1.22648583,1.09051287 L1.79076788,1.09051287 C1.98375234,1.09051287 2.12218953,1.10847205 2.20833659,1.1416575 C2.29485984,1.17132919 2.36294987,1.22442591 2.41335907,1.3044614 C2.4656492,1.38098314 2.4908538,1.46453239 2.4908538,1.5519858 C2.4908538,1.67730967 2.44646361,1.78467436 2.36294987,1.87603194 C2.27868375,1.9689512 2.16357022,2.02126708 2.02325208,2.03180834 C2.08005647,2.05718545 2.12595141,2.08763798 2.15867977,2.12238509 C2.22714599,2.18914641 2.30990736,2.30158651 2.4028258,2.45814374 L2.60182927,2.78999823 L2.27943613,2.78999823 L2.13347517,2.52412422 C2.02212352,2.31525111 1.9314622,2.18055723 1.8592341,2.12824135 C1.81108203,2.08959006 1.73960631,2.06928838 1.64668786,2.06928838 L1.49207458,2.06928838 L1.49207458,2.78999823 L1.22648583,2.78999823 Z M1.89497196,0.598196983 C1.67979241,0.598196983 1.47213662,0.657149956 1.27087602,0.769590062 C1.06886305,0.882811003 0.90823076,1.04717657 0.796502915,1.25761136 C0.68101319,1.46882697 0.624584986,1.68902218 0.624584986,1.9185874 C0.624584986,2.14502928 0.68101319,2.36366282 0.793869599,2.57253594 C0.905597444,2.78218988 1.0609631,2.94265129 1.26335226,3.0621189 C1.46536523,3.17768234 1.67603053,3.23702573 1.89497196,3.23702573 C2.11541815,3.23702573 2.32608344,3.17768234 2.52508691,3.0621189 C2.72822845,2.94265129 2.88472267,2.78218988 2.9968267,2.57253594 C3.10667361,2.36366282 3.163478,2.14502928 3.163478,1.9185874 C3.163478,1.68902218 3.10592123,1.46882697 2.9938172,1.25761136 C2.87945604,1.04717657 2.72183325,0.882811003 2.51944409,0.769590062 C2.31555018,0.657149956 2.10902295,0.598196983 1.89497196,0.598196983 Z M1.89497196,0.337007986 C2.15040363,0.337007986 2.40094486,0.406111801 2.64320995,0.541196096 C2.88848455,0.677842059 3.07657856,0.871879326 3.21313482,1.12604082 C3.3489387,1.3778598 3.41702873,1.64412422 3.41702873,1.9185874 C3.41702873,2.19109849 3.3489387,2.45111624 3.2168967,2.70332564 C3.08146901,2.95553505 2.89337499,3.15035315 2.65336703,3.28934161 C2.41034956,3.42793966 2.15830358,3.49821473 1.89497196,3.49821473 C1.63126415,3.49821473 1.37921817,3.42793966 1.13732927,3.28934161 C0.897321307,3.15035315 0.708474917,2.95553505 0.572671038,2.70332564 C0.440629039,2.45111624 0.371410442,2.19109849 0.371410442,1.9185874 C0.371410442,1.64412422 0.440629039,1.3778598 0.575304354,1.12604082 C0.712989173,0.871879326 0.90446888,0.677842059 1.14748635,0.541196096 C1.39125619,0.406111801 1.6391641,0.337007986 1.89497196,0.337007986 Z" id="Fill-8" fill="#FFFFFF" mask="url(#mask-4)"></path>
                        </g>
                    </g>
                </g>
                <path d="M136,15.6757812 L136,2.82617188 L137.494141,2.82617188 L137.494141,14.3222656 L143.163086,14.3222656 L143.163086,15.6757812 L136,15.6757812 Z M146.582031,15.6757812 L145.123047,15.6757812 L145.123047,6.04296875 L146.582031,6.04296875 L146.582031,15.6757812 Z M145,3.43261719 C145,3.09863114 145.08203,2.85400468 145.246094,2.69873047 C145.410157,2.54345625 145.615233,2.46582031 145.861328,2.46582031 C146.095704,2.46582031 146.297851,2.54492108 146.467773,2.703125 C146.637696,2.86132892 146.722656,3.10449055 146.722656,3.43261719 C146.722656,3.76074383 146.637696,4.00537029 146.467773,4.16650391 C146.297851,4.32763752 146.095704,4.40820312 145.861328,4.40820312 C145.615233,4.40820312 145.410157,4.32763752 145.246094,4.16650391 C145.08203,4.00537029 145,3.76074383 145,3.43261719 Z M157.55957,6.04296875 L157.55957,6.96582031 L155.775391,7.17675781 C155.939454,7.38183696 156.085937,7.64990069 156.214844,7.98095703 C156.343751,8.31201337 156.408203,8.68554479 156.408203,9.1015625 C156.408203,10.0449266 156.085941,10.7978487 155.441406,11.3603516 C154.796872,11.9228544 153.912115,12.2041016 152.787109,12.2041016 C152.499999,12.2041016 152.23047,12.1806643 151.978516,12.1337891 C151.357419,12.4619157 151.046875,12.8749975 151.046875,13.3730469 C151.046875,13.6367201 151.155272,13.8315423 151.37207,13.9575195 C151.588868,14.0834967 151.960935,14.1464844 152.488281,14.1464844 L154.193359,14.1464844 C155.236333,14.1464844 156.037595,14.3662087 156.597168,14.8056641 C157.156741,15.2451194 157.436523,15.8837849 157.436523,16.7216797 C157.436523,17.7880913 157.008793,18.6010714 156.15332,19.1606445 C155.297847,19.7202176 154.049813,20 152.40918,20 C151.149408,20 150.178226,19.7656273 149.495605,19.296875 C148.812985,18.8281227 148.47168,18.1660199 148.47168,17.3105469 C148.47168,16.7246064 148.659178,16.2177756 149.03418,15.7900391 C149.409182,15.3623025 149.93652,15.0722664 150.616211,14.9199219 C150.370116,14.8085932 150.163575,14.6357434 149.996582,14.4013672 C149.829589,14.166991 149.746094,13.8945328 149.746094,13.5839844 C149.746094,13.2324201 149.839843,12.924806 150.027344,12.6611328 C150.214845,12.3974596 150.51074,12.1425794 150.915039,11.8964844 C150.41699,11.6914052 150.011232,11.3427759 149.697754,10.8505859 C149.384276,10.358396 149.227539,9.7959016 149.227539,9.16308594 C149.227539,8.10839316 149.543942,7.29541301 150.176758,6.72412109 C150.809573,6.15282917 151.706049,5.8671875 152.866211,5.8671875 C153.37012,5.8671875 153.824217,5.92578066 154.228516,6.04296875 L157.55957,6.04296875 Z M149.87793,17.2929688 C149.87793,17.8144557 150.097654,18.2099596 150.537109,18.4794922 C150.976565,18.7490248 151.606441,18.8837891 152.426758,18.8837891 C153.651373,18.8837891 154.558103,18.7006854 155.146973,18.3344727 C155.735843,17.9682599 156.030273,17.4716828 156.030273,16.8447266 C156.030273,16.3232396 155.869142,15.9614268 155.546875,15.7592773 C155.224608,15.5571279 154.618169,15.4560547 153.727539,15.4560547 L151.978516,15.4560547 C151.316403,15.4560547 150.800783,15.6142562 150.431641,15.9306641 C150.062498,16.2470719 149.87793,16.7011689 149.87793,17.2929688 Z M150.668945,9.12792969 C150.668945,9.80176118 150.859373,10.3115217 151.240234,10.6572266 C151.621096,11.0029314 152.151364,11.1757812 152.831055,11.1757812 C154.25489,11.1757812 154.966797,10.4843819 154.966797,9.1015625 C154.966797,7.65428964 154.246101,6.93066406 152.804688,6.93066406 C152.119137,6.93066406 151.591799,7.11523253 151.222656,7.484375 C150.853514,7.85351747 150.668945,8.40136355 150.668945,9.12792969 Z M166.128906,15.6757812 L166.128906,9.44433594 C166.128906,8.65917576 165.950197,8.07324412 165.592773,7.68652344 C165.23535,7.29980275 164.675785,7.10644531 163.914062,7.10644531 C162.900386,7.10644531 162.160647,7.38183318 161.694824,7.93261719 C161.229002,8.48340119 160.996094,9.38573592 160.996094,10.6396484 L160.996094,15.6757812 L159.537109,15.6757812 L159.537109,2 L160.996094,2 L160.996094,6.13964844 C160.996094,6.6376978 160.972656,7.05077961 160.925781,7.37890625 L161.013672,7.37890625 C161.300783,6.91601331 161.70947,6.55127086 162.239746,6.28466797 C162.770022,6.01806507 163.374997,5.88476562 164.054688,5.88476562 C165.232428,5.88476562 166.11572,6.16454798 166.70459,6.72412109 C167.29346,7.2836942 167.587891,8.17284547 167.587891,9.39160156 L167.587891,15.6757812 L166.128906,15.6757812 Z M173.696289,14.6474609 C173.954103,14.6474609 174.203124,14.6284182 174.443359,14.590332 C174.683595,14.5522459 174.874023,14.5126955 175.014648,14.4716797 L175.014648,15.5878906 C174.856445,15.6640629 174.623537,15.7270505 174.315918,15.7768555 C174.008299,15.8266604 173.731447,15.8515625 173.485352,15.8515625 C171.622061,15.8515625 170.69043,14.870127 170.69043,12.9072266 L170.69043,7.17675781 L169.310547,7.17675781 L169.310547,6.47363281 L170.69043,5.8671875 L171.305664,3.81054688 L172.149414,3.81054688 L172.149414,6.04296875 L174.944336,6.04296875 L174.944336,7.17675781 L172.149414,7.17675781 L172.149414,12.8457031 C172.149414,13.4257842 172.287108,13.8710922 172.5625,14.1816406 C172.837892,14.4921891 173.215818,14.6474609 173.696289,14.6474609 Z M183.53125,15.6757812 L183.53125,9.44433594 C183.53125,8.65917576 183.352541,8.07324412 182.995117,7.68652344 C182.637694,7.29980275 182.078129,7.10644531 181.316406,7.10644531 C180.308589,7.10644531 179.570315,7.37890353 179.101562,7.92382812 C178.63281,8.46875272 178.398438,9.36815779 178.398438,10.6220703 L178.398438,15.6757812 L176.939453,15.6757812 L176.939453,6.04296875 L178.125977,6.04296875 L178.363281,7.36132812 L178.433594,7.36132812 C178.732423,6.88671638 179.151364,6.51904427 179.69043,6.25830078 C180.229495,5.99755729 180.830075,5.8671875 181.492188,5.8671875 C182.65235,5.8671875 183.525388,6.14696986 184.111328,6.70654297 C184.697269,7.26611608 184.990234,8.16112666 184.990234,9.39160156 L184.990234,15.6757812 L183.53125,15.6757812 Z M189.446289,15.6757812 L187.987305,15.6757812 L187.987305,6.04296875 L189.446289,6.04296875 L189.446289,15.6757812 Z M187.864258,3.43261719 C187.864258,3.09863114 187.946288,2.85400468 188.110352,2.69873047 C188.274415,2.54345625 188.479491,2.46582031 188.725586,2.46582031 C188.959962,2.46582031 189.162109,2.54492108 189.332031,2.703125 C189.501954,2.86132892 189.586914,3.10449055 189.586914,3.43261719 C189.586914,3.76074383 189.501954,4.00537029 189.332031,4.16650391 C189.162109,4.32763752 188.959962,4.40820312 188.725586,4.40820312 C188.479491,4.40820312 188.274415,4.32763752 188.110352,4.16650391 C187.946288,4.00537029 187.864258,3.76074383 187.864258,3.43261719 Z M199.131836,15.6757812 L199.131836,9.44433594 C199.131836,8.65917576 198.953127,8.07324412 198.595703,7.68652344 C198.238279,7.29980275 197.678715,7.10644531 196.916992,7.10644531 C195.909175,7.10644531 195.170901,7.37890353 194.702148,7.92382812 C194.233396,8.46875272 193.999023,9.36815779 193.999023,10.6220703 L193.999023,15.6757812 L192.540039,15.6757812 L192.540039,6.04296875 L193.726562,6.04296875 L193.963867,7.36132812 L194.03418,7.36132812 C194.333009,6.88671638 194.75195,6.51904427 195.291016,6.25830078 C195.830081,5.99755729 196.430661,5.8671875 197.092773,5.8671875 C198.252935,5.8671875 199.125974,6.14696986 199.711914,6.70654297 C200.297854,7.26611608 200.59082,8.16112666 200.59082,9.39160156 L200.59082,15.6757812 L199.131836,15.6757812 Z M211.47168,6.04296875 L211.47168,6.96582031 L209.6875,7.17675781 C209.851563,7.38183696 209.998046,7.64990069 210.126953,7.98095703 C210.25586,8.31201337 210.320312,8.68554479 210.320312,9.1015625 C210.320312,10.0449266 209.99805,10.7978487 209.353516,11.3603516 C208.708981,11.9228544 207.824224,12.2041016 206.699219,12.2041016 C206.412108,12.2041016 206.142579,12.1806643 205.890625,12.1337891 C205.269528,12.4619157 204.958984,12.8749975 204.958984,13.3730469 C204.958984,13.6367201 205.067382,13.8315423 205.28418,13.9575195 C205.500978,14.0834967 205.873044,14.1464844 206.400391,14.1464844 L208.105469,14.1464844 C209.148443,14.1464844 209.949704,14.3662087 210.509277,14.8056641 C211.06885,15.2451194 211.348633,15.8837849 211.348633,16.7216797 C211.348633,17.7880913 210.920903,18.6010714 210.06543,19.1606445 C209.209957,19.7202176 207.961922,20 206.321289,20 C205.061517,20 204.090335,19.7656273 203.407715,19.296875 C202.725094,18.8281227 202.383789,18.1660199 202.383789,17.3105469 C202.383789,16.7246064 202.571287,16.2177756 202.946289,15.7900391 C203.321291,15.3623025 203.848629,15.0722664 204.52832,14.9199219 C204.282225,14.8085932 204.075684,14.6357434 203.908691,14.4013672 C203.741698,14.166991 203.658203,13.8945328 203.658203,13.5839844 C203.658203,13.2324201 203.751952,12.924806 203.939453,12.6611328 C204.126954,12.3974596 204.42285,12.1425794 204.827148,11.8964844 C204.329099,11.6914052 203.923341,11.3427759 203.609863,10.8505859 C203.296385,10.358396 203.139648,9.7959016 203.139648,9.16308594 C203.139648,8.10839316 203.456052,7.29541301 204.088867,6.72412109 C204.721683,6.15282917 205.618158,5.8671875 206.77832,5.8671875 C207.282229,5.8671875 207.736326,5.92578066 208.140625,6.04296875 L211.47168,6.04296875 Z M203.790039,17.2929688 C203.790039,17.8144557 204.009763,18.2099596 204.449219,18.4794922 C204.888674,18.7490248 205.518551,18.8837891 206.338867,18.8837891 C207.563483,18.8837891 208.470212,18.7006854 209.059082,18.3344727 C209.647952,17.9682599 209.942383,17.4716828 209.942383,16.8447266 C209.942383,16.3232396 209.781252,15.9614268 209.458984,15.7592773 C209.136717,15.5571279 208.530278,15.4560547 207.639648,15.4560547 L205.890625,15.4560547 C205.228512,15.4560547 204.712892,15.6142562 204.34375,15.9306641 C203.974608,16.2470719 203.790039,16.7011689 203.790039,17.2929688 Z M204.581055,9.12792969 C204.581055,9.80176118 204.771482,10.3115217 205.152344,10.6572266 C205.533205,11.0029314 206.063473,11.1757812 206.743164,11.1757812 C208.166999,11.1757812 208.878906,10.4843819 208.878906,9.1015625 C208.878906,7.65428964 208.15821,6.93066406 206.716797,6.93066406 C206.031247,6.93066406 205.503908,7.11523253 205.134766,7.484375 C204.765623,7.85351747 204.581055,8.40136355 204.581055,9.12792969 Z M225.595703,12.2568359 C225.595703,13.387701 225.185551,14.2695281 224.365234,14.9023438 C223.544918,15.5351594 222.431648,15.8515625 221.025391,15.8515625 C219.501946,15.8515625 218.330082,15.6552754 217.509766,15.2626953 L217.509766,13.8212891 C218.037112,14.0439464 218.611325,14.2197259 219.232422,14.3486328 C219.853519,14.4775397 220.468747,14.5419922 221.078125,14.5419922 C222.074224,14.5419922 222.824216,14.3530292 223.328125,13.9750977 C223.832034,13.5971661 224.083984,13.0712924 224.083984,12.3974609 C224.083984,11.9521462 223.99463,11.5874038 223.815918,11.3032227 C223.637206,11.0190415 223.338381,10.7568371 222.919434,10.5166016 C222.500486,10.276366 221.863286,10.0039078 221.007812,9.69921875 C219.812494,9.27148224 218.958499,8.76465137 218.445801,8.17871094 C217.933103,7.59277051 217.676758,6.82812972 217.676758,5.88476562 C217.676758,4.8945263 218.048824,4.10644824 218.792969,3.52050781 C219.537113,2.93456738 220.521478,2.64160156 221.746094,2.64160156 C223.023444,2.64160156 224.198237,2.87597422 225.270508,3.34472656 L224.804688,4.64550781 C223.744135,4.20019309 222.712896,3.97753906 221.710938,3.97753906 C220.919918,3.97753906 220.30176,4.14745924 219.856445,4.48730469 C219.411131,4.82715014 219.188477,5.29882511 219.188477,5.90234375 C219.188477,6.34765848 219.270507,6.71240092 219.43457,6.99658203 C219.598634,7.28076314 219.875486,7.54150272 220.265137,7.77880859 C220.654787,8.01611447 221.250973,8.27831888 222.053711,8.56542969 C223.401374,9.04590084 224.328611,9.56152068 224.835449,10.1123047 C225.342288,10.6630887 225.595703,11.3779253 225.595703,12.2568359 Z M236.318359,10.8505859 C236.318359,12.4209063 235.922856,13.6469682 235.131836,14.5288086 C234.340816,15.4106489 233.248054,15.8515625 231.853516,15.8515625 C230.992183,15.8515625 230.227542,15.6494161 229.55957,15.2451172 C228.891598,14.8408183 228.375978,14.260746 228.012695,13.5048828 C227.649412,12.7490197 227.467773,11.8642629 227.467773,10.8505859 C227.467773,9.28026559 227.860348,8.05713329 228.645508,7.18115234 C229.430668,6.3051714 230.520501,5.8671875 231.915039,5.8671875 C233.262702,5.8671875 234.333492,6.31542521 235.127441,7.21191406 C235.921391,8.10840292 236.318359,9.32128142 236.318359,10.8505859 Z M228.979492,10.8505859 C228.979492,12.0810608 229.225583,13.0185515 229.717773,13.6630859 C230.209963,14.3076204 230.933589,14.6298828 231.888672,14.6298828 C232.843755,14.6298828 233.568845,14.3090852 234.063965,13.6674805 C234.559085,13.0258757 234.806641,12.0869202 234.806641,10.8505859 C234.806641,9.62597044 234.559085,8.69580396 234.063965,8.06005859 C233.568845,7.42431323 232.837895,7.10644531 231.871094,7.10644531 C230.916011,7.10644531 230.195315,7.41991874 229.708984,8.046875 C229.222654,8.67383126 228.979492,9.60839223 228.979492,10.8505859 Z M240.24707,6.04296875 L240.24707,12.2919922 C240.24707,13.0771524 240.425779,13.663084 240.783203,14.0498047 C241.140627,14.4365254 241.700192,14.6298828 242.461914,14.6298828 C243.469732,14.6298828 244.206541,14.3544949 244.672363,13.8037109 C245.138186,13.2529269 245.371094,12.3535219 245.371094,11.1054688 L245.371094,6.04296875 L246.830078,6.04296875 L246.830078,15.6757812 L245.625977,15.6757812 L245.415039,14.3837891 L245.335938,14.3837891 C245.037108,14.8584008 244.622561,15.2216784 244.092285,15.4736328 C243.562009,15.7255872 242.957035,15.8515625 242.277344,15.8515625 C241.105463,15.8515625 240.22803,15.573245 239.64502,15.0166016 C239.062009,14.4599582 238.770508,13.5693421 238.770508,12.3447266 L238.770508,6.04296875 L240.24707,6.04296875 Z M254.318359,5.8671875 C254.746096,5.8671875 255.129881,5.9023434 255.469727,5.97265625 L255.267578,7.32617188 C254.869139,7.23828081 254.51758,7.19433594 254.212891,7.19433594 C253.43359,7.19433594 252.767093,7.51073902 252.213379,8.14355469 C251.659665,8.77637035 251.382812,9.56444841 251.382812,10.5078125 L251.382812,15.6757812 L249.923828,15.6757812 L249.923828,6.04296875 L251.12793,6.04296875 L251.294922,7.82714844 L251.365234,7.82714844 C251.722658,7.20019218 252.153318,6.71679857 252.657227,6.37695312 C253.161135,6.03710768 253.714841,5.8671875 254.318359,5.8671875 Z M261.121094,15.8515625 C259.726556,15.8515625 258.646976,15.4223676 257.882324,14.5639648 C257.117672,13.7055621 256.735352,12.4912188 256.735352,10.9208984 C256.735352,9.30956226 257.123531,8.06445752 257.899902,7.18554688 C258.676273,6.30663623 259.782219,5.8671875 261.217773,5.8671875 C261.680666,5.8671875 262.143552,5.91699169 262.606445,6.01660156 C263.069338,6.11621144 263.432616,6.23339776 263.696289,6.36816406 L263.248047,7.60742188 C262.92578,7.47851498 262.574221,7.37158246 262.193359,7.28662109 C261.812498,7.20165973 261.475587,7.15917969 261.182617,7.15917969 C259.225576,7.15917969 258.24707,8.40721408 258.24707,10.9033203 C258.24707,12.08692 258.485837,12.995114 258.963379,13.6279297 C259.44092,14.2607454 260.148433,14.5771484 261.085938,14.5771484 C261.888676,14.5771484 262.71191,14.4042986 263.555664,14.0585938 L263.555664,15.3505859 C262.91113,15.684572 262.099614,15.8515625 261.121094,15.8515625 Z M269.910156,15.8515625 C268.486321,15.8515625 267.362797,15.4179731 266.539551,14.5507812 C265.716304,13.6835894 265.304688,12.4794999 265.304688,10.9384766 C265.304688,9.38573442 265.687008,8.15234832 266.45166,7.23828125 C267.216312,6.32421418 268.243158,5.8671875 269.532227,5.8671875 C270.739264,5.8671875 271.694332,6.26415619 272.397461,7.05810547 C273.100589,7.85205475 273.452148,8.89940756 273.452148,10.2001953 L273.452148,11.1230469 L266.816406,11.1230469 C266.845703,12.2539119 267.131345,13.1123018 267.67334,13.6982422 C268.215335,14.2841826 268.978511,14.5771484 269.962891,14.5771484 C271.000005,14.5771484 272.025386,14.3603537 273.039062,13.9267578 L273.039062,15.2275391 C272.523435,15.4501964 272.035647,15.6098628 271.575684,15.706543 C271.11572,15.8032231 270.56055,15.8515625 269.910156,15.8515625 Z M269.514648,7.08886719 C268.741207,7.08886719 268.124514,7.34081779 267.664551,7.84472656 C267.204588,8.34863533 266.933594,9.04589398 266.851562,9.93652344 L271.887695,9.93652344 C271.887695,9.01659696 271.682619,8.31201417 271.272461,7.82275391 C270.862303,7.33349365 270.276371,7.08886719 269.514648,7.08886719 Z" id="Lightning-Source" fill="#FFFFFF"></path>
            </g>
        </g>
    </g>
</svg>