<?xml version="1.0" encoding="UTF-8"?>
<svg width="42px" height="45px" viewBox="0 0 42 45" version="1.1" xmlns="http://www.w3.org/2000/svg" xmlns:xlink="http://www.w3.org/1999/xlink">
    <!-- Generator: Sketch 51.3 (57544) - http://www.bohemiancoding.com/sketch -->
    <title>Group 12</title>
    <desc>Created with Sketch.</desc>
    <defs></defs>
    <g id="Page-1" stroke="none" stroke-width="1" fill="none" fill-rule="evenodd" stroke-linecap="round" stroke-linejoin="round">
        <g id="Lightning-Source-Log-In-Copy" transform="translate(-594.000000, -419.000000)" stroke="#FFFFFF" stroke-width="1.8">
            <g id="Group-12" transform="translate(595.000000, 420.000000)">
                <g id="Group-9">
                    <polygon id="Stroke-1" points="0.202020202 43 40 43 40 0.528848485 0.202020202 0.528848485"></polygon>
                    <polygon id="Stroke-3" points="0.202020202 8 40 8 40 0.528848485 0.202020202 0.528848485"></polygon>
                    <path d="M4.1484375,39 L17.7170574,39" id="Stroke-8-Copy"></path>
                    <polygon id="Stroke-10" points="4 35.3691406 17.8904551 35.3691406 17.8904551 25.993204 4 25.993204"></polygon>
                    <path d="M22,39 L36,39" id="Stroke-11-Copy"></path>
                    <polygon id="Stroke-13" points="22.0662892 35.3691406 35.9567443 35.3691406 35.9567443 25.993204 22.0662892 25.993204"></polygon>
                    <polygon id="Stroke-17" points="0.202020202 22.1381818 40 22.1381818 40 8.14497786 0.202020202 8.14497786"></polygon>
                    <path d="M12,12.25 L28,12.25" id="Stroke-19"></path>
                    <path d="M4,4 L5,4" id="Stroke-19-Copy-2"></path>
                    <path d="M8,4 L9,4" id="Stroke-19-Copy-3"></path>
                    <path d="M12,4 L13,4" id="Stroke-19-Copy-4"></path>
                    <path d="M10,16.2013889 L30,16.2013889" id="Stroke-19-Copy"></path>
                </g>
            </g>
        </g>
    </g>
</svg>