<?xml version="1.0" encoding="UTF-8"?>
<svg width="40px" height="41px" viewBox="0 0 40 41" version="1.1" xmlns="http://www.w3.org/2000/svg" xmlns:xlink="http://www.w3.org/1999/xlink">
    <!-- Generator: Sketch 51.3 (57544) - http://www.bohemiancoding.com/sketch -->
    <title>Group</title>
    <desc>Created with Sketch.</desc>
    <defs>
        <polygon id="path-1" points="0 0 39.9596096 0 39.9596096 40.0163536 0 40.0163536"></polygon>
    </defs>
    <g id="Page-1" stroke="none" stroke-width="1" fill="none" fill-rule="evenodd">
        <g id="IngramSpark-Log-In" transform="translate(-605.000000, -449.000000)">
            <g id="Group" transform="translate(605.000000, 449.000000)">
                <mask id="mask-2" fill="white">
                    <use xlink:href="#path-1"></use>
                </mask>
                <g id="Clip-2"></g>
                <path d="M38.6336427,28.1460331 C38.6336427,28.4987403 38.3466446,28.7856648 37.994011,28.7856648 L32.7852449,28.7856648 L32.7852449,24.113547 C32.7852449,23.7473591 32.4884494,23.4505635 32.1222615,23.4505635 L7.83717864,23.4505635 C7.47099079,23.4505635 7.17419521,23.7473591 7.17419521,24.113547 L7.17419521,28.7856648 L1.9654291,28.7856648 C1.61286924,28.7856648 1.32594475,28.4987403 1.32594475,28.1460331 L1.32594475,15.8495322 C1.32594475,15.4968987 1.61286924,15.2100479 1.9654291,15.2100479 L37.994011,15.2100479 C38.3466446,15.2100479 38.6336427,15.4968987 38.6336427,15.8495322 L38.6336427,28.1460331 Z M28.834232,24.8597716 L29.8147109,38.6904162 L10.2103646,38.6904162 L11.1254291,24.8561621 C11.1269761,24.8292744 11.1263867,24.8027551 11.1247661,24.7765304 L28.834674,24.7765304 C28.8329797,24.8039337 28.8323904,24.8316317 28.834232,24.8597716 Z M6.76889134,7.98338122 L9.50590792,7.98338122 C9.53088029,7.98338122 9.55541068,7.98176059 9.57957274,7.97910866 L9.57957274,13.884081 L6.76889134,13.884081 L6.76889134,7.98338122 Z M10.9055396,13.884081 L29.0539006,13.884081 L29.0539006,1.32599632 L10.9055396,1.32599632 L10.9055396,13.884081 Z M30.4535322,7.98338122 L33.1906225,7.98338122 L33.1906225,13.884081 L30.3798674,13.884081 L30.3798674,7.97910866 C30.4040295,7.98176059 30.4285599,7.98338122 30.4535322,7.98338122 Z M37.994011,13.884081 L34.5165893,13.884081 L34.5165893,7.32039779 C34.5165893,6.95428361 34.2197937,6.65741436 33.8536059,6.65741436 L30.4535322,6.65741436 C30.4285599,6.65741436 30.4040295,6.65910866 30.3798674,6.66176059 L30.3798674,0.662939227 C30.3798674,0.296825046 30.0830718,-4.4198895e-05 29.716884,-4.4198895e-05 L10.2425562,-4.4198895e-05 C9.87644199,-4.4198895e-05 9.57957274,0.296825046 9.57957274,0.662939227 L9.57957274,6.66176059 C9.55541068,6.65910866 9.53088029,6.65741436 9.50590792,6.65741436 L6.10590792,6.65741436 C5.73972007,6.65741436 5.44292449,6.95428361 5.44292449,7.32039779 L5.44292449,13.884081 L1.9654291,13.884081 C0.881745856,13.884081 -2.20994475e-05,14.7657753 -2.20994475e-05,15.8495322 L-2.20994475e-05,28.1460331 C-2.20994475e-05,29.2298637 0.881745856,30.1116317 1.9654291,30.1116317 L7.79342173,30.1116317 C7.95909392,30.1116317 8.11025414,30.0504162 8.22642357,29.9499374 C8.3920221,29.8294217 8.50016206,29.6345783 8.50016206,29.4140994 L8.50016206,24.7765304 L9.80196685,24.7765304 C9.80189319,24.777488 9.80174586,24.7784457 9.80167219,24.779477 L8.84601842,39.3150203 C8.83548435,39.497267 8.90045672,39.6757569 9.02568692,39.8084273 C9.15099079,39.9410976 9.3254291,40.0163831 9.50789687,40.0163831 L30.5210092,40.0163831 C30.7040663,40.0163831 30.8790203,39.940582 31.0044715,39.8071013 C31.1297753,39.673547 31.1943057,39.4942468 31.1827403,39.3114107 L30.1576206,24.7765304 L31.4592781,24.7765304 L31.4592781,29.1608398 C31.4172155,29.2479853 31.3929061,29.3452965 31.3929061,29.4486483 C31.3929061,29.8147624 31.6897017,30.1116317 32.0558895,30.1116317 L37.994011,30.1116317 C39.0778416,30.1116317 39.9596096,29.2298637 39.9596096,28.1460331 L39.9596096,15.8495322 C39.9596096,14.7657753 39.0778416,13.884081 37.994011,13.884081 Z" id="Fill-1" stroke="#FFFFFF" stroke-width="0.2" fill="#FFFFFF" mask="url(#mask-2)"></path>
                <path d="M27.2130755,35.3182099 L13.0955064,35.3182099 C12.7293186,35.3182099 12.432523,35.6150055 12.432523,35.9811934 C12.432523,36.3473812 12.7293186,36.6441768 13.0955064,36.6441768 L27.2130755,36.6441768 C27.5792634,36.6441768 27.8760589,36.3473812 27.8760589,35.9811934 C27.8760589,35.6150055 27.5792634,35.3182099 27.2130755,35.3182099" id="Fill-4" stroke="#FFFFFF" stroke-width="0.2" fill="#FFFFFF" mask="url(#mask-2)"></path>
                <path d="M13.3462836,32.6496575 L26.6132449,32.6496575 C26.9794328,32.6496575 27.2762284,32.3528619 27.2762284,31.986674 C27.2762284,31.6204862 26.9794328,31.3236906 26.6132449,31.3236906 L13.3462836,31.3236906 C12.9800958,31.3236906 12.6833002,31.6204862 12.6833002,31.986674 C12.6833002,32.3528619 12.9800958,32.6496575 13.3462836,32.6496575" id="Fill-6" stroke="#FFFFFF" stroke-width="0.2" fill="#FFFFFF" mask="url(#mask-2)"></path>
                <path d="M13.7480221,28.6383057 L26.2114475,28.6383057 C26.5776354,28.6383057 26.8744309,28.3415101 26.8744309,27.9753223 C26.8744309,27.6091344 26.5776354,27.3123389 26.2114475,27.3123389 L13.7480221,27.3123389 C13.3818343,27.3123389 13.0850387,27.6091344 13.0850387,27.9753223 C13.0850387,28.3415101 13.3818343,28.6383057 13.7480221,28.6383057" id="Fill-8" stroke="#FFFFFF" stroke-width="0.2" fill="#FFFFFF" mask="url(#mask-2)"></path>
                <path d="M4.90623204,18.1044494 C4.5400442,18.1044494 4.24324862,18.4012449 4.24324862,18.7674328 L4.24324862,19.4849282 C4.24324862,19.8510424 4.5400442,20.1478379 4.90623204,20.1478379 C5.27241989,20.1478379 5.56921547,19.8510424 5.56921547,19.4849282 L5.56921547,18.7674328 C5.56921547,18.4012449 5.27241989,18.1044494 4.90623204,18.1044494" id="Fill-10" stroke="#FFFFFF" stroke-width="0.2" fill="#FFFFFF" mask="url(#mask-2)"></path>
                <path d="M7.46881768,18.1044494 C7.10262983,18.1044494 6.80583425,18.4012449 6.80583425,18.7674328 L6.80583425,19.4849282 C6.80583425,19.8510424 7.10262983,20.1478379 7.46881768,20.1478379 C7.83500552,20.1478379 8.1318011,19.8510424 8.1318011,19.4849282 L8.1318011,18.7674328 C8.1318011,18.4012449 7.83500552,18.1044494 7.46881768,18.1044494" id="Fill-12" stroke="#FFFFFF" stroke-width="0.2" fill="#FFFFFF" mask="url(#mask-2)"></path>
                <path d="M35.2510276,18.3254438 C34.8848398,18.3254438 34.5880442,18.6222394 34.5880442,18.9884273 L34.5880442,19.7059227 C34.5880442,20.0720368 34.8848398,20.3688324 35.2510276,20.3688324 C35.6172155,20.3688324 35.914011,20.0720368 35.914011,19.7059227 L35.914011,18.9884273 C35.914011,18.6222394 35.6172155,18.3254438 35.2510276,18.3254438" id="Fill-14" stroke="#FFFFFF" stroke-width="0.2" fill="#FFFFFF" mask="url(#mask-2)"></path>
            </g>
        </g>
    </g>
</svg>