<?xml version="1.0" encoding="UTF-8"?>
<svg width="40px" height="41px" viewBox="0 0 40 41" version="1.1" xmlns="http://www.w3.org/2000/svg" xmlns:xlink="http://www.w3.org/1999/xlink">
    <!-- Generator: Sketch 51.3 (57544) - http://www.bohemiancoding.com/sketch -->
    <title>Group 10</title>
    <desc>Created with Sketch.</desc>
    <defs>
        <polygon id="path-1" points="0 0.00108387097 39.8540078 0.00108387097 39.8540078 40.2580026 0 40.2580026"></polygon>
    </defs>
    <g id="Page-1" stroke="none" stroke-width="1" fill="none" fill-rule="evenodd">
        <g id="Lightning-Source-Log-In-Copy" transform="translate(-595.000000, -551.000000)">
            <g id="Group-10" transform="translate(595.000000, 551.000000)">
                <g id="Group-3">
                    <mask id="mask-2" fill="white">
                        <use xlink:href="#path-1"></use>
                    </mask>
                    <g id="Clip-2"></g>
                    <path d="M32.3989105,12.7447123 L14.4512062,3.89939613 L19.9259144,1.30584774 L37.8329961,9.92881548 L32.3989105,12.7447123 Z M20.549572,20.1995768 L27.4129183,16.7313445 L27.4129183,22.0564026 C27.4129183,22.27008 27.526537,22.4722994 27.7106615,22.5848671 C27.8919844,22.6948026 28.1229572,22.7067252 28.3212451,22.6065445 L32.6842023,20.3259252 C32.8944747,20.2198606 33.0249027,20.0081961 33.0249027,19.7737703 L33.0249027,13.8174348 L38.6088716,10.9247381 L38.6088716,29.3502348 L20.549572,38.6255381 L20.549572,20.1995768 Z M19.928249,19.1240671 L2.01587549,9.92355097 L8.04420233,6.93748645 L26.625214,15.7399123 L19.928249,19.1240671 Z M31.7797665,19.3970477 L28.6580545,21.0378735 L28.6580545,15.7221058 C28.6580545,15.7095639 28.6572763,15.6974865 28.6558755,15.6855639 C28.6424903,15.4618219 28.5070817,15.2592929 28.3031907,15.1628284 L9.48933852,6.25015742 L13.0264591,4.57433806 L31.5740078,13.715551 L31.7797665,13.8194477 L31.7797665,19.3970477 Z M19.3044358,20.1980284 L19.3044358,38.6255381 L1.24513619,29.3502348 L1.24513619,10.9227252 L19.3044358,20.1980284 Z M39.5010117,9.3512671 L20.1947082,0.0601703226 C20.0286381,-0.0184877419 19.8270817,-0.0192619355 19.6577432,0.0609445161 L0.355019455,9.35033806 C0.142412451,9.45098323 0.00295719844,9.6672929 0,9.90574452 L0,9.90760258 L0,9.90961548 L0,29.7289703 C0,29.9637058 0.130583658,30.1752155 0.338832685,30.280351 L19.6442023,40.1904929 C19.6683268,40.2027252 19.6932296,40.2121703 19.7173541,40.2196026 C19.7346304,40.2265703 19.7522179,40.232609 19.7705837,40.2375639 C19.8244358,40.2511897 19.875642,40.2580026 19.9270039,40.2580026 C19.9783658,40.2580026 20.029572,40.2511897 20.0835798,40.237409 C20.1017899,40.232609 20.1193774,40.2265703 20.1352529,40.2202219 C20.1607782,40.2121703 20.1856809,40.2027252 20.2107393,40.1900284 L39.5133074,30.28128 C39.7235798,30.1752155 39.8540078,29.9637058 39.8540078,29.7289703 L39.8540078,9.90961548 L39.8540078,9.90713806 L39.8540078,9.90187355 C39.8510506,9.6672929 39.7115953,9.45098323 39.5010117,9.3512671 Z" id="Fill-1" stroke="#FFFFFF" stroke-width="0.5" fill="#FFFFFF" mask="url(#mask-2)"></path>
                </g>
                <polygon id="Fill-4" stroke="#FFFFFF" stroke-width="0.5" fill="#FFFFFF" points="8.77419355 21.9121459 2.58064516 18.6774194 2.58064516 20.0878541 8.77419355 23.3225806"></polygon>
                <polygon id="Fill-6" stroke="#FFFFFF" stroke-width="0.5" fill="#FFFFFF" points="12.6451613 27.5861193 2.58064516 22.516129 2.58064516 23.8977516 12.6451613 28.9677419"></polygon>
                <polygon id="Fill-8" stroke="#FFFFFF" stroke-width="0.5" fill="#FFFFFF" points="12.6451613 31.424829 2.58064516 26.3548387 2.58064516 27.7364613 12.6451613 32.8064516"></polygon>
            </g>
        </g>
    </g>
</svg>