<?xml version="1.0" encoding="UTF-8"?>
<svg width="25px" height="25px" viewBox="0 0 25 25" version="1.1" xmlns="http://www.w3.org/2000/svg" xmlns:xlink="http://www.w3.org/1999/xlink">
    <!-- Generator: Sketch 53.2 (72643) - https://sketchapp.com -->
    <title></title>
    <desc>Created with Sketch.</desc>
    <g id="Page-1" stroke="none" stroke-width="1" fill="none" fill-rule="evenodd">
        <g id="Artboard" transform="translate(-165.000000, -146.000000)" fill="#FFFFFF" fill-rule="nonzero">
            <path d="M186.875,146.25 C187.60417,146.25 188.223956,146.505206 188.734375,147.015625 C189.244794,147.526044 189.5,148.14583 189.5,148.875 L189.5,168.125 C189.5,168.85417 189.244794,169.473956 188.734375,169.984375 C188.223956,170.494794 187.60417,170.75 186.875,170.75 L167.625,170.75 C166.89583,170.75 166.276044,170.494794 165.765625,169.984375 C165.255206,169.473956 165,168.85417 165,168.125 L165,148.875 C165,148.14583 165.255206,147.526044 165.765625,147.015625 C166.276044,146.505206 166.89583,146.25 167.625,146.25 L186.875,146.25 Z M184.195312,154.945312 C184.888024,154.434893 185.489581,153.815108 186,153.085938 C185.307288,153.377606 184.614587,153.559895 183.921875,153.632812 C184.687504,153.158852 185.216144,152.502608 185.507812,151.664062 C184.778642,152.101565 184.013025,152.393228 183.210938,152.539062 C182.518226,151.773434 181.661463,151.390625 180.640625,151.390625 C179.911455,151.390625 179.246097,151.591144 178.644531,151.992188 C178.042966,152.393231 177.596356,152.930986 177.304688,153.605469 C177.013019,154.279951 176.958332,155.018225 177.140625,155.820312 C175.645826,155.747395 174.260423,155.373701 172.984375,154.699219 C171.708327,154.024736 170.614588,153.14063 169.703125,152.046875 C169.374998,152.593753 169.210938,153.186195 169.210938,153.824219 C169.210938,154.462243 169.356769,155.04557 169.648438,155.574219 C169.940106,156.102867 170.341143,156.531248 170.851562,156.859375 C170.268226,156.822916 169.721357,156.658856 169.210938,156.367188 L169.210938,156.421875 C169.210938,157.296879 169.484372,158.062497 170.03125,158.71875 C170.578128,159.375003 171.270829,159.79427 172.109375,159.976562 C171.598956,160.085938 171.052086,160.104167 170.46875,160.03125 C170.687501,160.76042 171.106768,161.352862 171.726562,161.808594 C172.346357,162.264325 173.039059,162.492188 173.804688,162.492188 C172.492181,163.513026 171.015633,164.023438 169.375,164.023438 L168.5,164.023438 C170.177092,165.080734 172.018219,165.609375 174.023438,165.609375 C176.101573,165.609375 177.960929,165.080734 179.601562,164.023438 C181.059903,163.075516 182.208329,161.781258 183.046875,160.140625 C183.812504,158.609367 184.195312,157.023446 184.195312,155.382812 L184.195312,154.945312 Z" id=""></path>
        </g>
    </g>
</svg>