<?xml version="1.0" encoding="UTF-8"?>
<svg width="25px" height="25px" viewBox="0 0 25 25" version="1.1" xmlns="http://www.w3.org/2000/svg" xmlns:xlink="http://www.w3.org/1999/xlink">
    <!-- Generator: Sketch 53.2 (72643) - https://sketchapp.com -->
    <title></title>
    <desc>Created with Sketch.</desc>
    <g id="Page-1" stroke="none" stroke-width="1" fill="none" fill-rule="evenodd">
        <g id="Artboard" transform="translate(-198.000000, -146.000000)" fill="#FFFFFF" fill-rule="nonzero">
            <path d="M208.226562,155.546875 L213.421875,158.5 L208.226562,161.453125 L208.226562,155.546875 Z M222.5,148.875 L222.5,168.125 C222.5,168.85417 222.244794,169.473956 221.734375,169.984375 C221.223956,170.494794 220.60417,170.75 219.875,170.75 L200.625,170.75 C199.89583,170.75 199.276044,170.494794 198.765625,169.984375 C198.255206,169.473956 198,168.85417 198,168.125 L198,148.875 C198,148.14583 198.255206,147.526044 198.765625,147.015625 C199.276044,146.505206 199.89583,146.25 200.625,146.25 L219.875,146.25 C220.60417,146.25 221.223956,146.505206 221.734375,147.015625 C222.244794,147.526044 222.5,148.14583 222.5,148.875 Z M220.203125,158.5 C220.203125,157.916664 220.184896,157.315107 220.148438,156.695312 C220.07552,155.346347 219.947918,154.343753 219.765625,153.6875 C219.656249,153.249998 219.446616,152.876304 219.136719,152.566406 C218.826821,152.256509 218.453127,152.046876 218.015625,151.9375 C217.39583,151.755207 215.901054,151.627605 213.53125,151.554688 L210.25,151.5 L206.96875,151.554688 C204.598946,151.627605 203.10417,151.755207 202.484375,151.9375 C202.046873,152.046876 201.673179,152.256509 201.363281,152.566406 C201.053384,152.876304 200.843751,153.249998 200.734375,153.6875 C200.442707,154.744797 200.296875,156.348948 200.296875,158.5 L200.351562,160.359375 C200.42448,161.70834 200.552082,162.692705 200.734375,163.3125 C200.843751,163.750002 201.053384,164.123696 201.363281,164.433594 C201.673179,164.743491 202.046873,164.953124 202.484375,165.0625 C203.10417,165.244793 204.598946,165.372395 206.96875,165.445312 L210.25,165.5 L213.53125,165.445312 C215.901054,165.372395 217.39583,165.244793 218.015625,165.0625 C218.453127,164.953124 218.826821,164.743491 219.136719,164.433594 C219.446616,164.123696 219.656249,163.750002 219.765625,163.3125 C220.057293,162.291662 220.203125,160.687511 220.203125,158.5 Z" id=""></path>
        </g>
    </g>
</svg>