<svg xmlns="http://www.w3.org/2000/svg" viewBox="0 0 126 126"><defs><style>.cls-1{fill:#f5f5f5;stroke:#a7a9ab;stroke-width:8px;}.cls-2{fill:#a7a9ab;}</style></defs><g id="Layer_2" data-name="Layer 2"><g id="Layer_1-2" data-name="Layer 1"><circle class="cls-1" cx="63" cy="63" r="59"/><path class="cls-2" d="M36.16,61H31.64V48.61l0-2,.08-2.23c-.76.76-1.28,1.25-1.57,1.48l-2.46,2-2.19-2.72,6.9-5.5h3.72ZM57,50.29q0,5.61-1.84,8.31a6.36,6.36,0,0,1-5.66,2.69,6.32,6.32,0,0,1-5.59-2.78Q42,55.72,42,50.29q0-5.67,1.84-8.35a6.35,6.35,0,0,1,5.63-2.69,6.29,6.29,0,0,1,5.6,2.81C56.33,43.93,57,46.68,57,50.29Zm-10.47,0A16.9,16.9,0,0,0,47.17,56a2.36,2.36,0,0,0,2.29,1.7,2.39,2.39,0,0,0,2.29-1.73,16.2,16.2,0,0,0,.7-5.63,15.84,15.84,0,0,0-.72-5.65,2.36,2.36,0,0,0-4.55,0A16.48,16.48,0,0,0,46.49,50.29Zm27.61,0q0,5.61-1.84,8.31a6.36,6.36,0,0,1-5.66,2.69A6.32,6.32,0,0,1,61,58.51q-1.87-2.79-1.88-8.22,0-5.67,1.83-8.35a6.36,6.36,0,0,1,5.64-2.69,6.3,6.3,0,0,1,5.6,2.81C73.47,43.93,74.1,46.68,74.1,50.29Zm-10.47,0A17,17,0,0,0,64.3,56a2.39,2.39,0,0,0,4.59,0,16.2,16.2,0,0,0,.7-5.63,15.84,15.84,0,0,0-.72-5.65,2.36,2.36,0,0,0-4.55,0A16.48,16.48,0,0,0,63.63,50.29ZM79.8,46a9.11,9.11,0,0,0,.32,2.78c.23.61.58.91,1.07.91q1.41,0,1.41-3.69t-1.41-3.66c-.49,0-.84.3-1.07.91A8.81,8.81,0,0,0,79.8,46Zm6.49,0A8.24,8.24,0,0,1,85,51a4.56,4.56,0,0,1-3.83,1.68A4.4,4.4,0,0,1,77.43,51a8.18,8.18,0,0,1-1.32-5c0-4.46,1.69-6.69,5-6.69A4.49,4.49,0,0,1,85,41,8,8,0,0,1,86.29,46Zm10.08-6.39L84.49,61H81L92.85,39.58Zm-1.57,15a9.23,9.23,0,0,0,.32,2.79c.23.6.58.91,1.07.91.94,0,1.41-1.23,1.41-3.7s-.47-3.66-1.41-3.66c-.49,0-.84.31-1.07.91A8.85,8.85,0,0,0,94.8,54.55Zm6.49,0a8.21,8.21,0,0,1-1.3,5,4.56,4.56,0,0,1-3.83,1.68,4.4,4.4,0,0,1-3.73-1.73,8.16,8.16,0,0,1-1.32-5c0-4.47,1.69-6.7,5-6.7a4.49,4.49,0,0,1,3.8,1.74A8,8,0,0,1,101.29,54.53Z"/><path class="cls-2" d="M38.51,70l1.79-3.53h2l-2.84,5.24V75H37.61V71.72l-2.84-5.29h2Zm6.11,1.75a2.76,2.76,0,0,0,.32,1.47,1.12,1.12,0,0,0,1,.5,1.1,1.1,0,0,0,1-.49,2.8,2.8,0,0,0,.32-1.48A2.73,2.73,0,0,0,47,70.25a1.35,1.35,0,0,0-2.06,0A2.7,2.7,0,0,0,44.62,71.71Zm4.53,0a3.52,3.52,0,0,1-.85,2.51,3.05,3.05,0,0,1-2.35.9,3.35,3.35,0,0,1-1.66-.41,2.84,2.84,0,0,1-1.11-1.19,4.12,4.12,0,0,1-.38-1.81,3.47,3.47,0,0,1,.84-2.49A3,3,0,0,1,46,68.33a3.22,3.22,0,0,1,1.66.41,2.67,2.67,0,0,1,1.11,1.17A4,4,0,0,1,49.15,71.71ZM55.27,75,55,74.16h-.09a1.87,1.87,0,0,1-.81.71,2.89,2.89,0,0,1-1.2.25,2.29,2.29,0,0,1-1.74-.62,2.5,2.5,0,0,1-.59-1.78V68.45h1.79v3.83a1.82,1.82,0,0,0,.25,1.06.9.9,0,0,0,.8.35,1.23,1.23,0,0,0,1.09-.49,3.2,3.2,0,0,0,.33-1.67V68.45h1.79V75Zm6.9-6.67a2.58,2.58,0,0,1,.6,0l-.13,1.67a2.65,2.65,0,0,0-.53,0,1.88,1.88,0,0,0-1.34.44,1.6,1.6,0,0,0-.47,1.23V75H58.51V68.45h1.35l.27,1.1h.09a2.31,2.31,0,0,1,.82-.88A2,2,0,0,1,62.17,68.33ZM70.52,75H68.71V68H66.38V66.43h6.47V68H70.52Zm4.93-3.29a2.76,2.76,0,0,0,.32,1.47,1.33,1.33,0,0,0,2.07,0,2.81,2.81,0,0,0,.31-1.48,2.73,2.73,0,0,0-.31-1.46,1.17,1.17,0,0,0-1-.48,1.14,1.14,0,0,0-1,.48A2.7,2.7,0,0,0,75.45,71.71Zm4.53,0a3.56,3.56,0,0,1-.84,2.51,3.08,3.08,0,0,1-2.35.9,3.36,3.36,0,0,1-1.67-.41A2.75,2.75,0,0,1,74,73.52a4,4,0,0,1-.39-1.81,3.47,3.47,0,0,1,.84-2.49,3,3,0,0,1,2.35-.89,3.26,3.26,0,0,1,1.67.41,2.65,2.65,0,0,1,1.1,1.17A4,4,0,0,1,80,71.71Zm5.07,3.41a2.18,2.18,0,0,1-1.81-.84h-.09c.06.55.09.86.09,1v2.65H81.46V68.45h1.45l.25.85h.08a2.07,2.07,0,0,1,1.86-1,2.12,2.12,0,0,1,1.82.89,4.14,4.14,0,0,1,.65,2.49,4.78,4.78,0,0,1-.31,1.82,2.49,2.49,0,0,1-.87,1.18A2.24,2.24,0,0,1,85.05,75.12Zm-.52-5.36a1.11,1.11,0,0,0-1,.41,2.34,2.34,0,0,0-.32,1.34v.19a2.84,2.84,0,0,0,.31,1.51,1.14,1.14,0,0,0,1,.46q1.2,0,1.2-2a2.78,2.78,0,0,0-.3-1.45A1,1,0,0,0,84.53,69.76ZM30.6,86.62a2.21,2.21,0,0,1-.84,1.83,3.6,3.6,0,0,1-2.32.67A5.39,5.39,0,0,1,25,88.6V86.91a10.5,10.5,0,0,0,1.47.55,4.64,4.64,0,0,0,1.1.16,1.55,1.55,0,0,0,.91-.23.84.84,0,0,0,.19-1.13,1.75,1.75,0,0,0-.42-.38,11.44,11.44,0,0,0-1.11-.58A4.89,4.89,0,0,1,26,84.59a2.4,2.4,0,0,1-.63-.79,2.2,2.2,0,0,1-.24-1A2.24,2.24,0,0,1,25.88,81,3.24,3.24,0,0,1,28,80.31a4.88,4.88,0,0,1,1.28.16,8.77,8.77,0,0,1,1.27.44L30,82.33a8.89,8.89,0,0,0-1.14-.4,3.79,3.79,0,0,0-.88-.11,1.18,1.18,0,0,0-.79.24.8.8,0,0,0-.27.63.82.82,0,0,0,.11.42,1.28,1.28,0,0,0,.35.35,10.92,10.92,0,0,0,1.16.59,4.51,4.51,0,0,1,1.64,1.16A2.2,2.2,0,0,1,30.6,86.62Zm4.12-3a1.14,1.14,0,0,0-.89.36,1.69,1.69,0,0,0-.37,1H36a1.46,1.46,0,0,0-.35-1A1.16,1.16,0,0,0,34.72,83.6ZM35,89.12a3.37,3.37,0,0,1-2.48-.88,3.3,3.3,0,0,1-.89-2.47,3.66,3.66,0,0,1,.82-2.54,2.94,2.94,0,0,1,2.28-.9,2.85,2.85,0,0,1,2.16.79,3,3,0,0,1,.78,2.18v.87H33.42a1.73,1.73,0,0,0,.45,1.19,1.58,1.58,0,0,0,1.19.43,4.58,4.58,0,0,0,1.12-.13,5.62,5.62,0,0,0,1.1-.39v1.38a3.9,3.9,0,0,1-1,.35A5.89,5.89,0,0,1,35,89.12ZM40.89,89H39.1V79.88h1.79Zm3.66,0H42.77V79.88h1.78Zm1.81-8.24c0-.59.32-.88,1-.88s1,.29,1,.88a.88.88,0,0,1-.24.65,1,1,0,0,1-.73.23C46.68,81.64,46.36,81.34,46.36,80.76ZM48.22,89H46.44V82.45h1.78Zm7.93,0H54.36V85.17a1.82,1.82,0,0,0-.25-1.06.92.92,0,0,0-.8-.35,1.18,1.18,0,0,0-1.08.5,3,3,0,0,0-.34,1.66V89H50.1V82.45h1.37l.24.84h.1a1.85,1.85,0,0,1,.82-.72,2.84,2.84,0,0,1,1.19-.24,2.27,2.27,0,0,1,1.74.62,2.48,2.48,0,0,1,.59,1.78Zm7.54-6.55v.91l-1,.26a1.84,1.84,0,0,1,.28,1,2,2,0,0,1-.74,1.65,3.2,3.2,0,0,1-2,.59l-.32,0-.27,0a.6.6,0,0,0-.27.47c0,.26.33.39,1,.39h1.12a2.54,2.54,0,0,1,1.64.46,1.64,1.64,0,0,1,.56,1.36,2,2,0,0,1-1,1.78,5,5,0,0,1-2.74.63,3.79,3.79,0,0,1-2.1-.48,1.5,1.5,0,0,1-.72-1.33,1.37,1.37,0,0,1,.37-1,2,2,0,0,1,1.08-.57,1.33,1.33,0,0,1-.48-.38.9.9,0,0,1-.2-.57.91.91,0,0,1,.21-.62,2.38,2.38,0,0,1,.63-.49,1.79,1.79,0,0,1-.82-.72,2.18,2.18,0,0,1-.3-1.16,2,2,0,0,1,.7-1.66,3,3,0,0,1,2-.58,4.08,4.08,0,0,1,.65,0l.49.07Zm-5,7.48a.65.65,0,0,0,.35.58,2,2,0,0,0,1,.21,3.49,3.49,0,0,0,1.51-.27.79.79,0,0,0,.54-.72.51.51,0,0,0-.32-.51,2.72,2.72,0,0,0-1-.14h-.92a1.47,1.47,0,0,0-.83.23A.72.72,0,0,0,58.64,89.93Zm.65-5.34a1.36,1.36,0,0,0,.23.85.91.91,0,0,0,.75.31.86.86,0,0,0,.74-.31,1.43,1.43,0,0,0,.23-.85c0-.79-.32-1.18-1-1.18S59.29,83.8,59.29,84.59ZM68,80.43H70.7a5,5,0,0,1,2.64.53,1.79,1.79,0,0,1,.83,1.64,2,2,0,0,1-.37,1.26,1.37,1.37,0,0,1-1,.59v.06a1.89,1.89,0,0,1,1.17.68,2.23,2.23,0,0,1,.37,1.33,2.17,2.17,0,0,1-.85,1.82,3.66,3.66,0,0,1-2.3.66H68Zm1.82,3.4H70.9A1.93,1.93,0,0,0,72,83.6a.86.86,0,0,0,.33-.76.74.74,0,0,0-.36-.7,2.23,2.23,0,0,0-1.14-.22h-1Zm0,1.44V87.5H71a1.78,1.78,0,0,0,1.11-.29,1,1,0,0,0,.36-.88c0-.71-.51-1.06-1.52-1.06ZM76.1,89V80.43h1.81V89Zm9-2.38a2.2,2.2,0,0,1-.83,1.83,3.6,3.6,0,0,1-2.32.67,5.36,5.36,0,0,1-2.43-.52V86.91a10.5,10.5,0,0,0,1.47.55,4.57,4.57,0,0,0,1.1.16,1.55,1.55,0,0,0,.91-.23.76.76,0,0,0,.32-.68.71.71,0,0,0-.14-.45,1.52,1.52,0,0,0-.41-.38,11.44,11.44,0,0,0-1.11-.58,5,5,0,0,1-1.18-.71,2.5,2.5,0,0,1-.62-.79,2.2,2.2,0,0,1-.24-1A2.24,2.24,0,0,1,80.41,81a3.23,3.23,0,0,1,2.13-.65,4.75,4.75,0,0,1,1.27.16,8,8,0,0,1,1.27.44l-.58,1.42a9.45,9.45,0,0,0-1.14-.4,3.85,3.85,0,0,0-.88-.11,1.18,1.18,0,0,0-.79.24.8.8,0,0,0-.27.63.73.73,0,0,0,.11.42,1.28,1.28,0,0,0,.35.35,10.41,10.41,0,0,0,1.15.59,4.66,4.66,0,0,1,1.65,1.16A2.2,2.2,0,0,1,85.12,86.62ZM91.92,89l-.62-2H88.18l-.62,2h-2l3-8.6h2.22l3,8.6Zm-1-3.56c-.58-1.85-.9-2.9-1-3.14s-.12-.43-.15-.57c-.13.5-.5,1.74-1.1,3.71Zm7.73-3.62A1.86,1.86,0,0,0,97,82.6a3.58,3.58,0,0,0-.56,2.14c0,1.91.72,2.86,2.15,2.86a6.6,6.6,0,0,0,2.19-.45v1.53a6.16,6.16,0,0,1-2.36.44A3.62,3.62,0,0,1,95.57,88a4.83,4.83,0,0,1-1-3.26,5.23,5.23,0,0,1,.49-2.34,3.53,3.53,0,0,1,1.39-1.54,4.15,4.15,0,0,1,2.14-.54,5.81,5.81,0,0,1,2.51.6l-.59,1.48a9.77,9.77,0,0,0-1-.4A3,3,0,0,0,98.6,81.82Z"/></g></g></svg>