<svg width="27" height="27" viewBox="0 0 27 27" fill="none" xmlns="http://www.w3.org/2000/svg">
<path d="M13.3603 22.7206C18.5299 22.7206 22.7206 18.5299 22.7206 13.3603C22.7206 8.19075 18.5299 4 13.3603 4C8.19075 4 4 8.19075 4 13.3603C4 18.5299 8.19075 22.7206 13.3603 22.7206Z" fill="white" stroke="white" stroke-width="8" stroke-miterlimit="10" stroke-linecap="round"/>
<path d="M13.3603 22.7206C18.5299 22.7206 22.7206 18.5299 22.7206 13.3603C22.7206 8.19075 18.5299 4 13.3603 4C8.19075 4 4 8.19075 4 13.3603C4 18.5299 8.19075 22.7206 13.3603 22.7206Z" fill="white" stroke="#9B6A45" stroke-width="2" stroke-miterlimit="10" stroke-linecap="round"/>
<path d="M13.3607 7.32959L15.0626 10.9553L18.6883 11.4363L16.1355 14.4331L16.6535 18.0588L13.3607 16.2089L10.0309 18.0588L10.5489 14.4331L7.99609 11.4363L11.6218 10.9553L13.3607 7.32959Z" stroke="#9B6A45" stroke-width="2" stroke-miterlimit="10" stroke-linecap="round" stroke-linejoin="round"/>
<path opacity="0.5" d="M13.3607 7.32959L15.0626 10.9553L18.6883 11.4363L16.1355 14.4331L16.6535 18.0588L13.3607 16.2089L10.0309 18.0588L10.5489 14.4331L7.99609 11.4363L11.6218 10.9553L13.3607 7.32959Z" fill="#9B6A45"/>
</svg>
