<svg width="53" height="76" viewBox="0 0 53 76" fill="none" xmlns="http://www.w3.org/2000/svg">
<path d="M45.3147 6.625H7.55223C6.75723 6.625 6.09473 7.28747 6.09473 8.08247V63.7325C6.09473 64.5275 6.75723 65.19 7.55223 65.19H45.3147C46.1097 65.19 46.7722 64.5275 46.7722 63.7325V8.08247C46.7722 7.28747 46.1097 6.625 45.3147 6.625Z" fill="#A7A9AB"/>
<path d="M44.653 8.87695H8.48047V62.937H44.653V8.87695Z" fill="white"/>
<path d="M50.7475 70.0925C50.7475 71.9475 49.29 73.405 47.435 73.405H5.56502C3.71002 73.405 2.25252 71.9475 2.25252 70.0925V5.56498C2.25252 3.70998 3.71002 2.25248 5.56502 2.25248H47.435C49.29 2.25248 50.7475 3.70998 50.7475 5.56498V70.0925ZM47.435 0H5.56502C2.51752 0 0 2.51748 0 5.56498V70.0925C0 73.14 2.51752 75.6575 5.56502 75.6575H47.435C50.4825 75.6575 53 73.14 53 70.0925V5.56498C53 2.51748 50.4825 0 47.435 0Z" fill="#A7A9AB"/>
<path d="M39.3535 14.8398H30.2109V17.0924H39.3535V14.8398Z" fill="#A7A9AB"/>
<path d="M39.3535 20.5371H30.2109V22.7896H39.3535V20.5371Z" fill="#A7A9AB"/>
<path d="M39.3535 26.3672H30.2109V28.6197H39.3535V26.3672Z" fill="#A7A9AB"/>
<path d="M39.4859 32.1973H13.6484V34.4498H39.4859V32.1973Z" fill="#A7A9AB"/>
<path d="M39.4859 37.8945H13.6484V40.147H39.4859V37.8945Z" fill="#A7A9AB"/>
<path d="M39.4859 43.7246H13.6484V45.9771H39.4859V43.7246Z" fill="#A7A9AB"/>
<path d="M39.4859 49.4219H13.6484V51.6744H39.4859V49.4219Z" fill="#A7A9AB"/>
<path d="M26.8984 55.252H13.6484V57.5045H26.8984V55.252Z" fill="#A7A9AB"/>
<path d="M26.5005 70.2244C25.9705 70.2244 25.573 69.8269 25.573 69.2969C25.573 68.7669 25.9705 68.3694 26.5005 68.3694C27.0305 68.3694 27.428 68.7669 27.428 69.2969C27.428 69.8269 27.0305 70.2244 26.5005 70.2244ZM29.4155 68.1044C29.018 66.9119 27.8255 65.9844 26.5005 65.9844C25.1755 65.9844 23.983 66.7794 23.5855 68.1044H21.7305V70.3569H23.5855C23.983 71.5494 25.1755 72.4769 26.5005 72.4769C27.8255 72.4769 29.018 71.6819 29.4155 70.3569H31.2705V68.1044H29.4155Z" fill="#A7A9AB"/>
<path d="M43.1964 68.1055H36.1738V70.3579H43.1964V68.1055Z" fill="#A7A9AB"/>
<path d="M16.6964 68.1055H9.67383V70.3579H16.6964V68.1055Z" fill="#A7A9AB"/>
<path d="M24.6451 26.3674H14.8401V17.0924H24.6451V26.3674ZM12.4551 28.6198H26.7651V14.8398H12.4551V28.6198Z" fill="#A7A9AB"/>
</svg>
