<svg width="66" height="72" viewBox="0 0 66 72" fill="none" xmlns="http://www.w3.org/2000/svg">
<path d="M61.1868 70.4005H4.53703C4.53703 70.4005 1.92455 69.5755 1.92455 65.863V4.53826C1.92455 4.53826 0.962045 1.92578 4.53703 1.92578H50.0493C50.0493 1.92578 47.4368 5.63827 51.4243 8.93826V16.5007H61.1868C61.1868 16.5007 64.0743 16.0882 64.0743 19.3882V67.6505C64.0743 67.513 63.5243 70.4005 61.1868 70.4005Z" fill="white"/>
<path d="M60.6381 61.4631C60.6381 62.0131 60.0882 62.7006 59.4007 62.7006H32.0383C31.4883 62.7006 30.8008 62.1506 30.8008 61.4631V22.8258C30.8008 22.2758 31.3508 21.5883 32.0383 21.5883H59.4007C59.9507 21.5883 60.6381 22.1383 60.6381 22.8258V61.4631ZM64.0756 66.9631V20.6258C64.0756 18.9758 62.8381 17.7383 61.1881 17.7383H30.2508C28.6008 17.7383 27.3633 18.9758 27.3633 20.6258V66.9631C27.3633 68.6131 28.6008 69.8505 30.2508 69.8505H61.3256C62.9756 69.713 64.2131 68.4756 64.0756 66.9631Z" fill="white"/>
<path d="M61.1873 15.8125H30.25C27.6375 15.8125 25.4375 17.875 25.4375 20.625V66.8248C25.4375 69.4373 27.5 71.6373 30.25 71.6373H61.1873C63.7998 71.6373 65.9998 69.5748 65.9998 66.8248V20.625C65.9998 18.0125 63.9373 15.8125 61.1873 15.8125ZM64.2123 66.9623C64.2123 68.6123 62.9748 69.8497 61.3248 69.8497H30.25C28.6 69.8497 27.3625 68.6123 27.3625 66.9623V20.7625C27.3625 19.1125 28.6 17.875 30.25 17.875H61.1873C62.8373 17.875 64.0748 19.1125 64.0748 20.7625L64.2123 66.9623ZM59.3999 21.5875H32.0375C31.35 21.5875 30.8 22.1375 30.8 22.825V61.4623C30.8 62.1498 31.35 62.6998 32.0375 62.6998H59.3999C60.0874 62.6998 60.6374 62.1498 60.6374 61.4623V22.825C60.6374 22.1375 60.0874 21.5875 59.3999 21.5875ZM58.7124 60.7748H32.725V23.65H58.7124V60.7748ZM45.7874 63.3873C44.5499 63.3873 43.5874 64.0748 43.1749 65.1748H41.5249V67.0998H43.1749C43.5874 68.0623 44.5499 68.8873 45.7874 68.8873C47.0249 68.8873 47.9874 68.1998 48.3999 67.0998H50.0499V65.1748H48.3999C47.8499 64.2123 46.8874 63.3873 45.7874 63.3873ZM45.7874 66.9623C45.2374 66.9623 44.9624 66.5498 44.9624 66.1373C44.9624 65.7248 45.3749 65.3123 45.7874 65.3123C46.3374 65.3123 46.6124 65.7248 46.6124 66.1373C46.4749 66.6873 46.1999 66.9623 45.7874 66.9623Z" fill="#A7A9AB"/>
<path d="M54.4491 29.1504H37.2617V31.0754H54.4491V29.1504Z" fill="#A7A9AB"/>
<path d="M54.4491 34.2383H37.2617V36.1633H54.4491V34.2383Z" fill="#A7A9AB"/>
<path d="M54.4491 39.1875H37.2617V41.1125H54.4491V39.1875Z" fill="#A7A9AB"/>
<path d="M54.4491 44.1367H37.2617V46.0617H54.4491V44.1367Z" fill="#A7A9AB"/>
<path d="M54.4491 49.0879H37.2617V51.0129H54.4491V49.0879Z" fill="#A7A9AB"/>
<path d="M46.1992 54.0371H37.2617V55.9621H46.1992V54.0371Z" fill="#A7A9AB"/>
<path d="M9.62496 69.7122V8.93746H50.0498V14.025H51.9748V7.01248H51.0123C49.9123 7.01248 49.4998 5.49999 49.4998 4.4C49.4998 3.7125 49.6373 2.88747 50.0498 2.47497C50.4623 1.92497 50.8748 1.92498 51.0123 1.92498H51.1498V0H4.53746C2.06247 0 0 1.92497 0 4.53746V67.3747C0 69.8497 1.92497 71.9122 4.53746 71.9122H24.6124L23.3749 69.9872H9.62496V69.7122ZM4.53746 1.92498H47.9873C47.7123 2.47498 47.5748 3.025 47.4373 3.7125H4.81248V5.63748H47.5748C47.7123 6.18748 47.8498 6.73749 48.1248 7.14999H4.53746C3.02497 7.14999 1.92498 6.04996 1.92498 4.53746C2.06248 3.02497 3.16247 1.92498 4.53746 1.92498ZM7.69997 69.7122H4.67497C3.16248 69.7122 2.06249 68.6122 2.06249 67.0997V7.97495C2.74999 8.52495 3.71247 8.79995 4.67497 8.79995H7.69997V69.7122Z" fill="#A7A9AB"/>
</svg>
