<svg width="42" height="62" viewBox="0 0 42 62" fill="none" xmlns="http://www.w3.org/2000/svg">
<path d="M13.6289 24.2988L4 46.4844L11.6771 46.5494L17.4024 56.0482C17.4024 56.0482 19.8747 34.9036 21.1108 24.2988H13.6289V24.2988Z" fill="white" stroke="white" stroke-width="8" stroke-miterlimit="10" stroke-linecap="round" stroke-linejoin="round"/>
<path d="M28.4618 29.5684L37.4401 49.8021L29.8931 49.9973L24.1678 57.9997C24.1678 57.9997 22.0859 39.0672 21.0449 29.5684H28.4618V29.5684Z" fill="white" stroke="white" stroke-width="8" stroke-miterlimit="10" stroke-linecap="round" stroke-linejoin="round"/>
<path d="M21.0462 36.9205C30.1369 36.9205 37.5064 29.551 37.5064 20.4602C37.5064 11.3695 30.1369 4 21.0462 4C11.9554 4 4.58594 11.3695 4.58594 20.4602C4.58594 29.551 11.9554 36.9205 21.0462 36.9205Z" fill="white" stroke="white" stroke-width="8" stroke-miterlimit="10" stroke-linecap="round"/>
<path d="M13.6289 24.2988L4 46.4844L11.6771 46.5494L17.4024 56.0482C17.4024 56.0482 19.8747 34.9036 21.1108 24.2988H13.6289V24.2988Z" fill="white" stroke="#FEBE10" stroke-width="2" stroke-miterlimit="10" stroke-linecap="round" stroke-linejoin="round"/>
<path d="M28.4618 29.5684L37.4401 49.8021L29.8931 49.9973L24.1678 57.9997C24.1678 57.9997 22.0859 39.0672 21.0449 29.5684H28.4618V29.5684Z" fill="white" stroke="#FEBE10" stroke-width="2" stroke-miterlimit="10" stroke-linecap="round" stroke-linejoin="round"/>
<path d="M21.0462 36.9205C30.1369 36.9205 37.5064 29.551 37.5064 20.4602C37.5064 11.3695 30.1369 4 21.0462 4C11.9554 4 4.58594 11.3695 4.58594 20.4602C4.58594 29.551 11.9554 36.9205 21.0462 36.9205Z" fill="white" stroke="#FEBE10" stroke-width="2" stroke-miterlimit="10" stroke-linecap="round"/>
<path d="M21.047 9.85547L24.1049 16.2314L30.4808 17.0772L25.9916 22.347L26.9024 28.7229L21.047 25.4699L15.2567 28.7229L16.1675 22.347L11.6133 17.0772L17.9892 16.2314L21.047 9.85547Z" stroke="#FEBE10" stroke-width="2" stroke-miterlimit="10" stroke-linecap="round" stroke-linejoin="round"/>
<path opacity="0.5" d="M21.047 9.85547L24.1049 16.2314L30.4808 17.0772L25.9916 22.347L26.9024 28.7229L21.047 25.4699L15.2567 28.7229L16.1675 22.347L11.6133 17.0772L17.9892 16.2314L21.047 9.85547Z" fill="#FEBE10"/>
<path d="M27.3574 40.1729L28.5936 45.4427" stroke="#FEBE10" stroke-width="2" stroke-miterlimit="10" stroke-linecap="round"/>
<path d="M13.4337 40.1084L12.5879 42.7759" stroke="#FEBE10" stroke-width="2" stroke-miterlimit="10" stroke-linecap="round"/>
</svg>
