<svg width="96" height="73" viewBox="0 0 96 73" fill="none" xmlns="http://www.w3.org/2000/svg">
<path d="M24.5808 30.0625H16.9174M19.9538 36.1354H0H19.9538Z" stroke="#A7A9AB" stroke-width="1.75" stroke-miterlimit="10"/>
<path d="M79.6721 8.66342H59.7182M33.6915 1H6.21875H33.6915ZM70.4181 71.2723H42.9454H70.4181Z" stroke="#A7A9AB" stroke-width="1.75" stroke-miterlimit="10"/>
<path d="M10.8438 30.0625H13.8802" stroke="#A7A9AB" stroke-width="1.75" stroke-miterlimit="10"/>
<path d="M56.6824 8.66309H53.6459M44.3919 8.66309H41.3555H44.3919ZM50.6095 8.66309H47.573H50.6095Z" stroke="#A7A9AB" stroke-width="1.75" stroke-miterlimit="10"/>
<path d="M95.0002 20.8096H26.1738V60.5727H95.0002V20.8096Z" fill="white"/>
<path d="M26.1738 46.8363V20.8096H95.0002V60.5727H26.1738V51.4633" stroke="#A7A9AB" stroke-width="1.75" stroke-miterlimit="10"/>
<path d="M82.7085 52.9099H38.3184C38.3184 50.3073 36.2941 48.2829 33.6914 48.2829V32.9561C36.2941 32.9561 38.3184 30.9318 38.3184 28.3291H82.7085C82.7085 30.9318 84.7328 32.9561 87.3355 32.9561V48.4275C84.7328 48.4275 82.7085 50.4519 82.7085 52.9099Z" stroke="#A7A9AB" stroke-width="1.75" stroke-miterlimit="10"/>
<path d="M42.9453 40.7627H45.9818M75.045 40.7627H78.0815H75.045Z" stroke="#A7A9AB" stroke-width="1.75" stroke-miterlimit="10"/>
<path d="M53.6465 40.7631C53.6465 36.5699 56.683 33.0996 60.587 33.0996C64.3464 33.0996 67.5274 36.5699 67.5274 40.7631C67.5274 44.9563 64.491 48.4265 60.587 48.4265C56.683 48.4265 53.6465 44.9563 53.6465 40.7631Z" fill="white"/>
<path d="M53.6465 40.7631C53.6465 36.5699 56.683 33.0996 60.587 33.0996C64.3464 33.0996 67.5274 36.5699 67.5274 40.7631C67.5274 44.9563 64.491 48.4265 60.587 48.4265C56.683 48.4265 53.6465 44.9563 53.6465 40.7631Z" stroke="#A7A9AB" stroke-width="1.75" stroke-miterlimit="10"/>
<path d="M30.653 46.8359H10.8438" stroke="#A7A9AB" stroke-width="1.75" stroke-miterlimit="10"/>
</svg>
