<svg width="94" height="76" viewBox="0 0 94 76" fill="none" xmlns="http://www.w3.org/2000/svg">
<path d="M8.93066 9.24805V61.5929H34.7858C39.0686 61.5929 43.8272 64.1308 45.4134 66.3515H46.9996V21.7791C46.9996 14.9584 42.8755 9.24805 34.1513 9.24805H8.93066Z" fill="white"/>
<path d="M8.93066 9.24805V61.5929H34.7858C39.0686 61.5929 43.8272 64.1308 45.4134 66.3515H46.9996V21.7791C46.9996 14.9584 42.8755 9.24805 34.1513 9.24805H8.93066Z" stroke="#A7A9AB" stroke-width="1.5" stroke-miterlimit="10" stroke-linecap="round" stroke-linejoin="round"/>
<path d="M18.4482 1V53.3448L37.8 58.8966C40.9724 59.8483 44.1448 63.8138 45.4138 66.3517H47V21.7793C47 14.9586 43.8275 8.29659 37.3241 6.39314L18.4482 1Z" fill="white"/>
<path d="M85.069 14.0067V9.24805H59.8483C51.1241 9.24805 47 14.9584 47 21.7791V66.3515H48.5862C50.1724 64.1308 54.9311 61.5929 59.2138 61.5929H85.069V42.5584V14.0067Z" fill="white"/>
<path d="M4.01378 14.0078H1V69.5251H34.3103L39.069 74.2837H47H54.931L59.6897 69.5251H93V34.6285V14.0078H89.3517" stroke="#A7A9AB" stroke-width="1.5" stroke-miterlimit="10" stroke-linecap="round" stroke-linejoin="round"/>
<path d="M85.069 14.0067V9.24805H59.8483C51.1241 9.24805 47 14.9584 47 21.7791V66.3515H48.5862C50.1724 64.1308 54.9311 61.5929 59.2138 61.5929H85.069V42.5584V14.0067Z" stroke="#A7A9AB" stroke-width="1.5" stroke-miterlimit="10" stroke-linecap="round" stroke-linejoin="round"/>
<path d="M18.4482 1V53.3448L37.8 58.8966C40.9724 59.8483 44.1448 63.8138 45.4138 66.3517H47V21.7793C47 14.9586 43.8275 8.29659 37.3241 6.39314L18.4482 1Z" stroke="#A7A9AB" stroke-width="1.5" stroke-miterlimit="10" stroke-linecap="round" stroke-linejoin="round"/>
<path d="M64.449 41.1309H56.3594V43.0343H64.449V41.1309Z" fill="#A7A9AB"/>
<path d="M70.9525 23.6816H56.3594V25.5851H70.9525V23.6816Z" fill="#A7A9AB"/>
<path d="M70.9525 46.6816H56.3594V48.5851H70.9525V46.6816Z" fill="#A7A9AB"/>
<path d="M75.7111 29.5508H56.3594V31.4542H75.7111V29.5508Z" fill="#A7A9AB"/>
<path d="M75.7111 35.4219H56.3594V37.3253H75.7111V35.4219Z" fill="#A7A9AB"/>
<path d="M75.7111 41.1309H73.8076V43.0343H75.7111V41.1309Z" fill="#A7A9AB"/>
<path d="M71.5876 41.1309H66.5117V43.0343H71.5876V41.1309Z" fill="#A7A9AB"/>
<path d="M25.4277 21.1445V23.048L35.2622 25.7445V23.8411L25.4277 21.1445Z" fill="#A7A9AB"/>
<path d="M25.4277 27.0137V28.9171L40.0209 32.8826V30.9792L25.4277 27.0137Z" fill="#A7A9AB"/>
<path d="M25.4277 32.7246V34.7867L40.0209 38.7522V36.6901L25.4277 32.7246Z" fill="#A7A9AB"/>
<path d="M25.4277 38.5938V40.4972L35.7381 43.3524V41.4489L25.4277 38.5938Z" fill="#A7A9AB"/>
<path d="M38.1182 42.084V43.9874L40.0216 44.4633V42.5598L38.1182 42.084Z" fill="#A7A9AB"/>
</svg>
