<svg width="82" height="74" viewBox="0 0 82 74" fill="none" xmlns="http://www.w3.org/2000/svg">
<path d="M61.4995 11.0459H20.4995L6.87695 22.0692V25.5575H75.2543V22.0692L61.4995 11.0459Z" fill="white"/>
<path d="M61.4995 11.0459H20.4995L6.87695 22.0692V25.5575H75.2544V22.0692L61.4995 11.0459Z" stroke="#A7A9AB" stroke-width="2" stroke-miterlimit="10"/>
<path d="M6.87695 73H75.2544" stroke="#A7A9AB" stroke-width="2" stroke-miterlimit="10"/>
<path d="M61.5 25.5575V22.6273L54.6226 13.9761V11.0459M34.1226 25.5575V22.6273L36.9 13.9761V11.0459L34.1226 25.5575ZM20.5 25.5575V22.6273L27.3774 13.9761V11.0459L20.5 25.5575ZM47.8774 25.5575V22.6273L45.1 13.9761V11.0459L47.8774 25.5575Z" stroke="#A7A9AB" stroke-width="2" stroke-miterlimit="10"/>
<path d="M69.6988 26.9531H12.2988V72.9997H69.6988V26.9531Z" fill="white"/>
<path d="M69.6988 26.9531H12.2988V72.9997H69.6988V26.9531Z" stroke="#A7A9AB" stroke-width="2" stroke-miterlimit="10"/>
<path d="M31.4762 35.6045H12.2988V72.9998H31.4762V35.6045Z" fill="white"/>
<path d="M31.4762 35.6045H12.2988V72.9998H31.4762V35.6045Z" stroke="#A7A9AB" stroke-width="2" stroke-miterlimit="10"/>
<path d="M25.9219 54.3008V60.0217" stroke="#A7A9AB" stroke-width="2" stroke-miterlimit="10"/>
<path d="M64.9378 56.3945L53.8281 68.1155M64.9378 63.2317L60.441 67.9759L64.9378 63.2317Z" stroke="#A7A9AB" stroke-width="2" stroke-miterlimit="10"/>
<path d="M61.5 1H20.5V11.0465H61.5V1Z" fill="white"/>
<path d="M61.5 1H20.5V11.0465H61.5V1Z" stroke="#A7A9AB" stroke-width="2" stroke-miterlimit="10"/>
<path d="M6.87695 25.5566V34.2078C6.87695 37.9753 10.1834 41.4636 13.7543 41.4636C17.3253 41.4636 20.6318 37.9753 20.6318 34.2078C20.6318 37.9753 23.9383 41.4636 27.5092 41.4636C31.0802 41.4636 34.3866 37.9753 34.3866 34.2078C34.3866 37.9753 37.6931 41.4636 41.264 41.4636C44.835 41.4636 48.1414 37.9753 48.1414 34.2078C48.1414 37.9753 51.4479 41.4636 55.0189 41.4636C58.5898 41.4636 61.8963 37.9753 61.8963 34.2078C61.8963 37.9753 65.2027 41.4636 68.7737 41.4636C72.3447 41.4636 75.6511 37.9753 75.6511 34.2078V25.5566H6.87695Z" fill="white"/>
<path d="M6.87695 25.5566V34.2078C6.87695 37.9753 10.1834 41.4636 13.7543 41.4636C17.3253 41.4636 20.6318 37.9753 20.6318 34.2078C20.6318 37.9753 23.9383 41.4636 27.5092 41.4636C31.0802 41.4636 34.3866 37.9753 34.3866 34.2078C34.3866 37.9753 37.6931 41.4636 41.264 41.4636C44.835 41.4636 48.1414 37.9753 48.1414 34.2078C48.1414 37.9753 51.4479 41.4636 55.0189 41.4636C58.5898 41.4636 61.8963 37.9753 61.8963 34.2078C61.8963 37.9753 65.2027 41.4636 68.7737 41.4636C72.3447 41.4636 75.6511 37.9753 75.6511 34.2078V25.5566H6.87695Z" stroke="#A7A9AB" stroke-width="2" stroke-miterlimit="10"/>
<path d="M20.5 31.2773V34.2076M82 72.9983H77.9H82ZM4.10001 72.9983H0H4.10001ZM61.5 31.2773V34.2076V31.2773ZM47.8774 31.2773V34.2076V31.2773ZM34.1226 31.2773V34.2076V31.2773Z" stroke="#A7A9AB" stroke-width="2" stroke-miterlimit="10"/>
</svg>
