<?xml version="1.0" encoding="utf-8"?>
<!-- Generator: Adobe Illustrator 26.3.1, SVG Export Plug-In . SVG Version: 6.00 Build 0)  -->
<svg version="1.1" id="Layer_1" xmlns="http://www.w3.org/2000/svg" xmlns:xlink="http://www.w3.org/1999/xlink" x="0px" y="0px"
	 viewBox="0 0 72 86" style="enable-background:new 0 0 72 86;" xml:space="preserve">
<style type="text/css">
	.st0{clip-path:url(#SVGID_00000051376482066191277980000015001798444753285761_);}
	.st1{fill:#FFFFFF;}
	.st2{fill:#E8EBEB;}
	.st3{fill:none;stroke:#00529C;stroke-width:2;stroke-linecap:round;stroke-linejoin:round;}
	.st4{fill:none;stroke:#6ACCE5;stroke-width:3;stroke-linecap:round;stroke-linejoin:round;}
	.st5{fill:#6ACCE5;}
</style>
<g>
	<defs>
		<rect id="SVGID_1_" width="71.2" height="86"/>
	</defs>
	<clipPath id="SVGID_00000039093942153546960210000008877624835445047427_">
		<use xlink:href="#SVGID_1_"  style="overflow:visible;"/>
	</clipPath>
	<g style="clip-path:url(#SVGID_00000039093942153546960210000008877624835445047427_);">
		<path class="st1" d="M10.5,28v28.5l24.3,13.6l24.3-13.6V28L34.7,14.9L10.5,28z"/>
		<path class="st2" d="M10.5,56.5l24.3,13.6V41.6L10.5,28V56.5z"/>
		<path class="st3" d="M10.5,28l24.3,13.6v28.5L10.5,56.5V28z"/>
		<path class="st3" d="M34.7,42v28.1 M34.7,70.1l24.4-13.6V28L34.7,14.9L10.5,28v28.5L34.7,70.1z M34.7,41.6L59.1,28L34.7,41.6z"/>
		<path class="st4" d="M1.1,68.1c5.6,6.7,13.2,11.7,22.3,14.3c14.2,4,28.6,0.8,39.5-7.4"/>
		<path class="st5" d="M63.1,76.1l2.2,2.7l4.5-9.1L60,72.1l1.9,2.4L63.1,76.1z"/>
		<path class="st4" d="M69.8,17.9C64.1,11.2,56.5,6.1,47.5,3.6C33.4-0.4,18.9,2.8,8,11.1"/>
		<path class="st5" d="M7.7,9.9L5.6,7.1l-4.5,9.1l9.8-2.4L9,11.5L7.7,9.9z"/>
		<path class="st3" d="M49.9,33.1L25.6,20"/>
		<path class="st3" d="M44.2,36.3L19.8,23.2"/>
		<path class="st3" d="M49.9,40.7v-6.8"/>
		<path class="st3" d="M44.1,43.9v-7.1"/>
		<path class="st3" d="M44.1,43.9l5.8-3.2"/>
	</g>
</g>
</svg>
