<svg width="73" height="86" viewBox="0 0 73 86" fill="none" xmlns="http://www.w3.org/2000/svg">
<path d="M11.4629 28.0483V56.5418L35.7269 70.1208L60.0651 56.5418V28.0483L35.7269 14.9146L11.4629 28.0483Z" fill="white"/>
<path d="M11.4629 56.5419L35.7269 70.1208V41.6273L11.4629 28.0483V56.5419Z" fill="#F5F5F5"/>
<path d="M11.4629 28.0483L35.7269 41.6273V70.1208L11.4629 56.5419V28.0483Z" stroke="#A7A9AB" stroke-width="2" stroke-linecap="round" stroke-linejoin="round"/>
<path d="M35.7269 41.9982V70.1208M35.7269 70.1208L60.1393 56.5418V28.0483L35.7269 14.9146L11.4629 28.0483V56.5418C11.4629 56.5418 35.7269 70.1208 35.7269 70.1208ZM35.7269 41.6272L60.1393 28.0483L35.7269 41.6272Z" stroke="#A7A9AB" stroke-width="2" stroke-linecap="round" stroke-linejoin="round"/>
<path d="M2.11328 68.1174C7.75263 74.7956 15.3212 79.8413 24.3738 82.4384C38.5464 86.4453 53.0158 83.2546 63.9235 75.0182" stroke="#D4D4D4" stroke-width="3" stroke-linecap="round" stroke-linejoin="round"/>
<path d="M64.1458 76.1312L66.2976 78.8025L70.7497 69.7499L60.9551 72.0501L62.8843 74.4988L64.1458 76.1312Z" fill="#D4D4D4"/>
<path d="M70.7496 17.8827C65.1103 11.2045 57.5417 6.08458 48.4891 3.56172C34.3907 -0.445186 19.9214 2.8197 9.01367 11.0561" stroke="#D4D4D4" stroke-width="3" stroke-linecap="round" stroke-linejoin="round"/>
<path d="M8.71725 9.86888L6.6396 7.12341L2.11328 16.2502L11.9079 13.8758L9.97868 11.5013L8.71725 9.86888Z" fill="#D4D4D4"/>
<path d="M50.9378 33.0941L26.5996 19.9603" stroke="#A7A9AB" stroke-width="2" stroke-linecap="round" stroke-linejoin="round"/>
<path d="M45.1507 36.2847L20.8125 23.151" stroke="#A7A9AB" stroke-width="2" stroke-linecap="round" stroke-linejoin="round"/>
<path d="M50.9385 40.6626V33.9103" stroke="#A7A9AB" stroke-width="2" stroke-linecap="round" stroke-linejoin="round"/>
<path d="M45.1504 43.8534V36.73" stroke="#A7A9AB" stroke-width="2" stroke-linecap="round" stroke-linejoin="round"/>
<path d="M45.1504 43.8534L50.9381 40.6627" stroke="#A7A9AB" stroke-width="2" stroke-linecap="round" stroke-linejoin="round"/>
</svg>
