<svg xmlns="http://www.w3.org/2000/svg" viewBox="0 0 188.93 162.53"><defs><style>.cls-1,.cls-2,.cls-3{fill:#a7a9ab;}.cls-2{fill-opacity:0.35;}.cls-3{fill-opacity:0.2;}.cls-4{fill:none;stroke:#c4c4c4;stroke-opacity:0.6;stroke-width:0.5px;}</style></defs><g id="Layer_2" data-name="Layer 2"><g id="Layer_1-2" data-name="Layer 1"><path class="cls-1" d="M66.64,153.1a2.66,2.66,0,0,1,1.81.51A1.82,1.82,0,0,1,69,155a2.3,2.3,0,0,1-.13.79,1.65,1.65,0,0,1-.42.67,2,2,0,0,1-.78.45,3.64,3.64,0,0,1-1.18.17h-.68v2.41H64.77V153.1Zm-.07.88h-.74v2.26h.57a2.68,2.68,0,0,0,.85-.12,1,1,0,0,0,.52-.37,1.13,1.13,0,0,0,.18-.67,1,1,0,0,0-.34-.83A1.64,1.64,0,0,0,66.57,154Zm6.1.59h.27l.25,0-.1,1-.23,0h-.24a1.5,1.5,0,0,0-.52.09,1.27,1.27,0,0,0-.75.73,1.73,1.73,0,0,0-.11.63v2.55h-1v-4.87H71l.14.86h0a2.41,2.41,0,0,1,.36-.48,1.87,1.87,0,0,1,.49-.34A1.44,1.44,0,0,1,72.67,154.57Zm2.45.09v4.87h-1v-4.87Zm-.51-1.86a.71.71,0,0,1,.41.12.51.51,0,0,1,.17.44.49.49,0,0,1-.17.44.65.65,0,0,1-.41.13.68.68,0,0,1-.42-.13.51.51,0,0,1-.16-.44.54.54,0,0,1,.16-.44A.74.74,0,0,1,74.61,152.8Zm4.53,1.77a1.85,1.85,0,0,1,1.28.42,1.81,1.81,0,0,1,.46,1.36v3.18h-1v-3a1.29,1.29,0,0,0-.23-.85.86.86,0,0,0-.72-.29,1.07,1.07,0,0,0-1,.44,2.31,2.31,0,0,0-.28,1.26v2.42h-1v-4.87h.81l.14.66h.06a1.31,1.31,0,0,1,.39-.42,1.85,1.85,0,0,1,.53-.25A2.43,2.43,0,0,1,79.14,154.57Zm5,4.21a1.75,1.75,0,0,0,.4,0,1.58,1.58,0,0,0,.36-.09v.78a1.79,1.79,0,0,1-.44.13,2.63,2.63,0,0,1-.57.05,2,2,0,0,1-.74-.13,1.15,1.15,0,0,1-.52-.48,1.9,1.9,0,0,1-.2-.94v-2.61h-.66V155l.71-.37.34-1h.65v1.08h1.39v.79H83.46v2.6a.71.71,0,0,0,.19.55A.65.65,0,0,0,84.13,158.78Z"/><path class="cls-1" d="M116,156.25a3.71,3.71,0,0,1-.41,1.82,2.63,2.63,0,0,1-1.17,1.09,4.33,4.33,0,0,1-1.85.37h-1.79V153.1h2a3.83,3.83,0,0,1,1.72.36,2.55,2.55,0,0,1,1.12,1.06A3.41,3.41,0,0,1,116,156.25Zm-1.1,0a2.9,2.9,0,0,0-.25-1.3,1.61,1.61,0,0,0-.73-.75,2.48,2.48,0,0,0-1.18-.25h-.9v4.66h.74a2.33,2.33,0,0,0,1.74-.59A2.44,2.44,0,0,0,114.89,156.28Zm3.41-1.62v4.87h-1v-4.87Zm-.51-1.86a.71.71,0,0,1,.41.12.51.51,0,0,1,.17.44.49.49,0,0,1-.17.44.65.65,0,0,1-.41.13.68.68,0,0,1-.42-.13.52.52,0,0,1-.17-.44.54.54,0,0,1,.17-.44A.74.74,0,0,1,117.79,152.8Zm3.38,8.89a2.69,2.69,0,0,1-1.52-.36,1.14,1.14,0,0,1-.52-1,1.1,1.1,0,0,1,.28-.76,1.49,1.49,0,0,1,.8-.42.89.89,0,0,1-.34-.27.66.66,0,0,1-.14-.42.75.75,0,0,1,.15-.47,1.65,1.65,0,0,1,.46-.37,1.36,1.36,0,0,1-.61-.53,1.54,1.54,0,0,1-.23-.86,1.67,1.67,0,0,1,.22-.9,1.42,1.42,0,0,1,.66-.57,2.47,2.47,0,0,1,1-.2l.28,0,.29,0a.78.78,0,0,1,.21,0h1.68v.57l-.82.16a1.35,1.35,0,0,1,.19.38,1.64,1.64,0,0,1,.07.46,1.47,1.47,0,0,1-.53,1.19,2.14,2.14,0,0,1-1.43.43l-.42,0a.75.75,0,0,0-.25.21.47.47,0,0,0-.08.26.26.26,0,0,0,.08.19.53.53,0,0,0,.25.11,2.33,2.33,0,0,0,.4,0h.84a2,2,0,0,1,1.23.34,1.22,1.22,0,0,1,.42,1,1.42,1.42,0,0,1-.69,1.27A3.5,3.5,0,0,1,121.17,161.69Zm0-.73a3.42,3.42,0,0,0,.91-.1,1.21,1.21,0,0,0,.56-.31.66.66,0,0,0,.19-.46.49.49,0,0,0-.12-.36.62.62,0,0,0-.36-.18,3.17,3.17,0,0,0-.59-.05H121a1.36,1.36,0,0,0-.51.09.76.76,0,0,0-.34.27.69.69,0,0,0-.12.41.57.57,0,0,0,.29.51A1.65,1.65,0,0,0,121.21,161Zm.2-3.79a.86.86,0,0,0,.67-.24,1.26,1.26,0,0,0,0-1.44.83.83,0,0,0-.66-.25.85.85,0,0,0-.67.25,1.09,1.09,0,0,0-.22.74,1,1,0,0,0,.22.7A.89.89,0,0,0,121.41,157.17Zm4.39-2.51v4.87h-1v-4.87Zm-.5-1.86a.68.68,0,0,1,.4.12.52.52,0,0,1,.18.44.49.49,0,0,1-.18.44.62.62,0,0,1-.4.13.64.64,0,0,1-.42-.13.52.52,0,0,1-.17-.44.54.54,0,0,1,.17-.44A.7.7,0,0,1,125.3,152.8Zm3.8,6a1.87,1.87,0,0,0,.4,0,1.9,1.9,0,0,0,.36-.09v.78a2,2,0,0,1-.45.13,2.59,2.59,0,0,1-.56.05,2,2,0,0,1-.75-.13,1.15,1.15,0,0,1-.52-.48,1.91,1.91,0,0,1-.19-.94v-2.61h-.67V155l.72-.37.33-1h.65v1.08h1.4v.79h-1.4v2.6a.75.75,0,0,0,.19.55A.66.66,0,0,0,129.1,158.78Zm3.65-4.21a2.05,2.05,0,0,1,1.4.41,1.59,1.59,0,0,1,.47,1.27v3.28h-.73l-.2-.69h0a2.46,2.46,0,0,1-.42.43,1.75,1.75,0,0,1-.51.26,2.81,2.81,0,0,1-.7.08,1.94,1.94,0,0,1-.78-.15,1.24,1.24,0,0,1-.54-.5,1.62,1.62,0,0,1-.2-.83,1.28,1.28,0,0,1,.56-1.13,3.35,3.35,0,0,1,1.7-.42l.84,0v-.25a1,1,0,0,0-.24-.73.93.93,0,0,0-.66-.21,2.37,2.37,0,0,0-.7.1c-.23.08-.45.16-.67.26L131,155a4.27,4.27,0,0,1,.81-.3A3.75,3.75,0,0,1,132.75,154.57Zm.85,2.63-.63,0a2,2,0,0,0-1.09.27.75.75,0,0,0-.31.65.59.59,0,0,0,.22.52.89.89,0,0,0,.56.17,1.27,1.27,0,0,0,.89-.31,1.1,1.1,0,0,0,.36-.9Zm3.5,2.33h-1v-6.84h1Z"/><rect class="cls-2" x="48.93" y="150.53" width="12" height="12" rx="2"/><rect class="cls-3" x="94.93" y="150.53" width="12" height="12" rx="2"/><line class="cls-4" x1="15.93" y1="127.28" x2="188.93" y2="127.28"/><line class="cls-4" x1="15.93" y1="98.28" x2="188.93" y2="98.28"/><line class="cls-4" x1="15.93" y1="65.28" x2="188.93" y2="65.28"/><line class="cls-4" x1="15.93" y1="35.28" x2="188.93" y2="35.28"/><path class="cls-1" d="M9.11,127.31A6.51,6.51,0,0,1,9,128.7a3.26,3.26,0,0,1-.37,1,1.84,1.84,0,0,1-.68.65,2.12,2.12,0,0,1-1,.22,1.89,1.89,0,0,1-1.23-.39A2.27,2.27,0,0,1,5,129.09a5.85,5.85,0,0,1-.24-1.78A6.63,6.63,0,0,1,5,125.53a2.26,2.26,0,0,1,.7-1.13,1.9,1.9,0,0,1,1.27-.4,1.84,1.84,0,0,1,1.23.4,2.31,2.31,0,0,1,.72,1.13A5.76,5.76,0,0,1,9.11,127.31Zm-3.33,0a7.39,7.39,0,0,0,.11,1.36,1.61,1.61,0,0,0,.36.81.87.87,0,0,0,.67.27.87.87,0,0,0,.67-.27,1.75,1.75,0,0,0,.36-.81,7.31,7.31,0,0,0,.11-1.36A7.2,7.2,0,0,0,8,126a1.6,1.6,0,0,0-.36-.82.85.85,0,0,0-.67-.28.83.83,0,0,0-.67.28,1.6,1.6,0,0,0-.36.82A7.2,7.2,0,0,0,5.78,127.31Z"/><path class="cls-1" d="M7.37,97.51a2.53,2.53,0,0,1,1.09.22,1.71,1.71,0,0,1,.73.65,2,2,0,0,1,.27,1.05,2.31,2.31,0,0,1-.29,1.17,1.93,1.93,0,0,1-.84.75,3.07,3.07,0,0,1-1.35.26,5.58,5.58,0,0,1-.94-.08,2.54,2.54,0,0,1-.75-.27v-.93a3.43,3.43,0,0,0,.79.3,3.51,3.51,0,0,0,.88.12,2.17,2.17,0,0,0,.77-.13,1,1,0,0,0,.49-.41,1.22,1.22,0,0,0,.18-.69A1,1,0,0,0,8,98.67a1.66,1.66,0,0,0-1.1-.3,3.69,3.69,0,0,0-.56,0c-.2,0-.36.07-.5.1l-.45-.27.24-3.14H9V96H6.58l-.14,1.6.38-.07A4.22,4.22,0,0,1,7.37,97.51Z"/><path class="cls-1" d="M35,142.31a2.58,2.58,0,0,1-.42,0,1.38,1.38,0,0,1-.32-.07v-.88l.31.06.34,0a1,1,0,0,0,.44-.09.63.63,0,0,0,.31-.33,1.56,1.56,0,0,0,.12-.68V134.1h1.06v6.17a2.62,2.62,0,0,1-.23,1.17,1.46,1.46,0,0,1-.64.66A2.13,2.13,0,0,1,35,142.31Zm5.3-6.74a2,2,0,0,1,1.39.41,1.57,1.57,0,0,1,.48,1.27v3.28H41.4l-.19-.69h0a2.87,2.87,0,0,1-.42.43,1.75,1.75,0,0,1-.51.26,2.81,2.81,0,0,1-.7.08,1.94,1.94,0,0,1-.78-.15,1.24,1.24,0,0,1-.54-.5,1.62,1.62,0,0,1-.2-.83,1.28,1.28,0,0,1,.56-1.13,3.32,3.32,0,0,1,1.7-.42l.84,0v-.25a1,1,0,0,0-.24-.73.93.93,0,0,0-.66-.21,2.32,2.32,0,0,0-.7.1,6.66,6.66,0,0,0-.67.26l-.34-.73a4.27,4.27,0,0,1,.81-.3A3.75,3.75,0,0,1,40.27,135.57Zm.84,2.63-.62,0a2,2,0,0,0-1.09.27.75.75,0,0,0-.31.65.62.62,0,0,0,.21.52.94.94,0,0,0,.57.17,1.29,1.29,0,0,0,.89-.31,1.1,1.1,0,0,0,.35-.9Zm5-2.63a1.83,1.83,0,0,1,1.28.42,1.78,1.78,0,0,1,.46,1.36v3.18h-1v-3a1.29,1.29,0,0,0-.24-.85.86.86,0,0,0-.72-.29,1.07,1.07,0,0,0-1,.44,2.41,2.41,0,0,0-.27,1.26v2.42h-1v-4.87h.81l.14.66h.06a1.57,1.57,0,0,1,.39-.42,2,2,0,0,1,.53-.25A2.49,2.49,0,0,1,46.12,135.57Zm7.43.09v4.87h-.82l-.14-.66h-.05a1.57,1.57,0,0,1-.39.42,1.7,1.7,0,0,1-.53.24,2.09,2.09,0,0,1-.61.08,2.22,2.22,0,0,1-.94-.18,1.35,1.35,0,0,1-.6-.58,2.27,2.27,0,0,1-.2-1v-3.18h1v3a1.33,1.33,0,0,0,.23.85.89.89,0,0,0,.72.28,1.26,1.26,0,0,0,.75-.19,1.08,1.08,0,0,0,.39-.57,3.09,3.09,0,0,0,.12-.93v-2.42Zm3.39-.09a2,2,0,0,1,1.39.41,1.59,1.59,0,0,1,.47,1.27v3.28h-.73l-.2-.69h0a2.49,2.49,0,0,1-.43.43,1.75,1.75,0,0,1-.51.26,2.75,2.75,0,0,1-.7.08,1.94,1.94,0,0,1-.78-.15,1.24,1.24,0,0,1-.54-.5,1.62,1.62,0,0,1-.19-.83,1.27,1.27,0,0,1,.55-1.13,3.35,3.35,0,0,1,1.7-.42l.84,0v-.25a1,1,0,0,0-.23-.73,1,1,0,0,0-.66-.21,2.39,2.39,0,0,0-.71.1c-.23.08-.45.16-.67.26l-.33-.73a3.81,3.81,0,0,1,.81-.3A3.69,3.69,0,0,1,56.94,135.57Zm.84,2.63-.63,0a2,2,0,0,0-1.09.27.77.77,0,0,0-.31.65.59.59,0,0,0,.22.52.9.9,0,0,0,.57.17,1.26,1.26,0,0,0,.88-.31,1.1,1.1,0,0,0,.36-.9Zm4.93-2.63H63l.25,0-.09,1-.23,0h-.24a1.6,1.6,0,0,0-.53.09,1.22,1.22,0,0,0-.44.28,1.19,1.19,0,0,0-.3.45,1.54,1.54,0,0,0-.11.63v2.55h-1v-4.87h.81l.14.86h0a1.83,1.83,0,0,1,.36-.48,1.72,1.72,0,0,1,.49-.34A1.39,1.39,0,0,1,62.71,135.57Zm.69.09h1.12l1,2.78a2.65,2.65,0,0,1,.12.37c0,.12.07.24.1.36s.05.23.07.35h0A4.79,4.79,0,0,1,66,139q.08-.28.18-.57l1-2.78h1.11l-2.09,5.53a2.83,2.83,0,0,1-.44.81,1.59,1.59,0,0,1-.62.51,1.73,1.73,0,0,1-.81.18,2.17,2.17,0,0,1-.38,0l-.28,0v-.82l.24,0h.29a.88.88,0,0,0,.47-.11.94.94,0,0,0,.35-.31,1.9,1.9,0,0,0,.23-.45l.17-.46Z"/><path class="cls-1" d="M88.82,140.53h-1V134.1H91.4V135H88.82v2h2.41v.89H88.82Zm5.58-5a2.19,2.19,0,0,1,1.12.27,1.74,1.74,0,0,1,.71.76,2.5,2.5,0,0,1,.26,1.17v.56H93.24a1.6,1.6,0,0,0,.38,1.09,1.35,1.35,0,0,0,1,.38,3.52,3.52,0,0,0,.83-.09,4.17,4.17,0,0,0,.77-.27v.84a2.94,2.94,0,0,1-.74.25,4.1,4.1,0,0,1-.91.08,2.78,2.78,0,0,1-1.26-.27,2.08,2.08,0,0,1-.85-.84,2.86,2.86,0,0,1-.3-1.37,3.08,3.08,0,0,1,.28-1.39,2,2,0,0,1,.77-.87A2.26,2.26,0,0,1,94.4,135.57Zm0,.78a1,1,0,0,0-.79.31,1.46,1.46,0,0,0-.35.93h2.21a1.67,1.67,0,0,0-.12-.65,1,1,0,0,0-.35-.44A1.09,1.09,0,0,0,94.4,136.35Zm4.28-2.66v1.65c0,.19,0,.37,0,.56s0,.32,0,.42h0a1.75,1.75,0,0,1,.55-.53,1.78,1.78,0,0,1,.91-.22,1.72,1.72,0,0,1,1.39.64,2.83,2.83,0,0,1,.53,1.88,3.57,3.57,0,0,1-.24,1.39,1.94,1.94,0,0,1-.68.85,1.82,1.82,0,0,1-1,.28,1.72,1.72,0,0,1-.9-.2,1.78,1.78,0,0,1-.53-.48h-.08l-.19.6h-.77v-6.84Zm1.19,2.72a1.21,1.21,0,0,0-.7.18,1,1,0,0,0-.37.53,3.39,3.39,0,0,0-.12.88v.09a2.44,2.44,0,0,0,.26,1.24,1,1,0,0,0,.94.44.94.94,0,0,0,.83-.44,2.3,2.3,0,0,0,.29-1.26,2.2,2.2,0,0,0-.29-1.24A1,1,0,0,0,99.87,136.41Zm5.85-.84H106l.25,0-.1,1-.22,0h-.24a1.55,1.55,0,0,0-.53.09,1.14,1.14,0,0,0-.44.28,1.34,1.34,0,0,0-.31.45,1.73,1.73,0,0,0-.11.63v2.55h-1v-4.87h.81l.14.86h.05a1.83,1.83,0,0,1,.36-.48,1.72,1.72,0,0,1,.49-.34A1.39,1.39,0,0,1,105.72,135.57Zm5.66.09v4.87h-.81l-.14-.66h-.06a1.31,1.31,0,0,1-.39.42,1.6,1.6,0,0,1-.53.24,2,2,0,0,1-.61.08,2.25,2.25,0,0,1-.94-.18,1.32,1.32,0,0,1-.59-.58,2.13,2.13,0,0,1-.21-1v-3.18h1v3a1.33,1.33,0,0,0,.23.85.86.86,0,0,0,.72.28,1.3,1.3,0,0,0,.75-.19,1.08,1.08,0,0,0,.39-.57,3.09,3.09,0,0,0,.12-.93v-2.42Zm3.39-.09a2,2,0,0,1,1.39.41,1.57,1.57,0,0,1,.48,1.27v3.28h-.73l-.2-.69h0a2.87,2.87,0,0,1-.42.43,1.75,1.75,0,0,1-.51.26,2.81,2.81,0,0,1-.7.08,1.94,1.94,0,0,1-.78-.15,1.24,1.24,0,0,1-.54-.5,1.62,1.62,0,0,1-.2-.83,1.28,1.28,0,0,1,.56-1.13,3.32,3.32,0,0,1,1.7-.42l.84,0v-.25a1,1,0,0,0-.24-.73.93.93,0,0,0-.66-.21,2.32,2.32,0,0,0-.7.1,6.66,6.66,0,0,0-.67.26L113,136a4.27,4.27,0,0,1,.81-.3A3.75,3.75,0,0,1,114.77,135.57Zm.85,2.63-.63,0a2,2,0,0,0-1.09.27.75.75,0,0,0-.31.65.62.62,0,0,0,.21.52.94.94,0,0,0,.57.17,1.29,1.29,0,0,0,.89-.31,1.1,1.1,0,0,0,.36-.9Zm4.93-2.63h.27l.25,0-.1,1-.23,0h-.23a1.55,1.55,0,0,0-.53.09,1.18,1.18,0,0,0-.45.28,1.31,1.31,0,0,0-.3.45,1.73,1.73,0,0,0-.11.63v2.55h-1v-4.87h.81l.14.86h0a2.41,2.41,0,0,1,.36-.48,2,2,0,0,1,.49-.34A1.44,1.44,0,0,1,120.55,135.57Zm.69.09h1.12l1,2.78.12.37c0,.12.07.24.09.36a2,2,0,0,1,.07.35h0q0-.22.12-.51c.06-.19.12-.38.19-.57l1-2.78h1.11L124,141.19a3.1,3.1,0,0,1-.44.81,1.67,1.67,0,0,1-.62.51,1.79,1.79,0,0,1-.81.18,2,2,0,0,1-.38,0l-.28,0v-.82l.23,0H122a.9.9,0,0,0,.48-.11.84.84,0,0,0,.34-.31A1.61,1.61,0,0,0,123,141l.17-.46Z"/><path class="cls-1" d="M148.54,140.53l-1.85-5.37h0c0,.12,0,.28,0,.49s0,.43,0,.67,0,.46,0,.68v3.53h-1V134.1h1.48l1.78,5.13h0l1.84-5.13h1.48v6.43h-1V137c0-.2,0-.41,0-.64s0-.44,0-.65,0-.37,0-.49h0l-1.92,5.36Zm7.33-5a2,2,0,0,1,1.39.41,1.57,1.57,0,0,1,.48,1.27v3.28H157l-.19-.69h0a2.49,2.49,0,0,1-.43.43,1.53,1.53,0,0,1-.51.26,2.73,2.73,0,0,1-.69.08,1.94,1.94,0,0,1-.78-.15,1.24,1.24,0,0,1-.54-.5,1.62,1.62,0,0,1-.2-.83,1.28,1.28,0,0,1,.56-1.13,3.31,3.31,0,0,1,1.69-.42l.85,0v-.25a1,1,0,0,0-.24-.73.93.93,0,0,0-.66-.21,2.44,2.44,0,0,0-.71.1c-.22.08-.45.16-.66.26l-.34-.73a4.27,4.27,0,0,1,.81-.3A3.75,3.75,0,0,1,155.87,135.57Zm.84,2.63-.62,0a2,2,0,0,0-1.09.27.75.75,0,0,0-.31.65.62.62,0,0,0,.21.52.94.94,0,0,0,.57.17,1.29,1.29,0,0,0,.89-.31,1.13,1.13,0,0,0,.35-.9Zm4.94-2.63h.27l.25,0-.1,1-.23,0h-.24a1.5,1.5,0,0,0-.52.09,1.27,1.27,0,0,0-.75.73,1.73,1.73,0,0,0-.11.63v2.55h-1v-4.87H160l.14.86h.05a2.41,2.41,0,0,1,.36-.48,1.87,1.87,0,0,1,.49-.34A1.44,1.44,0,0,1,161.65,135.57Zm3.38,5a2.65,2.65,0,0,1-1.2-.26,1.9,1.9,0,0,1-.78-.83,3.18,3.18,0,0,1-.27-1.4,3.06,3.06,0,0,1,.3-1.45,1.9,1.9,0,0,1,.83-.83,2.63,2.63,0,0,1,1.21-.27,3.18,3.18,0,0,1,.79.09,2.48,2.48,0,0,1,.6.2l-.3.83c-.18-.07-.37-.14-.55-.19a2.11,2.11,0,0,0-.54-.07,1.25,1.25,0,0,0-.72.19,1.17,1.17,0,0,0-.42.56,2.78,2.78,0,0,0-.13.93,2.36,2.36,0,0,0,.14.9,1.14,1.14,0,0,0,.41.56,1.27,1.27,0,0,0,.69.18,2.6,2.6,0,0,0,.71-.09,3.2,3.2,0,0,0,.6-.26v.9a2.13,2.13,0,0,1-.59.23A3,3,0,0,1,165,140.61Zm3.54-6.92v1.72c0,.17,0,.35,0,.52s0,.3,0,.39h.05a1.5,1.5,0,0,1,.38-.41,1.57,1.57,0,0,1,.5-.25,2,2,0,0,1,.6-.09,2.26,2.26,0,0,1,.95.19,1.3,1.3,0,0,1,.6.58,2.13,2.13,0,0,1,.21,1v3.18h-1v-3a1.29,1.29,0,0,0-.23-.85.86.86,0,0,0-.72-.29,1.3,1.3,0,0,0-.75.2,1.07,1.07,0,0,0-.39.58,3.07,3.07,0,0,0-.12.92v2.42h-1v-6.84Z"/><path class="cls-1" d="M3.07,69.53H2V65c0-.14,0-.27,0-.41l0-.37-.23.22-.28.24-.74.59L.3,64.6l1.91-1.5h.86Zm6.46-3.22a7.27,7.27,0,0,1-.12,1.39,3.18,3.18,0,0,1-.38,1,1.77,1.77,0,0,1-.68.65,2.07,2.07,0,0,1-1,.22,1.88,1.88,0,0,1-1.22-.39,2.28,2.28,0,0,1-.72-1.13,6.2,6.2,0,0,1-.23-1.78,6.63,6.63,0,0,1,.21-1.78,2.18,2.18,0,0,1,.69-1.13A1.91,1.91,0,0,1,7.34,63a1.84,1.84,0,0,1,1.23.4,2.18,2.18,0,0,1,.72,1.13A5.76,5.76,0,0,1,9.53,66.31Zm-3.32,0a7.49,7.49,0,0,0,.1,1.36,1.7,1.7,0,0,0,.37.81.84.84,0,0,0,.66.27A.87.87,0,0,0,8,68.48a1.57,1.57,0,0,0,.36-.81,6.47,6.47,0,0,0,.12-1.36A7.2,7.2,0,0,0,8.38,65,1.79,1.79,0,0,0,8,64.14a.87.87,0,0,0-.68-.28.85.85,0,0,0-.67.28,1.79,1.79,0,0,0-.36.82A7.3,7.3,0,0,0,6.21,66.31Z"/><path class="cls-1" d="M4.38,38.53H0v-.78L1.7,36.06c.32-.33.58-.61.79-.85A2.81,2.81,0,0,0,3,34.53a1.5,1.5,0,0,0,.16-.7.88.88,0,0,0-.27-.7,1,1,0,0,0-.71-.24,1.8,1.8,0,0,0-.77.16,3.58,3.58,0,0,0-.73.47l-.57-.68a6,6,0,0,1,.57-.42,3.59,3.59,0,0,1,.69-.3A3.21,3.21,0,0,1,2.18,32a2.26,2.26,0,0,1,1,.22,1.56,1.56,0,0,1,.69.6,1.68,1.68,0,0,1,.24.9,2.18,2.18,0,0,1-.21,1,3.72,3.72,0,0,1-.59.87c-.25.28-.56.59-.91.93L1.34,37.57v0h3Zm5.15-3.22a7.27,7.27,0,0,1-.12,1.39,3.18,3.18,0,0,1-.38,1,1.77,1.77,0,0,1-.68.65,2.07,2.07,0,0,1-1,.22,1.88,1.88,0,0,1-1.22-.39,2.28,2.28,0,0,1-.72-1.13,6.2,6.2,0,0,1-.23-1.78,6.63,6.63,0,0,1,.21-1.78,2.18,2.18,0,0,1,.69-1.13A1.91,1.91,0,0,1,7.34,32a1.84,1.84,0,0,1,1.23.4,2.18,2.18,0,0,1,.72,1.13A5.76,5.76,0,0,1,9.53,35.31Zm-3.32,0a7.49,7.49,0,0,0,.1,1.36,1.7,1.7,0,0,0,.37.81.84.84,0,0,0,.66.27A.87.87,0,0,0,8,37.48a1.57,1.57,0,0,0,.36-.81,6.47,6.47,0,0,0,.12-1.36A7.2,7.2,0,0,0,8.38,34,1.79,1.79,0,0,0,8,33.14a.87.87,0,0,0-.68-.28.85.85,0,0,0-.67.28,1.79,1.79,0,0,0-.36.82A7.3,7.3,0,0,0,6.21,35.31Z"/><line class="cls-4" x1="15.93" y1="2.28" x2="188.93" y2="2.28"/><path class="cls-1" d="M4.14,1.57A1.49,1.49,0,0,1,4,2.32a1.53,1.53,0,0,1-.48.53,2,2,0,0,1-.71.29v0a2,2,0,0,1,1.16.49,1.33,1.33,0,0,1,.4,1,1.9,1.9,0,0,1-.27,1,1.75,1.75,0,0,1-.82.68,3.43,3.43,0,0,1-1.43.25,5,5,0,0,1-1-.08A3.58,3.58,0,0,1,0,6.26V5.34a4.1,4.1,0,0,0,.87.32,4,4,0,0,0,.87.11,1.74,1.74,0,0,0,1.15-.3,1.06,1.06,0,0,0,.34-.84.86.86,0,0,0-.18-.56,1,1,0,0,0-.55-.33,3.49,3.49,0,0,0-.95-.11H1V2.8h.58a2.43,2.43,0,0,0,.89-.13,1,1,0,0,0,.49-.38,1,1,0,0,0,.15-.55.81.81,0,0,0-.26-.64A1.18,1.18,0,0,0,2,.87a2.17,2.17,0,0,0-.59.07A2.38,2.38,0,0,0,1,1.13l-.43.25L0,.66A3.25,3.25,0,0,1,.9.2,3.23,3.23,0,0,1,2.07,0,2.38,2.38,0,0,1,3.6.44,1.35,1.35,0,0,1,4.14,1.57ZM9.53,3.31A7.27,7.27,0,0,1,9.41,4.7a3.18,3.18,0,0,1-.38,1,1.77,1.77,0,0,1-.68.65,2.07,2.07,0,0,1-1,.22,1.88,1.88,0,0,1-1.22-.39A2.28,2.28,0,0,1,5.4,5.09a6.2,6.2,0,0,1-.23-1.78,6.63,6.63,0,0,1,.21-1.78A2.18,2.18,0,0,1,6.07.4,1.91,1.91,0,0,1,7.34,0,1.84,1.84,0,0,1,8.57.4a2.18,2.18,0,0,1,.72,1.13A5.76,5.76,0,0,1,9.53,3.31Zm-3.32,0a7.49,7.49,0,0,0,.1,1.36,1.7,1.7,0,0,0,.37.81.84.84,0,0,0,.66.27A.87.87,0,0,0,8,5.48a1.57,1.57,0,0,0,.36-.81,6.47,6.47,0,0,0,.12-1.36A7.2,7.2,0,0,0,8.38,2,1.79,1.79,0,0,0,8,1.14.87.87,0,0,0,7.34.86a.85.85,0,0,0-.67.28A1.79,1.79,0,0,0,6.31,2,7.3,7.3,0,0,0,6.21,3.31Z"/><rect class="cls-2" x="91.93" y="79.53" width="24" height="48"/><rect class="cls-2" x="146.93" y="41.53" width="24" height="86"/><rect class="cls-3" x="36.93" y="83.53" width="24" height="15"/><rect class="cls-3" x="91.93" y="35.53" width="24" height="44"/><rect class="cls-3" x="146.93" y="2.53" width="24" height="39"/><rect class="cls-2" x="36.93" y="98.53" width="24" height="29"/><path class="cls-1" d="M53.58,60.53h-2l-4.89-8h-.06c0,.27,0,.55,0,.85s0,.61.05.93l0,1v5.23H45.24v-10h2l4.89,7.92h0c0-.23,0-.49,0-.8s0-.61,0-.92,0-.64,0-.94V50.53h1.5Zm9.16-3.8a5.1,5.1,0,0,1-.25,1.67,3.36,3.36,0,0,1-.71,1.24,3.17,3.17,0,0,1-1.14.76,3.93,3.93,0,0,1-1.5.26,3.63,3.63,0,0,1-1.42-.26,3.13,3.13,0,0,1-1.13-.76,3.4,3.4,0,0,1-.73-1.24,4.84,4.84,0,0,1-.26-1.67A4.66,4.66,0,0,1,56,54.61a3,3,0,0,1,1.24-1.34,3.9,3.9,0,0,1,1.92-.46,3.73,3.73,0,0,1,1.85.46,3.18,3.18,0,0,1,1.25,1.34A4.58,4.58,0,0,1,62.74,56.73Zm-5.49,0a4.48,4.48,0,0,0,.2,1.41,1.88,1.88,0,0,0,.63.9,1.76,1.76,0,0,0,1.09.31,1.65,1.65,0,0,0,1.72-1.21,5.07,5.07,0,0,0,0-2.82,1.75,1.75,0,0,0-.62-.88,1.89,1.89,0,0,0-1.11-.31,1.64,1.64,0,0,0-1.45.67A3.38,3.38,0,0,0,57.25,56.73Zm16.91,1.08a2.67,2.67,0,0,1-.44,1.53,2.77,2.77,0,0,1-1.25,1,4.85,4.85,0,0,1-1.92.34,8.74,8.74,0,0,1-1-.06,6.53,6.53,0,0,1-.94-.18,5.34,5.34,0,0,1-.8-.29V58.58a11.2,11.2,0,0,0,1.36.49,5.65,5.65,0,0,0,1.53.21,2.9,2.9,0,0,0,1-.16,1.43,1.43,0,0,0,.63-.48,1.28,1.28,0,0,0,.21-.73,1.16,1.16,0,0,0-.24-.75,2,2,0,0,0-.73-.56,11.72,11.72,0,0,0-1.2-.56,7.39,7.39,0,0,1-.94-.45,4,4,0,0,1-.8-.59,2.7,2.7,0,0,1-.55-.81,2.89,2.89,0,0,1-.2-1.11,2.54,2.54,0,0,1,.4-1.45,2.64,2.64,0,0,1,1.15-.92,4.46,4.46,0,0,1,1.74-.32,6.46,6.46,0,0,1,1.48.16A7.55,7.55,0,0,1,74,51l-.52,1.32a9.36,9.36,0,0,0-1.19-.41,4.71,4.71,0,0,0-1.18-.15,2.27,2.27,0,0,0-.88.16,1.16,1.16,0,0,0-.55.44,1.15,1.15,0,0,0-.19.67,1.24,1.24,0,0,0,.21.74,2,2,0,0,0,.67.54,12.55,12.55,0,0,0,1.18.55,8.63,8.63,0,0,1,1.4.72,2.73,2.73,0,0,1,.89.9A2.59,2.59,0,0,1,74.16,57.81Zm4.73-5a3.22,3.22,0,0,1,2.16.64,2.45,2.45,0,0,1,.74,2v5.1H80.65l-.31-1.08h0a3.93,3.93,0,0,1-.67.68,2.27,2.27,0,0,1-.79.4,3.78,3.78,0,0,1-1.09.13,2.94,2.94,0,0,1-1.21-.24,2,2,0,0,1-.84-.77,2.53,2.53,0,0,1-.3-1.3,2,2,0,0,1,.86-1.75A5.05,5.05,0,0,1,78.89,56l1.32-.05v-.4a1.48,1.48,0,0,0-.37-1.12,1.5,1.5,0,0,0-1-.33,3.71,3.71,0,0,0-1.1.16,7.7,7.7,0,0,0-1,.4l-.52-1.13A5.5,5.5,0,0,1,77.41,53,6,6,0,0,1,78.89,52.81Zm1.31,4.1-1,0a3.17,3.17,0,0,0-1.69.41,1.23,1.23,0,0,0-.48,1,1,1,0,0,0,.33.82,1.5,1.5,0,0,0,.88.25A2.09,2.09,0,0,0,79.65,59a1.79,1.79,0,0,0,.55-1.4Zm5.45,3.62H84V49.89h1.61ZM91,52.81a3.38,3.38,0,0,1,1.73.42,2.83,2.83,0,0,1,1.12,1.18,4,4,0,0,1,.39,1.84v.86H89.15a2.48,2.48,0,0,0,.59,1.69,2.09,2.09,0,0,0,1.59.6,5.76,5.76,0,0,0,1.3-.14,6.3,6.3,0,0,0,1.19-.42v1.31a5,5,0,0,1-1.15.39,7.13,7.13,0,0,1-1.41.12,4.22,4.22,0,0,1-2-.43A3.12,3.12,0,0,1,88,58.93a4.32,4.32,0,0,1-.47-2.14,4.93,4.93,0,0,1,.43-2.16,3.06,3.06,0,0,1,1.21-1.35A3.47,3.47,0,0,1,91,52.81ZM91,54a1.65,1.65,0,0,0-1.24.5A2.31,2.31,0,0,0,89.19,56h3.44a2.67,2.67,0,0,0-.19-1,1.52,1.52,0,0,0-.54-.68A1.69,1.69,0,0,0,91,54Zm10.13,4.35a2,2,0,0,1-1.42,2,4.66,4.66,0,0,1-1.69.26,7.67,7.67,0,0,1-1.37-.11,4.63,4.63,0,0,1-1.07-.35V58.82a7.12,7.12,0,0,0,1.21.43,4.55,4.55,0,0,0,1.27.19,2,2,0,0,0,1.15-.25.79.79,0,0,0,.34-.67.65.65,0,0,0-.14-.43,1.38,1.38,0,0,0-.52-.41,9.13,9.13,0,0,0-1.11-.5,10.7,10.7,0,0,1-1.21-.58,2.15,2.15,0,0,1-.74-.69,1.93,1.93,0,0,1-.25-1,1.72,1.72,0,0,1,.79-1.53,3.79,3.79,0,0,1,2.11-.53,5.47,5.47,0,0,1,1.31.15,6,6,0,0,1,1.22.4l-.51,1.21a7.93,7.93,0,0,0-1-.37,3.68,3.68,0,0,0-1-.15,2,2,0,0,0-1,.19.6.6,0,0,0-.33.55.69.69,0,0,0,.16.45,1.79,1.79,0,0,0,.54.37c.26.12.62.28,1.08.46a7.12,7.12,0,0,1,1.17.55,2.07,2.07,0,0,1,.77.69A2,2,0,0,1,101.1,58.37Zm13.42,2.16h-1.63V56h-4.61v4.52h-1.64v-10h1.64v4.09h4.61V50.53h1.63ZM118.61,53v7.57H117V53Zm-.79-2.9a1,1,0,0,1,.63.2.77.77,0,0,1,.28.68.8.8,0,0,1-.28.69,1,1,0,0,1-.63.19,1.06,1.06,0,0,1-.65-.19.82.82,0,0,1-.26-.69.78.78,0,0,1,.26-.68A1.07,1.07,0,0,1,117.82,50.06ZM126,58.37a2.12,2.12,0,0,1-.36,1.25,2.14,2.14,0,0,1-1.06.78,4.71,4.71,0,0,1-1.7.26,7.55,7.55,0,0,1-1.36-.11,4.87,4.87,0,0,1-1.08-.35V58.82a7.44,7.44,0,0,0,1.21.43,4.62,4.62,0,0,0,1.28.19,2,2,0,0,0,1.14-.25.8.8,0,0,0,.35-.67.71.71,0,0,0-.14-.43,1.46,1.46,0,0,0-.52-.41,9.13,9.13,0,0,0-1.11-.5,10.7,10.7,0,0,1-1.21-.58,2,2,0,0,1-.74-.69,1.93,1.93,0,0,1-.26-1,1.72,1.72,0,0,1,.8-1.53,3.77,3.77,0,0,1,2.11-.53,5.53,5.53,0,0,1,1.31.15,6.22,6.22,0,0,1,1.22.4l-.51,1.21a8.49,8.49,0,0,0-1-.37,3.7,3.7,0,0,0-1-.15,2,2,0,0,0-1,.19.61.61,0,0,0-.32.55.64.64,0,0,0,.16.45,1.56,1.56,0,0,0,.54.37c.26.12.62.28,1.08.46a7.12,7.12,0,0,1,1.17.55,2,2,0,0,1,.76.69A1.87,1.87,0,0,1,126,58.37Zm4.55,1a3.18,3.18,0,0,0,.62,0c.21,0,.4-.09.57-.14v1.21a3,3,0,0,1-.7.2,4.18,4.18,0,0,1-.88.08,3,3,0,0,1-1.15-.21,1.72,1.72,0,0,1-.82-.74,3,3,0,0,1-.3-1.46V54.18h-1v-.72L128,52.9l.52-1.62h1V53h2.16v1.22h-2.16v4a1.13,1.13,0,0,0,.28.85A1.05,1.05,0,0,0,130.55,59.36ZM140,56.73a5.39,5.39,0,0,1-.24,1.67,3.52,3.52,0,0,1-.72,1.24,3.09,3.09,0,0,1-1.14.76,3.92,3.92,0,0,1-1.49.26A3.68,3.68,0,0,1,135,60.4a3.22,3.22,0,0,1-1.13-.76,3.54,3.54,0,0,1-.73-1.24,5.09,5.09,0,0,1-.26-1.67,4.66,4.66,0,0,1,.43-2.12,3.1,3.1,0,0,1,1.24-1.34,3.9,3.9,0,0,1,1.92-.46,3.7,3.7,0,0,1,1.85.46,3.18,3.18,0,0,1,1.25,1.34A4.58,4.58,0,0,1,140,56.73Zm-5.49,0a4.48,4.48,0,0,0,.2,1.41,1.88,1.88,0,0,0,.63.9,2.09,2.09,0,0,0,2.19,0,1.8,1.8,0,0,0,.62-.9,5.07,5.07,0,0,0,0-2.82,1.75,1.75,0,0,0-.62-.88,1.86,1.86,0,0,0-1.1-.31,1.66,1.66,0,0,0-1.46.67A3.46,3.46,0,0,0,134.48,56.73Zm11.17-3.92.42,0,.39,0-.15,1.5-.36-.06-.37,0a2.29,2.29,0,0,0-.82.15,1.89,1.89,0,0,0-.69.42,2.05,2.05,0,0,0-.47.7,2.74,2.74,0,0,0-.17,1v4h-1.61V53h1.26l.21,1.33h.08a3.61,3.61,0,0,1,.56-.74,2.58,2.58,0,0,1,.77-.53A2.17,2.17,0,0,1,145.65,52.81Zm1.07.15h1.75L150,57.28c.07.19.13.39.19.58s.11.37.15.55.08.37.11.55h0a8.07,8.07,0,0,1,.19-.79c.08-.3.18-.59.29-.89L152.48,53h1.72L151,61.56a4.69,4.69,0,0,1-.69,1.26,2.71,2.71,0,0,1-1,.8,2.84,2.84,0,0,1-1.26.27,3.54,3.54,0,0,1-.6,0,3.34,3.34,0,0,1-.43-.08V62.49l.36.06a3.4,3.4,0,0,0,.45,0,1.6,1.6,0,0,0,.75-.17,1.55,1.55,0,0,0,.53-.49,2.57,2.57,0,0,0,.36-.7l.27-.71Z"/></g></g></svg>