<svg xmlns="http://www.w3.org/2000/svg" viewBox="0 0 188.93 162.16"><defs><style>.cls-1,.cls-2,.cls-3,.cls-6,.cls-9{fill:none;}.cls-1,.cls-2,.cls-6,.cls-9{stroke:#a7a9ab;}.cls-1,.cls-6{stroke-opacity:0.35;}.cls-2,.cls-9{stroke-opacity:0.2;}.cls-3{stroke:#c4c4c4;stroke-opacity:0.6;}.cls-3,.cls-6,.cls-9{stroke-width:0.5px;}.cls-4{fill:#fff;}.cls-5,.cls-7,.cls-8{fill:#a7a9ab;}.cls-7{fill-opacity:0.35;}.cls-8{fill-opacity:0.2;}</style></defs><g id="Layer_2" data-name="Layer 2"><g id="Layer_1-2" data-name="Layer 1"><line class="cls-1" x1="44.55" y1="127.67" x2="154.55" y2="2.67"/><line class="cls-2" x1="44.68" y1="127.57" x2="154.68" y2="64.57"/><line class="cls-3" x1="15.93" y1="127.75" x2="188.93" y2="127.75"/><line class="cls-3" x1="15.93" y1="65.75" x2="188.93" y2="65.75"/><line class="cls-3" x1="15.93" y1="2.75" x2="188.93" y2="2.75"/><circle class="cls-4" cx="44.93" cy="128" r="3"/><circle class="cls-4" cx="99.93" cy="65" r="3"/><path class="cls-5" d="M66.64,153.57a2.61,2.61,0,0,1,1.81.52,1.8,1.8,0,0,1,.57,1.42,2.36,2.36,0,0,1-.13.8,1.55,1.55,0,0,1-.42.66,2.18,2.18,0,0,1-.78.46,3.66,3.66,0,0,1-1.18.16h-.68V160H64.77v-6.43Zm-.07.88h-.74v2.26h.57a2.7,2.7,0,0,0,.85-.11,1,1,0,0,0,.52-.37,1.19,1.19,0,0,0,.18-.68,1,1,0,0,0-.34-.83A1.64,1.64,0,0,0,66.57,154.45Zm6.1.59.27,0,.25,0-.1,1-.23,0h-.24a1.5,1.5,0,0,0-.52.09,1.29,1.29,0,0,0-.45.27,1.19,1.19,0,0,0-.3.45,1.75,1.75,0,0,0-.11.64V160h-1v-4.87H71l.14.86h0a2.35,2.35,0,0,1,.36-.47,1.49,1.49,0,0,1,.49-.34A1.44,1.44,0,0,1,72.67,155Zm2.45.09V160h-1v-4.87Zm-.51-1.86a.65.65,0,0,1,.41.13.49.49,0,0,1,.17.44.51.51,0,0,1-.17.44.71.71,0,0,1-.41.13.75.75,0,0,1-.42-.13.54.54,0,0,1-.16-.44.51.51,0,0,1,.16-.44A.68.68,0,0,1,74.61,153.27ZM79.14,155a1.8,1.8,0,0,1,1.28.43,1.78,1.78,0,0,1,.46,1.36V160h-1v-3a1.29,1.29,0,0,0-.23-.85.86.86,0,0,0-.72-.28,1.06,1.06,0,0,0-1,.43,2.31,2.31,0,0,0-.28,1.26V160h-1v-4.87h.81l.14.66h.06a1.27,1.27,0,0,1,.39-.41,1.62,1.62,0,0,1,.53-.25A2,2,0,0,1,79.14,155Zm5,4.21a2.6,2.6,0,0,0,.4,0,2.28,2.28,0,0,0,.36-.1v.79a2.36,2.36,0,0,1-.44.13,3.45,3.45,0,0,1-.57.05,2,2,0,0,1-.74-.14,1,1,0,0,1-.52-.48,1.86,1.86,0,0,1-.2-.93v-2.62h-.66v-.46l.71-.36.34-1h.65v1.08h1.39v.79H83.46v2.6a.71.71,0,0,0,.19.55A.65.65,0,0,0,84.13,159.25Z"/><path class="cls-5" d="M116,156.73a3.7,3.7,0,0,1-.41,1.81,2.58,2.58,0,0,1-1.17,1.09,4.18,4.18,0,0,1-1.85.37h-1.79v-6.43h2a3.83,3.83,0,0,1,1.72.37,2.53,2.53,0,0,1,1.12,1.05A3.45,3.45,0,0,1,116,156.73Zm-1.1,0a2.9,2.9,0,0,0-.25-1.3,1.63,1.63,0,0,0-.73-.76,2.48,2.48,0,0,0-1.18-.25h-.9v4.67h.74a2.3,2.3,0,0,0,1.74-.6A2.4,2.4,0,0,0,114.89,156.76Zm3.41-1.63V160h-1v-4.87Zm-.51-1.86a.65.65,0,0,1,.41.13.49.49,0,0,1,.17.44.51.51,0,0,1-.17.44.71.71,0,0,1-.41.13.75.75,0,0,1-.42-.13.54.54,0,0,1-.17-.44.52.52,0,0,1,.17-.44A.68.68,0,0,1,117.79,153.27Zm3.38,8.89a2.78,2.78,0,0,1-1.52-.35,1.14,1.14,0,0,1-.52-1,1.08,1.08,0,0,1,.28-.76,1.44,1.44,0,0,1,.8-.43.89.89,0,0,1-.34-.27.66.66,0,0,1-.14-.42.73.73,0,0,1,.15-.46,1.66,1.66,0,0,1,.46-.38,1.34,1.34,0,0,1-.61-.52,1.57,1.57,0,0,1-.23-.87,1.72,1.72,0,0,1,.22-.9,1.4,1.4,0,0,1,.66-.56,2.33,2.33,0,0,1,1-.2,1.37,1.37,0,0,1,.28,0l.29,0,.21,0h1.68v.58l-.82.15a1.5,1.5,0,0,1,.19.38,1.7,1.7,0,0,1,.07.46,1.49,1.49,0,0,1-.53,1.2,2.2,2.2,0,0,1-1.43.43l-.42,0a.78.78,0,0,0-.25.22.44.44,0,0,0-.08.25.28.28,0,0,0,.08.2.52.52,0,0,0,.25.1,1.59,1.59,0,0,0,.4,0h.84a1.92,1.92,0,0,1,1.23.34,1.18,1.18,0,0,1,.42,1,1.44,1.44,0,0,1-.69,1.28A3.59,3.59,0,0,1,121.17,162.16Zm0-.72a3.38,3.38,0,0,0,.91-.11,1.29,1.29,0,0,0,.56-.3.66.66,0,0,0,.19-.46.53.53,0,0,0-.12-.37.67.67,0,0,0-.36-.17,2.49,2.49,0,0,0-.59-.05H121a1.36,1.36,0,0,0-.51.09.74.74,0,0,0-.34.26.69.69,0,0,0-.12.41.59.59,0,0,0,.29.52A1.65,1.65,0,0,0,121.21,161.44Zm.2-3.79a.83.83,0,0,0,.67-.25,1,1,0,0,0,.22-.7,1,1,0,0,0-.23-.74,1,1,0,0,0-1.33,0,1.06,1.06,0,0,0-.22.74,1,1,0,0,0,.22.69A.85.85,0,0,0,121.41,157.65Zm4.39-2.52V160h-1v-4.87Zm-.5-1.86a.62.62,0,0,1,.4.13.49.49,0,0,1,.18.44.52.52,0,0,1-.18.44.68.68,0,0,1-.4.13.7.7,0,0,1-.42-.13.54.54,0,0,1-.17-.44.52.52,0,0,1,.17-.44A.64.64,0,0,1,125.3,153.27Zm3.8,6,.4,0,.36-.1v.79a2.77,2.77,0,0,1-.45.13,3.43,3.43,0,0,1-.56.05,2,2,0,0,1-.75-.14,1,1,0,0,1-.52-.48,1.87,1.87,0,0,1-.19-.93v-2.62h-.67v-.46l.72-.36.33-1h.65v1.08h1.4v.79h-1.4v2.6a.75.75,0,0,0,.19.55A.66.66,0,0,0,129.1,159.25Zm3.65-4.21a2.11,2.11,0,0,1,1.4.41,1.62,1.62,0,0,1,.47,1.28V160h-.73l-.2-.69h0a2.15,2.15,0,0,1-.42.43,1.54,1.54,0,0,1-.51.26,2.38,2.38,0,0,1-.7.09,1.78,1.78,0,0,1-.78-.16,1.22,1.22,0,0,1-.54-.49,1.63,1.63,0,0,1-.2-.84,1.29,1.29,0,0,1,.56-1.13,3.26,3.26,0,0,1,1.7-.41l.84,0v-.25a.92.92,0,0,0-.24-.72.94.94,0,0,0-.66-.22,2.38,2.38,0,0,0-.7.11,5.46,5.46,0,0,0-.67.26l-.34-.73a3.69,3.69,0,0,1,.81-.31A3.75,3.75,0,0,1,132.75,155Zm.85,2.64-.63,0a1.9,1.9,0,0,0-1.09.26.77.77,0,0,0-.31.65.61.61,0,0,0,.22.53.89.89,0,0,0,.56.16,1.31,1.31,0,0,0,.89-.3,1.13,1.13,0,0,0,.36-.9Zm3.5,2.32h-1v-6.84h1Z"/><line class="cls-3" x1="15.93" y1="98.75" x2="188.93" y2="98.75"/><line class="cls-3" x1="15.93" y1="35.75" x2="188.93" y2="35.75"/><path class="cls-5" d="M9.11,127.78a6.6,6.6,0,0,1-.13,1.4,3.2,3.2,0,0,1-.37,1,1.76,1.76,0,0,1-.68.65,2.12,2.12,0,0,1-1,.23,1.89,1.89,0,0,1-1.23-.39A2.35,2.35,0,0,1,5,129.56a5.76,5.76,0,0,1-.24-1.78A6.51,6.51,0,0,1,5,126a2.25,2.25,0,0,1,.7-1.14,2,2,0,0,1,1.27-.4,1.89,1.89,0,0,1,1.23.4A2.36,2.36,0,0,1,8.87,126,5.85,5.85,0,0,1,9.11,127.78Zm-3.33,0a7.31,7.31,0,0,0,.11,1.36,1.64,1.64,0,0,0,.36.82.87.87,0,0,0,.67.27.87.87,0,0,0,.67-.27,1.8,1.8,0,0,0,.36-.81,7.43,7.43,0,0,0,.11-1.37A7.2,7.2,0,0,0,8,126.43a1.64,1.64,0,0,0-.36-.82.88.88,0,0,0-.67-.28.87.87,0,0,0-.67.28,1.64,1.64,0,0,0-.36.82A7.2,7.2,0,0,0,5.78,127.78Z"/><path class="cls-5" d="M7.37,98a2.53,2.53,0,0,1,1.09.23,1.59,1.59,0,0,1,.73.65,1.89,1.89,0,0,1,.27,1,2.25,2.25,0,0,1-.29,1.17,1.81,1.81,0,0,1-.84.75,3.07,3.07,0,0,1-1.35.27A4.69,4.69,0,0,1,6,102a2.86,2.86,0,0,1-.75-.26v-.93a3.43,3.43,0,0,0,.79.3,4,4,0,0,0,.88.11,2,2,0,0,0,.77-.13,1,1,0,0,0,.49-.4A1.27,1.27,0,0,0,8.4,100,1.06,1.06,0,0,0,8,99.14a1.66,1.66,0,0,0-1.1-.3,3.75,3.75,0,0,0-.56,0,4,4,0,0,0-.5.1l-.45-.27.24-3.14H9v.9H6.58l-.14,1.6L6.82,98A4,4,0,0,1,7.37,98Z"/><path class="cls-5" d="M39.68,141H35.33v-.78L37,138.54c.32-.33.58-.62.79-.85a3,3,0,0,0,.46-.68,1.53,1.53,0,0,0,.16-.7.91.91,0,0,0-.27-.71,1,1,0,0,0-.71-.24,1.81,1.81,0,0,0-.77.17,3.51,3.51,0,0,0-.73.46l-.57-.68a4.57,4.57,0,0,1,.57-.41,2.67,2.67,0,0,1,.69-.3,2.84,2.84,0,0,1,.86-.12,2.47,2.47,0,0,1,1.06.22,1.73,1.73,0,0,1,.68.6,1.69,1.69,0,0,1,.24.91,2.17,2.17,0,0,1-.21.95,3.35,3.35,0,0,1-.59.87,12.94,12.94,0,0,1-.91.93l-1.11,1.09v0h3Zm5.15-3.22a7.38,7.38,0,0,1-.12,1.4,3.2,3.2,0,0,1-.38,1,1.7,1.7,0,0,1-.68.65,2.07,2.07,0,0,1-1,.23,1.88,1.88,0,0,1-1.22-.39,2.44,2.44,0,0,1-.72-1.14,6.11,6.11,0,0,1-.23-1.78,6.51,6.51,0,0,1,.21-1.77,2.17,2.17,0,0,1,.69-1.14,2,2,0,0,1,1.27-.4,1.89,1.89,0,0,1,1.23.4A2.3,2.3,0,0,1,44.6,136,6.2,6.2,0,0,1,44.83,137.78Zm-3.32,0a7.31,7.31,0,0,0,.11,1.36A1.64,1.64,0,0,0,42,140a1,1,0,0,0,1.33,0,1.61,1.61,0,0,0,.36-.81,6.57,6.57,0,0,0,.12-1.37,7.2,7.2,0,0,0-.11-1.35,1.84,1.84,0,0,0-.36-.82,1,1,0,0,0-1.35,0,1.74,1.74,0,0,0-.35.82A7.2,7.2,0,0,0,41.51,137.78ZM50,141H45.63v-.78l1.67-1.68c.32-.33.59-.62.79-.85a2.72,2.72,0,0,0,.46-.68,1.53,1.53,0,0,0,.16-.7.91.91,0,0,0-.27-.71,1,1,0,0,0-.71-.24,1.81,1.81,0,0,0-.77.17,3.79,3.79,0,0,0-.73.46l-.57-.68a4.57,4.57,0,0,1,.57-.41,2.67,2.67,0,0,1,.69-.3,2.84,2.84,0,0,1,.86-.12,2.47,2.47,0,0,1,1.06.22,1.73,1.73,0,0,1,.68.6,1.69,1.69,0,0,1,.24.91,2.17,2.17,0,0,1-.21.95A3.35,3.35,0,0,1,49,138a11.11,11.11,0,0,1-.91.93l-1.11,1.09v0h3Zm5.15-3.22a7.38,7.38,0,0,1-.12,1.4,3,3,0,0,1-.38,1,1.74,1.74,0,0,1-.67.65,2.13,2.13,0,0,1-1,.23,1.88,1.88,0,0,1-1.22-.39,2.44,2.44,0,0,1-.72-1.14,6.11,6.11,0,0,1-.23-1.78A6.51,6.51,0,0,1,51,136a2.24,2.24,0,0,1,.69-1.14,2,2,0,0,1,1.27-.4,1.94,1.94,0,0,1,1.24.4A2.36,2.36,0,0,1,54.9,136,6.2,6.2,0,0,1,55.13,137.78Zm-3.32,0a7.31,7.31,0,0,0,.11,1.36,1.64,1.64,0,0,0,.36.82,1,1,0,0,0,1.33,0,1.61,1.61,0,0,0,.36-.81,6.57,6.57,0,0,0,.12-1.37,7.2,7.2,0,0,0-.11-1.35,1.84,1.84,0,0,0-.36-.82,1,1,0,0,0-1.35,0,1.74,1.74,0,0,0-.35.82A7.2,7.2,0,0,0,51.81,137.78Z"/><path class="cls-5" d="M94.68,141H90.33v-.78L92,138.54c.32-.33.58-.62.79-.85a3,3,0,0,0,.46-.68,1.53,1.53,0,0,0,.16-.7.91.91,0,0,0-.27-.71,1,1,0,0,0-.71-.24,1.81,1.81,0,0,0-.77.17,3.51,3.51,0,0,0-.73.46l-.57-.68a4.57,4.57,0,0,1,.57-.41,2.67,2.67,0,0,1,.69-.3,2.84,2.84,0,0,1,.86-.12,2.47,2.47,0,0,1,1.06.22,1.73,1.73,0,0,1,.68.6,1.69,1.69,0,0,1,.24.91,2.17,2.17,0,0,1-.21.95,3.35,3.35,0,0,1-.59.87,12.94,12.94,0,0,1-.91.93l-1.11,1.09v0h3Zm5.15-3.22a7.38,7.38,0,0,1-.12,1.4,3.2,3.2,0,0,1-.38,1,1.7,1.7,0,0,1-.68.65,2.07,2.07,0,0,1-1,.23,1.88,1.88,0,0,1-1.22-.39,2.44,2.44,0,0,1-.72-1.14,6.11,6.11,0,0,1-.23-1.78,6.51,6.51,0,0,1,.21-1.77,2.17,2.17,0,0,1,.69-1.14,2,2,0,0,1,1.27-.4,1.89,1.89,0,0,1,1.23.4A2.3,2.3,0,0,1,99.6,136,6.2,6.2,0,0,1,99.83,137.78Zm-3.32,0a7.31,7.31,0,0,0,.11,1.36A1.64,1.64,0,0,0,97,140a1,1,0,0,0,1.33,0,1.61,1.61,0,0,0,.36-.81,6.57,6.57,0,0,0,.12-1.37,7.2,7.2,0,0,0-.11-1.35,1.84,1.84,0,0,0-.36-.82,1,1,0,0,0-1.35,0,1.74,1.74,0,0,0-.35.82A7.2,7.2,0,0,0,96.51,137.78ZM105,141h-4.35v-.78l1.67-1.68c.32-.33.59-.62.79-.85a2.72,2.72,0,0,0,.46-.68,1.53,1.53,0,0,0,.16-.7.91.91,0,0,0-.27-.71,1,1,0,0,0-.71-.24,1.81,1.81,0,0,0-.77.17,3.79,3.79,0,0,0-.73.46l-.57-.68a4.57,4.57,0,0,1,.57-.41,2.67,2.67,0,0,1,.69-.3,2.84,2.84,0,0,1,.86-.12,2.47,2.47,0,0,1,1.06.22,1.73,1.73,0,0,1,.68.6,1.69,1.69,0,0,1,.24.91,2.17,2.17,0,0,1-.21.95,3.35,3.35,0,0,1-.59.87,11.11,11.11,0,0,1-.91.93l-1.11,1.09v0h3Zm3.84,0h-1v-4.13c0-.14,0-.28,0-.42s0-.27,0-.4,0-.26,0-.38a2.49,2.49,0,0,1-.23.22l-.28.24-.74.59-.52-.65,1.91-1.5h.86Z"/><path class="cls-5" d="M149.68,141h-4.35v-.78l1.67-1.68c.32-.33.58-.62.79-.85a3,3,0,0,0,.46-.68,1.53,1.53,0,0,0,.16-.7.91.91,0,0,0-.27-.71,1,1,0,0,0-.71-.24,1.81,1.81,0,0,0-.77.17,3.51,3.51,0,0,0-.73.46l-.57-.68a4.57,4.57,0,0,1,.57-.41,2.67,2.67,0,0,1,.69-.3,2.84,2.84,0,0,1,.86-.12,2.47,2.47,0,0,1,1.06.22,1.73,1.73,0,0,1,.68.6,1.69,1.69,0,0,1,.24.91,2.17,2.17,0,0,1-.21.95,3.35,3.35,0,0,1-.59.87,12.94,12.94,0,0,1-.91.93l-1.11,1.09v0h3Zm5.15-3.22a7.38,7.38,0,0,1-.12,1.4,3.2,3.2,0,0,1-.38,1,1.74,1.74,0,0,1-.67.65,2.13,2.13,0,0,1-1,.23,1.88,1.88,0,0,1-1.22-.39,2.44,2.44,0,0,1-.72-1.14,6.11,6.11,0,0,1-.23-1.78,6.51,6.51,0,0,1,.21-1.77,2.17,2.17,0,0,1,.69-1.14,2,2,0,0,1,1.27-.4,1.89,1.89,0,0,1,1.23.4,2.3,2.3,0,0,1,.73,1.13A6.2,6.2,0,0,1,154.83,137.78Zm-3.32,0a7.31,7.31,0,0,0,.11,1.36,1.64,1.64,0,0,0,.36.82,1,1,0,0,0,1.33,0,1.61,1.61,0,0,0,.36-.81,6.57,6.57,0,0,0,.12-1.37,7.2,7.2,0,0,0-.11-1.35,1.84,1.84,0,0,0-.36-.82,1,1,0,0,0-1.35,0,1.74,1.74,0,0,0-.35.82A7.2,7.2,0,0,0,151.51,137.78ZM160,141h-4.35v-.78l1.67-1.68c.32-.33.59-.62.79-.85a2.72,2.72,0,0,0,.46-.68,1.53,1.53,0,0,0,.16-.7.91.91,0,0,0-.27-.71,1,1,0,0,0-.71-.24,1.81,1.81,0,0,0-.77.17,3.79,3.79,0,0,0-.73.46l-.57-.68a4.57,4.57,0,0,1,.57-.41,2.67,2.67,0,0,1,.69-.3,2.84,2.84,0,0,1,.86-.12,2.47,2.47,0,0,1,1.06.22,1.73,1.73,0,0,1,.68.6,1.69,1.69,0,0,1,.24.91,2.17,2.17,0,0,1-.21.95,3.35,3.35,0,0,1-.59.87,11.11,11.11,0,0,1-.91.93l-1.11,1.09v0h3Zm5.15,0h-4.35v-.78l1.67-1.68c.32-.33.59-.62.79-.85a3.1,3.1,0,0,0,.47-.68,1.66,1.66,0,0,0,.15-.7.91.91,0,0,0-.27-.71,1,1,0,0,0-.71-.24,1.84,1.84,0,0,0-.77.17,3.79,3.79,0,0,0-.73.46l-.57-.68a4,4,0,0,1,.58-.41,2.47,2.47,0,0,1,.68-.3,2.84,2.84,0,0,1,.86-.12,2.47,2.47,0,0,1,1.06.22,1.73,1.73,0,0,1,.68.6,1.69,1.69,0,0,1,.24.91,2.17,2.17,0,0,1-.21.95,3.12,3.12,0,0,1-.59.87,11.11,11.11,0,0,1-.91.93l-1.11,1.09v0h3Z"/><path class="cls-5" d="M3.07,70H2V65.45c0-.14,0-.27,0-.4l0-.38-.23.22-.28.25-.74.58L.3,65.07l1.91-1.49h.86Zm6.46-3.22a7.38,7.38,0,0,1-.12,1.4,3.2,3.2,0,0,1-.38,1,1.7,1.7,0,0,1-.68.65,2.07,2.07,0,0,1-1,.23,1.88,1.88,0,0,1-1.22-.39,2.32,2.32,0,0,1-.72-1.14,6.16,6.16,0,0,1-.23-1.78A6.51,6.51,0,0,1,5.38,65a2.17,2.17,0,0,1,.69-1.14,2,2,0,0,1,1.27-.4,1.89,1.89,0,0,1,1.23.4A2.22,2.22,0,0,1,9.29,65,5.85,5.85,0,0,1,9.53,66.78Zm-3.32,0a7.34,7.34,0,0,0,.1,1.36,1.74,1.74,0,0,0,.37.82.84.84,0,0,0,.66.27A.87.87,0,0,0,8,69a1.61,1.61,0,0,0,.36-.81,6.57,6.57,0,0,0,.12-1.37,7.2,7.2,0,0,0-.11-1.35A1.84,1.84,0,0,0,8,64.61a.9.9,0,0,0-.68-.27.87.87,0,0,0-.67.27,1.84,1.84,0,0,0-.36.82A7.3,7.3,0,0,0,6.21,66.78Z"/><path class="cls-5" d="M4.38,39H0v-.78L1.7,36.53c.32-.32.58-.61.79-.84A3,3,0,0,0,3,35a1.53,1.53,0,0,0,.16-.7.91.91,0,0,0-.27-.71,1,1,0,0,0-.71-.24,1.81,1.81,0,0,0-.77.17A3.51,3.51,0,0,0,.63,34l-.57-.68a4.57,4.57,0,0,1,.57-.41,2.67,2.67,0,0,1,.69-.3,2.84,2.84,0,0,1,.86-.12,2.39,2.39,0,0,1,1,.22,1.7,1.7,0,0,1,.69.6,1.69,1.69,0,0,1,.24.91,2.17,2.17,0,0,1-.21.95,3.35,3.35,0,0,1-.59.87,12.94,12.94,0,0,1-.91.93L1.34,38.05v0h3Zm5.15-3.22a7.38,7.38,0,0,1-.12,1.4,3.2,3.2,0,0,1-.38,1,1.7,1.7,0,0,1-.68.65,2.07,2.07,0,0,1-1,.23,1.88,1.88,0,0,1-1.22-.39,2.32,2.32,0,0,1-.72-1.14,6.16,6.16,0,0,1-.23-1.78A6.51,6.51,0,0,1,5.38,34a2.17,2.17,0,0,1,.69-1.14,2,2,0,0,1,1.27-.4,1.89,1.89,0,0,1,1.23.4A2.22,2.22,0,0,1,9.29,34,5.85,5.85,0,0,1,9.53,35.78Zm-3.32,0a7.34,7.34,0,0,0,.1,1.36,1.74,1.74,0,0,0,.37.82.84.84,0,0,0,.66.27A.87.87,0,0,0,8,38a1.61,1.61,0,0,0,.36-.81,6.57,6.57,0,0,0,.12-1.37,7.2,7.2,0,0,0-.11-1.35A1.84,1.84,0,0,0,8,33.61a.9.9,0,0,0-.68-.27.87.87,0,0,0-.67.27,1.84,1.84,0,0,0-.36.82A7.3,7.3,0,0,0,6.21,35.78Z"/><path class="cls-5" d="M4.14,2A1.55,1.55,0,0,1,4,2.8a1.62,1.62,0,0,1-.48.53,2.26,2.26,0,0,1-.71.29v0a1.88,1.88,0,0,1,1.16.48,1.35,1.35,0,0,1,.4,1,1.85,1.85,0,0,1-.27,1,1.82,1.82,0,0,1-.82.69,3.6,3.6,0,0,1-1.43.25A5,5,0,0,1,.84,7,3.55,3.55,0,0,1,0,6.74V5.82a4.08,4.08,0,0,0,.87.31,4,4,0,0,0,.87.11,1.74,1.74,0,0,0,1.15-.3,1,1,0,0,0,.34-.83.88.88,0,0,0-.18-.57,1.12,1.12,0,0,0-.55-.33,3.49,3.49,0,0,0-.95-.11H1V3.27h.58a2.43,2.43,0,0,0,.89-.13,1,1,0,0,0,.49-.37,1,1,0,0,0,.15-.56.84.84,0,0,0-.26-.64A1.23,1.23,0,0,0,2,1.34a2.17,2.17,0,0,0-.59.07A3.12,3.12,0,0,0,1,1.6l-.43.25L0,1.13A3.56,3.56,0,0,1,.9.67,3.46,3.46,0,0,1,2.07.48,2.38,2.38,0,0,1,3.6.91,1.36,1.36,0,0,1,4.14,2ZM9.53,3.78a7.38,7.38,0,0,1-.12,1.4,3.2,3.2,0,0,1-.38,1,1.7,1.7,0,0,1-.68.65,2.07,2.07,0,0,1-1,.23A1.88,1.88,0,0,1,6.12,6.7,2.32,2.32,0,0,1,5.4,5.56a6.16,6.16,0,0,1-.23-1.78A6.51,6.51,0,0,1,5.38,2,2.17,2.17,0,0,1,6.07.87,2,2,0,0,1,7.34.47a1.89,1.89,0,0,1,1.23.4A2.22,2.22,0,0,1,9.29,2,5.85,5.85,0,0,1,9.53,3.78Zm-3.32,0a7.34,7.34,0,0,0,.1,1.36A1.74,1.74,0,0,0,6.68,6a.84.84,0,0,0,.66.27A.87.87,0,0,0,8,6a1.61,1.61,0,0,0,.36-.81,6.57,6.57,0,0,0,.12-1.37,7.2,7.2,0,0,0-.11-1.35A1.84,1.84,0,0,0,8,1.61a.9.9,0,0,0-.68-.27.87.87,0,0,0-.67.27,1.84,1.84,0,0,0-.36.82A7.3,7.3,0,0,0,6.21,3.78Z"/><path class="cls-5" d="M53.58,61h-2l-4.89-8h-.06c0,.27,0,.56,0,.86s0,.61.05.93l0,1V61H45.24V51h2l4.89,7.92h0c0-.23,0-.5,0-.8s0-.61,0-.93,0-.64,0-.94V51h1.5Zm9.16-3.8a5,5,0,0,1-.25,1.67,3.1,3.1,0,0,1-1.85,2,4.14,4.14,0,0,1-1.5.26,3.82,3.82,0,0,1-1.42-.26,3.29,3.29,0,0,1-1.13-.77,3.4,3.4,0,0,1-.73-1.24,4.76,4.76,0,0,1-.26-1.67A4.71,4.71,0,0,1,56,55.08a3,3,0,0,1,1.24-1.33,3.79,3.79,0,0,1,1.92-.46,3.63,3.63,0,0,1,1.85.46,3.16,3.16,0,0,1,1.25,1.33A4.58,4.58,0,0,1,62.74,57.2Zm-5.49,0a4.48,4.48,0,0,0,.2,1.41,1.87,1.87,0,0,0,.63.91,1.83,1.83,0,0,0,1.09.3,1.88,1.88,0,0,0,1.1-.3,1.79,1.79,0,0,0,.62-.91,4.48,4.48,0,0,0,.2-1.41,4.37,4.37,0,0,0-.2-1.4,1.7,1.7,0,0,0-.62-.88,1.82,1.82,0,0,0-1.11-.31,1.62,1.62,0,0,0-1.45.67A3.34,3.34,0,0,0,57.25,57.2Zm16.91,1.08a2.67,2.67,0,0,1-.44,1.53,2.64,2.64,0,0,1-1.25,1,4.84,4.84,0,0,1-1.92.35,8.74,8.74,0,0,1-1-.06c-.33,0-.65-.11-.94-.18a4.43,4.43,0,0,1-.8-.3V59.06a9.76,9.76,0,0,0,1.36.48,5.29,5.29,0,0,0,1.53.22,2.88,2.88,0,0,0,1-.17,1.3,1.3,0,0,0,.63-.48,1.28,1.28,0,0,0,.21-.73,1.18,1.18,0,0,0-.24-.75,2.1,2.1,0,0,0-.73-.56,11.9,11.9,0,0,0-1.2-.55,9.1,9.1,0,0,1-.94-.46,3.38,3.38,0,0,1-.8-.59,2.7,2.7,0,0,1-.55-.81,2.84,2.84,0,0,1-.2-1.1,2.52,2.52,0,0,1,.4-1.45,2.73,2.73,0,0,1,1.15-.93,4.46,4.46,0,0,1,1.74-.32,6.45,6.45,0,0,1,1.48.17,7.51,7.51,0,0,1,1.36.46l-.52,1.32a9.25,9.25,0,0,0-1.19-.4,4.71,4.71,0,0,0-1.18-.15,2.28,2.28,0,0,0-.88.15,1.24,1.24,0,0,0-.55.45,1.15,1.15,0,0,0-.19.67,1.27,1.27,0,0,0,.21.74,2.25,2.25,0,0,0,.67.54c.31.16.7.34,1.18.54a8.63,8.63,0,0,1,1.4.72,2.73,2.73,0,0,1,.89.9A2.62,2.62,0,0,1,74.16,58.28Zm4.73-5a3.22,3.22,0,0,1,2.16.63,2.48,2.48,0,0,1,.74,2V61H80.65l-.31-1.07h0a3.85,3.85,0,0,1-.67.67,2.27,2.27,0,0,1-.79.4,3.75,3.75,0,0,1-1.09.14,2.94,2.94,0,0,1-1.21-.25,2,2,0,0,1-.84-.77,2.51,2.51,0,0,1-.3-1.29,2,2,0,0,1,.86-1.76,5.15,5.15,0,0,1,2.64-.65l1.32-.05V56a1.25,1.25,0,0,0-1.4-1.46,3.71,3.71,0,0,0-1.1.16,7.75,7.75,0,0,0-1,.41L76.15,54a6.62,6.62,0,0,1,1.26-.48A6,6,0,0,1,78.89,53.29Zm1.31,4.09-1,0a3.08,3.08,0,0,0-1.69.41,1.19,1.19,0,0,0-.48,1,1,1,0,0,0,.33.82,1.43,1.43,0,0,0,.88.25,2,2,0,0,0,1.39-.47A1.77,1.77,0,0,0,80.2,58ZM85.65,61H84V50.36h1.61ZM91,53.29a3.38,3.38,0,0,1,1.73.42,2.78,2.78,0,0,1,1.12,1.18,4,4,0,0,1,.39,1.83v.86H89.15a2.51,2.51,0,0,0,.59,1.7,2.12,2.12,0,0,0,1.59.59,5.78,5.78,0,0,0,1.3-.13,8.11,8.11,0,0,0,1.19-.42v1.3a5,5,0,0,1-1.15.39,6.39,6.39,0,0,1-1.41.13,4.35,4.35,0,0,1-2-.43A3.24,3.24,0,0,1,88,59.41a4.37,4.37,0,0,1-.47-2.14,4.87,4.87,0,0,1,.43-2.16,3,3,0,0,1,1.21-1.36A3.47,3.47,0,0,1,91,53.29Zm0,1.21a1.64,1.64,0,0,0-1.24.49,2.31,2.31,0,0,0-.54,1.44h3.44a2.62,2.62,0,0,0-.19-1,1.47,1.47,0,0,0-.54-.68A1.61,1.61,0,0,0,91,54.5Zm10.13,4.34a2.13,2.13,0,0,1-.36,1.26,2.22,2.22,0,0,1-1.06.78,4.88,4.88,0,0,1-1.69.26A6.77,6.77,0,0,1,96.62,61a4.61,4.61,0,0,1-1.07-.34V59.29a7.11,7.11,0,0,0,1.21.44,4.92,4.92,0,0,0,1.27.18,2.12,2.12,0,0,0,1.15-.24.79.79,0,0,0,.34-.67.68.68,0,0,0-.14-.44,1.37,1.37,0,0,0-.52-.4,8.9,8.9,0,0,0-1.11-.51,9.29,9.29,0,0,1-1.21-.57,2.36,2.36,0,0,1-.74-.69,2,2,0,0,1-.25-1,1.69,1.69,0,0,1,.79-1.52,3.71,3.71,0,0,1,2.11-.53,6,6,0,0,1,2.53.55l-.51,1.21a6.68,6.68,0,0,0-1-.37,3.68,3.68,0,0,0-1-.15,1.85,1.85,0,0,0-1,.19.6.6,0,0,0-.33.54.73.73,0,0,0,.16.46,1.79,1.79,0,0,0,.54.36c.26.13.62.28,1.08.46a9.25,9.25,0,0,1,1.17.55,2.26,2.26,0,0,1,.77.69A2,2,0,0,1,101.1,58.84ZM114.52,61h-1.63V56.49h-4.61V61h-1.64V51h1.64v4.08h4.61V51h1.63Zm4.09-7.57V61H117V53.43Zm-.79-2.9a1,1,0,0,1,.63.2,1,1,0,0,1,0,1.37,1,1,0,0,1-.63.2,1.07,1.07,0,0,1-.65-.2,1,1,0,0,1,0-1.37A1.07,1.07,0,0,1,117.82,50.53ZM126,58.84a2.13,2.13,0,0,1-.36,1.26,2.27,2.27,0,0,1-1.06.78,4.94,4.94,0,0,1-1.7.26,6.67,6.67,0,0,1-1.36-.12,4.85,4.85,0,0,1-1.08-.34V59.29a7.44,7.44,0,0,0,1.21.44,5,5,0,0,0,1.28.18,2.06,2.06,0,0,0,1.14-.24.8.8,0,0,0,.35-.67.74.74,0,0,0-.14-.44,1.46,1.46,0,0,0-.52-.4,8.9,8.9,0,0,0-1.11-.51,9.29,9.29,0,0,1-1.21-.57,2.16,2.16,0,0,1-.74-.69,2,2,0,0,1-.26-1,1.7,1.7,0,0,1,.8-1.52,3.69,3.69,0,0,1,2.11-.53,6.12,6.12,0,0,1,1.31.14,6.26,6.26,0,0,1,1.22.41l-.51,1.21a7.08,7.08,0,0,0-1-.37,3.7,3.7,0,0,0-1-.15,1.9,1.9,0,0,0-1,.19.61.61,0,0,0-.32.54.68.68,0,0,0,.16.46,1.56,1.56,0,0,0,.54.36c.26.13.62.28,1.08.46a9.25,9.25,0,0,1,1.17.55,2.13,2.13,0,0,1,.76.69A1.89,1.89,0,0,1,126,58.84Zm4.55,1a3.18,3.18,0,0,0,.62-.06c.21,0,.4-.09.57-.14v1.22a3.61,3.61,0,0,1-.7.19,4.17,4.17,0,0,1-.88.09,2.81,2.81,0,0,1-1.15-.22,1.67,1.67,0,0,1-.82-.74,3,3,0,0,1-.3-1.46V54.66h-1v-.72l1.11-.57.52-1.62h1v1.68h2.16v1.23h-2.16v4a1.16,1.16,0,0,0,.28.86A1.09,1.09,0,0,0,130.55,59.84ZM140,57.2a5.3,5.3,0,0,1-.24,1.67,3.52,3.52,0,0,1-.72,1.24,3.24,3.24,0,0,1-1.14.77,4.12,4.12,0,0,1-1.49.26,3.87,3.87,0,0,1-1.43-.26,3.39,3.39,0,0,1-1.13-.77,3.54,3.54,0,0,1-.73-1.24,5,5,0,0,1-.26-1.67,4.71,4.71,0,0,1,.43-2.12,3.08,3.08,0,0,1,1.24-1.33,3.79,3.79,0,0,1,1.92-.46,3.6,3.6,0,0,1,1.85.46,3.16,3.16,0,0,1,1.25,1.33A4.58,4.58,0,0,1,140,57.2Zm-5.49,0a4.48,4.48,0,0,0,.2,1.41,1.87,1.87,0,0,0,.63.91,2.15,2.15,0,0,0,2.19,0,1.79,1.79,0,0,0,.62-.91,4.48,4.48,0,0,0,.2-1.41,4.37,4.37,0,0,0-.2-1.4,1.7,1.7,0,0,0-.62-.88,1.79,1.79,0,0,0-1.1-.31,1.64,1.64,0,0,0-1.46.67A3.42,3.42,0,0,0,134.48,57.2Zm11.17-3.91.42,0,.39,0-.15,1.51a1.58,1.58,0,0,0-.36-.06,2.42,2.42,0,0,0-.37,0,2.28,2.28,0,0,0-.82.14,1.89,1.89,0,0,0-.69.42,2.1,2.1,0,0,0-.47.71,2.68,2.68,0,0,0-.17,1v4h-1.61V53.43h1.26l.21,1.34h.08a3.35,3.35,0,0,1,.56-.74,2.61,2.61,0,0,1,.77-.54A2.31,2.31,0,0,1,145.65,53.29Zm1.07.14h1.75L150,57.75c.07.2.13.39.19.58s.11.38.15.56.08.36.11.54h0c0-.23.11-.5.19-.79s.18-.59.29-.89l1.49-4.32h1.72L151,62a5,5,0,0,1-.69,1.26,2.68,2.68,0,0,1-1,.79,2.84,2.84,0,0,1-1.26.27,3.54,3.54,0,0,1-.6,0l-.43-.07V63a2.69,2.69,0,0,0,.36.06l.45,0a1.6,1.6,0,0,0,.75-.17,1.46,1.46,0,0,0,.53-.49,2.57,2.57,0,0,0,.36-.7l.27-.71Z"/><line class="cls-6" x1="42.93" y1="156.75" x2="60.93" y2="156.75"/><circle class="cls-4" cx="51.93" cy="157" r="3"/><circle class="cls-7" cx="51.93" cy="157" r="3"/><circle class="cls-7" cx="44.93" cy="128" r="3"/><circle class="cls-7" cx="99.93" cy="65" r="3"/><circle class="cls-4" cx="154.93" cy="3" r="3"/><circle class="cls-7" cx="154.93" cy="3" r="3"/><circle class="cls-4" cx="154.93" cy="65" r="3"/><circle class="cls-8" cx="154.93" cy="65" r="3"/><circle class="cls-4" cx="93.93" cy="99" r="3"/><circle class="cls-8" cx="93.93" cy="99" r="3"/><line class="cls-9" x1="90.93" y1="156.75" x2="108.93" y2="156.75"/><circle class="cls-4" cx="99.93" cy="157" r="3"/><circle class="cls-8" cx="99.93" cy="157" r="3"/></g></g></svg>