<svg xmlns="http://www.w3.org/2000/svg" viewBox="0 0 188.93 162.53"><defs><style>.cls-1,.cls-2,.cls-3{fill:#a7a9ab;}.cls-2{fill-opacity:0.35;}.cls-3{fill-opacity:0.2;}.cls-4{fill:none;stroke:#c4c4c4;stroke-opacity:0.6;stroke-width:0.5px;}</style></defs><g id="Layer_2" data-name="Layer 2"><g id="Layer_1-2" data-name="Layer 1"><path class="cls-1" d="M66.64,153.1a2.66,2.66,0,0,1,1.81.51A1.82,1.82,0,0,1,69,155a2.36,2.36,0,0,1-.13.8,1.55,1.55,0,0,1-.42.66,2.11,2.11,0,0,1-.78.45,3.64,3.64,0,0,1-1.18.17h-.69v2.41h-1V153.1Zm-.07.88h-.75v2.26h.58a2.9,2.9,0,0,0,.84-.11,1.06,1.06,0,0,0,.53-.38,1.13,1.13,0,0,0,.18-.67,1,1,0,0,0-.34-.83A1.64,1.64,0,0,0,66.57,154Zm6.1.59h.26l.25,0-.09,1-.23,0-.24,0a1.3,1.3,0,0,0-.52.1,1.15,1.15,0,0,0-.45.27,1.19,1.19,0,0,0-.3.45,1.54,1.54,0,0,0-.11.63v2.55h-1v-4.87H71l.14.86h0a2.35,2.35,0,0,1,.36-.47,1.69,1.69,0,0,1,.49-.35A1.56,1.56,0,0,1,72.67,154.57Zm2.45.09v4.87h-1v-4.87Zm-.51-1.86a.65.65,0,0,1,.41.13.52.52,0,0,1,.17.44.54.54,0,0,1-.17.44.71.71,0,0,1-.41.12.72.72,0,0,1-.42-.12.54.54,0,0,1-.17-.44.52.52,0,0,1,.17-.44A.66.66,0,0,1,74.61,152.8Zm4.53,1.77a1.58,1.58,0,0,1,1.74,1.79v3.17h-1v-3a1.29,1.29,0,0,0-.23-.85.89.89,0,0,0-.72-.28,1.09,1.09,0,0,0-1,.43,2.41,2.41,0,0,0-.27,1.26v2.42h-1v-4.87h.8l.15.66h.06a1.18,1.18,0,0,1,.39-.41,1.69,1.69,0,0,1,.52-.26A2.51,2.51,0,0,1,79.14,154.57Zm5,4.21a2.6,2.6,0,0,0,.4,0l.36-.1v.79a1.83,1.83,0,0,1-.44.12,2.62,2.62,0,0,1-.57.06,2,2,0,0,1-.74-.14,1,1,0,0,1-.52-.48,1.86,1.86,0,0,1-.2-.93v-2.62h-.66V155l.71-.37.34-1h.65v1.08h1.39v.79H83.46v2.6a.74.74,0,0,0,.18.55A.69.69,0,0,0,84.13,158.78Z"/><path class="cls-1" d="M116,156.25a3.71,3.71,0,0,1-.41,1.82,2.63,2.63,0,0,1-1.17,1.09,4.34,4.34,0,0,1-1.86.37h-1.78V153.1h2a3.83,3.83,0,0,1,1.72.36,2.55,2.55,0,0,1,1.12,1.06A3.51,3.51,0,0,1,116,156.25Zm-1.1,0a3,3,0,0,0-.25-1.3,1.61,1.61,0,0,0-.73-.75,2.52,2.52,0,0,0-1.19-.25h-.9v4.66h.75a2.33,2.33,0,0,0,1.74-.59A2.44,2.44,0,0,0,114.89,156.28Zm3.41-1.62v4.87h-1v-4.87Zm-.51-1.86a.71.71,0,0,1,.41.12.54.54,0,0,1,.17.44.52.52,0,0,1-.17.44.65.65,0,0,1-.41.13.64.64,0,0,1-.42-.13.52.52,0,0,1-.17-.44.54.54,0,0,1,.17-.44A.7.7,0,0,1,117.79,152.8Zm3.38,8.89a2.69,2.69,0,0,1-1.52-.36,1.19,1.19,0,0,1-.25-1.76,1.57,1.57,0,0,1,.81-.42.89.89,0,0,1-.34-.27.66.66,0,0,1-.14-.42.75.75,0,0,1,.15-.47,1.65,1.65,0,0,1,.46-.37,1.36,1.36,0,0,1-.61-.53,1.54,1.54,0,0,1-.23-.86,1.67,1.67,0,0,1,.22-.9,1.42,1.42,0,0,1,.66-.57,2.47,2.47,0,0,1,1-.2l.28,0,.29,0a.87.87,0,0,1,.21,0h1.68v.57l-.82.16a1.35,1.35,0,0,1,.19.38,1.64,1.64,0,0,1,.07.46,1.47,1.47,0,0,1-.53,1.19,2.14,2.14,0,0,1-1.43.43c-.15,0-.29,0-.43,0a.83.83,0,0,0-.24.21.47.47,0,0,0-.08.26.26.26,0,0,0,.08.19.53.53,0,0,0,.25.11,2.25,2.25,0,0,0,.4,0h.84a1.93,1.93,0,0,1,1.22.34,1.22,1.22,0,0,1,.43,1,1.42,1.42,0,0,1-.69,1.27A3.5,3.5,0,0,1,121.17,161.69Zm0-.73a3.42,3.42,0,0,0,.91-.1,1.12,1.12,0,0,0,.55-.31.62.62,0,0,0,.19-.46.49.49,0,0,0-.12-.36.56.56,0,0,0-.35-.18,3.25,3.25,0,0,0-.59-.05H121a1.31,1.31,0,0,0-.5.09.71.71,0,0,0-.34.27.69.69,0,0,0-.12.41.57.57,0,0,0,.29.51A1.65,1.65,0,0,0,121.21,161Zm.2-3.79a.87.87,0,0,0,.67-.24,1,1,0,0,0,.22-.7,1.06,1.06,0,0,0-.23-.74.84.84,0,0,0-.67-.25.83.83,0,0,0-.66.25,1.09,1.09,0,0,0-.22.74,1,1,0,0,0,.22.7A.89.89,0,0,0,121.41,157.17Zm4.39-2.51v4.87h-1v-4.87Zm-.51-1.86a.69.69,0,0,1,.41.12.52.52,0,0,1,.18.44.49.49,0,0,1-.18.44.71.71,0,0,1-.82,0,.49.49,0,0,1-.17-.44.51.51,0,0,1,.17-.44A.69.69,0,0,1,125.29,152.8Zm3.8,6a1.75,1.75,0,0,0,.4,0,1.58,1.58,0,0,0,.36-.09v.78a1.79,1.79,0,0,1-.44.13,2.63,2.63,0,0,1-.57.05,2,2,0,0,1-.74-.13,1.15,1.15,0,0,1-.52-.48,1.9,1.9,0,0,1-.2-.94v-2.61h-.66V155l.71-.37.34-1h.65v1.08h1.4v.79h-1.4v2.6a.71.71,0,0,0,.19.55A.65.65,0,0,0,129.09,158.78Zm3.66-4.21a2,2,0,0,1,1.39.41,1.57,1.57,0,0,1,.48,1.27v3.28h-.74l-.19-.69h0a2.87,2.87,0,0,1-.42.43,1.75,1.75,0,0,1-.51.26,2.81,2.81,0,0,1-.7.08,1.94,1.94,0,0,1-.78-.15,1.24,1.24,0,0,1-.54-.5,1.62,1.62,0,0,1-.2-.83,1.28,1.28,0,0,1,.56-1.13,3.32,3.32,0,0,1,1.7-.42l.84,0v-.25a1,1,0,0,0-.24-.73.93.93,0,0,0-.66-.21,2.44,2.44,0,0,0-.71.1c-.22.08-.45.16-.66.26L131,155a4.27,4.27,0,0,1,.81-.3A3.75,3.75,0,0,1,132.75,154.57Zm.84,2.63-.62,0a2,2,0,0,0-1.09.27.75.75,0,0,0-.31.65.62.62,0,0,0,.21.52.94.94,0,0,0,.57.17,1.29,1.29,0,0,0,.89-.31,1.1,1.1,0,0,0,.35-.9Zm3.51,2.33h-1v-6.84h1Z"/><path class="cls-2" d="M58.93,150.53h-8a2,2,0,0,0-2,2v8a2,2,0,0,0,2,2h8a2,2,0,0,0,2-2v-8A2,2,0,0,0,58.93,150.53Z"/><path class="cls-3" d="M104.93,150.53h-8a2,2,0,0,0-2,2v8a2,2,0,0,0,2,2h8a2,2,0,0,0,2-2v-8A2,2,0,0,0,104.93,150.53Z"/><path class="cls-4" d="M15.93,127.28h173"/><path class="cls-4" d="M15.93,98.28h173"/><path class="cls-4" d="M15.93,65.28h173"/><path class="cls-4" d="M15.93,35.28h173"/><path class="cls-1" d="M9.11,127.31A7.22,7.22,0,0,1,9,128.7a3,3,0,0,1-.38,1,1.74,1.74,0,0,1-.67.65,2.12,2.12,0,0,1-1,.22,1.89,1.89,0,0,1-1.23-.39A2.27,2.27,0,0,1,5,129.09a5.85,5.85,0,0,1-.24-1.78A6.63,6.63,0,0,1,5,125.53a2.26,2.26,0,0,1,.7-1.13,1.9,1.9,0,0,1,1.27-.4,1.84,1.84,0,0,1,1.23.4,2.31,2.31,0,0,1,.72,1.13A5.81,5.81,0,0,1,9.11,127.31Zm-3.33,0a7.39,7.39,0,0,0,.11,1.36,1.61,1.61,0,0,0,.36.81.87.87,0,0,0,.67.27.87.87,0,0,0,.67-.27,1.7,1.7,0,0,0,.36-.81,7.31,7.31,0,0,0,.11-1.36A7.2,7.2,0,0,0,8,126a1.6,1.6,0,0,0-.36-.82.85.85,0,0,0-.67-.28.83.83,0,0,0-.67.28,1.6,1.6,0,0,0-.36.82A7.2,7.2,0,0,0,5.78,127.31Z"/><path class="cls-1" d="M7.36,97.51a2.47,2.47,0,0,1,1.09.22,1.68,1.68,0,0,1,.74.65,2,2,0,0,1,.27,1.05,2.31,2.31,0,0,1-.29,1.17,1.93,1.93,0,0,1-.84.75,3.07,3.07,0,0,1-1.35.26,4.64,4.64,0,0,1-.94-.08,2.54,2.54,0,0,1-.75-.27v-.93a2.9,2.9,0,0,0,.79.3,3.45,3.45,0,0,0,.88.12,2.21,2.21,0,0,0,.77-.13,1,1,0,0,0,.49-.41,1.22,1.22,0,0,0,.18-.69A1,1,0,0,0,8,98.67a1.66,1.66,0,0,0-1.1-.3,2.71,2.71,0,0,0-.56,0,3.83,3.83,0,0,0-.5.09l-.45-.27.24-3.14H9V96H6.58l-.14,1.6.38-.06A2.83,2.83,0,0,1,7.36,97.51Z"/><path class="cls-1" d="M54.68,140.53H50.33v-.78L52,138.06c.32-.33.58-.61.79-.85a2.81,2.81,0,0,0,.46-.68,1.47,1.47,0,0,0,.16-.7.88.88,0,0,0-.27-.7,1,1,0,0,0-.71-.24,1.67,1.67,0,0,0-.77.17,3.14,3.14,0,0,0-.73.46l-.57-.68a6,6,0,0,1,.57-.42,3.59,3.59,0,0,1,.69-.3,3.21,3.21,0,0,1,.86-.11,2.33,2.33,0,0,1,1.06.22,1.59,1.59,0,0,1,.68.6,1.68,1.68,0,0,1,.24.9,2.18,2.18,0,0,1-.21,1,3.72,3.72,0,0,1-.59.87c-.25.28-.56.59-.91.93l-1.11,1.08v.05h3Zm5.15-3.22a7.27,7.27,0,0,1-.12,1.39,3.18,3.18,0,0,1-.38,1,1.81,1.81,0,0,1-.67.65,2.14,2.14,0,0,1-1,.22,1.88,1.88,0,0,1-1.22-.39,2.36,2.36,0,0,1-.72-1.13,6.2,6.2,0,0,1-.23-1.78,6.63,6.63,0,0,1,.21-1.78,2.25,2.25,0,0,1,.69-1.13,1.91,1.91,0,0,1,1.27-.4,1.84,1.84,0,0,1,1.23.4,2.25,2.25,0,0,1,.73,1.13A6.16,6.16,0,0,1,59.83,137.31Zm-3.32,0a7.39,7.39,0,0,0,.11,1.36,1.61,1.61,0,0,0,.36.81,1,1,0,0,0,1.33,0,1.53,1.53,0,0,0,.36-.81,6.47,6.47,0,0,0,.12-1.36,7.2,7.2,0,0,0-.11-1.35,1.79,1.79,0,0,0-.36-.82,1,1,0,0,0-1.35,0,1.69,1.69,0,0,0-.35.82A7.2,7.2,0,0,0,56.51,137.31ZM65,140.53H60.63v-.78l1.67-1.69c.32-.33.59-.61.79-.85a2.88,2.88,0,0,0,.47-.68,1.6,1.6,0,0,0,.15-.7.88.88,0,0,0-.27-.7,1,1,0,0,0-.71-.24,1.67,1.67,0,0,0-.77.17,3.36,3.36,0,0,0-.73.46l-.57-.68a6,6,0,0,1,.57-.42,3.59,3.59,0,0,1,.69-.3,3.21,3.21,0,0,1,.86-.11,2.33,2.33,0,0,1,1.06.22,1.59,1.59,0,0,1,.68.6,1.68,1.68,0,0,1,.24.9,2.18,2.18,0,0,1-.21,1,3.72,3.72,0,0,1-.59.87c-.25.28-.55.59-.91.93l-1.11,1.08v.05h3Zm3.84,0h-1v-4.14c0-.14,0-.27,0-.41s0-.27,0-.41,0-.25,0-.37l-.23.22-.28.24-.74.59-.52-.65L68,134.1h.86Z"/><path class="cls-1" d="M149.68,140.53h-4.35v-.78l1.66-1.69c.33-.33.59-.61.8-.85a2.81,2.81,0,0,0,.46-.68,1.6,1.6,0,0,0,.15-.7.91.91,0,0,0-.26-.7,1,1,0,0,0-.71-.24,1.71,1.71,0,0,0-.78.17,3.31,3.31,0,0,0-.72.46l-.57-.68a6,6,0,0,1,.57-.42,3.12,3.12,0,0,1,.69-.3,3.15,3.15,0,0,1,.86-.11,2.29,2.29,0,0,1,1.05.22,1.53,1.53,0,0,1,.68.6,1.68,1.68,0,0,1,.24.9,2.17,2.17,0,0,1-.2,1,4.06,4.06,0,0,1-.59.87c-.26.28-.56.59-.91.93l-1.11,1.08v.05h3Zm5.15-3.22a7.27,7.27,0,0,1-.12,1.39,3.18,3.18,0,0,1-.38,1,1.84,1.84,0,0,1-.68.65,2.09,2.09,0,0,1-1,.22,1.93,1.93,0,0,1-1.23-.39,2.27,2.27,0,0,1-.71-1.13,5.87,5.87,0,0,1-.23-1.78,6.63,6.63,0,0,1,.21-1.78,2.18,2.18,0,0,1,.69-1.13,1.9,1.9,0,0,1,1.27-.4,1.84,1.84,0,0,1,1.23.4,2.18,2.18,0,0,1,.72,1.13A5.81,5.81,0,0,1,154.83,137.31Zm-3.32,0a7.49,7.49,0,0,0,.1,1.36,1.8,1.8,0,0,0,.36.81,1,1,0,0,0,1.34,0,1.53,1.53,0,0,0,.36-.81,7.31,7.31,0,0,0,.11-1.36,6.44,6.44,0,0,0-.11-1.35,1.6,1.6,0,0,0-.36-.82.94.94,0,0,0-1.34,0,1.69,1.69,0,0,0-.36.82A7.3,7.3,0,0,0,151.51,137.31Zm8.47,3.22h-4.35v-.78l1.66-1.69c.33-.33.59-.61.8-.85a2.81,2.81,0,0,0,.46-.68,1.6,1.6,0,0,0,.15-.7.88.88,0,0,0-.26-.7,1,1,0,0,0-.71-.24,1.64,1.64,0,0,0-.77.17,3.14,3.14,0,0,0-.73.46l-.57-.68a6,6,0,0,1,.57-.42,3.34,3.34,0,0,1,.69-.3,3.21,3.21,0,0,1,.86-.11,2.29,2.29,0,0,1,1.05.22,1.48,1.48,0,0,1,.68.6,1.69,1.69,0,0,1,.25.9,2.18,2.18,0,0,1-.21,1,4.06,4.06,0,0,1-.59.87c-.26.28-.56.59-.91.93l-1.11,1.08v.05h3Zm5.15,0h-4.35v-.78l1.66-1.69c.33-.33.59-.61.8-.85a2.81,2.81,0,0,0,.46-.68,1.6,1.6,0,0,0,.16-.7.88.88,0,0,0-.27-.7,1,1,0,0,0-.71-.24,1.64,1.64,0,0,0-.77.17,3.14,3.14,0,0,0-.73.46l-.57-.68a6,6,0,0,1,.57-.42,3.34,3.34,0,0,1,.69-.3,3.21,3.21,0,0,1,.86-.11,2.26,2.26,0,0,1,1,.22,1.48,1.48,0,0,1,.68.6,1.69,1.69,0,0,1,.25.9,2.18,2.18,0,0,1-.21,1,4.06,4.06,0,0,1-.59.87c-.25.28-.56.59-.91.93l-1.11,1.08v.05h3Z"/><path class="cls-1" d="M3.07,69.53H2V65c0-.14,0-.27,0-.41s0-.25,0-.37a2.54,2.54,0,0,1-.23.22l-.28.24-.73.59L.3,64.6l1.9-1.5h.87Zm6.46-3.22a7.27,7.27,0,0,1-.12,1.39,3.18,3.18,0,0,1-.38,1,1.77,1.77,0,0,1-.68.65,2.09,2.09,0,0,1-1,.22,1.88,1.88,0,0,1-1.22-.39,2.22,2.22,0,0,1-.72-1.13,5.87,5.87,0,0,1-.23-1.78,6.63,6.63,0,0,1,.21-1.78,2.18,2.18,0,0,1,.69-1.13A1.9,1.9,0,0,1,7.34,63a1.84,1.84,0,0,1,1.23.4,2.18,2.18,0,0,1,.72,1.13A5.76,5.76,0,0,1,9.53,66.31Zm-3.32,0a7.49,7.49,0,0,0,.1,1.36,1.8,1.8,0,0,0,.36.81.87.87,0,0,0,.67.27A.87.87,0,0,0,8,68.48a1.57,1.57,0,0,0,.36-.81,6.54,6.54,0,0,0,.11-1.36A6.44,6.44,0,0,0,8.37,65,1.6,1.6,0,0,0,8,64.14a.83.83,0,0,0-.67-.28.85.85,0,0,0-.67.28,1.69,1.69,0,0,0-.36.82A7.3,7.3,0,0,0,6.21,66.31Z"/><path class="cls-1" d="M4.38,38.53H0v-.78L1.7,36.06c.32-.33.58-.61.79-.85A2.81,2.81,0,0,0,3,34.53a1.5,1.5,0,0,0,.16-.7.88.88,0,0,0-.27-.7,1,1,0,0,0-.71-.24,1.8,1.8,0,0,0-.77.16,3.58,3.58,0,0,0-.73.47l-.57-.68a6,6,0,0,1,.57-.42,3.59,3.59,0,0,1,.69-.3A3.21,3.21,0,0,1,2.18,32a2.26,2.26,0,0,1,1,.22,1.56,1.56,0,0,1,.69.6,1.68,1.68,0,0,1,.24.9,2.18,2.18,0,0,1-.21,1,3.72,3.72,0,0,1-.59.87c-.25.28-.56.59-.91.93L1.34,37.57v0h3Zm5.15-3.22a7.27,7.27,0,0,1-.12,1.39,3.18,3.18,0,0,1-.38,1,1.77,1.77,0,0,1-.68.65,2.07,2.07,0,0,1-1,.22,1.88,1.88,0,0,1-1.22-.39,2.36,2.36,0,0,1-.72-1.13,6.2,6.2,0,0,1-.23-1.78,6.63,6.63,0,0,1,.21-1.78,2.18,2.18,0,0,1,.69-1.13A1.91,1.91,0,0,1,7.34,32a1.84,1.84,0,0,1,1.23.4,2.18,2.18,0,0,1,.72,1.13A5.76,5.76,0,0,1,9.53,35.31Zm-3.32,0a7.39,7.39,0,0,0,.11,1.36,1.61,1.61,0,0,0,.36.81.85.85,0,0,0,.66.27A.87.87,0,0,0,8,37.48a1.57,1.57,0,0,0,.36-.81,6.47,6.47,0,0,0,.12-1.36A7.2,7.2,0,0,0,8.38,34,1.79,1.79,0,0,0,8,33.14a.85.85,0,0,0-.68-.28.85.85,0,0,0-.67.28,1.69,1.69,0,0,0-.35.82A7.2,7.2,0,0,0,6.21,35.31Z"/><path class="cls-4" d="M15.93,2.28h173"/><path class="cls-1" d="M4.14,1.57A1.49,1.49,0,0,1,4,2.32a1.53,1.53,0,0,1-.48.53,2,2,0,0,1-.71.29v0a2,2,0,0,1,1.16.49,1.33,1.33,0,0,1,.4,1,1.9,1.9,0,0,1-.27,1,1.75,1.75,0,0,1-.82.68,3.43,3.43,0,0,1-1.43.25,5,5,0,0,1-1-.08A3.58,3.58,0,0,1,0,6.26V5.34a4.1,4.1,0,0,0,.87.32,4,4,0,0,0,.87.11,1.74,1.74,0,0,0,1.15-.3,1.06,1.06,0,0,0,.34-.84.86.86,0,0,0-.18-.56,1,1,0,0,0-.55-.33,3.49,3.49,0,0,0-.95-.11H1V2.8h.58a2.43,2.43,0,0,0,.89-.13,1,1,0,0,0,.49-.38,1,1,0,0,0,.15-.55.81.81,0,0,0-.26-.64A1.18,1.18,0,0,0,2,.87a2.17,2.17,0,0,0-.59.07A2.38,2.38,0,0,0,1,1.13l-.43.25L0,.66A3.25,3.25,0,0,1,.9.2,3.23,3.23,0,0,1,2.07,0,2.38,2.38,0,0,1,3.6.44,1.35,1.35,0,0,1,4.14,1.57ZM9.53,3.31A7.27,7.27,0,0,1,9.41,4.7a3.18,3.18,0,0,1-.38,1,1.77,1.77,0,0,1-.68.65,2.07,2.07,0,0,1-1,.22,1.88,1.88,0,0,1-1.22-.39A2.28,2.28,0,0,1,5.4,5.09a6.2,6.2,0,0,1-.23-1.78,6.63,6.63,0,0,1,.21-1.78A2.18,2.18,0,0,1,6.07.4,1.91,1.91,0,0,1,7.34,0,1.84,1.84,0,0,1,8.57.4a2.18,2.18,0,0,1,.72,1.13A5.76,5.76,0,0,1,9.53,3.31Zm-3.32,0a7.49,7.49,0,0,0,.1,1.36,1.7,1.7,0,0,0,.37.81.84.84,0,0,0,.66.27A.87.87,0,0,0,8,5.48a1.57,1.57,0,0,0,.36-.81,6.47,6.47,0,0,0,.12-1.36A7.2,7.2,0,0,0,8.38,2,1.79,1.79,0,0,0,8,1.14.87.87,0,0,0,7.34.86a.85.85,0,0,0-.67.28A1.79,1.79,0,0,0,6.31,2,7.3,7.3,0,0,0,6.21,3.31Z"/><path class="cls-3" d="M180.93,65.53h-24v62h24Z"/><path class="cls-2" d="M149.93,2.53h-24v125h24Z"/><path class="cls-3" d="M84.93,65.53h-24v62h24Z"/><path class="cls-2" d="M54.93,2.53h-24v125h24Z"/><path class="cls-1" d="M53.58,60.53h-2l-4.89-8h-.06c0,.27,0,.55,0,.85s0,.61,0,.93,0,.65,0,1v5.23H45.24v-10h2l4.89,7.93h0c0-.24,0-.5,0-.8s0-.61,0-.93,0-.64,0-.94V50.53h1.5Zm9.16-3.8a5.06,5.06,0,0,1-.25,1.67,3.25,3.25,0,0,1-.72,1.24,3,3,0,0,1-1.13.76,3.93,3.93,0,0,1-1.5.26,3.71,3.71,0,0,1-1.43-.26,3.09,3.09,0,0,1-1.12-.76,3.56,3.56,0,0,1-.74-1.24,5,5,0,0,1-.26-1.67A4.68,4.68,0,0,1,56,54.61a3,3,0,0,1,1.24-1.34,3.89,3.89,0,0,1,1.92-.45,3.73,3.73,0,0,1,1.85.45,3.18,3.18,0,0,1,1.25,1.34A4.58,4.58,0,0,1,62.74,56.73Zm-5.49,0a4.48,4.48,0,0,0,.2,1.41,1.9,1.9,0,0,0,2.81.9,1.82,1.82,0,0,0,.63-.9,4.5,4.5,0,0,0,.19-1.41,4.39,4.39,0,0,0-.19-1.4,1.75,1.75,0,0,0-.63-.89,1.86,1.86,0,0,0-1.1-.3,1.62,1.62,0,0,0-1.45.67A3.32,3.32,0,0,0,57.25,56.73Zm16.9,1.08a2.67,2.67,0,0,1-.43,1.53,2.75,2.75,0,0,1-1.25,1,4.9,4.9,0,0,1-1.93.34,8.69,8.69,0,0,1-1-.06,6.53,6.53,0,0,1-.94-.18,5,5,0,0,1-.8-.29V58.59a10.67,10.67,0,0,0,1.36.48,5.65,5.65,0,0,0,1.53.21,2.9,2.9,0,0,0,1-.16,1.3,1.3,0,0,0,.63-.48,1.27,1.27,0,0,0,.2-.73,1.16,1.16,0,0,0-.24-.75,2,2,0,0,0-.72-.56,11.72,11.72,0,0,0-1.2-.56,7.53,7.53,0,0,1-1-.45,4.28,4.28,0,0,1-.79-.59,2.53,2.53,0,0,1-.55-.81,2.69,2.69,0,0,1-.2-1.11,2.54,2.54,0,0,1,.4-1.45,2.71,2.71,0,0,1,1.15-.92,4.46,4.46,0,0,1,1.74-.32,6.31,6.31,0,0,1,1.47.16A7.65,7.65,0,0,1,74,51l-.52,1.32a9,9,0,0,0-1.2-.41,4.58,4.58,0,0,0-1.17-.15,2.27,2.27,0,0,0-.88.16,1.26,1.26,0,0,0-.56.45,1.2,1.2,0,0,0-.18.67,1.23,1.23,0,0,0,.21.73,2,2,0,0,0,.67.54,12.55,12.55,0,0,0,1.18.55,8.63,8.63,0,0,1,1.4.72,2.73,2.73,0,0,1,.89.9A2.59,2.59,0,0,1,74.15,57.81Zm4.73-5a3.25,3.25,0,0,1,2.17.63,2.5,2.5,0,0,1,.74,2v5.1H80.65l-.31-1.08h0a3.93,3.93,0,0,1-.67.68,2.27,2.27,0,0,1-.79.4,3.83,3.83,0,0,1-1.09.13,2.94,2.94,0,0,1-1.21-.24,2,2,0,0,1-.84-.77,2.53,2.53,0,0,1-.31-1.3,2,2,0,0,1,.87-1.75A5.05,5.05,0,0,1,78.89,56l1.31-.05v-.4a1.24,1.24,0,0,0-1.39-1.45,3.66,3.66,0,0,0-1.1.16,7.7,7.7,0,0,0-1,.4l-.52-1.13A5.5,5.5,0,0,1,77.41,53,5.92,5.92,0,0,1,78.88,52.82Zm1.32,4.09-1,0a3,3,0,0,0-1.69.41,1.19,1.19,0,0,0-.48,1,1,1,0,0,0,.33.82,1.41,1.41,0,0,0,.88.25A2,2,0,0,0,79.64,59a1.76,1.76,0,0,0,.56-1.4Zm5.45,3.62H84V49.89h1.61ZM91,52.82a3.5,3.5,0,0,1,1.74.41,2.84,2.84,0,0,1,1.11,1.19,4,4,0,0,1,.39,1.83v.86h-5a2.48,2.48,0,0,0,.59,1.69,2.09,2.09,0,0,0,1.59.6,5.6,5.6,0,0,0,1.29-.14,6.82,6.82,0,0,0,1.2-.41v1.3a5,5,0,0,1-1.15.39,7.27,7.27,0,0,1-1.41.12,4.19,4.19,0,0,1-2-.43A3.12,3.12,0,0,1,88,58.93a4.32,4.32,0,0,1-.48-2.14,4.92,4.92,0,0,1,.44-2.16,3.06,3.06,0,0,1,1.21-1.35A3.46,3.46,0,0,1,91,52.82ZM91,54a1.63,1.63,0,0,0-1.23.49A2.31,2.31,0,0,0,89.19,56h3.44a2.58,2.58,0,0,0-.19-1,1.45,1.45,0,0,0-.55-.69A1.65,1.65,0,0,0,91,54Zm10.14,4.34a2,2,0,0,1-1.42,2,4.71,4.71,0,0,1-1.7.26,6.8,6.8,0,0,1-1.36-.11,5.44,5.44,0,0,1-1.08-.34V58.82a8.51,8.51,0,0,0,1.21.44,5.05,5.05,0,0,0,1.28.18,2,2,0,0,0,1.14-.25.76.76,0,0,0,.35-.67.71.71,0,0,0-.14-.43,1.46,1.46,0,0,0-.52-.41,9.13,9.13,0,0,0-1.11-.5,9.22,9.22,0,0,1-1.21-.58,2.06,2.06,0,0,1-.74-.69,1.93,1.93,0,0,1-.26-1,1.72,1.72,0,0,1,.8-1.53,3.77,3.77,0,0,1,2.11-.52,5.54,5.54,0,0,1,1.31.14,6.7,6.7,0,0,1,1.22.4l-.51,1.21a7.93,7.93,0,0,0-1-.37,3.7,3.7,0,0,0-1-.15,1.89,1.89,0,0,0-1,.2.6.6,0,0,0-.32.54.69.69,0,0,0,.16.45,1.63,1.63,0,0,0,.54.37c.26.13.62.28,1.08.46a8,8,0,0,1,1.17.55,2,2,0,0,1,.76.69A1.87,1.87,0,0,1,101.1,58.37Zm13.42,2.16h-1.63V56h-4.61v4.51h-1.64v-10h1.64v4.09h4.61V50.53h1.63ZM118.61,53v7.57H117V53Zm-.79-2.9a1.05,1.05,0,0,1,.63.2.79.79,0,0,1,.27.68.82.82,0,0,1-.27.69,1.12,1.12,0,0,1-1.28,0,.82.82,0,0,1-.26-.69.78.78,0,0,1,.26-.68A1,1,0,0,1,117.82,50.06ZM126,58.37a2.17,2.17,0,0,1-.36,1.26,2.24,2.24,0,0,1-1.06.77,4.71,4.71,0,0,1-1.7.26,6.9,6.9,0,0,1-1.37-.11,5.56,5.56,0,0,1-1.07-.34V58.82a8.08,8.08,0,0,0,1.21.44,5,5,0,0,0,1.28.18,2,2,0,0,0,1.14-.25.78.78,0,0,0,.35-.67.71.71,0,0,0-.14-.43,1.56,1.56,0,0,0-.52-.41,9.91,9.91,0,0,0-1.11-.5,9.22,9.22,0,0,1-1.21-.58,2.1,2.1,0,0,1-.75-.69,1.93,1.93,0,0,1-.25-1,1.72,1.72,0,0,1,.79-1.53,3.83,3.83,0,0,1,2.12-.52,5.54,5.54,0,0,1,1.31.14,6.6,6.6,0,0,1,1.21.4l-.5,1.21a8.49,8.49,0,0,0-1-.37,3.75,3.75,0,0,0-1-.15,1.89,1.89,0,0,0-1,.2.6.6,0,0,0-.32.54.64.64,0,0,0,.16.45,1.44,1.44,0,0,0,.54.37c.26.13.62.28,1.08.46a8,8,0,0,1,1.17.55,2,2,0,0,1,.76.69A1.87,1.87,0,0,1,126,58.37Zm4.55,1a3.18,3.18,0,0,0,.62-.06,5.72,5.72,0,0,0,.56-.14v1.21a2.74,2.74,0,0,1-.69.2,4.18,4.18,0,0,1-.88.08,3,3,0,0,1-1.15-.21,1.63,1.63,0,0,1-.82-.74,3,3,0,0,1-.3-1.46V54.18h-1v-.71L128,52.9l.52-1.62h1V53h2.17v1.22H129.5v4a1.13,1.13,0,0,0,.29.85A1,1,0,0,0,130.55,59.37ZM140,56.73a5.06,5.06,0,0,1-.25,1.67,3.36,3.36,0,0,1-.71,1.24,3.17,3.17,0,0,1-1.14.76,3.93,3.93,0,0,1-1.5.26A3.66,3.66,0,0,1,135,60.4a3.13,3.13,0,0,1-1.13-.76,3.4,3.4,0,0,1-.73-1.24,4.8,4.8,0,0,1-.26-1.67,4.69,4.69,0,0,1,.43-2.12,3,3,0,0,1,1.24-1.34,3.89,3.89,0,0,1,1.92-.45,3.7,3.7,0,0,1,1.85.45,3.18,3.18,0,0,1,1.25,1.34A4.58,4.58,0,0,1,140,56.73Zm-5.49,0a4.48,4.48,0,0,0,.2,1.41,1.88,1.88,0,0,0,.63.9,1.78,1.78,0,0,0,1.09.31,1.65,1.65,0,0,0,1.72-1.21,4.48,4.48,0,0,0,.2-1.41,4.37,4.37,0,0,0-.2-1.4,1.73,1.73,0,0,0-.62-.89,1.88,1.88,0,0,0-1.1-.3,1.63,1.63,0,0,0-1.46.67A3.32,3.32,0,0,0,134.48,56.73Zm11.17-3.91a3.1,3.1,0,0,1,.42,0l.39,0-.15,1.51a2.56,2.56,0,0,0-.36-.07l-.37,0a2.29,2.29,0,0,0-.82.15,1.89,1.89,0,0,0-.69.42,1.92,1.92,0,0,0-.47.7,2.78,2.78,0,0,0-.17,1v4h-1.61V53h1.25l.22,1.33h.08a3.61,3.61,0,0,1,.56-.74,2.67,2.67,0,0,1,.76-.53A2.2,2.2,0,0,1,145.65,52.82Zm1.07.14h1.75L150,57.28c.07.2.13.39.18.58s.11.37.15.56a3.45,3.45,0,0,1,.11.54h0c.05-.24.11-.5.2-.79s.18-.59.28-.89L152.47,53h1.73L151,61.57a4.78,4.78,0,0,1-.69,1.25,2.61,2.61,0,0,1-1,.8,2.86,2.86,0,0,1-1.27.27,3.49,3.49,0,0,1-.59,0,3.34,3.34,0,0,1-.43-.08V62.49l.36.06a3.4,3.4,0,0,0,.45,0,1.6,1.6,0,0,0,.75-.17,1.65,1.65,0,0,0,.53-.49,2.57,2.57,0,0,0,.36-.7l.27-.71Z"/></g></g></svg>