<svg xmlns="http://www.w3.org/2000/svg" viewBox="0 0 266.93 142.69"><defs><style>.cls-1{fill:none;stroke:#a7a9ab;}.cls-2{fill:#a7a9ab;}</style></defs><g id="Layer_2" data-name="Layer 2"><g id="Layer_1-2" data-name="Layer 1"><line class="cls-1" x1="15.93" y1="121.03" x2="266.93" y2="121.03"/><line class="cls-1" x1="15.93" y1="92.03" x2="266.93" y2="92.03"/><line class="cls-1" x1="15.93" y1="64.03" x2="40.93" y2="64.03"/><line class="cls-1" x1="240.93" y1="64.03" x2="266.93" y2="64.03"/><line class="cls-1" x1="15.93" y1="34.03" x2="266.93" y2="34.03"/><line class="cls-1" x1="15.93" y1="3.03" x2="266.93" y2="3.03"/><path class="cls-2" d="M50.25,62.54l3-5.86h2.28l-4.27,7.85v5h-2.1V64.61l-4.28-7.93h2.29Zm15.42,2.1a6.71,6.71,0,0,1-.32,2.15,4.3,4.3,0,0,1-.92,1.59,4,4,0,0,1-1.46,1,5.3,5.3,0,0,1-1.92.33,5,5,0,0,1-1.84-.33,4.16,4.16,0,0,1-1.45-1,4.33,4.33,0,0,1-.94-1.59,6.42,6.42,0,0,1-.34-2.15A6.12,6.12,0,0,1,57,61.91a3.9,3.9,0,0,1,1.6-1.71,4.93,4.93,0,0,1,2.47-.59,4.71,4.71,0,0,1,2.37.59,4,4,0,0,1,1.61,1.71A5.86,5.86,0,0,1,65.67,64.64Zm-7.06,0a5.74,5.74,0,0,0,.26,1.82,2.31,2.31,0,0,0,.81,1.16,2.34,2.34,0,0,0,1.4.39,2.1,2.1,0,0,0,2.21-1.55,5.76,5.76,0,0,0,.25-1.82,5.54,5.54,0,0,0-.25-1.8,2.25,2.25,0,0,0-.8-1.14,2.41,2.41,0,0,0-1.42-.39,2.11,2.11,0,0,0-1.87.86A4.37,4.37,0,0,0,58.61,64.64ZM76.52,59.8v9.73H74.9l-.28-1.31H74.5a2.69,2.69,0,0,1-.78.83,3.34,3.34,0,0,1-1,.48,4.16,4.16,0,0,1-1.23.17,4.32,4.32,0,0,1-1.88-.37,2.6,2.6,0,0,1-1.18-1.16,4.24,4.24,0,0,1-.42-2V59.8H70v6a2.68,2.68,0,0,0,.45,1.7,1.78,1.78,0,0,0,1.45.56,2.63,2.63,0,0,0,1.49-.38,2.05,2.05,0,0,0,.78-1.15,6.15,6.15,0,0,0,.24-1.85V59.8Zm7.9-.19.53,0a4.63,4.63,0,0,1,.5.07l-.19,1.93a3.58,3.58,0,0,0-.46-.08l-.47,0a3.15,3.15,0,0,0-1.06.18,2.38,2.38,0,0,0-.88.55,2.52,2.52,0,0,0-.61.9,3.31,3.31,0,0,0-.22,1.27v5.09H79.49V59.8H81.1l.28,1.71h.1a4.11,4.11,0,0,1,.72-.95,3.36,3.36,0,0,1,1-.68A2.77,2.77,0,0,1,84.42,59.61ZM99.56,66a3.31,3.31,0,0,1-2.16,3.23,6.21,6.21,0,0,1-2.48.44,9.8,9.8,0,0,1-1.35-.08,8.94,8.94,0,0,1-1.21-.23,6.9,6.9,0,0,1-1-.37V67a13.17,13.17,0,0,0,1.75.62,7,7,0,0,0,2,.28,3.68,3.68,0,0,0,1.35-.21,1.69,1.69,0,0,0,.81-.62,1.65,1.65,0,0,0,.27-.94,1.58,1.58,0,0,0-.31-1,3,3,0,0,0-.93-.72,16,16,0,0,0-1.55-.71,9.63,9.63,0,0,1-1.21-.58,5.21,5.21,0,0,1-1-.76,3.26,3.26,0,0,1-.71-1A3.69,3.69,0,0,1,91.49,60,3.25,3.25,0,0,1,92,58.09a3.39,3.39,0,0,1,1.48-1.19,5.69,5.69,0,0,1,2.23-.41,8.26,8.26,0,0,1,1.9.21,9.62,9.62,0,0,1,1.76.6L98.71,59a11.64,11.64,0,0,0-1.54-.52,5.91,5.91,0,0,0-1.51-.2,2.76,2.76,0,0,0-1.14.21,1.56,1.56,0,0,0-.71.57,1.52,1.52,0,0,0-.24.86,1.64,1.64,0,0,0,.28.95,2.5,2.5,0,0,0,.86.69c.39.21.89.45,1.51.71a10.71,10.71,0,0,1,1.8.92,3.41,3.41,0,0,1,1.14,1.16A3.17,3.17,0,0,1,99.56,66Zm6.08-6.42a4.13,4.13,0,0,1,2.79.82,3.18,3.18,0,0,1,.95,2.55v6.55h-1.47l-.4-1.38h-.07a5,5,0,0,1-.85.87,3.25,3.25,0,0,1-1,.51,5.05,5.05,0,0,1-1.4.17,3.67,3.67,0,0,1-1.55-.31,2.46,2.46,0,0,1-1.08-1,3.15,3.15,0,0,1-.4-1.67,2.55,2.55,0,0,1,1.12-2.26,6.57,6.57,0,0,1,3.39-.83l1.69-.06v-.51a1.87,1.87,0,0,0-.48-1.45,1.9,1.9,0,0,0-1.31-.43,4.83,4.83,0,0,0-1.42.21,12.8,12.8,0,0,0-1.34.52l-.66-1.46a7.6,7.6,0,0,1,1.61-.61A7.5,7.5,0,0,1,105.64,59.61Zm1.69,5.27-1.26,0a4,4,0,0,0-2.17.53,1.55,1.55,0,0,0-.62,1.3,1.23,1.23,0,0,0,.43,1,1.81,1.81,0,0,0,1.13.33,2.6,2.6,0,0,0,1.78-.61,2.26,2.26,0,0,0,.71-1.8Zm7,4.65h-2.07V55.85h2.07Zm6.83-9.92a4.42,4.42,0,0,1,2.24.54,3.62,3.62,0,0,1,1.43,1.52,5.16,5.16,0,0,1,.5,2.35v1.11h-6.5a3.22,3.22,0,0,0,.76,2.18,2.7,2.7,0,0,0,2,.77,7.06,7.06,0,0,0,1.67-.18,8.6,8.6,0,0,0,1.54-.54V69a6.38,6.38,0,0,1-1.49.5,8.62,8.62,0,0,1-1.81.16,5.47,5.47,0,0,1-2.52-.55,4.08,4.08,0,0,1-1.7-1.67,5.74,5.74,0,0,1-.6-2.75,6.32,6.32,0,0,1,.55-2.78,4.05,4.05,0,0,1,1.55-1.74A4.48,4.48,0,0,1,121.17,59.61Zm0,1.56a2.09,2.09,0,0,0-1.58.63,3,3,0,0,0-.7,1.85h4.43a3.49,3.49,0,0,0-.25-1.29,1.92,1.92,0,0,0-.7-.88A2.1,2.1,0,0,0,121.17,61.17Zm13,5.58a2.74,2.74,0,0,1-.47,1.62,2.84,2.84,0,0,1-1.36,1,6.29,6.29,0,0,1-2.18.33,9,9,0,0,1-1.76-.15,5.71,5.71,0,0,1-1.38-.44V67.33a9.44,9.44,0,0,0,1.56.56,6.14,6.14,0,0,0,1.64.24,2.62,2.62,0,0,0,1.47-.32,1,1,0,0,0,.45-.86.86.86,0,0,0-.19-.56,2,2,0,0,0-.67-.52,12.17,12.17,0,0,0-1.42-.65,12.15,12.15,0,0,1-1.56-.74,2.64,2.64,0,0,1-1-.89,2.49,2.49,0,0,1-.33-1.34,2.19,2.19,0,0,1,1-2,4.89,4.89,0,0,1,2.72-.68,7,7,0,0,1,1.68.19,8,8,0,0,1,1.57.51l-.65,1.56a9.58,9.58,0,0,0-1.33-.47,4.73,4.73,0,0,0-1.34-.2,2.43,2.43,0,0,0-1.23.25.78.78,0,0,0-.41.7.89.89,0,0,0,.2.58,2.21,2.21,0,0,0,.7.48c.33.15.79.35,1.39.59a9.61,9.61,0,0,1,1.5.7,2.58,2.58,0,0,1,1,.89A2.43,2.43,0,0,1,134.21,66.75Zm10.72-7.14a4.13,4.13,0,0,1,2.79.82,3.18,3.18,0,0,1,.94,2.55v6.55H147.2l-.4-1.38h-.07a5,5,0,0,1-.85.87,3.25,3.25,0,0,1-1,.51,5.1,5.1,0,0,1-1.4.17,3.64,3.64,0,0,1-1.55-.31,2.54,2.54,0,0,1-1.09-1,3.25,3.25,0,0,1-.39-1.67,2.55,2.55,0,0,1,1.12-2.26,6.57,6.57,0,0,1,3.39-.83l1.69-.06v-.51a1.87,1.87,0,0,0-.48-1.45,1.9,1.9,0,0,0-1.32-.43,4.77,4.77,0,0,0-1.41.21,12.8,12.8,0,0,0-1.34.52l-.67-1.46a7.91,7.91,0,0,1,1.62-.61A7.44,7.44,0,0,1,144.93,59.61Zm1.69,5.27-1.26,0a4,4,0,0,0-2.17.53,1.52,1.52,0,0,0-.62,1.3,1.23,1.23,0,0,0,.43,1,1.79,1.79,0,0,0,1.13.33,2.62,2.62,0,0,0,1.78-.61,2.26,2.26,0,0,0,.71-1.8ZM155.18,68A4.33,4.33,0,0,0,156,68a6.31,6.31,0,0,0,.72-.18v1.56a4.37,4.37,0,0,1-.89.26,5.94,5.94,0,0,1-1.13.1,3.92,3.92,0,0,1-1.49-.27,2.15,2.15,0,0,1-1-1,3.75,3.75,0,0,1-.39-1.87V61.37h-1.33v-.92l1.43-.73.67-2.09h1.3V59.8h2.79v1.57h-2.79v5.2a1.5,1.5,0,0,0,.37,1.1A1.35,1.35,0,0,0,155.18,68Zm12-8.42a4.1,4.1,0,0,1,2.78.82,3.18,3.18,0,0,1,1,2.55v6.55h-1.47L169,68.15H169a5.42,5.42,0,0,1-.85.87,3.48,3.48,0,0,1-1,.51,5.15,5.15,0,0,1-1.4.17,3.71,3.71,0,0,1-1.56-.31,2.52,2.52,0,0,1-1.08-1,3.25,3.25,0,0,1-.39-1.67,2.56,2.56,0,0,1,1.11-2.26,6.57,6.57,0,0,1,3.39-.83l1.69-.06v-.51a1.6,1.6,0,0,0-1.79-1.88,4.83,4.83,0,0,0-1.42.21,12.63,12.63,0,0,0-1.33.52l-.67-1.46a7.79,7.79,0,0,1,3.52-.85Zm1.68,5.27-1.25,0a3.92,3.92,0,0,0-2.17.53,1.53,1.53,0,0,0-.63,1.3,1.26,1.26,0,0,0,.43,1,1.84,1.84,0,0,0,1.14.33,2.59,2.59,0,0,0,1.77-.61,2.23,2.23,0,0,0,.71-1.8Zm15-2.33h4.79V69a15.57,15.57,0,0,1-2.09.52,14.83,14.83,0,0,1-2.42.18,6.72,6.72,0,0,1-3.33-.77,5.06,5.06,0,0,1-2-2.26,8.28,8.28,0,0,1-.71-3.58,7.28,7.28,0,0,1,.79-3.49,5.45,5.45,0,0,1,2.27-2.29,7.42,7.42,0,0,1,3.62-.82,9.64,9.64,0,0,1,2,.21,8.82,8.82,0,0,1,1.8.57L187.83,59a7.79,7.79,0,0,0-1.46-.52,6.67,6.67,0,0,0-1.68-.21,4.64,4.64,0,0,0-2.38.59,4,4,0,0,0-1.53,1.69,5.65,5.65,0,0,0-.54,2.56,6.91,6.91,0,0,0,.43,2.51A3.55,3.55,0,0,0,182,67.32a4.29,4.29,0,0,0,2.38.6,8.59,8.59,0,0,0,1.24-.08c.34,0,.65-.11.94-.18V64.35h-2.71Zm9.73,7h-2.07V55.85h2.07Zm6.77-9.92a4.13,4.13,0,0,1,2.79.82,3.18,3.18,0,0,1,1,2.55v6.55h-1.47l-.4-1.38h-.07a5,5,0,0,1-.85.87,3.25,3.25,0,0,1-1,.51,5.1,5.1,0,0,1-1.4.17,3.64,3.64,0,0,1-1.55-.31,2.46,2.46,0,0,1-1.08-1,3.15,3.15,0,0,1-.4-1.67A2.55,2.55,0,0,1,197,64.47a6.57,6.57,0,0,1,3.39-.83l1.69-.06v-.51a1.87,1.87,0,0,0-.48-1.45,1.9,1.9,0,0,0-1.32-.43,4.82,4.82,0,0,0-1.41.21,12.8,12.8,0,0,0-1.34.52l-.66-1.46a7.6,7.6,0,0,1,1.61-.61A7.44,7.44,0,0,1,200.37,59.61Zm1.69,5.27-1.26,0a4,4,0,0,0-2.17.53,1.52,1.52,0,0,0-.62,1.3,1.23,1.23,0,0,0,.43,1,1.79,1.79,0,0,0,1.13.33,2.6,2.6,0,0,0,1.78-.61,2.26,2.26,0,0,0,.71-1.8Zm10-5.27a3.66,3.66,0,0,1,2.56.85,3.56,3.56,0,0,1,.92,2.72v6.35h-2.07v-6a2.63,2.63,0,0,0-.46-1.7,1.75,1.75,0,0,0-1.44-.57,2.15,2.15,0,0,0-2,.87,4.71,4.71,0,0,0-.55,2.52v4.84H207V59.8h1.61l.29,1.31H209a2.82,2.82,0,0,1,.78-.83,3.56,3.56,0,0,1,1.06-.5A4.49,4.49,0,0,1,212.07,59.61ZM222.36,69.7a5.11,5.11,0,0,1-2.39-.53,3.68,3.68,0,0,1-1.56-1.65,6.4,6.4,0,0,1-.54-2.81,6.15,6.15,0,0,1,.6-2.9,3.83,3.83,0,0,1,1.65-1.66,5.3,5.3,0,0,1,2.43-.54,6.41,6.41,0,0,1,1.58.18,5.78,5.78,0,0,1,1.2.41l-.61,1.65a10.93,10.93,0,0,0-1.1-.37,4.25,4.25,0,0,0-1.08-.15,2.56,2.56,0,0,0-1.43.38,2.3,2.3,0,0,0-.84,1.13,5.48,5.48,0,0,0-.27,1.85,5,5,0,0,0,.28,1.81,2.27,2.27,0,0,0,.83,1.11,2.4,2.4,0,0,0,1.37.37,5.21,5.21,0,0,0,1.43-.19,6,6,0,0,0,1.19-.51v1.8a4.45,4.45,0,0,1-1.18.46A6.34,6.34,0,0,1,222.36,69.7Zm8.9-10.09a4.4,4.4,0,0,1,2.24.54,3.56,3.56,0,0,1,1.43,1.52,5.16,5.16,0,0,1,.5,2.35v1.11h-6.49a3.17,3.17,0,0,0,.75,2.18,2.7,2.7,0,0,0,2,.77,7.06,7.06,0,0,0,1.67-.18,8.6,8.6,0,0,0,1.54-.54V69a6.38,6.38,0,0,1-1.49.5,8.56,8.56,0,0,1-1.81.16,5.5,5.5,0,0,1-2.52-.55,4.08,4.08,0,0,1-1.7-1.67,5.74,5.74,0,0,1-.6-2.75,6.32,6.32,0,0,1,.55-2.78,4,4,0,0,1,1.56-1.74A4.42,4.42,0,0,1,231.26,59.61Zm0,1.56a2.1,2.1,0,0,0-1.58.63,3,3,0,0,0-.7,1.85h4.43a3.49,3.49,0,0,0-.25-1.29,1.85,1.85,0,0,0-.7-.88A2.1,2.1,0,0,0,231.26,61.17Z"/><path class="cls-2" d="M9.11,121.31A6.51,6.51,0,0,1,9,122.7a3.26,3.26,0,0,1-.37,1,1.84,1.84,0,0,1-.68.65,2.12,2.12,0,0,1-1,.22,1.89,1.89,0,0,1-1.23-.39A2.27,2.27,0,0,1,5,123.09a5.85,5.85,0,0,1-.24-1.78A6.63,6.63,0,0,1,5,119.53a2.26,2.26,0,0,1,.7-1.13,1.9,1.9,0,0,1,1.27-.4,1.84,1.84,0,0,1,1.23.4,2.31,2.31,0,0,1,.72,1.13A5.76,5.76,0,0,1,9.11,121.31Zm-3.33,0a7.39,7.39,0,0,0,.11,1.36,1.61,1.61,0,0,0,.36.81.87.87,0,0,0,.67.27.87.87,0,0,0,.67-.27,1.75,1.75,0,0,0,.36-.81,7.31,7.31,0,0,0,.11-1.36A7.2,7.2,0,0,0,8,120a1.6,1.6,0,0,0-.36-.82.85.85,0,0,0-.67-.28.83.83,0,0,0-.67.28,1.6,1.6,0,0,0-.36.82A7.2,7.2,0,0,0,5.78,121.31Z"/><path class="cls-2" d="M7.37,91.51a2.53,2.53,0,0,1,1.09.22,1.71,1.71,0,0,1,.73.65,2,2,0,0,1,.27,1.05,2.31,2.31,0,0,1-.29,1.17,1.93,1.93,0,0,1-.84.75A3.07,3.07,0,0,1,7,95.61,5.58,5.58,0,0,1,6,95.53a2.54,2.54,0,0,1-.75-.27v-.93a3.43,3.43,0,0,0,.79.3,3.51,3.51,0,0,0,.88.12,2.17,2.17,0,0,0,.77-.13,1,1,0,0,0,.49-.41,1.22,1.22,0,0,0,.18-.69A1,1,0,0,0,8,92.67a1.66,1.66,0,0,0-1.1-.3,3.69,3.69,0,0,0-.56,0c-.2,0-.36.07-.5.1l-.45-.27.24-3.14H9V90H6.58l-.14,1.6.38-.07A4.22,4.22,0,0,1,7.37,91.51Z"/><path class="cls-2" d="M17,142.31a2.58,2.58,0,0,1-.42,0,1.38,1.38,0,0,1-.32-.07v-.88l.31.06.34,0a1,1,0,0,0,.44-.09.63.63,0,0,0,.31-.33,1.56,1.56,0,0,0,.12-.68V134.1h1.06v6.17a2.62,2.62,0,0,1-.23,1.17,1.46,1.46,0,0,1-.64.66A2.13,2.13,0,0,1,17,142.31Zm5.3-6.74a2,2,0,0,1,1.39.41,1.57,1.57,0,0,1,.48,1.27v3.28H23.4l-.19-.69h0a2.87,2.87,0,0,1-.42.43,1.75,1.75,0,0,1-.51.26,2.81,2.81,0,0,1-.7.08,1.94,1.94,0,0,1-.78-.15,1.24,1.24,0,0,1-.54-.5,1.62,1.62,0,0,1-.2-.83,1.28,1.28,0,0,1,.56-1.13,3.32,3.32,0,0,1,1.7-.42l.84,0v-.25a1,1,0,0,0-.24-.73.93.93,0,0,0-.66-.21,2.32,2.32,0,0,0-.7.1,6.66,6.66,0,0,0-.67.26l-.34-.73a4.27,4.27,0,0,1,.81-.3A3.75,3.75,0,0,1,22.27,135.57Zm.84,2.63-.62,0a2,2,0,0,0-1.09.27.75.75,0,0,0-.31.65.62.62,0,0,0,.21.52.94.94,0,0,0,.57.17,1.29,1.29,0,0,0,.89-.31,1.1,1.1,0,0,0,.35-.9Zm5-2.63a1.83,1.83,0,0,1,1.28.42,1.78,1.78,0,0,1,.46,1.36v3.18h-1v-3a1.29,1.29,0,0,0-.24-.85.86.86,0,0,0-.72-.29,1.07,1.07,0,0,0-1,.44,2.41,2.41,0,0,0-.27,1.26v2.42h-1v-4.87h.81l.14.66h.06a1.57,1.57,0,0,1,.39-.42,2,2,0,0,1,.53-.25A2.49,2.49,0,0,1,28.12,135.57Zm7.43.09v4.87h-.82l-.14-.66h-.05a1.57,1.57,0,0,1-.39.42,1.7,1.7,0,0,1-.53.24,2.09,2.09,0,0,1-.61.08,2.22,2.22,0,0,1-.94-.18,1.35,1.35,0,0,1-.6-.58,2.27,2.27,0,0,1-.2-1v-3.18h1v3a1.33,1.33,0,0,0,.23.85.89.89,0,0,0,.72.28,1.26,1.26,0,0,0,.75-.19,1.08,1.08,0,0,0,.39-.57,3.09,3.09,0,0,0,.12-.93v-2.42Zm3.39-.09a2,2,0,0,1,1.39.41,1.59,1.59,0,0,1,.47,1.27v3.28h-.73l-.2-.69h0a2.49,2.49,0,0,1-.43.43,1.75,1.75,0,0,1-.51.26,2.75,2.75,0,0,1-.7.08,1.94,1.94,0,0,1-.78-.15,1.24,1.24,0,0,1-.54-.5,1.62,1.62,0,0,1-.19-.83,1.27,1.27,0,0,1,.55-1.13,3.35,3.35,0,0,1,1.7-.42l.84,0v-.25a1,1,0,0,0-.23-.73,1,1,0,0,0-.66-.21,2.39,2.39,0,0,0-.71.1c-.23.08-.45.16-.67.26l-.33-.73a3.81,3.81,0,0,1,.81-.3A3.69,3.69,0,0,1,38.94,135.57Zm.84,2.63-.63,0a2,2,0,0,0-1.09.27.77.77,0,0,0-.31.65.59.59,0,0,0,.22.52.9.9,0,0,0,.57.17,1.26,1.26,0,0,0,.88-.31,1.1,1.1,0,0,0,.36-.9Zm4.93-2.63H45l.25,0-.09,1-.23,0h-.24a1.6,1.6,0,0,0-.53.09,1.22,1.22,0,0,0-.44.28,1.19,1.19,0,0,0-.3.45,1.54,1.54,0,0,0-.11.63v2.55h-1v-4.87h.81l.14.86h0a1.83,1.83,0,0,1,.36-.48,1.72,1.72,0,0,1,.49-.34A1.39,1.39,0,0,1,44.71,135.57Zm.69.09h1.12l1,2.78a2.65,2.65,0,0,1,.12.37c0,.12.07.24.1.36s0,.23.07.35h0A4.79,4.79,0,0,1,48,139q.07-.28.18-.57l1-2.78h1.11l-2.09,5.53a2.83,2.83,0,0,1-.44.81,1.59,1.59,0,0,1-.62.51,1.73,1.73,0,0,1-.81.18,2.17,2.17,0,0,1-.38,0l-.28,0v-.82l.24,0h.29a.88.88,0,0,0,.47-.11.94.94,0,0,0,.35-.31,1.9,1.9,0,0,0,.23-.45l.17-.46Z"/><path class="cls-2" d="M70.82,140.53h-1V134.1H73.4V135H70.82v2h2.41v.89H70.82Zm5.58-5a2.19,2.19,0,0,1,1.12.27,1.74,1.74,0,0,1,.71.76,2.5,2.5,0,0,1,.26,1.17v.56H75.24a1.6,1.6,0,0,0,.38,1.09,1.35,1.35,0,0,0,1,.38,3.52,3.52,0,0,0,.83-.09,4.17,4.17,0,0,0,.77-.27v.84a2.94,2.94,0,0,1-.74.25,4.1,4.1,0,0,1-.91.08,2.78,2.78,0,0,1-1.26-.27,2.08,2.08,0,0,1-.85-.84,2.86,2.86,0,0,1-.3-1.37,3.08,3.08,0,0,1,.28-1.39,2,2,0,0,1,.77-.87A2.26,2.26,0,0,1,76.4,135.57Zm0,.78a1,1,0,0,0-.79.31,1.46,1.46,0,0,0-.35.93h2.21a1.67,1.67,0,0,0-.12-.65,1,1,0,0,0-.35-.44A1.09,1.09,0,0,0,76.4,136.35Zm4.28-2.66v1.65c0,.19,0,.37,0,.56s0,.32,0,.42h0a1.75,1.75,0,0,1,.55-.53,1.78,1.78,0,0,1,.91-.22,1.72,1.72,0,0,1,1.39.64,2.83,2.83,0,0,1,.53,1.88,3.57,3.57,0,0,1-.24,1.39,1.94,1.94,0,0,1-.68.85,1.82,1.82,0,0,1-1,.28,1.72,1.72,0,0,1-.9-.2,1.78,1.78,0,0,1-.53-.48h-.08l-.19.6h-.77v-6.84Zm1.19,2.72a1.21,1.21,0,0,0-.7.18,1,1,0,0,0-.37.53,3.39,3.39,0,0,0-.12.88v.09a2.44,2.44,0,0,0,.26,1.24,1,1,0,0,0,.94.44.94.94,0,0,0,.83-.44,2.3,2.3,0,0,0,.29-1.26,2.2,2.2,0,0,0-.29-1.24A1,1,0,0,0,81.87,136.41Zm5.85-.84H88l.25,0-.1,1-.22,0h-.24a1.55,1.55,0,0,0-.53.09,1.14,1.14,0,0,0-.44.28,1.34,1.34,0,0,0-.31.45,1.73,1.73,0,0,0-.11.63v2.55h-1v-4.87h.81l.14.86h0a2.12,2.12,0,0,1,.37-.48,1.72,1.72,0,0,1,.49-.34A1.36,1.36,0,0,1,87.72,135.57Zm5.66.09v4.87h-.81l-.14-.66h-.06a1.31,1.31,0,0,1-.39.42,1.6,1.6,0,0,1-.53.24,2,2,0,0,1-.61.08,2.25,2.25,0,0,1-.94-.18,1.32,1.32,0,0,1-.59-.58,2.13,2.13,0,0,1-.21-1v-3.18h1v3a1.33,1.33,0,0,0,.23.85.86.86,0,0,0,.72.28,1.3,1.3,0,0,0,.75-.19,1.08,1.08,0,0,0,.39-.57,3.09,3.09,0,0,0,.12-.93v-2.42Zm3.39-.09a2,2,0,0,1,1.39.41,1.57,1.57,0,0,1,.48,1.27v3.28H97.9l-.19-.69h0a2.87,2.87,0,0,1-.42.43,1.75,1.75,0,0,1-.51.26,2.81,2.81,0,0,1-.7.08,1.94,1.94,0,0,1-.78-.15,1.24,1.24,0,0,1-.54-.5,1.62,1.62,0,0,1-.2-.83,1.28,1.28,0,0,1,.56-1.13,3.32,3.32,0,0,1,1.7-.42l.84,0v-.25a1,1,0,0,0-.24-.73.93.93,0,0,0-.66-.21,2.32,2.32,0,0,0-.7.1,6.66,6.66,0,0,0-.67.26L95,136a4.27,4.27,0,0,1,.81-.3A3.75,3.75,0,0,1,96.77,135.57Zm.84,2.63-.62,0a2,2,0,0,0-1.09.27.75.75,0,0,0-.31.65.62.62,0,0,0,.21.52.94.94,0,0,0,.57.17,1.29,1.29,0,0,0,.89-.31,1.1,1.1,0,0,0,.35-.9Zm4.94-2.63h.27l.25,0-.1,1-.23,0h-.23a1.55,1.55,0,0,0-.53.09,1.18,1.18,0,0,0-.45.28,1.31,1.31,0,0,0-.3.45,1.73,1.73,0,0,0-.11.63v2.55h-1v-4.87h.81l.14.86h0a2.41,2.41,0,0,1,.36-.48,2,2,0,0,1,.49-.34A1.44,1.44,0,0,1,102.55,135.57Zm.69.09h1.12l1,2.78.12.37c0,.12.07.24.09.36a2,2,0,0,1,.07.35h0q0-.22.12-.51c.06-.19.12-.38.19-.57l1-2.78h1.11L106,141.19a3.1,3.1,0,0,1-.44.81,1.67,1.67,0,0,1-.62.51,1.79,1.79,0,0,1-.81.18,2,2,0,0,1-.38,0l-.28,0v-.82l.23,0H104a.9.9,0,0,0,.48-.11.84.84,0,0,0,.34-.31A1.61,1.61,0,0,0,105,141l.17-.46Z"/><path class="cls-2" d="M129.54,140.53l-1.85-5.37h0c0,.12,0,.28,0,.49s0,.43,0,.67,0,.46,0,.68v3.53h-1V134.1h1.48l1.78,5.13h0l1.84-5.13h1.48v6.43h-1V137c0-.2,0-.41,0-.64s0-.44,0-.65,0-.37,0-.49h0l-1.92,5.36Zm7.33-5a2,2,0,0,1,1.39.41,1.57,1.57,0,0,1,.48,1.27v3.28H138l-.19-.69h0a2.49,2.49,0,0,1-.43.43,1.53,1.53,0,0,1-.51.26,2.73,2.73,0,0,1-.69.08,1.94,1.94,0,0,1-.78-.15,1.24,1.24,0,0,1-.54-.5,1.62,1.62,0,0,1-.2-.83,1.28,1.28,0,0,1,.56-1.13,3.31,3.31,0,0,1,1.69-.42l.85,0v-.25a1,1,0,0,0-.24-.73.93.93,0,0,0-.66-.21,2.44,2.44,0,0,0-.71.1c-.22.08-.45.16-.66.26l-.34-.73a4.27,4.27,0,0,1,.81-.3A3.75,3.75,0,0,1,136.87,135.57Zm.84,2.63-.62,0a2,2,0,0,0-1.09.27.75.75,0,0,0-.31.65.62.62,0,0,0,.21.52.94.94,0,0,0,.57.17,1.29,1.29,0,0,0,.89-.31,1.13,1.13,0,0,0,.35-.9Zm4.94-2.63h.27l.25,0-.1,1-.23,0h-.24a1.5,1.5,0,0,0-.52.09,1.27,1.27,0,0,0-.75.73,1.73,1.73,0,0,0-.11.63v2.55h-1v-4.87H141l.14.86h.05a2.41,2.41,0,0,1,.36-.48,1.87,1.87,0,0,1,.49-.34A1.44,1.44,0,0,1,142.65,135.57Zm3.38,5a2.65,2.65,0,0,1-1.2-.26,1.9,1.9,0,0,1-.78-.83,3.18,3.18,0,0,1-.27-1.4,3.06,3.06,0,0,1,.3-1.45,1.9,1.9,0,0,1,.83-.83,2.63,2.63,0,0,1,1.21-.27,3.18,3.18,0,0,1,.79.09,2.48,2.48,0,0,1,.6.2l-.3.83c-.18-.07-.37-.14-.55-.19a2.11,2.11,0,0,0-.54-.07,1.25,1.25,0,0,0-.72.19,1.17,1.17,0,0,0-.42.56,2.78,2.78,0,0,0-.13.93,2.36,2.36,0,0,0,.14.9,1.14,1.14,0,0,0,.41.56,1.27,1.27,0,0,0,.69.18,2.6,2.6,0,0,0,.71-.09,3.2,3.2,0,0,0,.6-.26v.9a2.13,2.13,0,0,1-.59.23A3,3,0,0,1,146,140.61Zm3.54-6.92v1.72c0,.17,0,.35,0,.52s0,.3,0,.39h.05a1.5,1.5,0,0,1,.38-.41,1.57,1.57,0,0,1,.5-.25,2,2,0,0,1,.6-.09,2.26,2.26,0,0,1,.95.19,1.3,1.3,0,0,1,.6.58,2.13,2.13,0,0,1,.21,1v3.18h-1v-3a1.29,1.29,0,0,0-.23-.85.86.86,0,0,0-.72-.29,1.3,1.3,0,0,0-.75.2,1.07,1.07,0,0,0-.39.58,3.07,3.07,0,0,0-.12.92v2.42h-1v-6.84Z"/><path class="cls-2" d="M175.75,140.53l-.63-1.79h-2.45l-.63,1.79h-1.11l2.39-6.46h1.17l2.38,6.46Zm-.9-2.69-.61-1.76c0-.08-.06-.18-.1-.32l-.13-.43c0-.15-.08-.27-.11-.37l-.11.41-.12.41-.09.3-.62,1.76Zm5.26-2.27a1.71,1.71,0,0,1,1.39.63,2.89,2.89,0,0,1,.53,1.88,3.44,3.44,0,0,1-.25,1.4,1.94,1.94,0,0,1-.68.85,1.81,1.81,0,0,1-1,.28,2.13,2.13,0,0,1-.65-.09,1.59,1.59,0,0,1-.79-.6h-.06c0,.12,0,.25,0,.39a2.75,2.75,0,0,1,0,.39v2h-1v-7h.84l.14.67h.05A2.3,2.3,0,0,1,179,136a1.41,1.41,0,0,1,.48-.28A1.81,1.81,0,0,1,180.11,135.57Zm-.27.84a1.26,1.26,0,0,0-.69.17,1,1,0,0,0-.37.51,2.81,2.81,0,0,0-.13.85v.14a3.46,3.46,0,0,0,.11.92,1.07,1.07,0,0,0,.38.57,1.15,1.15,0,0,0,.71.2.91.91,0,0,0,.62-.21,1.31,1.31,0,0,0,.38-.59,3.06,3.06,0,0,0,.12-.9,2.2,2.2,0,0,0-.28-1.22A1,1,0,0,0,179.84,136.41Zm5.85-.84H186l.25,0-.1,1-.23,0h-.24a1.5,1.5,0,0,0-.52.09,1.27,1.27,0,0,0-.75.73,1.73,1.73,0,0,0-.11.63v2.55h-1v-4.87H184l.14.86h.05a2.41,2.41,0,0,1,.36-.48,1.87,1.87,0,0,1,.49-.34A1.44,1.44,0,0,1,185.69,135.57Zm2.45.09v4.87h-1v-4.87Zm-.51-1.86a.69.69,0,0,1,.41.12.52.52,0,0,1,.18.44.49.49,0,0,1-.18.44.63.63,0,0,1-.41.13.68.68,0,0,1-.42-.13.51.51,0,0,1-.16-.44.54.54,0,0,1,.16-.44A.74.74,0,0,1,187.63,133.8Zm3,6.73h-1v-6.84h1Z"/><path class="cls-2" d="M212.54,140.53l-1.85-5.37h0c0,.12,0,.28,0,.49s0,.43,0,.67,0,.46,0,.68v3.53h-1V134.1h1.48l1.78,5.13h0l1.84-5.13h1.48v6.43h-1V137c0-.2,0-.41,0-.64s0-.44,0-.65,0-.37,0-.49h0l-1.92,5.36Zm7.33-5a2,2,0,0,1,1.39.41,1.57,1.57,0,0,1,.48,1.27v3.28H221l-.19-.69h0a2.49,2.49,0,0,1-.43.43,1.53,1.53,0,0,1-.51.26,2.73,2.73,0,0,1-.69.08,1.94,1.94,0,0,1-.78-.15,1.24,1.24,0,0,1-.54-.5,1.62,1.62,0,0,1-.2-.83,1.28,1.28,0,0,1,.56-1.13,3.31,3.31,0,0,1,1.69-.42l.85,0v-.25a1,1,0,0,0-.24-.73.93.93,0,0,0-.66-.21,2.44,2.44,0,0,0-.71.1c-.22.08-.45.16-.66.26l-.34-.73a4.27,4.27,0,0,1,.81-.3A3.75,3.75,0,0,1,219.87,135.57Zm.84,2.63-.62,0a2,2,0,0,0-1.09.27.75.75,0,0,0-.31.65.62.62,0,0,0,.21.52.94.94,0,0,0,.57.17,1.29,1.29,0,0,0,.89-.31,1.13,1.13,0,0,0,.35-.9Zm1.74-2.54h1.12l1,2.78a2.65,2.65,0,0,1,.12.37c0,.12.07.24.1.36s.05.23.07.35h0A4.79,4.79,0,0,1,225,139q.08-.28.18-.57l1-2.78h1.11l-2.09,5.53a2.83,2.83,0,0,1-.44.81,1.64,1.64,0,0,1-.61.51,1.8,1.8,0,0,1-.82.18,2.17,2.17,0,0,1-.38,0l-.28,0v-.82l.24,0h.29a.88.88,0,0,0,.47-.11.94.94,0,0,0,.35-.31,1.9,1.9,0,0,0,.23-.45l.17-.46Z"/><path class="cls-2" d="M247,142.31a2.58,2.58,0,0,1-.42,0,1.38,1.38,0,0,1-.32-.07v-.88l.31.06.34,0a1,1,0,0,0,.44-.09.69.69,0,0,0,.32-.33,1.75,1.75,0,0,0,.11-.68V134.1h1.06v6.17a2.62,2.62,0,0,1-.23,1.17,1.46,1.46,0,0,1-.64.66A2.13,2.13,0,0,1,247,142.31Zm7.63-6.65v4.87h-.81l-.14-.66h-.06a1.31,1.31,0,0,1-.39.42,1.64,1.64,0,0,1-.52.24,2.11,2.11,0,0,1-.62.08,2.28,2.28,0,0,1-.94-.18,1.38,1.38,0,0,1-.59-.58,2.13,2.13,0,0,1-.21-1v-3.18h1v3a1.33,1.33,0,0,0,.23.85.89.89,0,0,0,.72.28,1.3,1.3,0,0,0,.75-.19,1.08,1.08,0,0,0,.39-.57,3.09,3.09,0,0,0,.12-.93v-2.42Zm4-.09a1.81,1.81,0,0,1,1.28.42,1.78,1.78,0,0,1,.46,1.36v3.18h-1v-3a1.35,1.35,0,0,0-.23-.85.89.89,0,0,0-.72-.29,1.08,1.08,0,0,0-1,.44,2.41,2.41,0,0,0-.27,1.26v2.42h-1v-4.87h.8l.14.66h.06a1.57,1.57,0,0,1,.39-.42,2,2,0,0,1,.53-.25A2.49,2.49,0,0,1,258.62,135.57Zm5.13,0a2.17,2.17,0,0,1,1.11.27,1.82,1.82,0,0,1,.72.76,2.62,2.62,0,0,1,.25,1.17v.56h-3.25a1.6,1.6,0,0,0,.38,1.09,1.35,1.35,0,0,0,1,.38,3.46,3.46,0,0,0,.83-.09,4.17,4.17,0,0,0,.77-.27v.84a2.94,2.94,0,0,1-.74.25,4,4,0,0,1-.91.08,2.84,2.84,0,0,1-1.26-.27,2.08,2.08,0,0,1-.85-.84,2.86,2.86,0,0,1-.3-1.37,3.08,3.08,0,0,1,.28-1.39,2,2,0,0,1,.78-.87A2.21,2.21,0,0,1,263.75,135.57Zm0,.78a1.07,1.07,0,0,0-.8.31,1.59,1.59,0,0,0-.35.93h2.22a1.88,1.88,0,0,0-.13-.65,1,1,0,0,0-.35-.44A1.05,1.05,0,0,0,263.75,136.35Z"/><path class="cls-2" d="M3.07,67.53H2V63c0-.14,0-.27,0-.41l0-.37-.23.22-.28.24-.74.59L.3,62.6l1.91-1.5h.86Zm6.46-3.22a7.27,7.27,0,0,1-.12,1.39,3.18,3.18,0,0,1-.38,1,1.77,1.77,0,0,1-.68.65,2.07,2.07,0,0,1-1,.22,1.88,1.88,0,0,1-1.22-.39,2.28,2.28,0,0,1-.72-1.13,6.2,6.2,0,0,1-.23-1.78,6.63,6.63,0,0,1,.21-1.78,2.18,2.18,0,0,1,.69-1.13A1.91,1.91,0,0,1,7.34,61a1.84,1.84,0,0,1,1.23.4,2.18,2.18,0,0,1,.72,1.13A5.76,5.76,0,0,1,9.53,64.31Zm-3.32,0a7.49,7.49,0,0,0,.1,1.36,1.7,1.7,0,0,0,.37.81.84.84,0,0,0,.66.27A.87.87,0,0,0,8,66.48a1.57,1.57,0,0,0,.36-.81,6.47,6.47,0,0,0,.12-1.36A7.2,7.2,0,0,0,8.38,63,1.79,1.79,0,0,0,8,62.14a.87.87,0,0,0-.68-.28.85.85,0,0,0-.67.28,1.79,1.79,0,0,0-.36.82A7.3,7.3,0,0,0,6.21,64.31Z"/><path class="cls-2" d="M4.38,37.53H0v-.78L1.7,35.06c.32-.33.58-.61.79-.85A2.81,2.81,0,0,0,3,33.53a1.5,1.5,0,0,0,.16-.7.88.88,0,0,0-.27-.7,1,1,0,0,0-.71-.24,1.8,1.8,0,0,0-.77.16,3.58,3.58,0,0,0-.73.47l-.57-.68a6,6,0,0,1,.57-.42,3.59,3.59,0,0,1,.69-.3A3.21,3.21,0,0,1,2.18,31a2.26,2.26,0,0,1,1,.22,1.56,1.56,0,0,1,.69.6,1.68,1.68,0,0,1,.24.9,2.18,2.18,0,0,1-.21,1,3.72,3.72,0,0,1-.59.87c-.25.28-.56.59-.91.93L1.34,36.57v0h3Zm5.15-3.22a7.27,7.27,0,0,1-.12,1.39,3.18,3.18,0,0,1-.38,1,1.77,1.77,0,0,1-.68.65,2.07,2.07,0,0,1-1,.22,1.88,1.88,0,0,1-1.22-.39,2.28,2.28,0,0,1-.72-1.13,6.2,6.2,0,0,1-.23-1.78,6.63,6.63,0,0,1,.21-1.78,2.18,2.18,0,0,1,.69-1.13A1.91,1.91,0,0,1,7.34,31a1.84,1.84,0,0,1,1.23.4,2.18,2.18,0,0,1,.72,1.13A5.76,5.76,0,0,1,9.53,34.31Zm-3.32,0a7.49,7.49,0,0,0,.1,1.36,1.7,1.7,0,0,0,.37.81.84.84,0,0,0,.66.27A.87.87,0,0,0,8,36.48a1.57,1.57,0,0,0,.36-.81,6.47,6.47,0,0,0,.12-1.36A7.2,7.2,0,0,0,8.38,33,1.79,1.79,0,0,0,8,32.14a.87.87,0,0,0-.68-.28.85.85,0,0,0-.67.28,1.79,1.79,0,0,0-.36.82A7.3,7.3,0,0,0,6.21,34.31Z"/><path class="cls-2" d="M4.14,1.57A1.49,1.49,0,0,1,4,2.32a1.53,1.53,0,0,1-.48.53,2,2,0,0,1-.71.29v0a2,2,0,0,1,1.16.49,1.33,1.33,0,0,1,.4,1,1.9,1.9,0,0,1-.27,1,1.75,1.75,0,0,1-.82.68,3.43,3.43,0,0,1-1.43.25,5,5,0,0,1-1-.08A3.58,3.58,0,0,1,0,6.26V5.34a4.1,4.1,0,0,0,.87.32,4,4,0,0,0,.87.11,1.74,1.74,0,0,0,1.15-.3,1.06,1.06,0,0,0,.34-.84.86.86,0,0,0-.18-.56,1,1,0,0,0-.55-.33,3.49,3.49,0,0,0-.95-.11H1V2.8h.58a2.43,2.43,0,0,0,.89-.13,1,1,0,0,0,.49-.38,1,1,0,0,0,.15-.55.81.81,0,0,0-.26-.64A1.18,1.18,0,0,0,2,.87a2.17,2.17,0,0,0-.59.07A2.38,2.38,0,0,0,1,1.13l-.43.25L0,.66A3.25,3.25,0,0,1,.9.2,3.23,3.23,0,0,1,2.07,0,2.38,2.38,0,0,1,3.6.44,1.35,1.35,0,0,1,4.14,1.57ZM9.53,3.31A7.27,7.27,0,0,1,9.41,4.7a3.18,3.18,0,0,1-.38,1,1.77,1.77,0,0,1-.68.65,2.07,2.07,0,0,1-1,.22,1.88,1.88,0,0,1-1.22-.39A2.28,2.28,0,0,1,5.4,5.09a6.2,6.2,0,0,1-.23-1.78,6.63,6.63,0,0,1,.21-1.78A2.18,2.18,0,0,1,6.07.4,1.91,1.91,0,0,1,7.34,0,1.84,1.84,0,0,1,8.57.4a2.18,2.18,0,0,1,.72,1.13A5.76,5.76,0,0,1,9.53,3.31Zm-3.32,0a7.49,7.49,0,0,0,.1,1.36,1.7,1.7,0,0,0,.37.81.84.84,0,0,0,.66.27A.87.87,0,0,0,8,5.48a1.57,1.57,0,0,0,.36-.81,6.47,6.47,0,0,0,.12-1.36A7.2,7.2,0,0,0,8.38,2,1.79,1.79,0,0,0,8,1.14.87.87,0,0,0,7.34.86a.85.85,0,0,0-.67.28A1.79,1.79,0,0,0,6.31,2,7.3,7.3,0,0,0,6.21,3.31Z"/></g></g></svg>