<svg width="42" height="62" viewBox="0 0 42 62" fill="none" xmlns="http://www.w3.org/2000/svg">
<path d="M13.6289 24.2988L4 46.4844L11.6771 46.5494L17.4024 56.0482C17.4024 56.0482 19.8747 34.9036 21.1108 24.2988H13.6289V24.2988Z" fill="white" stroke="white" stroke-width="8" stroke-miterlimit="10" stroke-linecap="round" stroke-linejoin="round"/>
<path d="M28.5282 29.5684L37.5065 49.8021L29.9595 49.9973L24.2342 57.9997C24.2342 57.9997 22.1523 39.0672 21.1113 29.5684H28.5282V29.5684Z" fill="white" stroke="white" stroke-width="8" stroke-miterlimit="10" stroke-linecap="round" stroke-linejoin="round"/>
<path d="M21.1106 36.9205C30.2014 36.9205 37.5709 29.551 37.5709 20.4602C37.5709 11.3695 30.2014 4 21.1106 4C12.0199 4 4.65039 11.3695 4.65039 20.4602C4.65039 29.551 12.0199 36.9205 21.1106 36.9205Z" fill="white" stroke="white" stroke-width="8" stroke-miterlimit="10" stroke-linecap="round"/>
<path d="M13.6289 24.2988L4 46.4844L11.6771 46.5494L17.4024 56.0482C17.4024 56.0482 19.8747 34.9036 21.1108 24.2988H13.6289V24.2988Z" fill="white" stroke="#A6A9AA" stroke-width="2" stroke-miterlimit="10" stroke-linecap="round" stroke-linejoin="round"/>
<path d="M28.5282 29.5684L37.5065 49.8021L29.9595 49.9973L24.2342 57.9997C24.2342 57.9997 22.1523 39.0672 21.1113 29.5684H28.5282V29.5684Z" fill="white" stroke="#A6A9AA" stroke-width="2" stroke-miterlimit="10" stroke-linecap="round" stroke-linejoin="round"/>
<path d="M21.1106 36.9205C30.2014 36.9205 37.5709 29.551 37.5709 20.4602C37.5709 11.3695 30.2014 4 21.1106 4C12.0199 4 4.65039 11.3695 4.65039 20.4602C4.65039 29.551 12.0199 36.9205 21.1106 36.9205Z" fill="white" stroke="#A6A9AA" stroke-width="2" stroke-miterlimit="10" stroke-linecap="round"/>
<path d="M21.1115 9.85547L24.1042 16.2314L30.4801 17.0772L25.991 22.347L26.9018 28.7229L21.1115 25.4699L15.256 28.7229L16.1669 22.347L11.6777 17.0772L18.0536 16.2314L21.1115 9.85547Z" stroke="#A6A9AA" stroke-width="2" stroke-miterlimit="10" stroke-linecap="round" stroke-linejoin="round"/>
<path opacity="0.5" d="M21.1115 9.85547L24.1042 16.2314L30.4801 17.0772L25.991 22.347L26.9018 28.7229L21.1115 25.4699L15.256 28.7229L16.1669 22.347L11.6777 17.0772L18.0536 16.2314L21.1115 9.85547Z" fill="#A6A9AA"/>
<path d="M27.3574 40.1729L28.6586 45.4427" stroke="#A6A9AA" stroke-width="2" stroke-miterlimit="10" stroke-linecap="round"/>
<path d="M13.5001 40.1084L12.6543 42.7759" stroke="#A6A9AA" stroke-width="2" stroke-miterlimit="10" stroke-linecap="round"/>
</svg>
